<svg xmlns="http://www.w3.org/2000/svg" viewBox="0 0 108.87 173.26"><defs><style>.cls-1{fill:#fff;}</style></defs><title>אובלפיכה</title><g id="Layer_2" data-name="Layer 2"><g id="Expended"><path class="cls-1" d="M70.72,11.32s-.07,1.92-2.32,8.11a50.16,50.16,0,0,1-6.69,11.91l.52.41A50.88,50.88,0,0,0,69,19.66c2.3-6.34,2.36-8.24,2.36-8.32Z"/><path class="cls-1" d="M60.88,18.54A95.29,95.29,0,0,1,65.26,5.38l-.61-.26a95.93,95.93,0,0,0-4.41,13.26C58.77,24.66,58.36,26,58.36,26l.63.2C59,26.14,59.4,24.85,60.88,18.54Z"/><path class="cls-1" d="M79.64,62.89a76.07,76.07,0,0,0,8.18-3.1c4-1.83,5.53-2.45,5.54-2.45l-.25-.61s-1.52.62-5.57,2.46a75.31,75.31,0,0,1-8.1,3.07Z"/><path class="cls-1" d="M81.09,76.05l-.62-.23s-.87,2.31-5,9A86.45,86.45,0,0,1,68,95.64l.49.44A86.76,86.76,0,0,0,76,85.19C80.21,78.4,81.05,76.15,81.09,76.05Z"/><path class="cls-1" d="M43.86,102.91l.66,0a48.08,48.08,0,0,1,1.74-13.06l-.63-.19A48.83,48.83,0,0,0,43.86,102.91Z"/><path class="cls-1" d="M8.11,143.64l-.33.57a12.75,12.75,0,0,0,6.12,1.31,18.84,18.84,0,0,0,2.23-.14,42,42,0,0,1,6.67-.48l.06-.66a40.62,40.62,0,0,0-6.81.49A13.65,13.65,0,0,1,8.11,143.64Z"/><path class="cls-1" d="M27.52,143.41a37.66,37.66,0,0,0-.58-11.24,26.43,26.43,0,0,0-4.14-9.69,6,6,0,0,1-.34-.54l-.6.28a5.92,5.92,0,0,0,.39.63,25.8,25.8,0,0,1,4,9.45,37,37,0,0,1,.57,11Z"/><path class="cls-1" d="M10.48,127.07l-.07-.11-.55.37,0,.08a28.66,28.66,0,0,0,7.49,8.45l.39-.53A28,28,0,0,1,10.48,127.07Z"/><path class="cls-1" d="M102.83,117.05a22.16,22.16,0,0,0-8,.13c2.78-1.81,5.45-4.13,6.82-6.71,3.14-5.94,4.17-10.93,3.71-12.25a.54.54,0,0,0-.45-.42c-.48,0-.78.48-2.24,3-1.13,2-2.83,4.9-5.52,9.13-2.43,3.81-6.47,8.7-11.95,10.37-.31.09-.48.15-.51.38l0,.22.16.1-.36,0a5.62,5.62,0,0,0-.63-.36l-.1,0A12.11,12.11,0,0,0,87.58,119a14.11,14.11,0,0,0,6.3-9.6c1.58-9-1.76-13.34-2.49-13.83l-.24-.12-.18.1c-.3.17-.29.53-.24,2.05a46.56,46.56,0,0,1-.31,7.94l-3.12-.61a41.36,41.36,0,0,1-4.54-1l0,0,.32-.18A5.47,5.47,0,0,0,85.12,102a27.81,27.81,0,0,1,3.47-3.8A12.67,12.67,0,0,0,90,96.66a.57.57,0,0,0,.05-.61c-.18-.27-.52-.21-1-.14l-.34.05c.76-1.45,5-6.83,6-7.32.2-.09.66-.31.62-.71s-.63-.57-1.3-.72l-.2,0c.65-1.62,6.53-10.29,7.08-11a2.45,2.45,0,0,1,.49-.34c.55-.33,1.38-.83,1-1.62-.14-.34.23-1.22.51-1.86a5.73,5.73,0,0,0,.49-1.46c0-.11,0-.45-.25-.54s-.41.05-1,1.23c-.49.91-1.23,2.29-2.32,4-2.11,3.36-8.78,11.78-10,13.31A18.85,18.85,0,0,1,89.77,87c0-.16,0-.6-.39-.62h0c-.79,0-1.52,4.75-1.55,5-.28,1.86-2,4.19-3.32,6.07l-.46.63a5.38,5.38,0,0,1-.77.94,1,1,0,0,1-.14-.13,1.66,1.66,0,0,0-.8-.52.69.69,0,0,0-.65.09c-.25.22-.2.58-.14,1a3.4,3.4,0,0,1-.13,1.9c-.65,1.46-4.79,5.22-4.83,5.26l.26.29s0,.06,0,.1a2.78,2.78,0,0,0-.91-.46,3.65,3.65,0,0,0,.79-1,5.24,5.24,0,0,0,0-4.13.35.35,0,0,0,.32-.06c.48-.37-.74-2.44-.75-2.46a.55.55,0,0,0-.54-.32c-.4,0-.57.56-.73,1.05l0,0-.12-.06a8.61,8.61,0,0,0-2.82-1,2.78,2.78,0,0,0-2.29.39,1.75,1.75,0,0,0-.52.7,19.69,19.69,0,0,0-1.47-1.57,7,7,0,0,1-.85-.91c0-.16.06-.29.09-.39a2,2,0,0,0,.05-.27h.23V96.4l.37.09c0-.06,1.5-6,8.22-15.53C79.48,75.8,83,71,84.09,69.85a63.61,63.61,0,0,1-7.34,16.92c-4.93,8.07-9.13,10-9.17,10.06l.27.6c.17-.08,4.06-1.89,8.82-9.31.75-.08,6.23-.78,9.84-3.31A13.61,13.61,0,0,0,89,82.39l.25.51A27.4,27.4,0,0,0,95.64,78c2.14-2.1,4.57-4.87,3.94-6.12-.24-.49-.85-.66-1.8-.51-1.79.27-4,3.32-6.25,6.54-.9,1.27-1.82,2.55-2.71,3.68l0,0c-1.22.93-7,2.17-9.81,2.69,3.9-7.18,5.88-13.87,5.8-14.77a.46.46,0,0,0-.33-.46c-.56-.16-1.17.27-9.16,11.6-1.14,1.62-2.13,3.13-3,4.53v0a9.72,9.72,0,0,0-3.08,1.65,6.27,6.27,0,0,0-1.62,2c.12-2.28.25-4.17.36-4.62a11,11,0,0,0-.2-3.79h0c.2-1.63,1.19-2.61,2.67-4.08A34.18,34.18,0,0,0,74.12,72,37.22,37.22,0,0,0,78,65.1c.49-.14,3.54-1,9.35-3.4S97.84,56,98,55a.49.49,0,0,0-.16-.47c-.39-.33-1.52-.44-10,2.58L80,59.9c.62-1.85,1.13-3.64,1.5-5.22a23,23,0,0,0,.65-7.07,13.83,13.83,0,0,0,3.21-4.74,36.82,36.82,0,0,0,2.57-7.54.45.45,0,0,0-.27-.52c-.75-.3-2.35,1.33-4.18,4.23-1.62,2.58-5.29,6.42-8.54,9.82-1.91,2-3.72,3.89-4.84,5.25-2.28,2.77-4,8.45-4.66,11.2-.49-2.55-.9-4.29-1.08-5a9.52,9.52,0,0,1,.1-4.61,3.34,3.34,0,0,0-.05-1.58,24.56,24.56,0,0,0,3.26-2.72c2.84-2.69,5.49-8.27,7.09-14.93a31.62,31.62,0,0,0,.83-6.54c.5-.28,2.08-1.4,5.26-5.42,3.53-4.47,3.77-7.9,3.71-9.17a.53.53,0,0,0-.35-.55c-.39-.12-.93.07-3.59,3.64a23.81,23.81,0,0,1-5.4,5.24c-.58-4-1.68-6.9-2.32-7.28a.51.51,0,0,0-.49,0c-.74.35-1.15,2.85-2,8.88-.11.79-.22,1.59-.34,2.37a61,61,0,0,0-4.88,4.9,21.08,21.08,0,0,0-4.5,8q-.52-2.36-.92-4.75c1.09-1.14,8.5-9.06,10.73-15.71,2-5.86,2.37-10.89,1.52-11.91a.6.6,0,0,0-.55-.23c-1.21.16-4.7,7.44-5.67,11.28a34.44,34.44,0,0,1-4.13,10.34c-1.21,2.19-1.86,3.55-2.21,4.38-.17-1.12-.32-2.25-.45-3.37,0-.31-.06-.5-.07-.53l-.64.16s0,.2.05.44a102.17,102.17,0,0,0,2.73,14.42c.93,3.51,1.62,5.71,2.07,7.17.62,2,.81,2.59.64,3.33a10.11,10.11,0,0,0-.1,4.91c.29,1.17,1.19,5.05,2.07,10.78-.06.26-.09.42-.1.45l.17,0,.06.44v0h0c.1.66.19,1.33.29,2,.27,2,.51,3.62.69,4.87.43,2.9.58,4,.39,4.82-.26,1.15-.63,9.93-.72,12.19l-.22,0a3.9,3.9,0,0,0-1.05.09c-.1-.42-.23-1-.41-1.56l.21,0c0-.54,1-13.35-.4-18.92a33.23,33.23,0,0,1-1.22-9c0-.73,0-1.49-.07-2.33,0-.37,0-.79-.06-1.24-.18-4.25-.48-11.36-2.85-18.5a29.31,29.31,0,0,0-1.91-4.52.42.42,0,0,0,.29.05.43.43,0,0,0,.35-.38c.22-1.2-1-7.21-1.85-9.86a.69.69,0,0,0,.39.14h.08c.65-.09,1.06-1.07,2.15-3.72.68-1.64,1.61-3.9,3-6.76C66.88,11.24,67.17,1,67,.43,66.89.16,66.74,0,66.53,0,66.1,0,65.82,0,62,7.71a53,53,0,0,0-3.66,12.17,63,63,0,0,0-.84-9.4c-.66-3.88-1.65-8.56-2.57-8.8a.43.43,0,0,0-.45.15c-.24.3-.71,3.75-.8,7.93-2.33-4.41-3-4.33-3.18-4.3a.45.45,0,0,0-.31.2c-.31.47,0,2.54.43,4.49C47.92,4.73,45.52.6,44.76.11a.5.5,0,0,0-.6,0c-.58.48-.49,3.13,1,7.81-2.05-2.83-5.21-6.82-6.35-6.32a.63.63,0,0,0-.36.45C37.9,4,43,13.95,46.92,19.22A56.83,56.83,0,0,0,54,27c1.41,1.33,2.52,2.38,2.7,3h0a53.66,53.66,0,0,1,1.86,9.13c-.44-.61-1.16-1.87-1.81-3a44.92,44.92,0,0,0-3.49-5.5c-.56-.67-1.12-1.24-1.66-1.79a18.49,18.49,0,0,1-4.63-7c-2.12-5.25-7.5-12.09-8.92-11.92a.68.68,0,0,0-.57.69c-.31,2.59,4.59,14.73,10,18.77,5.66,4.24,9.86,7.83,12.39,15.46.36,1.1.67,2.2.95,3.28-1.61-2.13-5.23-6.21-10.16-7.63-.48-.79-2.43-3.83-3.94-3.87a.65.65,0,0,0-.59.22c-.15.23,0,.48.09.77a4.2,4.2,0,0,1,.29.8,3.55,3.55,0,0,1,0,1.49,38.78,38.78,0,0,0-11.2.84c-.69.14-1.34.27-2,.38-.92.15-1.69.26-2.3.34-1.53.21-2,.28-2.19.69a.7.7,0,0,0,.24.69c.79.84,4.61,2.47,8.56,1.15a24.75,24.75,0,0,1,9-1.43c.06,1.27.63,6.1,5.7,14.62.19.32.38.61.57.92a31.35,31.35,0,0,0-8.54,3.24c-.55.35-1.13.67-1.73,1a26.25,26.25,0,0,1-5.54-2.34,41.8,41.8,0,0,1-4.17-2.58c-.76-.53-1-.73-1.37-.62a.63.63,0,0,0-.37.42c-.58,1.7,4.17,6,5.82,7.38a25.46,25.46,0,0,1-4.13.95c-2,.24-2.41.46-2.49.83s.29.6.43.69a20.56,20.56,0,0,0,6.58.8,29.87,29.87,0,0,0,4.7-.36c.8.11,4.42.68,12.12,2.45,8.58,2,10.07,7.43,10.08,7.49l.08,0a53.83,53.83,0,0,1,.45,8A14.11,14.11,0,0,0,60,81.27a11.68,11.68,0,0,0-5.52-1.19l.06.48c-.34-.38-.7-.79-1.11-1.26-4.17-4.82-12.84-10.77-12.93-10.83L40,68.11v.63a12.16,12.16,0,0,0,3.07,7.14,29.05,29.05,0,0,0,5.18,4.33A39.34,39.34,0,0,1,38,83.9c-.07-2.45-.41-9.41-1.93-9.78a.64.64,0,0,0-.55.12c-1.22.91-1.66,7.87-1.77,9.93A31.89,31.89,0,0,1,29.81,84c-5-11.3-7.26-11.47-7.83-11.25a.82.82,0,0,0-.46.48c-.82,2,2.78,11.09,4.73,15.75-4.78-6-11.93-13.35-13-13.38a.63.63,0,0,0-.57.29c-.37.65.25,2.27,4.66,9.35a61.7,61.7,0,0,0,6,7.71c-1.69-1.17-4.08-2.73-7-4.38a76.14,76.14,0,0,1-6.77-4.26c-1.34-.93-1.7-1.18-2-1a.42.42,0,0,0-.23.37c0,.6,1.44,3.6,3.6,6.35a13.35,13.35,0,0,0-2-1.52.65.65,0,0,0-.7,0c-.33.25-.25.77-.22.95.41,2.57,5.42,10.75,14.28,13.9A39.18,39.18,0,0,0,29,105a16.88,16.88,0,0,1,7.42,2.72,13.8,13.8,0,0,1,2.83,2.62,18.16,18.16,0,0,0-12.1-2.52,49.73,49.73,0,0,0-5.56,1.1l.09-.19c-3.35-1.51-11.27-4.89-12.28-3.75a.67.67,0,0,0-.15.57c.22,1.32,4.59,4.06,6.48,5.18a23.4,23.4,0,0,1-4.83,1.3,17.5,17.5,0,0,1-3.87.06c-.48,0-.72-.07-.9.11a.47.47,0,0,0-.14.39c0,.54,1.47,2.56,7.32,2.56l1.25,0a26,26,0,0,0,7-1.57,73.11,73.11,0,0,0,9.82,1.75c2.79.34,4.48.45,5.71.52a10.66,10.66,0,0,1,3.7.65,9.73,9.73,0,0,1,2.51,1.42,4.65,4.65,0,0,0-1.65.06,2.23,2.23,0,0,0-.85.47c-.41-.92-.72-.92-.83-.92a.43.43,0,0,0-.41.27.92.92,0,0,0,0,.5v0h-.09c-.52-.1-1.18-.13-1.35.27,0,.1-.1.36.25.6l.16.1a3,3,0,0,1,.33.24s0,.06-.18.18a2.7,2.7,0,0,1-.77.38c-.11,0-.37.13-.33.4a.33.33,0,0,0,.06.16c-1.56,1.11-4,4.75-6.07,10.18a73.87,73.87,0,0,0-2.84,9.27l-.1.42A31.89,31.89,0,0,0,26,125.41c-3.25-7.49-5.2-8.12-5.89-8a.57.57,0,0,0-.54.42,23.82,23.82,0,0,0,2.47,10.69,68.17,68.17,0,0,1,3.11,7.66c-.57-1-1.36-2.46-2.17-3.94-5.34-9.77-7-12.48-7.54-12.62a.61.61,0,0,0-.61.19c-.56.63-.3,2.89.18,4.78-.92-1.16-2-2.27-2.68-2.37a.71.71,0,0,0-.6.17c-.66.6-.3,2.16.12,3.39-2-1.5-3.12-1.51-3.15-1.5a.46.46,0,0,0-.41.3c-.4.95,1,5.07,6.24,10.75a43.64,43.64,0,0,0,10.12,7.95c.5.3,1,.61,1.38.86a16.36,16.36,0,0,0-4.62-1.55c-4.74-.93-6.19-.94-9.72-.08-2.14.52-5.8-.92-8.22-1.87-1.85-.73-2.68-1-3.12-.88a.6.6,0,0,0-.4.58c0,1.13,2.91,3.79,8.15,5.63,5,1.77,6.65,1.49,9.92.93.73-.12,1.55-.26,2.52-.4,5-.7,7.77.32,8.5,1H29a8.5,8.5,0,0,0-4.11.61c-3.47,1.43-6,5.29-6.71,8.2-.27,1.18-1.21,3.21-4.14,6.16l-.19.2a.39.39,0,0,0,0,.55c.46.45,2.53.52,5.62-2.26,2.57-2.31,4.38-5.48,5.83-8,.51-.89,1-1.73,1.42-2.39a2.43,2.43,0,0,1,3.39-1.07,9,9,0,0,1,3.39,6.72c.1,1.24-2.66,4.71-4.3,6.77-1.34,1.68-1.81,2.3-1.85,2.62,0,.11-.06.4.23.48.13,0,.31,0,.43-.27s.35-.87.84-1,.92.24,1.52.9c2.27,2.5.32,7.2.3,7.24l.59.29c.07-.13,7-12.66,9.19-15.51,1.19-1.58,1.86-1.75,2.1-1.73a.39.39,0,0,1,.24.08,8.33,8.33,0,0,0-.53,1.55c-1.36,5.67,3.34,6.88,5.34,7.4l.63.18c0,.12-.07.24-.1.35-.12.4-.21.69,0,.86a.35.35,0,0,0,.19.06.63.63,0,0,0,.39-.2,2,2,0,0,0,.39-.55c.2-.36.27-.47.59-.41.71.13,1.4-.09,1.56-.52a.6.6,0,0,0-.33-.74l-.15-.09a6.38,6.38,0,0,0,1.83-4.28,6.31,6.31,0,0,0-.34-3.22,6.51,6.51,0,0,0,1,.09,5.1,5.1,0,0,0,3.74-1.45,7.73,7.73,0,0,0,1.68-6.65,1.75,1.75,0,0,1,.72,0c.2,0,.66.07.77-.29s-.15-.58-1-1.05a1.42,1.42,0,0,1-.83-.91.49.49,0,0,0-.43-.39c-.11,0-.44,0-.95.87-.93-.31-4-1.16-6.35.14a5.49,5.49,0,0,0-2.65,4,5.12,5.12,0,0,0,0,1.87,1.32,1.32,0,0,1-1.25-.47c-.44-.8,3.81-7.2,8.74-13.17,2.34-2.83,3.75-3.53,4.45-3.67a8.22,8.22,0,0,0-1.87,3.75A4.48,4.48,0,0,0,61,144.54a4.63,4.63,0,0,0,1.52.26A4.88,4.88,0,0,0,67,141.7c1-2.23,1.19-4.09.44-5.54a5.74,5.74,0,0,0-4.13-2.62h-.09a5.39,5.39,0,0,0-2.56,1.19c-.55-.16-2.29-.16-5.64,3.91-.1.12-10.24,12.46-8.71,14a2.3,2.3,0,0,0,.82.56,4.55,4.55,0,0,0-2.26.53,4.6,4.6,0,0,0-1.74,1.74,1,1,0,0,0-.49-.16c-.74,0-1.65.63-2.68,2-1.61,2.14-5.77,9.42-7.92,13.23a6.31,6.31,0,0,0-1.15-5.3,3,3,0,0,0-1.76-1.12l.63-.79c2.49-3.14,4.55-5.85,4.44-7.23a9.59,9.59,0,0,0-3.66-7.2,3.09,3.09,0,0,0-4.33,1.24c-.45.68-.93,1.53-1.44,2.43-1.43,2.5-3.21,5.62-5.7,7.86-2.24,2-3.77,2.32-4.41,2.32,2.36-2.39,3.76-4.52,4.17-6.33.63-2.79,3.17-6.45,6.32-7.74a8,8,0,0,1,3.82-.56c.49,0,.78.06.94-.21s0-.53-.13-.67c-.69-1-3.73-2.23-9.27-1.46-1,.13-1.8.28-2.54.4-3.26.55-4.74.81-9.59-.9-5.56-2-7.78-4.57-7.75-5a11.22,11.22,0,0,1,2.66.88c2.65,1,6.27,2.46,8.61,1.9,3.41-.83,4.82-.82,9.43.09a15.59,15.59,0,0,1,4.7,1.63c.48.25.74.39,1,.25a.59.59,0,0,0,.27-.49c0-.52-.63-.93-2.26-1.91a43,43,0,0,1-10-7.83c-5-5.38-6.17-9.06-6.14-9.92A8.24,8.24,0,0,1,12.4,127l.11.24.1,0a27.19,27.19,0,0,1,3.53,4c6.42,8.78,7,8.64,7.24,8.6l.29-.3-.37-.07-.13-.25a.26.26,0,0,1,.2,0c-.37-.17-2.45-2.54-6.7-8.35a27.86,27.86,0,0,0-3.72-4.25c-.7-1.6-1.15-3.41-.67-3.79.71.1,2.35,2.14,3.5,3.8,1.51,3.15,6,8.57,8.79,11.27l.46-.47a59.77,59.77,0,0,1-8.09-10l.09-.06s-.27-.43-.67-1c-.11-.24-.21-.46-.29-.66-.81-2.26-1-5-.75-5.42.83.78,4.74,7.94,7.11,12.26,1.86,3.4,2.84,5.19,3.08,5.47a.4.4,0,0,0,.55.14c.9-.58-3.36-9.83-3.41-9.93A24.08,24.08,0,0,1,20.25,118h0a.67.67,0,0,1,.23,0c.59.22,2.26,1.4,4.95,7.61a31.37,31.37,0,0,1,2.41,15,5.92,5.92,0,0,0,0,1.72.42.42,0,0,0,.4.33h0a.36.36,0,0,0,.21-.08l.46.23c0-.05.68-1.37,3.37-8.35a64.58,64.58,0,0,1,5.31-11l-.55-.36a65.12,65.12,0,0,0-5.37,11.12c-1.22,3.17-2,5.16-2.53,6.4l.09-.36a73.26,73.26,0,0,1,2.82-9.19c2.81-7.18,5.71-10.21,6.29-10.14.27.31-.15,2.53-.91,5a.28.28,0,0,0-.26.05c-.24.17-.11.42,0,.57a6.38,6.38,0,0,1,.45,1,6.2,6.2,0,0,0-.85-.33c-.53-.16-1-.31-1.14.06-.06.15-.14.39.84.92a14.6,14.6,0,0,0-.75,2.41c-.46,2.15-2.41,5.33-4,7.88a24.93,24.93,0,0,0-2.2,4c-.66,2.14,2,5.34,2.12,5.47l1.06,1.26-.5-1.58s-.5-1.67.6-5.1c.91-2.82,4.37-4.86,5.67-5.63l.18-.11a9,9,0,0,1-.61,3.49,15.6,15.6,0,0,1-3.17,4.9c-.52.62-1,1.2-1.4,1.76a4.1,4.1,0,0,0,0,4.19l.06,0A3.29,3.29,0,0,0,34.2,153,5,5,0,0,0,38,155h.05a6.88,6.88,0,0,0,5.07-3,5.29,5.29,0,0,0,.53-6,3.34,3.34,0,0,1,1.31-.55c.16,0,.54-.08.54-.42a.37.37,0,0,0-.25-.36,30.52,30.52,0,0,0,3.58-4c2.67-3.41,2.82-4.45,3-5.66l.06-.39v0a23.2,23.2,0,0,0-1.36-4.7,3.82,3.82,0,0,0,0-1.94c0-.06,0-.11-.06-.17,1.66,2.36,3.14,3.48,4.16,3.67h.06c1.42,0,7.5-7.57,10.08-10.86l-.5-.39a5.62,5.62,0,0,0,.66-1.36c1.13-3.4-.41-5.15-1-5.66a9.28,9.28,0,0,0,2.18-4.24c.22,0,.43.06.65.07h.08a6,6,0,0,0,1.91-.84,5.36,5.36,0,0,0,0,6.46,5,5,0,0,0,2.9,2c0,.09,0,.2,0,.33-1.5,1.17-4.48,3.67-4.13,4.75.07.22.29.49.9.51h.15a9.18,9.18,0,0,0,3.18-.71,4.68,4.68,0,0,0-1.16,1.74,4.88,4.88,0,0,0-2.81,1.23,3.56,3.56,0,0,0-1.19-.19A4.46,4.46,0,0,0,63.38,126l0,0c-.07.12-1.8,2.89-.9,5.3a4.75,4.75,0,0,0,3.37,2.75,3.37,3.37,0,0,0,1,.15,4.3,4.3,0,0,0,3.5-2.11,5.66,5.66,0,0,0,.93-3.09c1.21,1.44,3.33,1.59,4.62,1.67a6.11,6.11,0,0,1,1,.11c0,.71.21,1.28.6,1.36h.08a.5.5,0,0,0,.47-.41c0-.12.05-.23.07-.34l0-.14c.6.23,1.67-.64,1.91-.87s.41-.44.3-.72a.43.43,0,0,0-.44-.26.67.67,0,0,1-.53-.18,1.57,1.57,0,0,0,.21-.21,6.59,6.59,0,0,0,2,.81,3.67,3.67,0,0,0,2.71-.06,3.21,3.21,0,0,1,.27.45.5.5,0,0,0,.44.32h.08c.3-.06.43-.43.49-.74l.11.09a.61.61,0,0,0,.54.15c.34-.08.51-.44.66-.77l.07-.15a1.32,1.32,0,0,1,.25-.32.43.43,0,0,0,.15-.51.43.43,0,0,0-.48-.19.26.26,0,0,1-.18,0c.18-.85.75-4.35-1.48-6.5a7.4,7.4,0,0,1,4.63,1.62c.56.45,1.14,1,1.74,1.49,2.35,2.08,5,4.44,9.2,5.22a18.1,18.1,0,0,0,3.31.35c2.16,0,3.22-.57,3.38-1.09a.56.56,0,0,0-.34-.69,2.12,2.12,0,0,0-1-.07c-1.12.08-3,.21-6.3-2.18a43.09,43.09,0,0,0-11.39-5.83l.54-.21,0,.1c.06,0,6.42-1.68,12-.58,5.78,1.14,7.5.22,7.57.17l.32-.19-.22-.3C108.6,119.4,107.5,118,102.83,117.05Zm-.91-43.47a1.48,1.48,0,0,0,0,.87c.1.24-.28.49-.78.79l-.36.23C101.23,74.78,101.6,74.15,101.92,73.59Zm-9.85,4.66c2.11-3,4.29-6,5.81-6.27a3.42,3.42,0,0,1,.51,0c.32,0,.53.07.6.2.2.4-.37,2-3.81,5.36a29,29,0,0,1-6,4.69C90.11,81,91.1,79.61,92.06,78.25Zm-4.25,4.46a10.67,10.67,0,0,1-1.68,1.56c-3,2.07-7.38,2.88-9,3.12l.18-.28c.44-.72.85-1.43,1.25-2.15A71.53,71.53,0,0,0,87.82,82.71ZM62.29,29.88a35,35,0,0,0,4.19-10.49c1.09-4.35,4.4-10.51,5.06-10.8.42.31.72,4.31-1.63,11.3-1.92,5.73-8,12.66-10,14.88A40.37,40.37,0,0,1,62.29,29.88ZM81.17,18.82a20.53,20.53,0,0,1,2.76-3.28c0,1.31-.34,4.45-3.58,8.56a27.24,27.24,0,0,1-4.72,5c0-.71,0-1.4-.05-2.07a15.68,15.68,0,0,0,4.61-4.14l-.53-.39a15.4,15.4,0,0,1-4.12,3.79q-.07-1-.19-1.91A23.8,23.8,0,0,0,81.17,18.82ZM72.66,17c.95,1,3.63,10.38,1.48,19.29-1.57,6.54-4.15,12-6.9,14.6a28.66,28.66,0,0,1-2.71,2.32c.71-1.47,3.16-6.52,5.94-12.12,3.33-6.71,2.41-14.94,2.4-15l-.66.08c0,.08.91,8.13-2.33,14.65-2.55,5.14-4.83,9.82-5.73,11.69,0-1.24.2-5.27,2.22-7.91,2.15-2.82,2.73-6.44,3.45-11,.14-.86.28-1.76.44-2.7s.31-1.9.45-2.91l0,0,0,0c.12-.85.24-1.71.36-2.56C71.57,21.91,72.15,17.69,72.66,17ZM65.71,33c2.12-2.3,3.48-3.62,4.24-4.32-.11.73-.22,1.45-.34,2.13-.16.94-.3,1.84-.44,2.71l-.11.67-.25-.34s-.79.59-4.55,3.7a9.73,9.73,0,0,0-3.12,4A20.82,20.82,0,0,1,65.71,33ZM61,41.88h0Zm.74,3c-.12-.45-.22-.91-.34-1.37h0S61.1,41,64.68,38c2.78-2.29,3.93-3.2,4.33-3.52-.64,4-1.27,7.24-3.16,9.72a13.6,13.6,0,0,0-2.3,6.95C63.11,49.72,62.52,47.74,61.76,44.89ZM62.61,8c.85-1.73,3-6.06,3.76-7.13a49,49,0,0,1-4,18.38c-1.35,2.88-2.28,5.14-3,6.79s-1.34,3.24-1.62,3.31a.34.34,0,0,1-.12-.1c0-.09,0-.23,0-.42h0l0,0C58,26.1,59.33,14.7,62.61,8Zm-7.68-5.4c.32.65,1,2.55,1.94,8A62.61,62.61,0,0,1,57.63,24h0l0,.11c-.22-1.3-.55-3.24-1-5.94A60,60,0,0,1,55.72,9h-.66A60.74,60.74,0,0,0,56,18.25c.87,5.25,1.29,7.66,1.34,8s-.09.76-.13,1.09c-.14-.42-.3-.94-.49-1.57a32.72,32.72,0,0,0-1.17-4.41c-.14-.58-.28-1.18-.43-1.84C53.74,13.45,54.57,4.59,54.93,2.61ZM50.73,6.24a29,29,0,0,1,3,4.92,47.32,47.32,0,0,0,.39,6.28c-.41-1-.88-2-1.41-3.16l-.75-1.55A37.49,37.49,0,0,1,50.73,6.24ZM44.53.77C45.31,1.58,47.93,6,51.3,13l0,.09h0l.74,1.53a60,60,0,0,1,2.84,7c.44,1.81.82,3.25,1.15,4.35.05.29.09.53.11.73L55.55,26l.46-.19a91.82,91.82,0,0,0-4.33-8.28,99.64,99.64,0,0,1-6.2-14.67L44.85,3a100.32,100.32,0,0,0,6.25,14.79c2.48,4.38,3.66,6.81,4.09,7.75a44,44,0,0,1-7.37-12.16C44.62,5.64,44.28,1.64,44.53.77Zm10,25.76a56.33,56.33,0,0,1-7-7.7c-4.58-6.24-9-15.71-8.41-16.6.65-.11,3.67,3.36,6.64,7.63l.07,0c.41,1.19.9,2.47,1.48,3.86,3.57,8.65,8.13,13.13,9,13.94l.08.07.21-.22.06.28.05,0c.21.63.36,1,.44,1.22s0,.19,0,.27A20.32,20.32,0,0,0,54.5,26.53ZM38.19,10.65c0-.07,0-.1,0-.11h0c1,0,6.1,6.36,8.19,11.52a19.27,19.27,0,0,0,4.77,7.22c.53.54,1.08,1.1,1.62,1.75a19.33,19.33,0,0,1,1.4,2,47.52,47.52,0,0,1-6.77-6.64,44,44,0,0,1-7.25-12.47l-.32.09-.33,0a44.53,44.53,0,0,0,7.4,12.77,58.25,58.25,0,0,0,5,5.15c-1.25-1.06-2.58-2.1-4-3.17C42.41,24.69,37.93,12.82,38.19,10.65Zm14.51,22a18,18,0,0,0,2,1.51l.12-.2c.45.74.89,1.52,1.32,2.26A29.56,29.56,0,0,0,52.7,32.67ZM63.24,134.2a5.06,5.06,0,0,1,3.6,2.26c.66,1.26.51,2.93-.45,5-1.28,2.72-3.57,3-5.14,2.5a3.84,3.84,0,0,1-2.51-4.64C59.78,134.9,62.82,134.26,63.24,134.2ZM48.71,151A4.86,4.86,0,0,1,51,147.41a5.59,5.59,0,0,1,2.69-.61,10.58,10.58,0,0,1,3.38.61l.28.11.13-.27a4.36,4.36,0,0,1,.37-.62,2.08,2.08,0,0,0,1.06,1.07l.14.08c-.74,0-.93.34-1,.44l0,.1,0,.11s.92,3.67-1.47,6.25c-1.25,1.35-3.87,1.63-5.84.63A3.78,3.78,0,0,1,48.71,151Zm-.52,2.38v0h0Zm-3,1a4.44,4.44,0,0,1,3.24-.27l0-.12a4.61,4.61,0,0,0,2,1.93,6.08,6.08,0,0,0,1,.38c.16.19.79,1.1.56,3.35-.33,3.2-1.9,4.08-1.91,4.08l-.52.27,1,.64a1.29,1.29,0,0,1-.73.06,1,1,0,0,0-1,.25c-.1-.26-.51-.36-1.14-.53-2-.51-6.07-1.57-4.87-6.61A5,5,0,0,1,45.17,154.36Zm52.5-44.08c2.7-4.24,4.41-7.2,5.54-9.15.7-1.22,1.25-2.16,1.54-2.54.23,1.25-.6,5.68-3.71,11.56a19,19,0,0,1-6.21,6.2A19.48,19.48,0,0,0,99,111.53l-.57-.34a19.05,19.05,0,0,1-7.85,7.17l.16.38A26.07,26.07,0,0,1,87.61,120C92.14,117.85,95.52,113.65,97.67,110.28ZM91.39,97.57c0-.42,0-.82,0-1.11,1,1.22,3.17,5.38,1.86,12.82a13.46,13.46,0,0,1-6,9.15,9.71,9.71,0,0,1-4.84,1.71c1.63-.67,5.28-2.38,7.25-8.26a32.87,32.87,0,0,0,1.12-4.32,5.43,5.43,0,0,0,1.83-.32.92.92,0,0,0,.57-.51l0-.19-.08-.13c-.13-.23-.58-.42-2.05-.74A47.07,47.07,0,0,0,91.39,97.57ZM91,106.33c.55.12,1,.24,1.31.33a5.56,5.56,0,0,1-1.41.25C90.91,106.71,90.94,106.52,91,106.33Zm-9-4.68a4,4,0,0,0,.18-2.26c0-.13,0-.3,0-.41h0a1,1,0,0,1,.49.34.78.78,0,0,0,.63.33c.35,0,.67-.33,1.3-1.21l.45-.63c1.4-1.93,3.13-4.33,3.44-6.35a33,33,0,0,1,.7-3.33c.07,1.06.18,1.49.51,1.61a.46.46,0,0,0,.52-.14C90.47,89.31,94,85,96.92,81c-1.91,2.89-3.84,6-3.68,6.48l.08.19.16.05.51.13c.17,0,.42.09.61.15l-.06,0c-1.11.52-6.75,7.31-6.53,8.29a.42.42,0,0,0,.4.31,5.53,5.53,0,0,0,.81-.09h0c-.25.27-.69.7-1.12,1.12a28.1,28.1,0,0,0-3.57,3.92,4.84,4.84,0,0,1-1.84,1.55c-.46.26-.8.45-.78.8s.39.51.55.58a37.82,37.82,0,0,0,4.68,1c1,.19,2.15.41,3.15.62,0,.2-.07.41-.1.62-1.26-.41-6.93-2.16-8.54-1A29.66,29.66,0,0,0,79.06,108a7.15,7.15,0,0,0-1.4-1.46C78.87,105.39,81.46,102.87,82,101.64Zm-12.29-1.29a1.17,1.17,0,0,1,.41-.78,2.18,2.18,0,0,1,1.76-.26,8,8,0,0,1,2.62.89c.3.16.5.26.71.18a.44.44,0,0,0,.26-.26c0-.07.06-.17.1-.28s.1-.31.17-.46a10.46,10.46,0,0,1,.48,1l-.15,0a.47.47,0,0,0-.29.46,1.2,1.2,0,0,0,.13.45,4.85,4.85,0,0,1,.17,3.91c-1.34,2.49-4.74,1.38-5.64,1a4.92,4.92,0,0,0,.49-2.16,6.37,6.37,0,0,0-1.32-3.77ZM67.3,95.28q0-.66.06-1.38h0a5.26,5.26,0,0,1,1.46-3.37,5.49,5.49,0,0,1,.78-.63A40.6,40.6,0,0,0,67.3,95.28Zm.25-4.35a5.83,5.83,0,0,1,2.09-3.69A9.29,9.29,0,0,1,71.8,86q-.91,1.53-1.61,2.85a6.77,6.77,0,0,0-1.81,1.24,5.25,5.25,0,0,0-.9,1.2l0-.32ZM88.11,57.71c6.63-2.36,8.62-2.76,9.19-2.72-.58.83-4.37,3.74-10.18,6.1C82.41,63,79.53,64,78.36,64.31c.51-1.2,1-2.41,1.4-3.61C80.23,60.53,82.65,59.65,88.11,57.71Zm-7.23-3.17c-1.2,5.13-3.74,12.32-7.3,17.12A33.67,33.67,0,0,1,70,75.72l-.7.71A54.68,54.68,0,0,0,76.53,63.9,67.52,67.52,0,0,0,81,48l0-.19-.65-.09,0,.19a66.88,66.88,0,0,1-4.4,15.78,54.09,54.09,0,0,1-7.35,12.61l.49.4a9.27,9.27,0,0,0-1.25,1.57,12.2,12.2,0,0,1,2.15-4.7c3.64-5.37,6.2-13.44,7.4-17.77l.31-1.12c1-3.8,2.47-9,3.14-9.55C81.31,45.51,82.22,48.82,80.88,54.53ZM73,66.35a13,13,0,0,0-4.41,2A8.52,8.52,0,0,0,66.91,70a15.55,15.55,0,0,1,2.48-4.28,12.92,12.92,0,0,1,5.34-3.8C74.22,63.33,73.64,64.85,73,66.35ZM77.14,54l-.36,0-.21-.21-.31.25a38.07,38.07,0,0,0-5.16,5,73.3,73.3,0,0,0-4.78,6.13A25.08,25.08,0,0,1,72.62,56a59.46,59.46,0,0,0,5.58-5.72C77.88,51.34,77.53,52.6,77.14,54Zm-6.51.52c1.11-1.34,2.9-3.22,4.81-5.22,3.26-3.41,7-7.28,8.62-9.92s2.68-3.56,3.17-3.85a37,37,0,0,1-2.45,7,15.56,15.56,0,0,1-2.71,4.21c-.21-1.33-.62-2.17-1.09-2.36a.52.52,0,0,0-.43,0c-.5.25-1,1.54-1.82,4l0,0s-1.08,2-6.52,7a25.77,25.77,0,0,0-5,6.35A24.62,24.62,0,0,1,70.63,54.53ZM65.86,67.44h.05c0-.78,2.36-4,5.69-7.92a37.42,37.42,0,0,1,5.08-4.91,3.59,3.59,0,0,0,.39-.34l-.05.2-.31,1.12c-.41,1.48-1,3.4-1.7,5.5a13.32,13.32,0,0,0-6.13,4.17,16.14,16.14,0,0,0-2.62,4.55Q66.05,68.56,65.86,67.44Zm1,6.69c-.09-.69-.19-1.35-.28-2,0-.26.25-1.67,2.37-3.27a12,12,0,0,1,3.67-1.73,39.51,39.51,0,0,1-3.26,6,14.68,14.68,0,0,0-2.06,4.12C67.2,76.37,67.06,75.34,66.9,74.13ZM61.18,87.28a37.9,37.9,0,0,0-3.35-3.42l-.52-.48a5,5,0,0,1,3.89.82,8.84,8.84,0,0,1,3.52,4.48l.07,0c-.06,2-.16,3.72-.23,4.78A18.65,18.65,0,0,0,61.18,87.28Zm1.76-18.21c.05.88.14,1.81.32,2.88a12.73,12.73,0,0,0-6-5.32,25.65,25.65,0,0,0-7.07-2.15A23.5,23.5,0,0,0,55,61.14C59.06,66.86,62.19,68.69,62.94,69.07Zm-.21-6c0,.45,0,.87.06,1.24,0,.72.05,1.36.06,2A35.9,35.9,0,0,1,58.4,60c-3-5.16-6.06-14.28-6.79-16.56q.56.19,1.12.41c6.12,2.48,8.32,5.89,8.53,6.6l.12,0A79.71,79.71,0,0,1,62.73,63.12ZM47.18,38.21a4.87,4.87,0,0,0-.33-.91l0,0c.81.14,2.06,1.66,2.92,3A12.43,12.43,0,0,0,48.39,40l-1.15-.1A4.23,4.23,0,0,0,47.18,38.21Zm-9.71,5.1c-3.71,1.23-7.25-.32-7.87-1h0a13.58,13.58,0,0,1,1.58-.26c.62-.08,1.39-.19,2.32-.34.66-.11,1.33-.24,2-.38a38.28,38.28,0,0,1,12.82-.69c3.8.37,7,2.63,9.28,4.81a28.52,28.52,0,0,0-7.13-4.11c-4.81-1.71-11.59-.13-11.88-.06l.15.64c.07,0,6.88-1.6,11.51,0a19.05,19.05,0,0,1,2.81,1.3l-.09,0a19,19,0,0,0-7.23-1.4A26.15,26.15,0,0,0,37.47,43.31Zm9.85-.77a18.34,18.34,0,0,1,3.52.64c.35,1.11,3.64,11.45,7,17.12,3,5,4.56,6.58,5,7v.16c-.85-.48-3.08-2.21-7-8.25C50.69,51.26,50,47.22,50,46.78h0l-.65.09c.06.45.73,4.63,6,12.68,4.47,6.86,6.8,8.32,7.59,8.64v.1c-1.33-.79-5.31-3.64-10-11.5C48,48.58,47.4,43.8,47.32,42.54ZM31.82,57.41c.16.08.44.28.73.48a42.49,42.49,0,0,0,4.23,2.62,28.92,28.92,0,0,0,5,2.19,35.13,35.13,0,0,1-4,1.6C35.14,62.09,31.67,58.61,31.82,57.41Zm1.9,9.52a32.86,32.86,0,0,0,7.81-1.24,37.57,37.57,0,0,0,11.41-5.5l-.4-.53A36.82,36.82,0,0,1,41.37,65c-6,1.58-8.82,1.18-8.84,1.17l-.08.53a5.65,5.65,0,0,1-1.24-.3A10.28,10.28,0,0,1,33,66.14a33.43,33.43,0,0,0,11.76-4.29,32,32,0,0,1,8.56-3.21q.66,1,1.29,2a27.28,27.28,0,0,1-9,5.28,18.41,18.41,0,0,1-3.43.89l-.11,0v0A31.89,31.89,0,0,1,33.72,66.93Zm20.66,2.31c-5.22-1.2-8.56-1.84-10.44-2.17a17.09,17.09,0,0,0,1.86-.57,34.93,34.93,0,0,0,3.27-1.42c.21,0,2.88-.06,7.93,2.16a12.08,12.08,0,0,1,5.35,4.55,22.41,22.41,0,0,0-5-3.67c-4.44-2.44-10-1.87-10.2-1.84l.07.66c.05,0,5.56-.58,9.81,1.76a19,19,0,0,1,6.16,5.06l.15-.1a11,11,0,0,1,.47,1.3C62.53,73.06,59.83,70.49,54.38,69.24Zm5.36,12.62a13.07,13.07,0,0,1,4.67,4l.43-.26c0,.54,0,1.07,0,1.6a9.17,9.17,0,0,0-3.27-3.61,5.43,5.43,0,0,0-4.78-.78c-.56-.54-1.2-1.2-2-2.13A11.85,11.85,0,0,1,59.74,81.86Zm-16.15-6.4a12.5,12.5,0,0,1-2.85-6c2,1.42,8.73,6.28,12.21,10.31a46.82,46.82,0,0,0,4.43,4.61c.4.37.8.74,1.25,1.18a31.31,31.31,0,0,0-3.85-2.75c-7.87-4.82-10.11-9.23-10.13-9.27l-.59.29c.09.19,2.32,4.61,10.38,9.55,5.15,3.15,6.91,6,6.93,6.07l.4-.24a21.35,21.35,0,0,1,2.45,5.4c-.84-1-2.45-3-5.13-6.23-2.46-3-6.08-5.56-9.27-7.81A35.52,35.52,0,0,1,43.59,75.46ZM49.44,81l1.13.8a25.37,25.37,0,0,1-11.11,3.83l.06.66a25.55,25.55,0,0,0,11.63-4.08l1,.76c-1.69.83-8,3.79-12.39,4.24C33.73,87.88,30,86.15,28.7,85a1.67,1.67,0,0,1-.44-.53,5,5,0,0,1,1,.07,36.54,36.54,0,0,0,6.93.19c5.29-.28,11.65-3.58,12.65-4.12ZM47.21,91.16l.11.21c.1-.05,2.4-1.27,3.05-2.71a27.67,27.67,0,0,1-1,3.58A5.71,5.71,0,0,1,47,95.17C47.12,93.73,47.18,92.36,47.21,91.16Zm-1.55,11.47-.13.92c-.7,4.87-1.16,8.14-1.23,10-.46-.87-.89-1.63-1.3-2.31-.1-.94-.94-9.56.46-16.19.08-.36.15-.7.23-1h0c1.11-4.78,2.35-6.64,2.83-7.12A97.45,97.45,0,0,1,45.65,102.63ZM42.23,110c-.73-1.11-1.35-1.9-1.79-2.46a5.23,5.23,0,0,1-.61-.85c-.26-.93-.12-1.62.62-3A4.76,4.76,0,0,1,42,102,74.59,74.59,0,0,0,42.23,110Zm.85-16.3a37,37,0,0,0-3.43,5.2,17.41,17.41,0,0,0-1.31,5.52l0,.38c-.28-1.13-.51-3.59.37-8.59.95-5.38.42-7.56.15-8.24l1.05-.08a28.44,28.44,0,0,0,6.38-1.64C45.43,86.89,44.16,89.12,43.07,93.72Zm-8.85-3.63c.31,3,.94,9.13.8,10.59a34.29,34.29,0,0,1-2.14-7.19,61.36,61.36,0,0,0-1.68-6.37,16.36,16.36,0,0,0,2.8.69C34,88,34.07,88.58,34.23,90.08Zm1.66-15.32c.65.16,1.3,4.37,1.43,9.24-.38,0-.76.09-1.14.11-.66,0-1.24.05-1.8.06C34.63,79.24,35.32,75,35.88,74.76Zm.86,32.43a17.43,17.43,0,0,0-7.67-2.82,38.55,38.55,0,0,1-6.61-1.68c-7.26-2.58-12.16-8.95-13.54-12.36A3.25,3.25,0,0,1,8.6,89h0a21.92,21.92,0,0,1,2.53,2c2.83,2.37,7.57,6.33,12,8.36l3,1.36c2.44,1.1,4.62,2.08,6.3,2.91-1.72-.45-4.52-1.22-8.65-2.5-7.64-2.36-10.54-7-10.57-7l-.56.35c.12.2,3,4.86,10.94,7.3s10.89,3,10.92,3v-.06a4.88,4.88,0,0,1,1.17.89,8,8,0,0,1,1.11,1.56l.62-.23a7.71,7.71,0,0,0-1.22-1.75,2.36,2.36,0,0,0-.23-.24A78,78,0,0,0,37,94.6c.15-3.51.09-5.68-.21-6.46l-.65.13,0,.12c.25.66.31,2.86.16,6.18a87.26,87.26,0,0,1-.84,10l-.49-.31.24-.36a29,29,0,0,0-4.34-2.23c-2.6-1.12-14.14-6.79-17.36-9.79a25.92,25.92,0,0,1-5.43-7.8c.29.18.69.46,1.1.75A76.68,76.68,0,0,0,16,89.12a74.76,74.76,0,0,1,9.65,6.32c1.11,1.18,2.17,2.28,3.1,3.21a43.61,43.61,0,0,1-8.38-4.45A61.61,61.61,0,0,1,10.1,85.83l-.48.45A62.23,62.23,0,0,0,20,94.77c6,3.91,9.32,4.81,9.76,4.92,1.34,1.34,2.23,2.17,2.26,2.2l.26-.27.46-.17c0-.06-.62-1.61-4.81-8.09a87.37,87.37,0,0,0-11.1-13.08l-.46.48a86.64,86.64,0,0,1,11,13c2.31,3.56,3.51,5.62,4.13,6.75-1.14-1.11-3.16-3.12-5.37-5.47h0l-.05,0a74.29,74.29,0,0,1-8.23-10.08c-1.22-2-4.94-7.93-4.68-8.64,1,.25,9.44,8.82,14.1,15.2l.06.14h0l.33.45c4.5,6.34,5.5,9.86,5.51,9.9l.64-.18a19,19,0,0,0-1.27-3h.08c0-.15,0-1.2-2.5-7.11L28.27,87c-2-4.86-4.55-10.91-4.65-11.29l-.32.07H23c0,.17.47,1.32,4.69,11.47l1.92,4.62c.86,2.07,1.42,3.52,1.78,4.54-.78-1.35-1.79-2.94-3.09-4.78l-.39-.54c-2.73-6.24-6.46-15.94-5.75-17.63a.21.21,0,0,1,.09-.11c1.11-.41,4.34,5,6.82,10.54a2.77,2.77,0,0,0-1,0,.58.58,0,0,0-.44.7c.12.61,1.1,1.5,2.82,2.23a55.29,55.29,0,0,1,1.84,6.81c.4,1.86,1.8,7.93,2.87,7.94h0c.18,0,.41-.09.52-.53.24-1-.26-6.2-.76-11-.1-1-.19-1.82-.21-2.13A21.45,21.45,0,0,0,37.3,88l.93,0-.11.07s1,1.71-.13,8c-1.25,7.13-.29,9.35,0,9.86a.4.4,0,0,0,.35.21h.08c.34-.08.38-.41.53-1.67a16.9,16.9,0,0,1,1.24-5.3,32,32,0,0,1,2.52-4,41.4,41.4,0,0,0-.68,6,5.34,5.34,0,0,0-2.2,2.15c-.83,1.52-1,2.36-.67,3.47a4.13,4.13,0,0,0,.72,1.08,42.32,42.32,0,0,1,6.36,11.54c.16.41.32.79.48,1.18v0h0A43.16,43.16,0,0,0,49.41,126a5.39,5.39,0,0,0-.92-.71l-.4-.74c-.76-1.37-1.49-2.83-2.27-4.38-1.08-2.14-2.17-4.31-3.35-6.3h0a4.27,4.27,0,0,0-.65-1A18.82,18.82,0,0,0,36.75,107.2ZM19.92,96.84c1.36.76,2.75,1.51,4.09,2.2l-.54-.25A30,30,0,0,1,19.92,96.84ZM50,100.1a19.47,19.47,0,0,1,.47,5.89,24.07,24.07,0,0,1-2.25,10.28,14.64,14.64,0,0,0-.87,2.75c-.1-1.5-.28-4-.62-7.08C46.39,109,47.49,105,50,100.1ZM9.84,105.45c.62-.48,6.08,1.49,11,3.68-1.64.45-3.06.92-4.34,1.36C12.82,108.34,9.72,106,9.84,105.45Zm4.62,9c-5.43.24-7.36-1.15-7.78-1.73l.22,0a18.19,18.19,0,0,0,4-.06,25.64,25.64,0,0,0,5.25-1.43,55.14,55.14,0,0,1,11-2.8,17.69,17.69,0,0,1,3.48-.14A37.84,37.84,0,0,0,21,111.71a18.61,18.61,0,0,1-10.26,1.43l-.13.65a15.46,15.46,0,0,0,2.75.22,19,19,0,0,0,7.92-1.7c5.84-2.7,9.35-3.5,10.69-3.34l.06-.49a17.63,17.63,0,0,1,5.74,1.81,15.08,15.08,0,0,0-2.88-.6,15.37,15.37,0,0,0-5.56.58,4.06,4.06,0,0,0-1.85.46l0,.06c-1.23.39-2.46.83-3.69,1.27C20.65,113.19,17.39,114.37,14.47,114.5Zm22.57.7c-1.22-.08-2.9-.18-5.68-.52a81.46,81.46,0,0,1-8.77-1.49l1.42-.51c1.78-.64,3.58-1.29,5.34-1.75a9.49,9.49,0,0,1,4.82,1.31l.42.22c3.63,1.92,5.78,3.05,6.87,3.05a.77.77,0,0,0,.75-.39l-.58-.31c-.26.48-3.69-1.33-6.72-2.93l-.42-.22a12.78,12.78,0,0,0-3-1.17,12.11,12.11,0,0,1,3.32-.15c3.9.45,5.76,2,6.56,3,.81,1.29,1.58,2.69,2.33,4.12a10.42,10.42,0,0,0-2.74-1.56A11.29,11.29,0,0,0,37,115.2ZM39.22,119a.81.81,0,0,0,.71-.12.5.5,0,0,0,.14-.22l.09.21a.59.59,0,0,0,.37.38.64.64,0,0,0,.56-.22,1.66,1.66,0,0,1,.65-.38,5.66,5.66,0,0,1,2.1.07l0-.21a8.39,8.39,0,0,1,.63.62h0l.71,1.41c.77,1.53,1.5,3,2.25,4.33a8.49,8.49,0,0,0-1.27-.41,7.86,7.86,0,0,0-4.94.43A2.83,2.83,0,0,1,40,123.23a3.16,3.16,0,0,1,0-2.73.66.66,0,0,0,.07-.18l0-.19L40,120c-.16-.15-.33-.11-.75,0h0a.7.7,0,0,0,.17-.46.79.79,0,0,0-.35-.59ZM39,120.72l.27-.05a4.06,4.06,0,0,0,.13,2.79,3.79,3.79,0,0,0,1.21,1.73,8.77,8.77,0,0,0-2.09,1.56,3.25,3.25,0,0,1-.49-.39C38.41,125.06,39.38,121.77,39,120.72Zm-1.17,7.69c.15.09.35.21.55.06s.13-.37,0-.61l-.12-.36,0-.14a1.31,1.31,0,0,0,.24.1l.2.06.14-.16a7.76,7.76,0,0,1,7.25-2.29,7.19,7.19,0,0,1,1.94.74,40.3,40.3,0,0,1,1.87,4.1,4.39,4.39,0,0,1-1.19,1.84c-2.5,2.37-5.1,2-6.7.78a10.67,10.67,0,0,1-2.12-2.45c-.62-.89-1-1.47-1.5-1.52h-.06a.58.58,0,0,0-.4.17l-.29.27a1.67,1.67,0,0,0-.11-.77ZM43,145.7l-.23.2.18.25a4.63,4.63,0,0,1-.35,5.51,6.24,6.24,0,0,1-4.56,2.72h0a4.31,4.31,0,0,1-3.34-1.77,3.69,3.69,0,0,1-.36-3,5.88,5.88,0,0,1,2.65-4,8.86,8.86,0,0,1,3.85-.93,4.52,4.52,0,0,1,.48,0l.52.07-.16-.49a4.08,4.08,0,0,1-.11-.43l0,0a.58.58,0,0,0,.78.26.42.42,0,0,0,0,.24c.08.33.48.41.67.44l.28.05.81.15A4.38,4.38,0,0,0,43,145.7Zm8.22-11.08,0,.3c-.15,1.11-.29,2.07-2.85,5.34a23.19,23.19,0,0,1-3.82,4.2l-1.12-.22-.2,0a1.16,1.16,0,0,0,.41-.43.42.42,0,0,0-.06-.49c-.21-.22-.5-.1-.94.07l-.4.15-.1,0a1.35,1.35,0,0,0-.49-.48.49.49,0,0,0-.6,0c-.08.06-.3.24-.13,1a9.38,9.38,0,0,0-4.22,1,6.47,6.47,0,0,0-3,4.41c0,.08,0,.16,0,.25a2.93,2.93,0,0,1,.37-2.37c.36-.53.84-1.1,1.36-1.7a16.11,16.11,0,0,0,3.29-5.11c.81-2.38.81-4.3.31-4.52l-.31-.1-.12.22-.41.25c-1.36.8-5,2.93-6,6a13.6,13.6,0,0,0-.75,4.23c-.76-1.13-1.61-2.79-1.28-3.89a25.14,25.14,0,0,1,2.13-3.84c1.59-2.59,3.57-5.82,4.06-8.08a13.89,13.89,0,0,1,.6-2,2,2,0,0,1,0,.32c0,.2,0,.61.27.75s.66-.14,1.08-.59a5,5,0,0,1,1,1.24,11.16,11.16,0,0,0,2.27,2.6,5.46,5.46,0,0,0,3.22,1.08,6.26,6.26,0,0,0,4.32-1.91,5.31,5.31,0,0,0,1.08-1.42A22.6,22.6,0,0,1,51.27,134.62Zm-2-7.77a3.31,3.31,0,0,1,.67,1.25,3,3,0,0,1,.07.39Q49.67,127.71,49.26,126.85Zm1.14-.44a2.45,2.45,0,0,1-.22-1.33c.34-3.57,4.19-4.76,4.37-4.81a4.91,4.91,0,0,0,2.26,1.48,11.78,11.78,0,0,0,2.79.5,5.33,5.33,0,0,1-1.51,4.53c-1.29,1.41-4.19,1.86-6.2,1a3.26,3.26,0,0,1-1.15-.83Zm9.86-4.16A5,5,0,0,0,63.66,121c-1.45,1.82-2.94,3.64-4.28,5.2A5.74,5.74,0,0,0,60.27,122.26Zm-5.48,8.53c-.63-.12-1.67-.79-2.95-2.35a6.48,6.48,0,0,0,2.34.42A6.57,6.57,0,0,0,58,127.69C56.41,129.51,55.17,130.74,54.79,130.78Zm9.55-12.16c-1.17,3.52-4.64,3.31-7.35,2.51a5.54,5.54,0,0,1-2.86-2.46c-.51-.72-.91-1.29-1.5-1.3a3.84,3.84,0,0,0-.69,0v-.07a3.51,3.51,0,0,0,0-1.05.93.93,0,0,0,.7.23.47.47,0,0,0,.33-.24,2.52,2.52,0,0,0,.11-.27c.24-.66.95-2.62,2.44-3.25a8.32,8.32,0,0,0,4.28,1.77,5.69,5.69,0,0,0,.8.06,4.55,4.55,0,0,0,2.87-1C63.86,113.91,65.41,115.42,64.35,118.62Zm-4.44-4.75c-4.4-.62-5.59-3.43-5.9-4.62-.06-.23-.14-.54-.44-.55s-.36.22-.42.41a2.55,2.55,0,0,1-.22-1.09c0-.08,0-.15,0-.19l.14.13a.69.69,0,0,0,.53.23c.36,0,.62-.35,1.09-.94.3-.37.67-.84,1.19-1.41a5.33,5.33,0,0,1,3.92-1.42l.05-.66a5.91,5.91,0,0,0-4.46,1.63c-.54.59-.94,1.08-1.22,1.44s-.54.68-.65.65c-.25-.24-.54-.49-.85-.38s-.38.47-.43.84c-.08.59.3,1.89.78,2.07a.41.41,0,0,0,.47-.12,6.67,6.67,0,0,0,1.5,2.39,6.37,6.37,0,0,0-2.54,3.51v0a2.89,2.89,0,0,1-.5-.37.43.43,0,0,0-.51-.1c-.26.14-.23.43-.17.86a3.48,3.48,0,0,1,0,1c-.06.34-.11.57.06.75a.6.6,0,0,0,.57.11,4,4,0,0,1,.68,0c.26,0,.61.5,1,1,.15.21.32.45.5.68-1,.36-4.19,1.79-4.56,5.22-.55-1-1.12-2.13-1.7-3.43h0s-.45-1.69.92-5A24.61,24.61,0,0,0,51.1,106c.17-4.52-.58-6.82-.93-7L50,98.9l-.34.22v.13l-.18.36c-2.61,5.1-3.77,9.28-3.43,12.42.3,2.84.48,5.11.58,6.63-.58-1.42-1.14-2.68-1.68-3.79l.07,0c-.32-.94.27-5,1.15-11.19l.13-.92c.31-2.2.54-4.55.68-6.76a6.35,6.35,0,0,0,3-3.5A24.82,24.82,0,0,0,51.29,87c0-.35-.16-.45-.29-.48-.35-.08-.43.09-1.16,1.72l-.06.13a6.76,6.76,0,0,1-2.56,2.29,25.59,25.59,0,0,0-.12-4.28.45.45,0,0,0-.41-.29c2.94-1.1,5.45-2.33,6.08-2.64a33.75,33.75,0,0,1,5.8,5.28c4.4,5.37,5.9,7.16,5.9,7.16l.09-.08c.05.2.09.38.13.54a.93.93,0,0,0-.33.25.5.5,0,0,0-.1.33l-.37.26a8.28,8.28,0,0,0-3.69,4.89,4.59,4.59,0,0,0,.63,4,7.48,7.48,0,0,0,4.67,2.7C65.25,110,64,114.45,59.9,113.87Zm6.9-5.54a7.42,7.42,0,0,1-5.43-2.6,3.91,3.91,0,0,1-.53-3.46,7.57,7.57,0,0,1,3.42-4.52,2.1,2.1,0,0,0,.62-.53l0,.12.65-.1s0-.2-.08-.44a2.92,2.92,0,0,1,.84-.08h0v0c0,.11-.06.25-.1.42-.08.41.32.8,1,1.5,1.22,1.2,3.06,3,3,5.46A4.36,4.36,0,0,1,66.8,108.33Zm2.51,5.89c-2.65-3.65.93-6.89,1.28-7.19a8.42,8.42,0,0,0,2.58.46,4.45,4.45,0,0,0,2-.43,2.35,2.35,0,0,1,1.38.62c.13.16.34.44.63.34s.28-.38.28-.63c0-.05,0-.12,0-.18a13.07,13.07,0,0,1,1.36,1.56l-.26-.07a.58.58,0,0,0-.52.08c-.2.16-.2.38-.2,1s0,1.3-.1,2.6c-.12,1.49-1.62,3-3.51,3.55A4.38,4.38,0,0,1,69.32,114.22Zm3.55,2.52a5.7,5.7,0,0,0,1.55-.22c2.17-.61,3.85-2.35,4-4.13,0-.18,0-.33,0-.49a2.79,2.79,0,0,1,1,.53c.1.09.35.34.64.24a.6.6,0,0,0,.34-.54,5.83,5.83,0,0,0,.52.65l.05.06a.67.67,0,0,0-.54.24.61.61,0,0,0,.11.81,5.25,5.25,0,0,1-.36,3.68,3.81,3.81,0,0,1-3.4,2,4.56,4.56,0,0,1-3.61-1,3,3,0,0,1-.83-1.88A5.13,5.13,0,0,0,72.87,116.74Zm-4.38,4.8a.61.61,0,0,1-.29-.05c-.12-.41,1.55-2.14,3.67-3.83a3.43,3.43,0,0,0,.84,1.39,3.67,3.67,0,0,0,1.13.74C72.94,120.3,70.43,121.61,68.5,121.54Zm1.26,10.26A3.4,3.4,0,0,1,66,133.49a4.13,4.13,0,0,1-2.94-2.34c-.76-2,.71-4.51.83-4.71a3.79,3.79,0,0,1,2.74-1.5,3.9,3.9,0,0,1,3,1.68A4.34,4.34,0,0,1,69.76,131.8Zm.44-5.61a6,6,0,0,0-1.72-1.46,4.4,4.4,0,0,1,2-.79,7.23,7.23,0,0,0-.15,2.37Zm9.27,3.91a2.78,2.78,0,0,1-1.1.62.66.66,0,0,0-.58,0,.56.56,0,0,0-.26.32,2,2,0,0,1,0-.2.5.5,0,0,0-.12-.38c-.23-.27-.71-.31-1.52-.36-1.74-.12-4.36-.29-4.85-3-.7-3.91,1.38-5.29,1.58-5.41,1.11-.49,4.58-1.15,6.38,1.95,1.9,3.29,0,5.14,0,5.16a.63.63,0,0,0-.25.71A1,1,0,0,0,79.46,130.1ZM86,128.43a1,1,0,0,0,.39.32l-.09.16-.08.16-.18.38c-.32-.26-.58-.47-.87-.35a.54.54,0,0,0-.29.5v0c-.33-.51-.54-.52-.63-.53a.38.38,0,0,0-.35.17c-.1.09-.77.37-2.22,0a6.05,6.05,0,0,1-1.78-.72,5.16,5.16,0,0,0-.37-5.26,5.51,5.51,0,0,0-6.06-2.58c.58-.3,1-.54,1-.57l-.09-.14a6.46,6.46,0,0,0,1.77.24l.62,0A4.4,4.4,0,0,0,81,117.4a5.58,5.58,0,0,0,.11-3.88l.07,0c.15.08.56.3.79,0s0-.65-.54-1.22a5.73,5.73,0,0,1-.64-.84c-.17-.26-.31-.48-.57-.43s-.33.3-.35.39a3.11,3.11,0,0,0-.07.42,3.92,3.92,0,0,0-1.32-.64c0-.66,0-1.14,0-1.47,0-.14,0-.28,0-.38a4.39,4.39,0,0,1,.46.15c.38.14.69.26.88,0s0-.52-.1-.63l-.29-.38a29.58,29.58,0,0,1,2.61-2.17c1.27-.92,7.09.76,8,1.11a32.18,32.18,0,0,1-1.1,4.22c-2,5.9-5.71,7.39-7.12,8-.5.2-.77.31-.75.62v0a6.27,6.27,0,0,0-2.94.89l.37.55a5.83,5.83,0,0,1,5-.42C87.31,123.1,86,128,86,128.16l0,.15Zm13.37-1.62c3.48,2.53,5.59,2.38,6.73,2.3a3,3,0,0,1,.61,0c-.39.33-2.17.9-5.86.21-4-.75-6.59-3-8.88-5.07-.61-.54-1.19-1.05-1.77-1.51a8,8,0,0,0-3.87-1.68c.21,0,.42-.08.67-.15l.21-.06v.05C88.67,120.93,94.79,123.46,99.41,126.82Zm1.7-7.7a28.74,28.74,0,0,0-9.82.08c.62-.31,1.26-.65,1.9-1v0a23.52,23.52,0,0,1,9.5-.52,13.16,13.16,0,0,1,5,1.82C106.91,119.7,105,119.88,101.11,119.12Z"/></g></g></svg>