<svg xmlns="http://www.w3.org/2000/svg" viewBox="0 0 93.4 191.24"><defs><style>.cls-1{fill:#fff;}</style></defs><title>אכינציאה</title><g id="Layer_2" data-name="Layer 2"><g id="Expended"><path class="cls-1" d="M11,140.86l-.53.64,2.58-.3c1.26-.15,2.47-.29,3.69-.42a4.67,4.67,0,0,0,3.52-2.2l.16-.24-.1.19a4,4,0,0,1-.43.59l-.31.4-.49.64.8-.12.27,0a1.72,1.72,0,0,0,.37-.07l1.85-.63c1.23-.42,2.5-.86,3.77-1.23a8.22,8.22,0,0,0,4.23-2.94l-.13.23-.19.35-.57,1.1.84-.35a15.07,15.07,0,0,0,5.79-3.69,13.32,13.32,0,0,0,2.63-5.43A6,6,0,0,1,41,123.92a1.62,1.62,0,0,0,.25-.25l.24-.26.44-.46-.63-.09-.5-.1a1.91,1.91,0,0,0-.91-.06,6,6,0,0,0-3.65,2.14,19.29,19.29,0,0,0-1.17,2,8,8,0,0,1,2.5-3.33l.71-.49-.86-.11a4.83,4.83,0,0,0-1.15,0,22.6,22.6,0,0,0-7.76,2.78,6.11,6.11,0,0,0-2.73,2.6c-.42.8-.84,1.6-1.25,2.41l-.1.2.32-.65,1.75-3.57-1,.72-1.74,1.19c-1.25.85-2.54,1.72-3.77,2.63a25.25,25.25,0,0,0-5.35,4.9l-.51-.46-.21.12a36.23,36.23,0,0,1-12,3.87l-.32.05.13.83.39.09a2.79,2.79,0,0,0,.45.09c.56.05,1.12.09,1.69.13a28.16,28.16,0,0,1,3.56.4,4.85,4.85,0,0,0,1,.1A4.5,4.5,0,0,0,12,139.75l-.11.12C11.61,140.19,11.31,140.51,11,140.86Zm24.55-13.61a20.1,20.1,0,0,1,1.2-2A5.47,5.47,0,0,1,40,123.34h.11a2.19,2.19,0,0,1,.43.07,6.61,6.61,0,0,0-2.45,3.78,12.74,12.74,0,0,1-2.49,5.17,13.12,13.12,0,0,1-4.69,3.15l1.19-2.13,3-5.32ZM25.09,131q.62-1.2,1.25-2.4a5.39,5.39,0,0,1,2.46-2.32,22.07,22.07,0,0,1,7.52-2.71h.13a10.89,10.89,0,0,0-2.12,3.25c-.14.29-.29.58-.43.87l-.22.42c-.93,1.79-1.89,3.64-2.93,5.4a8.13,8.13,0,0,1-4.77,4c-1.28.37-2.56.81-3.8,1.24l-1.49.51a2.85,2.85,0,0,0,.22-.35q1.52-2.81,3-5.64Q24.51,132.08,25.09,131Zm-4.78.75c1.22-.9,2.45-1.73,3.75-2.62l.71-.48-.64,1.31c-1,2-1.93,4-2.91,5.9a19.38,19.38,0,0,1-1.23,2l-.25.38a4,4,0,0,1-3,1.91c-1.22.13-2.44.27-3.7.42l-.9.11.3-.32a8.87,8.87,0,0,0,1.53-2C15.33,135.52,17.65,133.67,20.31,131.71ZM7.89,140.54a28.58,28.58,0,0,0-3.65-.41L3.08,140a36.15,36.15,0,0,0,10.4-3.37l-.18.27a19.44,19.44,0,0,1-1.47,2A3.85,3.85,0,0,1,7.89,140.54Zm4.44-1.14c.29-.33.55-.68.8-1a8.19,8.19,0,0,1-.94,1.19Z"/><path class="cls-1" d="M65.94,89.61c.59-2.22,1.13-4.44,1.64-6.59.13-.53.22-1.07.3-1.59,0-.24.08-.47.12-.71l.23-1.24-.8,1-.09.13a15.55,15.55,0,0,0,.74-4.48,51,51,0,0,0-.49-6.26c-.11-.91-.22-1.81-.31-2.72l0-.35-.7.11L65.31,69.8c-1,2.42-2.08,4.93-3.08,7.41a8.78,8.78,0,0,0-.47,2.28A8.74,8.74,0,0,0,61.2,75l0,0,.59.46-.05-.67c0,.46.1.91.15,1.36L62,77.38l.49-1.12c1.38-3.13,2.7-6.19,3.79-9.3a8.16,8.16,0,0,0,.18-3.26l0-.3c-.12-1.69-.27-3.39-.42-5.08s-.29-3.26-.41-4.9c-.07-.91,0-1.84,0-2.75,0-.43,0-.85,0-1.28V47.82L65,49.27a47,47,0,0,0-3.43,13.19,42.7,42.7,0,0,0-.21,7.68,28.31,28.31,0,0,0-.4-3.07c-.06-.28-.09-.55-.14-.83l.31-2c.11-.67.2-1.35.3-2,.22-1.54.45-3.12.78-4.67S63,54.48,63.43,53c.2-.68.39-1.35.58-2l.36-1.32-.92,1A23,23,0,0,0,61,53.88a3.18,3.18,0,0,0-.52,1.52c0,.93-.07,1.9-.1,2.94,0-.33,0-.66,0-1s0-.79,0-1.21v-.9l-.58.68-.17.2a1.24,1.24,0,0,0-.18.24l-.48.88a29.82,29.82,0,0,0-2.89,6.37,3.08,3.08,0,0,0,0,1.53l-.21-.3-.26.44a8.17,8.17,0,0,0-1.05,4.65c0,.66.15,1.31.24,1.95S55,73,55,73.53l-.14-.79-.25-1.39-.76,0,0,.29c-.06.56-.14,1.11-.22,1.67a31.13,31.13,0,0,0-.38,3.78c0,1.62.09,3.26.21,4.85,0,.57.08,1.13.12,1.7,0,.31,0,.62,0,.93A9.73,9.73,0,0,0,53.86,87l-.49.12,0,.24a41.44,41.44,0,0,1-2.06,8.83,6.61,6.61,0,0,0-.19,2.32L51,97.72l-.4,1.61a55.21,55.21,0,0,0-1.87,13.51v1.55l.63-1.42.66-1.52.05-.12c-.37,1-.7,2-.93,2.9a7.6,7.6,0,0,0-.18,1.69c0,.24,0,.48,0,.72l0,.32.81.08.45-1.06c.25-.61.51-1.22.79-1.82a48.38,48.38,0,0,1,6.12-9.32c1-1.25,1.94-2.51,2.89-3.77l1.28-1.69,1.62-2.13-3.9,3.12-.85.69c1.38-1.18,2.76-2.39,4.06-3.67C64.29,95.27,65.2,92.38,65.94,89.61ZM62.24,62.55A48.53,48.53,0,0,1,65,51.13c0,.77,0,1.56,0,2.34.12,1.64.26,3.27.41,4.91s.3,3.38.42,5.07l0,.3a7.71,7.71,0,0,1-.15,3c-.95,2.71-2.08,5.39-3.27,8.12A53,53,0,0,1,62.24,62.55Zm-6,34.81.58.16.67-1.66.45.35a24.57,24.57,0,0,0-1.82,2.31c-.14.2-.26.41-.39.62l.23-.45A2.61,2.61,0,0,0,56.21,97.35Zm3.31-10.47c-.2-.4-.38-.81-.57-1.21l.86,1.66.33.63.27-.67Q60.2,88.15,60,89A4.27,4.27,0,0,0,59.51,86.89Zm-3.45-7.73L56,78.76c.28.92.62,1.83,1,2.72l-.6-1.28a1,1,0,0,0-.35-.38v-.06A1.79,1.79,0,0,0,56.06,79.16Zm6.31.78,0-.28a8.61,8.61,0,0,1,.44-2.2c1-2.48,2.05-5,3.07-7.4l.81-1.91c.06.59.14,1.18.21,1.76a50.44,50.44,0,0,1,.49,6.18A18.82,18.82,0,0,1,65,84.54a63.52,63.52,0,0,1-6,9.38l.16-.38A51.61,51.61,0,0,0,62.37,79.94Zm2.41,6.4a35.63,35.63,0,0,1-4.62,7.31c-.44.53-.9,1-1.36,1.56A71.81,71.81,0,0,0,64.77,86.33Zm-4-.45.18-1c.28-1.53.55-3.11.76-4.69C61.43,82.19,61.12,84.08,60.73,85.88Zm.42-30.45a2.53,2.53,0,0,1,.42-1.19c.46-.72.92-1.38,1.39-2l-.16.56c-.43,1.5-.88,3-1.22,4.6-.23,1.08-.42,2.18-.58,3.27C61,58.68,61.08,57,61.15,55.43ZM56.7,63.77a29.33,29.33,0,0,1,2.83-6.23l.19-.35c0,.05,0,.1,0,.15,0,.79,0,1.54,0,2.27a30.52,30.52,0,0,0,.62,7.58,35.85,35.85,0,0,1,.49,4.23c0,.62.09,1.24.16,1.85l0,.22c-.41-.77-.85-1.53-1.28-2.27a32.41,32.41,0,0,1-3-6.17A2.43,2.43,0,0,1,56.7,63.77Zm-.8,2.32,1.25,2.46c1,2,2.1,4.13,3.2,6.17a7.93,7.93,0,0,1,.73,4.9c-.21,1.72-.52,3.45-.83,5.13q-.14.76-.27,1.52c-2-3.9-4-8-4.3-12.51,0-.67-.15-1.35-.25-2s-.2-1.26-.24-1.89A7.74,7.74,0,0,1,55.91,66.09Zm-1.65,7.32,0-.16c.12.66.23,1.32.36,2s.22,1.16.33,1.74c.15.77.3,1.54.44,2.31a1.28,1.28,0,0,1,0,.38c0,.09,0,.19,0,.29l0,.17.13.11.11.08a.66.66,0,0,1,.21.17c.42.89.84,1.79,1.25,2.69.62,1.34,1.24,2.68,1.89,4A3.51,3.51,0,0,1,59,90.23q-.95,2.32-1.89,4.65l-.57,1.4a44,44,0,0,0-2.05-9.33,8.65,8.65,0,0,1-.27-2.38c0-.32,0-.64,0-1,0-.57-.08-1.14-.12-1.71-.12-1.57-.23-3.2-.21-4.79A30.61,30.61,0,0,1,54.26,73.41Zm-2.34,23a46.41,46.41,0,0,0,2-8l.13.43c.31,1.06.63,2.16.84,3.25.3,1.53.46,3.12.62,4.66l.07.64a2,2,0,0,1-.21,1c-.76,1.53-1.54,3-2.33,4.56l-.41.8-.06-.31c-.13-.71-.26-1.38-.38-2.06l-.11-.61a18.81,18.81,0,0,1-.31-2.17A6.37,6.37,0,0,1,51.92,96.38Zm-.09,6.82v0a2.15,2.15,0,0,1-.07-.39l0-.12Zm-2.43,8a54.45,54.45,0,0,1,1.43-10.06l.26,1.73a2.82,2.82,0,0,0,.1.51,6,6,0,0,1-.39,4.73C50.31,109.09,49.87,110.11,49.4,111.19Zm9.71-10.11c-.85,1.12-1.7,2.25-2.57,3.35a48.88,48.88,0,0,0-6.2,9.45c-.25.54-.49,1.1-.72,1.65a5.47,5.47,0,0,1,.14-1.13A33.22,33.22,0,0,1,51,110.64c.45-1.14,1-2.29,1.46-3.39l.38-.83a1.81,1.81,0,0,1,.41-.64Q56.17,103.42,59.11,101.08Zm-6.27,4.19a2.32,2.32,0,0,0-.59.88l-.21.48a6.28,6.28,0,0,0,.13-1.67l0,.23.44-.41.18-.16a.74.74,0,0,0,.2-.22l0-.07.47.4Zm3.49-3.57-2.19,1.88,0,0,.48-1a31.48,31.48,0,0,1,2.06-3.75,31.7,31.7,0,0,1,2.63-3.23c.47-.53.94-1.05,1.39-1.59A40,40,0,0,0,66.8,83.44c-.47,2-1,4-1.5,6-.75,2.8-1.59,5.47-3.61,7.47C60,98.58,58.12,100.17,56.33,101.7Z"/><path class="cls-1" d="M86.6,143.63a12.31,12.31,0,0,0-1.59-.41l2.25.32-.3-.63a2.91,2.91,0,0,0-.15-.31l-.57-1c-.5-.86-1-1.75-1.58-2.59a3.7,3.7,0,0,0-1.43-1.25,29.21,29.21,0,0,0-4.5-1.63c1.24.34,2.47.72,3.65,1.18a2.78,2.78,0,0,0,.38.11l.72.18-.14-.64a.63.63,0,0,0-.1-.29l-.33-.46A29,29,0,0,0,78,130.59a12.27,12.27,0,0,1-1.1-1.07c-.31-.33-.63-.67-1-1a9,9,0,0,0-2-1.48,10.58,10.58,0,0,0-6.43-.82l-.59.09a39.31,39.31,0,0,1-9.67.75,1.34,1.34,0,0,0-.34,0l-1.07.12.68.5-.43-.19-.43-.18-.55-.25.16,1c0,.26.07.48.11.69l.48,2.59.59,3.18a11.69,11.69,0,0,0,1.92,5,8.3,8.3,0,0,0,3.69,3.1,13.76,13.76,0,0,0,4.86.83h.77l-.19-.45c-.08-.2-.17-.38-.25-.56a6.56,6.56,0,0,1-.39-1c-.28-1-.56-2.06-.83-3.1-.2-.75-.4-1.49-.6-2.23.66,2.14,1.35,4.34,2.06,6.5a3.37,3.37,0,0,0,1,1.4,8.56,8.56,0,0,0,1,.68,6.93,6.93,0,0,1,1,.71,40.65,40.65,0,0,0,7.82,5.19,2.07,2.07,0,0,0,.41.16l.8.28-.27-.68-.59-1.5c1.36,2.83,2,3.17,5.59,3.83l.12,0a1.75,1.75,0,0,0,.39.06h.13a5.09,5.09,0,0,0,1.1-.26.73.73,0,0,0,.45-1.11,1,1,0,0,0,.75.32.77.77,0,0,0,.29,0,9.91,9.91,0,0,0,1.13-.58l.54-.3.52-.28L85,147.82l-.47.48c-.13-.21-.26-.43-.4-.64a5.78,5.78,0,0,0-1.34-1.5c-1.37-1-2.79-2-4.17-3l-1.37-1-.41-.26-1.17-.72.35.92c.22.58.43,1.14.63,1.7-.23-.53-.45-1.07-.69-1.6a7.67,7.67,0,0,0-2.17-2.63c-1.76-1.42-3.6-2.79-5.37-4.11l-1.82-1.36c-.26-.2-.54-.38-.84-.57L64.9,133l-.1.48,0,.2v0a3,3,0,0,0-1.23-1.72l-.28-.17-3.38-2.1c1.51.89,3,1.8,4.49,2.79A12.21,12.21,0,0,0,69,134.46l-.14,0a.87.87,0,0,0-.31,0l-.16,0-.61.13.6.58a2.42,2.42,0,0,0,.26.24l1.37,1q3.59,2.65,7.2,5.29a2.64,2.64,0,0,0,1.13.47l4.78.7-1.79-.15-1.26-.09a.81.81,0,0,0-.38.09l-.21.08-.6.22,1.68,1.18c1.24.87,2.42,1.7,3.62,2.52a2.1,2.1,0,0,0,1,.35l.79,0-.14,0-.24.86,7.78,4.39-.67-1.08a26.21,26.21,0,0,0-2.21-3.08,2.36,2.36,0,0,0-1.24-.84,22.49,22.49,0,0,0-2.25-.23H87l1.05,0,1.79,0-.35-.53-.41-.61c-.27-.4-.5-.74-.7-1.1A3,3,0,0,0,86.6,143.63Zm1.75,6.93,0,0a9.53,9.53,0,0,1-1,.54.61.61,0,0,1-.26,0c-.48-.69-.92-1.4-1.37-2.11Zm-10.14-6.82c1.37,1,2.79,1.95,4.15,3A5.19,5.19,0,0,1,83.55,148c.4.6.78,1.22,1.16,1.83s.72,1.17,1.1,1.75a.75.75,0,0,1,.13.26.38.38,0,0,1-.15.09,4.47,4.47,0,0,1-1,.22.93.93,0,0,1-.28,0l-.15,0c-3.57-.65-3.87-.78-5.42-4.11-.6-1.3-1.09-2.64-1.62-4.06l-.4-1.08Zm-12-9L68,136.06c1.77,1.32,3.61,2.69,5.36,4.1a7,7,0,0,1,2,2.39c.86,1.89,1.64,3.87,2.4,5.79l.63,1.59A38.85,38.85,0,0,1,71,145a7.53,7.53,0,0,0-1.11-.78,8,8,0,0,1-.92-.63,2.67,2.67,0,0,1-.83-1.1c-.75-2.28-1.48-4.61-2.18-6.86l-.43-1.4C65.74,134.39,66,134.54,66.19,134.7Zm-3-2.09a3.07,3.07,0,0,1,1.15,2l.06.22c.35,1.24.68,2.49,1,3.74.27,1,.55,2.07.83,3.1a7.18,7.18,0,0,0,.43,1.08l0,.08a13,13,0,0,1-4.41-.79,7.58,7.58,0,0,1-3.39-2.87,11.1,11.1,0,0,1-1.8-4.7q-.29-1.59-.59-3.18L56,128.73c0-.17-.06-.34-.08-.53a4.11,4.11,0,0,1,.56.27q3.21,2,6.4,4Zm-3.56-3.74L57.8,127.8A42.39,42.39,0,0,0,67,127l.59-.1a10,10,0,0,1,6,.76A8.56,8.56,0,0,1,75.53,129c.33.29.63.61.93.93a13.11,13.11,0,0,0,1.16,1.13,28.53,28.53,0,0,1,4.75,5.5h0A42.85,42.85,0,0,0,71,134.07a12.67,12.67,0,0,1-6.28-2C63.06,130.9,61.31,129.87,59.61,128.87Zm14.59,6.27-.58-.09Zm3.24.66-1.1-.25Zm.16,5.44q-3.61-2.63-7.19-5.29l-1.07-.79c4.53.49,9.28,1.18,13.63,3.21a3,3,0,0,1,1.16,1c.55.82,1.06,1.7,1.55,2.56l.44.76L85,142.54c-2.19-.31-4.36-.62-6.53-1A2,2,0,0,1,77.6,141.24Zm11.58,6.85a1.68,1.68,0,0,1,.84.61c.51.62,1,1.24,1.43,1.89l-4.86-2.74.41,0C87.71,147.91,88.46,148,89.18,148.08Zm-.67-1.57.05.07H88c-1,0-1.89,0-2.8-.09a1.43,1.43,0,0,1-.69-.23c-1.2-.82-2.38-1.65-3.61-2.52l-.49-.34.83.06a19.85,19.85,0,0,1,5.11.81,2.31,2.31,0,0,1,1.39,1.11A13.47,13.47,0,0,0,88.51,146.51Z"/><path class="cls-1" d="M52.87,79.27l-.25-1.79-.4,1.76A93,93,0,0,0,50.49,94.1l-.16,2.56.75-1.74A28.5,28.5,0,0,0,52.87,79.27Zm-.42,2.16a27.66,27.66,0,0,1-1.21,11.22A96.37,96.37,0,0,1,52.45,81.43Z"/><path class="cls-1" d="M10.71,136.78l1.58-.64h-.76a4.21,4.21,0,0,0,2.08-.75c2.85-1.92,5.73-3.91,8.51-5.83l2.55-1.76.39-.28,1-.76-1.09.05c-.59,0-1.16.09-1.74.15l1.16-.21c.29-.06.59-.1.9-.14a7.11,7.11,0,0,0,2.39-.63l.55-.3A24.15,24.15,0,0,1,34.54,123l1.41-.31-.88-.21a7.4,7.4,0,0,0,1.42,0,15,15,0,0,1,6,.56A3.9,3.9,0,0,1,45,124.9a2.09,2.09,0,0,0,.32.42l.13.14.58.7c.09,1.74.19,3.55.28,5.48s.18,4.08.25,6.12h0l-.22-.05a1.21,1.21,0,0,0-.71,0,19.5,19.5,0,0,0-8.2,5.72l-.24.26A3.72,3.72,0,0,0,36,145.4a3,3,0,0,1-1.23,1.86,1.69,1.69,0,0,0-.57,1.77c.07.28.16.6.27.93-.11-.27-.23-.54-.33-.8l-.1-.16-.13-.05-.19.28.15-.29-.23-.12-.23.26a1.41,1.41,0,0,0-.2.25l-.67,1.14c-.78,1.33-1.58,2.7-2.33,4.08A2,2,0,0,0,30.1,156c.36,1.16.77,2.32,1.16,3.45l.19.55-1.11-2.69c-.07-.16-.14-.31-.24-.51l-.46-1-.31.58-.19.35v0l.09-.23c.06-.16.12-.32.19-.51l.29-.8-.74.08-.25,0-.36.13.69-.37a3,3,0,0,0,1.21-1c.59-.94,1.14-1.92,1.67-2.87l.54-.95a.42.42,0,0,0,0-.42l-.1-.19-.1-.19H32c-.42,0-.85,0-1.29,0a9.13,9.13,0,0,0-3,.34,11.63,11.63,0,0,0-6.55,5.47,26.89,26.89,0,0,0-2.42,6.16l-.28,1,1.25-1.08c-.3.29-.59.57-.89.88a3.69,3.69,0,0,0-.87,1.62c-.49,1.9-1,4-1.56,6.61-.16.71-.27,1.43-.39,2.19-.06.37-.12.75-.19,1.16l-.15.86.68-.55.26-.2a2.07,2.07,0,0,0,.29-.25l.18-.19-.3.33-.81.89a2.77,2.77,0,0,0-.55,1.26c-.26,1.18-.5,2.36-.75,3.54l-.33,1.59c-.14.68-.29,1.35-.43,2l-.09.41-.23.2-.21.18.56.95a17.72,17.72,0,0,0-2.24,4.46l-.4,1.17.93-.81c3.91-3.43,7.37-8.06,8.41-11.26l.44-1.35a11.87,11.87,0,0,0,.94-2c.13-.36.27-.72.4-1.08-.26.7-.52,1.41-.77,2.11a7.74,7.74,0,0,0-.37,2.45c0,.16,0,.3,0,.45l-.64-.21-.12.27c-2,4.43-5.25,7.85-8.43,11l-1,1,1.35-.45a26.88,26.88,0,0,0,3.45-1.45l1.17-.56c2.26-1.05,2.3-1.18,3.35-4.5l.12-.36a21,21,0,0,0,.64-3,19.22,19.22,0,0,1-1.21,4.9,2.43,2.43,0,0,0-.11.42l-.08.35.52.46.21-.15,1.16-.8c1-.68,2-1.39,3-2.13a3.06,3.06,0,0,0,.95-1.38c.13-.36.24-.72.35-1.09l-.31,1.68.73-.67.33-.29a3.42,3.42,0,0,0,.46-.45l1.26-1.58c1.72-2.15,3.5-4.37,5.19-6.59a3.85,3.85,0,0,0,.62-2.06,19.91,19.91,0,0,0-.23-4c.12.67.22,1.36.3,2.07.05.46.1.92.17,1.38l.15,1.05.55-1.1a2.29,2.29,0,0,0,.2-.43l.47-1.5c.57-1.8,1.14-3.6,1.68-5.41a11.46,11.46,0,0,0,.15-5.42,17.7,17.7,0,0,0-.65-2.43L38.21,159l.09-1.4a24.67,24.67,0,0,0-.78-7.64c-.21-.82-.33-1.68-.46-2.51-.05-.34-.1-.68-.16-1a1.62,1.62,0,0,1,.53-1.4A18.88,18.88,0,0,1,46,139.14l.19,0,.44-.64c.11,2.74.21,5.57.37,8.35.18,3.21.44,6.46.69,9.61q.13,1.66.26,3.31.33,4.29.68,8.58l.72,9.16.1.3h.65l.06-.25c.11-.43.22-.85.34-1.28.27-1,.54-2,.76-3.06a16.38,16.38,0,0,0,.42-3.33c0-1-.11-2.08-.21-3.09,0-.44-.09-.88-.12-1.32l-.26-3.19c-.2-2.42-.4-4.84-.58-7.26q-.44-5.76-.83-11.53l-.19-2.72c-.24-3.44-.49-7-.67-10.51-.08-1.65-.13-3.33-.17-5,.62.21,1.29.41,2,.62a1,1,0,0,1,.26.1.69.69,0,0,1-.12.3A6.18,6.18,0,0,0,51,132.7a25.3,25.3,0,0,0,5.61,6.11l.3.26.1.15.11,0,.14.1.41-.25-.06-.23a.31.31,0,0,0-.15-.21c-.13-.48-.27-1-.41-1.43-.36-1.21-.72-2.46-1-3.71-.23-1.09-.4-2.22-.56-3.31-.11-.77-.22-1.53-.36-2.3a1.77,1.77,0,0,0-.7-1.13,2,2,0,0,0,.58.1l.83.06c.74.05,1.5.1,2.26.11h1.3c1.08,0,2.18,0,3.26-.12s2.07-.27,3.07-.43a26.49,26.49,0,0,1,5.73-.49l.27,0,.2-.73-.26-.11-.69-.31c-.51-.23-1-.47-1.57-.68l-1.9-.74c-1.8-.71-3.67-1.44-5.56-2a8.9,8.9,0,0,0-4.33-.19,15.12,15.12,0,0,0-6.17,3,1.26,1.26,0,0,0-.28.36l-.11.17L51,125l-1.73-.85a2.48,2.48,0,0,0-.62-.19c0-1.5-.07-3-.13-4.5-.17-4.09-.43-8.26-.65-11.94-.11-1.83-.27-4.23-.51-6.62-.21-2.06-.44-4.12-.68-6.17-.17-1.44-.33-2.88-.49-4.31,0-.33-.06-.67-.09-1,.28-1.2.67-3,1.16-5.1,2.15-9.54,5.75-25.5,7.17-29.62l-.31-.11.32.09c.21-.7,1.16-4.18,2.26-8.19l2.12.78-.37-.75a7.11,7.11,0,0,0-1.25-1.64l.21.11-.22-.28,0-.09,2.15-7.87c1.87-.15,3.74-.33,5.58-.59l.29,0v-.29a1,1,0,0,0-.35-.75,1.79,1.79,0,0,0-1-.36A1.78,1.78,0,0,1,65,34.46h0l.06-.43.16-.18a5.25,5.25,0,0,1-.39-.54,3.64,3.64,0,0,0-.34-.47,3,3,0,0,0-1-.67,2.59,2.59,0,0,0-.62-.16,15.43,15.43,0,0,0,3.12-2l.31-.29L66,29.55a14.71,14.71,0,0,0-4.05-1.76l.65-2.08,1.6-5.12a12.42,12.42,0,0,0,.13,2,17.28,17.28,0,0,0,.57,2.24l.7,2.3,1.67-2a7.63,7.63,0,0,0,.65-.87,7.64,7.64,0,0,0,.59-1.33l.95-2.55c.9,1.41,1.74,2.87,2.5,4.36a7.48,7.48,0,0,1,.87,2.4l.05.43.4-.16c.42-.17.39-.6.37-.87,0-.06,0-.14,0-.2a2.76,2.76,0,0,1,.25.33,1.9,1.9,0,0,0,.23.3.74.74,0,0,0,.36.21.51.51,0,0,0,.45-.11,1,1,0,0,0,.18-.83s0-.07,0-.1c0-.65,0-1.3,0-2q0-2-.13-3.9l-.66,0q.09,1.94.13,3.88c0,.65,0,1.29,0,1.94,0,0,0,.09,0,.15v0l0,0c-.2-.3-.61-.92-1.15-.59l-.12.1a12.69,12.69,0,0,0-.62-1.37,51.71,51.71,0,0,0-2.77-4.81l-.05,0,.16-.43h0a2.51,2.51,0,0,0,.81-1.09,14.71,14.71,0,0,0,.69-6.35l.44,0h0c-1,1,.14,2.79.8,3.84l.26.42c.35.61.69,1.23,1,1.86A26.89,26.89,0,0,0,76.38,22c.38.47.79.93,1.2,1.37A9.26,9.26,0,0,1,80,26.91l.42,1.46.22-1.5a21.65,21.65,0,0,0,.19-4.44,4,4,0,0,0-1.47-3.31A27.28,27.28,0,0,1,77,16.36l1.51.72c4.33,2.07,8.29,3.94,9.2,4.15l.64.14-.27-.6a11.44,11.44,0,0,0-5-5c-1.31-.76-2.7-1.41-4-2l-1.81-.84c-.21-.1-.48-.25-.79-.43-1-.59-2.48-1.41-3.62-1.25a2,2,0,0,0,.14-.42,14.61,14.61,0,0,0,.31-3,4.19,4.19,0,0,1,1.47-.61l.26-.07a.72.72,0,0,0,.48-.32.51.51,0,0,0,0-.43.79.79,0,0,1,0-.13l-.06-.18L75.18,6c-.23-.13-.56,0-1.44.26l.69-.42L75,5.52c.31-.19.53-.33.46-.6s-.15-.24-.38-.27V4.59l0,0a.37.37,0,0,0,.1-.25.44.44,0,0,0-.26-.38l-.08-.05-.09-.17-.16,0c-.11,0-.26-.06-1.05.49a3.22,3.22,0,0,1,.32-.34A.47.47,0,0,0,74,3.28a.66.66,0,0,0-.68-.37.49.49,0,0,0-.33.18l0,0c.27-.57,0-.82-.07-.88a.49.49,0,0,0-.56,0,.58.58,0,0,0-.16-.39.45.45,0,0,0-.46-.12.46.46,0,0,0-.18.11v0l-.11-.2-.18,0a.43.43,0,0,0-.2,0c.28-.57.35-.87.28-1.06L71.28.28,71.13.23c-.26-.09-.49,0-.88.6L69.7.72h0l.08-.19-.3-.32-.2,0a.31.31,0,0,1-.15,0h0A.31.31,0,0,0,69,.07a.39.39,0,0,0-.51.09l-.13.11c-.15,0-.25.14-.49.62l0,0a.38.38,0,0,0-.42,0A.43.43,0,0,0,67,.74c-.2.06-.35.25-.51.63a1,1,0,0,0-.68-.19l-.2,0-.1.1a.61.61,0,0,0-.16.28.88.88,0,0,0-.28-.16l-.21-.06-.14.11a.4.4,0,0,0-.14.2h0c-.34-.06-.58.26-.7.43a1.18,1.18,0,0,0-.29.1c-.19.08-.6.3.07,2.39a4.5,4.5,0,0,0-1.42,2.94,2.14,2.14,0,0,0-1.47-.25h-.3a31.5,31.5,0,0,0-4.06.22,62.62,62.62,0,0,0-8.26,1.66c-3,.76-6.3,1.8-8.08,4.45l-.53.79.9-.29c2.75-.88,5.55-1.66,8.37-2.33q-.47.28-.9.6a5.27,5.27,0,0,0-2.3,4v.36l.36,0a20.6,20.6,0,0,0,5.29-.81,18.37,18.37,0,0,0,1.91-.8,4.66,4.66,0,0,0-.78.75,8.77,8.77,0,0,0-1.42,2.9,25.2,25.2,0,0,0-.74,2.91l-.08.4h.41a9.09,9.09,0,0,0,2.79-.45,14.35,14.35,0,0,0,1.6-.7l2.56-1.24a10,10,0,0,0,.91-.48,28.37,28.37,0,0,0-.17,5l0,.51.45-.24c.59-.31,1.23-.64,1.86-1-.37,1.26-.72,2.53-1.05,3.79a48.17,48.17,0,0,0-7.42-.37,37.67,37.67,0,0,0-12,1.6.93.93,0,0,0-.08-.44c-.15-.29-.46-.42-.73-.6a2.41,2.41,0,0,1-1-2.38,1.66,1.66,0,0,0-1.36.59.8.8,0,0,0-.27-.54,6.31,6.31,0,0,1,.73-1.65l.17-.3c.11-.21.25-.46.1-.69a.49.49,0,0,0-.48-.19H37c-.4,0-.63.37-1.41,2l-.13.28c.11-.47.23-1,.31-1.29s.13-.53.17-.7c.09-.38.15-.65-.11-.79a.42.42,0,0,0-.51.16s-.11.12-.08.13l-.18,0-.07.05a.36.36,0,0,0-.12-.17.47.47,0,0,0-.56,0,.84.84,0,0,1-.28.12c-.23,0-.51,0-.77,2.24a6.31,6.31,0,0,1-.16-1.08.44.44,0,0,0-.21-.55c-.35-.17-.77.24-.9.41s-.12.53.14,1.9v0a9.41,9.41,0,0,0-.51-1.28.7.7,0,0,0-.78-.37.63.63,0,0,0-.45.61,4.2,4.2,0,0,0,.27,1c.1.3.28.84.42,1.35l0,0c-.17-.47-.33-1-.42-1.26-.23-.7-.27-.82-.36-.91a.59.59,0,0,0-.62-.1.56.56,0,0,0-.41.45.6.6,0,0,0,.36.58,4.45,4.45,0,0,1,.49,1.62h0c-.47-1.37-.71-1.84-1.06-1.93a.43.43,0,0,0-.41.11.82.82,0,0,0-.19.68c-.34-.62-.62-.95-.89-1a.47.47,0,0,0-.41.07c-.27.19-.28.53-.11,1.08l-.7.61a.48.48,0,0,0-.17.29l0,0-.14-.2-.4,0-.09.16a1,1,0,0,1-.2.23.43.43,0,0,0-.12.17.32.32,0,0,0-.27,0,.4.4,0,0,0-.25.44.64.64,0,0,1,0,.2c-.12.22-.05.45.42,1.13-.13-.15-.25-.24-.43-.21l-.21.08-.07.17s0,.11-.21.19a.54.54,0,0,0-.32.4,1,1,0,0,0,.33.8l-.12,0c-.29,0-.53.23-.86.58a.42.42,0,0,0-.11.39.52.52,0,0,0,.17.27,1.72,1.72,0,0,0-.58.27l-.2.18,0,.2a.38.38,0,0,0,.07.16.59.59,0,0,0-.14.13.87.87,0,0,0-.08.76,1.52,1.52,0,0,0-.18.34.44.44,0,0,0,0,.42c.19.27.88.43,2,.48a5.1,5.1,0,0,0,1.07,3.3,14.28,14.28,0,0,0-1.72,2.16,31.71,31.71,0,0,0-2.68,5.38l-.53,1.24C18.41,50.78,16,56.27,17,61.71l.1.57.44-.38a30.1,30.1,0,0,0,5-5.26,24,24,0,0,0,2-3.33c-.16,3.22-.21,6.73.89,9.95l.06.16.17,0,.16,0a.58.58,0,0,0,.39-.15,1.17,1.17,0,0,0,.28-1,1.33,1.33,0,0,1,0-.33l1.28,1.32.23-.17a3.38,3.38,0,0,0,1.17-2.5,19,19,0,0,1,.84-3.36,3.34,3.34,0,0,0,1.51-.83A13.12,13.12,0,0,0,32.51,60a14.78,14.78,0,0,1,1.09,3.33,2.43,2.43,0,0,0,.31,1,1.13,1.13,0,0,0,.9.51.84.84,0,0,0,.32-.06c.3-.13.77-.51.49-1.69a30.74,30.74,0,0,1-.84-8.32l.15.15a8.8,8.8,0,0,1,1.46,1.77,26,26,0,0,0,2.93,3.61l.37.41c.84,5.86,1.42,10.87,2.09,16.66L42,79.42c.57,4.92,1.07,9.91,1.52,14.62-.25-.63-.52-1.26-.78-1.89s-.59-1.4-.87-2.11a3.68,3.68,0,0,0-1.56-1.84l.32-.4.33.47c.25.35.5.71.71,1.07l.59-.3-2.51-5.7-.13,1.17a2,2,0,0,0-.19-.55c-.8-1.45-1.68-3-2.68-4.69-.26-.45-.54-.9-.82-1.34s-.67-1.06-1-1.61c-.21-.37-.39-.76-.57-1.15S34,74.36,33.8,74a4.13,4.13,0,0,0-2.48-2.23,16.94,16.94,0,0,0-1.75-.32l-.77-.12-.27,0-.12.32c-1.53-1.9-6.16-5.08-7.76-5.4a.8.8,0,0,0-.71.12l0,0a3.19,3.19,0,0,0-1.2-.63l-.47-.18-.68-.29a17.54,17.54,0,0,1-2.65-1.31,21.29,21.29,0,0,1-2.21-1.73c-.34-.29-.67-.58-1-.85a2.82,2.82,0,0,0-.36-.24L11.19,61l-.32,0-.08.05a15.47,15.47,0,0,0-2.31-3,17.13,17.13,0,0,1-2-2.52l-1-1.62.38,1.86a12.42,12.42,0,0,0,.64,2,34.49,34.49,0,0,0,5.27,8.61,19.18,19.18,0,0,0,1.93,2l.8.77a.42.42,0,0,0,.42.08l.07.06,0,0,.12.1.65.58.69.62A13.45,13.45,0,0,0,18.24,72c1.07.7,2.21,1.33,3.3,1.95l1.31.74.61.33,1.37.72,0-.06.39.35a8,8,0,0,0,1.36.83l.29.15L30,78.71l2,1.06-.09-.28a7.22,7.22,0,0,0,1.14.89,22.68,22.68,0,0,1,5.82,5,.49.49,0,0,0,.34.17l.14,0,.28.07a5.41,5.41,0,0,0,1,2.16l-.14-.18-.64-.83a21.8,21.8,0,0,0-1.48-1.82,29.09,29.09,0,0,0-7-5l-.85-.49a10.92,10.92,0,0,0-2.64-1.09l-1.09-.72c-1-.66-2-1.21-3-1.74l-.45-.24c-1.2-.64-2.39-1.35-3.54-2s-2.55-1.51-3.88-2.2l-.75-.73A43,43,0,0,1,6,57.33L4.71,54.47,5.48,58c.24,1.12.5,2.27.79,3.39l.08.29c.62,2.34,1.27,4.74,3,6.64l-.4.37,1.31,1.82c.93,1.29,1.85,2.57,2.8,3.84a6.21,6.21,0,0,0,1.47,1.5c.21.13.42.24.63.36l-.06,0,.14.55a.75.75,0,0,0,.33.42l.1.08A13.7,13.7,0,0,0,22,80.43a8.25,8.25,0,0,1,4.81,2.85,5.4,5.4,0,0,0,1.46,1.35l-.2-.07,1,1a14.61,14.61,0,0,0,4.46,3c2.08.91,3.85,1.78,5.42,2.67a12,12,0,0,1,4.15,4.55l.12.21.45-.11c.12,1.43.22,2.87.3,4.28,0,.79.1,1.59.15,2.38,0,.59.08,1.18.12,1.78.09,1.39.18,2.82.31,4.23s.27,2.63.41,3.94c.21,1.87.42,3.81.56,5.72.16,2.22.3,4.43.44,6.76a4.5,4.5,0,0,0-2.2-2.53c-1.23-.72-2.54-1.46-4-2.27a12.79,12.79,0,0,0-1.71-.8,15.41,15.41,0,0,0-8.23-.56c-1,.18-1.94.44-2.94.72l-1.37.37-1.35.35,1.37.29.25.05a8.19,8.19,0,0,0-4.56,1.32l-2.48,1.59c-1.62,1-3.29,2.1-4.9,3.21a28.16,28.16,0,0,0-2.6,2.13c-.37.33-.75.66-1.13,1l-.19.24.4.59.09,0-.59.25a10.58,10.58,0,0,0-3.36,2.43l-2.57,2.45L2,137.64l1.28-.36.25-.06a10,10,0,0,0-2.7,1.64l-.79.68,1-.1A34.73,34.73,0,0,0,10.71,136.78Zm9.11,46.93-.12.36c-1,3.17-1,3.17-3,4.1l-1.18.56c-.71.35-1.34.64-1.94.89a37,37,0,0,0,6.86-8.8A20.78,20.78,0,0,1,19.82,183.71Zm5.75-15.46-.06-.3-.14-.65-.53.6a1.3,1.3,0,0,0-.09.12l.65-1.69-1.06.56a2.83,2.83,0,0,0-.32.18c-.24.17-.46.36-.69.53.43-.35.86-.71,1.29-1A4.89,4.89,0,0,0,26,164.63c.34-.81.67-1.62,1-2.44-.45,1.17-.9,2.33-1.34,3.5a3.36,3.36,0,0,0-.21,1.51C25.47,167.54,25.53,167.9,25.57,168.25ZM21.69,155.7a11,11,0,0,1,6.19-5.16,8.36,8.36,0,0,1,2.71-.3h1.19l-.42.75c-.53.94-1.07,1.91-1.66,2.84a2.51,2.51,0,0,1-1,.72,37.56,37.56,0,0,0-7.6,4.83l-1.51,1.3A25,25,0,0,1,21.69,155.7Zm-5.12,17.45,0-.24c.12-.75.23-1.47.38-2.15.57-2.6,1.07-4.69,1.55-6.59a3.07,3.07,0,0,1,.7-1.32,30.77,30.77,0,0,1,9.34-6.75l.12,0-.09.25-.81,2.06c-.78,2-1.58,4-2.42,6A4.24,4.24,0,0,1,24.23,166,57.89,57.89,0,0,0,16.58,173.15ZM14.38,184l.89-.76c-.35.39-.68.79-1,1.19Zm-1.6,4.36a18,18,0,0,1,4.41-6.16c.68-.65,1.33-1.35,1.95-2l.12-.13A33,33,0,0,1,12.78,188.4ZM21.37,175a12.53,12.53,0,0,1-3,4.56c-1,1.06-2.21,2-3.34,3l-.44.37.34-1.6.33-1.59c.24-1.18.48-2.36.74-3.53a2.25,2.25,0,0,1,.39-1l.81-.89a44.06,44.06,0,0,1,6.92-6.61l-.07.19-.82,2.1C22.62,171.71,22,173.38,21.37,175Zm3.5,7.34a2.43,2.43,0,0,1-.72,1.08c-1,.73-2,1.43-3,2.11l-.69.48a20.73,20.73,0,0,0,1.41-7.29,7.11,7.11,0,0,1,.33-2.25c.73-2.07,1.53-4.16,2.3-6.17l.51-1.31C25.92,173.36,26.49,177.92,24.87,182.39Zm1.63-8a19.56,19.56,0,0,1,.05,2.48C26.57,176.06,26.55,175.23,26.5,174.4Zm7-2.86a3.12,3.12,0,0,1-.49,1.69c-1.69,2.22-3.47,4.44-5.18,6.58l-1.25,1.57.43-2.31a23.36,23.36,0,0,0-.36-8.54c-.24-1.24-.4-2.35-.51-3.4a2.72,2.72,0,0,1,.17-1.21c.93-2.49,1.9-5,2.86-7.44l.38-1a2.42,2.42,0,0,1,.11-.24l.12.26,1.88,4.56A21.93,21.93,0,0,1,33.46,171.54Zm3.31-8c-.54,1.8-1.11,3.6-1.68,5.4l-.25.78v-.06a20.91,20.91,0,0,0-.49-3c-.38-1.42-.87-2.82-1.36-4.17-.19-.54-.38-1.07-.56-1.61l-.55-1.58c-.39-1.12-.79-2.28-1.16-3.43a1.37,1.37,0,0,1,.08-.93c.75-1.37,1.55-2.73,2.32-4.06l.58-1c.32.79.66,1.57,1,2.32a28.17,28.17,0,0,1,2.2,6.26A10.84,10.84,0,0,1,36.77,163.5Zm.92-7.48-.21-.51c-.75-1.79-1.5-3.61-2.25-5.44a8.57,8.57,0,0,1-.37-1.2,1,1,0,0,1,.37-1.12,5.08,5.08,0,0,0,1-1.15c.05.31.1.62.14.94.13.85.26,1.72.47,2.57A25.25,25.25,0,0,1,37.69,156Zm8.09-17.5a17.79,17.79,0,0,0-4.56,2.23,15.73,15.73,0,0,1,4.6-2.48h.13Zm9-8.23c.16,1.1.33,2.24.57,3.35.27,1.27.64,2.54,1,3.76l.14.48a22.94,22.94,0,0,1-5-5.51,5.49,5.49,0,0,1-.15-5.77,1.44,1.44,0,0,0,.2-.56c.81.41,1.63.83,2.46,1.27a1.13,1.13,0,0,1,.41.69C54.61,128.77,54.72,129.53,54.83,130.29Zm-3-5.47a14.46,14.46,0,0,1,5.9-2.91,8.35,8.35,0,0,1,4,.18c1.86.54,3.72,1.27,5.51,2l1.9.74c.41.16.81.33,1.21.51a33.16,33.16,0,0,0-4.75.52c-1,.16-2,.32-3,.42a40,40,0,0,1-4,.12h-.5c-.74,0-1.49-.06-2.22-.11L55,126.2a1.19,1.19,0,0,1-.37-.05L52.12,125l-.31-.14ZM76.05,13.06c.33.19.61.35.83.45l1.81.84c1.33.62,2.71,1.25,4,2a11.67,11.67,0,0,1,4.38,4c-1.76-.71-5.76-2.62-8.31-3.84l-2.46-1.17-.09-.18-.15.07-.08,0,0,.1-.32.16.14.26,0,.08.11,0a21.11,21.11,0,0,0,3,3.74,3.37,3.37,0,0,1,1.29,2.9,21,21,0,0,1,0,3.06,13.58,13.58,0,0,0-2-2.62c-.4-.43-.81-.88-1.17-1.33a26.41,26.41,0,0,1-2.46-4c-.34-.63-.68-1.27-1-1.88l-.27-.44c-.56-.89-1.49-2.37-.87-3a1.07,1.07,0,0,1,.82-.32A7.34,7.34,0,0,1,76.05,13.06ZM33.43,79.82a4.1,4.1,0,0,1-1.63-1.64.83.83,0,0,0-.59-.44l-.58-.15.26.84-.59-.31-3.17-1.68-.29-.15a7.5,7.5,0,0,1-1.25-.76,7.09,7.09,0,0,1-1.28-1.37c-.48-.67-.93-1.38-1.36-2.06l-.55-.86L22.24,71l-.76.44,1.57,2.65-1.19-.67c-1.09-.61-2.21-1.24-3.27-1.93a12.94,12.94,0,0,1-1.66-1.36l-.7-.64-.63-.57-.29-.27L14.9,68c-.45-.69-.9-1.38-1.36-2.06a1,1,0,0,0-.29-.26l-.3-.22-.61.54.42.54c-.16-.18-.32-.36-.47-.55a33.89,33.89,0,0,1-5.17-8.44l0-.12c.3.35.61.7.92,1,1.32,1.45,2.56,2.82,2.9,4.85l.08.47.93-.53L11.45,62l.84.71a21.92,21.92,0,0,0,2.28,1.78,18.13,18.13,0,0,0,2.75,1.36l.68.29.51.2c.57.2,1.05.37,1.27,1l.47,1.3.22-1.77c1.12.11,6.84,3.81,7.74,5.63l.33.67L29,72l.51.08a16.34,16.34,0,0,1,1.68.31,3.54,3.54,0,0,1,2.07,1.92c.21.37.39.76.57,1.15s.38.81.59,1.2c.31.56.65,1.1,1,1.64s.55.88.81,1.32c1,1.68,1.85,3.19,2.64,4.62A25.68,25.68,0,0,0,33.43,79.82ZM6.91,61.21c-.09-.34-.18-.69-.26-1a42.93,42.93,0,0,0,6.83,9.73l-.78-.35-1.58-.66-.58-.24a.37.37,0,0,0-.11-.16c-2.07-1.84-2.74-4.34-3.44-7Zm6.66,12.73c-.95-1.27-1.87-2.55-2.79-3.83l-.64-.88.13.1a3.39,3.39,0,0,0,.6.44,19.76,19.76,0,0,0,2,.95,45.41,45.41,0,0,1,6.62,3.48c1.16.69,2.36,1.41,3.57,2.06l.45.24c.56.3,1.13.6,1.7.93l-1-.09-1.89-.12c-.85-.05-1.71-.1-2.56-.18a10.63,10.63,0,0,1-4.89-1.74A5.6,5.6,0,0,1,13.57,73.94Zm13.77,8.94a9,9,0,0,0-5.17-3.1,14.32,14.32,0,0,1-5.39-2.45,23,23,0,0,0,2.84.7c1.2.19,2.44.27,3.63.36l1.6.12A12.4,12.4,0,0,1,30.22,80l.85.49a28.6,28.6,0,0,1,6.82,4.86,21.39,21.39,0,0,1,1.44,1.77l.1.13a13.17,13.17,0,0,0-3-.67,15.16,15.16,0,0,1-2.44-.47A44.08,44.08,0,0,1,29,84.29,4.57,4.57,0,0,1,27.33,82.89Zm12,7.81c-1.59-.89-3.38-1.77-5.48-2.69a13.91,13.91,0,0,1-3-1.79c.24.08.49.15.73.21,1,.24,1.92.45,2.87.67s2,.46,3,.71a12.17,12.17,0,0,1,2.25.79,3.05,3.05,0,0,1,1.58,1.69c.28.71.58,1.42.87,2.12s.52,1.23.77,1.85A10.89,10.89,0,0,0,39.29,90.69ZM53.75,54.48c-1.43,4.17-5,20.14-7.18,29.68l-.71,3.14c-.08-.93-.17-1.87-.29-2.81s-.25-2-.38-3c.78-3.17,5.22-19,8.78-31.71l1.1-3.91,1,.35C54.92,50.28,54,53.78,53.75,54.48Zm-13.23-4a11.93,11.93,0,0,0-.63-3.11,12.25,12.25,0,0,0-1-1.86l-.24-.39a26.46,26.46,0,0,1-2.83-6.62l-.05-.19a5.59,5.59,0,0,0-1-2.21c.17-.12.34-.23.5-.35l.09.4a13.58,13.58,0,0,0,1.46,4.2A16.3,16.3,0,0,0,38,41.9c.29.36.58.72.84,1.1a21.2,21.2,0,0,1,1.29,2.23A26.3,26.3,0,0,1,42.63,51a23.49,23.49,0,0,1,.51,5.8A8.5,8.5,0,0,0,41,55.3C40.84,53.68,40.7,52.07,40.53,50.47ZM27.82,27.62l0,.07.25.53,0,.05ZM52.17,53.8l0-.12a76.74,76.74,0,0,0-4.7-10.62c.74.29,1.48.57,2.22.84l4.81,1.77-1.11,4Zm-.89-.57c-1.51-.7-2.09-2.07-2.75-3.63a16.1,16.1,0,0,0-1.13-2.33,27.66,27.66,0,0,0-7.29-8.12,13.86,13.86,0,0,1-1.76-1.48l1.39,1a40.77,40.77,0,0,0,4.15,2.77,26.54,26.54,0,0,0,2.59,1.24A82.94,82.94,0,0,1,51.28,53.23Zm-8.06,4.55.56.56v-.79a26.8,26.8,0,0,0-.52-6.74,26.83,26.83,0,0,0-2.53-5.9,21.65,21.65,0,0,0-1.34-2.29c-.27-.39-.57-.76-.86-1.13a15.63,15.63,0,0,1-1.1-1.5,12.91,12.91,0,0,1-1.38-4v0l.2.14a13.71,13.71,0,0,0,3.48,3.56,26.63,26.63,0,0,1,7.11,7.94,15.56,15.56,0,0,1,1.09,2.24c.77,1.84,1.5,3.58,3.8,4.24l.33.1c-2.85,10.15-5.89,21-7.09,25.58-.11-.88-.22-1.75-.34-2.63q-.4-3.05-.79-6.11c-.16-1.3-.38-3.51-.61-5.84-.29-2.95-.61-6.23-.88-8.23C42.6,57.17,42.87,57.43,43.23,57.79Zm22-27.92A25.24,25.24,0,0,1,61,32.22l-.34.07c-.83.18-1.67.34-2.52.5H58c-.44.08-.89.17-1.33.23a29.89,29.89,0,0,1-4.22.21H52A42.42,42.42,0,0,1,41,32.08,3.73,3.73,0,0,1,39,31a.9.9,0,0,1-.2-.82,1.48,1.48,0,0,1,1-.85,36.22,36.22,0,0,1,12.27-1.72h1.19C57.13,27.57,61.64,27.75,65.24,29.87ZM38.91,31.76a4.85,4.85,0,0,0,1.94,1,32.44,32.44,0,0,0,5.9,1c1.76.15,3.51.19,5.21.2a33.25,33.25,0,0,0,4.84-.22c1.33-.19,2.67-.47,4-.74l.38-.08h0l.39-.08a3.05,3.05,0,0,1,1.73,0,2.33,2.33,0,0,1,.77.52,4.23,4.23,0,0,1,.26.37l.09.14a2.43,2.43,0,0,0-1.63,1.08l-.39.62.72-.12a1.9,1.9,0,0,1,1.27.16c-2.61.35-5.26.59-7.88.73a45.44,45.44,0,0,1-4.65.05,29.17,29.17,0,0,1-6.66-1.12q-1.29-.62-2.73-1.19c-.86-.34-1.75-.67-2.7-1q-.63-.33-1.24-.69Q38.72,32.07,38.91,31.76ZM53.1,40.67l-.35-.34a28.07,28.07,0,0,0-5.18-3.83A29.79,29.79,0,0,0,51.8,37,46.46,46.46,0,0,0,56.52,37l.37,0-1.58,5.64A16.28,16.28,0,0,0,53.1,40.67ZM42.89,36.44A14.85,14.85,0,0,1,41.16,35c-.29-.27-.59-.53-.89-.79s-.48-.36-.72-.54l1,.51a29.84,29.84,0,0,0,4.36,1.66A30.39,30.39,0,0,1,50.08,39c-.43-.19-.87-.36-1.31-.5-.63-.21-1.28-.38-1.91-.54A13.67,13.67,0,0,1,42.89,36.44Zm2.23,1.69-.39-.07a7.2,7.2,0,0,1-1-.22A7.48,7.48,0,0,1,41,35.9c-.15-.15-.33-.3-.51-.45a5.33,5.33,0,0,1-1-1c.42.33.82.69,1.24,1.08A15.27,15.27,0,0,0,42.52,37h0A10.5,10.5,0,0,0,45.11,38.12Zm1.58.44c.62.16,1.26.33,1.87.53a15.47,15.47,0,0,1,4.17,2.15c.36.35.72.71,1.08,1.08L49.1,39.76a20,20,0,0,0-2.58-1.25Zm9.92,5.51-.28-.36c-.16-.2-.33-.38-.49-.57l1.75-6.26,1-.07ZM67.87,22.68a7,7,0,0,1-.54,1.22,7,7,0,0,1-.59.79l-.88,1.07-.34-1.12A16.77,16.77,0,0,1,65,22.5a15.83,15.83,0,0,1-.1-3.07,15,15,0,0,0,1.21-3.74l.25-1.11a11.57,11.57,0,0,0,.8,2.15l.71,1.57a1.82,1.82,0,0,0,1,1.11,1.07,1.07,0,0,0,.24,0ZM70,17.87c-.18.43-.6,1-1,.9-.27-.08-.44-.43-.59-.75l-.71-1.57a8.33,8.33,0,0,1-.86-2.68,7,7,0,0,1,.46-2.67c.24.09.47.19.71.26a10.25,10.25,0,0,0,2.64.41A14.25,14.25,0,0,1,70,17.87ZM65.23,4.36a.29.29,0,0,0,.13.11l.31.07.13-.27v0A.4.4,0,0,0,66.19,4a3.38,3.38,0,0,0-.1.41,5.32,5.32,0,0,1-.92.21,1.11,1.11,0,0,0,.06-.26ZM63.93,2.75c.23,0,.34-.12.44-.24,0,.29.06.78.07,1.11v.27l-.28.21a5.08,5.08,0,0,1-.26-1.33ZM41.25,13.17c1.75-1.87,4.52-2.71,7-3.36a62,62,0,0,1,8.17-1.64A31,31,0,0,1,60,7.95h.74a2.75,2.75,0,0,1,1,0,2.37,2.37,0,0,1,.2.85l-.21,0-.43-.09,0,.13-1,.1-.79.08-.06-.45c-1.79.24-3.58.46-5.37.68l-6.17.76.08.66,5.14-.64c-.43.11-.87.21-1.29.34C48.28,11.17,44.72,12.09,41.25,13.17ZM51,15.27a18.73,18.73,0,0,1-4.75.75,4.79,4.79,0,0,1,2-3.1A12.93,12.93,0,0,1,52,11.08l.17,0v0a41.29,41.29,0,0,1,8.18-1.37L61,9.59a5.91,5.91,0,0,1-2.46,2.46,19.3,19.3,0,0,1-2.75,1.19c-.52.19-1,.38-1.54.6s-.8.36-1.19.54A20.16,20.16,0,0,1,51,15.27Zm7.79,3.58a3.39,3.39,0,0,0,.92-1.63,7.76,7.76,0,0,1,1.65-2.89l-.49-.45A8.41,8.41,0,0,0,59.1,17c-.41,1.24-.64,1.43-1.92,2.05L54.62,20.3a13.89,13.89,0,0,1-1.52.66,8.12,8.12,0,0,1-2.18.4,24.14,24.14,0,0,1,.64-2.43,8.16,8.16,0,0,1,1.31-2.68,3.32,3.32,0,0,1,2.41-1.31v-.66a3.19,3.19,0,0,0-.46.07l1.25-.49a19.71,19.71,0,0,0,2.85-1.24,6.32,6.32,0,0,0,2.89-3.12l.39,0a.47.47,0,0,0,.39-.33,1.22,1.22,0,0,0,0-.46,2.42,2.42,0,0,0,.93.73l1.66.78c.5.24,1,.47,1.52.68l-.11.34-.19,0-1,4.38a14.14,14.14,0,0,1-1.18,3.65h0v.08l-.06.12c-1.18,2-3.4,3.28-5.32,4.28a27.78,27.78,0,0,1,.23-4.79Zm2.29,4.31a13.57,13.57,0,0,0,2.07-1.56L62,25.51l-.66,2.12c-.38-.09-.76-.17-1.14-.24.37-1.39.74-2.79,1.16-4.17ZM37.34,33.84c.25-.28.49-.56.72-.86.19.12.39.22.59.32l0,.32a1.58,1.58,0,0,0,.09.73A4.28,4.28,0,0,0,40,35.94c.17.15.33.29.48.43a8,8,0,0,0,3,2.1,7.88,7.88,0,0,0,1.11.24l.58.1a13.67,13.67,0,0,1,3.6,1.53l6.5,3.52,1.29,1.37c.24.25.47.5.69.77l-7.4-2.73a40.35,40.35,0,0,1-5.64-2.41,40.31,40.31,0,0,1-4.08-2.73l-4.83-3.52,1.39-.11C36.91,34.29,37.13,34.07,37.34,33.84ZM34.19,22.76h0c-.08.44-.2,1.13-.26,1.79h-.05A10.51,10.51,0,0,1,34.19,22.76ZM31,24.08a12.33,12.33,0,0,1,.45,1.15l.08.22,0,.07-.26-.8a2.42,2.42,0,0,0-.31-.73A.23.23,0,0,1,31,24.08ZM29.44,27l0,0c-.1-.3-.19-.6-.25-.86C29.24,26.39,29.34,26.68,29.44,27Zm-.82.62-.07.06-.11-.23c-.27-.56-.63-1.31-.81-1.82A19.73,19.73,0,0,1,28.62,27.57Zm-1.8-.86.13.4a1.46,1.46,0,0,1-.17-.37Zm-.14,2.81.18.22-.14.13c-.15-.27-.31-.58-.45-.86Zm-2-.2,0,0,.57.65.52.6-.19.16-.35-.35a6.1,6.1,0,0,1-.84-.93A1.15,1.15,0,0,0,24.69,29.32Zm0,1.42-.05,0c-.17,0-.21-.09-.2-.1a.81.81,0,0,0,0-.18Zm-.86.17,0,.09-.09,0Zm-1,2.51a.43.43,0,0,0,.1-.51c0-.13,0-.19,0-.2a.31.31,0,0,1,.12,0,11.3,11.3,0,0,1,1.39.35,3.31,3.31,0,0,0-.14.58,7.35,7.35,0,0,1-1.45-.16Zm-.87,22.84A28.71,28.71,0,0,1,17.53,61c-.64-5.07,1.59-10.22,3.4-14.39l.53-1.24a31.25,31.25,0,0,1,2.63-5.27A13.06,13.06,0,0,1,25.81,38,3.81,3.81,0,0,0,27,38.2c0,.05,0,.09,0,.15,0,1.51-1.18,3.77-2.15,5.59-.43.8-.83,1.55-1.1,2.18a42.3,42.3,0,0,1-4.51,8.42l.53.39a42.83,42.83,0,0,0,4.58-8.55c.26-.6.66-1.34,1.08-2.13a28.22,28.22,0,0,0,1.85-3.88,39.12,39.12,0,0,1-1.08,6l-.11.46A26.16,26.16,0,0,1,21.95,56.27Zm6.47,4.33a3.13,3.13,0,0,1-.69,1.85l-1.16-1.2h-.13a.59.59,0,0,0-.49.2,1.17,1.17,0,0,0-.22.83C24.8,59,25,55.43,25.16,52.23H25A29.74,29.74,0,0,0,26.72,47l.11-.46c.55-2.31,1.36-5.77,1.06-8.35A14.92,14.92,0,0,0,29.74,38a133.51,133.51,0,0,0-.4,19A19.3,19.3,0,0,0,28.41,60.6Zm3-5.75A5.37,5.37,0,0,0,31.38,56l-.27-.16a2.77,2.77,0,0,1-1.12.79,132.93,132.93,0,0,1,.43-18.77l1-.25a7.21,7.21,0,0,0,.18,1,48.49,48.49,0,0,1,1.16,7.08,20.71,20.71,0,0,1-.78,6.6C31.81,53.1,31.61,54,31.45,54.84ZM35,63.21c.09.39.12.84-.1.93a.4.4,0,0,1-.41-.2,2,2,0,0,1-.22-.77,15.27,15.27,0,0,0-1.13-3.44c-.67-1.61-1.31-3.12-1-4.76.16-.86.35-1.72.54-2.55l.21-.9a5.92,5.92,0,0,0,.13.61,6.13,6.13,0,0,0,1.69,2.51l-.55,0A31.45,31.45,0,0,0,35,63.21Zm.42-8.79a6.41,6.41,0,0,1-1.78-2.48,5.4,5.4,0,0,1-.13-.65l-.61.08a18.8,18.8,0,0,0,.56-5.78,49.51,49.51,0,0,0-1.17-7.17,6.51,6.51,0,0,1-.18-1,11.53,11.53,0,0,0,1.13-.4l.08,0a19.16,19.16,0,0,0,1.08,5.66c.27.92.56,1.88.76,2.82a36.76,36.76,0,0,1,.6,5,19.6,19.6,0,0,0,1.19,4A30.76,30.76,0,0,1,38,57.75a10.17,10.17,0,0,1-1-1.41A9.4,9.4,0,0,0,35.39,54.42Zm3,3.86.31,0a19.61,19.61,0,0,0-1.19-4,20,20,0,0,1-1.15-3.83,37.13,37.13,0,0,0-.61-5.09c-.21-1-.49-1.94-.77-2.87a18,18,0,0,1-1-5.58h-.44c.25-.12.51-.25.75-.39l0,0a5,5,0,0,1,.86,2l.05.19a27.17,27.17,0,0,0,2.9,6.78l.24.39a11.81,11.81,0,0,1,.94,1.76,11.08,11.08,0,0,1,.59,2.94c.37,3.4.65,6.87.84,10.31l-.91-1C39.36,59.34,38.88,58.8,38.43,58.28Zm6.81,50.25c-.13-1.4-.22-2.83-.31-4.21,0-.59-.07-1.19-.12-1.78q-.08-1.19-.15-2.38c-.1-1.69-.21-3.45-.38-5.17-.48-5-1-10.36-1.62-15.64l-.24-2.09c-.63-5.46-1.18-10.23-2-15.68a2.61,2.61,0,0,1,.31.41l.65-.09C41.33,60,41.2,58,41,56.09l.54.32c.29,1.85.65,5.57,1,8.85.23,2.34.45,4.56.61,5.86.26,2,.53,4.08.79,6.11.32,2.45.64,4.89.95,7.34.14,1.13.24,2.28.34,3.39,0,.47.09.93.13,1.4l-.12.51.17,0c0,.19,0,.38.05.57.16,1.44.32,2.88.49,4.32.24,2.05.47,4.11.68,6.17.24,2.38.4,4.78.51,6.6.22,3.68.47,7.84.65,11.93.06,1.44.1,2.89.13,4.34l-.19,0-.35.8.24.15.22.15.12.08c0,1.75.09,3.55.18,5.32.18,3.51.43,7.08.67,10.52l.19,2.72q.4,5.77.83,11.54c.18,2.42.38,4.84.58,7.27l.26,3.19c0,.44.08.89.12,1.33.1,1,.2,2,.21,3a15.68,15.68,0,0,1-.4,3.2c-.21,1-.47,2-.73,2.93l-.61-7.73q-.34-4.29-.68-8.57-.13-1.66-.26-3.31c-.25-3.14-.51-6.4-.69-9.6-.16-2.87-.27-5.8-.38-8.62-.08-2.19-.17-4.37-.27-6.56-.24-5-.47-9.19-.78-13.41-.14-1.92-.36-3.86-.56-5.74C45.5,111.14,45.36,109.83,45.24,108.52ZM27.06,120.2c1-.27,1.92-.53,2.88-.7a14.76,14.76,0,0,1,7.88.53,12.27,12.27,0,0,1,1.62.76l2.6,1.45a15.17,15.17,0,0,0-3.86-.49q-.86,0-1.76.09a11.68,11.68,0,0,1-3.36-.35l-.74-.15c-1.53-.29-3-.62-4.63-1l-.71-.16Zm-15.37,9.17a27.6,27.6,0,0,1,2.54-2.08c1.59-1.1,3.26-2.17,4.88-3.19l2.48-1.59a7.47,7.47,0,0,1,4.2-1.23,11.59,11.59,0,0,1,2.52.3c1.41.31,2.82.65,4.23,1l.59.14A30.44,30.44,0,0,0,28,125.1l-.55.3a6.55,6.55,0,0,1-2.17.55c-.31,0-.62.09-.93.15-.91.17-1.81.33-2.72.49-1.89.33-3.85.68-5.75,1.15a19,19,0,0,0-3.35,1.32l-.92.43Zm1.06.3a19.48,19.48,0,0,1,3.09-1.23c-1.18.43-2.33.92-3.46,1.41L12,130Zm-8.39,6.6L7,133.79a9.86,9.86,0,0,1,3.13-2.28c.86-.34,1.71-.71,2.57-1.08A29.27,29.27,0,0,1,20,128c1.3-.19,2.58-.36,3.88-.47L21.75,129c-2.78,1.92-5.66,3.9-8.5,5.83a3.6,3.6,0,0,1-1.74.64,39.18,39.18,0,0,0-7.21.85Zm4.38.58a32.67,32.67,0,0,1-6.56,1.79A12.69,12.69,0,0,1,8.75,136.84Z"/><path class="cls-1" d="M64.64,13.23a2.51,2.51,0,0,1,.9-2.47l-.4-.52A3.15,3.15,0,0,0,64,13.38Z"/><path class="cls-1" d="M76.42,18.21A11.77,11.77,0,0,1,79,23.94l.65-.1a12.44,12.44,0,0,0-2.73-6c-.21-.25-.42-.49-.64-.73a7,7,0,0,1-1.68-2.5l-.63.19A7.61,7.61,0,0,0,75.8,17.5C76,17.74,76.22,18,76.42,18.21Z"/><rect class="cls-1" x="67.94" y="13.58" width="3.15" height="0.66" transform="translate(49.79 82) rotate(-85.17)"/><path class="cls-1" d="M57.14,11.43l.64-.27a3.57,3.57,0,0,1,2.1-.47l.14-.65a4.13,4.13,0,0,0-2.49.51l-.61.25a12.86,12.86,0,0,1-2.09.54,13.37,13.37,0,0,0-2.23.58,13.27,13.27,0,0,0-1.92,1,11.73,11.73,0,0,1-2,1l.22.62A12.36,12.36,0,0,0,51,13.5a12.59,12.59,0,0,1,1.83-.95A12.62,12.62,0,0,1,54.94,12,13.59,13.59,0,0,0,57.14,11.43Z"/></g></g></svg>