<svg xmlns="http://www.w3.org/2000/svg" viewBox="0 0 167.22 221.58"><defs><style>.cls-1{fill:#fff;}</style></defs><title>אנאמרנה</title><g id="Layer_2" data-name="Layer 2"><g id="Expended"><path class="cls-1" d="M109.58,77.49c.2-1.8-1-2.3-1.87-2.63a3.42,3.42,0,0,1-.63-.3,3.71,3.71,0,0,1-.39-.35c-.64-.62-1.7-1.65-3.61-.08s-3.55,6.66-3.92,8.06l0,0c-.22.3-.09.72.08,1.3a6.12,6.12,0,0,1,.29,1.34,3.76,3.76,0,0,1-1.28,2.26,1.39,1.39,0,0,0-.81,0,27,27,0,0,1-.07-4.39,21.08,21.08,0,0,0-.18-5l1.63-10.32a2.53,2.53,0,0,1,.32-1,3.28,3.28,0,0,1,2.09-.89,5.31,5.31,0,0,0,1.62-.5l.11.23c.15-.07,3.8-1.75,5.13-4.25a1.24,1.24,0,0,0,.22-1c-.14-.46-.62-.66-1-.81l-.28-.12a1.52,1.52,0,0,1,0-.26,1.4,1.4,0,0,0-.58-1.15,2.1,2.1,0,0,0-1.85.21c-2.39,1.06-4,4.87-4.08,5l.3.13L99,64.56l-.15-.6a.2.2,0,0,1,.16.14,6.89,6.89,0,0,1,.21-1.19c.08-.37.18-.83.29-1.39A12.13,12.13,0,0,1,101.76,57l0,0a2.05,2.05,0,0,1,1.28-.69c.25-.07.53-.14.84-.25.48-.17.71-.41.67-.71a.58.58,0,0,0-.24-.36A13.18,13.18,0,0,0,106.59,52c1.14-1.82,2.66-6,1.51-7.49a1.63,1.63,0,0,0-1.95-.4,5.24,5.24,0,0,0-2.71,2.67,1.52,1.52,0,0,0-1.16-1.26,1.87,1.87,0,0,1-.33-.15,1.94,1.94,0,0,1-.2-.18A1.38,1.38,0,0,0,100,44.8c.13-.47.26-.95.41-1.4a13.63,13.63,0,0,0,1.68.53,3.91,3.91,0,0,0,3.23-.27,2.13,2.13,0,0,0,.86-1.84,1.48,1.48,0,0,0-.78-1.27,3.36,3.36,0,0,0-1.61-.22c-.8,0-1.15,0-1.25-.35a1.28,1.28,0,0,1,.27-.86l.15-.27a1.7,1.7,0,0,0,.17-.65.72.72,0,0,0,.22-.15.62.62,0,0,0,.21-.43l.05.05c.14-.13,3.43-3.26,3.64-5.11a1.7,1.7,0,0,0-1.33-1.89,2.23,2.23,0,0,1-.4-.19,2.34,2.34,0,0,1-.25-.22,1.65,1.65,0,0,0-2.58-.06c-1.34,1.11-2.4,4.46-2.67,5.46h0c-.18.25-.08.57,0,1a4.08,4.08,0,0,1,.19.87,2,2,0,0,1-.59,1.18,3.63,3.63,0,0,1-.51-2.53,11.74,11.74,0,0,1,.61-2.24c.1-.3.21-.6.3-.91a22.7,22.7,0,0,0,.81-4.2,2.15,2.15,0,0,0,1-.82l.27.32c.88-.73,1.51-.4,1.52-.4s.29.15,1,.13a.72.72,0,0,0,.7-.35.58.58,0,0,0,0-.36,19.85,19.85,0,0,1,2-.4.94.94,0,0,0,.86-.82,1.68,1.68,0,0,0-1.15-1.66,2.55,2.55,0,0,0-2.46.73.4.4,0,0,0-.2,0,.44.44,0,0,0,.07-.29.49.49,0,0,0-.06-.17,8,8,0,0,0,1.12-1.32,3.12,3.12,0,0,0,.3-.53h0a1.09,1.09,0,0,0,0-.14A1.81,1.81,0,0,0,105.8,21,4.29,4.29,0,0,0,107,19.4a1.17,1.17,0,0,0-.12-1,.92.92,0,0,0,.73-.78,1.68,1.68,0,0,0-1.15-1.66,2.54,2.54,0,0,0-2.47.73.38.38,0,0,0-.2,0,.44.44,0,0,0,.07-.29.48.48,0,0,0-.06-.17A8,8,0,0,0,105,14.88a3.11,3.11,0,0,0,.31-.53h0a1.09,1.09,0,0,0,0-.14,1.81,1.81,0,0,0-.09-1.68,4.3,4.3,0,0,0,1.24-1.65,1.27,1.27,0,0,0-.73-1.55,1.51,1.51,0,0,1-.23-.16,1.4,1.4,0,0,1-.13-.17,1.24,1.24,0,0,0-1.88-.37c-1.08.63-2.18,2.78-2.48,3.45a.47.47,0,0,0-.11.24,2.14,2.14,0,0,1-.32-.21A.57.57,0,0,0,100,12a.38.38,0,0,0-.2.23.44.44,0,0,0-.2-.23.48.48,0,0,0-.18,0A8.08,8.08,0,0,0,99,10.26a3.12,3.12,0,0,0-.27-.55l0,0s-.07-.07-.1-.1A1.79,1.79,0,0,0,97,8.71a.69.69,0,0,0-.58.28.94.94,0,0,0-.89.08c-.41.29-.53.89-.35,1.77A3.16,3.16,0,0,0,95.7,12a1.47,1.47,0,0,0-1-.14,1,1,0,0,0-.65.95,2.79,2.79,0,0,0,.82,1.9.82.82,0,0,0-.17.09c-.41.29-.53.89-.35,1.77a3.17,3.17,0,0,0,.48,1.13,1.51,1.51,0,0,0-1-.15,1,1,0,0,0-.65.95,3.29,3.29,0,0,0,1.19,2.32.54.54,0,0,0-.34.23.94.94,0,0,0-.89.08c-.41.29-.53.89-.35,1.77A3.17,3.17,0,0,0,93.33,24a1.49,1.49,0,0,0-1-.16,1,1,0,0,0-.65.95c-.14,1.67,2.55,3.53,3.36,4A.38.38,0,0,0,95,29c0,.23.24.31.52.43.54.22.72,0,1.14.2l.18.09c-.36,1.23-.76,2.48-1.26,3.79l.62.23c.47-1.24.86-2.44,1.21-3.62a.92.92,0,0,1,.28.35l.33,0,.33,0a1,1,0,0,0-.31-.71.59.59,0,0,0,.26-.33,2.13,2.13,0,0,0,0-1.63l.42,0A1.71,1.71,0,0,1,99,26.62a1.63,1.63,0,0,0,.28.62,1.14,1.14,0,0,1,.2.41A2.12,2.12,0,0,1,99.37,29l.17.28.16.29a1,1,0,0,0,.41-.65.38.38,0,0,0,.1,0,21.57,21.57,0,0,1-.76,3.89c-.09.3-.19.59-.3.89a12.41,12.41,0,0,0-.64,2.37,4,4,0,0,0,.72,3.08l0,0,.43.5.17-.16A6,6,0,0,0,102,38.35l.46,0h0a1,1,0,0,1-.07.23l-.14.25a1.77,1.77,0,0,0-.33,1.37c.25.87,1.17.85,1.9.83a2.89,2.89,0,0,1,1.3.15.84.84,0,0,1,.42.72,1.46,1.46,0,0,1-.58,1.25,3.31,3.31,0,0,1-2.7.18,13,13,0,0,1-1.91-.63l-.33-.14-.11.33c-.29.86-.56,1.76-.8,2.68a13.71,13.71,0,0,0-1.88,4.22c-.17.23-.08.52,0,.86a3.35,3.35,0,0,1,.16.73c0,.42-.53,1.06-.89,1.37l.35.4a1.07,1.07,0,0,0-.17.73l.3-.14h0l.31.07a3.41,3.41,0,0,1,.54-1,58.76,58.76,0,0,0,.21,12.77l.08.61L101.83,63l-.23,1.37,1.17-.13c-.25.35-.84.49-1.68.65A3.75,3.75,0,0,0,98.59,66a3.07,3.07,0,0,0-.43,1.32L96.52,77.75l.33.05-.32.09a20.5,20.5,0,0,1,.17,4.84,20.34,20.34,0,0,0,.19,5l.16.59.4-.46a.65.65,0,0,1,.66-.15h0l.18.21.09-.08a.59.59,0,0,1,.16.16,10,10,0,0,0-2.95,6c-.08.73.16,1.26.63,1.41.11.75.21,1.54.3,2.34l.66-.07c-.09-.85-.19-1.68-.31-2.47l.06-.09a.74.74,0,0,0-.12-.86.45.45,0,0,0-.56,0,1.81,1.81,0,0,1,0-.19A9.32,9.32,0,0,1,98.53,89h0l.31.06a3.41,3.41,0,0,1,.24-.64l.05-.05.14-.13,0-.14a8.47,8.47,0,0,1,.87-1.28,2.89,2.89,0,0,1,2.39-.94,1.91,1.91,0,0,0,1.32-.36.71.71,0,0,0,.25-.67.61.61,0,0,0,0-.07l.17.18C104.43,84.78,109.28,80.17,109.58,77.49ZM97.63,26.25a2,2,0,0,1-.23-.87,2.17,2.17,0,0,0,.37.77c0,.09,0,.18-.06.26Zm-2.08-.76h0a1.2,1.2,0,0,1,.65-.25,1.12,1.12,0,0,0,.56-.25,3,3,0,0,0,.16,1.25,4.71,4.71,0,0,0-1.14-.68A.91.91,0,0,0,95.55,25.49Zm.9-1.15a.48.48,0,0,1-.38.25,2.41,2.41,0,0,0-.78.27,4.21,4.21,0,0,1-1.25-1,5.88,5.88,0,0,1-.1-.8l.09.2c.09.2.2.45.49.39s.27-.37.27-.48a1.42,1.42,0,0,0-.06-.35l.17.14c.19.16.41.33.64.14s.08-.46,0-.59a2.14,2.14,0,0,0-.75-.67l-.1-.06a1.47,1.47,0,0,1,.63,0,.82.82,0,0,1,.36.2,2.4,2.4,0,0,1,.27.52,4.9,4.9,0,0,1,.44,1.81h0l0,0ZM97,24a6.16,6.16,0,0,0-.21-.92l.25.11a1.47,1.47,0,0,0,.44.11,4.26,4.26,0,0,0,0,.79.39.39,0,0,0-.12.17.45.45,0,0,0-.2-.23A.49.49,0,0,0,97,24ZM95.1,15.3a.32.32,0,0,1,.32,0,.44.44,0,0,0,0,.29h0a.36.36,0,0,0-.1.17h0A.47.47,0,0,0,95,16s0,0,0,.06C94.93,15.61,95,15.38,95.1,15.3ZM103.66,12l-.38.31-.1,0h0v0A1.14,1.14,0,0,1,103.66,12Zm-6.58,7.14h0a1.21,1.21,0,0,1,.65-.25,1.12,1.12,0,0,0,.57-.25,3,3,0,0,0,.16,1.25,4.76,4.76,0,0,0-1.14-.68A.91.91,0,0,0,97.08,19.16ZM98,18a.48.48,0,0,1-.38.25,2.41,2.41,0,0,0-.78.27,4.21,4.21,0,0,1-1.25-1,5.73,5.73,0,0,1-.1-.8l.09.21c.09.2.2.45.49.39s.27-.38.27-.48a1.43,1.43,0,0,0-.06-.35l.17.14c.19.16.41.33.64.14a.32.32,0,0,0,.09-.13l.26.17a.37.37,0,0,0,0,.21c0,.22.21.3.47.41a2.27,2.27,0,0,1,.07.55h0l0,0Zm5.83.24a1.61,1.61,0,0,0,.21.45l0,0-.08.14a3.27,3.27,0,0,1-.5,0h0l-.09,0A6.44,6.44,0,0,1,103.82,18.25Zm-2.72-2.4a1.91,1.91,0,0,0,0,.33,4.37,4.37,0,0,1,.07.54c-.22.5-.43,1-.57,1.4l0-.07.06-.08a.46.46,0,0,0,0-.45h0a2.13,2.13,0,0,0,0-1.63Zm-1,3.84-.05-.06a5.21,5.21,0,0,0,0-.52.9.9,0,0,1,.07-.36,1.77,1.77,0,0,0,.65.13h.11A1.61,1.61,0,0,1,100,19.69Zm.64,1.08,0,0a1.58,1.58,0,0,0-.32-.13,1.17,1.17,0,0,1,.44-.61.57.57,0,0,0,.22-.15l-.06.77A1.39,1.39,0,0,0,100.69,20.77Zm-.54-3.67h0l-.29-.23c.07-.25.14-.5.22-.74A1.52,1.52,0,0,1,100.15,17.11Zm.39,5.67a1,1,0,0,0,0-.91,1.81,1.81,0,0,1,.16-.24l.14.14-.08,1-.13.09-.21.12Zm3.3-1.94-.1,0h0v0a1.13,1.13,0,0,1,.5-.27ZM103,19.37l.09,0a.91.91,0,0,0,.51.13l-.1.18c-.14.27-.25.5-.34.71s-.16.13-.24.21a3.05,3.05,0,0,0-.43.57c-.13-.09-.24-.19-.22-.29l0-.18,0-.05A14.88,14.88,0,0,1,103,19.37ZM101.42,15,101.2,15a1.32,1.32,0,0,1,.22-.4c0,.16,0,.3,0,.43Zm-.29.61a.69.69,0,0,0,0,.14c0-.05,0-.1,0-.14Zm-2.94,7.71h0l0,.18C98.18,23.46,98.18,23.4,98.19,23.34ZM99,22a1.21,1.21,0,0,1,.26-.06,1.5,1.5,0,0,1,0,.84h0l-.34-.26Zm1,2.11V24c.14-.35.29-.71.44-1l.07.23,0,.11A5.52,5.52,0,0,1,100,24.13Zm1.39-.45a2.77,2.77,0,0,1,.23-.3,5.76,5.76,0,0,1-.24,1l-.06.17Zm1.48-1.55,0,0h-.07Zm2-2.19-.07.06a.82.82,0,0,0-.18-.1.9.9,0,0,0-.42,0l.23-.41a.59.59,0,0,0,.37-.28.58.58,0,0,0,0-.36l.91-.21A4.29,4.29,0,0,1,104.83,19.95Zm-.19-1.77-.12-.13-.06.06a2,2,0,0,1-.09-.37l0,0c.62-.36.77-.15,1,.18l.06.08Zm-1.39-.29a.88.88,0,0,1,.24-.25Zm-1.63,2.64.07-.82a2.16,2.16,0,0,1,.51-.29C101.95,19.87,101.74,20.27,101.62,20.53Zm.78-2.39-.29.15.16-.3a2,2,0,0,1,.59-.68A2.33,2.33,0,0,0,102.41,18.13Zm-.52-.77.05-.65.13-.27a1.12,1.12,0,0,0,.11-.32l.11.1a1.12,1.12,0,0,0,.52.33A3,3,0,0,0,101.89,17.37Zm.41-3.73,0,0h0Zm-3.89,3.1a1.86,1.86,0,0,0,.25-.29,1.51,1.51,0,0,0,.26.5l-.49,0,0-.15Zm-1.76-1.31.25,0a.81.81,0,0,1,.35.19,2.31,2.31,0,0,1,.2.38C97.19,15.86,96.92,15.65,96.64,15.43Zm1.82,5.38q0,.39-.08.78l0,0a1.76,1.76,0,0,0-.11-.35A.51.51,0,0,0,98,21a6.45,6.45,0,0,0-.5-.91A5.34,5.34,0,0,1,98.46,20.81Zm-.91,1.62a1.82,1.82,0,0,0,.25-.29l0,.05a2.09,2.09,0,0,0-.18.42.89.89,0,0,1-.25,0Zm1.25,1.39v-.11a1.39,1.39,0,0,1,.41.45l-.15.39a1.56,1.56,0,0,1-.37-.11C98.74,24.23,98.78,24,98.81,23.82Zm1.11,2.1c0-.08,0-.16,0-.25h0a.77.77,0,0,0,.14-.67,5,5,0,0,0,.58-.62l-.13,1.58a1.16,1.16,0,0,1-.49,0Zm1.8.51A2.4,2.4,0,0,1,101,28c0-.45.08-.9.12-1.34a1.27,1.27,0,0,0,.11-.14.5.5,0,0,0,.07-.39,6.45,6.45,0,0,0,.47-.93A5.33,5.33,0,0,1,101.71,26.42Zm.63-1.86c0-.16,0-.23-.07-.23h0a1.23,1.23,0,0,1,.57.39,1.12,1.12,0,0,0,.52.33,3,3,0,0,0-.94.84A4.75,4.75,0,0,0,102.35,24.56Zm.62,2.08-.29.15.16-.3a2,2,0,0,1,.59-.68A2.34,2.34,0,0,0,103,26.64Zm1.64.74a3.06,3.06,0,0,1-.58,0h0a1.57,1.57,0,0,0-.66-.18l0,0,.13-.07,0-.15a1.47,1.47,0,0,1,.51-.83l.16-.1a2.29,2.29,0,0,0,.35,1.18,1,1,0,0,1,.1.17Zm2.22-2.32a1,1,0,0,1,.75,1c0,.09-.06.22-.29.25a21.32,21.32,0,0,0-2.21.45,2,2,0,0,1-.17-.92C105.25,25.46,106.13,24.78,106.82,25.06Zm-3.07-.67h0v0h0a.48.48,0,0,1-.42-.17,2.43,2.43,0,0,0-.66-.49,4.38,4.38,0,0,1,0-1l.31,0a1,1,0,0,0,.76-.09.57.57,0,0,0,.2-.24v0l.07-.05c0,.23,0,.46.25.53h.1c.22,0,.33-.22.39-.34a1.85,1.85,0,0,0,.13-.85l.13-.11a1.41,1.41,0,0,1,.22.36.8.8,0,0,1,0,.4A2.42,2.42,0,0,1,105,23,4.87,4.87,0,0,1,103.75,24.39Zm2.66-5.17a3.9,3.9,0,0,1-1.13,1.41.49.49,0,0,0-.13,0v0l.16-.16a4.82,4.82,0,0,0,1.06-1.67A.54.54,0,0,1,106.41,19.22Zm-.15-2.67a1,1,0,0,1,.75,1c0,.09-.06.22-.29.25l-.43.07a1.27,1.27,0,0,1-.2-.14,1.42,1.42,0,0,1-.13-.17,1.24,1.24,0,0,0-1.11-.63A1.59,1.59,0,0,1,106.26,16.55Zm-3.07-.67v0h0a.48.48,0,0,1-.42-.17,2.48,2.48,0,0,0-.66-.49c0-.06,0-.16,0-.27l.06-.7.27,0a1,1,0,0,0,.76-.09.57.57,0,0,0,.2-.24v0l.07-.05c0,.23,0,.46.25.53h.1c.22,0,.33-.22.39-.34a1.85,1.85,0,0,0,.13-.85l.13-.11a1.41,1.41,0,0,1,.22.36.81.81,0,0,1,0,.4,2.42,2.42,0,0,1-.28.52A4.89,4.89,0,0,1,103.19,15.88Zm2.66-5.17a3.86,3.86,0,0,1-1.11,1.4.35.35,0,0,0-.14,0v0l.16-.16a4.82,4.82,0,0,0,1.06-1.67A.54.54,0,0,1,105.85,10.71Zm-2-1.49c.62-.36.77-.15,1,.18a2.13,2.13,0,0,0,.2.25,1.35,1.35,0,0,0,.2.14,3.93,3.93,0,0,1-1,1.65l-.07.06a.83.83,0,0,0-.18-.1.91.91,0,0,0-.42,0,9,9,0,0,1,.8-1.33L104,9.54a7.58,7.58,0,0,0-1,1.66c-.14.27-.25.5-.34.71s-.16.13-.24.21a2.9,2.9,0,0,0-.22.28l-.42,0,0-.14,0-.05A8.39,8.39,0,0,1,103.84,9.22Zm-3.42,3.59a2.86,2.86,0,0,0,.54.26,1.89,1.89,0,0,1,0,.35.82.82,0,0,1-.22.39,1.35,1.35,0,0,1-.33-.81Q100.41,12.9,100.41,12.81Zm-.21,1.41v.06l-.12.08h0l-.07-.13a2,2,0,0,1-.23-.87A2.33,2.33,0,0,0,100.21,14.21Zm-.56,1.27a1.77,1.77,0,0,0-.4.6l0-.08a2,2,0,0,0-.13-.44c0-.07-.12-.25-.29-.29a6.48,6.48,0,0,0-.5-.9,5.32,5.32,0,0,1,1,.75A3.72,3.72,0,0,1,99.65,15.48Zm-.36-1.25a4.72,4.72,0,0,0-1.14-.68.91.91,0,0,0-.21-.08h0a1.21,1.21,0,0,1,.65-.25,1.12,1.12,0,0,0,.57-.25A3,3,0,0,0,99.28,14.23Zm-.49-1.94,0,0h0a.48.48,0,0,1-.38.25,2.41,2.41,0,0,0-.78.27,4.16,4.16,0,0,1-1.25-1,5.74,5.74,0,0,1-.1-.81l.09.21c.09.2.19.46.49.39s.27-.37.27-.48a1.43,1.43,0,0,0-.06-.35l.17.14c.19.16.41.33.64.14s.08-.46,0-.59a2.15,2.15,0,0,0-.75-.67l-.1-.06a1.54,1.54,0,0,1,.63,0,.82.82,0,0,1,.35.19,2.41,2.41,0,0,1,.27.53,4.88,4.88,0,0,1,.44,1.81ZM95.95,9.62a.32.32,0,0,1,.32,0,.45.45,0,0,0,0,.08.46.46,0,0,0,.05.21h0a.36.36,0,0,0-.1.17h0a.47.47,0,0,0-.35.18s0,0,0,.06C95.77,9.92,95.85,9.69,95.95,9.62Zm-1,2.84c.52-.14,1.91,1,2.55,1.83a6,6,0,0,1,.82,1.44,1.5,1.5,0,0,1-.13.26l0,0a3.19,3.19,0,0,0-.26-.55h0s-.07-.06-.09-.1a1.76,1.76,0,0,0-1.6-.88.88.88,0,0,0-.5.18,2.63,2.63,0,0,1-1-1.75C94.75,12.61,94.81,12.49,94.91,12.46Zm-.85,5.69c.5-.13,1.91,1,2.55,1.83a6,6,0,0,1,.82,1.44,1.23,1.23,0,0,1-.33.51L97,22c-.28-.17-.65-.43-1-.73a1.92,1.92,0,0,0-.36-.29c-.91-.76-1.81-1.71-1.74-2.47C93.91,18.3,94,18.18,94.06,18.15Zm-.49,3.49a.32.32,0,0,1,.31,0,.44.44,0,0,0,0,.29h0a.36.36,0,0,0-.1.17h0a.47.47,0,0,0-.35.18s0,0,0,.06C93.4,21.94,93.47,21.71,93.57,21.64Zm-1.21,3.21c0-.22.08-.34.17-.37.5-.13,1.9,1,2.55,1.83a6,6,0,0,1,.82,1.44,1.24,1.24,0,0,1-.33.51l-.07.07C94.51,27.72,92.26,26,92.36,24.85Zm3.52,4,.15-.14a1.76,1.76,0,0,0,.25-.29,1.51,1.51,0,0,0,.26.5A2.64,2.64,0,0,1,95.88,28.89Zm1-.87a2,2,0,0,0-.13-.44.58.58,0,0,0-.28-.28,6.43,6.43,0,0,0-.5-.91,5.32,5.32,0,0,1,1,.75,3.54,3.54,0,0,1,.49.55c-.08.33-.15.65-.23,1A1,1,0,0,1,96.85,28Zm.94,1s0,.09,0,.13h0Zm.71-2.78v0l0-.15,0-.05c.05-.29.09-.58.14-.87a2,2,0,0,0,.6.12h0c0,.09,0,.17,0,.25a2.14,2.14,0,0,1-.23.3A1.55,1.55,0,0,0,98.5,26.21Zm1.49.91a2.37,2.37,0,0,0-.15-.25,1,1,0,0,1-.17-.34l.2,0a1.84,1.84,0,0,0,.38,0A1.53,1.53,0,0,0,100,27.12Zm.85,10.93a1.52,1.52,0,0,0,.09-.6,3.41,3.41,0,0,0-.09-.57,3.32,3.32,0,0,0,.62.26l.2.06.4.13a5.18,5.18,0,0,1-.38.39A2.26,2.26,0,0,0,100.84,38.05Zm5.77-5.58c-.14,1.3-2.4,3.71-3.35,4.62a2.61,2.61,0,0,0-.45-.21A12.3,12.3,0,0,0,105,34.33a6.59,6.59,0,0,0,1.13-2.82A.87.87,0,0,1,106.61,32.48Zm-3.48-1.78c.91-.75,1.27-.39,1.7,0a3,3,0,0,0,.33.29,2.08,2.08,0,0,0,.39.19,5.65,5.65,0,0,1-1,2.76,12.32,12.32,0,0,1-1.78,2.13,9.46,9.46,0,0,1,.48-2,13,13,0,0,1,.92-2.36l-.52-.41a11,11,0,0,0-1,2.56,7.18,7.18,0,0,0-.52,2.73l-.19-.06-.2-.06c-.86-.27-.84-.56-.83-.65v-.21l-.08-.08C101.09,34.4,102.06,31.59,103.13,30.7Zm.47,24.68c-.3.1-.56.17-.79.24a2.55,2.55,0,0,0-1.75,1.08l.06,0a13.65,13.65,0,0,0-.85,1.26,4.07,4.07,0,0,0,.55-1.75,4.63,4.63,0,0,0-.36-1.26c-.16-.43-.47-1.24-.34-1.42a.27.27,0,0,1,.18,0c.49,0,.62.25.82.61a1.48,1.48,0,0,0,1.24.92,4.34,4.34,0,0,1,1.34.29Zm2.74-10.63c.89-.27,1.15.06,1.23.17.81,1.06-.35,4.83-1.54,6.73a11.29,11.29,0,0,1-2.42,3l-.27-.07a7.74,7.74,0,0,0,2.54-6.26l-.66.05a7.06,7.06,0,0,1-2.63,6l.08.1-.27,0a.72.72,0,0,1-.62-.43C101.87,53.45,103.29,45.68,106.34,44.75Zm-3.57,2.34c-.12,1.07-2,3.07-2.79,3.85l-.27-.13a10.49,10.49,0,0,0,1.84-2.12,5.74,5.74,0,0,0,1-2.31A.68.68,0,0,1,102.78,47.09Zm-4.06,4.07.71.24h-.17a4.38,4.38,0,0,0-.57.06C98.7,51.37,98.71,51.26,98.72,51.16Zm1.21-5.52c.73-.6,1-.34,1.36,0a2.57,2.57,0,0,0,.28.25,1.7,1.7,0,0,0,.3.15,4.77,4.77,0,0,1-.87,2.27A10.44,10.44,0,0,1,99.61,50,8.59,8.59,0,0,1,100,48.5a11.32,11.32,0,0,1,.77-2l-.52-.41a9.53,9.53,0,0,0-.88,2.18,6.5,6.5,0,0,0-.44,2.25l-.09,0h0a44,44,0,0,1,.91-4.66A2,2,0,0,1,99.93,45.64Zm-1.74,4.6c-.13-.09-.19-.18-.19-.28v-.2l-.06-.06a18.5,18.5,0,0,1,.65-1.84C98.43,48.64,98.3,49.43,98.18,50.24Zm-.15.67.05,0c0,.06,0,.13,0,.19S98,51,98,50.91Zm.58,1.25a2.75,2.75,0,0,1,.68-.09,1.2,1.2,0,0,0,.84-.25.59.59,0,0,0,.18-.35l0,0a20.11,20.11,0,0,0,2-2.17,30,30,0,0,0-1.07,3.89,1.39,1.39,0,0,0-.94-.35.81.81,0,0,0-.73.31c-.33.47,0,1.23.26,2a4.49,4.49,0,0,1,.32,1,5.76,5.76,0,0,1-1.77,3.16l.4.53A5.53,5.53,0,0,0,100,58.52a10.45,10.45,0,0,0-1.1,2.87c-.11.56-.21,1-.29,1.38l-.06.28A56.87,56.87,0,0,1,98.61,52.16Zm0,12.42a.56.56,0,0,0,.19,0h.09l-.26.22C98.66,64.75,98.66,64.67,98.65,64.58Zm2.77-2.1c.56-1.11,1.84-3.32,3.43-4,.81-.36,1.13-.3,1.26-.23s.21.36.24.61A4.48,4.48,0,0,0,103.57,60a7,7,0,0,0-1.67,1.77l.21.1Zm1,1.13.31-1.81a11.41,11.41,0,0,1,1.3-1.28,3.76,3.76,0,0,1,2.43-1v-.21a.62.62,0,0,0,.08.17.73.73,0,0,0,.2.16l-.37-.1a7.11,7.11,0,0,1-1.78,2.31,3.57,3.57,0,0,1-1.29.84l-.08.65h.06c.21,0,.73-.13,1.74-1a7.67,7.67,0,0,0,2-2.58l.11.05c.24.1.54.23.59.4s0,.28-.16.5a10.55,10.55,0,0,1-4,3.55,1.53,1.53,0,0,0,.07-.37l0-.39ZM98.9,87.45l0,0,.18-.2Zm10-10c-.26,2.38-4.86,6.8-5.12,7.05a3.78,3.78,0,0,0-1-.46,17.31,17.31,0,0,0,3.51-3.95A9.39,9.39,0,0,0,108,75.7,1.49,1.49,0,0,1,108.92,77.42Zm-5.42-2.78c1.45-1.2,2.08-.59,2.73,0a4.23,4.23,0,0,0,.46.41,3.26,3.26,0,0,0,.64.32,8.43,8.43,0,0,1-1.59,4.28,18,18,0,0,1-3,3.45,12.25,12.25,0,0,1,.74-3.37,18.48,18.48,0,0,1,1.39-3.55l-.52-.41a16.68,16.68,0,0,0-1.5,3.75c-.91,2.72-.81,3.88-.73,4.23l-.52-.17-.3-.09C100,83.1,100,82.61,100,82.42a.41.41,0,0,0-.1-.34l0,0C100.37,80.29,101.84,76,103.5,74.64Zm-.13,10.44a1.76,1.76,0,0,1-.88.16,3.58,3.58,0,0,0-2.78,1.08,2.69,2.69,0,0,0,.46-1.51,5.77,5.77,0,0,0-.25-1.23,3.85,3.85,0,0,0,1.23.6l.3.09a11.45,11.45,0,0,1,2,.72A.31.31,0,0,1,103.37,85.08Z"/><path class="cls-1" d="M51.8,78.88l-.49-1.38c-.63-1.8-1.29-3.65-2-5.45C45.77,63.17,40.52,55.16,35,47.5q-2.53-3.94-5.28-7.75l-.19-.27c-1.37-1.9-3.25-4.51-5.65-5.08L23,34.22l.46.7a17,17,0,0,0,2.81,2.93,20.78,20.78,0,0,1,2.76,2.8c1.79,2.38,3.59,4.79,5.36,7.23A251.81,251.81,0,0,1,51.19,79.13c.51,1.43,1,2.88,1.61,4.3,1.33,3.3,3,6.55,4.52,9.7l.14.29c2.19,5.18,4.32,10.37,6.42,15.52l.63-.21c-1.44-5.46-4-10.61-6.45-15.58C56,88.38,54,83.61,51.8,78.88ZM26.74,37.35c-.71-.64-1.39-1.25-2-1.87a10.79,10.79,0,0,1,3,2.84C27.46,38,27.1,37.67,26.74,37.35Zm14.15,20a91.4,91.4,0,0,1,7.8,14.93C46.24,67.22,43.66,62.22,40.89,57.34Z"/><path class="cls-1" d="M94.38,71.51,95,73.17l.47-5.71a2.81,2.81,0,0,1,.5.89.42.42,0,0,1,0,.12.15.15,0,0,1,.06-.1h0l.08.32L96,68.36l.18.63a.55.55,0,0,0,.35-.27.76.76,0,0,0,0-.59,3.52,3.52,0,0,0-.14-.35l.42.45.47-.46c-.33-.34-.62-.66-.91-1s-.53-.6-.84-.91l.06-.76c.2-2.39.26-5.81-1.46-7.91a4.78,4.78,0,0,0-.55-.55c0-.16-.07-.3-.1-.44h0L93.49,56a3.11,3.11,0,0,0-1.11-1.87l-.15-.08a10.74,10.74,0,0,0-2.51-1.86,3.57,3.57,0,0,1-1-.7.28.28,0,0,1,0-.27,2.85,2.85,0,0,1,1.76-1A2.2,2.2,0,0,0,92,49.13a3,3,0,0,1,.24-.36l.11-.11a1.56,1.56,0,0,1,0,.57,6.51,6.51,0,0,0,.88,4.15c.21.32.41.64.59.93.62,1,.89,1.46,1.29,1.4a.45.45,0,0,0,.36-.34h0A34.57,34.57,0,0,0,97.59,45.3l.47-.39c-.14-.17-.28-.36-.42-.55a28.78,28.78,0,0,0-.55-6.53c-.58-2.88-.91-3-1.07-3l-.36.13c-.32.41.41,2.11.73,2.74l.05.26A27.89,27.89,0,0,1,97,43.44c-.17-.25-.34-.49-.51-.77a12.86,12.86,0,0,1-1.79-3.84c-.09-.32-.19-.66-.33-1A1.65,1.65,0,0,1,94.54,36c.1-.06.26-.23.5-1a.82.82,0,0,0,0-.76,6.26,6.26,0,0,0,.85-1.93,2.5,2.5,0,0,0,0-2,1.86,1.86,0,0,0-1.25-.8,1.53,1.53,0,0,0-1.86,1.12h0a2.29,2.29,0,0,0-.47.39c-.81.9-.39,2.27-.15,2.87a.48.48,0,0,0-.09.36.49.49,0,0,0-.34-.31.46.46,0,0,0-.22,0,8.91,8.91,0,0,0-1-1.71A3.46,3.46,0,0,0,90,31.8l0,0a1.13,1.13,0,0,0-.14-.08A2,2,0,0,0,88,31.2c-.15.05-.49.2-.53.47a1,1,0,0,0-.94.32c-.36.42-.31,1.09.13,2a3.54,3.54,0,0,0,1,1.18,1.77,1.77,0,0,0-1.23.07,1,1,0,0,0-.42,1.17c.31,1.85,3.82,3.11,4.8,3.43a.39.39,0,0,0,0,.25c.1.22.32.25.66.3a1.86,1.86,0,0,0,.77-.06,1.32,1.32,0,0,1,.52-.05,2.34,2.34,0,0,1,1.39.65A24.48,24.48,0,0,0,96,44.4c.33.55.58,1,.64,1.09l.3-.14a33.84,33.84,0,0,1-2,9.51c-.16-.23-.38-.58-.57-.89s-.38-.62-.6-.95A5.83,5.83,0,0,1,93,49.32c.11-.89-.16-1.2-.39-1.31a.62.62,0,0,0-.59.08,15.54,15.54,0,0,0-1.41-4.17,7.2,7.2,0,0,0-.67-1.17l0,0a2.06,2.06,0,0,0-.37-.39,3.63,3.63,0,0,0-3.33-1.39c-.22,0-1,.19-1,.63a1.8,1.8,0,0,0,0,.31v0L85,41.8a1.82,1.82,0,0,0-1.94.16c-.52.44-1,1.44-.33,3.73,1,3.45,4.46,5,5.31,5.35a.93.93,0,0,0,.06.81,3.37,3.37,0,0,0,1.24.95,14,14,0,0,1,1.55,1,4.77,4.77,0,0,0-.72.09,2.21,2.21,0,0,0-1.73,2.62l.12,0a3.38,3.38,0,0,0-.46,1c-.52,1.76,1,3.41,1.72,4h0c-.13.28.06.53.33.86.11.14.24.3.38.49a3.34,3.34,0,0,0,2,1.11c.24.37.55.86.76,1.23l-.47-.2-.78-.32a4.29,4.29,0,0,1-2-1.9c-.35-.64-.68-.72-.9-.67s-.42.14-.46.66a3,3,0,0,0,0,.41,1.09,1.09,0,0,1-.28.94c-.22.26-.94,1.16-.79,1.85a.79.79,0,0,0,.45.56,1.4,1.4,0,0,0,1.08,0,8.27,8.27,0,0,1,3.1-.32,4.92,4.92,0,0,1,2.59.73l-.38,4.59Zm0-41.29a1.27,1.27,0,0,1,.84.49,2,2,0,0,1,0,1.45,6,6,0,0,1-.59,1.47c.07-.6.17-1.38.3-1.91a1,1,0,0,0-.51-1.18,1.44,1.44,0,0,0-.76-.14A.76.76,0,0,1,94.38,30.22Zm-1.64,1.33a1.23,1.23,0,0,1,1.35-.43.36.36,0,0,1,.17.45,24.08,24.08,0,0,0-.37,2.53,2.18,2.18,0,0,1-1.1-.18C92.65,33.61,92.09,32.27,92.74,31.55ZM92.14,35A2.19,2.19,0,0,0,93,36.23c0,.17,0,.34.06.5l-.34-.38a2.64,2.64,0,0,1-.63-1.58s0,0,0,0S92.13,34.9,92.14,35Zm-.05,1.64a5.42,5.42,0,0,0-1.56-.48,1.19,1.19,0,0,1-.3-.06,1.29,1.29,0,0,1,.66-.49,1.19,1.19,0,0,0,.58-.5A3.3,3.3,0,0,0,92.09,36.63Zm-1.16-2.06H91v0a.58.58,0,0,1-.36.4,2.63,2.63,0,0,0-.78.52,4.77,4.77,0,0,1-1.69-.76,5.81,5.81,0,0,1-.38-1c.11.11.22.26.28.33s.33.41.59.28.17-.43.14-.55a1.71,1.71,0,0,0-.23-.46l.35.15c.26.12.51.23.68,0s0-.47-.15-.59a2.39,2.39,0,0,0-1-.51l-.21-.07a1.67,1.67,0,0,1,.79-.22.84.84,0,0,1,.46.11,2.72,2.72,0,0,1,.45.51A5.29,5.29,0,0,1,90.93,34.57ZM87,32.42a.4.4,0,0,1,.39-.08h0a.49.49,0,0,0,0,.11.48.48,0,0,0,.13.22l0,0a.36.36,0,0,0,0,.22h0a.49.49,0,0,0-.31.28.77.77,0,0,0,0,.2C86.85,32.75,87,32.49,87,32.42Zm-.42,3.87c-.07-.39.06-.47.1-.49.53-.31,2.35.48,3.33,1.28a6.63,6.63,0,0,1,1.32,1.37,1.48,1.48,0,0,1-.22.68l-.08.12C89.8,38.85,86.81,37.64,86.59,36.29ZM92,39.68a1.26,1.26,0,0,1-.5,0l0-.05.13-.2A2,2,0,0,0,91.9,39a1.68,1.68,0,0,0,.55.59A2.2,2.2,0,0,0,92,39.68Zm1.66-.25a6.16,6.16,0,0,0-.61-.26,1.14,1.14,0,0,1-.7-.69,2.22,2.22,0,0,0-.26-.43.5.5,0,0,0-.37-.21,7.42,7.42,0,0,0-.93-1,5.73,5.73,0,0,1,1.47.58,2.29,2.29,0,0,1,1.49,2Zm0-3.25,0-.19,0-.15-.12-.08a1.7,1.7,0,0,1-.7-.89c0-.1,0-.19-.05-.28a2.63,2.63,0,0,0,1.43.11c.17,0,.26-.05.28-.08a.63.63,0,0,1,0,.18,3.44,3.44,0,0,1-.25.63A1.77,1.77,0,0,0,93.67,36.19Zm.51,3.94a.46.46,0,0,0,.16-.19c.05.15.11.3.18.47A1.81,1.81,0,0,0,94.18,40.13Zm2.39,3.93-.24-.4c.22.33.43.63.65.92,0,.05,0,.11,0,.16Zm-1.74,11.1.32.12-.34-.09ZM87.22,41.6l.34.09a4.35,4.35,0,0,0-1.65.29c0-.06,0-.11,0-.16s0-.07,0-.1A2.12,2.12,0,0,1,87.22,41.6Zm-3.69.86a1.17,1.17,0,0,1,1.23-.08,2.37,2.37,0,0,0,.35.14.61.61,0,0,0-.12.39.94.94,0,0,0,.48.66.49.49,0,0,0-.44.16c-.16.2-.11.42,0,.71a.87.87,0,0,0-.55-.13.65.65,0,0,0-.47.3A3.69,3.69,0,0,0,84,46.82a6,6,0,0,1-.57-1.32C83,44,83,42.9,83.53,42.46Zm1.42,5.67c-.42-1.48-.59-3-.36-3.16.32,0,.85,1,1,1.32s.38.7.68.61.26-.44.24-.69a4.73,4.73,0,0,0-.69-1.69l-.1-.18a7.94,7.94,0,0,1,1.7.95c.5.34.72.49,1,.26s0-.52-.15-.81a4.72,4.72,0,0,0-1.71-1.28,6,6,0,0,1-.9-.54.24.24,0,0,1,.07-.07A3.42,3.42,0,0,1,88,42.38a2.34,2.34,0,0,1,1,.4A5.92,5.92,0,0,1,90,44.19c1.58,3.47,1.38,4.45,1.38,4.45l.12,0-.07.1a1.56,1.56,0,0,1-1.1.86,4.82,4.82,0,0,0-1.82.84A10.07,10.07,0,0,1,84.95,48.13ZM92.28,65.5a9.12,9.12,0,0,0-3.32.35c-.35.1-.48.14-.62.07a.13.13,0,0,1-.09-.1,2.15,2.15,0,0,1,.64-1.28,1.73,1.73,0,0,0,.44-1.42c0-.08,0-.16,0-.24l.12.2a5,5,0,0,0,2.38,2.2l.56.23ZM95,65v.14a2.58,2.58,0,0,1-.67-2.55,3.05,3.05,0,0,0,0-1.56,1.08,1.08,0,0,0-.53-.94h-.07a8.65,8.65,0,0,0,.07-2.33C95.23,59.73,95.17,62.84,95,65Zm-4.64-10.5a2.37,2.37,0,0,1,1.48.07A5.75,5.75,0,0,1,92.77,56h0l-.31.58A4.09,4.09,0,0,1,93,57a8.52,8.52,0,0,1,0,3.18,37.13,37.13,0,0,1-1.12-3.65,1.39,1.39,0,0,0-1.34-1.18,2.18,2.18,0,0,0-1.46.56A1.43,1.43,0,0,1,90.35,54.54Zm.19,6.65c-.29-.24-2.24-1.92-1.76-3.55A2,2,0,0,1,90.58,56a.74.74,0,0,1,.72.66,39,39,0,0,0,1.21,3.93,3.51,3.51,0,0,1-1.92.6Zm3.6,4.63a.43.43,0,0,0,0-.41A17.2,17.2,0,0,0,93,63.47L93,63.35l-.15,0a2.82,2.82,0,0,1-1.71-.86c-.14-.21-.29-.38-.4-.53l-.07-.09A4.06,4.06,0,0,0,93,61.07c.32-.29.52-.35.57-.32h0s.11.11.15.42a3.81,3.81,0,0,1,0,1.16c0,.07-.83,1.77,1.09,3.69l.09.09v.06A4.51,4.51,0,0,0,94.14,65.82Z"/><path class="cls-1" d="M167.18,170.16l0-.33h0c-3.93.53-7.79-.89-11.18-2.14l-1.28-.47A75.9,75.9,0,0,0,131.79,163l1.73-2c1.34-1.55,2.73-3.16,4.21-4.69a116.83,116.83,0,0,1,10.13-9c1.3-1.06,2.6-2.13,3.88-3.21,1.59-1.34,3.14-2.91,4.79-4.58.78-.78,1.56-1.57,2.35-2.34a17.2,17.2,0,0,0,2.24-1.77l-.13-.13,1.16-.55-.17-.35a23,23,0,0,1,2.61-1.88l2.1-1.27-2.36.67-2,.57a51.36,51.36,0,0,1-9.25,2.13c-3.51.31-10.82,1-25.77,12.05-12.85,9.54-21.4,18.57-25.1,24.36q-.68.67-1.34,1.35a30.45,30.45,0,0,0-5.07,6.48c.12-6.37.67-7.29,1.39-8.5a11.26,11.26,0,0,0,.7-1.33l.41-.1,0-.22v0a6.38,6.38,0,0,1,1.25-2.19,2.9,2.9,0,0,1,2.39-.94,1.91,1.91,0,0,0,1.32-.36.7.7,0,0,0,.25-.67.62.62,0,0,0,0-.07l.17.18c.21-.2,5.05-4.8,5.35-7.48.2-1.8-1-2.3-1.87-2.64a3.45,3.45,0,0,1-.63-.3,3.53,3.53,0,0,1-.39-.35c-.64-.62-1.71-1.66-3.61-.08s-3.55,6.66-3.92,8.06l0,0c-.22.3-.09.72.08,1.3a6.11,6.11,0,0,1,.29,1.33,3.2,3.2,0,0,1-1,1.94q-.49-5.41-.83-10.88a1.05,1.05,0,0,0,.41-.43,2.28,2.28,0,0,1,.75-.82l.35-.27a1.29,1.29,0,0,1,.39-.23c.34-.13.39-.33.36-.71a1,1,0,0,0-.06-.23,20.37,20.37,0,0,0,3.79-4,2.83,2.83,0,0,0,.67-2.54,2.66,2.66,0,0,0-1.62-1.51v0a1.28,1.28,0,0,0-.61-.42c-.63-.2-1.64,0-2.82,1.91a12.06,12.06,0,0,0-1.64,5.44.43.43,0,0,0-.17,0c-.13-2.51-.24-5-.32-7.53h-.11a3.37,3.37,0,0,1,1-2.11,6.16,6.16,0,0,1,4-1.34h.12c.16,0,.73,0,2.52-.88.75-.38,1.13-.83,1.14-1.33a1,1,0,0,0-.05-.27,16.41,16.41,0,0,0,5.91-2.2c2.1-1.22,3.23-2.38,3.55-3.65a4.74,4.74,0,0,0-.85-3.66c-1.82-3.06-5.16-1.28-5.2-1.27l.17.3a5.7,5.7,0,0,0-2.1-.28c-3.37.18-5.2,4.16-5.72,5.49a.5.5,0,0,0-.2-.07c-.39,0-.63.34-1,1-.17.28-.37.61-.62,1a5.91,5.91,0,0,0-.61,4c-.46.61-1.39,1.8-2,2.46,0-1.16-.05-2.33-.07-3.49a4,4,0,0,1,.13-1.36c.06-.16.18-.58.34-1.13.31-1,1.1-3.71,1.66-5.06.45-.45.88-.84,1.32-1.24s1-.86,1.49-1.4c2-2,3.6-1.25,3.63-1.23a4.14,4.14,0,0,0,1.86,0c.6-.08,1-.3,1.1-.66a.8.8,0,0,0,0-.09,9.19,9.19,0,0,0,1.69.14,13.11,13.11,0,0,0,2.46-.25c1.65-.32,2.61-.8,3.12-1.56a3.28,3.28,0,0,0,.29-2.58,2.62,2.62,0,0,0-3.13-2l0,.18a4,4,0,0,0-1.21-.59c-2.15-.62-4.16,1.36-4.87,2.16l-.05,0c-.31-.15-.57.08-1,.4-.17.14-.37.3-.6.47a4,4,0,0,0-1.32,2.44c-.51.34-1.23.79-1.7,1.06.08-.23.2-.51.31-.76s.26-.62.39-1a5.29,5.29,0,0,1,2.33-2.55c.74-.4.83-.78.78-1a.6.6,0,0,0-.36-.4,14.52,14.52,0,0,0,2.33-3.26,6.63,6.63,0,0,0,.52-1.13l0,0a1.92,1.92,0,0,0,.1-.49,3.35,3.35,0,0,0-.75-3.25c-.15-.15-.67-.62-1-.42a1.44,1.44,0,0,0-.21.15s0-.09,0-.14a1.69,1.69,0,0,0-1.18-1.38c-.61-.16-1.63,0-3,1.75-2,2.58-1.37,6-1.15,6.82a.86.86,0,0,0-.44.33c.29-2.32.15-5.6-1.17-6.51a9.86,9.86,0,0,1,.77-1.1,2.42,2.42,0,0,1,1.79-.84c.31-.05.65-.11,1-.21.21-.05.85-.21.83-.71a.56.56,0,0,0-.12-.31,11.73,11.73,0,0,0,4.72-3,1.63,1.63,0,0,0,.54-1.38,2.33,2.33,0,0,0-.19-.5,1,1,0,0,1-.13-.38l-.41-.51-.06,0,.23-.43c.62-1.12,1.26-2.29.89-3a1,1,0,0,0-.87-.5c-.36,0-.88.28-1.63.94-.17,0-.37-.17-.74-.52s-1-.94-1.61-.65l-.24.11.05.26c.23,1.12-.27,2.36-1.54,3.79a40.87,40.87,0,0,0-2.41,3.35l0,0c-.27-.57-.46-1-.86-1h0c-.36,0-.56.39-.63.54-.35.7-.75,1.36-1.15,2l-.36.6a59.77,59.77,0,0,0,.12-9.48c.29-.23.67-.51,1-.75s.83-.61,1.26-.94a8.23,8.23,0,0,1,5.21-1.53c1.18,0,1.55-.31,1.66-.61a.81.81,0,0,0-.32-.87,19.89,19.89,0,0,0,5.9-2.48,10,10,0,0,0,1.55-1.05l0,.06a2.78,2.78,0,0,0,.49-.55,5,5,0,0,0,1.55-4.72c0-.2-.32-1.22-.87-1.24a2.48,2.48,0,0,0-.41,0l-.21,0a2.06,2.06,0,0,1,.15-.49,2.42,2.42,0,0,0-.42-2.57c-.64-.66-2.06-1.19-5.14,0-4.85,1.84-6.59,7.14-6.87,8.1l-.06,0a1.19,1.19,0,0,0-1.08.16,2.4,2.4,0,0,0-.86,1.61A15.89,15.89,0,0,1,97.42,97l.55.36a16.7,16.7,0,0,0,2.58-5.6c.18-.71.27-1,.59-1.23a.53.53,0,0,1,.5-.08A4.05,4.05,0,0,1,103.27,93a2.94,2.94,0,0,0,1.72,1.9,4.42,4.42,0,0,1,.55.32.76.76,0,0,1,.28.29s-.16.21-1,.17a9,9,0,0,0-5.64,1.67c-.42.33-.85.64-1.24.93-1.4,1-1.87,1.4-1.78,1.83a.5.5,0,0,0,.44.38l.09-.54A58.91,58.91,0,0,1,96.33,111h0v0l.33,0,.33,0v0a6.89,6.89,0,0,1,1.15-2.37c.38-.62.81-1.32,1.17-2.05l0-.08c.08.13.18.35.26.52l.21.42-.21.38H100a1.91,1.91,0,0,0,1.24,1h0l.14.42.1,0,0,.33a7.51,7.51,0,0,0,1.31-.22l.14.08-.26.08c-.37.09-.69.15-1,.2a3,3,0,0,0-2.19,1.07,10.61,10.61,0,0,0-.89,1.29,2,2,0,0,0-1.4.47c-3,2.1-1.91,10-1.75,11.09a.59.59,0,0,0-.51.18.43.43,0,0,0,0,.07,30,30,0,0,0,0-3.82,21.66,21.66,0,0,0-1.3-4.83l.18,0A25.4,25.4,0,0,1,93.1,110c0-.6-.09-2.41-1.41-2.71l0,.11a6.07,6.07,0,0,0-1.13-.23c-.46-.06-1.32-.18-1.41-.38,0,0,0-.08.06-.17.25-.42.52-.42.93-.43a1.48,1.48,0,0,0,1.41-.65,4.9,4.9,0,0,1,.69-.85h.18c0,.27-.11.51-.16.73a2.55,2.55,0,0,0,.1,2.05l.5-.26.54,0q-.09-1.67-.16-3.34l-.1-2H93c-.45-1.45-1.68-5.07-2.83-5.53a5.76,5.76,0,0,0-1.21-.31A3.88,3.88,0,0,0,90,95.09l.21-.23a11.49,11.49,0,0,1,1.5-1.49.34.34,0,0,1,.05.11,1.76,1.76,0,0,1-.23.86,3.53,3.53,0,0,0-.17,3.1A8.41,8.41,0,0,0,92.24,99a1.82,1.82,0,0,0,0,.2h.08v.09h0c0,.28.12.32.24.32h.07c.18,0,.26,0,.29-.31v0h0v-.05L93,99a.34.34,0,0,0-.06-.3l0-.46,0-.38h0l-.24-4.74.42-4.32c.28.49.65.9,1,.9l.16,0c.36-.12.47-.53.34-1.22a4.2,4.2,0,0,1,0-2c0-.22.09-.46.14-.75a2.45,2.45,0,0,1,.26-.82c.22-.44.13-.63-.31-1.06a1.54,1.54,0,0,0-.45-.31,34.6,34.6,0,0,0,.29-9.66c-.19-1.92-.84-3.23-1.95-3.87A4.35,4.35,0,0,0,89,69.92l0,.09a1.92,1.92,0,0,0-1.3.11c-1,.44-2,1.74-1.31,5.46a20.79,20.79,0,0,0,4.37,9.15h0l-.12,0-.12.06a.49.49,0,0,0-.28.37c-.07.41.36.86,1.19,1.68a7.83,7.83,0,0,1,1.45,1.7h0l-.45,0-.42,4.38a.56.56,0,0,0-.15-.08h-.08l.24-.08c-.09-.27-2.15-6.63-4.45-8.05-1.54-1-2.53,0-3.18.55a3.32,3.32,0,0,1-.54.44,3.56,3.56,0,0,1-.48.2c-.83.31-2.23.82-1.63,3.23s4.46,6.06,5.58,7v0c.18.33.61.4,1.2.49a6,6,0,0,1,1.33.31c.73.29,1.93,3.38,2.57,5.51l.07,1.35h-.05a.85.85,0,0,0-.28.1,11.22,11.22,0,0,0-1-2.17c-.83-1.42-3.18-4-4.66-3.72-.37.06-.86.31-1.05,1.19-.48,2.21,2.77,5.2,4.21,6.4a1.37,1.37,0,0,0-1.08.73.81.81,0,0,0-.08.79c.25.51,1.06.63,1.91.75a5.71,5.71,0,0,1,1,.19l.21-.58-.11.49c.56.13.85.81.9,2.1a26.09,26.09,0,0,0,.61,4.64l-.27.1.1.26a24.33,24.33,0,0,1,1.47,5.21,35,35,0,0,1-2.75,15.2c-3.1-3.53-2.43-6.52-2.43-6.52.06-.17.14-.83-.52-3.29-.3-1.12-.73-1.73-1.33-1.84a1.06,1.06,0,0,0-.21,0,24.83,24.83,0,0,0-1.34-8.06c-1.68-5.33-3.73-7-7.28-6.12a3.1,3.1,0,0,0-2,1.48,6.11,6.11,0,0,0-.26,4.15l.41-.12a6.72,6.72,0,0,0-.71,2.51c-.38,4.15,3.77,8,5,9a.53.53,0,0,0-.14.18c-.18.41.17.82.79,1.55.27.32.59.7.93,1.15a7.1,7.1,0,0,0,4.18,2.35c1,1.38,2.77,4,3.08,4.66l.18-.08a43.82,43.82,0,0,1,1.46,21.72c-.24-.31-.58-.86-.87-1.34s-.53-.85-.82-1.29a8.1,8.1,0,0,1-1.08-5.16c.14-1.15-.18-1.54-.47-1.66a.8.8,0,0,0-.87.23A19.67,19.67,0,0,0,85.33,143a9.71,9.71,0,0,0-.9-1.59l.06,0a2.71,2.71,0,0,0-.49-.52A5,5,0,0,0,80,139c-4.09-12.62-9-25.8-15.79-42.68-8.06-19.92-18.44-43-34.36-62.95-5.42-6.8-11.3-13.4-17-19.79C10.48,10.9,8.06,8.17,5.69,5.46L6,5.53,0,0,1.37,2.15c.72,1.14,1.47,2.26,2.22,3.39,1.6,2.4,3.25,4.88,4.62,7.45C15,25.82,23.1,41,30.9,56.27q3.88,7.6,7.83,15.17C49,91.25,59.62,111.74,68.14,132.88c9,22.3,17.46,44.33,22.41,68.55-.32,7.59-.81,16.54-1.71,20l.64.17c.92-3.51,1.41-12.52,1.73-20.15h0v-.05l0-.42h-.11q-.76-3.7-1.63-7.33c-5.08-21.29-12.7-41-20.74-61C60.22,111.47,49.59,91,39.32,71.14Q35.39,63.56,31.49,56C23.68,40.68,15.63,25.51,8.79,12.68c-1.38-2.6-3-5.09-4.65-7.51L3.38,4l1,.88.2.23c2.58,3,5.25,6,7.82,8.85,5.68,6.38,11.56,13,17,19.77,15.86,19.9,26.22,42.91,34.26,62.79,6.8,16.81,11.66,29.94,15.74,42.52-.37.09-1,.29-1,.71a2.38,2.38,0,0,0,0,.4c0,.06,0,.14,0,.2a2,2,0,0,1-.45-.18,2.37,2.37,0,0,0-2.53.21c-.69.57-1.32,1.91-.42,5,1.38,4.74,6.18,6.84,7.25,7.26l.07,0,0,0,0,.05a1.16,1.16,0,0,0,.09,1,1.76,1.76,0,0,0,.13.18,12.08,12.08,0,0,0,2.56,2l-.2.05c2,7.28,4.86,18,6.88,27.69l.65-.13-.07-.31c.69-6.71,1.38-16.41-.58-23.32l-.32.09.2-.26c-2-1.56-3.89-2.81-5.4-3.82a14.47,14.47,0,0,1-3.29-2.51.51.51,0,0,1,0-.48,3,3,0,0,1,1.64-1.13l.41.16-.1-.27.55-.16a2.87,2.87,0,0,0,2-1.52,4.36,4.36,0,0,1,.35-.5.86.86,0,0,1,.29-.25s.18.17.08,1a8.79,8.79,0,0,0,1.19,5.6c.29.44.56.87.81,1.28.89,1.44,1.21,1.91,1.65,1.87a.45.45,0,0,0,.22-.1l.1,0c0-.07,0-.14,0-.21a.66.66,0,0,0,0-.11h0a44.49,44.49,0,0,0-1.55-22.81l-.26.09c-.73-1.28-2.94-4.39-3-4.54l-.08-.12-.14,0A6.66,6.66,0,0,1,83,129.1c-.35-.46-.68-.85-1-1.18a6.53,6.53,0,0,1-.66-.85,2.11,2.11,0,0,1,.46-.05,6.06,6.06,0,0,0,4.16-1.8l.08-.1.37-.17-.08-.16c.3-.3.57-.45.79-.4s.52.26.82,1.37a8.85,8.85,0,0,1,.53,2.93c0,.15-.88,3.79,3.29,7.92l.46-.47-.19-.2A40.28,40.28,0,0,0,95,124.5c0,.11.06.22.11.36l0,.13a3.09,3.09,0,0,0,.67,1.17,2.81,2.81,0,0,1,.57.95,5.6,5.6,0,0,1,.16,2.82c-.05.06-.1.12-.15.17l.44.49a3.43,3.43,0,0,0,.3-.33h0a4.44,4.44,0,0,0,.6-.88.85.85,0,0,0,.68,0l.13-.05a4.49,4.49,0,0,0-.38.73l-.33.34.14.13c-.41,1.06-.92,2.67-1.55,4.78-.16.54-.28.94-.33,1.1A4.53,4.53,0,0,0,95.9,138q0,2,.08,4.07h.4l.21.26a4.48,4.48,0,0,0-.69,2.73h.17c.24,7.36.7,14.78,1.37,22.07l-.06.06-.2.17.12.23c.11.21.2.43.28.62a9.93,9.93,0,0,1-.91,1.89c-.82,1.38-1.42,2.39-1.5,10.33a7.69,7.69,0,0,0,0,5.91l.05.12c0,2.8.12,6.11.23,10.09a8.07,8.07,0,0,1-.47,2.33l-.06,0-.33.57a.66.66,0,0,0,.65.06c.53-.26.65-1.21.89-3.12a47.42,47.42,0,0,1,1.08-6c.47-1.83.83-3.69,1.18-5.48.37-1.94.76-3.92,1.3-5.91a41.34,41.34,0,0,1,6.66-5.48l.16,0c-6.7,9.05-6.77,13.64-6.77,13.89h.66c0-.06.09-4.58,6.62-13.45l.38.29c.23-.3.47-.6.71-.89a4.76,4.76,0,0,1,1,.15c1.68.45,3.25,1,4.77,1.62l.47.17c-.92.54-1.85,1.11-2.79,1.72-5.95,3.9-10,8-12.31,12.49-1.54,3-4.05,11.65-3.61,15.9a72.67,72.67,0,0,1-.6,12l-.08.68a28.59,28.59,0,0,0-.28,3.48h.66a28.2,28.2,0,0,1,.28-3.4l.08-.68a74.82,74.82,0,0,0,.62-11.73h0c0-.13,0-.29-.05-.43s0-.08,0-.12h0c-.4-4.14,2-12.54,3.55-15.44,2.28-4.4,6.23-8.41,12.08-12.24,1.08-.71,2.16-1.36,3.22-2a29.5,29.5,0,0,0,6.35,1.72,70.55,70.55,0,0,0,13.44.36c1.71-.09,3.39-.16,5-.22,7.69-.29,15-.57,22.22-3.7a14.73,14.73,0,0,0,2.26-1.47,10.26,10.26,0,0,1,2.8-1.69l0-.33Zm-64.3-5.38a1.76,1.76,0,0,1-.88.16A3.59,3.59,0,0,0,99.22,166a2.68,2.68,0,0,0,.46-1.51,5.77,5.77,0,0,0-.25-1.23,3.88,3.88,0,0,0,1.23.6l.29.09a11.46,11.46,0,0,1,2,.72A.34.34,0,0,1,102.88,164.78Zm5.55-7.66c-.26,2.38-4.86,6.8-5.12,7.05a3.76,3.76,0,0,0-1-.46,17.3,17.3,0,0,0,3.5-3.95,9.39,9.39,0,0,0,1.69-4.36A1.49,1.49,0,0,1,108.42,157.12ZM103,154.34c1.45-1.2,2.07-.59,2.73,0a4.34,4.34,0,0,0,.47.41,3.25,3.25,0,0,0,.65.32,8.43,8.43,0,0,1-1.59,4.28,18.07,18.07,0,0,1-3,3.45,12.27,12.27,0,0,1,.74-3.37,18.63,18.63,0,0,1,1.39-3.55l-.52-.41a16.6,16.6,0,0,0-1.5,3.75c-.91,2.72-.81,3.88-.73,4.23l-.53-.17-.29-.09c-1.39-.44-1.36-.94-1.35-1.12a.42.42,0,0,0-.1-.34l0,0C99.87,160,101.34,155.71,103,154.34Zm-4.69-.77-.33.26a3,3,0,0,0-.68.64,5.56,5.56,0,0,0,0-1.33c0-.11,0-.24,0-.36a1,1,0,0,0,.92.18.6.6,0,0,1,.5,0s.09.06.1.23v.08A1.94,1.94,0,0,0,98.31,153.58Zm1.07-6.87c.89-1.46,1.53-1.69,1.88-1.65a.66.66,0,0,1,.49.23s0,.08,0,.13a4.24,4.24,0,0,1-.62,2.86,17.23,17.23,0,0,1-1.37,2.21l.5.43a16.88,16.88,0,0,0,1.45-2.31,5,5,0,0,0,.74-2.92,1.69,1.69,0,0,1,.79.89,2.23,2.23,0,0,1-.58,1.94A20.22,20.22,0,0,1,99,152.38a1.24,1.24,0,0,0-1,0,.26.26,0,0,1-.18,0A11.65,11.65,0,0,1,99.38,146.71Zm14-17.53a4.15,4.15,0,0,1,.77,3.15c-.28,1.09-1.31,2.12-3.25,3.24a15.44,15.44,0,0,1-5.93,2.14,2.74,2.74,0,0,0-.29-.26,71,71,0,0,1,5.9-4.42,2.27,2.27,0,0,0,1.09-2.71,4,4,0,0,0-2.32-2.3A3,3,0,0,1,113.34,129.18Zm-6.53-.92c2.22-.09,3.81,1.08,4.19,2.26a1.61,1.61,0,0,1-.81,2,73.17,73.17,0,0,0-6.12,4.6L104,137a5.53,5.53,0,0,1-1.69-1.79,16,16,0,0,1,5.81-4.13l-.25-.61a16.59,16.59,0,0,0-5.9,4.15,6.62,6.62,0,0,1-.33-.71l-.08-.19h0C101.54,133.68,103.29,128.45,106.81,128.26Zm-7.59,11,.09-.12,0-.15s-.48-2.32.48-3.67c.26-.37.47-.71.65-1a6.38,6.38,0,0,1,.39-.6,2.67,2.67,0,0,1,.18.4,7.24,7.24,0,0,0,2.66,3.43l.32.19.13.15,0,0c.36.26.57.51.56.72s-.28.5-.78.75a5.81,5.81,0,0,1-2.12.82,7.44,7.44,0,0,0-4.06,1C98.4,140.37,99.1,139.44,99.22,139.28Zm15.27-53.77.23,0a2.85,2.85,0,0,1,.4,1.81,4.21,4.21,0,0,1-.35,1.41,6.12,6.12,0,0,0-.7-3.17A1.86,1.86,0,0,0,114.49,85.51ZM109,82.43c2.14-.82,3.72-.86,4.43-.13a1.78,1.78,0,0,1,.28,1.86,2.53,2.53,0,0,0-.19.68.78.78,0,0,0-.64-.22c-.52.09-.85.75-1.23,1.61,0-.11.07-.23.1-.34.11-.44.21-.92-.11-1.14s-.72,0-1.36.47l-.19.13a1.55,1.55,0,0,0,.64-1.35.78.78,0,0,0-.41-.54c-.73-.41-2.44,0-3.72.37A8.77,8.77,0,0,1,109,82.43ZM103.9,92.75a5.92,5.92,0,0,0-1.54-2.56l.14,0a14.41,14.41,0,0,1,3-5.33c1.45-.54,3.88-1.23,4.52-.87.06,0,.07.07.08.09.1.51-1.23,1.37-1.79,1.74s-.85.55-.72.87.51.24.84.17a6.57,6.57,0,0,0,2.25-1.14c.17-.12.37-.26.52-.35,0,.08,0,.17-.07.31A11.27,11.27,0,0,1,110,88.26c-.4.71-.55,1-.29,1.2s.58,0,.95-.3a6.56,6.56,0,0,0,1.57-2.5c.24-.54.6-1.36.81-1.4a.4.4,0,0,1,.17.13,5,5,0,0,1,.95,3.34,3.4,3.4,0,0,1-.47,1.58,8.49,8.49,0,0,1-1.93,1.43c-4.79,2.66-6.19,2.45-6.2,2.45l0,.18-.17-.1A2.31,2.31,0,0,1,103.9,92.75ZM103.14,104c1.29-1.45,1.86-2.76,1.75-4a2.44,2.44,0,0,1,.64.51,3.69,3.69,0,0,0,.66.55c-.45.43-1,.95-1.56,1.57s-1,1-1.15,1.14a9.34,9.34,0,0,0-1.26,1.45l-.27.34C102.42,104.85,102.89,104.23,103.14,104Zm-2.42,3.81a9.48,9.48,0,0,0,2-2.17,9.59,9.59,0,0,1,1.14-1.33,16.87,16.87,0,0,0,1.22-1.2c.46-.47,1.26-1.3,2-1.93l.1-.05,0,0a3.09,3.09,0,0,1,1.15-.8h0c.18,0,.3.07.34.15.21.39-.45,1.58-.88,2.37a5.81,5.81,0,0,0-.72,1.59l-.1.72,1-.69c0,.1.08.19.12.27a1.81,1.81,0,0,1,.14.35c0,.21-.08.46-.39.8a11,11,0,0,1-4.64,2.88A11.71,11.71,0,0,0,106.9,105l-.53-.39a10.94,10.94,0,0,1-3.56,3.53,6.93,6.93,0,0,1-.7.3c-.34-.09-.63-.15-.71-.16A1.13,1.13,0,0,1,100.72,107.76ZM87.79,70.87a1.56,1.56,0,0,1,1.07-.28,1.7,1.7,0,0,0,.24.22,7.6,7.6,0,0,1,2.58,4.55l.64-.14a8.25,8.25,0,0,0-2.69-4.82,3.46,3.46,0,0,1,2.68.16c.91.53,1.46,1.67,1.62,3.37a34.65,34.65,0,0,1-.28,9.47h-.07a1.87,1.87,0,0,0-1.31,1,.75.75,0,0,1-.54.35,20.48,20.48,0,0,1-4.64-9.31C86.69,73.14,86.93,71.5,87.79,70.87Zm4.16,15.45c-.28-.27-.62-.62-.83-.87l.36,0,.08.08.1-.09a1.44,1.44,0,0,0,1.2-.71,1.26,1.26,0,0,1,.82-.7.71.71,0,0,1,.6.25c.16.16.21.22.23.2l0,.09a3.16,3.16,0,0,0-.32,1c0,.28-.09.52-.13.73a4.83,4.83,0,0,0,0,2.28A2,2,0,0,1,94,89a2.56,2.56,0,0,1-.51-.77A8.12,8.12,0,0,0,91.94,86.32Zm.16,8.41L92.22,97l0,.67c-.08-.16-.17-.33-.28-.55A2.77,2.77,0,0,1,92.11,94.73Zm-4.83-9.57c2,1.27,4.05,7.36,4.16,7.67a3.8,3.8,0,0,0-.85.7,17.32,17.32,0,0,0-2-4.87,9.4,9.4,0,0,0-3.21-3.4A1.49,1.49,0,0,1,87.27,85.17Zm.67,10.19a.42.42,0,0,0-.35-.06l0,0c-1.37-1.19-4.6-4.37-5.12-6.46-.46-1.83.36-2.13,1.22-2.45a4.18,4.18,0,0,0,.57-.24,3.28,3.28,0,0,0,.57-.44A8.43,8.43,0,0,1,88,89a18.09,18.09,0,0,1,1.84,4.16A12.2,12.2,0,0,1,87.08,91l-.46.47c2.06,2,3.15,2.4,3.5,2.49l-.38.4-.21.23C88.54,95.7,88.1,95.46,87.94,95.36Zm4.48,9.1a.92.92,0,0,1,0,.09v-.07Zm-6.28-5.21c.14-.62.42-.67.51-.68,1-.16,3.13,1.94,4,3.4a9.76,9.76,0,0,1,1,2.29l0,0a6,6,0,0,0-3.28-3.57l-.26.61a5.26,5.26,0,0,1,3,3.59l-.14.2a.66.66,0,0,1-.33.28C89.15,104.28,85.72,101.17,86.13,99.26Zm4.87,61c1.7,6.12,1.32,14.46.73,20.91-1.92-8.8-4.38-18.12-6.23-24.78l.23.15C87.22,157.5,89.06,158.72,91,160.23ZM79.8,139.64a3.47,3.47,0,0,1,.91,0,4.11,4.11,0,0,1,1.28.43,6.2,6.2,0,0,0-2.09.11,5,5,0,0,0-1,.32,2,2,0,0,0,0-.4c0-.07,0-.15,0-.22A2.1,2.1,0,0,1,79.8,139.64Zm-4.08,1.25a1.73,1.73,0,0,1,1.81-.12,2.43,2.43,0,0,0,.65.24.77.77,0,0,0-.27.6c0,.49.59.84,1.34,1.25l-.18-.07c-.42-.14-.88-.27-1.12,0s0,.73.35,1.37l.06.11a1.46,1.46,0,0,0-1.2-.64.77.77,0,0,0-.56.36c-.44.67-.21,2.32.06,3.59a8.5,8.5,0,0,1-1.14-2.39C74.89,143,75,141.52,75.72,140.89Zm9.39,10-.6.18a13,13,0,0,1-.46-3,15.39,15.39,0,0,0-.39-2.86l-.64.17a14.87,14.87,0,0,1,.37,2.74,16.36,16.36,0,0,0,.35,2.7,11.74,11.74,0,0,1-2.18-1.36c-.15-.11-.3-.21-.45-.33-.75-.64-1.08-1.23-1-1.77l-.65-.1a2.69,2.69,0,0,0,1.22,2.37,12.5,12.5,0,0,0,1,.79,12.34,12.34,0,0,0,1.85,1,3.85,3.85,0,0,0-1.06.73l0-.12s-.23-.08-.57-.24a14,14,0,0,1-4.36-3.05c-.44-1.54-.87-3.88-.49-4.45,0-.06.07-.06.09-.07.46-.06,1.22,1.29,1.53,1.87s.47.87.79.77.28-.48.24-.81a6.41,6.41,0,0,0-.93-2.27c-.1-.17-.21-.37-.29-.52l.27.08a8.68,8.68,0,0,1,1.79.93l.59.39c.66.45.9.61,1.15.37s0-.57-.22-1a5.17,5.17,0,0,0-1.81-1.45l-.49-.27c-.45-.25-1.29-.7-1.29-.89,0,0,0-.05.13-.14a3.45,3.45,0,0,1,1.31-.56,5.54,5.54,0,0,1,2-.1,3.31,3.31,0,0,1,1.48.57,8.25,8.25,0,0,1,1.24,2c2.21,4.85,1.89,6.19,1.89,6.19l.17.06-.11.15A2.24,2.24,0,0,1,85.11,150.93Zm-1.28-25a16.86,16.86,0,0,1-3.77-7.79l-.65.12a17.56,17.56,0,0,0,3.75,7.89,5.86,5.86,0,0,1-1.31.21l-.24,0,0,0c-.05,0-5.42-4.33-5-8.71.23-2.59,1.62-3.93,2.82-4.08,1-.12,1.86.57,2.3,1.85,1,3,3.17,7.68,3.91,9.26l-.13.14A4.08,4.08,0,0,1,83.83,125.92ZM82.34,115.2c-.55-1.6-1.68-2.44-3-2.29a3.62,3.62,0,0,0-2.53,1.86,5.19,5.19,0,0,1,.26-3.4,2.46,2.46,0,0,1,1.59-1.17c2.75-.72,4.68,0,6.48,5.68a23.94,23.94,0,0,1,1.3,8,2.52,2.52,0,0,0-.32.25C85.31,122.41,83.31,118,82.34,115.2ZM115,121.7a2.68,2.68,0,0,1-.19,2.08,4,4,0,0,1-2.7,1.28,10.26,10.26,0,0,1-4.13.05l0-.07a46,46,0,0,1,4.57-1.44A1.63,1.63,0,0,0,113.9,122a2.72,2.72,0,0,0-.82-1.86A1.85,1.85,0,0,1,115,121.7Zm-3.85-1.94a2.59,2.59,0,0,1,2.07,2.25,1,1,0,0,1-.86,1,47.68,47.68,0,0,0-4.83,1.53v0a4.27,4.27,0,0,1-.78-2.4s0-.06,0-.09C107,121.72,109.07,119.14,111.17,119.76ZM104,125l.12-.08,0-.15a3.61,3.61,0,0,1,1.07-2.14c.25-.18.46-.35.64-.5l.22-.18s0,.06,0,.1a4.87,4.87,0,0,0,.95,2.83c.34.37.46.66.42.77s-.19.18-.57.23a4.19,4.19,0,0,1-1.45.06c-.09,0-2.12-1-4.42,1.35-.27.28-.54.53-.79.76a5.14,5.14,0,0,0,.93-1.78l0,0a.44.44,0,0,0,.5.09A20.8,20.8,0,0,0,104,125Zm.46-5.3,0,.11h-.1a1.39,1.39,0,0,1-1.21-.35,4.47,4.47,0,0,0-1.6-.91,9.24,9.24,0,0,1-.13-3.86,6.59,6.59,0,0,1,2.1-2h0c.12.13,0,.61-.43,1.44-.21.42-.33.68-.08.87s.51,0,.67-.2a4.38,4.38,0,0,0,.9-1.43l0-.11a7.61,7.61,0,0,1,.18,1.7c0,.55,0,.82.34.88h.07c.27,0,.38-.3.49-.56a4.34,4.34,0,0,0,0-2,2.41,2.41,0,0,1,0-.91,3.1,3.1,0,0,1,1.58,1.49,2.13,2.13,0,0,1,.25,1,5.42,5.42,0,0,1-.58,1.41C105.32,119.34,104.48,119.72,104.49,119.72Zm2.2-7.66.06,0a2,2,0,0,1,.78.93l0,.06a4,4,0,0,0-1-.88Zm-4.08.11c1.21-1.54,2-1.61,2.31-1.52a1,1,0,0,1,.69.85,2.37,2.37,0,0,0,.07.3.58.58,0,0,0-.34.13.83.83,0,0,0-.24.64.44.44,0,0,0-.33-.18c-.2,0-.36.12-.49.34a.77.77,0,0,0-.19-.41.66.66,0,0,0-.5-.2,3.1,3.1,0,0,0-1.58,1A5.44,5.44,0,0,1,102.61,112.17ZM101,119.34a.23.23,0,0,1,.17-.15h.1a3,3,0,0,1,1.54.8,2,2,0,0,0,1.68.51,2.66,2.66,0,0,1,.4,0h.09a1.69,1.69,0,0,1-.39.27,6,6,0,0,0-2.63,2.89c-.12.33-.26.64-.38.94l-.07.17c0-.19,0-.39,0-.59a11,11,0,0,0-.45-4C100.93,119.7,100.89,119.53,101,119.34Zm-3.3-6.18a1.93,1.93,0,0,1,.65-.32,6.15,6.15,0,0,0-.76,3.55l.65-.11A5.69,5.69,0,0,1,99,113c1.09.87,1.17,4.84.63,7.05a12.54,12.54,0,0,1-1.34,3.57,3.21,3.21,0,0,1-1.59.23l-.44-.05-.2,0,.14,0C96.19,123.65,94.9,115.14,97.67,113.17ZM97,126.88a3.44,3.44,0,0,0-.69-1.14,2.47,2.47,0,0,1-.55-.94l0-.14-.09-.29.58.07.44.05a3.71,3.71,0,0,0,1.66-.18l-.19.26A3.1,3.1,0,0,0,97.3,127a10.83,10.83,0,0,1,.06,1.17c0,.11,0,.21,0,.31l-.08.19A6.28,6.28,0,0,0,97,126.88Zm1.2,1.86-.12,0s0-.1,0-.16q.13-.33.24-.66l-.26-.09c0-.27,0-.56-.06-.91a2.45,2.45,0,0,1,.66-2,4.06,4.06,0,0,0,.49-.75c.08-.17.21-.45,0-.66l0,0a14.62,14.62,0,0,0,1.18-3.35l.05-.25c0,.12.07.25.11.4a10.23,10.23,0,0,1,.42,3.81C100.74,127.23,99.33,128.35,98.18,128.75Zm1.17.15-.47.43-.09-.12A4,4,0,0,0,99.35,128.9Zm-.8,38a8.58,8.58,0,0,0-.45.78l-.06-.14h.11l0-.18C98.24,167.24,98.38,167.1,98.54,166.92Zm41.37,9.76c-1.67.06-3.35.13-5.06.22a70.14,70.14,0,0,1-13.31-.36,33,33,0,0,1-7.48-2.15c-1.54-.58-3.12-1.18-4.83-1.64a5.34,5.34,0,0,0-1.48-.18,22.57,22.57,0,0,1,9.71-3.24c5.53-.38,13.13.92,19.83,2.07,3.93.67,7.32,1.25,9.77,1.41a21.3,21.3,0,0,0,7.43-.66l-.21-.63a21.33,21.33,0,0,1-7.18.62c-2.41-.15-5.79-.73-9.7-1.4-6.73-1.15-14.36-2.46-20-2.08A24.32,24.32,0,0,0,106,172.85c-2.15.68-4,2.44-5.53,3.85-.38.35-.74.69-1.07,1a12.31,12.31,0,0,0-4.15,6.8,7.65,7.65,0,0,1,.62-4.18c1.12-2.69,3.4-5.26,5.48-7.41a26.15,26.15,0,0,1,8-6.18,33,33,0,0,1,9-2.34,77.41,77.41,0,0,1,36,3.48l1.28.47c3,1.1,6.34,2.34,9.79,2.29-.46.3-1,.66-1.47,1a14.8,14.8,0,0,1-2.14,1.4C154.74,176.12,147.54,176.39,139.91,176.68Zm18.57-40a37.47,37.47,0,0,1-7,3.38c-1.29.52-2.62,1-3.89,1.65a70.53,70.53,0,0,0-8.3,4.88c-7.84,5.12-16.37,10.9-23.57,17.51l-.5.1.81-.83c14.06-14.29,23.89-19.35,32.43-22.69,4.25-1.66,8-3.29,10.45-4.41Zm-2.43,2.41c-1.63,1.65-3.18,3.21-4.74,4.54-1.28,1.08-2.58,2.14-3.87,3.2a117.74,117.74,0,0,0-10.19,9c-1.49,1.54-2.89,3.16-4.23,4.72-.68.79-1.38,1.59-2.09,2.39a76.73,76.73,0,0,0-12.6.73l-1.36.21c7-6.28,15.16-11.81,22.7-16.73a70,70,0,0,1,8.22-4.84c1.26-.59,2.58-1.12,3.86-1.63,1.62-.65,3.27-1.31,4.86-2.13Zm-28.3,8.11c14.79-11,22-11.62,25.43-11.92a51.64,51.64,0,0,0,9.33-2.14c-.68.51-1.35,1.08-2,1.66-2.18,1-6.77,3.1-12.27,5.25-8.6,3.37-18.52,8.47-32.66,22.84l-1.5,1.55a26.16,26.16,0,0,0-4.93,1.61,20.74,20.74,0,0,0-4.63,2.93C108.8,163.38,116.73,155.44,127.75,147.25Zm-30,37.47c-.34,1.78-.7,3.62-1.17,5.44-.24.93-.42,1.8-.57,2.64-.07-2.85-.12-5.31-.15-7.44a10.24,10.24,0,0,1,1.88-4.77l.25.2s.29-.35.77-.87C98.34,181.54,98,183.14,97.72,184.73Z"/></g></g></svg>