<svg xmlns="http://www.w3.org/2000/svg" viewBox="0 0 129.76 153.24"><defs><style>.cls-1{fill:#fff;}</style></defs><title>אגוז שחור</title><g id="Layer_2" data-name="Layer 2"><g id="Expended"><path class="cls-1" d="M6,83.5a.33.33,0,0,0,.21.09c.7.31,1.6.72,2.63,1.2,3.82,1.78,9.6,4.48,14.18,5.54,6.3,1.46,14.89.68,18.08-1,2.76-1.43,6.27-2.3,13.27-4L55.64,85c6.79-1.67,8.76-3.71,9.94-4.92.18-.19.34-.35.49-.48l.16-.13a9.18,9.18,0,0,1,.12,1,27.34,27.34,0,0,0,.53,3.67c.59,2.71,1.12,5,1.38,6.1A17.89,17.89,0,0,0,59,87.82H58.9l-.15,0v0a18.38,18.38,0,0,0-3.33.41h-.14v0a23.71,23.71,0,0,0-9.81,5c-9.12,7-13.35,17.72-13.45,18.45a.36.36,0,0,0,.19.43.34.34,0,0,0,.14,0,.5.5,0,0,0,.35-.22c1.32-1.52,3.93-2.7,5.88-3.42.87-.32,1.62-.58,2.31-.79l0,.06.14-.11a39.06,39.06,0,0,1,7-1.3l2.07-.27.62,0v-.11l.93-.13.06.16a3.73,3.73,0,0,0,.42-.23l2.26-.33.06.14a4.45,4.45,0,0,0,.43-.21l1.71-.26A21.72,21.72,0,0,0,61.31,104l.27.41a3.55,3.55,0,0,1,.53.93,1.94,1.94,0,0,0,.38.7.62.62,0,0,0-.39.3l-.07.23.1.15a1.62,1.62,0,0,0,.51.43l.34.21c-.16.59.73,2.13,2,2.73a1.87,1.87,0,0,1,.41.25l-.13.12a2.58,2.58,0,0,0-.26.27,9,9,0,0,0-.89-.5,4,4,0,0,0-1.75-.42H62.2a1.08,1.08,0,0,0-.28-.33,4.67,4.67,0,0,0-2.56-1.05h-.49A6.87,6.87,0,0,0,54,109.93l-.73.64c-1.62,1.41-2.89,2.52-4.13,3.79-1.06,1.09-2.33,3.54-2.71,7.15a12.42,12.42,0,0,0,1.77,8.36,23.58,23.58,0,0,0,1.66,2.54l.26.36H50c-.26,0-.44,0-.57.17a.6.6,0,0,0-.1.5l0,.17a.49.49,0,0,0,.22.39.94.94,0,0,0,.8,0,.78.78,0,0,0-.08.68.46.46,0,0,0,.36.25.57.57,0,0,0,.41-.06v.06a.88.88,0,0,0,.45.55,1.14,1.14,0,0,0,.63.21.79.79,0,0,0,.41-.11.87.87,0,0,0,.34-.37l0,.18a4.19,4.19,0,0,1,.71,0l.13,0v0a1.74,1.74,0,0,1,.59.12,1.91,1.91,0,0,0,1.31,0,2.39,2.39,0,0,1,.48-.08h.17c4.4.05,8.13-1,10.5-3.12,4-3.53,5.93-7.54,5.62-11.92a12.49,12.49,0,0,0-.79-3.83A7.65,7.65,0,0,0,73,113.93c.06-.23.11-.44.15-.63.23-1,.33-1.37,1.36-1.8a3.46,3.46,0,0,1,1.36,1.34c.11.22.18.41.25.58.3.77.49,1.11,2.15,1.76,1.35.53,2.11.79,2.47.91l-.38.2a3.51,3.51,0,0,1-.5.25.44.44,0,0,0-.5.23c-.05.12-.1.36.23.66a1.47,1.47,0,0,0,.22.17.39.39,0,0,0-.15.28c0,.24.12.35.42.45-.15.27,0,.57.21.84h0a3.87,3.87,0,0,0,2.42,1.39l.21,0a1.73,1.73,0,0,0,.74-.18,9.18,9.18,0,0,1,0,4.13l-.25,1.35a43.58,43.58,0,0,0-1,9.08,74.23,74.23,0,0,0,.57,7.75c.12,1.1.24,2.19.34,3.31.3,3.51.79,7.19.8,7.22l.65-.09s-.5-3.7-.79-7.19c-.1-1.12-.22-2.21-.34-3.32a73.71,73.71,0,0,1-.56-7.69,43.05,43.05,0,0,1,1-9c.08-.45.17-.9.25-1.36.51-2.86.11-4.24,0-4.62a3.33,3.33,0,0,0,.93-1.32s0-.1,0-.14h0a8.42,8.42,0,0,0-.36,1.87c-.09.86-.09,1.94.38,2.21a.48.48,0,0,0,.24.07.55.55,0,0,0,.32-.11,1.82,1.82,0,0,0,.29-.29c.63-.73,2.37-2.74,7-3.49a7.64,7.64,0,0,0-1.2.36c-3.27,1.33-5.36,3.35-6.06,5.83-.66,2.32-1.44,9.09-.79,12.28l.28,1.39a12.86,12.86,0,0,0,.75,2.94,3,3,0,0,1-.17,1.72c-.07.25-.13.48-.16.67a34.86,34.86,0,0,0,.27,4.74l.05.56a19.12,19.12,0,0,0,.43,2.91l.64-.17a19,19,0,0,1-.41-2.8l-.05-.56a38.28,38.28,0,0,1-.28-4.57,6.11,6.11,0,0,1,.15-.6,3.42,3.42,0,0,0,.13-2.16,12.42,12.42,0,0,1-.71-2.81l-.28-1.39c-.62-3,.15-9.76.78-12a7.81,7.81,0,0,1,3.84-4.49,7.8,7.8,0,0,0-1.6,3.31c-.57,2.47.76,6.92.9,7.26l.15.35.28-.07.27-.15,0-.28a5.21,5.21,0,0,1,.26-2.23,12.17,12.17,0,0,1,1-2.41c.24-.46.55-1,1-1.92a11,11,0,0,0,1-5.17,14,14,0,0,1,1.5-.19,11.08,11.08,0,0,0-1.53,3.49,7.77,7.77,0,0,0,.07,5.53l.11.3a5.53,5.53,0,0,1,.23,2.64c0,.18-.09.57.24.65l.13,0c.24,0,.44-.3,1-2a8.64,8.64,0,0,1,1.06-1.92,19,19,0,0,0,2.23-4.3c.89-2.41.16-3.74-.5-4.4a40.74,40.74,0,0,1,4.11.4l.11-.65a39.48,39.48,0,0,0-4.69-.43,31.7,31.7,0,0,1,4.89.2h0a.36.36,0,0,0,0,.15h0a14.05,14.05,0,0,0-.7,6.82c.67,3.66,5.28,9.84,6,10.62a4.53,4.53,0,0,1,.84,2,3,3,0,0,0,.28.87l.18.24.24-.08c.75-.25.75-7.35.38-12a12.13,12.13,0,0,0-1.84-5.84,65.52,65.52,0,0,0,5.28,3.93A14.55,14.55,0,0,0,121,128a14.54,14.54,0,0,1,4.16.82,10.18,10.18,0,0,1,3.52,2.11c.29.26.48.43.71.43h.07l.27-.06,0-.26c.07-.79-6.11-9.3-12.62-11.44a31.22,31.22,0,0,0-12.72-1.39l-.44.06a16.28,16.28,0,0,0-4.68-.49,5.71,5.71,0,0,0,2.29-2.43,1.11,1.11,0,0,0-.1-.88c-.64-1.09-1.9-.51-2.66-.16-.14.07-.33.15-.45.19a2.39,2.39,0,0,0-1.85-1.09c-.2,0-.67.18-.7.95a31.88,31.88,0,0,0,.15,3.49h-.3c-6.88.32-9.26,3.08-10,4l-.05.06a4.69,4.69,0,0,1,0-1.44,7.27,7.27,0,0,1,.35-1.78l-.47-.19.17,0a4.15,4.15,0,0,0,2.29.7l.38,0c1.65-.16,2.37-1.13,3.33-2.42A7.78,7.78,0,0,1,93,115.3a2.21,2.21,0,0,0,.73-.8.39.39,0,0,0-.1-.44c-.27-.24-.61-.1-2.24.71-.44.22-.9.45-1.31.63a6.93,6.93,0,0,1-1.63.53,5.16,5.16,0,0,1,1.41-2.43l.12-.11a1.81,1.81,0,0,1,.68-.38c.1,0,.36-.12.32-.4s-.31-.3-.49-.31a2,2,0,0,0-1,.36c.92-1.07,1.14-1.41,1-1.71a.4.4,0,0,0-.44-.2,2.1,2.1,0,0,0-.71.32c.27-.41.42-.76.3-.92l-.25-.22-.25.14a4.44,4.44,0,0,0-.84.76c.16-.57.13-.67-.11-.77l-.31-.07-.14.26-.09.18a2.94,2.94,0,0,1-1.48,1.65l-.49.18a5,5,0,0,0-1.16.54,3.62,3.62,0,0,0-.11-.58,12.8,12.8,0,0,0-1.33-3l-.33-.56a.93.93,0,0,0,0-.25l-.08-.24-.5,0-.07.23a.52.52,0,0,0,0,.27,6.46,6.46,0,0,1-.3,1.49,11.7,11.7,0,0,1-.75-1c-.59-.84-.8-1.12-1.12-1l-.26.14v.23a4.34,4.34,0,0,0,.3,1.24c.05.16.11.35.16.52a.45.45,0,0,0-.29.07.66.66,0,0,0-.26.52,5.63,5.63,0,0,0,0,1.1l-.29-.16.24-.4A7.47,7.47,0,0,1,78,109.09a40.49,40.49,0,0,1-2.82-7.18A26.66,26.66,0,0,0,73,97.48a38.29,38.29,0,0,1-1.81-3.54l.56.51a26.71,26.71,0,0,0,11.95,6.79c7.15,1.81,13.06-.69,17.81-2.7,1.24-.52,2.41-1,3.48-1.38,4.09-1.39,11.63-4.65,11.85-5.41l0-.24-.13-.14c-.2-.21-.48-.14-1.22,0a7.41,7.41,0,0,1-3.78.18c-1.45-.51-4.71-2.92-7.32-4.85-.93-.69-1.79-1.32-2.48-1.81a8,8,0,0,0-4.41-1.56A12,12,0,0,1,95.42,83a13,13,0,0,1-3.59-1.51l-.38.54a13.38,13.38,0,0,0,3.79,1.6,12.48,12.48,0,0,0,2.24.38,7.31,7.31,0,0,1,4.09,1.44c.69.48,1.54,1.12,2.47,1.8l1.42,1a13.19,13.19,0,0,0-4.22,2.47,8.27,8.27,0,0,1-2,1.34,10,10,0,0,1,3.8-3.4l.23-.09,0-.42-.19-.1c-.37-.19-3.85,1.11-5.26,2.19A11.44,11.44,0,0,0,96,92c-.74-.12-1.44-.25-2.12-.39A21.26,21.26,0,0,0,96,90a33.92,33.92,0,0,1,5-3.19c.66-.36.67-.36.71-.52l-.36-.09-.17-.24-.49.27a34.45,34.45,0,0,0-5.12,3.26,20.75,20.75,0,0,1-2.14,1.57l.39-.5c.31-.38.47-.59.28-.83s-.39-.14-.58,0l1.39-1a16.2,16.2,0,0,1,3.53-2.18v-.66h0c-.2,0-1,.23-3.92,2.3S91.15,90.64,91,91l-.45-.1-1.34-.31,0,0c.43-.41,1.23-1.18,2.53-2.3a23.73,23.73,0,0,1,4.7-3.15l-.28-.6a23.94,23.94,0,0,0-4.85,3.25c-1.31,1.13-2.12,1.9-2.56,2.32h0a.62.62,0,0,0-.16-.2.45.45,0,0,0-.51,0A4.92,4.92,0,0,1,87,90.1l-.09,0a44.46,44.46,0,0,1,6.37-5.41l-.35-.56A39.65,39.65,0,0,0,86.17,90q-.75-.13-1.53-.23c.36-.44,1-1.26,2.29-2.62A18.83,18.83,0,0,1,91,83.73l.25-.16-.41-.52-.19.12a19.48,19.48,0,0,0-4.25,3.48c-1.65,1.81-2.34,2.67-2.57,3q-1.08-.11-2.26-.15a28.49,28.49,0,0,1,2.7-3.06,29.56,29.56,0,0,1,5-3.93l-.34-.57a29.61,29.61,0,0,0-5.09,4,30,30,0,0,0-2.42,2.7.49.49,0,0,0-.1-.13c-.3-.26-.78-.08-1.27.15-.19.09-.44.23-.68.38.36-.48,1-1.26,2-2.5a12.66,12.66,0,0,1,5-3.37l-.21-.63a13.1,13.1,0,0,0-5.28,3.57,17.8,17.8,0,0,0-2.63,3.43l-1,.12h0l-.77.13a13.41,13.41,0,0,1,2.6-3.8,12.71,12.71,0,0,1,4-3.27.63.63,0,0,0,.25-.15l-.21-.18A33.32,33.32,0,0,0,87,82.16a30.11,30.11,0,0,0,3.5-.63,70.29,70.29,0,0,0,12.76-4.92c5.33-2.47,9.72-9.27,11.37-11.83l.32-.49A26.24,26.24,0,0,1,119,60.21c1.35-1.17,1.7-1.5,1.78-1.76a.4.4,0,0,0-.11-.43c-.22-.19-.47-.09-1.07.15a14,14,0,0,1-3.71,1,37.08,37.08,0,0,1-6.93-.3l0-.08-.11.07-2.12-.22-.42,0v-.15l-.59.08c-1.76-.19-3.55-.37-5.29-.5-.93-.07-1.81-.11-2.65-.14h0a57.22,57.22,0,0,0-7.11.16,32.78,32.78,0,0,0,9.83-7.18c5.33-5.71,7.63-12.25,9.16-16.58.44-1.24.81-2.31,1.18-3.13a9.44,9.44,0,0,1,2.8-3.84,2,2,0,0,0,.76-.91.48.48,0,0,0-.11-.48c-.35-.37-1.23-.2-3.86.41-1.06.24-2.25.52-3.44.74a24.24,24.24,0,0,1-6.67-.09,37.89,37.89,0,0,0-4.72-.29c-2.31.05-5.15,1.77-7.9,3.43A34.28,34.28,0,0,1,83,32.63a10.17,10.17,0,0,0-6.19,6c-.42,1.05-2.17,3-4,5.05a73.21,73.21,0,0,0-4.91,5.82c-2.29,3.18-4.33,9.18-5.2,11.74l-.14.41h0a19.75,19.75,0,0,1-1-3.26,26.57,26.57,0,0,1,1.16-6c.12-.46.32-1.14.58-2,1.6-5.26,5.34-17.58,3.26-26.94-2-9.21-8.59-12.8-12.49-15-.71-.39-1.32-.72-1.77-1a23.49,23.49,0,0,1-4.62-5C46.42.89,45.77.07,45.23,0a.66.66,0,0,0-.58.16c-.22.23-.16.55-.06,1.08a10,10,0,0,1,0,3.91,44.22,44.22,0,0,1-1.35,4.94,89.2,89.2,0,0,0-3.11,12.5,21,21,0,0,0,5.33,18,57,57,0,0,1,7.39,11c.82,1.59,2.65,4.13,6.67,7.17l.17.13a24.18,24.18,0,0,1,1.78,4.66c-.51-.42-1.37-1.25-2.15-2-.57-.56-1.19-1.16-1.81-1.74a32.07,32.07,0,0,0-7.9-5.42,15.17,15.17,0,0,1-2.61-1.86,30.8,30.8,0,0,0-13.13-6.85c-9.72-2.21-15.73.46-19.41,2.67C11.62,50,6.23,51.57,3,52.49c-2.46.71-2.76.81-2.9,1L0,53.74l.08.17c.13.29.47.32,1.46.41A20.64,20.64,0,0,1,5.66,55c1.83.56,3.84,2.13,6.64,4.3,1.66,1.29,3.54,2.76,5.86,4.4,3.86,2.73,6.25,3.9,10,4.75a81.8,81.8,0,0,0-11.41,6.07c-1.22.83-2.45,1.69-3.62,2.51-3.09,2.17-6.59,4.63-7.4,4.4-1-.28-5-.36-5.24.55a.44.44,0,0,0,.07.39c.19.25.54.25,1.26.26a10.49,10.49,0,0,1,3.34.46C5.36,83.22,5.66,83.35,6,83.5Zm83.38,40.65a6.72,6.72,0,0,1,2.22-3.79,12.45,12.45,0,0,0-1.73,4,14.05,14.05,0,0,0-.48,2.77A9,9,0,0,1,89.39,124.14Zm.38,5.08,0,0v0Zm2.23-5c-.43.87-.73,1.45-1,1.9a12.73,12.73,0,0,0-.94,2.07,9.23,9.23,0,0,1,.41-3.72A9.61,9.61,0,0,1,93,119.76,10.34,10.34,0,0,1,92,124.25Zm2.22-1.41a8.19,8.19,0,0,1,1.8-3.71h.33c0,.11,0,.3-.09.65A27.49,27.49,0,0,1,95,125.71a11.28,11.28,0,0,0-.7,2.3l0,0A7.11,7.11,0,0,1,94.23,122.84Zm.45,6.74h.1l-.07.21C94.7,129.72,94.68,129.65,94.68,129.58Zm3.4-6.27a18.46,18.46,0,0,1-2.16,4.17,9.56,9.56,0,0,0-1.09,2A8.75,8.75,0,0,1,95.6,126a28,28,0,0,0,1.32-6.1c0-.35.08-.59.1-.67l-.24-.08h.46l0,.1C97.28,119.26,99.25,120.13,98.07,123.32Zm5-3.86a7.21,7.21,0,0,1,.77,1,9.45,9.45,0,0,0-1.16,2.89,7.73,7.73,0,0,0-.25,1.43A13.68,13.68,0,0,1,103,119.46Zm2,11.67c-.26-.42-.51-.85-.75-1.28l.14-.08a4.6,4.6,0,0,1-.33-2.28,14.72,14.72,0,0,1,1.16-4.2c.25.6.48,1.2.7,1.79l-.11-.06a9.69,9.69,0,0,0-.95,3.76A11.68,11.68,0,0,0,105,131.14Zm-1.6-3.67c0,.27,0,.52,0,.75-.2-.43-.39-.86-.54-1.26l.19,0a9.15,9.15,0,0,1,.18-3.38,11.6,11.6,0,0,1,.91-2.45c.25.43.49.89.72,1.38A16.12,16.12,0,0,0,103.45,127.47Zm4.88,8.36a34.37,34.37,0,0,1-2.6-3.6l.23-.08a10,10,0,0,1-.39-3.33,9.3,9.3,0,0,1,.65-3l.12.36a34.85,34.85,0,0,1,2,9.7Zm.87,1.8a4.7,4.7,0,0,0-.65-1.52l.49,0c0-.14.1-3.56-2.08-10.14a37.08,37.08,0,0,0-1.34-3.5.31.31,0,0,0-.06-.36l-.15-.16h0l-.08-.16a8.36,8.36,0,0,1,1.39,1.09,8.08,8.08,0,0,1,1.64,2.09l.32-.16a14.06,14.06,0,0,1,.43,2.54A66.86,66.86,0,0,1,109.21,137.62Zm1.24-17c-.11-.24-.22-.48-.33-.71l.37.1A1.7,1.7,0,0,0,110.45,120.64Zm-.29,1c.41,1,.5,1.22.85,1.13s.28-.44.26-.67,0-.38-.06-.57l0-.42c.5,1,1.13,2.51,1.33,3-2-1.43-3.7-2.77-4.93-3.79l-.9-.74a4.47,4.47,0,0,0,.76,0c.78,0,1.74-.1,2.07.52S110,121.18,110.16,121.65Zm2.5,2.59.5-.2c0-.11-1.08-2.67-1.69-3.74.49.14,1,.31,1.55.49a10.52,10.52,0,0,1,.85,2.38,14.78,14.78,0,0,1,.41,2.14c-.24-.14-.47-.28-.72-.44Zm4.61.91a6.92,6.92,0,0,0-.15-1l0-.15a25.6,25.6,0,0,1,.78,2.85,13,13,0,0,1-2.89-1.16,13.13,13.13,0,0,0-.47-2.7,14.74,14.74,0,0,0-.62-1.91l1.21.46h0c1.48,4,1.59,4,1.91,4l.29-.09Zm3.78,2.22a22.43,22.43,0,0,1-2.47-.32c-.16-.76-.76-3.52-1.42-4.38-.08-.11-.33-.42-.64-.29s-.25.22-.26.48l-.37-1c.46.19.92.39,1.4.6a39,39,0,0,1,9.76,6.51,13.65,13.65,0,0,0-1.66-.76A15.29,15.29,0,0,0,121.05,127.36Zm6.83,2.12.12-.11.29.4Zm-11-9.24c4,1.31,7.67,5,9.93,7.68a39.43,39.43,0,0,0-9.29-6.05,37.28,37.28,0,0,0-10.27-3.13A31.17,31.17,0,0,1,116.93,120.25Zm-10.42-1.5a.57.57,0,0,0-.3.11l-.17.23,0,0-.46-.34Zm-1.86.23-.12.32a7.45,7.45,0,0,1,3.79,4.41,9.77,9.77,0,0,0-1.15-1.29,6.45,6.45,0,0,0-2-1.44l-.09.27a9.18,9.18,0,0,0-1.76-2.47,3,3,0,0,1,.57.16l.09-.16.45.1A1.2,1.2,0,0,1,104.65,119Zm-8.16-4.58c0-.2.05-.31.13-.32.35-.05,1.14.59,1.22.81a.44.44,0,0,0,.24.27c.26.11.57,0,1-.23,1-.45,1.53-.59,1.82-.1a.47.47,0,0,1,0,.38c-.24.91-2.11,2.15-2.89,2.6l-1.43,0A32,32,0,0,1,96.49,114.4ZM7.79,83.57l-.51-.23.67-.23A4.21,4.21,0,0,0,7.79,83.57Zm1,.47A11.47,11.47,0,0,0,10.52,83l-.09-.13c.52,0,1.08-.12,1.66-.21a21.6,21.6,0,0,0-2.32,1.26c-.17.12-.34.25-.35.45l-.29-.14Zm-.27-.6.05-.13a1.79,1.79,0,0,0,.14-.46h0l.73,0A10.9,10.9,0,0,1,8.53,83.44Zm6-3.34c-.22-.16-.49-.37-.72-.56a27.72,27.72,0,0,1,3.09,1.27l-1.46.38C15.6,80.89,15.35,80.7,14.55,80.1Zm1.93,1.52c-.35.29-.82.68-1.54,1.24A13.52,13.52,0,0,1,12,84.64l.36-.52c.49-.7.7-1,.66-1.23,1-.46,1.78-.84,1.8-.84h0Zm-5.35,3.5L10,84.62a10.57,10.57,0,0,0,1.73-.79,5.85,5.85,0,0,0-.63,1A.44.44,0,0,0,11.13,85.12ZM40.8,88.77c-2.72,1.41-10.95,2.47-17.63.92A66.88,66.88,0,0,1,11.7,85.38a11.14,11.14,0,0,0,3.64-2c1.17-.9,1.73-1.4,2.07-1.7a2.84,2.84,0,0,1,.42-.34l0-.07,1.58-.43,2-.53a32.11,32.11,0,0,0-2.49,2.15,8.08,8.08,0,0,1-4,2.29,1.83,1.83,0,0,0-1,.46.39.39,0,0,0,0,.55c.34.35,2.27-.46,3.58-1.12-.38.48-.7.89-.82,1.08a.46.46,0,0,0,.07.61.76.76,0,0,0,.51.15c.87,0,2.6-.74,5-2.58a20,20,0,0,0,5-5.1l.78-.19c.8-.19,1.52-.35,2.2-.5a9.11,9.11,0,0,0-1.74,1.76,40.43,40.43,0,0,1-5.89,6.32c-.25.22-.43.37-.53.48-.24.25-.15.44-.07.53.23.26.23.26,1.89-1l.67-.5,0,.1c-.46,1.12-.71,1.82-.39,2.18a.5.5,0,0,0,.39.16.78.78,0,0,0,.22,0c1.34-.39,4.15-2.61,6.93-6.08a23.39,23.39,0,0,1,4.77-4.77h0a23.06,23.06,0,0,1,2.7.11,20,20,0,0,0-3.57,4.26c-1.49,2.44-4.74,5.62-6.44,6.3l.25.61c1.84-.74,5.18-4,6.75-6.57a19.55,19.55,0,0,1,3.6-4.25l-.27-.32,1.78.21,1.6.19c-.22.94-1.43,4.76-7,8.84a13.49,13.49,0,0,1-9.29,2.71l-.11.65a8.34,8.34,0,0,0,1.25.08,14.49,14.49,0,0,0,8.53-2.91c5.91-4.34,7.07-8.37,7.26-9.3.81.09,1.69.17,2.7.24a31.78,31.78,0,0,1-5.63,7.56C37.1,89,34.86,89,34.81,89l0,.66h0a6.13,6.13,0,0,0,2.59-.8l.07.55a14.88,14.88,0,0,0,7.63-4,22.35,22.35,0,0,0,5.19-7.06l2.88.12A23.69,23.69,0,0,1,49,83.61c-3,2.87-4.93,3.27-5,3.28l.1.5A23.19,23.19,0,0,0,40.8,88.77Zm-22.5-12c.54.1,1.27.24,2.27.45a11.8,11.8,0,0,1,3.67,1.61l-2.07.54C22.13,78.88,19.76,77.57,18.29,76.82Zm.57,6.53h0l.44-.4a16.42,16.42,0,0,1,3.91-3.07l0-.05L26.27,79a22.32,22.32,0,0,1-4.44,4.34c-2.46,1.88-3.89,2.37-4.45,2.44L18,85C19,83.7,19.12,83.6,18.87,83.35Zm16.39-6a29.25,29.25,0,0,0-4.11,4.3c-2.73,3.4-5.36,5.4-6.51,5.83a8.72,8.72,0,0,1,.48-1.39c.34-.83.47-1.14.21-1.36a.37.37,0,0,0-.12-.07A45,45,0,0,0,29,80.28a6.42,6.42,0,0,1,3.67-2.62C33.64,77.5,34.49,77.39,35.26,77.34ZM14.74,60.4,14,59.86a10.87,10.87,0,0,0,2.42.26c.28,0,.57,0,.87,0a10,10,0,0,0,4.13-1.49c.5-.27,1.06-.56,1.71-.88a17.83,17.83,0,0,1,3.14-1.3q1.51.3,3,.65a24,24,0,0,0-3.44,1.71c-4.09,2.37-4.89,2.54-7.11,2.38a11.51,11.51,0,0,1-3.93-1Zm8-4.61,2.23.37c-.52.21-1.2.51-2.11,1-.65.32-1.22.62-1.73.89a9.39,9.39,0,0,1-3.87,1.42,10.16,10.16,0,0,1-3.35-.28l-.15.5-.93-.72a15,15,0,0,0,5.55-1.52c2.13-1,3.07-1.52,3.48-1.76Zm10.31,1.5L33,57.14l.94.08c.53,0,1.13.13,1.77.23l.23.6-2.54-.67Zm-.79-.2-.08,0h.08Zm14.06-4a14.87,14.87,0,0,1,3.18,4.76A17.63,17.63,0,0,0,51,60.76L48.5,60c-1-1.72-2.53-4.57-3.49-6.66a11.93,11.93,0,0,0-2-3.1c1.25.83,2.31,1.65,3.22,2.39l-.17.09A1.73,1.73,0,0,0,46.34,53.07Zm5.28,8.58.15.2-1.48-.34v0h-.2l-.87-.2L49,60.84Zm1.22.44L52.76,62l.72.23Zm-4.28-.31a11.43,11.43,0,0,0-2.73,1.37c-.74.49-1.34.95-1.87,1.35a10.14,10.14,0,0,1-3.15,1.84c3.31-1.87,5.18-4.16,5.43-5.1Zm-.21-.73-3.1-.72L45,59.67l3.08.9Zm-3.88-.91-3.21-.77-.36-.81c1.07.27,2.17.56,3.3.88Zm-4-1-3.1-.78,0-.08a3.59,3.59,0,0,0-.65-.14l-.23-.6c1.09.2,2.3.47,3.58.78Zm-4.2-.37,2.18.55a15.77,15.77,0,0,0-4.69,2,22.48,22.48,0,0,1-7.49,3.71c-2.94.76-4.33.22-4.34.22l0,0q-.76-.44-1.58-1c.31,0,.65,0,1,0a11.77,11.77,0,0,0,2.5-.26,10.09,10.09,0,0,0,3.82-1.89,31.12,31.12,0,0,1,3.59-2.2A9.71,9.71,0,0,1,36.24,58.81ZM26.4,65.75a23.07,23.07,0,0,0,7.71-3.81,17.08,17.08,0,0,1,5.72-2.23l1.48.36c-.85.43-2.5,1.31-4.41,2.53l-.46.29c-2.5,1.6-4.16,2.65-6.39,3l.1.65c2.36-.37,4.06-1.46,6.64-3.1l.45-.29a49.88,49.88,0,0,1,5-2.8l0-.08,3,.71-.9.6a47.69,47.69,0,0,1-6.85,4,20.84,20.84,0,0,1-9.24,1.66l0,.58a22.3,22.3,0,0,1-4.75-1.64A12.24,12.24,0,0,0,26.4,65.75Zm2.81,2.19a21,21,0,0,0,8.49-1.75,48.26,48.26,0,0,0,6.94-4l.64-.43a15.05,15.05,0,0,1-5.4,4.38c-.28.14-.63.29-.93.41-.65.27-.89.37-.8.69s.36.31,1.75,0A9.44,9.44,0,0,0,44.35,65c.52-.4,1.12-.84,1.84-1.32A8.51,8.51,0,0,1,50,62.13l1.68.39.17,0a18.69,18.69,0,0,0-2.66,1.74,14.48,14.48,0,0,1-6.51,3.06l.1.65a15.14,15.14,0,0,0,6.81-3.19,16.72,16.72,0,0,1,3.27-2l2.12.49a19.12,19.12,0,0,1-3.77,2.35,14.18,14.18,0,0,1-4.41,1.46l.06.66a14.52,14.52,0,0,0,4.64-1.52,17,17,0,0,0,4.26-2.75,28.61,28.61,0,0,1,4.07,1.1l.18-.15h0l.13.27.25-.14.51.17-.49.23c-8.29,4-15.75,5.53-22.17,4.57l-1.26-.19c-3.66-.54-6.3-.94-8.47-1.42ZM62.1,68l.11.47c.34,1.49,1.66,5.35,2.47,7.49a9.12,9.12,0,0,0-1.8-1.27l-.11-.06a37.1,37.1,0,0,1-4.46-2.58,30.1,30.1,0,0,0-7.21-2.86,55,55,0,0,0,9.67-3.66l.54-.26A11.11,11.11,0,0,1,62.1,68Zm-11.45,9.7-3-.15a27.53,27.53,0,0,0-3.15-4.28,12.66,12.66,0,0,0-4-2.88,29.58,29.58,0,0,0,4.87-.13l-.3.44a28.29,28.29,0,0,1,3.52,3.75C50.53,76.7,50.66,77.51,50.65,77.72Zm-3.21.5,2.12.11a22.32,22.32,0,0,1-4.92,6.61,15,15,0,0,1-6.94,3.75A16.45,16.45,0,0,0,41,86.18a32.64,32.64,0,0,0,5.9-8ZM37,70l1.24.18A14.37,14.37,0,0,1,44,73.73a28.79,28.79,0,0,1,2.84,3.8c-1.47-.09-2.7-.21-3.78-.33a18.66,18.66,0,0,0-4.88-5.09A22,22,0,0,0,33,69.4Zm13.76,7.72h0Zm5.61.88a12,12,0,0,1-3.41,4.19A29.94,29.94,0,0,1,49,85.86l.06.11c-1.27.33-2.38.63-3.37.92a18.14,18.14,0,0,0,3.73-2.81,23.52,23.52,0,0,0,4.45-5.58Zm5.61.16,1,0A30.93,30.93,0,0,1,60,81.88a34.62,34.62,0,0,1,1.93-3.1Zm-4.86,3.89.72-1.18c1.39-2.29,1.58-2.6,1.41-2.78l1.91,0C60.41,79.53,58.47,81.38,57.07,82.65Zm1.44-3.82c-3.16,4.25-4.66,5.5-5.36,5.8l.13.29-2.73.68c.62-.48,1.51-1.2,2.81-2.32C56.42,80.6,57,78.73,57,78.65l-.12,0,1.77.05Zm-4.23,5.85a15.28,15.28,0,0,0,2-1.92c-.36.58-.66,1-.79,1.23l-.14.22.09.2Zm8.57,4.18,0,.06a9.69,9.69,0,0,1,2.13,1.64c-.48-.33-1.05-.71-1.74-1.14a13.68,13.68,0,0,0-1.38-.75C62.16,88.72,62.51,88.79,62.84,88.86ZM59,88.49A9.54,9.54,0,0,1,62.84,90c1.2.74,2,1.35,2.6,1.76a16.48,16.48,0,0,0-1.72.23,11,11,0,0,0-3.8-2.49,16.67,16.67,0,0,0-2.43-.91C58,88.52,58.53,88.5,59,88.49Zm-4.3,16.35-1.51.22a6.74,6.74,0,0,0,1.25-1.74,7.69,7.69,0,0,0,.86-2.56,14.61,14.61,0,0,1,.45-1.9A8.68,8.68,0,0,1,58,95l.5-.18a14.32,14.32,0,0,0-1.05,3.32A20.71,20.71,0,0,0,57,100.9a5.75,5.75,0,0,1-.45,2A4.12,4.12,0,0,1,54.72,104.84Zm-3.94.11a10.72,10.72,0,0,0,1.55-3.41l.14-.42a18.21,18.21,0,0,1,1.83-3.86l-.08-.05.93-.66a1,1,0,0,0,.47-.32l.9-.58a11.09,11.09,0,0,0-1.39,3,15.42,15.42,0,0,0-.47,2,7.06,7.06,0,0,1-.8,2.38A5.68,5.68,0,0,1,52,105.24l-1.17.16C50.8,105.22,50.79,105.07,50.78,104.95ZM40,104.89a.37.37,0,0,0,0-.14l.33-.25.54,0Zm1.64-1-.53,0,.2-.14Zm.92-.16a2.92,2.92,0,0,0-.64-.44c.6-.41,1.22-.84,1.9-1.27a9,9,0,0,0,1.52.33C44.29,102.9,43.37,103.36,42.51,103.76Zm2-2.19.38-.24c.3.15.56.29.79.42A6.76,6.76,0,0,1,44.53,101.57Zm2.21,0h0a4.17,4.17,0,0,1-.39-.21l-.77-.42.73-.43a11,11,0,0,1,1.45.47Zm-1.87-1c-.24-.11-.48-.21-.74-.31a9.88,9.88,0,0,1,1.17.05Zm3.56,0A8.91,8.91,0,0,0,47.1,100l1.35-.75c.59.15,1,.25,1.4.3C49.39,99.91,48.92,100.22,48.43,100.54Zm1.07-1.82.11.06.26.14-.54-.11Zm1.43.09-.19-.14.34,0Zm1.38-1L52,98a2.09,2.09,0,0,0-.61-.25l1.5-.72.28.1Zm3.17-8.89a11.3,11.3,0,0,1,4.17,1.18,12.06,12.06,0,0,1,3.31,2l-.59.15h0l-.79.24a16.08,16.08,0,0,0-3.28-1.8,11.46,11.46,0,0,0-5.44-1l.06.66a11,11,0,0,1,5.1.94c1.11.53,1.83.9,2.29,1.16l-.45,0c-.48,0-.95,0-1.1.34l0,.09a26,26,0,0,0-7.35-2.57A19.91,19.91,0,0,1,55.49,88.9Zm4.06,4.23,0,0H60l-.09.05-.25.11S59.58,93.18,59.54,93.14ZM38.33,107.95a18.75,18.75,0,0,0-5.27,2.77c1.27-3,5.46-11.27,12.8-16.9a26.89,26.89,0,0,1,4.55-3v0a25.8,25.8,0,0,1,5.28,1.4,24.6,24.6,0,0,1,3.12,1.45q-.86.41-1.63.85c-.31-.17-1.16-.62-3.06-1.46a16.91,16.91,0,0,0-4.59-1.3l-.17,0-.16.64.25,0a16.28,16.28,0,0,1,4.41,1.25c1.29.57,2.08,1,2.55,1.19l-1.29.52a39.31,39.31,0,0,0-7-2.1l-.1.65a39.69,39.69,0,0,1,6.26,1.81l-1.37.61c-.53-.19-1.26-.44-2.24-.74a20.86,20.86,0,0,0-5-.9l0,.66a20.55,20.55,0,0,1,4.8.87c.63.2,1.15.37,1.58.51l-1.43.69-.17.09L48.24,97a12.12,12.12,0,0,0-3.93-.47l.23.62a12.84,12.84,0,0,1,3.57.5l1.19.25a.33.33,0,0,0-.22.24s0,0,0,0l-.72.38-.47-.13a29.92,29.92,0,0,0-5.2-.82l-.47,0-.09.32-.26.2c.1.13.12.13.76.19a30.22,30.22,0,0,1,4.89.75l-1.33.76a13.75,13.75,0,0,0-4.52,0h0a.58.58,0,0,0-.27.12l-.13.17.22.38h.21a6,6,0,0,1,2.49.54l-.53.33a11.67,11.67,0,0,0-4.05-.45l.07.66a11,11,0,0,1,3.24.28c-.62.41-1.2.81-1.75,1.19a5.24,5.24,0,0,0-1.77-.34v.66a4.32,4.32,0,0,1,1.1.16l-.44.33-1.1-.11-.36,0c-.21,0-.53-.05-.62.24s.15.43.52.63h0l-1-.2-.15.64.92.19-.75.62a19.93,19.93,0,0,1-2.28.65l.12.65s.36-.07.91-.22a25.21,25.21,0,0,0-1.89,1.86l.5.43a28.84,28.84,0,0,1,2.94-2.77c.85-.29,1.92-.69,3.19-1.24a17.06,17.06,0,0,1-1.29,1.13c-1.34,1-1.92,1-1.93,1l-.13.65h.15a4.17,4.17,0,0,0,2.31-1.12,20.71,20.71,0,0,0,1.74-1.55l.34-.33a.47.47,0,0,0,.28.42l.09,0a18.9,18.9,0,0,1-1.87,1.76C40,107.34,39.23,107.61,38.33,107.95Zm6-4.34,1.36-.7c.48-.26.93-.51,1.37-.76a10.42,10.42,0,0,1-.88,1.73l-.16-.09-.19.24a5.41,5.41,0,0,1-.7.51c-.71.47-1,.66-.89,1a.42.42,0,0,0,.48.25l.17,0-.06.11.44.25a31.15,31.15,0,0,0-3.07.58C43.18,105.79,44.32,104.52,44.33,103.61ZM48,105.76l-2.55.34.54-.95a9.62,9.62,0,0,0,2-3.54c1-.62,1.92-1.24,2.77-1.85a9.07,9.07,0,0,1-1,2.55,12.42,12.42,0,0,1-2.34,2.86l.43.5a12.87,12.87,0,0,0,2.48-3,9.68,9.68,0,0,0,1.19-3.44l1.19-.88.37-.28a20.28,20.28,0,0,0-1.23,2.85l-.14.42a11.35,11.35,0,0,1-1.32,3l-.17,0-.15.19-.36.4c-.3.33-.48.54-.59.69Zm8.54-1.21-.45.07a4.35,4.35,0,0,0,1-1.51,6.33,6.33,0,0,0,.5-2.15,20,20,0,0,1,.42-2.71,10.42,10.42,0,0,1,1.36-3.78L60.9,94a4.29,4.29,0,0,0-.39.71c-.48,1.15-.54,2.14-.68,4.52l-.06,1c-.18,2.84-1.49,3.26-1.5,3.26l.17.63C57.82,104.32,57.2,104.45,56.54,104.56Zm6.2.59a3.88,3.88,0,0,0-.62-1.14l-.2-.3q.55-.24,1.06-.52a7.7,7.7,0,0,1,3.19,1,3,3,0,0,1,1.54,2.44l-.52-.31a5,5,0,0,1-1,1.22,3.61,3.61,0,0,1-.14-.67,1.68,1.68,0,0,0-.49-1.19.8.8,0,0,0-.64-.11c-.24.05-.58.1-.92.15l-.81.12A1.71,1.71,0,0,1,62.74,105.15Zm3.77-1.54a8.23,8.23,0,0,0-2.6-1,13,13,0,0,0,5.78-8.23c.53,1,1.58,4.2,2.68,7.5l.29.87c.8,2.41,1.46,3.94,1.83,4.26-.51.14-1.26.32-2.41.57-2.57.55-3.35.37-3.59.21a.18.18,0,0,1-.09-.12,2.49,2.49,0,0,1,0-.38A3.85,3.85,0,0,0,66.51,103.6Zm-3.53,3h0l.17.14-.19-.12Zm-.68,3.88a3.32,3.32,0,0,1,1.48.35,9.57,9.57,0,0,1,2.6,1.93,2,2,0,0,0,.42.36c-.27.05-.43.38-1.24,2a61.48,61.48,0,0,1-5.28,9.23,45.55,45.55,0,0,1-7.43,8.13h0c0-.54-.06-.93-.39-1s-.37.05-.51.29a1.75,1.75,0,0,1-.21.29,9,9,0,0,0-.08-3.18c-.39-2.11-1.33-9.4,2.73-14.63,2.2-2.83,4.73-4.23,7.13-4a.8.8,0,0,0,.22,0A.92.92,0,0,0,62.3,110.43Zm6.44,2.94L68,113a1.1,1.1,0,0,1,.48-.6,6.89,6.89,0,0,1,1.11-.46A4.32,4.32,0,0,0,68.74,113.37Zm-.61-1.58a1.76,1.76,0,0,0-.75.87,1.7,1.7,0,0,1-.51-.38l-.14-.15a11.05,11.05,0,0,1,1.94-.59C68.37,111.67,68.14,111.79,68.13,111.79ZM51,129a10.19,10.19,0,0,1,.17,1.68c-.14-.5-.33-1.11-.56-1.85-.18-.57-.38-1.21-.59-1.93-.85-2.84-1.12-5.18,2.73-11.39C49.82,120.71,50.64,127,51,129Zm1.28,4.2a2.88,2.88,0,0,0-.44-.29l-.06,0a2,2,0,0,0,.41-.34h0A2.62,2.62,0,0,0,52.28,133.18Zm-3.5-3.65a11.69,11.69,0,0,1-1.69-8c.37-3.45,1.59-5.8,2.53-6.76,1.22-1.25,2.48-2.35,4.09-3.75l.73-.64a6.31,6.31,0,0,1,4.42-1.37h.55a3,3,0,0,1,1.28.39c-1.8-.06-5.37.7-8.4,5.56-4.09,6.54-3.78,9.13-2.9,12.07.21.71.42,1.36.59,1.93a9.79,9.79,0,0,1,.75,3.18l0,0a1.08,1.08,0,0,1-.13-.17l-.09.06-.08-.11A23,23,0,0,1,48.79,129.53Zm2.09,3.62h0l0,0Zm.42.56a.41.41,0,0,0,0-.36l.23.12.08,0A1.83,1.83,0,0,0,51.3,133.71Zm1,1.29c-.07,0-.19,0-.34-.08l-.14-.1.09-.12a4.14,4.14,0,0,0,.3-.43l.07-.13a1.27,1.27,0,0,1,.13.5A.39.39,0,0,1,52.25,135Zm.36-1.48.19-.15.41-.33a2.22,2.22,0,0,0-.32.79c0,.05,0,.1,0,.15A1.81,1.81,0,0,0,52.61,133.52Zm13.82-1.7c-2.25,2-5.82,3-10.06,3h-.18a2.93,2.93,0,0,0-.62.09,1.29,1.29,0,0,1-.89,0,2.35,2.35,0,0,0-.83-.17.67.67,0,0,1-.3-.75c.11-.68,1.26-1.94,4-5l2.2-2.42c4.27-4.72,7.7-12.19,7.43-13.21l.28.14c.3.15.69.35,1.22.65,1.44.81,2.82,2.14,3.11,6.33S70.31,128.43,66.43,131.82Zm18.15-13.34c-.31.84-1.14,1.52-1.73,1.44a3.27,3.27,0,0,1-2-1.1,1.71,1.71,0,0,0,.83,0,.39.39,0,0,0,.31-.4c0-.33-.35-.41-1.07-.56a1,1,0,0,0,.66-.48.41.41,0,0,0-.08-.5c-.25-.22-.62,0-1.15.25l-.1,0,.42-.22A3,3,0,0,1,84,116.6,1.46,1.46,0,0,1,84.58,118.47ZM90.38,116c.41-.18.88-.42,1.33-.64l.54-.27A8,8,0,0,0,91,116.4c-.88,1.19-1.45,2-2.81,2.1a3.45,3.45,0,0,1-1.79-.32,3.88,3.88,0,0,0,1.7-1.54A6.6,6.6,0,0,0,90.38,116Zm-4.44-3.1.5-.18a2.74,2.74,0,0,0,1-.67.37.37,0,0,0,.12.12l.06,0c-.2.23-.36.41-.46.51l-.27.27.21.23c.21.24.38.1.8-.22q.88-.7,1.44-1.09l-.55.64a5.59,5.59,0,0,0-.85,1.09l-.08.28L88,114c.16.13.31.11.6,0a11.81,11.81,0,0,0-.82,1.83,3.36,3.36,0,0,1-2.44,2,2,2,0,0,0-1-1.81,3.13,3.13,0,0,0-.77-.35,4,4,0,0,0,.94-1.92l.06,0C84.73,113.35,85,113.22,85.94,112.9ZM80.24,111l.14,0,.24,0,.14-.14c.19-.2.13-.48-.09-1.19a5.79,5.79,0,0,0,.87,1.06.48.48,0,0,0,.59,0,2,2,0,0,0,.51-1.12,11.72,11.72,0,0,1,1.17,2.66,3.15,3.15,0,0,1-1,3.15,3.89,3.89,0,0,0-1.67.37l.08-.27.57,0a5.13,5.13,0,0,0-1.34-2.91A3.82,3.82,0,0,1,80.24,111ZM80,113.33l.07,0a4.51,4.51,0,0,1,1,2.21c-.29-.09-1.06-.35-2.53-.93s-1.54-.78-1.77-1.38c-.07-.18-.15-.38-.27-.62a3.72,3.72,0,0,0-1.19-1.34h0a20.83,20.83,0,0,1,3.45,1.15,3.66,3.66,0,0,1,1.05.7A2,2,0,0,0,80,113.33ZM73.8,86c-2.81,2.18-3.1,3.59-3.23,4.37l-.07-.23c-.11-.39-.26-.9-.47-1.54C69.45,86.84,68.38,81.9,68,80c1.44.87,4.93,2.72,8,2.37a23.75,23.75,0,0,1,4.24-.06A25.75,25.75,0,0,0,73.8,86Zm1.1,0a27,27,0,0,1,2.44-1.58A13.81,13.81,0,0,0,75.11,87c-.67,1-1.18,1.78-1.57,2.43a10.86,10.86,0,0,1,1.66-3.2Zm-.84,5.11c.83.29,1.5,1.61,2.28,3.15.28.55.57,1.14.9,1.72a10.15,10.15,0,0,0,2.38,3.1c-.78-.36-1.5-.74-2.17-1.13-.19-.27-1.22-2-2.33-4A6.53,6.53,0,0,0,73,91.53C73.3,91.4,73.66,91.26,74.06,91.12Zm-1.85.75a5.34,5.34,0,0,1,2.32,2.41c.74,1.32,1.25,2.24,1.63,2.88-.75-.5-1.41-1-2-1.47a4.24,4.24,0,0,0-.9-2.29,13.81,13.81,0,0,0-1.12-1.5Zm31.48,1.61-.22-.14h.18A.52.52,0,0,0,103.7,93.48Zm3.41-1.34c-.16.27-.14.45-.06.56l-1.34,0c.42-.21.92-.48,1.57-.85Zm-2.68,2.14a.55.55,0,0,0,.06-.62l.61.22a24.23,24.23,0,0,0,2.57.84A9.7,9.7,0,0,0,109,95l-1.45.58h0a22,22,0,0,1-3.25-1.15A.4.4,0,0,0,104.44,94.27Zm10.66-2.09c-1.05.55-2.73,1.34-4.64,2.16l-.08-.11s-.61.34-2.55-.15a21.18,21.18,0,0,1-2.17-.7h0a34.86,34.86,0,0,0,7.13-.55l-.09-.41A9.48,9.48,0,0,0,115.09,92.18Zm-3.15.14a37,37,0,0,1-4,.35,14.76,14.76,0,0,0,1.74-1.16l-.35-.47a12.05,12.05,0,0,0,2.15,1.16Zm-10.28-1.05a12.79,12.79,0,0,1,4-2.34l-.19-.6c1.34,1,2.68,1.94,3.83,2.68-.38.28-.82.58-1.18.81l.19-.24c.3-.39.47-.6.26-.84s-.49-.08-.7,0l-.37.21a31.06,31.06,0,0,1-2.88,1.52,5.49,5.49,0,0,1,2.18-1.81l-.27-.6a5.73,5.73,0,0,0-2.77,2.59c-1.15,0-2.39-.09-3.76-.19H100A9.92,9.92,0,0,0,101.67,91.27Zm-3.44-.46a11.17,11.17,0,0,1,2.39-1.29,16.48,16.48,0,0,0-2,2.36,5.11,5.11,0,0,1-.32.41l0,0-1.49-.19A12.34,12.34,0,0,1,98.23,90.81Zm-5.45.06-.13.18a2.06,2.06,0,0,0-.15.28l-.38-.09ZM80.33,89.27a3.08,3.08,0,0,1,.46-.19l-.05.16c0,.08-.05.15-.07.22h-.38l-.19,0v0H80Zm-.73.86h.64c1.33.17,2.6,1.26,4.47,3.82a23.14,23.14,0,0,1,1.72,2.68,7.34,7.34,0,0,0,1.52,2,5.73,5.73,0,0,0,3.85,1.5h.11l0-.66a5.07,5.07,0,0,1-3.46-1.31A6.72,6.72,0,0,1,87,96.3a24.05,24.05,0,0,0-1.76-2.75,13.88,13.88,0,0,0-3.16-3.4h.29c1.56.21,3.4,1.42,5,3.34a17.16,17.16,0,0,1,1.37,1.82,9,9,0,0,0,2.11,2.31A6.8,6.8,0,0,0,95,99.34h0l0-.66a6.1,6.1,0,0,1-3.68-1.55,8.32,8.32,0,0,1-2-2.17,18,18,0,0,0-1.41-1.88,12.62,12.62,0,0,0-3.09-2.67q.75.1,1.48.23a1.07,1.07,0,0,0,.65.12l1.31.27-.06.09A21.36,21.36,0,0,1,92,94.39l.36.39a12.37,12.37,0,0,0,3.24,2.89A10.65,10.65,0,0,0,96.14,99l.59-.3c-.1-.21-.21-.43-.3-.64l.22.08c.75.26,1,.33,1.11,0s0-.38-1.12-.89L96,97l-.32,0a12.66,12.66,0,0,1-2.92-2.68l-.36-.39a23.36,23.36,0,0,0-2.82-2.6l.76.18,1.69.39A11.31,11.31,0,0,0,94.93,95a15,15,0,0,0,4,2.06l.19-.63a14.62,14.62,0,0,1-3.84-2A10.81,10.81,0,0,1,93,92.11c1.23.27,2.53.51,4,.71a11.15,11.15,0,0,0,3.77,2.85l1.13.84.39-.53-.21-.15.29-.08c.33-.12.37-.32.36-.44,0-.36-.42-.43-1.36-.6a6.11,6.11,0,0,1-1-.22l-.34.07A12.28,12.28,0,0,1,98,93c.63.07,1.28.14,2,.19l1.8.12c.51,1.2,3.28,2.2,4.74,2.65-.58.21-1.15.42-1.72.61-1.1.37-2.27.87-3.52,1.4-4.66,2-10.45,4.42-17.39,2.67a24.53,24.53,0,0,1-4.16-1.46l.36-.53a9.09,9.09,0,0,1-2.25-2.94c-.32-.58-.61-1.15-.89-1.7A10.58,10.58,0,0,0,75,90.92a4.94,4.94,0,0,1,3.26,2.39c.42.8.66,1.36.88,1.86a13,13,0,0,0,1.63,2.88,5.15,5.15,0,0,0,3.88,2.26v-.66a4.49,4.49,0,0,1-3.35-2,12.26,12.26,0,0,1-1.56-2.76c-.22-.51-.47-1.08-.9-1.9a5.32,5.32,0,0,0-2.77-2.44c.36-.08.75-.15,1.15-.21a9.94,9.94,0,0,1,2.71,1.52c1,.92,1.43,1.84,2.69,4.3l.55,1.07c1.51,2.91,3.17,3.16,3.7,3.16H87l-.1-.65s-1.64.17-3.18-2.8l-.55-1.07c-1.27-2.46-1.79-3.48-2.82-4.47a7.77,7.77,0,0,0-1.88-1.2C78.85,90.16,79.22,90.14,79.59,90.13Zm-1-4.57A12.43,12.43,0,0,0,75.74,90a18.89,18.89,0,0,0-2.09.6c.4-.69,1-1.77,2-3.19a10.72,10.72,0,0,1,3.57-3.48,1.63,1.63,0,0,0,.26-.17l-.24-.28a16.25,16.25,0,0,1,1.51-.63l-.17-.5c.56,0,1.15.06,1.79.07A14.46,14.46,0,0,0,78.6,85.56Zm23.21-9.13s-2.41,1.82-7.63-.34a61.87,61.87,0,0,1-7.79-3.93l2.84-.88,0,.07a3.58,3.58,0,0,0,.61-.21c1,.65,5.62,3.79,7.83,4.56a9.72,9.72,0,0,0,5.23.33l-1,.48Zm5.68-12.31a8.56,8.56,0,0,1,1.24-2,7.16,7.16,0,0,1,2.62-2l-.15-.4.86.07c-.32.23-.76.56-1.33,1A5,5,0,0,0,109,63.44Zm.73-2.41a8.89,8.89,0,0,0-1.59,2.78l-2.51,1c.28-.48.72-1.21,1.45-2.33A12.84,12.84,0,0,1,109,59.57l1.73.17A7.9,7.9,0,0,0,108.23,61.71Zm-9.43,5.5L97,67.58c.37-.57.77-1.26,1.22-2.1,2-3.77,2.53-4.28,4.4-5.23a11.64,11.64,0,0,1,3.09-1l.45,0a10.7,10.7,0,0,0-1.75,1,8.73,8.73,0,0,0-2.51,3.14c-.26.45-.55.94-.89,1.5A21.18,21.18,0,0,1,99.55,67Zm-3.57,1.57q-1.22.39-2.47.76l-.9.27.39-.38c.89-.25,1.9-.51,3.05-.78l-.08,0Zm-6.3,1a11.42,11.42,0,0,0,1.58-2.58,19.09,19.09,0,0,1,4-6.43,7.73,7.73,0,0,1,3.29-2.24l1.43.06A10.26,10.26,0,0,0,97,60.3a8.61,8.61,0,0,0-2,3.3A26,26,0,0,1,93.23,67a10.62,10.62,0,0,1-1.35,1.83C90.74,69.16,89.79,69.49,88.93,69.82Zm1.77.07a6.44,6.44,0,0,1-.79.49l-2,.61.05-.06A28.1,28.1,0,0,1,90.71,69.89Zm27.9-10.17a26.48,26.48,0,0,0-4.21,4.21l-.32.49c-1.54,2.38-5.48,8.49-10.28,11.16l-.17-.43a9,9,0,0,1-5.72-.08,48.66,48.66,0,0,1-7.29-4.22l2.33-.69.34-.1a33,33,0,0,0,6.47,3.39,11.88,11.88,0,0,0,4.37,1,3.25,3.25,0,0,0,1.7-.34l-.36-.55s-1.5.87-5.47-.74a34.43,34.43,0,0,1-5.9-3q1.55-.47,3.05-1a18.55,18.55,0,0,0,6.25,2.93,8.44,8.44,0,0,0,1.83.21,5,5,0,0,0,1.95-.33l-.28-.6a5.78,5.78,0,0,1-3.36.07,17.79,17.79,0,0,1-5.62-2.55L99.53,68v0l0,0,1.52-.56a19.85,19.85,0,0,0,4.64,2.41,6.7,6.7,0,0,0,1.95.33,2.41,2.41,0,0,0,1.34-.3l-.37-.55s-.79.48-2.72-.12a18.27,18.27,0,0,1-4.07-2.06c.93-.26,1.84-.53,2.73-.83a13.37,13.37,0,0,0,3.57,1.48,4.72,4.72,0,0,0,1,.11,3.91,3.91,0,0,0,2.31-.7l-.41-.52a3.46,3.46,0,0,1-2.77.46A11.93,11.93,0,0,1,105.43,66c.73-.26,1.43-.53,2.12-.8a5.16,5.16,0,0,0,2.27.72,6,6,0,0,0,.63,0,6.24,6.24,0,0,0,1.91-.29l-.22-.62a5.8,5.8,0,0,1-2.25.22,5.1,5.1,0,0,1-1.55-.39A59.31,59.31,0,0,0,117.62,60l-.26-.38a15.17,15.17,0,0,0,2.11-.66Zm-2.6.14.55-.09c-.8.43-3.22,1.71-6.7,3.29a4.5,4.5,0,0,1,1.3-1.69,16.9,16.9,0,0,1,2-1.45v0A17.85,17.85,0,0,0,116,59.86Zm-11,3c-1.22,1.89-1.68,2.72-1.86,3.08l-1.57.61-1,.28c.28-.39.62-.88,1-1.55s.64-1.06.9-1.52a8.12,8.12,0,0,1,2.32-2.94,9.83,9.83,0,0,1,2.81-1.39l.41,0A14,14,0,0,0,105,62.85ZM103.86,59a11.56,11.56,0,0,0-1.52.63c-2,1-2.62,1.59-4.68,5.51a21.48,21.48,0,0,1-1.57,2.61c-1.15.26-2.17.5-3.07.74a12.25,12.25,0,0,0,.79-1.18,26.89,26.89,0,0,0,1.72-3.49,8,8,0,0,1,1.89-3.08,7.63,7.63,0,0,1,3-1.93l0-.13C101.53,58.8,102.69,58.91,103.86,59Zm-13.39-.28a50.76,50.76,0,0,1,5.81-.21A10.92,10.92,0,0,0,94,60.35,19.68,19.68,0,0,0,89.9,67a12.63,12.63,0,0,1-2.33,3.41c-.75.34-1.45.7-2.17,1.09.48-.82,1.18-2.08,1.91-3.63l.21-.45c1.13-2.42,1.88-4,3.47-5.35l-.42-.5c-1.7,1.43-2.48,3.08-3.65,5.58l-.21.45a41.87,41.87,0,0,1-2.46,4.53h0l-.18.1L81.56,73c.1-.21.22-.48.37-.84a40.09,40.09,0,0,1,3.32-6.34,19,19,0,0,1,6.51-5.72l-.29-.59a19.27,19.27,0,0,0-6.76,5.94,40.66,40.66,0,0,0-3.38,6.44l-.26.59A12.61,12.61,0,0,1,83,66.63c.14-.24.35-.52.52-.76.38-.52.53-.73.28-1s-.47-.06-1.44.8A8.09,8.09,0,0,0,80,69.57c-.21.56-.44,1.18-.75,1.9a7.32,7.32,0,0,1-2.21,3L75.43,75l-.11,0a15.88,15.88,0,0,0,1.15-2.56A12.39,12.39,0,0,1,80,67.06l-.42-.51a13.05,13.05,0,0,0-3.74,5.74,14.1,14.1,0,0,1-1.5,3.1l-2,.65a16.08,16.08,0,0,1,1.73-3.56,12.49,12.49,0,0,1,2.74-3.23l-.39-.53a12.88,12.88,0,0,0-2.91,3.42,14.44,14.44,0,0,0-1.92,4.15l-.15,0c-1.05.32-1.84.56-2.42.76a5.77,5.77,0,0,1-1.3.3l-.08.25h0a1.74,1.74,0,0,0,.08-.31c.14-.69.57-2.81,4.07-7,3.87-4.59,6.17-6.17,6.81-6.56A23.56,23.56,0,0,0,82.19,62a30.74,30.74,0,0,1,4.28-2c1.23-.52,2.56-1.08,3.94-1.75ZM67.27,76.6l-.11-.44c-.07-.31-.16-.66-.26-1.06-.16-.64-.38-1.28-.6-1.9a9.71,9.71,0,0,1-.7-2.86,13.13,13.13,0,0,0-1.06-3.69c-.21-.54-.4-1-.47-1.32a10.81,10.81,0,0,1,1.9.07,39.07,39.07,0,0,0,4.5.18,23.2,23.2,0,0,0,6-1A45.67,45.67,0,0,0,71.33,70C68.45,73.39,67.58,75.51,67.27,76.6Zm4,.49,1.41-.43,2.2-.67.18,0c-1.5.47-2.93.86-4.12,1.15Zm5.53-2.46Zm-.83,1c.6-.2,1.14-.38,1.57-.55l0-.07.56-.19.2.1c-.71.27-1.44.52-2.17.76Zm3-1.1,1.44-.47-1.3.54Zm-.59-.5a9.91,9.91,0,0,0,1.39-2.3c.32-.73.56-1.37.77-1.94a8.55,8.55,0,0,1,1.47-2.85c-1.58,3-1.84,5.53-1.55,6.41Zm30.9-41-.47-.32a3.67,3.67,0,0,1-2.55,1,30.71,30.71,0,0,0-4.15-.31l-.67,0-.63-.12c.86-.51,1.7-1,2.52-1.47a18.27,18.27,0,0,0,3.62.58c.36,0,.68,0,1,0a6,6,0,0,0,1.64-.18ZM107,27.74c1.21-.22,2.41-.5,3.47-.74a21.27,21.27,0,0,1,3.09-.59,3.6,3.6,0,0,1-.46.42,10,10,0,0,0-3,4.08c-.1.23-.21.49-.32.76l-.14-.16s-.55.37-2.64.23a19.54,19.54,0,0,1-2.82-.39c4.26-2.36,7.64-3.92,7.71-4l-.27-.6c-.08,0-4.59,2.11-9.79,5.13l.29-.9.21-.47A5.44,5.44,0,0,1,104.63,28l0-.06A14.36,14.36,0,0,0,107,27.74ZM60.16,58.33,60,58.19c-3.92-3-5.69-5.42-6.48-6.95A57.61,57.61,0,0,0,46,40.14c-4.57-5.23-6.26-10.94-5.17-17.44a88.57,88.57,0,0,1,3.09-12.41c.34-1.09.64-2.08.89-3A18.67,18.67,0,0,0,46.29,9.7,6,6,0,0,0,49,11.91q.3.85.61,1.77A10.4,10.4,0,0,1,47.41,12a7.92,7.92,0,0,1-1.93-3.08l-.64.18a8.42,8.42,0,0,0,2.1,3.37,10.74,10.74,0,0,0,3,2.12q.45,1.38.91,2.88c-.51-.37-1.31-1-2.59-2A14.18,14.18,0,0,1,44.34,11l-.6.28A14.54,14.54,0,0,0,47.85,16c2,1.62,2.93,2.23,3.3,2.46.3,1,.6,2.05.89,3.12-.43-.39-1-.91-1.91-1.57-.6-.46-1.13-.84-1.62-1.19a9.69,9.69,0,0,1-3.09-2.94,10.32,10.32,0,0,1-1.26-3.21l-.65.11a10.78,10.78,0,0,0,1.34,3.44,10.33,10.33,0,0,0,3.27,3.13c.48.34,1,.73,1.6,1.18a18.78,18.78,0,0,1,2.65,2.31q.4,1.54.78,3.14A25,25,0,0,0,50,23.56c-4.07-2.71-4.6-3.36-5.46-5.48A11.65,11.65,0,0,1,43.68,14H43a12.12,12.12,0,0,0,.88,4.34c.91,2.25,1.5,3,5.7,5.79,3.54,2.35,3.73,3.11,3.74,3.15h.1q.3,1.35.57,2.72l.22,1.12a12.61,12.61,0,0,0-2.68-2.58,33.17,33.17,0,0,0-3.77-2.37,9.77,9.77,0,0,1-3.3-2.5,11.74,11.74,0,0,1-2.14-4.35l-.65.14A12.18,12.18,0,0,0,44,24.05a10.41,10.41,0,0,0,3.5,2.67A32.2,32.2,0,0,1,51.17,29a10,10,0,0,1,3.47,4q.24,1.17.48,2.32A16.4,16.4,0,0,0,51,31.94a23.32,23.32,0,0,1-6.88-5.24c-2-2.37-2.17-3.89-2.17-3.91l-.66,0c0,.07.12,1.74,2.33,4.3a23.9,23.9,0,0,0,7.06,5.39,17.66,17.66,0,0,1,4.68,4.27l.34,1.56c-.78-.59-2.36-1.72-4.4-3l-.46-.28c-2.64-1.6-4.39-2.65-5.73-4.55l-.54.38C46,33,47.84,34,50.55,35.68L51,36a51.53,51.53,0,0,1,4.88,3.32l.06-.07c.23,1.06.47,2.1.69,3.1l-1-.57a49.46,49.46,0,0,1-6.85-4.53,21.38,21.38,0,0,1-5.75-7.77l-.61.24a21.65,21.65,0,0,0,5.95,8,50.12,50.12,0,0,0,6.94,4.59l.7.4a15.86,15.86,0,0,1-6.6-3c-.26-.19-.55-.45-.8-.67-.54-.48-.75-.66-1-.42s-.12.46.76,1.62a9.76,9.76,0,0,0,4.08,3.1c.61.31,1.3.65,2.08,1.1a8.8,8.8,0,0,1,3.23,2.84l.4,1.73,0,.2a19.54,19.54,0,0,0-2.86-1.69,15,15,0,0,1-5.82-4.63l-.54.38a15.61,15.61,0,0,0,6.07,4.84,17.53,17.53,0,0,1,3.39,2.1l.51,2.2A19.92,19.92,0,0,1,55,50a14.69,14.69,0,0,1-3.37-3.41l-.56.35a15,15,0,0,0,3.53,3.59,17.73,17.73,0,0,0,4.51,2.7A29,29,0,0,1,60,57.45l.23.1h0l-.21.26.24.16.2-.13c.36-.23.35-.59-1.38-8a14.67,14.67,0,0,1,3-4.52A15.84,15.84,0,0,0,65.21,40c.05-.14.09-.24.11-.29L65,39.58l-.26-.2a1.73,1.73,0,0,0-.19.44,15.21,15.21,0,0,1-3,5.07,17,17,0,0,0-2.76,3.9l-.36-1.55,0,0L58.4,47l-.21-.89c.69-1,3.49-5,5.52-7.43a10.23,10.23,0,0,0,2.58-5.44l-.66,0a9.78,9.78,0,0,1-2.42,5.06c-1.8,2.15-4.19,5.53-5.21,7q-.36-1.54-.74-3.21c.86-.9,4.1-4.32,5.58-6.11A7.78,7.78,0,0,0,65,31.7c0-.26.09-.51.16-.78l-.64-.17c-.08.29-.12.56-.17.84a7.15,7.15,0,0,1-2,3.94c-1.33,1.61-4.1,4.55-5.25,5.76q-.37-1.63-.74-3.33a61.53,61.53,0,0,0,5.89-8.07c3.32-5.5,2.16-7.53,2.1-7.61l-.57.34s1,1.85-2.1,6.93a61.12,61.12,0,0,1-5.5,7.61c-.23-1.06-.46-2.14-.69-3.23h.09a3.64,3.64,0,0,0-.17-.67c.86-.9,5-5.28,6.15-7.46a9.28,9.28,0,0,0,.83-6.47l-.63.19a8.77,8.77,0,0,1-.78,6c-1,1.91-4.56,5.74-5.78,7q-.27-1.33-.53-2.66l-.07-.37a32.8,32.8,0,0,0,4.66-6.23C61.77,19,60.8,17.07,60.75,17l-.58.31s.81,1.7-1.5,5.61a34,34,0,0,1-4.25,5.78q-.36-1.76-.78-3.47a18.28,18.28,0,0,0,4.11-6.07,6.14,6.14,0,0,0,.33-4l-.62.22a5.64,5.64,0,0,1-.33,3.53,17.58,17.58,0,0,1-3.67,5.55q-.23-.94-.47-1.86h0l0-.05c-.15-.57-.3-1.13-.45-1.69a19.74,19.74,0,0,0,3.31-4.47c1.06-2.24.5-3.33.44-3.44l-.57.32s.45.9-.46,2.83a18.39,18.39,0,0,1-2.92,4c-.28-1-.56-1.94-.84-2.86a13.46,13.46,0,0,0,2.32-3.73,4.13,4.13,0,0,0-.26-3.58l-.55.37a3.5,3.5,0,0,1,.19,3,12.36,12.36,0,0,1-1.93,3.21c-.26-.84-.53-1.66-.79-2.45a4.42,4.42,0,0,0,1.42-2.57,6.23,6.23,0,0,0,0-2.7l-.64.16a5.65,5.65,0,0,1,0,2.39,4.21,4.21,0,0,1-1,2c-2.11-6.27-4-10.45-4-10.53l-.6.27c0,.06,1.39,3.13,3.1,7.92a5.43,5.43,0,0,1-1.87-1.69A18.68,18.68,0,0,1,45.41,7l-.6.27c.2-.72.37-1.4.48-2a10.59,10.59,0,0,0,0-4.15c0-.16-.06-.34-.08-.45a12.08,12.08,0,0,1,2,2.33A23.91,23.91,0,0,0,52,8.1c.48.32,1.1.66,1.82,1.06C57.63,11.25,64,14.76,66,23.68c2,9.19-1.66,21.39-3.25,26.6-.26.86-.47,1.55-.59,2-.89,3.41-1.23,5.2-1.18,6.15a18.25,18.25,0,0,0,1,3.45c.13.37.26.74.27.82l.05.26.25,0c.29,0,.29,0,.81-1.51.86-2.53,2.88-8.47,5.11-11.56a72.72,72.72,0,0,1,4.86-5.76c2-2.19,3.69-4.09,4.15-5.25a9.55,9.55,0,0,1,5.82-5.66A34.67,34.67,0,0,0,88,30.71c2.67-1.61,5.44-3.28,7.57-3.33a36.87,36.87,0,0,1,4.63.29c1.12.12,2.26.23,3.38.28a6,6,0,0,0-.62.58,1.5,1.5,0,0,0,0-.29h-.66c0,.24-.5,1.75-.77,2.56h0c-.47,1.1-.51,1.45-.46,1.6-.95.56-1.91,1.15-2.87,1.76.05-.32.13-.79.28-1.48s.35-1.46.52-2.09l.13-.5,0,0a.65.65,0,0,0,.6.18A5.21,5.21,0,0,0,102,28.72l-.57-.33c-.22.29-1.5,1.31-1.8,1.24a1.46,1.46,0,0,1-.27-.56,1.32,1.32,0,0,0,0-.79A.4.4,0,0,0,99,28l-.23,0-.08.2a.66.66,0,0,0,0,.21l-.17-.13a16.22,16.22,0,0,1-2.21,2.43,7.64,7.64,0,0,1-.18-.83,1.68,1.68,0,0,0,0-.35c0-.15-.06-.33-.27-.39l-.2-.05-.14.15a1.07,1.07,0,0,0,0,.71,24.15,24.15,0,0,1-1,4.17c-.66,2.22-1,3.22-1.06,3.37q-.69.53-1.34,1.07a.45.45,0,0,0-.36.25l0,.07-.46.39L89.7,40.62a30.54,30.54,0,0,1,2.36-7.38,9.28,9.28,0,0,1,3.16-3.51l-.33-.57a9.78,9.78,0,0,0-3.41,3.78,32,32,0,0,0-2.56,8.39h0c-1,.89-1.88,1.75-2.75,2.59A57.39,57.39,0,0,1,88,35.32,11.67,11.67,0,0,1,91.53,30l-.39-.53a12.11,12.11,0,0,0-3.77,5.64,62.77,62.77,0,0,0-2,9.56l-2.27,2.23-.36.35a20,20,0,0,0,.72-5.18,15.23,15.23,0,0,1,2.81-8.21l-.55-.37a15.89,15.89,0,0,0-2.92,8.57,18.85,18.85,0,0,1-1.06,6.15h0L80.06,49.9a1.19,1.19,0,0,0-.35.2l.07.07-.63.6c.1-.58.22-1.34.37-2.36.3-2,.71-4.8,1.33-7.63,1.14-5.17,2.61-5.93,2.62-5.94l-.13-.3-.13-.31c-.18.07-1.79.88-3,6.4-.63,2.85-1,5.64-1.34,7.68-.2,1.38-.4,2.69-.55,3.24q-.9.83-1.85,1.64a12.87,12.87,0,0,0,.5-4c-.09-2.88.72-7.41,1.62-9A7.1,7.1,0,0,1,80,38.51L79.58,38A7.66,7.66,0,0,0,78,39.88c-1,1.67-1.8,6.29-1.71,9.32A11.81,11.81,0,0,1,75.47,54c-.59.49-1.2,1-1.84,1.47a26.21,26.21,0,0,1,.48-7.12A33.23,33.23,0,0,1,77,41.21l-.58-.32a33.21,33.21,0,0,0-3,7.32A26.51,26.51,0,0,0,73,56l-3,2.26a32.5,32.5,0,0,1,.89-5.62,35.57,35.57,0,0,1,3.4-8.29L73.76,44a36.33,36.33,0,0,0-3.47,8.47,29.64,29.64,0,0,0-.93,6.28l-1.54,1.16-.14,0L67,59.8a23.19,23.19,0,0,1,.57-4.08,19.21,19.21,0,0,1,2.91-6.34L70,49a19.53,19.53,0,0,0-3,6.59,24.11,24.11,0,0,0-.58,4.15l-1-.1,1,.4a7.64,7.64,0,0,0,0,.92L65,62a28.2,28.2,0,0,1,.64-4.36A12,12,0,0,1,67.16,54l-.54-.38a12.37,12.37,0,0,0-1.67,4,28.56,28.56,0,0,0-.69,5l-.65.49.39.53,1.05-.79a7.11,7.11,0,0,0,3.1,1,16,16,0,0,0,3.19.15,8,8,0,0,1,.85.26l.14-.33c.59-.06,1-.14,1-.15L73.22,63a14.16,14.16,0,0,1-1.93.21c-1.47-.37-3.94-1-5.3-1.16l1.91-1.44c.56.2,1.78.61,4,1.22.43.12.83.22,1.21.29,1.64.59,3,1.11,3,1.11l.23-.62-.55-.21a5.67,5.67,0,0,0,1.11-.1l-.15-.64a9.44,9.44,0,0,1-3.51-.19l-2-.71c-1.14-.39-2-.62-2.55-.75l1.81-1.37a37.09,37.09,0,0,0,8.78,2.15l.81,0a9.22,9.22,0,0,0,5.19-1.36L84.88,59a9.06,9.06,0,0,1-5.57,1.21,35.68,35.68,0,0,1-8.19-2l2.17-1.65a45.79,45.79,0,0,1,6.07.32c1,.15,1.7.29,2.33.41a18.27,18.27,0,0,0,4.13.44h0a10.09,10.09,0,0,0,6.77-2.53l-.46-.47a9.56,9.56,0,0,1-6.3,2.34h0a17.75,17.75,0,0,1-4-.43c-.64-.12-1.37-.26-2.35-.42a41.2,41.2,0,0,0-5.31-.33c.89-.69,1.75-1.38,2.56-2.07a3.69,3.69,0,0,1,2-.65,35.82,35.82,0,0,1,4,.71c1.31.28,2.94.62,5,1a10.71,10.71,0,0,0,1.93.18A6.29,6.29,0,0,0,94.78,53l-.53-.39s-1.87,2.51-6.41,1.68c-2-.38-3.67-.72-5-1a36.24,36.24,0,0,0-4.05-.72,2.71,2.71,0,0,0-.63,0l.5-.45.09.06a1.18,1.18,0,0,0,.12-.25q.78-.72,1.55-1.45A12.75,12.75,0,0,1,84.25,50a30,30,0,0,1,5.34.44c1.19.17,2.54.37,4.41.54.41,0,.79.05,1.15.05,3.46,0,4.72-1.59,5-2.13l-.28-.18-.29-.15c-.3.5-1.6,2.11-5.57,1.75-1.85-.17-3.19-.36-4.37-.54a31.13,31.13,0,0,0-5.44-.44,20.61,20.61,0,0,0-2.9.2l2.24-2.2,1.84-1.81a29.28,29.28,0,0,0,9.41,1.61h.51c5.83-.12,8.19-2.77,8.29-2.89l-.5-.43s-2.26,2.54-7.8,2.66A28.63,28.63,0,0,1,86,45.05c.92-.89,1.87-1.81,2.9-2.76.69.48,4,1.21,8.63,1.1a19.54,19.54,0,0,0,3-.29,21.27,21.27,0,0,1,3.46.55l.27-.6a11.37,11.37,0,0,0-2-.38,5.88,5.88,0,0,0,2.51-1.38l-.49-.44s-1,1.06-3.82,1.59c-3.67-.43-8.88-.85-10.82-.85.64-.58,1.3-1.18,2-1.79l.46-.39a28.3,28.3,0,0,0,9.42.65l.16,0a2.34,2.34,0,0,1,.88.42L103,40a1.35,1.35,0,0,0-.2-.16c3.11-.72,4-2.11,4-2.17l-.56-.35s-1,1.48-4.59,2.06a37.68,37.68,0,0,0-8.54-.82c.7-.55,1.43-1.1,2.18-1.64a8.86,8.86,0,0,0,2.71,0l.66,0a43,43,0,0,0,5.13,0h.06a3.21,3.21,0,0,1,1.24.3l.36-.56,0,0c1.54-.43,1.81-1.13,1.85-1.22l-.62-.21s-.37.8-2.79,1.05a42.52,42.52,0,0,0-5.18,0l-.34,0c-.87,0-1.51-.06-2-.07,1.15-.79,2.34-1.55,3.51-2.28a4.47,4.47,0,0,0,1.54.18,29.18,29.18,0,0,0,3.18.37,10.42,10.42,0,0,0,1.7,0,1.38,1.38,0,0,1,.68.26l.5-.43,0,0a3.9,3.9,0,0,0,1.79-.95l-.3.84c-1.51,4.27-3.78,10.73-9,16.35-4.71,5.06-9.72,7.18-13.74,8.88a31.07,31.07,0,0,0-4.37,2.1,23,23,0,0,1-3.27,1.74v0l-.2.11a22,22,0,0,1-7.9,1.67A37.41,37.41,0,0,1,66,64.73c-1.56-.13-2.2-.17-2.5.14a.51.51,0,0,0-.13.43,9.92,9.92,0,0,0,.53,1.56,13.19,13.19,0,0,1,1,3.45,10.12,10.12,0,0,0,.74,3.08c.21.61.43,1.24.58,1.85.1.4.19.75.26,1.06.29,1.19.36,1.51.66,1.61l.24,0,0,0,.05,0-.06.13.17.18a.76.76,0,0,0,.51.11,37.47,37.47,0,0,0,8-2,17.23,17.23,0,0,1,3.3,1.7,16.26,16.26,0,0,0,5.38,2.19l.29.07.29-.59a1.86,1.86,0,0,0-.43-.12,15.63,15.63,0,0,1-5.17-2.1,18.42,18.42,0,0,0-2.71-1.48c.7-.25,1.38-.49,2-.74,1.67.82,4.72,2.34,6.75,3.55a10.91,10.91,0,0,0,5.32,1.68h.13l0-.66a10.11,10.11,0,0,1-5.08-1.58c-1.85-1.09-4.52-2.44-6.26-3.3.92-.37,1.73-.73,2.37-1,1.36.91,4.37,2.93,6,3.89a8,8,0,0,0,4.26,1.41c.25,0,.49,0,.76.06l.08-.65c-.28,0-.54-.05-.81-.06a7.36,7.36,0,0,1-4-1.32c-1.53-.89-4.24-2.69-5.7-3.67l1.28-.71.11-.06,1.21-.39a62.18,62.18,0,0,0,8.37,4.27,13.07,13.07,0,0,0,5,1.12H99a52.79,52.79,0,0,1-8.65,3.07,29.42,29.42,0,0,1-3.42.62,33.22,33.22,0,0,1-6.41.15,25.23,25.23,0,0,0-4.58.05c-3.7.43-8.21-2.65-8.25-2.68L67,78.55l.17.81c.06.29,1.51,7.22,2.24,9.46.21.63.35,1.14.47,1.52.26.89.34,1.15.66,1.19h0c.26,0,.4-.26.47-.39a1.84,1.84,0,0,0,.16-.59c.12-.72.32-1.93,3-4a10.38,10.38,0,0,0-1.63,4.34V91h0c-.35.15-.65.3-.91.43a.4.4,0,0,0-.25-.08l-.21,0-.07.19a.29.29,0,0,0,0,.14l-.42.26.22.32-.08.07s.57.6,1.14,1.08c.31.26.51.18.61.09l.16.24A6.23,6.23,0,0,1,73.39,95c-.46-.4-.85-.76-1.18-1.06-.86-.79-1.15-1.06-1.48-1a.43.43,0,0,0-.29.34c-.11.55.52,1.78,2,4.45a26.81,26.81,0,0,1,2.09,4.28,40.57,40.57,0,0,0,2.88,7.32,12.51,12.51,0,0,0,1.38,2.24c-.51-.21-1.41-.54-2.31-.81l.77-.23-.17-.64s-.6.16-1.76.57c-.77-.17-1.39-.21-1.55,0a.38.38,0,0,0,.1.51l0,0a2.53,2.53,0,0,0-1.34,2.06c0,.19-.09.39-.15.61a6.91,6.91,0,0,1-1,2.12,5.54,5.54,0,0,0-2.05-2.18l0,0a3.59,3.59,0,0,1,1.06-1.72c.32-.33.23-.56.14-.66a.38.38,0,0,0-.21-.13,4.35,4.35,0,0,0,.48-.15c.13-.05.45-.18.36-.49s-.18-.31-1.5,0l-1.53.31c-1.36.25-2.18.47-2.34.51l-.3-.23.15-.16a.8.8,0,0,0,.37-.69c0-.28-.28-.5-.81-.76a3.22,3.22,0,0,1-1.6-2,.68.68,0,0,0-.33-.73l.22.15.34-.52.28,0c.36-.05.71-.1,1-.15a.21.21,0,0,1,.13,0c.11.08.17.46.21.74a3.33,3.33,0,0,0,.23.93.55.55,0,0,0,.47.33h0c.55,0,1.19-.92,1.56-1.51,0,.22,0,.42,0,.6a3,3,0,0,0,0,.5.84.84,0,0,0,.37.55,2.15,2.15,0,0,0,1.25.27,14.22,14.22,0,0,0,2.84-.38,18.11,18.11,0,0,0,3.54-.93l-.32-.58a6.4,6.4,0,0,1-.84.27l.33-.45s-.48-.51-1.64-4l-.29-.87c-2.44-7.32-2.82-8.25-3.39-8.26a.44.44,0,0,0-.42.33c0,.08-.07.23-.12.44a12.41,12.41,0,0,1-6.23,8.3,3.63,3.63,0,0,0-1.34.13.65.65,0,0,0-.42.38.7.7,0,0,0,0,.34,19.21,19.21,0,0,1-2.52.79c.36-.14,1.72-.86,1.9-3.83l.06-1c.14-2.37.19-3.26.63-4.31a5.41,5.41,0,0,1,.81-1.25l1-.25a4.34,4.34,0,0,0-.66,2c-.06.8-.05,1.34,0,1.82A10.53,10.53,0,0,1,62,100,3.8,3.8,0,0,1,60,102.7l.27.6a4.46,4.46,0,0,0,2.31-3.15,11.21,11.21,0,0,0,.28-2.85c0-.46,0-1,0-1.77a3.88,3.88,0,0,1,1-2.26l.47-.09a14.81,14.81,0,0,0-.25,2.42c0,.53-.06,1.08-.11,1.65a7.77,7.77,0,0,1-.75,3.07l.28.18.28.18a8.09,8.09,0,0,0,.85-3.37c.05-.58.08-1.14.11-1.68A11.18,11.18,0,0,1,65.1,93l1-.16A6.25,6.25,0,0,0,65.55,95c-.19,2-.41,3.83-.45,4l.15,0h-.17v.37l.32,0h.07c.32,0,.36-.26.74-4.37a5.17,5.17,0,0,1,.68-2.24l.16,0c-.15.56-.24,1.11-.24,1.12-.28,1.73.12,2.26.25,2.38l.47-.46s-.29-.39-.07-1.81l0-.19c.12,0,.31,0,.45-.32s.26-.58.36-.81h.46l0-.66h-.42l0-.18L68,91.76s0-.07,0-.1l-.14-.15-.2.06a.36.36,0,0,0-.17.14l-.84,0,0-.05a8.78,8.78,0,0,0-2.07-2.34,14.81,14.81,0,0,1,4.06,1.93l.74.56-.22-.9s-.71-3-1.57-6.89A26.68,26.68,0,0,1,67,80.42c-.09-1-.13-1.46-.51-1.61s-.59.08-.86.32-.33.32-.53.52c-1.08,1.11-2.87,2.94-8.77,4.52.81-.64,2.15-1.92,3.32-3.07-.76,1.34-.61,1.53-.49,1.67a.43.43,0,0,0,.53.1c1-.42,3.72-3.65,4-4l-.06,0,1.75,0v-.66c-.06,0-4.26-.05-9.8-.24A12.32,12.32,0,0,0,52.68,73a15.56,15.56,0,0,0-3.14-2.81l-.29.59a16.49,16.49,0,0,1,3,2.68,12,12,0,0,1,2.72,4.38l-3.62-.14c0-.73-.69-2-2.18-3.7a34.66,34.66,0,0,0-3.54-3.78,37.61,37.61,0,0,0,5-.92l-.09.38A31.76,31.76,0,0,1,58,72.63a37.66,37.66,0,0,0,4.52,2.61l.11.06a12.22,12.22,0,0,1,2.59,2c.18.17.38.37.61.16l.22-.22L65.82,77a86.22,86.22,0,0,1-3-8.7l-.1-.47c-.43-1.93-.68-3-1.23-3.22l.1-.3a.48.48,0,0,0,.4,0,.41.41,0,0,0,.25-.38C62.28,63.45,60.73,58.79,60.16,58.33ZM57.44,45.81a11.72,11.72,0,0,0-2.56-1.94c-.8-.46-1.5-.81-2.12-1.12a10.31,10.31,0,0,1-3.22-2.15c3.31,2.28,6.35,3,7.34,2.78Zm36.83-9c.18-.55.43-1.35.77-2.49s.63-2.2.8-2.95a.44.44,0,0,0,.21.09c.45.07,1.33-.75,2.65-2.41v0c-.07.37-.21.86-.32,1.29-.17.64-.37,1.36-.53,2.13-.13.62-.31,1.59-.35,2.08C96.4,35.33,95.31,36.07,94.28,36.84ZM67,60.48c0-.06,0-.1,0-.18l.15.06ZM91.12,42.31c1.52.08,3.68.25,5.8.44A30.5,30.5,0,0,1,91.12,42.31Zm3.06-3.12a49.76,49.76,0,0,1,5,.36A33.1,33.1,0,0,1,94.17,39.2Zm-37.06,21c.61.58,1.23,1.18,1.8,1.73,1.2,1.17,1.88,1.82,2.33,2.16-1.23-.42-4.87-1.67-9.22-3a16.3,16.3,0,0,1-1.89-3.49,14.36,14.36,0,0,0-2-3.45,7.56,7.56,0,0,0,1.25.78A31.34,31.34,0,0,1,57.11,60.23ZM5.85,54.41a21.17,21.17,0,0,0-4.25-.75l-.17,0,1.76-.52c3.25-.94,8.69-2.51,11.66-4.28,3.58-2.15,9.44-4.76,18.93-2.6a26.92,26.92,0,0,1,7.35,2.86l-.15.26a9.59,9.59,0,0,1,3.42,4.24c.87,1.89,2.21,4.37,3.18,6.12l-2.91-.84c-.69-1.77-1.76-4.47-2.46-6a7.62,7.62,0,0,0-2.84-3.65c-.21-.15-.41-.29-.62-.47l-.43.5c.22.19.44.35.66.5a7,7,0,0,1,2.62,3.39c.63,1.36,1.58,3.73,2.26,5.47-1.15-.31-2.28-.61-3.36-.88a59.36,59.36,0,0,0-3.89-6.94c-3.44-5.21-5.72-5.07-5.81-5.06l.05.66s2,0,5.2,4.76a58.15,58.15,0,0,1,3.61,6.38c-1.26-.3-2.44-.55-3.5-.73a41.39,41.39,0,0,0-3.45-7.16,9.19,9.19,0,0,0-5.34-3.47l-.11.65a8.64,8.64,0,0,1,4.92,3.21,39,39,0,0,1,3.22,6.65c-.51-.08-1-.14-1.43-.17l-1.27-.11a34.3,34.3,0,0,0-3.19-5.83c-2.69-4-4.77-4-4.86-4l0,.66h0S26.56,47.37,29,51a34.47,34.47,0,0,1,3,5.39c-1.21-.11-2.23-.22-3.14-.33a17.69,17.69,0,0,0-3.53-5.9,6.09,6.09,0,0,0-3.36-2l-.07.66a5.59,5.59,0,0,1,3,1.78A17,17,0,0,1,28.1,56c-.85-.11-1.64-.23-2.47-.36l-1-.2a19.15,19.15,0,0,0-2.54-4.76c-1.53-1.87-2.71-1.86-2.84-1.84l0,.66s1,0,2.29,1.6a17.78,17.78,0,0,1,2.28,4.21c-1-.18-1.92-.34-2.85-.49a13.18,13.18,0,0,0-2.3-3.59,4.09,4.09,0,0,0-3.25-1.29l.08.65a3.48,3.48,0,0,1,2.7,1.1,12,12,0,0,1,2,3l-2.36-.34h-.09A4.34,4.34,0,0,0,16.1,52a6.19,6.19,0,0,0-2.37-1.16l-.14.65a5.58,5.58,0,0,1,2.09,1A4.2,4.2,0,0,1,17,54.18C10.4,53.11,9.57,52.65,9.5,52.6l-.23.23-.33,0c0,.13,0,.31,1,.6-2.34-.19-3.75-.25-3.8-.25l0,.66c.07,0,3.32.13,8.24.68a5.26,5.26,0,0,1-2.25.87,18.48,18.48,0,0,1-2.62.25l0,.66h.07a21,21,0,0,0,2.67-.26,5.84,5.84,0,0,0,3.09-1.42l1.78.22a10.06,10.06,0,0,1-2.38,1.18,7.81,7.81,0,0,1-3.52.35l-.12.65a6.28,6.28,0,0,0,1.06.08,8.79,8.79,0,0,0,2.78-.46A10.4,10.4,0,0,0,18,55l2.81.46c-.55.29-1.39.71-2.71,1.34a13.86,13.86,0,0,1-5.6,1.47v.38C9.75,56.53,7.74,55,5.85,54.41Zm10,6.79a12.35,12.35,0,0,0,2.95.6c.39,0,.74,0,1.08,0,1.67,0,2.89-.47,6.41-2.51s4.3-1.89,4.33-1.89l0-.09q1.31.31,2.63.67l1,.27a12.32,12.32,0,0,0-3.34,1.2,32.18,32.18,0,0,0-3.66,2.25,9.44,9.44,0,0,1-3.59,1.79,11.61,11.61,0,0,1-4.65,0l-.5-.34C17.55,62.51,16.65,61.85,15.8,61.21Zm1.28,13.91a84.71,84.71,0,0,1,12.15-6.38c.59.12,1.23.24,1.9.35l-.09.39a21.8,21.8,0,0,1,6.78,3.16,18.63,18.63,0,0,1,4.41,4.45L41.32,77c-1.23-.15-2.3-.28-3.39-.34A16.5,16.5,0,0,0,32.7,72a9.71,9.71,0,0,0-8.15-.62l.25.61a9.18,9.18,0,0,1,7.56.57,16.88,16.88,0,0,1,4.73,4,22.85,22.85,0,0,0-3,.16c-.36-.5-1.46-1.62-4.76-3.13-4.36-2-7-.74-7.12-.69l.29.59s2.51-1.16,6.56.69a14,14,0,0,1,4.25,2.63l-.5.08-.34.05c-1,.16-2,.37-3.25.64a6.08,6.08,0,0,0-3.35-2.16,25,25,0,0,0-4.52-1.14l-.08.66a25,25,0,0,1,4.39,1.11,6,6,0,0,1,2.86,1.69l-.7.16-2.76.68a13,13,0,0,0-4.4-2c-4.15-.88-4.2-.74-4.31-.4s.27.52.5.63c.59.27,1.71.87,2.7,1.44-.36-.09-.8-.19-1.35-.3a17.23,17.23,0,0,0-4.81-.34l0,0C14.65,76.8,15.87,75.94,17.09,75.12Zm-11.56,7c1,.29,3.43-1.32,7.52-4.19l.07.43a15.57,15.57,0,0,1,5,.29,10.69,10.69,0,0,1,2.78.79,3.37,3.37,0,0,0,.48.2l-2.18.59-1.33.36v0c-4.44-2.17-4.8-1.77-5-1.6a.48.48,0,0,0,0,.62,4.34,4.34,0,0,0,1,.87,10.13,10.13,0,0,0-4.16-.18l.15.64a10.5,10.5,0,0,1,4.9.46h0a21.06,21.06,0,0,1-6,.83,4.42,4.42,0,0,0-2.53.52l-.14.11c-.3-.13-.57-.24-.78-.31A10.37,10.37,0,0,0,2.14,82,10.87,10.87,0,0,1,5.52,82.12Z"/></g></g></svg>