<svg xmlns="http://www.w3.org/2000/svg" viewBox="0 0 140.29 190.57"><defs><style>.cls-1{fill:#fff;}</style></defs><title>קלנדולה</title><g id="Layer_2" data-name="Layer 2"><g id="Expended"><path class="cls-1" d="M102.18,65c1.2-3.76,2.94-9.19,3.47-10.71a11.56,11.56,0,0,1,4-5.4,6,6,0,0,0,5.08-2.72c2.15-3.56,4.9-3.75,7.32-3.93h.12c2.61-.19,3.11-1.8,3.13-1.87l.05-.18-.13-.14c-.07-.08-6.85-7.29-12.63-2.71a12.19,12.19,0,0,0-4.26,4.88l1-3.87a9.7,9.7,0,0,0,5.38-3.72C117,31.39,116,27.2,115.94,27l-.11-.42-.38.22a19,19,0,0,0-3.93,3.56c-.1.11-.19.22-.28.35L111.7,29c1.69-6.26,3.08-10.8,3.1-10.84l-.63-.19s-1.41,4.6-3.1,10.87c-.35,1.3-.79,3-1.28,4.92A31.25,31.25,0,0,0,108.69,38l0,.25c-1.86,7.3-4.31,16.84-7.11,26.57l-1.19,3.75L100,69.6l0,0A183.87,183.87,0,0,1,88.45,95.64L89,96a182.59,182.59,0,0,0,12-27.18c.78-.65,5.71-4.8,13.2-11.7,8.26-7.61,7.13-14.53,7.08-14.82l-.65.12c0,.07,1.1,6.87-6.87,14.21-6.13,5.65-10.54,9.45-12.36,11,.26-.81.5-1.61.74-2.42ZM113,37.83c4.87-3.85,10.62,1.48,11.61,2.47a2.81,2.81,0,0,1-2.47,1.23H122c-2.45.17-5.51.39-7.84,4.24a5.43,5.43,0,0,1-4.65,2.4l0,0,0,0A10.77,10.77,0,0,1,107,48C107.29,46.55,108.71,40.44,113,37.83Zm-4.4,11a12.24,12.24,0,0,0-3,3.93q.57-2.14,1.11-4.19A10.88,10.88,0,0,0,108.56,48.85Zm3.45-18a23.09,23.09,0,0,1,3.38-3.16,9.07,9.07,0,0,1-1.23,6.53,9.24,9.24,0,0,1-4.66,3.37l.18-.72.74-2.89A9.58,9.58,0,0,1,112,30.81Z"/><path class="cls-1" d="M43.82,106.33c-6.69-5-9.12-9.22-10.16-11a7.13,7.13,0,0,0-.46-.75c-.32-.4-.62-.22-.67-.18-.63.46.3,3.5,2.27,6.39,2.31,3.39,4.78,4.8,9.27,7.36l1.42.81a98.19,98.19,0,0,1,11.09,7.8l.87.71c1.05,1.25,2.15,2.5,3.33,3.75,2.07,2.18,9.84,10.08,11.18,10.08l.09,0,.24-.16,0-.35-.09-.09c-.07-.07-7-7.08-13.22-14.22a87.47,87.47,0,0,1-5.4-7l.26.09a16.67,16.67,0,0,0,.46-8.53c-.66-2.81-1.69-4-2.39-3.87a.6.6,0,0,0-.5.68,1.75,1.75,0,0,0,.43.9c.51.71,1.36,1.9,1.34,5a25.93,25.93,0,0,1-.33,4.7l-.37-.52a95.87,95.87,0,0,0-5.87-7.75l.08.05A7.93,7.93,0,0,0,47.23,93c-1.16-3.18-3-5.45-3.71-5.2,0,0-.4.15-.25.65A3.22,3.22,0,0,0,44,89.55a8.46,8.46,0,0,1,2.46,5.14c.37,3.21-.13,4.63-.31,5a49.87,49.87,0,0,0-3.74-3.81c-6.63-6.07-11.5-8.73-12.37-8.54l-.22.08-.06.16c-.14.36.13.52,1.25,1.16A41.7,41.7,0,0,1,43.65,99.36c2.51,3.15,4.62,6,6.66,8.81,1.53,2.08,3,4.11,4.58,6.11-.8-.59-1.84-1.33-3.17-2.26C49.61,110.54,47,108.7,43.82,106.33Zm-8.48-5.93a15.08,15.08,0,0,1-2.27-4.8l0,0c1,1.68,3.54,6.15,10.34,11.23l.83.62C39.94,105,37.54,103.63,35.34,100.4Zm17-2.06a1.75,1.75,0,0,1-.29-.5c.28.17,1,1,1.56,3.33a15.68,15.68,0,0,1,0,6.64,33.45,33.45,0,0,0,.22-4.07C53.83,100.41,52.91,99.11,52.35,98.34ZM44.17,99c-.84-1.06-1.7-2-2.54-2.92l.38.35a67.36,67.36,0,0,1,9.91,11.9,101.4,101.4,0,0,0,6.54,8.58c3.82,4.38,7.91,8.72,10.51,11.43-1.94-1.73-4.67-4.35-7.72-7.56a127.11,127.11,0,0,1-10.41-13C48.8,105,46.68,102.11,44.17,99Z"/><path class="cls-1" d="M140.22,137l-.49,0v0l-.33-.26c-1.2-1-4.38-3.6-12.89-5.41a24.14,24.14,0,0,0-18.06,3.39,8.68,8.68,0,0,1-1.17.63c-.77-.41-3-1.46-11.35,1.46-1,.34-2.09.76-3.26,1.21A42.87,42.87,0,0,0,99,119.86c.78-8.81-.54-13.88-2.09-14.85a.94.94,0,0,0-1,0,6.13,6.13,0,0,0-1.53,1.49,13.66,13.66,0,0,1-3.37,3.1c-3.48,2.27-9.47,9.69-11.76,20.8-2.13,10.37-2.41,13.74-2.44,14.33l-4.16,1.86c.11-.56,3-15.52,5.9-25.37a107.93,107.93,0,0,1,5.08-14,3.55,3.55,0,0,0,.26-.67c2.68.31,5.38.51,7.62-.54,4.39-2.06,7.88-3.24,8.38-3.07a.38.38,0,0,0,.42,0l.17-.19-.05-.21c-.19-.77-3.88-5.08-9.29-6.11A23.64,23.64,0,0,0,86,95.91c1.1-1.64,5-7.94,10.42-21.23.84-2.08,1.57-3.83,2.2-5.37a101.08,101.08,0,0,0,6.51-20.14l.44-1.42,0-.14v0a2.32,2.32,0,0,0,.26-.94,36.71,36.71,0,0,0,.91-4.66c3.58-15.66,5.29-24,5.31-24.1l-.65-.13c0,.08-1.46,7.15-4.48,20.48a12.4,12.4,0,0,0-.34-2.48c-.72-2.85-4.43-8.36-5.92-8.36h-.07c-.22,0-.59.19-.57.94,0,.54,0,1.08,0,1.64a16.78,16.78,0,0,0,2.83,10.92c1.66,2.66,2.19,4.21,2.31,5.14-3,12.87-3.89,15-7.18,23-.64,1.54-1.36,3.29-2.2,5.37C89.61,89.77,85.36,95.72,85.19,95.95a17,17,0,0,0-10.37,4.48,14.88,14.88,0,0,0-3.75,5.21c.48-2.58,1-5.14,1.58-7.36.45-1.77.89-3.65,1.27-5.58l.15-.23a8.75,8.75,0,0,1,4.27-3.17c3-.93,6.16-7.67,6.29-8L84.8,81l-.41-.09c-.1,0-2.5-.5-6.23,1.71a9,9,0,0,0-3.35,4.49c.14-1.21.24-2.43.3-3.65.29-.25,3.45-3.08,4-6.38.44-2.68.06-4.64-.56-4.8a.42.42,0,0,0-.5.31,3.1,3.1,0,0,0-.11.57,4.53,4.53,0,0,1-1.2,2.77A6.63,6.63,0,0,0,75,78.52a24.46,24.46,0,0,0-1.56-6.93c-2.35-5.87-3.23-8.59-3-9.06a1.69,1.69,0,0,1,.31-.14c.78-.3,2.39-.91,2.7-4.26a34.37,34.37,0,0,1,1.71-6.89c.62-1.88.72-2.24.44-2.47a.39.39,0,0,0-.46,0,4.6,4.6,0,0,0-1.09,1.46l-.08.14c.14-1.67.19-4.23-.73-5a1.11,1.11,0,0,0-.85-.26,3.1,3.1,0,0,0-1.91-1.69,2.44,2.44,0,0,0-2.07.72c-.87-.73-1.5-.67-1.88-.45a2,2,0,0,0-.83,1.4c-1.16-1.66-2.05-1.56-2.48-1.34a1.67,1.67,0,0,0-.76,1.06c-.86-.59-1.45-.48-1.81-.25a1.55,1.55,0,0,0-.57.79,33.38,33.38,0,0,0-5.44,6.2,27.68,27.68,0,0,0-1.63,3.26,19.54,19.54,0,0,0-.13-2.69c-.57-4.79-2.24-7.06-3.4-8.09,0-.24-.11-.73-.22-1.44,1.09-.27,5.2-1.42,7.34-4a11,11,0,0,0,2.68-5.33l0-.24-.23-.09C59,32.79,56,31.62,52.5,34.33a10.56,10.56,0,0,0-3.57,6.05c-.25-1.4-.6-3.16-1-5.23-1-4.66-1.25-7-.8-7.61A3,3,0,0,1,48,27a1.38,1.38,0,0,0,.24,0,3.61,3.61,0,0,0,2.05-.89,1.23,1.23,0,0,0,.27-.31l.08,0a1.73,1.73,0,0,0,.4,0,2,2,0,0,0,1.78-1.14,1.1,1.1,0,0,0,.1-.27,1.22,1.22,0,0,0,.7.34l.16,0c.42-.1.61-.56,1-1.51a1.3,1.3,0,0,0,.07-.51,3.56,3.56,0,0,0,1.55.56,1.06,1.06,0,0,0,.52-.13c.44-.24.68-.79.73-1.73a1.63,1.63,0,0,0,0-.46,4.11,4.11,0,0,0,.84.1,2.09,2.09,0,0,0,.9-.18,1.61,1.61,0,0,0,.87-1.15A1.07,1.07,0,0,0,60,19,3.24,3.24,0,0,0,58.81,18c1.18,0,2.21-.3,2.45-.9.33-.81-.81-1.56-1.19-1.81a6.3,6.3,0,0,0-2.6-.89c1.44-.4,2.18-.89,2.34-1.53s-.26-1.3-1.27-2a3.16,3.16,0,0,0-2.39-.5A2.48,2.48,0,0,0,57,8.43c-.1-.59-.62-1-1.52-1.31a2.27,2.27,0,0,0-1.85.36,2.63,2.63,0,0,0-.38-1.32c-.42-.69-.9-1-1.42-1a2.29,2.29,0,0,0-1.5,1.21,2.22,2.22,0,0,0-.5-1.06,2.25,2.25,0,0,0-2.14-.54,1.63,1.63,0,0,0-1.12,1.07A1.94,1.94,0,0,0,45.6,5c-1.75-.71-2.62-.21-3,.14a1.79,1.79,0,0,0-.49,1.21A2.23,2.23,0,0,0,41,5.66c-1.66-.37-2.31.22-2.55.6a1.61,1.61,0,0,0-.21,1.08,2.87,2.87,0,0,0-.64-.18c-1.73-.23-2.29.26-2.45.72a1,1,0,0,0,0,.46,3.5,3.5,0,0,0-.52,0c-1.5.15-1.89.7-2,1.12a1.09,1.09,0,0,0,.14.67,4.54,4.54,0,0,0-.73,0c-1.68.22-2.46.59-2.52,1.21a1,1,0,0,0,.4.8,1.2,1.2,0,0,0-.34.1,2.07,2.07,0,0,0-1.29,2.06,2,2,0,0,0,1.42,1.46.87.87,0,0,0-.31.3c-.26.44,0,.93.25,1.36l.11.2c.07.13.11.24.16.33a1.1,1.1,0,0,0,1,.79.7.7,0,0,0,0,.28,3.12,3.12,0,0,0,1.41,2.31,2.4,2.4,0,0,0,1.22.32,3.07,3.07,0,0,0,.58-.06.83.83,0,0,0,0,.64,3,3,0,0,0,2.24,1.67,2.74,2.74,0,0,0,.42,0,2.54,2.54,0,0,0,.62-.08v0c.39.85,1.9,1.36,2.84,1.4h.14a1.75,1.75,0,0,0,.76-.15s0,0,0,0c.11.43.51.61.94.81a3.5,3.5,0,0,1,2.21,2.56c.53,1.86,1.18,6.12,1.7,9.54.19,1.27.37,2.42.51,3.27-1.15-2-2.68-4.13-3.76-3.73-3.9,1.46-4.41,2.14-4.37,2.67.1,1.32.37,3.56,1.1,3.69.28.05.52-.14.71-.56a20.49,20.49,0,0,1,2.38-3.82c-.09.57-.18,1.35,1.15,2.6a11.89,11.89,0,0,0,3.5,2.22l0,.15a18.08,18.08,0,0,0-1.53,6.95,10.36,10.36,0,0,0-7-2.55c-4.21-.11-7.35,1.5-7.54,2.62a.63.63,0,0,0,.49.72,4.77,4.77,0,0,0,1.53.16,3.17,3.17,0,0,1,2.15.54,3.83,3.83,0,0,1,.78.89c.6.85,1.27,1.8,4.09,2.3a9.56,9.56,0,0,0,1.66.15,7.73,7.73,0,0,0,4.18-1.15,15.1,15.1,0,0,0,3.24,7.09h-.09s.2,2.93,1.27,9.28l0,.12c-2.06-3.19-6.82-9-14.53-9.83-8.73-1-14.06,5-15.15,7.83-.47,1.25-.13,1.73.13,1.91.89.63,2.66.55,4.37.47a7.91,7.91,0,0,1,2.79.12c1.23.66,6.85,1.31,10,0l.37-.15C41.24,71,41.73,70.76,44.38,71c4,.35,7,4.66,7,4.79.58,2.42,1.21,4.42,1.64,5.69a31.39,31.39,0,0,0-13.09-9l-.3-.09-.1.3a15.39,15.39,0,0,0-.37,8,19.61,19.61,0,0,0,2.37,5.68c-6.74-1.91-13-.61-13.76-.1a.42.42,0,0,0-.22.42,2,2,0,0,0,.43.8,2.82,2.82,0,0,1,.71,1.8c-.09,1.91,3.42,15.75,13.52,21.62l2.86,1.66c6,3.5,9.4,5.45,11.46,7.46a50.43,50.43,0,0,0-21.29-6.73c-6.75-.51-9.58,3-10.78,6-1.44,3.66-1,8-.34,8.55s1.72-.07,3.56-1.21c1-.59,2.15-1.33,3.59-2.07,2.29-1.18,2.77-.84,4.35.29a22.34,22.34,0,0,0,4.56,2.61c4.79,2.06,8.68,1.62,13.6,1.06,1.39-.16,2.82-.32,4.41-.45h.36c6.77,0,11,15,11,15.2l.1,0,0,.14C68,151.68,65.39,164.17,64.48,170a80.32,80.32,0,0,1-2.06,10.28c-.17-.33-.41-.83-.68-1.42l.23-.79c.16-.53,3.78-13,.18-20.73-.86-1.83-1.62-3.41-2.29-4.76h.07a11.76,11.76,0,0,1,2.83-5.39c.34-.4.66-.73,1-1a8.45,8.45,0,0,0-1.91,4.46,31.67,31.67,0,0,0-.1,5.15h.66a35.19,35.19,0,0,1,1.32-7.22,7.93,7.93,0,0,1,1.48-2.64c.09-.11.26-.3.1-.52s-.4-.12-.56,0l-.08,0a1.71,1.71,0,0,0-.19.12,7.63,7.63,0,0,1,2.06-1.29,54.91,54.91,0,0,0-.48,7,15.41,15.41,0,0,1-2.61,8.58l.52.41a15.76,15.76,0,0,0,2.75-9,43.22,43.22,0,0,1,.56-7.37l.11-.46-.47.06c-.08,0-2,.29-4.64,3.36a13.55,13.55,0,0,0-2.81,5c-1.85-3.67-2.86-5.37-2.87-5.4l-.25-.42-.29.39A18.26,18.26,0,0,0,53,158.84a24.9,24.9,0,0,0,1.85,6.22l-1.24-2.23c-6-10.66-18.27-17.48-22.9-20a18.35,18.35,0,0,1-1.69-1,1.3,1.3,0,0,0-1.31-.49,1.69,1.69,0,0,0-1.24,1.21c-.17.2-1.61-.06-3.13-.33s-3.88-.71-6.86-1.05c-5.84-.67-10.51,2.66-13,4.46a12,12,0,0,1-1.37.91c-1.47.69-1.71.78-1.71.78l-.34.1.12.33c.19.53,4.74,13,10.94,16.71S25.54,168,27.9,167.35a3,3,0,0,1,2.72.44,8.82,8.82,0,0,0,2.73,1.06,10.49,10.49,0,0,0,3.51.17,53.6,53.6,0,0,1,6.66-.08c7.33.27,15.34,11,16.83,13.8,1.63,3.1.18,6.87.17,6.91l.61.24c.07-.17,1.57-4.08-.2-7.45a22.77,22.77,0,0,0-1.53-2.4c1.41,2,1.93,2.59,2.38,2.59h0a.46.46,0,0,0,.38-.26l.07-.15-.07-.15c-.09-.17-8.83-17.51-22.42-21l-1.31-.33.3-.08c-.06-.26-1.66-6.41-9.16-12.15-6-4.61-10.52-6.56-11.39-5.79a.59.59,0,0,0-.05.8c.28.48,1.1.83,2.47,1.42,2.65,1.14,7.09,3.06,10.29,7.48s4.26,6.67,4.6,7.6c-3.54-.81-6.62-1.41-9.42-2-1.72-.33-3.32-.64-4.86-1-.08-.67-.55-2.89-3.55-6.73a12.53,12.53,0,0,0-5.89-3.85,25.63,25.63,0,0,1,6.72,3.35c5.64,3.91,5.1,7.62,5.1,7.65l.65.11c0-.17.65-4.13-5.37-8.31-5.12-3.55-10.37-4.46-11.09-4.12l-.22.14v.19a.45.45,0,0,0,.25.41,6.78,6.78,0,0,0,1.55.52c2.11.58,5.65,1.54,7.81,4.29,2.61,3.35,3.23,5.39,3.38,6.17A46.46,46.46,0,0,1,11.21,154c-7.35-3.32-8.24-5.89-8.26-5.95h0l-.64.17h0c.07.25,1.76,6.1,11.62,9.38a78.23,78.23,0,0,0,13.54,2.77c5.54.8,11.27,1.62,16.48,3.94,6.23,2.78,11.65,10.37,14.88,14.9l.56.78c-3.08-4.32-9.58-11.5-15.85-11.73a54.87,54.87,0,0,0-6.73.09,10,10,0,0,1-3.33-.16,8.12,8.12,0,0,1-2.54-1,3.62,3.62,0,0,0-3.22-.5c-2.28.64-10.21.73-16.33-2.88C5.91,160.6,1.58,149.7.85,147.77l1.48-.68a11.7,11.7,0,0,0,1.47-1c2.44-1.74,7-5,12.56-4.33,3,.34,5.19.75,6.82,1,2.59.47,3.67.67,3.89-.15a1,1,0,0,1,.73-.73.63.63,0,0,1,.66.26,9.11,9.11,0,0,0,1.89,1.16c4.58,2.54,16.75,9.3,22.64,19.79,4.29,7.64,6.66,12.76,7.94,15.52l.47,1V180l0-.15c.61,1.29.77,1.5,1.07,1.48a.37.37,0,0,0,.33-.27c0-.08.88-2,2.27-10.92.91-5.8,3.5-18.29,5.21-26.55.95-4.57,1.63-7.87,1.7-8.41.19-1.58,0-2.93-4.26-5.88-.84-.59-1.64-1.12-2.39-1.61-2.93-1.94-5-3.34-6.64-5.93-1.89-3.08-5.24-5-13.32-9.7l-2.86-1.66c-10.33-6-13.24-20-13.19-21a3.41,3.41,0,0,0-.84-2.22c-.09-.12-.19-.26-.25-.36,1.38-.61,10.81-2.11,18.58,2.61C55,94.27,57.12,100.12,59.38,106.3l.4,1.09c2.38,6.45,3.41,8.3,7.28,13.19a107.62,107.62,0,0,1,6.64,9.48l.56-.34s-.27-.44-.72-1.14c.25-.78,1.41-4.44,3.82-12.69,2.11-7.22,3.2-9.21,3.55-9.72.66.06,1.33.14,2,.22l.23,0c0,.07-.1.22-.21.48A108.58,108.58,0,0,0,77.85,121c-2.94,10-5.89,25.3-5.92,25.45l.61.12-1.18.53.27.6c.06,0,2.58-1.18,6.11-2.73L90,141.76a62.36,62.36,0,0,1,17-1.12l-.24,0c0,.16.26,1.14,3.22,4.56.34.39.67.74,1,1.06a16.48,16.48,0,0,1-5.84-5.69l-.59.3a17,17,0,0,0,6.47,6.18c2.8,1.66,5.86,3,6.77,3a.41.41,0,0,0,.2,0l.18-.12v-.2c0-.24-.22-.36-.5-.5a10.37,10.37,0,0,0-1.12-.44,12.88,12.88,0,0,1-6.06-4c-2.4-2.77-2.93-3.85-3-4.12,1.19.08,2.41.18,3.68.32,12.3,1.41,22.74-.72,25.12-2.31l.55-.35-.26.38-.09.13c-.57.72-9.45,3.68-27.15,2.53l0,.66c2.93.19,5.63.26,8.11.25l0,0c0,.09.59,1,4.31,3.75,2.94,2.18,5.35,2.78,6.54,2.78a1.87,1.87,0,0,0,.63-.08c.13,0,.5-.19.5-.57s-.36-1-4.51-2.45c-3.95-1.43-5.19-3-5.5-3.46,11-.25,17.12-2.19,17.7-3l.09-.13c.51-.74.84-1.23.54-1.54s-.67-.13-1.74.58c-1.83,1.22-11.87,3.68-24.68,2.21l-1.1-.11a27,27,0,0,1,6.11-3.5,23.35,23.35,0,0,1,8.69-1.91c1.45-.09,2.24-.14,2.52-.62a.53.53,0,0,0-.05-.62c-.79-1-6.3-.76-13.47,1.75-8.18,2.85-9,4.28-9,4.53l.1,0a61.25,61.25,0,0,0-15.1,1.23l-8.19,2.14c3.36-1.46,7.08-3,10.34-4.31l0,0,0-.05c1.49-.59,2.89-1.12,4.11-1.54,5.47-1.92,9.13-2.41,10.88-1.47.32.18.71-.06,1.76-.67a23.51,23.51,0,0,1,17.58-3.32c8.35,1.78,11.44,4.31,12.61,5.27a2.85,2.85,0,0,0,.64.45c-.23,1.44-2,7-8.47,11-5.53,3.38-12.58,1.84-20.75.06-3.55-.77-7.22-1.58-11.19-2.1-10.53-1.38-23,2.67-27.79,4.46l-.2,0,0,.13c-1.14.43-1.81.71-1.84.73l.26.61s.53-.23,1.41-.56L69.7,157.7c-1.5,6.64-6.38,32.49-6.43,32.75l.65.12c0-.2,3-15.78,5-25.86l.15.13s.54-.63,3.7-5.43c1.87-2.84,3.21-9,3.27-9.24h0a79.9,79.9,0,0,1,9.08-2.27,116,116,0,0,1-6.35,9.74,52,52,0,0,1-10.45,10.92l.39.53A52.76,52.76,0,0,0,79.3,158a104.8,104.8,0,0,0,6.56-10.12l-.19-.1a45.3,45.3,0,0,1,13.44-.57c3.94.52,7.6,1.31,11.13,2.09,8.3,1.81,15.48,3.38,21.23-.14,7.63-4.66,8.91-11.36,8.8-11.94ZM103.46,40.56A16.22,16.22,0,0,1,100.73,30c0-.57,0-1.13,0-1.68,0-.18,0-.26,0-.28h0c.78,0,4.44,4.69,5.25,7.87a17,17,0,0,1,.12,6.07l-.49,2.13-.12.51A20.63,20.63,0,0,0,103.46,40.56Zm-25,42.59a10.37,10.37,0,0,1,5.18-1.67h.14c-.75,1.5-3.37,6.46-5.68,7.18a9.08,9.08,0,0,0-3.82,2.44C74.75,89,75.91,84.69,78.5,83.16ZM52.9,34.86a7.23,7.23,0,0,1,4.41-1.65,5,5,0,0,1,1.31.17,11.47,11.47,0,0,1-2.49,4.72c-1.87,2.28-5.52,3.41-6.79,3.75C49.51,40.57,50.21,36.91,52.9,34.86ZM31.45,152c-3.3-4.57-7.85-6.53-10.56-7.7a7.18,7.18,0,0,1-2.15-1.14c.74-.08,4.19,1,10.47,5.83,6.63,5.08,8.56,10.58,8.87,11.6l-1.81-.43C36,159.41,35.15,157.15,31.45,152Zm12.77,11.69c-5.29-2.36-11.07-3.19-16.65-4A77.76,77.76,0,0,1,14.14,157c-5.1-1.69-7.94-4.12-9.49-6a29.42,29.42,0,0,0,6.28,3.64c4.69,2.11,9.25,3,15,4.11,3.86.75,8.24,1.59,13.64,3,10.72,2.76,18.41,14.41,21,18.89-.39-.52-.83-1.14-1.26-1.75C56.09,174.25,50.62,166.57,44.22,163.72Zm12.05-16.59c.65,1.14,2.48,4.48,5.29,10.48,2.45,5.23,1.38,13,.5,17.24l-.51-1.17s-1.1-2.56-2.25-5.77l.2-1c.05-.27,1.31-6.58.39-10.79-1-4.62-1.39-4.56-1.67-4.52s-.36.13-.32.59a4.8,4.8,0,0,0,.17.72,22.28,22.28,0,0,1,.8,7.29c-.14,3.76-.09,5.62-.05,6.33a51.4,51.4,0,0,1-2-7.48,32.24,32.24,0,0,1-.23-9c.07-.63.09-.83-.2-.91l-.3,0-.12.25a12.2,12.2,0,0,0-1,3.39c-.19,1.37.65,8.51,2.6,14.16S61,174,61,174.05l1,1c-.15.73-.3,1.36-.41,1.83-.33-.71-.9-1.73-1.7-3.17-2.27-4.08-5.71-10.25-6.3-14.92A18,18,0,0,1,56.27,147.13Zm2.65,21.65c-.25-.62-.51-1.31-.77-2.08s-.52-1.61-.75-2.43C57.87,165.83,58.41,167.39,58.91,168.78Zm.57-6.83c0-.52,0-1.08.06-1.7q0-.5,0-1C59.58,160.18,59.54,161.09,59.48,162Zm-3.74-6.06a16.23,16.23,0,0,1-.17-3.06c0-.28.09-.56.15-.83A32.82,32.82,0,0,0,55.74,155.89Zm4.47,19.71a11.7,11.7,0,0,1,1.09,2.33Q60.85,176.94,60.22,175.61ZM65,128.19c.75.5,1.54,1,2.38,1.6,4,2.76,4.15,3.87,4,5.27-.05.46-.64,3.31-1.42,7.06-.84-2.65-3.37-9.81-7.31-13.05l.38-.22a19.76,19.76,0,0,0-4.45-4.91,29.88,29.88,0,0,0-15.2-6.32c-12.23-1.64-17.89,3.33-18.57,5.33-.19.57.07.79.19.86.41.24.87-.12,1.78-.84a17.28,17.28,0,0,1,13.6-4.1c1.09.12,2.12.27,3.11.45a53.08,53.08,0,0,1-8.9,2.82c-.23,0-.75.17-.88.49l-.07.26.12.15c.08.1.19.25.93.25a17.42,17.42,0,0,0,2.41-.24,16.17,16.17,0,0,0,7.43-3.53,38.42,38.42,0,0,1,9.14,3,13.54,13.54,0,0,1-5.11,2.27,17.91,17.91,0,0,1-6.2-.12,7.44,7.44,0,0,0-2.17-.16c-.45.1-.42.42-.41.48.12.73,3.71,1.34,6.49,1.34.47,0,.92,0,1.32-.05a11.94,11.94,0,0,0,6.79-3.41A24.57,24.57,0,0,1,62,128.58a5.89,5.89,0,0,0-3.82-1.12c-1.6.13-3,.29-4.43.45-5,.57-8.64,1-13.26-1A21.78,21.78,0,0,1,36,124.36c-1.64-1.17-2.39-1.71-5-.34-1.46.75-2.67,1.5-3.63,2.1-1.38.85-2.47,1.52-2.79,1.27-.33-.42-1-5,1-8.86,1.78-3.38,5-4.92,9.63-4.57,10.09.76,20,5.29,23,8.14C59.88,124.78,62.15,126.29,65,128.19Zm-20.6-9.36-.05-.06-.05,0c-1.22-.24-2.49-.45-3.86-.6a21.41,21.41,0,0,0-2.34-.13,17.83,17.83,0,0,0-11.74,4.37c-.36.28-.76.6-.95.73a3.71,3.71,0,0,1,.91-1.28c1.2-1.22,6-5.09,17-3.62A29.55,29.55,0,0,1,57,123.6,37,37,0,0,0,44.42,118.83ZM41.14,121A13.19,13.19,0,0,1,37,122.38c-.53.08-1,.13-1.3.17C37,122.24,39.18,121.64,41.14,121Zm4.53,4.68a21.64,21.64,0,0,1-3.21-.32A27.72,27.72,0,0,0,45.67,125.64Zm29.59-24.73a16.4,16.4,0,0,1,11.31-4.36A23.44,23.44,0,0,1,91,97a15,15,0,0,1,8.54,5.24,26.49,26.49,0,0,0-5.64,1.92l-1.47-.59a33.94,33.94,0,0,1-4.1-2,12.11,12.11,0,0,1-1.51-1.18,37.44,37.44,0,0,1,8.8.85,5.39,5.39,0,0,0,1.67.22.39.39,0,0,0,.3-.46c-.15-.77-4.12-2.76-12.24-1.71A22.55,22.55,0,0,0,71.37,107l-.23.3A14.68,14.68,0,0,1,75.26,100.92ZM88,99.71a18.79,18.79,0,0,1,7.93.94l-.26,0A41.36,41.36,0,0,0,88,99.71Zm-11.9,3.88a22,22,0,0,1,4.67-2.48A33.45,33.45,0,0,0,76.12,103.6Zm-.83-22.82a5.87,5.87,0,0,1,1.92-4.43,5,5,0,0,0,1.32-2.77,10.35,10.35,0,0,1-.08,3.37c-.39,2.37-2.32,4.57-3.27,5.51C75.19,82.11,75.22,81.58,75.29,80.78ZM73.2,51.57l0,0a.63.63,0,0,0-.62-.12s-.07.05-.1.07c-.48-1.3-1.3-4.06-.72-5.28a.93.93,0,0,1,.59-.52.48.48,0,0,1,.51.08C73.61,46.49,73.48,49.63,73.2,51.57ZM70.39,44a2.38,2.38,0,0,1,1.4,1.25,1.61,1.61,0,0,0-.64.71c-.89,1.85.75,6,.82,6.13l.09,0a7.09,7.09,0,0,0-.27,1c0,.18-.08.35-.12.51l0,.1c-.41-3.35-.7-3.34-1-3.34a.34.34,0,0,0-.2.07c-.11-2.21-.5-4.64-1.56-5.82A1.8,1.8,0,0,1,70.39,44Zm-3.5.2a.48.48,0,0,1,.24-.06,2.07,2.07,0,0,1,1.25.77c1.6,1.67,1.53,6.79,1.42,8.92l-.28-.42c-.64-1.87-.81-2-1.11-1.91l-.05,0-.23-.4A23.21,23.21,0,0,0,66.33,46C66.32,45.08,66.55,44.41,66.89,44.22Zm-3.32.08c.41-.21,1.07.27,1.73,1.25.13.19.26.4.38.62a7.55,7.55,0,0,0,.23,1.6,16.43,16.43,0,0,0,1.6,3.63c.51,2.11.75,3.88.77,4l-.14-.12c-.46-.45-1-1.06-1.44-1.6l-.07-.08c-.25-.35-.66-1-1.13-1.7-.26-2-.9-5.23-2.43-6.7A1.31,1.31,0,0,1,63.57,44.3Zm4.77,11.16v0l0,0Zm-3.78-5.14a21.38,21.38,0,0,1-1.15-2.44A5.77,5.77,0,0,1,63,46.19,11.25,11.25,0,0,1,64.57,50.32ZM62.38,45.5a6.07,6.07,0,0,0,.42,2.61,25.64,25.64,0,0,0,2.07,4.05l0,.23c-.21.19-.14.53-.1.71a11.32,11.32,0,0,0,.85,2c.19.38.44.89.58,1.23l-.17-.11a17.77,17.77,0,0,1-2.64-2.5l-.16-.17A18.41,18.41,0,0,1,61,48.82a8.53,8.53,0,0,1-.34-1.57c0-1.06,0-1.4.22-1.64a.4.4,0,0,0,.08-.41.66.66,0,0,1,.13-.13C61.35,44.88,61.82,45,62.38,45.5Zm-.36,8,.24.64a17.47,17.47,0,0,1,.65,1.95,8.79,8.79,0,0,0-2.52-.75c.13-2.43.19-4.22.21-5.57a19.1,19.1,0,0,0,1.46,3.09C61.87,53,62,53.34,62,53.5Zm3.55,51.85c-1.71-4.54-.44-8.7,2.36-17.83l.52-1.71c3.22-10.53-.16-15.53-.31-15.73l-.1-.14h-.17a10.52,10.52,0,0,0-9.57,7.36,35.79,35.79,0,0,0-1.45,5.94c-.35-1.6-.94-4-1.9-7-.67-2.1-1.28-4.49-1.79-6.7,1.38-.62,6.55-3.51,7.11-12.24,0-.31,0-.59.05-.89.44.61,1.16,1.62,1.86,2.68a10.94,10.94,0,0,0,4.22,4l1.4.64c.37.67,2.74,5.21,4.06,13.46,1.23,7.63,0,13.32-1.65,20.53-.3,1.35-.62,2.76-.93,4.25-1.74,8.24-3.05,14.4-3.39,16a33.32,33.32,0,0,1-2.24-3.36l0,0S67.48,110.4,65.57,105.35ZM53.09,56.56a24.25,24.25,0,0,1,2.17-4.73,32.28,32.28,0,0,1,4.68-5.47,6.09,6.09,0,0,0,0,.89c0,.19,0,.39,0,.63,0,1.41,0,3.64-.23,7.37l-.31,0,.3.4c0,.53-.06,1.09-.1,1.68-.53,8.18-5.22,11-6.61,11.62-.14-.59-.26-1.17-.38-1.72.37-.06,1.29-1,4.85-11.88l.71-2.15L56.89,55c-1.8,2.6-4.15,7.29-4.67,10.26-.39-1.92-.62-3.22-.62-3.25h-.06A19.63,19.63,0,0,0,53,56.53Zm-.31,9.5c.13-2,1.62-5.46,3.14-8.21A87.57,87.57,0,0,1,52.78,66.06ZM42.49,21.26l0-.05a5.22,5.22,0,0,0,.65.18l.62.11-.13.12a10.53,10.53,0,0,0-1.19,1.28A2.72,2.72,0,0,0,42.49,21.26Zm-1.7-6.57.37.15-.14,0h0Zm1.55-.42L42,13.74l.53.36.21.15-.29.14Zm2.09-.07a4,4,0,0,1,.77-.14,1,1,0,0,0,.46.13h.08a.81.81,0,0,0,.28-.08v.08l.18.08a.66.66,0,0,0,.26.05.89.89,0,0,0,.41-.11l0,0,1,.21c1.84.42,2.68,2.86,2.75,3.07.17.86,0,1-.85,1.75-.24.21-.53.46-.87.78-1.42,1.35-2.23,1.34-5.7.73a3.63,3.63,0,0,1-2.59-1.65,4.15,4.15,0,0,1-.53-2.9.69.69,0,0,1,.46-.46.87.87,0,0,0,.46-.1.46.46,0,0,0,.09-.09l.09,0a9.17,9.17,0,0,0,2-.77l.14-.07,0,0v0a6.38,6.38,0,0,1,1-.44l.06,0Zm3.49-1a1.48,1.48,0,0,0,.11.54l-.48-.1C47.68,13.52,47.8,13.37,47.92,13.21Zm0,13.11a.59.59,0,0,1-.22-.21c.34-.14.94-.39,1-.28S48.23,26.18,47.91,26.32ZM45.76,22.6a.39.39,0,0,1,.18,0,1.07,1.07,0,0,1,.49.16l.12.22a11.85,11.85,0,0,0,.22,2.12c0,.22.07.42.09.6a1.09,1.09,0,0,1-.27.05c-1,.06-1.33-.09-1.46-.23a.35.35,0,0,1-.06-.12,1,1,0,0,0,0-.11c0-.17,0-.35.08-.55.07-.47.13-.94.15-1.37A1.13,1.13,0,0,1,45.76,22.6Zm.9-.49A1.33,1.33,0,0,0,45.47,22a1.09,1.09,0,0,0-.29.22.65.65,0,0,0-.42-.36,3.49,3.49,0,0,1-.77-.28l-.08-.05a15.49,15.49,0,0,0,2.42.27l.47,0A1.78,1.78,0,0,0,46.66,22.11ZM49.94,20a2.08,2.08,0,0,0,.06.56l-.37-.28Zm1-.88a3.16,3.16,0,0,0,.22.4l-.42-.19ZM51.35,18a2.34,2.34,0,0,0,0-.31,3.85,3.85,0,0,0,.38.37Zm-.21-1.12a7.41,7.41,0,0,0-.32-.68,6.39,6.39,0,0,0,.64.3A1.1,1.1,0,0,0,51.14,16.91ZM48.64,21.1a2.46,2.46,0,0,0,0,.34l-.21-.22Zm-5.53-7L43,13.72c0-.06-.19-.5-.47-1.12.68.61,1.19,1.05,1.29,1.14Q43.47,13.86,43.11,14Zm-3.74,2.65-.92-.23a5.67,5.67,0,0,0,1-.16A3.68,3.68,0,0,0,39.37,16.69Zm.06.94a5,5,0,0,0,.29,1.08,1.8,1.8,0,0,0-.9-.68l-.08,0-.28,0A4.71,4.71,0,0,0,39.43,17.63Zm.35,1.23a4.53,4.53,0,0,0,.22.44l-.15-.07-.06,0A.7.7,0,0,0,39.78,18.87Zm1,1.37a4.09,4.09,0,0,0,.69.53c-.25.11-.63.27-1.06.48A1.77,1.77,0,0,0,40.74,20.24Zm1.63,4.41c-.26-.34.57-1.49,1.51-2.39a5,5,0,0,0,.7.24,1.27,1.27,0,0,1,.09.75,8.63,8.63,0,0,0-.17.93c0,.11,0,.21,0,.3a3.18,3.18,0,0,0-.06.81,19.19,19.19,0,0,0-2-.6Zm7.52,1a5.45,5.45,0,0,1-.54.37.62.62,0,0,0-.07-.49c-.29-.48-.84-.39-1.42-.18a4.73,4.73,0,0,0-.64-2.56,1.37,1.37,0,0,1,.27-.85.67.67,0,0,1,.51-.18h.07a13.71,13.71,0,0,1,1,1.21l.23.62a6.47,6.47,0,0,1,.41,1.3,1,1,0,0,0,.28.64A.57.57,0,0,1,49.88,25.65Zm2.35-1.17a1.33,1.33,0,0,1-1.45.77h0a4.58,4.58,0,0,0-1.11-2.6,3.39,3.39,0,0,1-.32-1.79c.39.28.79.61,1.17,1A7.88,7.88,0,0,0,52,23.76l.15.14,0,0A.72.72,0,0,1,52.23,24.48Zm1.88-1.38a5,5,0,0,1-.48,1.1,3.39,3.39,0,0,1-.85-.66A7,7,0,0,0,51,21.39,3,3,0,0,1,50.6,20a15.19,15.19,0,0,1,1.61.84A12.31,12.31,0,0,0,54,22.33.87.87,0,0,1,54.11,23.1Zm2.83-1.61c0,.65-.17,1.07-.39,1.19s-1.08-.23-1.74-.6l-.18-.1-.2-.13a6.35,6.35,0,0,0-1.85-1.57,5.08,5.08,0,0,1-1.15-1.57c.43.07,1,.18,1.65.33.73.45,1.46.84,1.8,1a16.21,16.21,0,0,0,1.85.78A1.06,1.06,0,0,1,56.94,21.48Zm2.5-2.15a.4.4,0,0,1,.08.33,1,1,0,0,1-.51.71,2.85,2.85,0,0,1-1.88-.12,7.79,7.79,0,0,0-3.84-1.86,6.91,6.91,0,0,1-1.57-1.2,1.22,1.22,0,0,1,.54-.37,33,33,0,0,0,3.77,1c.26.05.54.09.83.13A5.55,5.55,0,0,1,59.44,19.33Zm1.21-2.44c-.17.41-1.79.63-3.61.42a34.9,34.9,0,0,0-4.69-1.15,9.75,9.75,0,0,1-1.16-.48c.46-.06,1-.17,1.63-.31l1.53-.3c1.85-.17,4-.1,5.36.81C60.55,16.44,60.7,16.77,60.65,16.89ZM58.16,11.4c.74.54,1.1,1,1,1.35-.15.61-1.58,1.13-4.27,1.55l-.6.11a23.19,23.19,0,0,0-3.69.65.74.74,0,0,1-.44-.1.28.28,0,0,1-.09-.21l.36-.33A19.05,19.05,0,0,0,54,12.3c.5-.37.93-.72,1.3-1.05A3.07,3.07,0,0,1,58.16,11.4Zm-3.21-3.7a1.13,1.13,0,0,1,.33,0c.65.19,1,.46,1.06.79s-.12,1-1.44,2.15a16.66,16.66,0,0,0-4.83,3.16,3,3,0,0,1-.66.2l.24-.46c1.17-1,3.4-3.17,3.88-5.27A2.44,2.44,0,0,1,54.94,7.71Zm-4,3.7a19.19,19.19,0,0,1,1.43-1.94A11,11,0,0,1,51,11.4Zm.92-5.55h0c.3,0,.58.35.77.65A2.14,2.14,0,0,1,52.94,8a19.54,19.54,0,0,0-3.82,5.2l-.45.38,0,0c-.06-.1-.17-.48.11-1.6a14.41,14.41,0,0,0,1.49-3.45,6.21,6.21,0,0,0,.13-.86C50.83,6.72,51.37,5.9,51.88,5.85Zm-4.1-.4a3.1,3.1,0,0,1,.5,0,1.38,1.38,0,0,1,1.05.39,2.19,2.19,0,0,1,.4,1.64c-.32.65-.61,1.37-.88,2.08l0,.11a19.22,19.22,0,0,0-.67,2,8.44,8.44,0,0,1-1.36,1.83l-.15,0c0-.16,0-.31,0-.48.29-1.35.81-4.28.31-6.23C47.11,6,47.39,5.52,47.78,5.46Zm-4.7.15A1.27,1.27,0,0,1,44,5.3a3.76,3.76,0,0,1,1.36.31,1.67,1.67,0,0,1,.87,1.16,23,23,0,0,0-.3,6.18l-.1.44h-.45l-.17-.17a22.57,22.57,0,0,1-1.53-3.79c-.26-.74-.51-1.46-.72-2A1.68,1.68,0,0,1,43.08,5.61Zm1.52,7.88-.22.05v-.08c0-.09,0-.26-.05-.5A4.3,4.3,0,0,0,44.6,13.49ZM39,6.61a1.17,1.17,0,0,1,1-.41,3.86,3.86,0,0,1,.82.1c1.63.36,2.46,4.19,2.75,6.39-.51-.45-1.25-1.12-2-1.83a9.7,9.7,0,0,0-2.58-3.09A1.32,1.32,0,0,1,39,6.61ZM36.79,7.76a5.38,5.38,0,0,1,.72.05,2.6,2.6,0,0,1,1,.37A4.45,4.45,0,0,0,39,9a22.37,22.37,0,0,0,2.12,2.28c.34.6.62,1.18.83,1.64l-1.26-.86c-1.36-1.62-3.08-3.21-4.86-3.63a.52.52,0,0,1,0-.34C35.84,7.92,36.14,7.76,36.79,7.76Zm.88,2.31-.61-.38-.2-.14A7.61,7.61,0,0,1,37.67,10.07ZM34.66,9h.28a3,3,0,0,1,.44,0,4.06,4.06,0,0,0,1.35,1.24c.89.54,2.29,1.47,3.49,2.28.53.63,1,1.24,1.34,1.75A24.73,24.73,0,0,1,38.89,13a13,13,0,0,0-5.18-2.75c-.32-.29-.44-.54-.42-.68S33.7,9.1,34.66,9Zm-2.52,1.82a3.85,3.85,0,0,1,.5,0,4.74,4.74,0,0,1,.79.08,7,7,0,0,0,1.76,1c1,.4,2.1,1,3.21,1.6l.11.06c.75.6,1.36,1.17,1.73,1.54a16.52,16.52,0,0,1-2.07-.49,36.16,36.16,0,0,0-7-2.35c-.72-.35-1-.66-1-.78S30.27,11.06,32.13,10.82Zm-1.21,4.64c-1.16-.18-1.88-.62-2-1.22a1.46,1.46,0,0,1,.94-1.37,1.08,1.08,0,0,1,.48-.08,4.06,4.06,0,0,1,.57.05,10.6,10.6,0,0,0,1.23.5l.81.27c2.13.72,3.73,1.24,4.93,1.58l1.21.53a19.09,19.09,0,0,1-3.61.13A23.56,23.56,0,0,0,32,15.48h-.82Zm-.39,2.28c0-.11-.1-.24-.18-.39l-.12-.21c-.14-.25-.33-.59-.26-.7s.24-.24,1.19-.29c1,.13,2.6.28,4.23.35,1.38.24,2.65.53,3.38.72a18.59,18.59,0,0,1-2.87.61,13,13,0,0,0-4.24.34C30.72,18.17,30.67,18,30.54,17.74Zm2.15,3.07a2.38,2.38,0,0,1-1.06-1.89.61.61,0,0,1,.14-.1l1.15,0c.7,0,1.83-.14,3-.3.94,0,1.91.1,2.74.18a1,1,0,0,1,.53.42,3,3,0,0,1-1,.5,15.88,15.88,0,0,0-2.55.87c-.31.11-.63.23-.94.35A2.15,2.15,0,0,1,32.69,20.82ZM36.5,23.3A2.34,2.34,0,0,1,34.77,22a.19.19,0,0,1,0-.19,2.26,2.26,0,0,1,1-.74l1.44-.49,1-.35c.51-.14,1-.25,1.43-.34.16.07.33.17.37.3.09.38-.62,1.18-1.29,1.9a4.17,4.17,0,0,0-1.24,1.07A1.89,1.89,0,0,1,36.5,23.3Zm3.81,1.38a2.91,2.91,0,0,1-2.23-1,2.84,2.84,0,0,0,.7-.55l.39-.43h0a20.08,20.08,0,0,1,2.57-1.29.33.33,0,0,1,.12.16c.24.61-.37,2.14-.88,3C41,24.61,40.74,24.7,40.32,24.68ZM47.4,42.3c-.15-.68-.4-2.34-.7-4.27-.53-3.44-1.18-7.72-1.72-9.62A4.27,4.27,0,0,0,43.48,26a2.36,2.36,0,0,0,.52.07,1.46,1.46,0,0,0,.38,0l.11,0,.23.08a13.19,13.19,0,0,0,1.4.45,1.91,1.91,0,0,0,1-.17,1.43,1.43,0,0,0,.18.27,2,2,0,0,0-.7.52c-.52.71-.58,2.26.69,8.14.69,3.2,1.13,5.65,1.38,7.17v.22h0l.12.74a2.74,2.74,0,0,0-.42-.22l-.25-.09-.14.23-.19.34-.06-.13C47.61,43.19,47.51,42.77,47.4,42.3Zm-3.18-.54c-1.11-1-1-1.55-.95-2.05a1.87,1.87,0,0,0,0-.67.42.42,0,0,0-.36-.36h0c-.88,0-3,3.89-3.27,4.52l0,0a12.76,12.76,0,0,1-.52-2.94c0-.06.23-.62,3.94-2,.68-.23,2.52,2.42,4,5.33A11.19,11.19,0,0,1,44.22,41.76Zm-3.8,13.83c-2.55-.45-3.12-1.25-3.66-2a4.48,4.48,0,0,0-.92-1,3.79,3.79,0,0,0-2.56-.67,5.6,5.6,0,0,1-1.36-.11c0-.48,2.56-2.18,6.87-2.07a9.59,9.59,0,0,1,6.84,2.63l.17.16A16.56,16.56,0,0,0,46,54.52,7.35,7.35,0,0,1,40.42,55.58ZM48,44.79l.09,0v0l.26.09-.18-.39.25-.49c.78.46,3.19,2.31,3.9,8.2a19.27,19.27,0,0,1-1.71,10.43c-.8-.71-3-3.06-3.88-8A17.2,17.2,0,0,1,48,44.79ZM44.43,70.33c-2.81-.24-3.45,0-6.13,1.14l-.37.15c-2.92,1.21-8.3.61-9.42,0a7.42,7.42,0,0,0-3.14-.2c-1.52.07-3.25.15-4-.35-.1-.07-.15-.44.11-1.13,1-2.71,6.11-8.35,14.46-7.41,6.81.76,11.25,5.53,13.48,8.7a10.21,10.21,0,0,0-1.81-1.36,26,26,0,0,0-13.07-4.59c-8.07-.38-11.7,2.95-12.17,3.79a.54.54,0,0,0,0,.59c.23.32.58.14,1.28-.22a20.72,20.72,0,0,1,12.87-2.3c5.78.64,9.27,2.34,11,3.48a17.91,17.91,0,0,1,1.47,1.13l.45-.46a23.51,23.51,0,0,1,1.43,2.3l.14.65C49.85,72.83,47.46,70.59,44.43,70.33Zm-3.3-3.05a35.52,35.52,0,0,0-4.53-.79,21.72,21.72,0,0,0-13,2.24c1.21-1.05,4.21-2.81,9.68-2.81q.61,0,1.26,0A22.73,22.73,0,0,1,41.14,67.28Zm10.53,6.58.12-.06s-.08-.17-.22-.43c-.13-.62-.25-1.24-.36-1.89C50.43,66.9,50.12,64.13,50,63a5,5,0,0,0,.48.4l.29.2.18-.31L51.1,63a128.64,128.64,0,0,0,3.22,13.49,66.85,66.85,0,0,1,2.3,9c0,.55,0,1,0,1.4-.22-.43-.44-.87-.68-1.29a26,26,0,0,0-1.8-2.77l.11,0A62.81,62.81,0,0,1,51.67,73.86ZM47.21,88.79a22.72,22.72,0,0,0-5-2.25l.2-.15a17.72,17.72,0,0,1-2.55-5.87,14.85,14.85,0,0,1,.25-7.34c1.75.63,10.41,4.09,15.25,12.72A35.29,35.29,0,0,1,59.47,100L58,97.58A117.71,117.71,0,0,0,47.91,83.86a32.87,32.87,0,0,1-5.28-7.4c-.21-.42-.3-.63-.59-.58a.37.37,0,0,0-.31.35c-.11.64.22,1.95,5.67,9.49A129.34,129.34,0,0,0,57.45,98l2,2.13a39.05,39.05,0,0,1,.11,4.85C57.42,99.08,55,93.53,47.21,88.79ZM55,94.3c-1.88-2.18-4.47-5.32-7.1-9q-1-1.35-1.78-2.5.58.69,1.26,1.46A101.37,101.37,0,0,1,55,94.3Zm5.1,12.12h0a33.09,33.09,0,0,0,.08-4.9c.3,0,.31-.17.39-1.28s.27-3.79.86-8.21l.21-.13c.53-.32,5.09-4.79,4.62-5.59-.14-.24-.41-.25-.79,0-1.3.74-3,3.26-3.85,4.48.26-1.67.61-3.5,1-5.47,1-.06,5.87-5.83,5.89-5.9l.09-.32-.31-.1A.47.47,0,0,0,68,79a33.68,33.68,0,0,0-4.94,4.66c.72-3.1,1.63-6.46,2.69-10l.09-.29A.47.47,0,0,0,65.8,73l-.15-.14-.19.05c-.61.17-2.09,4.73-3.69,11.36a71.23,71.23,0,0,0-2,12.94,36.08,36.08,0,0,0-2.55-8.93l.13,0a11.73,11.73,0,0,1-.09-2.53h0l0-.2a31.28,31.28,0,0,1,1.65-8,9.69,9.69,0,0,1,8.76-6.91c.51.88,2.94,5.79.13,15l-.52,1.71c-2.84,9.27-4.14,13.5-2.34,18.25,1.56,4.14-1,7.67-1.63,8.45a52.8,52.8,0,0,1-2.92-6.87Zm3.41-17.17a15.45,15.45,0,0,1,1.51-1.77C64.65,88,64.1,88.64,63.54,89.25Zm2.74,29.25.17,0s1.45-6.81,3.48-16.41c.31-1.49.63-2.9.93-4.24,1.63-7.28,2.91-13,1.66-20.78C71.06,68,68.44,63.51,68.33,63.33l-.05-.09-1.59-.73a10.29,10.29,0,0,1-3.95-3.75c-.69-1-1.39-2-1.84-2.65a6.08,6.08,0,0,1,1.82.63c.34.22.57.15.69,0,.35-.28.18-.94-.35-2.4l.16.21.08-.06a16,16,0,0,0,2.39,2.21c.39.27.83.53,1.13.27s.1-.87-.58-2.22c-.22-.44-.46-.92-.62-1.32l.49.57.25.34,0,0c.42.49.87,1,1.3,1.43.15.15.57.55,1,.35s.43-1.06.24-2.47l0,.07c.13.39.28.84.45,1.38.09.27.27.79.65.73a.39.39,0,0,0,.26-.14l0,0v-.07c.23-.31.33-1.15.46-3.28.09.56.18,1.21.25,1.85s.11,1,.49,1,.47-.34.67-1.14l.1-.39c0-.17.09-.35.13-.54a3.35,3.35,0,0,1,.35-1.07.55.55,0,0,0,.45.1,1.11,1.11,0,0,0,.56-.4h0v-.05a9.79,9.79,0,0,0,.81-1.22l.18-.29-.25.77a34.82,34.82,0,0,0-1.74,7c-.27,2.94-1.53,3.42-2.28,3.7-.29.11-.52.2-.64.42-.31.58-.28,1.6,2.93,9.65C76,79.71,74,90,72,98.11c-.83,3.28-1.59,7.27-2.23,11l-.19.25.18-.15c-.93,5.46-1.58,10.31-1.74,11.51l-.44-.56C67.11,119.57,66.67,119,66.28,118.49Zm10.47-2.8c-2.07,7.07-3.21,10.76-3.66,12.16-1.08-1.65-2.8-4.19-4.82-6.8l.36,0c0-.08.54-4.22,1.38-9.38l.25-.33c0-.05,4-5.13,7.95-5.32a16.8,16.8,0,0,1,2,0C79.62,107.09,78.54,109.55,76.74,115.69Zm4-10.21,0,0,0,0a19.12,19.12,0,0,0-2.49-.07c-3.26.16-6.36,3.21-7.72,4.73a17.15,17.15,0,0,1,.39-1.82l1-.84a45.49,45.49,0,0,1,7.88-5.13,4.76,4.76,0,0,0,2.64,2.16,17.34,17.34,0,0,0,4.48,1.18l.25,0,.07-.66L87,105h0a19.52,19.52,0,0,1-3.79-1.3,8,8,0,0,1-2.8-1.69,18.07,18.07,0,0,1,3.71-1.29c.43-.09.88-.16,1.32-.22a5.77,5.77,0,0,0,2.72,2.3,12.54,12.54,0,0,0,4.1,1.37l1.24.13c-1.14.49-2,.91-2.3,1-2.31,1.09-5.27.73-8.14.38C82.27,105.64,81.49,105.55,80.73,105.48Zm2.59,1h0l0,0Zm41.24,39.9a15.29,15.29,0,0,1,4,1.79c-.31.12-2.84.13-6.54-2.61a28.72,28.72,0,0,1-3.88-3.24h.56l-.13,0C118.6,142.4,119.43,144.48,124.56,146.33ZM114.1,135.95c7.29-2.55,11.82-2.43,12.64-2a9,9,0,0,1-1.89.23,23.94,23.94,0,0,0-8.92,2c-4.87,2.23-6.35,3.63-6.7,4-1.26-.11-2.47-.18-3.64-.23C106,139.49,107.66,138.19,114.1,135.95Zm-36.66,8.42c.11-1.19.57-5,2.4-13.87,2.24-10.92,8.09-18.17,11.47-20.38a14.24,14.24,0,0,0,3.52-3.24,5.58,5.58,0,0,1,1.36-1.34c.07,0,.17-.07.34,0,1.12.7,2.59,5.19,1.79,14.24a42.2,42.2,0,0,1-6.7,18.58c-2.24.89-4.7,1.9-7.1,2.93l.06-.11a122.71,122.71,0,0,0,7.92-19.35c2.27-7.55,3.56-13.9,3.14-14.34l-.14-.14-.19,0c-.22.05-.29.28-.35.5s-.23.89-.41,1.67a119,119,0,0,1-4.69,15.78c-1.12,2.87-2.34,5.62-3.42,8-2,4.57-3,6.8-2.63,7.62a.61.61,0,0,0,.37.34l.12,0c-2.41,1-4.75,2-6.76,2.93Zm7.06-4.46A61.44,61.44,0,0,1,87,133.68c1.08-2.43,2.31-5.18,3.43-8.07.4-1,.77-2,1.12-3A123.45,123.45,0,0,1,84.49,139.91ZM72.21,159c-1.66,2.53-2.58,3.87-3.08,4.59.49-2.44.92-4.49,1.21-5.79l1.41-6.23c.93-.35,2.14-.77,3.55-1.22C75,151.75,73.77,156.69,72.21,159Z"/><path class="cls-1" d="M117.86,3.28a4.18,4.18,0,0,1-1.27-.51c0-.17-.06-.49-.1-.84-.12-1.3-.16-1.69-.54-1.72-.22,0-.36.12-.45.42a2.92,2.92,0,0,1-1,1.62.45.45,0,0,1-.37,0c-.69-.23-2.79-.91-4.09.21-.5.43-.94.63-1.21.54s-.33-.35-.39-.58a4.57,4.57,0,0,1,0-1.37c.05-.58.09-.93-.22-1.07s-.52.11-.6.19a5.82,5.82,0,0,0-.83,1.86,7.21,7.21,0,0,1-.89,2c-.41-.51-.27-1.79-.2-2.4s.08-.76-.21-.85-.44.2-.5.3a16.77,16.77,0,0,0-.67,4.27c-.05.57-.1,1.07-.14,1.4a12.42,12.42,0,0,1-1.24-1.2c-.79-.83-1.06-1.12-1.38-1a.4.4,0,0,0-.2.45,6.3,6.3,0,0,0,.81,1.69c.12.21.27.46.39.69l-.41-.29c-.53-.39-.92-.68-1.27-.51a.52.52,0,0,0-.29.48c0,.45.46,1,1.48,2.2a18,18,0,0,1,3,4.09,7.3,7.3,0,0,0,5.7,4.13,6.2,6.2,0,0,0,2.74-.26l.06,0a5.67,5.67,0,0,0,3.37,1.19,5,5,0,0,0,1.41-.2,12.6,12.6,0,0,0,3.93-2.15,9.45,9.45,0,0,1,2-1.21c.85-.33,3.94-2,3.77-2.7a.38.38,0,0,0-.47-.26,6.91,6.91,0,0,0-.7.19,7.11,7.11,0,0,1-1.13.29,7.29,7.29,0,0,1,.77-1.14c.47-.62.67-.88.47-1.15a.42.42,0,0,0-.53-.11,4.92,4.92,0,0,1-1.14.28s0-.13.25-.52c.71-1.06.91-1.7.64-2.08-.12-.17-.38-.34-.9-.19-1,.28-1.33.22-1.42.11s0-.27,0-.48c.06-1.44.06-2.66-.5-3a.68.68,0,0,0-.72,0,1.94,1.94,0,0,1-2,.14v0h-.06c-.19-.08-.39-.18-.62-.31A10.48,10.48,0,0,0,117.86,3.28Zm-3.07-.45a2.7,2.7,0,0,0,1-1.17l0,.33c0,.38.07.73.1.91.1.52.78.72,1.72,1a13.45,13.45,0,0,1,1.44.52,2.55,2.55,0,0,0-1,.46,3.41,3.41,0,0,0-1,1.19A5.54,5.54,0,0,0,115,5.29a6,6,0,0,0-1.26-2.41l.12,0A1.1,1.1,0,0,0,114.79,2.83Zm.6,14.78c1.45-1.54.81-5.15.62-6.06a4.14,4.14,0,0,0,.49-.12,4,4,0,0,1,1,2.8,5,5,0,0,1-1.29,3.6A4.74,4.74,0,0,1,115.4,17.61Zm-1.64-.91-.16-.14-.1,0a.75.75,0,0,1-.14-.16,2.15,2.15,0,0,1-.13-1.63,7.74,7.74,0,0,1,.77-2.17h0v-.07l.21-.37a9.65,9.65,0,0,1,0,2.95,3.15,3.15,0,0,1-.52,1.54Zm-8.31-4.89a4.17,4.17,0,0,1,2-3.59,3.94,3.94,0,0,1,4.07.1,3.24,3.24,0,0,0,.36,1.06,5.24,5.24,0,0,0-6.39,2.43Zm8.5-.34,0-.12.1,0Zm1,3.81a10.84,10.84,0,0,0-.13-3.73,4.42,4.42,0,0,0,.53,0h0c.3,1.36.72,4.73-.63,5.73l-.43-.24A4.2,4.2,0,0,0,114.92,15.28Zm1.57-4.53a3.72,3.72,0,0,1-1.86.13l0-.16-.11.12a2.6,2.6,0,0,1-1.5-.92c-.94-1.23-1.33-2.27-.17-3.37a2.31,2.31,0,0,1,1.65-.66,5.44,5.44,0,0,1,2.94,1.18,1.57,1.57,0,0,1,.35,2.25l-.05.07V9.5A1.64,1.64,0,0,1,116.5,10.75Zm-3.12-5.45.16.08-.19.07A.26.26,0,0,1,113.38,5.31Zm-.8-2.71a6,6,0,0,1,1.77,2.66l-.37,0c-.1-.28-.52-.72-1.77-1.47a4.85,4.85,0,0,0-2-.66l.2-.15A2.64,2.64,0,0,1,112.58,2.6ZM105.1,4a1.64,1.64,0,0,0,.27.5.62.62,0,0,0,.6.26c.57-.1.91-1,1.42-2.49.11-.31.23-.66.34-1a4.23,4.23,0,0,0,0,1.28,1.3,1.3,0,0,0,.83,1.05,1.22,1.22,0,0,0,.64,0l0,.12a4.37,4.37,0,0,1,2.61.58,5.51,5.51,0,0,1,1.46,1.09,3,3,0,0,0-1,.62l-.2.22A10.75,10.75,0,0,0,107,5.13a5,5,0,0,0-2,.5V5.5C105,5.06,105,4.55,105.1,4Zm-3.74,3.44.38.27a3.64,3.64,0,0,0,1.11.64.44.44,0,0,0,.48-.15c.23-.31,0-.73-.61-1.76l-.15-.25c1,1,1.46,1.46,1.88,1.34a.49.49,0,0,0,.33-.41c0-.13,0-.32.07-.55h0c0-.18.44-.68,2.15-.82a10.21,10.21,0,0,1,4.74,1,2.36,2.36,0,0,0-.27.73,4.65,4.65,0,0,0-4.4.07,4.75,4.75,0,0,0-2.31,4.09,28.2,28.2,0,0,0-2.22-2.78A15.59,15.59,0,0,1,101.36,7.48Zm4.25,5.73,0,0a4.65,4.65,0,0,1,2.6-3,5.12,5.12,0,0,1,4.34.28l.09.09a4.49,4.49,0,0,0-2.77,2.72,4.49,4.49,0,0,0-.24,3.46A6.47,6.47,0,0,1,105.62,13.2Zm5.17,3.74-.28-.05c-.09-.09-1-1.06,0-3.43a3.53,3.53,0,0,1,2.62-2.38,2.27,2.27,0,0,1,.27,1.34,8.37,8.37,0,0,0-.79,2.27,2.79,2.79,0,0,0,.24,2.14A5.69,5.69,0,0,1,110.79,16.94Zm7.31.77a4.21,4.21,0,0,1-1,.16,5.9,5.9,0,0,0,1.12-3.64,4.71,4.71,0,0,0-1-3,2.26,2.26,0,0,0,1.17-1.52l.11-.19a5,5,0,0,1,2.91,2.09,3.73,3.73,0,0,1,.53,4l.09,0-.15.11A12.07,12.07,0,0,1,118.1,17.71Zm7.81-6.78,0,0a6.49,6.49,0,0,0-.9,1.39.57.57,0,0,0,.08.63c.24.25.66.22,1.28,0a13.31,13.31,0,0,1-2.41,1.34,6.26,6.26,0,0,0-1.18.64,4.4,4.4,0,0,0-.88-3.86,5.76,5.76,0,0,0-3.2-2.31,2.32,2.32,0,0,0,.06-.45,7.92,7.92,0,0,1,2.92.37,4.86,4.86,0,0,1,2.86,1.83l.07,0a.54.54,0,0,0,.08.21C124.81,10.93,125.09,11.12,125.91,10.93Zm-3-6.15c.13.09.27.59.19,2.42,0,.23,0,.42,0,.53a.69.69,0,0,0,.28.56c.39.29,1.08.19,2-.05l.19,0a3,3,0,0,1-.64,1.31,3.43,3.43,0,0,0-.18.3,5.91,5.91,0,0,0-2.9-1.68,8.57,8.57,0,0,0-3.17-.39,2.27,2.27,0,0,0-.85-1.18l-.15-.1a2.71,2.71,0,0,1,.83-1A2.84,2.84,0,0,1,120.32,5,2.61,2.61,0,0,0,122.94,4.78Z"/><path class="cls-1" d="M72.73,162.67h.06c.33,0,1.38-.69,7.6-12.25l.35-.66L80,150c-1.84.46-7.82,10.86-7.63,12.34A.42.42,0,0,0,72.73,162.67Zm6.21-10.95c-2.24,4.09-4.58,8.15-5.69,9.69A51.35,51.35,0,0,1,78.94,151.72Z"/><path class="cls-1" d="M87.72,117.76c.37-1.11.4-1.2.13-1.36s-.44.06-.59.23l-.2.2c-.65.6-1.73,1.6-3,7.22-.86,3.75-2.23,13-2,15.17v.11h0c0,.18.07.29.13.32l.25.11.24-.28v-.11a74.52,74.52,0,0,1,2.76-14.25C86.64,121,87.37,118.83,87.72,117.76Zm-3.94,11.11c.26-1.62.56-3.22.9-4.67.93-4,1.73-5.59,2.31-6.34-.38,1.17-1.09,3.34-2.17,7.08C84.42,126.31,84.08,127.63,83.78,128.88Z"/><path class="cls-1" d="M91.81,127.5A47.71,47.71,0,0,0,89,134.86l0,1,.63-.72c.3-.34,7.34-8.5,7-13.06-.05-.73-.27-1.13-.71-1.1S94.73,121,91.81,127.5Zm4-5.93s.08.09.11.51c.23,3.29-3.87,8.88-5.84,11.35.48-1.36,1.31-3.44,2.24-5.54C94.51,123.06,95.61,121.66,95.85,121.57Z"/></g></g></svg>