<svg xmlns="http://www.w3.org/2000/svg" viewBox="0 0 55.8 155.92"><defs><style>.cls-1{fill:#fff;}</style></defs><title>קנרס</title><g id="Layer_2" data-name="Layer 2"><g id="Expended"><path class="cls-1" d="M55.49,62.63a2.84,2.84,0,0,0-1.25.74,4.67,4.67,0,0,0,0-.86c-.3-1.92-2.45-4-2.57-4.14l-.15-.15-.77-.79.09.3a3.22,3.22,0,0,0-.5-.23l-.45-.15a2.47,2.47,0,0,1-1-.48c-.45-.37-.4-.63-.4-.63l.25-.73-.7.32a3.67,3.67,0,0,0-1,.8A2.07,2.07,0,0,0,45.3,56l-.39,0a4.9,4.9,0,0,1,1-.54c.34,0,.4-.21.41-.3s-.09-.31-.28-.38l0-.29c0-.3-.19-.34-1-.33a5.21,5.21,0,0,1,.43-.53c.24-.27.12-.47.06-.54s-.28-.32-1.6.5a.45.45,0,0,0,0-.17.46.46,0,0,0-.4-.25c-.16,0-.48.05-.78.54a.46.46,0,0,1-.5.24H42.1l0-.06c-.08-.31-.33-.61-.64-.56s-.41.31-.36.78c0,.17-.66.36-.89.43a2.89,2.89,0,0,0-.47.16c-.07-.09-.17-.22-.31-.44a.43.43,0,0,0-.52-.2c-.44.16-.59,1.28-.63,2a.43.43,0,0,0-.32-.07l-.21.06-.07.15a.84.84,0,0,0-.09.45c0,.07,0,.1,0,.1a.63.63,0,0,1-.15,0l-.34.07v.27c0,.28.24.34.5.41l.25.06a.56.56,0,0,0,.07.48.73.73,0,0,1,0,.6.36.36,0,0,0-.37,0l-.16.11,0,.19s0,.08,0,.16a6,6,0,0,0,0,1.74,3.61,3.61,0,0,0-1.64,2.38,5.09,5.09,0,0,0-.06,2.62,1.28,1.28,0,0,1-.24-.17,1,1,0,0,1-.33-1c0-.08,0-.14,0-.19l0-.22-.38-.17-.16.1a3.08,3.08,0,0,0-.81,2.43A4.58,4.58,0,0,0,35,69.47a2.78,2.78,0,0,1-1-.37L33.87,69l0-.39c-1.16-10.64-1.36-14.1-1.28-15a4.35,4.35,0,0,0,2,1.09,3.87,3.87,0,0,1,1.81.85.53.53,0,0,0,.07.2l.14.21.47-.18v-.25a.41.41,0,0,0,0-.12,1.46,1.46,0,0,1,.37-1A4.56,4.56,0,0,0,38,51a1.74,1.74,0,0,0,.78.17,3.26,3.26,0,0,0,.81-.11,6.9,6.9,0,0,0,1.21-.45,1.73,1.73,0,0,1,1.6-.17,3.06,3.06,0,0,1,.94.53.47.47,0,0,0,.71,0A4.22,4.22,0,0,0,44.31,48a1.29,1.29,0,0,0-1-.8,5.11,5.11,0,0,1,2.28-1.29c1.68-.41,3.49-1.32,3.49-2.05a.63.63,0,0,0-.23-.48A2.52,2.52,0,0,0,47.17,43l-.43.07,0-.17c.41-.58,2.16-3.18,1.57-5.35-.13-.48-.25-.87-.35-1.2-.37-1.2-.43-1.38.18-2.16,1-1.28-.23-4-.38-4.35l-.17-.37-.33.24a8.83,8.83,0,0,0-1.16,1.1,4.08,4.08,0,0,0-1.32-2.18,11.32,11.32,0,0,1-2.28-4.07c-.14-.39-.22-.59-.5-.55l-.27.06,0,.26a14.36,14.36,0,0,1-.56,2.22c-.33-.25-1-.77-2.17-1.87a11,11,0,0,1-2-2.49c-.34-.54-.61-1-1.12-.79-.1,0-.4.15-.75,1.14A12.59,12.59,0,0,0,33.27,21l-.35-.27-.07-.06c-.45-.36-.88-.68-1.26-.6C32.47,18.76,34,17,36,17.46a10.19,10.19,0,0,1,4.56,2.86c.43.42.61.59.87.45a.38.38,0,0,0,.16-.46c-.17-.72-2-2.66-3.55-3.54a8.56,8.56,0,0,0,2.77-.47,8.4,8.4,0,0,0,2.28-1.08l.32-.27-.78-.59-.19.11a10.45,10.45,0,0,1-3,1.08,9.19,9.19,0,0,1-1.84.18l.42-.3c.45-.31,1-.69,1.63-1.18L40,14c2.43-1.87,3.16-2.43,2.75-3.16a.52.52,0,0,0-.34-.25c-.49-.12-1.25.37-2.57,1.23l-.37.25c.9-1.2,1.66-2.33,1.6-3.16-.08-1.07-.12-1.38-.47-1.42s-.41.26-.52.62a10,10,0,0,1-.89,1.45c1.48-4.38,1-4.73.8-4.87l-.16-.1-.16.05c-.22.07-.27.25-.49,1a20.1,20.1,0,0,1-3.39,6.86l.9-2.11a19.32,19.32,0,0,0,2.09-3.8l0-.15c.84-2.59.84-2.59.3-2.82l-.19-.06-.13.06c-.26.12-.37.42-.72,1.48-.17.5-.36,1.1-.61,1.74a17.48,17.48,0,0,0,.37-3.5c0-.18-.15-.62-.5-.66a.49.49,0,0,0-.48.3l0,.08V3.1a16.13,16.13,0,0,1-1.22,6.57,12.22,12.22,0,0,1-1,2c.14-.35.28-.72.41-1.1,1.64-4.95,1.47-7.12,1.46-7.13a.47.47,0,0,0-.11-.37.86.86,0,0,0-.65-.25c-.54,0-.56.5-.63,1.45a25.13,25.13,0,0,1-1,5.5,18.71,18.71,0,0,1-.85,2.29c.31-.77.46-1.36.29-1.52a1.64,1.64,0,0,1-.18-.21,1.08,1.08,0,0,0-.46-.4,10.91,10.91,0,0,0,.69-4.62c-.07-3.12-.63-3.94-.7-4l-.08-.1-.67-.1L32.06.67l-.65.44,0-.15L31,1a3.08,3.08,0,0,0-.49.17.38.38,0,0,0-.19.18,3,3,0,0,0,0-.34c-.1-.57-.9-.66-1.07-.67l-.37,0L29,2.52a6.4,6.4,0,0,1-.08,1.18C29,1,28.77.36,28.54.15L28.35,0,28,.1c-.38.1-.38.43-.33,1.41l0-.26-.33.06-.65.12c-.49.09-.43.6-.34,1.37a20.69,20.69,0,0,1,.16,2.58,22.11,22.11,0,0,1-.27,3.26,49,49,0,0,0-.5-5.78c0-.36-.08-.6-.09-.69s0-.44-.26-.51l-.27,0-.14.19,0,0a.43.43,0,0,0-.15-.23A.85.85,0,0,0,24,1.56l-.21.06,0,.22c0,.06-.06.24-.12.49-.15.57-.39,1.53-.59,2.56A24.32,24.32,0,0,0,21.83.43L21.74.22H21.5a2.28,2.28,0,0,0-.57.13.46.46,0,0,0-.28.23c-.09.19,0,.34.11.71s.38,1,.73,2.18h-.12c-.31,0-.33.24-.31.74L21,4.31c-.23.31-.21.87.09,1.75.48,1.46,1,9.17,1,10.14a1.31,1.31,0,0,1,0,.27h-.08l-.19,0c0-.08,0-.19,0-.31,0-.63,0-1.93-.26-4.5a27.4,27.4,0,0,0-2.05-8.33c-.07-.17-.12-.28-.13-.33a.5.5,0,0,0-.36-.38.87.87,0,0,0-.76.31L18,3a5.58,5.58,0,0,0-.58-.91L17.33,2h-.16a3.17,3.17,0,0,0-.69.13.4.4,0,0,0-.28.25c-.08.21,0,.38.23.7a19,19,0,0,1,1.74,3.46.41.41,0,0,0-.09-.12.71.71,0,0,0-.69,0l-.15.07,0,.16A16.3,16.3,0,0,0,17.15,10a7.47,7.47,0,0,0,.22,1.5c-.24-.6-.5-1.28-.78-2.05a12.33,12.33,0,0,1-.73-6l.06-.34-.34-.05-.45,0L15,3.14c-.23.22-.22.41,0,3.52l.1,1.19A13.25,13.25,0,0,0,16,11.46l0-.05c-2-4.64-1.55-7.64-1.55-7.67l.08-.54-.81.28c-.48.16-.43.69.58,5.57l.19.91a20,20,0,0,1-.89-2.14c-1.16-3.2-.85-4.75-.84-4.76l.11-.5-1.32.29,0,.3s0,.41.2,1.79l-.07-.3-1,.46,0,.23A8.43,8.43,0,0,0,11,6.74a.45.45,0,0,0-.13,0l-.8.08,0,.27A17.59,17.59,0,0,0,10.45,11c.5,2.84,3.55,6.82,4.89,7.73a2.14,2.14,0,0,1,.26.21l-.23.08a1.94,1.94,0,0,0-.43.17,41.66,41.66,0,0,1-3.22-4.72A22.93,22.93,0,0,1,9,6.28L9,5.55l-.74.82c-.19.21-.18.47-.07,1H8.06a.59.59,0,0,0-.48.31c-.13.26-.06.6.22,1A2.44,2.44,0,0,1,8,9.22c0,.2.09.42.15.65A13.57,13.57,0,0,0,6,6.92a2.86,2.86,0,0,0-.29-.28.4.4,0,0,0-.24-.37c-.25-.1-.45.08-.62.24s-.13.08-.08.11l-.25,0-.08.21c-.09.24,0,.36.39.68s.81.75,1.6,1.57a11.06,11.06,0,0,1,1.93,3.4c-.3-.49-.6-1-.81-1.26A10.65,10.65,0,0,0,5.69,9l-.37-.29-.24.71c-.15-.38-.22-.6-.22-.61L4.74,8.4l-.88.5,0,.21S4,10.26,5.64,12.93a15.31,15.31,0,0,0,3.11,3.83h0l0,.18a18.32,18.32,0,0,1-2.67-2.59A8.91,8.91,0,0,1,4.06,11L4,10.6l-.38.16c-.22.1-.5.26-.57.5a3.6,3.6,0,0,0,.71,1.55h0c-.26.11-.7.35-.81.66s-.06.4.83,1.67l1.06,1.51a7.63,7.63,0,0,0,.55.7c-2.67-1.83-3.22-3.11-3.23-3.12l-.21-.54-.68.87v.14c0,.18,0,.66,3,3.57a9.07,9.07,0,0,0,3.65,2.25c-.65.09-1.42.16-2.28.19a19,19,0,0,1-4.83-.4l-.25-.06L0,21.31l.23.17c.06,0,1.56,1.15,5.35.6,1.57-.23,2.82-.45,3.73-.62l.46-.08c-.23.12-.48.27-.75.44A7.6,7.6,0,0,0,6.3,25.91l-.06.23.2.13a1.28,1.28,0,0,0,.66.25.4.4,0,0,0,.24-.07A.4.4,0,0,0,7.52,26a1.34,1.34,0,0,1,.14-.36,4.32,4.32,0,0,0,2.21-.51,7.27,7.27,0,0,1-.42,1.92,4.48,4.48,0,0,0-.38,2,12.13,12.13,0,0,0-4.22-.55c-.44,0-.63.11-.73.27-.21.33,0,.61.27,1a14.11,14.11,0,0,1,1.23,2c.95,1.84.24,2.6.21,2.63l0,0a15.17,15.17,0,0,0-2.36-.23H2.74l.5.55a5,5,0,0,1,1.13,2.81,3.61,3.61,0,0,0,.68,1.89H5l-.09.17c-.11.22-.13.5.79,2,.65,1.06.71,1.51,1,3.43l.06.43a6.05,6.05,0,0,1-2.28.23c-.76-.25-2.54,0-2.77.56a.47.47,0,0,0,0,.45c.13.22.36.24.86.28l.56,0c.48,0,1,.6,1.67,1.24a13.81,13.81,0,0,0,1.75,1.55,3.67,3.67,0,0,0,2.15.69,3.88,3.88,0,0,0,1.16-.18c-.66.52-1.06,1.09-1,1.39l0,.22L9,52a.37.37,0,0,0,.2.06,1.19,1.19,0,0,0,.44-.14,3,3,0,0,1,1.84-.3l.6.08a5.7,5.7,0,0,0-2.1,2,3.35,3.35,0,0,1-.2.29,4.76,4.76,0,0,1-.38.4c-.17.16-.34.33-.22.57a.37.37,0,0,0,.36.2h.1a1.44,1.44,0,0,0,.55-.26,2.25,2.25,0,0,1,1.65-.47,9.71,9.71,0,0,0,1.15.16,2.43,2.43,0,0,0-.34.64,3.22,3.22,0,0,0,0,2.06l.12.18.17,0H13c.28,0,.58-.29,1.61-1.36a14.45,14.45,0,0,1,1.81-1.73,1.2,1.2,0,0,1,1.2-.22,2.4,2.4,0,0,0,.79,1.69,3.63,3.63,0,0,1,.42.55,3.89,3.89,0,0,1,.24.53c.09.24.19.5.47.5h0c.29,0,.4-.29.47-.48.19-.51,1.36-.76,1.92-.88a5.38,5.38,0,0,0,1.66-.92c.32.45.82,1.19.94,1.44,0,.06,0,.27-.07.36a.46.46,0,0,0,.07.56.34.34,0,0,0,.22.08.65.65,0,0,0,.33-.12,8.91,8.91,0,0,0,1.4-1.62,9.5,9.5,0,0,1,.76,3.48,36.36,36.36,0,0,1,.1,4.13,39.4,39.4,0,0,0,.32,6.7,5.36,5.36,0,0,0-1.84-1.41.76.76,0,0,0-.72.07c-.3.24-.27.67-.24,1.09,0,.12,0,.25,0,.38-.1-.15-.21-.33-.3-.49a5.26,5.26,0,0,0-1-1.4,2.83,2.83,0,0,0-1-.51c-.27-.09-.31-.11-.37-.28-.24-.7-1.13-.74-1.78-.77l-.37,0c-.15,0-.33-.23-.5-.43s-.65-.76-1.21-.67a.74.74,0,0,0-.5.31,1.79,1.79,0,0,0-.08,1.31c-.26-.19-.56-.49-.59-.65a.55.55,0,0,0-.4-.47c-.51-.15-1.31.41-1.52.69a.47.47,0,0,0-.11.35c-.39-.36-.81-.77-1-1s-.47-.47-.56-.53-.55-.42-2.3,1.3l-.56.53.76,0a2.9,2.9,0,0,1,1,.61l-.25-.07a8.94,8.94,0,0,0-1.81-.41c-1,0-1.3.16-1.61.57l-.08.1c0,.06,0,.07-.33.06a5,5,0,0,0-1.31.13,1.81,1.81,0,0,0-1.19,2.18,12.62,12.62,0,0,1-1.51,1A3.44,3.44,0,0,0,2.8,74.53a2.77,2.77,0,0,0-.74-.26.57.57,0,0,0-.53.11c-.19.19-.15.43-.06.91a18.81,18.81,0,0,1,.3,4.2c0,1.39-.13,2.34-.21,3.1a9.13,9.13,0,0,0,.57,4.92c1,2.91,3.86,4.28,5.1,4.74A7,7,0,0,0,5.92,93.5a2.68,2.68,0,0,1-1.85,1.16,2,2,0,0,0-1.33,1.23l0,.25.2.11a.39.39,0,0,0,.47-.09,2.29,2.29,0,0,1,.6.05,7.26,7.26,0,0,0,1.17.11A4.23,4.23,0,0,0,6.71,96a1.9,1.9,0,0,0,1.36-2.53,1.07,1.07,0,0,0,.84-.08,1.39,1.39,0,0,0,.55-1c.14-.74-.39-1.2-1-1.74-1.15-1-3.08-2.69-3.23-8-.14-4.88,1.47-11,9.87-12.6,7.88-1.48,14,7.34,14,7.43l.18-.12c.05.46.09.91.13,1.36a14.94,14.94,0,0,0,1.18,5.38c.34.74.66,1.33,1,1.9,1.17,2.18,2,3.75,2.57,10.77.1,1.33.27,3.54.49,6.33,2.84,37.28,4.1,51.36,4.65,51.94a2.81,2.81,0,0,0,2.16.85,7,7,0,0,0,1.14-.11c1.26-.21,2.4-2.57,2.52-2.84l0-.08v-.09c0-.49-4.21-48-4.47-54.24l.05-.2a15.45,15.45,0,0,0,.77-2,10.56,10.56,0,0,1,1.17-1.77c1.31-1.63,4-6.5,4.16-11.11a36.58,36.58,0,0,1,.3-3.93c.11-.85.15-1.2-.1-1.44a.76.76,0,0,0-.67-.12,2.18,2.18,0,0,1-1.65-.42,1.78,1.78,0,0,1-.54-.83,3.26,3.26,0,0,0,.92.54,1.39,1.39,0,0,0,1-.07,1.78,1.78,0,0,0,.88.23h.14A2,2,0,0,0,49,76.15,3.39,3.39,0,0,0,48.58,74a5.53,5.53,0,0,0,.53-.18,1.92,1.92,0,0,0,.59.09,2.54,2.54,0,0,0,.42,0,1.47,1.47,0,0,1-.06,1.44c-.59.83-1,.88-.95.88v.06H49v.38l-.16,0A9,9,0,0,1,49,78.09C49,79.6,49,80,49,80v.2h0v.41A33,33,0,0,1,47.46,88a20.51,20.51,0,0,1-2.06,5c-.17.29-.28.47-.15.67l.36.17,0-.39.26.1a2.2,2.2,0,0,1,.12-.22A21.14,21.14,0,0,0,48.1,88.2,35.92,35.92,0,0,0,49.58,81c.86.15,2.94.37,4-.79a3,3,0,0,0,.52-3.42l-.15-.14-.16,0c-.2,0-.28.17-.44.42a16.18,16.18,0,0,1-.94,1.42,3.66,3.66,0,0,1-2.73,1.16c0-.29,0-.8,0-1.63,0-.68-.06-1.08-.09-1.33a3.12,3.12,0,0,0,1.08-1,2.07,2.07,0,0,0,.15-2,3.84,3.84,0,0,0,.78-.42,2.68,2.68,0,0,0,1.18-1.73h.08a1.86,1.86,0,0,0,1.65-1.46,4.33,4.33,0,0,0,.15-1.25A4.17,4.17,0,0,0,55.71,66a20,20,0,0,1,0-2.81l.05-.37-.3-.2ZM35.78,3.42v0h0A0,0,0,0,1,35.78,3.42Zm-.08.91c0-.32.05-.65.09-.82a11.66,11.66,0,0,1-.21,2.19C35.63,5.15,35.67,4.7,35.7,4.33ZM3.55,13.71l.05-.05,0,.18Zm1.93,7.71a8.28,8.28,0,0,1-4.61-.34l0-.08a20.31,20.31,0,0,0,4.77.37h.2Zm40.1,72v-.23h0a.29.29,0,0,1,.22.12Zm7.33-14.47c.37-.51.62-.89.79-1.16a2.56,2.56,0,0,1-.65,2c-.84.94-2.74.69-3.44.56A4.31,4.31,0,0,0,52.92,78.93Zm-5.38-5.38A1.84,1.84,0,0,1,46,73.23c-.31-.42,1-2,2.34-3.25a2,2,0,0,1,2,.4A1.46,1.46,0,0,1,50.41,72,3.67,3.67,0,0,1,47.54,73.54Zm-2.29,2.22a1.94,1.94,0,0,0-1-.49h-.09a4.53,4.53,0,0,0,1.38-1.46A3.56,3.56,0,0,0,45.25,75.77ZM38,72.88a6.32,6.32,0,0,1,2.44.22l0,.1a2.25,2.25,0,0,0,.14,1.37,3.91,3.91,0,0,1-2.18.24A4.59,4.59,0,0,1,36,73.46,5.35,5.35,0,0,1,38,72.88Zm-1.13-4a5.54,5.54,0,0,1,3.94.76,2.4,2.4,0,0,1,1.35,2l0,0c-.09.13-.09.3-.08.75,0,.17,0,.47,0,.67a3.36,3.36,0,0,0-.75-.24c-.24-.2-.93-.72-3.08-.62h0a1.71,1.71,0,0,1-1.12-1.13A4.32,4.32,0,0,1,36.89,68.83Zm2.65-4.45a1.86,1.86,0,0,1,1.19-.91l.42,0a1.68,1.68,0,0,0,1-.26,7.67,7.67,0,0,1,1.11,1.73,2.54,2.54,0,0,1,.21,1.95,13.62,13.62,0,0,0-1.18,1.91,4,4,0,0,1-.78.48L41.16,69a6.57,6.57,0,0,0-.83-.42A6.57,6.57,0,0,1,39.53,64.38Zm-1-6.51h0a.88.88,0,0,0,.49-.18l.37,0A2.5,2.5,0,0,0,41.26,57a2.23,2.23,0,0,1,1-.59,2.81,2.81,0,0,0,.92-.52,1.7,1.7,0,0,1,.14.36,4.49,4.49,0,0,0-.45,2.39,3,3,0,0,0,.17.53,2.4,2.4,0,0,0-2-.45,5.1,5.1,0,0,1-2.24.18l-.23,0A1.44,1.44,0,0,0,38.55,57.87Zm8.05,2.71a6,6,0,0,1,1.91,1.25l0,0a1.85,1.85,0,0,1,.39.55.74.74,0,0,1-.11.52,4,4,0,0,1-.72.81,3.08,3.08,0,0,0-1,1.36l-.07,0a.44.44,0,0,0-.24.06h-.16A3.52,3.52,0,0,0,44.2,66a3.57,3.57,0,0,0-.37-1.39,10,10,0,0,0-.89-1.48,6.43,6.43,0,0,1,.72-1.62l.06-.1A1.39,1.39,0,0,0,43.77,60,5.49,5.49,0,0,1,46.61,60.58Zm2.67,8.66a3.47,3.47,0,0,0-1.17.12l-.13.07a13.41,13.41,0,0,0-2.13,2.34l0,0a1.07,1.07,0,0,0-1.06-.4,8.82,8.82,0,0,1-1.05.06l-.89,0a2.7,2.7,0,0,0-.44-1.26,9.74,9.74,0,0,1,.42-1,3,3,0,0,0,.65-.75,6.31,6.31,0,0,0,.6-1.28l.07-.1a2.89,2.89,0,0,1,2.51-1.28,1.21,1.21,0,0,0,.4,0,7.58,7.58,0,0,1,2.23,2A1.14,1.14,0,0,1,49.28,69.24ZM41.81,75A1.47,1.47,0,0,1,41,73.46a2.07,2.07,0,0,1,1,.3.44.44,0,0,0,.44,0c.29-.19.29-.64.27-1.37v0a2.48,2.48,0,0,0,.06-.27c.24,0,.64,0,.93,0A8.29,8.29,0,0,0,44.89,72a.42.42,0,0,1,.4.15c.17.23.1.67-.2,1.21a3.64,3.64,0,0,1-2,1.76A1.66,1.66,0,0,1,41.81,75ZM38,59.43a4.21,4.21,0,0,0,.72.14,5.61,5.61,0,0,0,2.39-.19,1.91,1.91,0,0,1,1.9.76h0l0,0a.75.75,0,0,1,0,.93l-.06.1a11.24,11.24,0,0,0-.67,1.36.61.61,0,0,0-.27-.14h-.21l-.11.14c-.15.18-.29.2-.72.23l-.45,0a2,2,0,0,0-1.09.52,3.17,3.17,0,0,0-1.43-2.4h0C38.08,60.87,38,60.6,38,59.43Zm3.58,16.27,0-.06a2.15,2.15,0,0,0,.87.2,2.57,2.57,0,0,0,.6-.08l-.08.06a2.16,2.16,0,0,1-1.29.66,2,2,0,0,1-1.51-.76A2.16,2.16,0,0,1,41.63,75.71Zm8.54-7.55a2.17,2.17,0,0,0-.41-.85,9.06,9.06,0,0,0-2-1.91c0-.37.39-.79.82-1.19a4.37,4.37,0,0,0,.85-1,1.34,1.34,0,0,0,.16-1.1,5.81,5.81,0,0,1,1.65,1.48A5.14,5.14,0,0,1,52.34,66h0A6.84,6.84,0,0,0,50.17,68.15Zm3.37-5.55A6.13,6.13,0,0,1,53,65.8a5.88,5.88,0,0,0-1.26-2.59,6.86,6.86,0,0,0-1-1.07A2.43,2.43,0,0,1,51,60.08a6.76,6.76,0,0,0,.52-.86A7.89,7.89,0,0,1,53.54,62.6Zm-5.67-5.93a1.81,1.81,0,0,0,.56.7,3.12,3.12,0,0,0,1.22.6l.44.15a2.46,2.46,0,0,1,1,.58,4,4,0,0,1-.56,1,3,3,0,0,0-.53,1.9,2.78,2.78,0,0,0-1.17-.44A7.14,7.14,0,0,0,46.93,60a3.7,3.7,0,0,1,0-2.12A2.7,2.7,0,0,1,47.87,56.68Zm-2.5,0a1.46,1.46,0,0,1,1.18.5,3,3,0,0,0-.24.5,4,4,0,0,0-.12,2.05,5.7,5.7,0,0,0-2.33-.36,1.89,1.89,0,0,1-.38-.84,3.85,3.85,0,0,1,.39-1.94A3.3,3.3,0,0,0,45.37,56.66Zm-7.15.24a.43.43,0,0,0,.49.1.45.45,0,0,0,.21-.51A5.63,5.63,0,0,1,39.08,55c.29.4.47.56.72.51l.26-.11,0-.09.29-.09a2.18,2.18,0,0,0,1.27-.67.43.43,0,0,0,.23.16.4.4,0,0,0,.33-.06h0a1.13,1.13,0,0,0,.83-.26.35.35,0,0,0,.1.2.38.38,0,0,0,.51,0l.67-.41a.51.51,0,0,0,0,.41.46.46,0,0,0,.44.26.42.42,0,0,0,.28.32h0a6,6,0,0,0-1.07.69l-.29-.43,0,0a.7.7,0,0,0-.37-.3.58.58,0,0,0-.59.21,2.13,2.13,0,0,1-.72.39,2.76,2.76,0,0,0-1.25.81c-.23.31-.9.36-1.35.39s-.64.05-.73.18a1.75,1.75,0,0,0-.47-.16A.84.84,0,0,0,38.22,56.9Zm-1.78,6.56a2.94,2.94,0,0,1,1.33-2,2.58,2.58,0,0,1,1.12,2.69,7.57,7.57,0,0,0,.54,4.13,6.56,6.56,0,0,0-1.23-.21,2.09,2.09,0,0,0-.83-1.49,2.5,2.5,0,0,0-.84-.45A4.11,4.11,0,0,1,36.44,63.46Zm-1.83,2.12a1.67,1.67,0,0,0,.46.65,2.1,2.1,0,0,0,1,.5,2,2,0,0,1,.88.41,1.45,1.45,0,0,1,.57,1,3.82,3.82,0,0,0-.78.1.63.63,0,0,0-.43.27,2.76,2.76,0,0,0-.15,1.14l-.14,0a4.37,4.37,0,0,1-1.55-2.89A3.46,3.46,0,0,1,34.61,65.58Zm.76,4.57a1.08,1.08,0,0,1,.89.28,4.85,4.85,0,0,0,.25.89,2.72,2.72,0,0,0,.69,1,6.24,6.24,0,0,0-1.25.43s-.28,0-.73-.41a3.08,3.08,0,0,1-.88-1.7c-.06-.25-.13-.5-.2-.73v0A2.67,2.67,0,0,0,35.37,70.15ZM28.83,56.87a3.44,3.44,0,0,0-1.52-1.69,4.58,4.58,0,0,1-1.38-1.25h0c1.59,0,2.59-.27,2.92-.78a3,3,0,0,0,.45,0,5.94,5.94,0,0,0,.67,0,2.11,2.11,0,0,0,.44-.1,1.3,1.3,0,0,0,.72.25,3.21,3.21,0,0,1-.9,1.65A11.17,11.17,0,0,0,29,56.63Zm-8.44-4.76-.15.19h-.12a.77.77,0,0,1-.27,0,1.25,1.25,0,0,0-.64,0,1.88,1.88,0,0,0-.47.17,4.4,4.4,0,0,0-2.65-1.63h0a8.84,8.84,0,0,1-.7-4.84c.21-1.24.34-1.85.4-2.19v-.05l.06.06c.6.62,1,1,1.39,1s1,0,1.29.58c.37.85.77,1.63,1.65,1.73.42,0,2.12.49,2.1,1.65a4.69,4.69,0,0,0,.43,2A4.58,4.58,0,0,0,20.39,52.11Zm-8.92-6.64c0-.41,0-.79,0-1.16h0l0-.11a12.31,12.31,0,0,0-.81-3.7c.42.19,1,.49,1.45.72l1,.5c.82.4,1.7.93,2.22,1.25h0v.23a1.6,1.6,0,0,1-.07.51c-.07.34-.19,1-.4,2.2a8.47,8.47,0,0,0,.1,3.2,5.19,5.19,0,0,0-1.68,0l0-.08A4.13,4.13,0,0,1,11.47,45.47ZM10.28,35A8.16,8.16,0,0,0,10,33.23a5.52,5.52,0,0,1,3.21,2.05,13.11,13.11,0,0,0,2.7,3.36,1.85,1.85,0,0,1-.25.88,4.24,4.24,0,0,0-.26,2.74c-.54-.33-1.32-.79-2.07-1.16l-1-.49-1.05-.53A7.58,7.58,0,0,0,10.21,37,7.05,7.05,0,0,0,10.28,35Zm3.23-7.27a3.54,3.54,0,0,1-.34-.59,14.7,14.7,0,0,1-.53-1.6,2.87,2.87,0,0,0,.77-.16,18.8,18.8,0,0,1,3.11,2.24C17.94,29,18,30,18,30.35a4.12,4.12,0,0,0,0,2.17c-.88-.58-1.34-.73-1.67-.58a.6.6,0,0,0-.34.54c0,.2,0,.52,0,.89a12.53,12.53,0,0,1-.26,3,1.89,1.89,0,0,0,0,1.17c-1-1.08-2.18-2.5-2.11-3.22a6.84,6.84,0,0,0-.73-3.58l-.16-.41a1.66,1.66,0,0,1,.79-2l.87-.5Zm-3.17-5.08.11-.07a2.57,2.57,0,0,1,1.27-.4,1.31,1.31,0,0,1,.5.09,11,11,0,0,1-1.21,1A3.81,3.81,0,0,0,10.35,22.67Zm8.26,7.93s0-.06,0-.13a4,4,0,0,1,.21-.64,5.12,5.12,0,0,0,.53-2.37A2.58,2.58,0,0,1,19.69,26a6.78,6.78,0,0,0,1-3.47,5.42,5.42,0,0,1,2.05,1.59,14,14,0,0,1,1.69,2.72,1.43,1.43,0,0,0-1.49,1.83c.22,1.56-.07,2.39-1,4.38a4.94,4.94,0,0,0-.34,2.43,19.37,19.37,0,0,0-2.15-1.95l-.31-.24h0a3.38,3.38,0,0,1-.56-2.73ZM36,29.28l0,0a2.73,2.73,0,0,1,.44,1.23,1.78,1.78,0,0,0,.89,1.25A2,2,0,0,0,37,33.32v.39A2.69,2.69,0,0,1,36.62,35a1.19,1.19,0,0,0-.17,1.09c.19.41.13.88-.24,1.71a2.15,2.15,0,0,0-.13,1.13.87.87,0,0,0-1,0c-.24.15-.32.15-.74-.19l0,0c0-.09-.06-.24-.09-.38a10.42,10.42,0,0,0-2.4-5.08l-.54-.57a3,3,0,0,1-.14-2.35,4.23,4.23,0,0,0,.41-1.75c0-.39,0-.62.17-.73a3.06,3.06,0,0,0,.69-1.1l.07-.15A13.81,13.81,0,0,1,36,29.28Zm4.49,3.36,0,0a12.78,12.78,0,0,1,1.76,1.92A7.27,7.27,0,0,1,43.45,39l-.48.34c-.62.45-1.33,1-2.25,1.57s-1.11,2.3-1,3.28a.68.68,0,0,0-.21,0h0a4.25,4.25,0,0,0-.1-1.2,5.93,5.93,0,0,0-2-2.83l-.28-.26h0a2.53,2.53,0,0,1-.25-1.85A2.58,2.58,0,0,0,37,35.82c0-.09,0-.22.16-.51a3.34,3.34,0,0,0,.44-1.58v-.4c0-.88,0-1,.64-1.46s.88-.42.88-.41a2,2,0,0,0,.47.43c.19.15.46.37.75.62A1,1,0,0,0,40.51,32.63ZM37,50.34a.89.89,0,0,0-.13-.26,1.75,1.75,0,0,0-1.23-.53h0s-.31-.43.54-1.19l.53-.47A9.06,9.06,0,0,0,39,45.46a1,1,0,0,1,.51-.59.46.46,0,0,1,.1,0c.18.28.41.57.71.57h0a.5.5,0,0,0,.42-.25L40.8,45h0a8,8,0,0,1,.72,2.11c0,.15-.4.35-.77.53a3.84,3.84,0,0,0-1.66,1.22A4.94,4.94,0,0,1,37,50.34Zm-2.84-.72a5.22,5.22,0,0,0-.69-.64l-.28-.24c-.41-.35-.39-.49-.35-.83a3.2,3.2,0,0,0,0-.48c0-.6-.69-.9-1.4-1.21l-.34-.16c-.3-.64-.78-2.07-.2-2.68l.45-.47c.64-.65,1.06-1.08,1-1.79a2.21,2.21,0,0,1,.67-1.06,5.35,5.35,0,0,1,.89-.76,1.16,1.16,0,0,0,1.51.23c.1-.06.29-.18.76.49a5,5,0,0,0,.65.65,5.44,5.44,0,0,1,1.84,2.47c.25,1.19,0,1.51,0,1.51h0a2.13,2.13,0,0,0-.36.54,8.83,8.83,0,0,1-2.05,2.2l-.53.47c-.8.72-.87,1.31-.79,1.68A7,7,0,0,0,34.17,49.62Zm-3.23,3.14s0,0,0,.05h0Zm-.23-1c-.18.5-.23.64-.77.7a5.3,5.3,0,0,1-.6,0,2.49,2.49,0,0,1-.41,0s0,0,0,0a3.13,3.13,0,0,0-1.36-.79h0l-.1-.16a4.06,4.06,0,0,0-1.94-.79h0a.58.58,0,0,1-.06-.75,1.1,1.1,0,0,0,.21-1.44l-.07-.16a3.49,3.49,0,0,1,1-1.8c.39-.4.69-.51.81-.47l.26.06c.69.17.92.23,1.33-.17.14-.13.33-.32,1,.22a5.62,5.62,0,0,0,1.15.61c.38.17,1,.44,1,.62a2.56,2.56,0,0,1,0,.38,1.34,1.34,0,0,0,.57,1.42l.28.24.38.32c-1.11.32-2.17.71-2.49,1.41C30.85,51.43,30.78,51.62,30.72,51.79Zm-7.28-1.14A4,4,0,0,1,23,48.76c0-1.15-1-1.83-1.91-2.13,0,0-1.5-1.7-.88-3.33l.42-1.09A18.65,18.65,0,0,0,22,38c.23.13.58.39.9.63a20.22,20.22,0,0,0,2.51,1.65c1.78.94,2.67,4.3,2.92,5.35l-.4-.09-.27-.07c-.65-.15-1.34.52-1.69.93-.5.59-1.16,1.67-.92,2.23l.08.18c.17.39.17.39-.12.76a1.12,1.12,0,0,0-.21,1A5.64,5.64,0,0,0,23.44,50.65Zm-7.1-7.33c-.07-.21-.78-2.3-.11-3.47a2.85,2.85,0,0,0,.19-2.32,1.56,1.56,0,0,1-.07-.9,12.27,12.27,0,0,0,.31-3.26c0-.33,0-.62,0-.84a9.26,9.26,0,0,1,2.38,1.54,19.71,19.71,0,0,1,2.75,2.63c.05.22.11.41.16.58a.54.54,0,0,0-.44,0,.52.52,0,0,0-.24.55A16.59,16.59,0,0,1,20,42l-.42,1.09a3.82,3.82,0,0,0,.5,3.31c-.35-.15-.6-.56-.9-1.26a1.77,1.77,0,0,0-1.93-1,4.42,4.42,0,0,1-.89-.78Zm6.22-10c.92-2.07,1.25-3,1-4.74a1.05,1.05,0,0,1,.12-.81,1.13,1.13,0,0,1,.8-.28l.2,0a20,20,0,0,1,3.76,2.93,6.21,6.21,0,0,1,.41.55.76.76,0,0,0-.51.32c-.25.34-.46.38-.91.47s-.55.54-1,2a8,8,0,0,1-.86,2.07c-.61.42-.29,1.13,0,1.7a3,3,0,0,1,.29.86c0,.42,0,1,0,1.37l-.13-.08a19.69,19.69,0,0,1-2.43-1.59l-.48-.35.07,0a8,8,0,0,1-.4-1.28h0A5,5,0,0,1,22.55,33.34Zm8.21-.24h0l.6.64a9.81,9.81,0,0,1,2.24,4.77l.06.25-.06,0c-.72.37-1.87,1.62-1.84,2.36,0,.41-.2.65-.84,1.3l-.46.47a2.7,2.7,0,0,0-.23,2.6,1.32,1.32,0,0,0-1.35-.21c-.26-1.1-1-3.69-2.45-5.07a17.62,17.62,0,0,0,0-1.91,3.38,3.38,0,0,0-.35-1.08c-.21-.47-.34-.78-.19-.88.38-.26.68-1.08,1.12-2.4a9.06,9.06,0,0,1,.61-1.57s0,0,0,0a1.71,1.71,0,0,0,1.24-.72c0-.07.07-.07.08-.07C29.19,31.62,29.81,32.11,30.77,33.1Zm.5-5.63h0a1.69,1.69,0,0,0-.34,1.11,3.61,3.61,0,0,1-.34,1.49,2.86,2.86,0,0,0-.21,1.72,6.23,6.23,0,0,0-.64-.52A4.35,4.35,0,0,0,29,30a20.7,20.7,0,0,0-2-1.76h0s-.53-.58.1-1.93a10.65,10.65,0,0,0,.78-2.09,15.78,15.78,0,0,1,3.4,2.6,1.1,1.1,0,0,1,0,.65Zm-3.54-4c-.41,0-.49.29-.52.46A9.24,9.24,0,0,1,26.45,26a3.4,3.4,0,0,0-.37,1.56A9,9,0,0,0,25.2,27a15.52,15.52,0,0,0-1.51-2.68h0c.13-1.5.51-2.73.78-2.78,1,.54,1.36.37,1.73-.15l.05-.07a.12.12,0,0,1,.1-.06c.13,0,.5.07,1.38,1.12a4.07,4.07,0,0,1,.84,1.52A3.62,3.62,0,0,0,27.74,23.49ZM23.32,51.33a5.86,5.86,0,0,1,2.76.21,5.92,5.92,0,0,0-.74.2,6.57,6.57,0,0,0-2.55,2c-.06-.08-.15-.21-.28-.41a3.6,3.6,0,0,0-1.29-1.1A4.93,4.93,0,0,1,23.32,51.33Zm2.24,1a4.89,4.89,0,0,1,1.21-.26,6.55,6.55,0,0,1,1.57.68c0,.1-.54.49-2.38.49a12.58,12.58,0,0,1-1.72-.09A4.33,4.33,0,0,1,25.56,52.37Zm5.5.25a2.6,2.6,0,0,0,.28-.6c.06-.15.12-.33.21-.52.25-.54,1.64-.93,2.17-1.08l.32-.1c.63-.13,2-.26,2.33.17a.26.26,0,0,1,0,.22c-.08.53-1,1.34-1.54,1.72a1.07,1.07,0,0,0-.37.44,8.1,8.1,0,0,0-2.4-.17A4.73,4.73,0,0,1,31.06,52.61Zm5.83,1.44a2.32,2.32,0,0,0-.43.78,5.08,5.08,0,0,0-1.73-.72,3.8,3.8,0,0,1-1.53-.75c.57,0,1.1.08,1.18.23l.13.32.56-.16,0-.28a.52.52,0,0,1,.19-.5A5.26,5.26,0,0,0,37,51.06l.31-.13A3.76,3.76,0,0,1,36.89,54.05Zm6.79-5.87a4.36,4.36,0,0,1,0,2.13,3.87,3.87,0,0,0-1-.54,2.34,2.34,0,0,0-2.11.18,6.45,6.45,0,0,1-1.1.41,1.77,1.77,0,0,1-1.09,0,4.13,4.13,0,0,0,1.28-1.15,3.27,3.27,0,0,1,1.39-1,3.4,3.4,0,0,0,.88-.53h.47l.15.5.33-.46C43.26,47.8,43.61,47.93,43.68,48.18Zm3.55-4.53.31,0a2.32,2.32,0,0,1,.94.17,5.78,5.78,0,0,1-3,1.45,5.69,5.69,0,0,0-2.32,1.21,4.07,4.07,0,0,1,.72-1A5.71,5.71,0,0,1,47.24,43.65ZM43.4,45A3.64,3.64,0,0,0,42.31,47h-.14a7.61,7.61,0,0,0-1-2.65.5.5,0,0,0-.42-.18.54.54,0,0,0-.37.23c-.12-.91-.13-2.4.69-2.95s1.65-1.13,2.27-1.58l.89-.63a11.67,11.67,0,0,1,1-.65l0,.23a3,3,0,0,0,.14,2,11.8,11.8,0,0,1,.76,2.34A6.55,6.55,0,0,0,43.4,45Zm3.9-14.47c.36.92.83,2.57.29,3.27-.82,1.05-.68,1.52-.29,2.77.1.32.22.7.35,1.17C48,39.24,47,41.12,46.47,42a8.45,8.45,0,0,0-.54-1.45A2.43,2.43,0,0,1,45.85,39a2,2,0,0,0,.06-.65.48.48,0,0,0-.29-.39c-.33-.14-.73.09-1.49.62,0-.22,0-.49,0-.79a5.11,5.11,0,0,0,.54-.8A4.88,4.88,0,0,0,45,35.44a15.32,15.32,0,0,1,.46-2.32A6.25,6.25,0,0,1,47.29,30.52Zm-5.16-5a10.41,10.41,0,0,0,2.17,3.59c1.44,1.36,1.15,2.45,1.13,2.53a4.93,4.93,0,0,0-.62,1.29,15.79,15.79,0,0,0-.48,2.42,4.84,4.84,0,0,1-.27,1.3l-.1.16a6.59,6.59,0,0,0-1.14-2.67,13.62,13.62,0,0,0-2-2.13A17.1,17.1,0,0,1,40,27.74a1.69,1.69,0,0,1,.5-.08,1.82,1.82,0,0,0,.82-.18A4.11,4.11,0,0,0,42.13,25.52ZM36,22a2.52,2.52,0,0,1,.38.53,11.74,11.74,0,0,0,2.16,2.62c1,1,1.69,1.5,2.09,1.81h-.17c-.42,0-1.11.08-1.08.7a24.22,24.22,0,0,0,.53,3.52l-.15-.13a.64.64,0,0,0-.41-.3c-.32-.07-.73.08-1.38.5-.29-.16-.76-.49-.79-.86-.07-.84-.37-1.33-1.51-3.1C34.61,25.73,35.68,22.3,36,22Zm-4.21-1.19s0-.05,0-.07a4.8,4.8,0,0,1,.65.46l.07.06.37.28c.51.38,1.85,1.39,1.94,1.81A6.39,6.39,0,0,0,35,27.45a7.32,7.32,0,0,0-2.67-1.51c-.22.07-.31.28-.45.6l0,0a4.1,4.1,0,0,0-1.06-1.11h0s-.67-.75-.16-1.4A5.54,5.54,0,0,0,31.78,20.84Zm5.13-4.59v0h0Zm1.81-7.49-.29.87a7.08,7.08,0,0,1-1.29,2.06A18.84,18.84,0,0,0,38.72,8.76Zm1.66.08v.08c.06.7-1,2.09-1.63,2.92s-.82,1.08-.58,1.35.56.05.76-.06c.4-.24.83-.52,1.25-.8a10.28,10.28,0,0,1,2-1.14,11.59,11.59,0,0,1-2.58,2.24l-.39.3c-.62.48-1.17.86-1.6,1.16-1,.67-1.41,1-1.36,1.44s.4.56.91.75a4.68,4.68,0,0,1,.94.5,8,8,0,0,0-2-.76c-3.55-.85-5.85,4.23-5.95,4.45l.6.27s.13-.28.35-.67a4.9,4.9,0,0,1-1,2.79,1.5,1.5,0,0,0-.33,1l-.42-.29A4,4,0,0,0,28.27,22c-.76-.91-1.37-1.35-1.88-1.35h0a.78.78,0,0,0-.62.33l-.06.08c-.18.25-.23.32-.87,0a.68.68,0,0,0-.67,0c-.61.32-.9,1.73-1,2.66-.91-1.06-2.4-2-3-1.72a.48.48,0,0,0-.19.62c.19.54-.13,1.74-.86,3.2a3.2,3.2,0,0,0-.4,1.72,4.07,4.07,0,0,1-.31,1.69,5.72,5.72,0,0,0-1.41-2,17.54,17.54,0,0,0-2.81-2.08,11.29,11.29,0,0,0,3.28-2.41c1.44-1.52,2.36-1.46,3-1.42a1.49,1.49,0,0,0,.64,0,.39.39,0,0,0,.28-.37.35.35,0,0,0-.17-.31,9.41,9.41,0,0,0,3.59,0l.21,0c.35,0,.42-.26.44-.35.06-.38-.17-.59-3.07-2l.14.05c1.6.6,2.4.93,2.9,1.13a6.54,6.54,0,0,0,1.11.39c.23.05.43.11.58,0h0a.83.83,0,0,0,.73,0,.48.48,0,0,0,.3-.33c.05-.23-.09-.4-.26-.6a5.29,5.29,0,0,1-1.26-3.28,6.21,6.21,0,0,1,.82-4l0,.3c-.08.25-.17.55-.28.92-.5,1.75-.4,4.27.21,5.09a.66.66,0,0,0,.52.3.51.51,0,0,0,.33-.15c.16-.18.26-.6.24-1.67a3.3,3.3,0,0,0,.15.9.4.4,0,0,0,.47.29.28.28,0,0,0,.16-.15.35.35,0,0,0,.28.22h0a.39.39,0,0,0,.08.5.31.31,0,0,0,.17.07,6.19,6.19,0,0,0-.77.7c-.11.13-.36.45-.11.69s.4.4,5.06-3.34A32.27,32.27,0,0,0,40.38,8.84Zm-21.6,7.07c.2.23.32.23.42.24h.23l.1-.14.15.39.06-.15.27.48c-.49-.14-.87-.23-1.17-.28A4.31,4.31,0,0,0,18.78,15.92Zm-1.07,1.65s1-.37,3.57.86c.94.44,2.37,1.11,3.08,1.52a8.81,8.81,0,0,1-6.58-1.59q-.37-.26-.69-.53Zm10.72-1.93c0-.88-.15-2.06-.32-3.65.08-.26.15-.46.21-.61.18-.53.27-.77,0-1a.41.41,0,0,0-.37-.09l0-.29c0-.05,0-.09,0-.11a2.24,2.24,0,0,1,.36.11l.24.08c0,.43,0,1.64,0,2.63C28.43,13.84,28.41,14.84,28.42,15.63Zm-.81-1.86a22.67,22.67,0,0,1,.16,3.57A7.84,7.84,0,0,1,27.62,13.77Zm-.21-4.4v0h0Zm2.31.63V9.94l.09.09.31.27a18.44,18.44,0,0,1-.41,3.57C29.76,12,29.72,10,29.72,10Zm2.9-.06a.42.42,0,0,0-.2.13l0-.2Zm-1.2,2.71-.37.9c.08-.29.15-.61.23-1ZM30,15.9l.08-.49.11.06Zm6.24-6.12h0ZM36,11.36l-.21,1.09c-.22.28-.45.56-.7.83a29.51,29.51,0,0,1-3.82,3.5A12.37,12.37,0,0,0,33,14.6,12.11,12.11,0,0,0,36,11.36Zm-4.3,2.45c.54-1.32,1-2.57,1.16-3l.13.16A22.81,22.81,0,0,1,31.66,13.81Zm.92-6.62c0-1-.07-2-.14-2.9,0,.31.07.64.1,1A15.77,15.77,0,0,1,32.58,7.18Zm-2.91-6a10.44,10.44,0,0,1,0,1.42s0-.07,0-.1l-.07-1.36Zm-.11,2.45A14,14,0,0,1,29,6.28,26,26,0,0,0,29.56,3.62Zm0,3.21a15.68,15.68,0,0,0,.79-4.41v.12c.08.8.22,2.3.3,4.89,0,.93,0,1.74,0,2.47l-.09-.09a3.35,3.35,0,0,1-.29-.25c-.29-.27-.59-.55-.92-.4a.56.56,0,0,0-.28.5A.39.39,0,0,0,29,9.53l-.11-.11h-.15l-.25-.08h0A21.15,21.15,0,0,0,29.53,6.82ZM27.4,6.5c.2-1.78.27-3,.28-3.72,0,.3,0,.64,0,1A15.38,15.38,0,0,1,27.34,7ZM27,2c0,.27,0,.72,0,1.41,0-.27-.05-.51-.08-.71s-.06-.53-.06-.67Zm-.88,8c0-.08,0-.17,0-.25l.22.05-.23,2.08.81-1.52s.18-.33.3-.6a1.05,1.05,0,0,0,0,.22c0,.12,0,.35.07.66a6.39,6.39,0,0,0-1.37,5,8.7,8.7,0,0,0,.31,1.64,23,23,0,0,1-.76-2.62l-.2-.84,0,0C25.45,13.74,25.94,13.12,26.13,10ZM24,11.28c.15.72.38,1.83.78,3.54q.22.94.45,1.7A16.21,16.21,0,0,1,24,11.16Zm1,1.61L25,12.48a.85.85,0,0,0,.26-.36A7.11,7.11,0,0,1,25.07,12.89ZM25,2.94c.12.88.34,2.51.44,4.22-.12-1.47-.3-2.54-.42-3.3-.09-.57-.18-1.11-.18-1.18L25,2.63Zm-1.32,3.8a26.74,26.74,0,0,1,.66-2.94l0,.17a35.4,35.4,0,0,1,.49,4.39,12.9,12.9,0,0,1-.1,3.08l-.06-.3a7.13,7.13,0,0,0-.3-1.21l.15-.22-.45,0-.08,0h0C23.75,9.54,23.32,8.88,23.68,6.75ZM22.26,8.5c-.07-.66-.14-1.33-.2-2S21.95,5.4,21.9,5A16,16,0,0,1,22.26,8.5Zm-.62,8.59.2,0a.76.76,0,0,0,.58-.07l.6,0a49.71,49.71,0,0,0-.39-5.1,16.4,16.4,0,0,0,.45-1.88,2.28,2.28,0,0,0,.25.5l0,.23a16.68,16.68,0,0,0,1.56,6.35A16.33,16.33,0,0,0,26,18.93l-.4-.16c-.5-.21-1.31-.54-2.92-1.14l-1.34-.48v-.09A.57.57,0,0,0,21.64,17.09Zm-1.5-7.75a45,45,0,0,1,.58,7.29A13.23,13.23,0,0,1,20,15.41c.17-.61.55-2.6-.2-6.62a20.83,20.83,0,0,0-1.67-5.42C18.24,3.43,19.42,4.74,20.14,9.33ZM17,2.74l0,0H17a8.74,8.74,0,0,1,.79,1.49A15.56,15.56,0,0,0,17,2.74Zm1.22,4.33a1.56,1.56,0,0,0,.05-.21.47.47,0,0,0,0-.15l.18.45a15.23,15.23,0,0,1,.87,6.59c-.14-.34-.3-.72-.46-1.13C17.55,9.32,18,7.63,18.21,7.07ZM17.91,15a4.83,4.83,0,0,1,.16.7,22.76,22.76,0,0,1-1.49-2.88A13.72,13.72,0,0,0,17.91,15Zm-.46,1.63a.49.49,0,0,0-.08.16l-.28,1a10.55,10.55,0,0,1-3.4-5.21c1.12,1.62,2,1.91,2.39,1.94A13.85,13.85,0,0,0,17.45,16.61Zm-2.62-5.1,0,.1-.06-.11Zm0,1.07a.39.39,0,0,0,.24-.28,14,14,0,0,0,.58,1.41,4.27,4.27,0,0,1-1.22-1.2A.45.45,0,0,0,14.83,12.58ZM11.14,7.4h.05a23.94,23.94,0,0,0,1.57,3.67c.21.4.41.76.61,1.07h-.1a1.06,1.06,0,0,0-.73.33.45.45,0,0,0-.06.37,11.08,11.08,0,0,0,.43,1.3,11.72,11.72,0,0,1-1.38-3.4C11,8.29,11.08,7.58,11.14,7.4Zm3.92,12.5.26-.1v-.13l.23-.07c.32-.09.71-.21.77-.58a.52.52,0,0,0,0-.25,14.21,14.21,0,0,0,3.31,1.84,3.38,3.38,0,0,0-1.3.49.76.76,0,0,0,0-.82l-.1-.15-.14,0a.58.58,0,0,0-.47.15,3.58,3.58,0,0,1-.32.19.44.44,0,0,0-.09-.31l-.53.39a.22.22,0,0,1,0-.27,4.42,4.42,0,0,1-2.43,0l0,0a.59.59,0,0,0,.18-.51l-.06-.14-.15-.21C14.81,20,15,19.92,15.06,19.9Zm-4.94-1.56a6.4,6.4,0,0,0,1,1.1,5.4,5.4,0,0,0,.43.35A4.86,4.86,0,0,1,10.12,18.34Zm0-1.66c.16.45.32.84.49,1.2A4.27,4.27,0,0,1,9.9,16C10,16.2,10,16.43,10.13,16.67ZM11,17c.56,1,.95,1.75,1.26,2.23A8.18,8.18,0,0,1,11,17Zm2.78,2.71-.13,0c-.52-.13-.81-.65-2.46-3.72l-.26-.49a18.67,18.67,0,0,1-.9-2A49.09,49.09,0,0,0,13.76,19.75ZM9.39,14.39l0,.14h0l0-.12ZM6.69,12.7c-.42-.71-.74-1.36-1-1.92.3.33.73.82,1.35,1.59a14.49,14.49,0,0,1,1.74,2.48l-.06,0a.52.52,0,0,0-.14.33A12.49,12.49,0,0,1,6.69,12.7ZM4.75,17.8l-.28-.27c.35.26.75.53,1.19.81A31.81,31.81,0,0,0,8.51,20,8.1,8.1,0,0,1,4.75,17.8Zm1.14-.86c.27.23.57.47.9.72.7.51,1.3.93,1.82,1.27A8.79,8.79,0,0,1,5.88,16.94Zm1.29.18C5,15.55,4.43,14.24,4.27,13.59a22.5,22.5,0,0,0,1.49,1.92A8.55,8.55,0,0,0,9.17,18h0a6.28,6.28,0,0,0,.48.85C9.12,18.49,8.31,17.95,7.18,17.12Zm.33,7.54h0a5.62,5.62,0,0,1,1.87-2.28,8.63,8.63,0,0,1,2-1c.22-.08.43-.15.45-.39a.42.42,0,0,0-.26-.4,1.81,1.81,0,0,0-1.08,0l-.14-.47a.43.43,0,0,0,0-.14,2,2,0,0,0,.59.22v0a5.59,5.59,0,0,0,2,1c2.51.63,3.85.27,4.56-.07a15,15,0,0,1-2,1.81,11.34,11.34,0,0,1-2.39,1.59c-.35-.21-.69-.43-.92-.59a20.49,20.49,0,0,0,2.2-1.65L14,21.74s-.55.49-1.38,1.08c.23-.21.35-.35.37-.37l.2-.22L13,22s-1-1.07-2.86,0A8.91,8.91,0,0,0,7.51,24.66Zm.87-.08A9,9,0,0,1,9.82,23l0,.06a3.23,3.23,0,0,1,.08.82c-.2.11-.4.22-.62.32A7.06,7.06,0,0,1,8.37,24.58Zm1.7,2.75a8.46,8.46,0,0,0,.49-2.49l.66-.35a4.2,4.2,0,0,1,.63.91l.05,0a18,18,0,0,0,.68,2.06,5.31,5.31,0,0,0,.31.56,2.22,2.22,0,0,0-.75,2.59l.16.41A6.63,6.63,0,0,1,13,34l-.15-.14c.08-.44.13-1.7-1.38-3.43a4.72,4.72,0,0,0-1.7-1.15h0A3,3,0,0,1,10.07,27.33Zm-5.15,2-.14-.2c1-.11,4.73.08,6.18,1.74a4.27,4.27,0,0,1,1.24,2.54,7.39,7.39,0,0,0-2.69-1l-.66-.08.33.58a5.36,5.36,0,0,1,.44,2.11,10.92,10.92,0,0,1,0,1.2c-.09-.1-.16-.2-.25-.29A6.11,6.11,0,0,0,6.5,34.55c.26-.46.54-1.46-.3-3.09A14.79,14.79,0,0,0,4.92,29.37Zm-.76,5.49c1.17.08,3.58.38,4.76,1.57a6.46,6.46,0,0,1,1.67,3.34c-.42-.16-.62-.14-.77,0a.44.44,0,0,0,0,.57,8.25,8.25,0,0,1,.78,2.54,10.14,10.14,0,0,0-1-1A14.72,14.72,0,0,0,6.4,39.8,2.93,2.93,0,0,1,5,37.49,5.72,5.72,0,0,0,4.16,34.86ZM6.3,41.23c-.29-.48-.47-.8-.58-1a14.66,14.66,0,0,1,3.44,2.15,6,6,0,0,1,1.61,2c0,.36,0,.74,0,1.14a4.8,4.8,0,0,0,1.62,3.71l-.69.16a5.19,5.19,0,0,0-1.15.47c-.41-.24-2.79-1.72-3.11-4l-.12-.9A7.52,7.52,0,0,0,6.3,41.23Zm.64,8a13.3,13.3,0,0,1-1.67-1.48A4,4,0,0,0,3.2,46.34l-.27,0a3,3,0,0,1,1.34,0,6.21,6.21,0,0,0,2.59-.2,6.34,6.34,0,0,0,2.47,3.67A3.08,3.08,0,0,1,6.93,49.25ZM11.6,51a3.4,3.4,0,0,0-1.65.13,4.54,4.54,0,0,1,2-1.12c1.75-.47,3-.33,3.13-.13h0a9.7,9.7,0,0,0,.32.95,5.16,5.16,0,0,0-1.3.14l-.24.07A6.66,6.66,0,0,1,11.6,51Zm2.53,4.75c-.31.32-.7.73-1,1a3,3,0,0,1,.14-1.25,1.51,1.51,0,0,1,.79-.91A7,7,0,0,1,15.94,54,16.49,16.49,0,0,0,14.12,55.72Zm3.63-2.14a1.75,1.75,0,0,0-1.4.14v-.45a6.74,6.74,0,0,0-2.53.67l-.08,0h0A7.21,7.21,0,0,1,12,53.82a2.4,2.4,0,0,0-1.36.15A5.26,5.26,0,0,1,14,51.65l.13,0h0l.13,0a3.71,3.71,0,0,1,4,1.3A2.06,2.06,0,0,0,17.76,53.58Zm4,1.9a4,4,0,0,0-2.22,1c0-.1-.1-.21-.16-.32a4.1,4.1,0,0,0-.5-.66,1.78,1.78,0,0,1-.63-1.25A1.41,1.41,0,0,1,19.35,53a.7.7,0,0,1,.35,0,1.44,1.44,0,0,0,.45,0,2.71,2.71,0,0,0,.8-.14,2.86,2.86,0,0,1,1,.85c.36.57.58.83.87.83h0a.48.48,0,0,0,.41-.29,4.07,4.07,0,0,1,.43-.51,1.63,1.63,0,0,0,.52.14A9,9,0,0,1,21.78,55.48Zm3.39,1a.72.72,0,0,0-.05-.14c-.16-.31-.73-1.14-1-1.54.43-.34.76-.64.85-.71l-.16-.18h.32a6.12,6.12,0,0,0,1.06,1.25C25.86,55.61,25.49,56.11,25.17,56.48ZM15,69.43C6.11,71.09,4.42,77.56,4.56,82.69c.16,5.62,2.22,7.42,3.46,8.5.6.52.86.76.79,1.12s-.19.52-.25.56-.29,0-.45,0a.61.61,0,0,0-.61.05.5.5,0,0,0-.13.48c0,.08,0,.16,0,.25.15.68.28,1.33-1,1.81a4.29,4.29,0,0,1-2.38.13l-.28,0a1.06,1.06,0,0,1,.41-.22,3.29,3.29,0,0,0,2.23-1.4,6.85,6.85,0,0,1,1.38-1.26c.3-.22.45-.33.41-.56l0-.21L8,91.81S3.89,90.63,2.77,87.3a8.53,8.53,0,0,1-.54-4.64c.08-.78.18-1.74.21-3.16a19.43,19.43,0,0,0-.32-4.33l0-.22a2,2,0,0,1,.8.43l.65.65-.08-.92a3.09,3.09,0,0,1,1.31-2.78c1.79-1,1.83-1.23,1.85-1.36v-.13c0-.06-.26-1.38.66-1.58a4.3,4.3,0,0,1,1.16-.12.91.91,0,0,0,.85-.31l.09-.12c.18-.24.25-.33,1.06-.31a8.6,8.6,0,0,1,1.65.38c1,.3,1.47.43,1.66.08s-.16-.6-.35-.78a7,7,0,0,0-1.28-.92,5.38,5.38,0,0,1,1.12-.84l.43.42c1.49,1.49,2,1.9,2.42,1.86a.42.42,0,0,0,.31-.2c.26-.44-.15-.82-.38-1l-.15-.14a1.87,1.87,0,0,1,.69-.37,2.21,2.21,0,0,0,1.59,1.33.41.41,0,0,0,.38-.44,3.23,3.23,0,0,0-.07-.42c-.05-.27-.16-.77,0-1s.34.15.6.45a1.51,1.51,0,0,0,.94.66l.4,0c.46,0,1.09,0,1.18.32a1,1,0,0,0,.79.69,2.17,2.17,0,0,1,.76.39A5,5,0,0,1,24,70.17c.38.65.61,1,1,1a.49.49,0,0,0,.41-.25,1.84,1.84,0,0,0,.12-1.06c0-.18,0-.47,0-.52a.35.35,0,0,1,.15,0,7.72,7.72,0,0,1,2.29,2.07A15.09,15.09,0,0,0,28.36,73a17.69,17.69,0,0,1,.84,3.44C27.56,74.4,22,68.12,15,69.43Zm27.51,85.73a2.88,2.88,0,0,1-2.68-.5c-.68-1.44-3.46-37.87-4.5-51.58-.21-2.8-.38-5-.49-6.34-.56-7.16-1.44-8.78-2.64-11-.3-.56-.61-1.14-.95-1.87a14.42,14.42,0,0,1-1.12-5.17A22,22,0,0,0,29,72.83a14.48,14.48,0,0,1-.45-1.59h0l0,0A33.36,33.36,0,0,1,28,63.5a37,37,0,0,0-.1-4.21,14.07,14.07,0,0,0-.67-3.39,2.91,2.91,0,0,1,1.11,1.49c0,1,0,4.48,1.25,5.09a4.91,4.91,0,0,0,1,.37h0a.39.39,0,0,1-.39.18.67.67,0,0,0-.51.18,1,1,0,0,0-.17.72c0,1,.48,6.41.5,6.64l.66-.05c0-.06-.45-5.65-.5-6.62a1.24,1.24,0,0,1,0-.21h0a1,1,0,0,0,.9-.44c.16-.22.33-.44.24-.69s-.31-.29-.55-.34a4.33,4.33,0,0,1-1-.34c-.64-.31-.88-2.49-.88-4.17a3.31,3.31,0,0,0,.56-.73,10.66,10.66,0,0,1,1.2-1.59,3.83,3.83,0,0,0,1.09-2.07h.09c-.14.77,0,3.57,1.24,15.36C34,76.41,35,79.95,36.34,82.88c.18.42.37.89.55,1.4l0,.1A3.69,3.69,0,0,1,36.57,87c-.22.39.09.76.35,1.08l.17.21c.2.26.2.26.08.75a2,2,0,0,0,.3,1.4,1.65,1.65,0,0,1,.11.23c0,.14.08.38-.4,1.2a1.86,1.86,0,0,0,.21,1.9l-.16.09-.05.13c-.09.22,0,.51.24,1.12a1.34,1.34,0,0,1,.06.49,1.53,1.53,0,0,0,.2.92c.18.25,0,.67-.34,1.08a1.69,1.69,0,0,0-.24,1.68,1.71,1.71,0,0,1,.05.23,3.19,3.19,0,0,1-.41.91l.56.34a3.19,3.19,0,0,0,.51-1.27,1.83,1.83,0,0,0-.07-.37c-.11-.42-.18-.79.08-1.06a1.52,1.52,0,0,0,.4-1.91,1,1,0,0,1-.09-.54,1.85,1.85,0,0,0-.11-.75,4.42,4.42,0,0,1-.19-.5.45.45,0,0,0,.31-.15l.1-.14,0-.14a.61.61,0,0,0-.13-.28c-.19-.28-.64-.94-.34-1.45.5-.87.56-1.28.48-1.66a1.61,1.61,0,0,0-.18-.41,1.41,1.41,0,0,1-.24-.94c.17-.7.17-.83-.2-1.31l-.19-.23a1.5,1.5,0,0,1-.26-.37,3.13,3.13,0,0,0,.38-1c.27.87.54,1.77.79,2.62.3,1,.55,1.87.76,2.52h0l0,.16c-.06.2,0,.3.33.7l.1.13a2.61,2.61,0,0,0,.29.56l.1-.08a6.59,6.59,0,0,0,1.14.9l.09-.15c0,.09,0,.18,0,.26l-.17,0s0,0,0,0a6.2,6.2,0,0,1-1.32-1.15l-.11-.12-.25-.21-.22.21c-.1.1-.35.35.66,1.54a4.35,4.35,0,0,0,1.18,1,6.51,6.51,0,0,1-.2.8l-.21-.17a7.13,7.13,0,0,1-1-1.33l-.08-.19-.41,0-.1.18c-.14.24,0,.84.44,1.43a6.29,6.29,0,0,0,.95,1.15,22.79,22.79,0,0,1-1.55,2.75c-1.38,2.17-.75,3.41-.72,3.46l.57-.29a3,3,0,0,0,.18,1.31l.29-.12a61.23,61.23,0,0,1-2.27,6.7l.61.25c.1-.25,2.41-5.87,2.83-9.46.86,12.11,4.08,49,4.27,51.06C44,153.67,43.16,155,42.48,155.16Zm-5.11-72c-.23-1.37-.52-3.08,0-3.5a.79.79,0,0,1,.4-.2,1.3,1.3,0,0,0-.48,1.26c0,.16,0,.32.06.49a11.91,11.91,0,0,0,1.28,4.44A22.44,22.44,0,0,1,41,92.4l-.2-.1a5,5,0,0,1-.81-.62l-.09-.08c-.26-.76-.58-1.84-.89-2.9-.45-1.52-.93-3.18-1.44-4.6Q37.46,83.64,37.37,83.14Zm1.86,20.28a6.53,6.53,0,0,1,.36-2.14A15.62,15.62,0,0,1,39.23,103.42Zm-.66-.43a3.2,3.2,0,0,1,.62-2.62A9.74,9.74,0,0,0,38.57,103ZM41,92.91V93L41,93Zm3.26-14.86a2.84,2.84,0,0,0,2.18.56h.08a8.13,8.13,0,0,1-.08.84,37.73,37.73,0,0,0-.3,4c-.11,4.45-2.75,9.14-4,10.72l-.39.51a12.11,12.11,0,0,0-.09-2,22.22,22.22,0,0,0-2.5-7.35A11.19,11.19,0,0,1,38,81.12c0-.18,0-.35-.06-.51a.79.79,0,0,1,.72-.87l.64-.11-.46-.46a1.37,1.37,0,0,0-1.91,0c-.48.43-.53,1.28-.43,2.31a40.33,40.33,0,0,1-2.18-9.17,3.12,3.12,0,0,0,.49.57,2.69,2.69,0,0,0,.55.39l-.06.1,0,.15a4.69,4.69,0,0,0,3,2,4.35,4.35,0,0,0,.8.07h.24l.13.21a3,3,0,0,0,2.25,1.41h.12a2.68,2.68,0,0,0,1.63-.76A2.58,2.58,0,0,0,44.29,78.06Zm.12-2a2,2,0,0,1,.65.49A2.31,2.31,0,0,1,44.4,76Zm3.91,0a1.38,1.38,0,0,1-1.25.77,1,1,0,0,1-1-.59,2.78,2.78,0,0,1,.15-2.1,3,3,0,0,0,1,.15l.45,0,.32,0A3,3,0,0,1,48.32,76Zm2.84-3.27a3,3,0,0,1-.89.45,2.7,2.7,0,0,0,.74-.9,2.59,2.59,0,0,0,.27-1.12,2.78,2.78,0,0,0,.78.31A2.06,2.06,0,0,1,51.15,72.72Zm2.65-2.83a1.2,1.2,0,0,1-1.08,1,2.25,2.25,0,0,1-2-1.26c-.54-1.1,1.16-2.53,1.93-3a.77.77,0,0,1,.64.28A3.37,3.37,0,0,1,53.8,69.89ZM55,66a3.31,3.31,0,0,1-.57,1.86,3.28,3.28,0,0,0-.75-1.49,1.83,1.83,0,0,0-.2-.17,8.11,8.11,0,0,0,.57-1.63,3.19,3.19,0,0,1,1-1C55,64,55,64.77,55,66Z"/></g></g></svg>