<svg xmlns="http://www.w3.org/2000/svg" viewBox="0 0 88.87 173.83"><defs><style>.cls-1{fill:#fff;}</style></defs><title>תלתן</title><g id="Layer_2" data-name="Layer 2"><g id="Expended"><path class="cls-1" d="M22,84.3l-.58.71,7.92-1.21-.24-1.56-.18-.08C25.16,80.59,25,80.64,22,84.3Zm3.84-2.38a7.84,7.84,0,0,1,2.62.82l.07.47-5.4.82C24.37,82.53,25,81.92,25.85,81.92Z"/><path class="cls-1" d="M27.68,86.45c-2.05,1.72-6.94,6-8.7,9.37a13.36,13.36,0,0,0-1,9.59l.2.61.38-.52A7.43,7.43,0,0,0,19.77,102c.06-.36.11-.73.19-1.1.46-2.28,2.07-4,3.78-5.87s3.44-3.72,3.94-6.18l.06-.3a7.58,7.58,0,0,1,.45-1.66l.81-.67.86-.68-1.09.1A1.39,1.39,0,0,0,27.68,86.45Zm-.59,2-.06.29c-.46,2.28-2.07,4-3.78,5.87s-3.45,3.73-3.94,6.19c-.08.38-.14.76-.2,1.13a8.66,8.66,0,0,1-.67,2.56,12.92,12.92,0,0,1,1.12-8.33c1.48-2.82,5.38-6.44,7.68-8.43C27.19,87.94,27.14,88.19,27.1,88.42Z"/><path class="cls-1" d="M32.55,172.93c5.28-1,11.15-8.11,14-16.95,2.9-9.13,1.85-17.28-2.87-22.49,2.27-.72,3.29-.13,13.65,6.65,16.48,10.77,27.08,33.45,27.18,33.68l.6-.28c-.11-.23-10.78-23.08-27.42-34C46.64,132.39,46,132,42.93,133l.11.31-.25.25c6.87,7.08,4.42,17.86,3.05,22.17-2.74,8.6-8.38,15.52-13.42,16.46a14.34,14.34,0,0,1-12.86-3.94A13.12,13.12,0,0,1,16,156.36c.68-3.47,2.41-6.71,4.24-10.13.83-1.54,1.68-3.14,2.44-4.77l.28-.6-.66.1-1.12.2a25.79,25.79,0,0,1-3.54.5l-1.86.11a32.22,32.22,0,0,1-7.27-.09c-3.46-.59-5.8-1.92-7-4s-1.1-4.94.26-8.41A25.17,25.17,0,0,0,3,125.53c1.76-8,8-13.19,15.92-13.33h.25c6.89,0,13.06,5,15.41,12.49a20.55,20.55,0,0,1,.5,2.14c.5,2.52,1.06,5.37,4.66,6.25l.08-.34h0l.35,0c0-.06,0-.13,0-.19,0-.5,0-1.05,0-1.6.06-1.42.12-2.89-.64-3.65-6.16-6.14-7.69-13.57-4.55-22.08,3-8.1,11.38-14.08,19.58-13.88,1.79,0,4.3.9,5.23,2.21,4.74,6.66,9,13.9,4.95,22.65-3.93,8.4-11.24,13.22-20.08,13.22h0v.35h0l-.31.1,0,.07c.21.46,1,.77,2.67,1.4a55.58,55.58,0,0,1,16.35,9.26c13.31,10.78,24.87,28.57,25,28.75l.55-.36a163.81,163.81,0,0,0-16.19-20.5h0c-.82-1.22-2.38-6.37-4.35-12.89-1.39-4.62-3-10.07-4.89-15.69a27.14,27.14,0,0,0,1.91-3.41c4.25-9.1-.15-16.53-5-23.36-1.07-1.51-3.79-2.46-5.79-2.5a17.36,17.36,0,0,0-1.8.06,143.07,143.07,0,0,1-5.09-23.41c2.1,3.06,2.93,3.41,3.09,3.44l.42.09L51,67.68a8.58,8.58,0,0,0,4.49,2,6.81,6.81,0,0,0,7.88-4.37l.16-.5-.52.07a11.59,11.59,0,0,1-8.13-2.66,31,31,0,0,1-2.35-2.12,16.16,16.16,0,0,0,9.66,3.43c4.5,0,5.94-2.65,6-2.8l.35-.67-.73.2a3.87,3.87,0,0,1-3.11-.7,15.26,15.26,0,0,1-2.94-3.43,10.31,10.31,0,0,0,2.1.22,11.28,11.28,0,0,0,4.9-1.17c4.64-1.11,6.94-9,6.89-9.67a.42.42,0,0,0-.27-.39c-.29-.11-.52.11-1,.6A10.35,10.35,0,0,1,71.22,48a11.36,11.36,0,0,1-2.51.7c2.48-1,5.51-3.29,7.53-8.16,2.57-6.18-1.14-9.14-2-9.71,0-.57,0-1.14-.08-1.68-.76-8.5-4.9-10.58-5.07-10.67l-.49-.23v.54a14.32,14.32,0,0,1-1.51,5.83A25.62,25.62,0,0,1,65,28.48l0-.12a9.79,9.79,0,0,0-1-2.58l.34.14a12.37,12.37,0,0,0-.23-8.83,10.43,10.43,0,0,0-2-3.15,6.5,6.5,0,0,0-.45-2.85,18.55,18.55,0,0,1,4.74,6.76c1.43,4.11-.49,6-.58,6.07l.45.48c.1-.09,2.33-2.23.75-6.77C65.6,13.48,61.5,9.82,61,9.74l-.22,0-.22.38.09.18a7.74,7.74,0,0,1,.9,3A10.51,10.51,0,0,0,57.69,11h0c-.05-.31-.11-.63-.19-1C56.72,6.35,53.65,3.69,52,2.26a8,8,0,0,1-.94-.88.42.42,0,0,0-.48-.2c-.4.12-.53.67-.6,4.41l-.15-.32C48.33,2.34,45.1-.25,44.41,0a.39.39,0,0,0-.23.49A42.25,42.25,0,0,1,44.33,5c-1.48-1.27-2.65-2.14-2.75-2.22l-.88-.65.37,1a11.14,11.14,0,0,1,.46,5A8.64,8.64,0,0,0,41.42,11L41,10.73l-.43-.24-.05.49s0,.19-.06.51a24.31,24.31,0,0,0-1.29-4.71C37.45,2.42,33.51.28,32.69.43l-.28.05-.05.21V.95l.17.13c.7.55,1.42,2.15,2,4.51.41,1.59-.36,3.79-.79,4.83a19,19,0,0,0-1.62-1.64l-.47-.4L31.6,9s-.09.73-.28,1.74c-.22-.37-.71-2-1.68-8,0-.28-.08-.48-.09-.56a.4.4,0,0,0-.36-.35h0c-.74,0-2.58,3.31-3.23,4.84-2-3.69-2.39-3.66-2.6-3.65C22.75,3,19.81,6,19.6,10.15a14.2,14.2,0,0,0,0,1.67,5.58,5.58,0,0,1-.54-3.23V8.34l-.17-.11a.4.4,0,0,0-.44,0c-.68.4-3.12,3.69-2.81,9,.36,6.09,3.88,8.9,4,9l.15-.19c-.07.44-.15.95-.22,1.52a9.59,9.59,0,0,1-3.76-3.71,21.12,21.12,0,0,1-1.37-6c-.1-.84-.11-1-.41-1l-.27,0-.08.25-.14.26a18.53,18.53,0,0,0-2.38,12.75,23.13,23.13,0,0,0,1.07,3.87A27.89,27.89,0,0,1,9,29.39C8.16,28,7.54,26.76,7,25.78,6.15,24,5.87,23.52,5.51,23.42a.44.44,0,0,0-.35,0c-.14.09-.23.25-.34.86a36,36,0,0,0-.32,7c-.64-.56-.8-.66-1-.51L3.25,31l.07.24c0,.08,0,.26,0,.53,0,1.41-.11,5.16,1.36,7.91a14.15,14.15,0,0,0,2.27,3.2q.09.52.2,1a13.66,13.66,0,0,0-2.59-2.25A5.69,5.69,0,0,1,2.31,39L1.9,37.83l-.22,1.25c-.05.28-1.2,7,2.15,10.6a17.28,17.28,0,0,0,2.6,2.25,6.46,6.46,0,0,0-1.61.15c-2.57.66-2.7,2.23-2.7,2.29l0,.42.42-.08a4.37,4.37,0,0,1,3.61,1.34c.3.3.62.63,1,1,1.57,1.67,3.7,3.89,6.77,4.38A12.41,12.41,0,0,0,10.71,63l-.24.21.2.25A8.23,8.23,0,0,0,12.41,65,12.39,12.39,0,0,0,2.18,75a17.46,17.46,0,0,1-.8,2.63c-1.06,2.69-1.11,4.91-.15,6.6S4,86.9,6.68,87.36a23.84,23.84,0,0,0,5.4.07l1.33-.08A19,19,0,0,0,16.06,87l.11,0c-.46,1-1,1.89-1.45,2.8a27.43,27.43,0,0,0-3.13,7.49,10.08,10.08,0,0,0,2.76,9.17,10.91,10.91,0,0,0,7.77,3.21,11.27,11.27,0,0,0,2.07-.19c3.85-.72,8.12-5.9,10.17-12.31,2.09-6.57,1.35-12.44-2-16.24,1.51-.45,2.35.07,9.64,4.84a40.65,40.65,0,0,1,6.8,5.7,22.82,22.82,0,0,0-14.5,13.51C31,113.74,32.62,121.41,39,127.77c.54.54.49,1.85.43,3.12,0,.46,0,.92,0,1.37-2.75-.88-3.2-3.16-3.68-5.57a21.32,21.32,0,0,0-.52-2.21c-2.48-7.9-9.06-13.1-16.35-13-8.25.14-14.76,5.6-16.6,13.89A24.48,24.48,0,0,1,1.15,129c-1.45,3.68-1.52,6.71-.22,9s3.77,3.69,7.46,4.32a32.72,32.72,0,0,0,7.43.1l1.85-.11a26.25,26.25,0,0,0,3.64-.51l.42-.08c-.67,1.4-1.41,2.78-2.13,4.12-1.86,3.47-3.61,6.75-4.31,10.33a13.82,13.82,0,0,0,3.79,12.56,15,15,0,0,0,10.65,4.41A15.5,15.5,0,0,0,32.55,172.93ZM50.26,91.05l-.12-.36.24.33Zm-3,39.64c-.57-.22-1.15-.44-1.59-.63a21.69,21.69,0,0,0,15.52-7.21c.81,2.41,1.59,4.74,2.31,6.92,2.11,6.35,3.86,11.62,5.16,14.6-1.59-1.51-3.22-3-4.87-4.31A56.18,56.18,0,0,0,47.22,130.69Zm20.48,5.07c1.51,5,2.7,9,3.59,11.25l-1.24-1.25c-1.31-2.17-3.37-8.36-6-16.2-.76-2.29-1.57-4.74-2.43-7.27.46-.55.9-1.13,1.32-1.73C64.76,126,66.35,131.28,67.71,135.76Zm-15.61-45c-.33,0-.66.08-1,.14-.47-.65-1-1.35-1.57-2.1a243.75,243.75,0,0,1-6.22-24.2l-.21,0a23.09,23.09,0,0,0,.55-5.73A22.83,22.83,0,0,0,46.18,65c.28.45.53.85.78,1.23H46.9A137.86,137.86,0,0,0,52.09,90.74ZM42.72,53.43v.06h-.06Zm21.65,6.66a4.58,4.58,0,0,0,2.87.91c-.93,1-3.53,2.89-9.36,1.16-6.23-1.86-10.35-8.31-11.73-10.79a7.48,7.48,0,0,0,3.84,1,11.4,11.4,0,0,0,1.84-.16,7.4,7.4,0,0,0,2.44-.85,14.45,14.45,0,0,0,6.61,4.57A17.72,17.72,0,0,0,64.36,60.09Zm-21-12.48-.26.05h0l.26,0Zm6-6.71a13.13,13.13,0,0,0-1.88,3.52,2.69,2.69,0,0,1-2.08,2,2,2,0,0,1-.85-.11A3.66,3.66,0,0,0,45,43.56a4.37,4.37,0,0,0-1.8-3A2.47,2.47,0,0,1,44.64,40h.15A35,35,0,0,1,49.39,40.9Zm-5,2.8A3,3,0,0,1,44,46a5,5,0,0,1-1.45-1.58,2.81,2.81,0,0,1-.09-3.08,2.86,2.86,0,0,1,.26-.33A3.71,3.71,0,0,1,44.36,43.7ZM42,44.75a5.61,5.61,0,0,0,1.57,1.74c-.05.05-.09.11-.15.16a2.62,2.62,0,0,1-2.64.46,34.28,34.28,0,0,1-4-2.43A13,13,0,0,0,39.69,42,2.83,2.83,0,0,1,42,40.79l-.13.18A3.5,3.5,0,0,0,42,44.75Zm1.83,2.42a3.55,3.55,0,0,0,.36-.33,2.85,2.85,0,0,0,.72.2,6,6,0,0,1-1.12.16Zm6.27-1.09c3.66-1.38,6.89-4.76,8.14-6.19.07,2.61-.24,10.6-6.52,11.64-5.52.91-7.37-2.54-7.82-3.67A25.31,25.31,0,0,0,50.09,46.07ZM75.64,40.3C72.43,48,66.57,48.86,65,48.93h-.36c-.26,0-.41.09-.44.28l0,.29.28.08h.32a16.56,16.56,0,0,0,6.71-1,10.93,10.93,0,0,0,3.4-2.43l.06-.06c-.5,1.9-2.68,7.54-6.34,8.43C61,58.19,55.64,52,54.81,51a7.62,7.62,0,0,0,2.06-2.16l0,.29c.14,0,3.34-.28,7-3.5l.16.08.13.2a4.06,4.06,0,0,1,.41-.18c7.51-3.15,9.52-9,9.63-14C75.36,32.57,77.74,35.25,75.64,40.3ZM67.73,24.91a16,16,0,0,0,1.56-5.53c1.06.8,3.67,3.39,4.25,9.83.68,7.62-2.34,12.93-9,15.78a6.41,6.41,0,0,0,1.92-4.43l0-.68-.52.45a8,8,0,0,1-2.69,1.49l-.77.21a6.7,6.7,0,0,1-.92.22c.22-.2.52-.45.8-.68a19.32,19.32,0,0,0,3.76-3.82,9,9,0,0,0,1.22-6l0-.22c0-.13,0-.43-.32-.47s-.38.19-.49.49A6.46,6.46,0,0,1,65,34a12.08,12.08,0,0,0,.15-4.61A19.2,19.2,0,0,0,67.73,24.91Zm-4.22-7.57a12,12,0,0,1,.31,8.1,11.31,11.31,0,0,0-3.64-3.77l-.31.52a16.78,16.78,0,0,0-2.2-5.37l-.14-.21.28.09a12.13,12.13,0,0,0,0-4.94A10.16,10.16,0,0,1,63.51,17.34ZM57.16,31.11c-.7-3.9-5.21-6.06-6.15-6.38a4,4,0,0,1-.16-4.15,20.55,20.55,0,0,0,1.8-8.21c.86.67,2.88,3,3.09,4.41a6.17,6.17,0,0,1-.16,2.41c-.09.39-.15.65.06.83a.43.43,0,0,0,.48,0,3.17,3.17,0,0,0,1.43-2.15A13.51,13.51,0,0,1,59.41,25a14.79,14.79,0,0,1-2.2,6.37C57.19,31.27,57.18,31.19,57.16,31.11ZM44.89.8a13.46,13.46,0,0,1,4.36,4.78,5.38,5.38,0,0,1,.62,2.85l0,.33.63.07.08-.44a20.3,20.3,0,0,0,.08-2.15c0-1.21.05-3.28.18-4.15.19.18.44.4.75.68,1.59,1.38,4.54,3.94,5.28,7.43a16.34,16.34,0,0,1,.4,6l-.07-.1-.11.88a4.83,4.83,0,0,1-.8,2.16,6.51,6.51,0,0,0,.12-2.44c-.27-1.84-3-4.79-3.79-5.11a.46.46,0,0,0-.49,0,.45.45,0,0,0-.15.45,12.71,12.71,0,0,1-.2,3.1,12.86,12.86,0,0,0-2-4.46A30,30,0,0,0,45,5.59C45,5,45,2,44.89.8ZM41.07,11.56c1.13.68,4.22,2.67,5.63,4.92,3.54,5.2.13,11.18.09,11.24l.57.33c0-.06,3.66-6.39-.11-11.93a17.59,17.59,0,0,0-5.13-4.68l.09-.06s-.43-.74,0-3.11A11.15,11.15,0,0,0,42,3.94c1.62,1.27,5.31,4.33,7.21,7.13,2.4,3.54,2.08,5.85,2.07,5.88l.14,0a18.71,18.71,0,0,1-1.15,3.33A4.7,4.7,0,0,0,50.4,25a1.53,1.53,0,0,0,.13.64,6.2,6.2,0,0,1,.39,2.16c0,1.55-.59,2.74-1.69,5.11l-.18.4c-1.29,2.79,1.8,7,1.94,7.21l.53-.39s-3-4.1-1.87-6.54l.18-.4c1.1-2.37,1.71-3.68,1.75-5.37a6.79,6.79,0,0,0-.41-2.32c1.28.57,4.77,2.58,5.34,5.76,1.7,6.14-3.4,9.8-3.62,10l.38.54c.05,0,5.16-3.71,4.07-9.74l.14.1A15.17,15.17,0,0,0,60.07,25a10.09,10.09,0,0,0-.18-2.77,10.47,10.47,0,0,1,4.44,6.24,11.69,11.69,0,0,1-.08,5.77c-.1.39-.16.61.06.77l.26.11.19-.13a6.2,6.2,0,0,0,2-2.35,8,8,0,0,1-1.18,4.74,18.83,18.83,0,0,1-3.63,3.67c-1.06.89-1.38,1.15-1.3,1.5l.11.25.2,0a3,3,0,0,0,1.72-.2l.76-.21a7.75,7.75,0,0,0,2.34-1.17,6,6,0,0,1-1.84,3.42,13.64,13.64,0,0,1-6.81,3.68A12.18,12.18,0,0,0,58.41,45a20.8,20.8,0,0,0,.43-6l-.08-.81-.51.64s-4,5-8.4,6.63c-1.23.46-2.22.8-3,1.05a4,4,0,0,0,1.31-1.87,11.44,11.44,0,0,1,2.08-3.7l.38-.4-.53-.14c-.1,0-1.71-.46-3.3-.77a7,7,0,0,0,1.34-4.83C48,31,45.53,28.7,42.77,26.53a9.89,9.89,0,0,1-2.31-2.67l.22-.06a19.17,19.17,0,0,1-.39-6.92C40.67,14.75,41,12.53,41.07,11.56ZM35.19,5.43a15.19,15.19,0,0,0-1.56-4A11,11,0,0,1,38.51,7,20.33,20.33,0,0,1,40,14.33h0c-.11.77-.25,1.61-.4,2.44a17.67,17.67,0,0,0,.1,5.72,17.05,17.05,0,0,1-1.11-3.27c-.08-.35-.26-.4-.4-.4a7.58,7.58,0,0,0-.65-2.87,28.23,28.23,0,0,0-3.34-5C34.65,10.07,35.71,7.41,35.19,5.43Zm-3,4.28A27.17,27.17,0,0,1,37,16.26,9.07,9.07,0,0,1,37.6,20c-.13.59-.29,1.48-.52,2.81-.29,1.63-.64,3.65-1,5.51a12.61,12.61,0,0,0,.15,6.83l-.14-.1C33.69,33.51,32.32,31.81,32,30a13.36,13.36,0,0,1-.25-2.43c0-.15,0-.43-.3-.46l-.29,0-.07.28-.09.18c-.21.44-.39.86-.57,1.28A20.92,20.92,0,0,0,30,23.58a12,12,0,0,0-.78-2.27h.08A14.29,14.29,0,0,1,30.51,16,26.8,26.8,0,0,0,32.17,9.71ZM25.58,30.35A10.05,10.05,0,0,1,28.91,34L29,34a17.69,17.69,0,0,0-.11,3.62,11.83,11.83,0,0,0,4.86,9.34c-2.13-.09-9.86-.9-12.75-7.59C19.18,35,20.18,28,20.61,25.53A20,20,0,0,0,25.58,30.35Zm3.57,2.74A11.92,11.92,0,0,0,26,29.82a21.11,21.11,0,0,1-4.41-4.12l.21-.09a11.93,11.93,0,0,1-.33-7.87,40.67,40.67,0,0,1,2.49-5.8A14.56,14.56,0,0,0,25.66,17c.33.49.67.95,1,1.4a13.55,13.55,0,0,1,2.72,5.29,25.2,25.2,0,0,1,.23,7.13h.08A19.91,19.91,0,0,0,29.15,33.1ZM29,2.69l0,.11c1.13,7.09,1.63,8.3,2,8.55l.3-.41a23.36,23.36,0,0,1-1.38,4.76,15.06,15.06,0,0,0-1.19,4.6A24.24,24.24,0,0,0,27.19,18c-.32-.44-.66-.89-1-1.37a6.19,6.19,0,0,1-.45-.81h.06a19.13,19.13,0,0,1,.59-8.62A19.71,19.71,0,0,1,29,2.69Zm-5.64,1a30.37,30.37,0,0,1,2.31,3.78,18.26,18.26,0,0,0-.72,6,11,11,0,0,1-.41-2.33.38.38,0,0,0-.31-.43c-.65-.1-2.06,3.28-2.85,5.33a12.3,12.3,0,0,1-1.09-5.87A9.84,9.84,0,0,1,23.33,3.66Zm-7,13.6a12,12,0,0,1,2.07-8,4.78,4.78,0,0,0,1.36,3.81A10.84,10.84,0,0,0,21,16.85l0,0c-.13.35-.22.61-.25.7a12.27,12.27,0,0,0-.22,6.57l-.24-.54-.21,1c0,.07-.1.47-.21,1.1A12.36,12.36,0,0,1,16.32,17.26Zm-2.46,1.08a20.7,20.7,0,0,0,1.4,5.89,10.4,10.4,0,0,0,4.28,4.14c-.37,3.27-.53,7.94.9,11.23,3.37,7.81,12.94,8,13.85,8h.07v-.29a9.93,9.93,0,0,0,2.19,1.08l.19-.63c-.27-.08-6.68-2.06-7.14-10.21a18.41,18.41,0,0,1,1.56-8.75c0,.38.1.82.2,1.34.38,2,1.84,3.83,4.36,5.49s3.75,5.1,3.76,5.14l.62-.23a13.22,13.22,0,0,0-3.45-5l.34-.17s-1.22-2.52-.28-6.85c.41-1.87.76-3.9,1.05-5.53.17-1,.34-2,.49-2.66a13.17,13.17,0,0,0,4.15,6.78c2.63,2.07,5,4.22,5.09,7.76.09,3.31-1.37,4.59-1.38,4.6l.08.1c-.47-.08-.92-.15-1.31-.18a3.16,3.16,0,0,0-2.33.89l-.05,0a3.32,3.32,0,0,0-3.29,1.37A11.3,11.3,0,0,1,36,44.36l-.49.25.45.32a38.68,38.68,0,0,0,4.54,2.79,2.76,2.76,0,0,0,1.15.24,3.45,3.45,0,0,0,1.43-.33l.05.06,0,0a6.9,6.9,0,0,0,2,2.92l-.08,0a29.93,29.93,0,0,0,3.83,5.84h0a23.79,23.79,0,0,0,5.67,6.23,12.31,12.31,0,0,0,8.09,2.84A6,6,0,0,1,55.64,69C52,68.37,51,66.57,51,66.56l-.69-1.35.2,4.5a26.06,26.06,0,0,1-3.73-5.1c-3.22-5.21-3.42-12-3.42-12.06a15.32,15.32,0,0,0,1.11-2l-.61-.26c0,.07-3.2,7.41-10.55,8.58-5.59.89-11.08-3.26-12.95-7.61a16.05,16.05,0,0,1-1.17-8.48c.24.23.66.68,1.1,1.15,2.65,2.82,8.16,8.68,11.65,9.79l.2-.63C28.8,52,23.16,46,20.75,43.48a15.3,15.3,0,0,0-1.39-1.41.44.44,0,0,0-.54,0c-.72.6-.75,5.55.91,9.42a12.51,12.51,0,0,0,1.4,2.42c-1.49-.07-8.21-.7-11.67-6a12.76,12.76,0,0,1-1.69-4.32,4.8,4.8,0,0,0,1.45.86l.19-.63a5.43,5.43,0,0,1-1.84-1.3,30.19,30.19,0,0,1,0-7.76c1.39,1.26,5.87,5.41,6.94,7.65,1.31,2.72,2.13,4.76,2.14,4.78l.61-.25s-.83-2.07-2.16-4.82S8.4,34.64,7.65,34c.11-.81.23-1.5.33-2a12.4,12.4,0,0,0,4.62,4.94,19.78,19.78,0,0,1,5.76,5.41l.55-.36a19.26,19.26,0,0,0-3.17-3.54l.12-.26s-2.72-1.32-4-8.05A17.72,17.72,0,0,1,13.86,18.34Zm-8.61,21C3.87,36.72,3.94,33.1,4,31.74l.35.3c.66.58.79.7,1,.47s0-.48-.07-.6c-.39-.57-.11-6.11.2-7.63.23.36.59,1.07,1,1.8.5,1,1.13,2.21,1.94,3.64a25.06,25.06,0,0,0,4.53,6l.05-.06a11.54,11.54,0,0,0,.64,1.1l-.67-.42a11.51,11.51,0,0,1-4.76-5.56l-.36-1.09-.27,1.11a35.14,35.14,0,0,0-.76,10.86A14.76,14.76,0,0,1,5.26,39.32Zm-.95,9.92c-2.39-2.57-2.29-7-2.11-9a6.94,6.94,0,0,0,2,1.94,13.44,13.44,0,0,1,3,2.79l.18-.13a12.68,12.68,0,0,0,1.52,3.44A14.09,14.09,0,0,0,17.26,54a8.7,8.7,0,0,1-3-.46l-.77-.21A40,40,0,0,0,7.72,52,17.6,17.6,0,0,1,4.31,49.24ZM7.54,56.6c-.34-.36-.67-.71-1-1A5.27,5.27,0,0,0,2.91,54,3,3,0,0,1,5,52.73c2.07-.53,5.68.47,8.32,1.19l.78.21c2.73.73,3.48.46,3.6.4L17.42,54a18.1,18.1,0,0,0,4,.61h0v-.26a14.35,14.35,0,0,0,6.3,4.6,37.43,37.43,0,0,0-10.54,1.3c-1.07.33-2,.64-2.72.93l0-.3C11.35,60.63,9.24,58.4,7.54,56.6Zm3.88,6.75a25.49,25.49,0,0,1,6-2.47,38.12,38.12,0,0,1,11.15-1.25l0-.42a11.47,11.47,0,0,0,3.12.45,10.84,10.84,0,0,0,1.69-.13,14.37,14.37,0,0,0,9-5.68c.32,1.5,1.85,9.83-2.05,15.55s-12.28,5-15,4.58a13.92,13.92,0,0,0,2-1.41c.12,0,.32,0,.61,0a11.5,11.5,0,0,0,8.78-4.39c4.12-4.91,5.67-13.05,5.74-13.4l-.65-.12c0,.08-1.59,8.32-5.6,13.09A11,11,0,0,1,28,71.91a10.28,10.28,0,0,0,2.65-4.21l-.08,0a43.09,43.09,0,0,0,3.7-3.46l-.48-.45a42.42,42.42,0,0,1-3.29,3.09c-.69-.31-3-1.09-7.61-.74a21.93,21.93,0,0,0,6.36-5.21l-.51-.42c-.05.06-5.29,6.44-10.27,5.94a12.79,12.79,0,0,1-4.22-1.15v-.44c-.26,0-.52,0-.77,0A9.7,9.7,0,0,1,11.42,63.35ZM20.52,67c5.47-.78,8.36-.07,9.42.3-2.83,2.32-6.76,4.93-10.17,4.95h-.09c-4.93,0-7.32-2.55-8-3.47A53.45,53.45,0,0,1,20.52,67ZM42.36,85.18c-8-5.23-8.47-5.54-10.72-4.74l.11.31-.25.25c4.93,5.08,3.17,12.83,2.18,15.92-2,6.18-6,11.16-9.62,11.83a10.27,10.27,0,0,1-9.2-2.82,9.39,9.39,0,0,1-2.57-8.53,26.94,26.94,0,0,1,3.06-7.29c.6-1.12,1.22-2.27,1.76-3.45l.28-.6-.66.1-.8.14a18.56,18.56,0,0,1-2.55.36L12,86.72a23.2,23.2,0,0,1-5.24-.06c-2.47-.42-4.14-1.37-5-2.82s-.78-3.52.2-6a18.16,18.16,0,0,0,.83-2.74A11.69,11.69,0,0,1,13.39,65.6a13,13,0,0,0,3.76,1.3A29.85,29.85,0,0,0,11,68.36l-.33.15.18.31C11,69,13.3,73,19.69,73h.09c3.35,0,7.07-2.32,9.91-4.55a12.1,12.1,0,0,1-5.48,5.41l-.88.4.94.23a23.48,23.48,0,0,0,4.88.49c3.78,0,8.85-.91,11.77-5.17a14.69,14.69,0,0,0,1.93-4.18c.56,2.73,2.43,11.49,5.54,21.7A86.34,86.34,0,0,0,35.63,73.85l-.42.51A89.18,89.18,0,0,1,48.94,89.08q.33,1.05.68,2.12l-.1,0A41.65,41.65,0,0,0,42.36,85.18Z"/><path class="cls-1" d="M29.1,139.06l10.47-1.6-.3-2-.18-.08c-5.17-2.17-5.35-2.11-9.41,2.92Zm5.76-4.24A11.37,11.37,0,0,1,38.63,136l.13.86-8,1.21C32.69,135.76,33.56,134.82,34.86,134.82Z"/><path class="cls-1" d="M13.76,138.91a1,1,0,0,0,.25,0c2.16,0,7.81-5.67,9-6.85l.35-.36-.46-.18c-.33-.13-.71,0-5.58,4.31l-1.13,1a5.92,5.92,0,0,1-1.88.72c-.87.23-1.31.35-1.31.75S13.45,138.83,13.76,138.91Z"/><path class="cls-1" d="M5.72,132.64c.37,0,1-.06,1.89-.16,2.8-.31,7-4.05,7.17-4.21l-.41-.51a63.06,63.06,0,0,1-5.9,2.68l-1.93.83c-1.17.51-1.56.69-1.46,1.07C5.14,132.55,5.26,132.64,5.72,132.64Zm1.08-.78L8.73,131c1.05-.44,2.21-.94,3.25-1.39a11.22,11.22,0,0,1-4.44,2.17l-.84.09Z"/><path class="cls-1" d="M21.5,123.52a.36.36,0,0,0,.16,0c.37-.18.4-.37-1.1-4.49-.28-.77-.6-1.64-.62-1.79l-.66,0v0a12.59,12.59,0,0,0,1.58,5.7C21,123.2,21.24,123.52,21.5,123.52Z"/><path class="cls-1" d="M22.78,96.57c-.32.13-.64.27,1.85,9.22l.06.21.22,0H25a.41.41,0,0,0,.34-.19c.54-.81-1-7.33-1.92-8.93C23.31,96.78,23.11,96.43,22.78,96.57Zm1.5,5.35c-.22-.86-.43-1.68-.6-2.39C23.9,100.29,24.11,101.13,24.28,101.92Z"/><path class="cls-1" d="M17.52,79.54c-.13-.35-.58-.25-.79-.2C14.16,79.93,6.66,83.88,6,85.43a.59.59,0,0,0,0,.57l.16.25.27-.14C17.8,80.32,17.64,79.87,17.52,79.54ZM7.32,84.94a38.72,38.72,0,0,1,8.52-4.65C14.16,81.33,10.72,83.18,7.32,84.94Z"/><path class="cls-1" d="M56.94,108.79c-4.46,2-6.09,3.66-6.13,4.52a.43.43,0,0,0,.21.42.41.41,0,0,0,.21.06c.26,0,.61-.24,1.37-.76a39.49,39.49,0,0,1,3.7-2.31,35.82,35.82,0,0,1,6.9-2.8l.13-.07c.36-.32.23-.59.17-.67C63,106.35,59.13,107.8,56.94,108.79Zm-1,1.34a40.06,40.06,0,0,0-3.76,2.35l-.43.29c.58-.69,2.08-1.86,5.42-3.38a30.28,30.28,0,0,1,3.6-1.4A35.42,35.42,0,0,0,56,110.13Z"/><path class="cls-1" d="M48.62,122a.41.41,0,0,0,.14.44.35.35,0,0,0,.21.05c1.18,0,6.23-2.48,15-7.38l.21-.12,0-.24-.11-.29h-.27C62.88,114.41,49,120.49,48.62,122Zm1.26-.36a89,89,0,0,1,10.07-5.06C55.66,118.85,51.6,120.92,49.87,121.6Z"/><path class="cls-1" d="M47.33,102.68c.66.78.94.89,1.15.9l.28,0,.1-.19c.1-.2.35-.67-4.18-6.5l-.49-.63-.1.79C44,97.94,46.18,101.33,47.33,102.68Zm.16-.84c-.39-.51-.83-1.14-1.24-1.78C46.73,100.73,47.16,101.34,47.5,101.85Z"/><path class="cls-1" d="M38.66,141.22c-.45-.21-1.65-.49-3.1,1.37a56.67,56.67,0,0,0-4.86,7.19c.19-.43.37-.85.57-1.25a24.14,24.14,0,0,1,5-6.87c.85-.85,1.23-1.24,1.07-1.66l-.63.16a5.53,5.53,0,0,1-.92,1,24.73,24.73,0,0,0-5.15,7c-2.73,5.66-4.85,14.88-4.16,16.62.1.25.25.62.56.62h.06c.39-.06.43-.41.59-2.1.13-1.38.33-3.45.8-6.06,1-5.36,4.79-10.75,7.56-14.33.82-1,1.66-1.48,2.3-1.18a.94.94,0,0,1,.57.91l.65.14A1.58,1.58,0,0,0,38.66,141.22Zm-11.6,22.11,0,.23c0-.39.06-.86.14-1.39C27.13,162.6,27.09,163,27.06,163.33Z"/><path class="cls-1" d="M5.22,125.18c-.25.14-.63.34-.54.68s.46.38,2.16.33c1.38,0,3.47-.08,6.12.08,6.08.37,12.88,4.47,15.12,5.81,1.14.69,1.66,1.47,1.44,2.14a1,1,0,0,1-.84.67l-.06.66h.1a1.61,1.61,0,0,0,1.43-1.13c.15-.47.29-1.69-1.73-2.91a56.55,56.55,0,0,0-7.72-4c.45.13.88.27,1.3.41a24.15,24.15,0,0,1,7.41,4.17c.95.74,1.38,1.08,1.78.87l-.23-.6a5.52,5.52,0,0,1-1.14-.79,24.75,24.75,0,0,0-7.6-4.27,48.11,48.11,0,0,0-7.38-1.78c0-.64-.36-2.57-2.72-9.14L12,116l-.35.26a.55.55,0,0,0-.19.45,28.67,28.67,0,0,0,2.38,8.68C9.8,124.8,6.19,124.66,5.22,125.18Zm8.8-.79a31.87,31.87,0,0,1-1.38-4.47C13.25,121.72,13.76,123.36,14,124.4Zm-7.2,1.14H6.6c.29,0,.63,0,1,0H8Z"/><path class="cls-1" d="M32.44,156.1l-.58.31s.06.14.16.41a68.47,68.47,0,0,1,.71,7.95c.07,1.37.13,2.45.19,2.88,0,.25.23,1.47.83,1.47h0c.33,0,.82-.09.47-4.37a31.26,31.26,0,0,0-1.67-8.25A1.58,1.58,0,0,0,32.44,156.1Zm1.17,8.7a18.73,18.73,0,0,1,.08,3.29,3.34,3.34,0,0,1-.12-.53c-.05-.4-.12-1.53-.19-2.83s-.13-2.27-.19-3.29C33.36,162.43,33.51,163.55,33.61,164.8Z"/><path class="cls-1" d="M35.51,149.38l-.77-.22.39.7a22.18,22.18,0,0,1,2.18,5.74c.47,2.81.94,3,1.17,3h.06c.45,0,.46-.66.44-1.24C38.92,155.75,37.22,149.87,35.51,149.38Zm2.79,7.71a16,16,0,0,1-.34-1.6q0-.2-.08-.41A12.7,12.7,0,0,1,38.3,157.08Z"/><path class="cls-1" d="M51.73,104.86c.78-2,1.49-3.79,2.07-5.21,1.52-3.76,1.65-4.11,1.24-4.35s-.66.14-1.26.9c-.94,1.19-2.26,4.91-3.65,8.85-1.72,4.85-3.66,10.36-5,11.38l-.15.11c-.14-.69-1.3-3-7-11.65l-.3-.46-.26.48c-.54,1,5.94,11.44,7,12h0l-.5.35c-1.57,1.1-1.83,1.34-1.57,3.59s-.62,5.44-1,5.68a.17.17,0,0,1,.12,0l-.54.38a.55.55,0,0,0,.66.24c.94-.36,1.69-4.21,1.44-6.36-.22-1.92-.13-2,1.29-3,.33-.23.73-.51,1.2-.87,1.5-1.14,3.4-6.5,5.23-11.68,1.37-3.88,2.67-7.54,3.54-8.65-.26.7-.66,1.7-1.11,2.79-.58,1.42-1.29,3.18-2.07,5.22-2.43,6.34-7.86,23.3-7.51,24.24l.63-.19C44.15,127.63,49,112.05,51.73,104.86ZM40.1,109.38c1.18,1.86,2.34,3.72,3.15,5.1C42.31,113.09,41.11,111.14,40.1,109.38Z"/><path class="cls-1" d="M31.22,146.21a.41.41,0,0,0,.29-.35l0-.3-.3-.06c-6-1.13-6.12-.76-6.21-.46l0,.26.15.14c.45.42,3.68.83,5.27.83A2.78,2.78,0,0,0,31.22,146.21Z"/><path class="cls-1" d="M19.82,154.57a.51.51,0,0,0,.18.5.77.77,0,0,0,.5.14A14.06,14.06,0,0,0,24.38,154c.42-.17.9-.36,1-.38l-.05-.66h0C23.73,153,20,153.42,19.82,154.57Zm3-.67a10.59,10.59,0,0,1-2.21.66A6.3,6.3,0,0,1,22.77,153.9Z"/><path class="cls-1" d="M12.68,78l.62,0a44.81,44.81,0,0,1,11.44,2.27l.08-.23.15.06a2.53,2.53,0,0,0,.6.2l.08-.65-.45-.16A47.8,47.8,0,0,0,14.56,76.8,38.33,38.33,0,0,0,8,76.58a5.68,5.68,0,0,1-1.35-.77l-.4.52a6,6,0,0,0,.51.34c-1.08.11-1.71.23-1.78.24l.13.65a23.09,23.09,0,0,1,2.82-.31A16.29,16.29,0,0,0,12.68,78Zm1.81-.56c.44.05.87.11,1.3.18-.81-.1-1.63-.19-2.44-.24l-.62,0c-.68,0-1.36-.09-2-.16C11.82,77.22,13.1,77.29,14.49,77.45Z"/></g></g></svg>