<svg xmlns="http://www.w3.org/2000/svg" viewBox="0 0 110.47 166.86"><defs><style>.cls-1{fill:#fff;}</style></defs><title>קופטיס סיני</title><g id="Layer_2" data-name="Layer 2"><g id="Expended"><path class="cls-1" d="M56,45.32a18.52,18.52,0,0,0,5,0l-.12-.65a18.26,18.26,0,0,1-4.85,0A5.26,5.26,0,0,0,51.43,46l.5.43A4.66,4.66,0,0,1,56,45.32Z"/><path class="cls-1" d="M63.1,109.26l0,.66A16,16,0,0,1,68.68,111v.47c.21.05.65.89.85,1.29l.15.3c.09.16.27.51.59.36.15-.07.35-.16,0-1.15.4.2,1,.5,1.37.74a13.82,13.82,0,0,0,1.56.8.66.66,0,0,0,.2,0,.37.37,0,0,0,.36-.24c.24-.68-2.33-2.25-4.71-3.15A16.29,16.29,0,0,0,63.1,109.26Zm6.66,2.17a.37.37,0,0,0-.16.09h0l-.16-.23Z"/><path class="cls-1" d="M14.2,105.11a12.37,12.37,0,0,1-1,1.07c-.75.76-1,1-.91,1.31s.41.38,3.23,0c1.63-.24,4.68-.68,5.09-.44l0,0a12.94,12.94,0,0,1-2.51.4,3.92,3.92,0,0,0-2.92,1.68,1.78,1.78,0,0,1-.4.42c-.1,0-.39.16-.36.46s.34.37.77.45c.16,0,.36.07.52.11a9,9,0,0,1-.87.94,5.27,5.27,0,0,0-.88,1,.45.45,0,0,0,.05.49c.46.6,3.67.94,4.53.91a2.28,2.28,0,0,1-.28.67V115c.07.13.17.29,1.53.29.61,0,1.47,0,2.7-.11l0-.24c.14.13.3.25.45.36l.16.13a13.53,13.53,0,0,1-1.54.3c-.62.1-1.26.2-1.8.34-.24.06-1,.25-1,.79q0,.59,1.06,1.15a16.43,16.43,0,0,1-2.38.64c-.5.1-.56.4-.56.53,0,.43.52.73,1.08.89a6.91,6.91,0,0,1-1.69,1.35.4.4,0,0,0-.23.49c.1.3.16.45,3.65,0a2,2,0,0,1-.32.28.41.41,0,0,0-.19.49c.09.23.18.46,2.64.18a1.1,1.1,0,0,0-.16.65.48.48,0,0,0,.22.35c.33.22.9.07,1.81-.21l.35-.1a.47.47,0,0,0,.09.39c.19.24.55.21.87.15.89-.17,3-1.65,5.15-3.15l.37-.26-.16.3c-.94,1.85-1.92,4.19-1.32,4.8.43.44,1.22,0,2.46-.85.32-.21.74-.48,1-.6a1.09,1.09,0,0,0,.71.78c.22.05.56,0,.91-.47.51-.69,1.45-2,2.46-3.29a6.15,6.15,0,0,0-.66,1.1A.55.55,0,0,0,36,123c.24.25.62.16,1,.05-.17.46-.54,1.26-.79,1.79a6.62,6.62,0,0,0-.72,1.81.59.59,0,0,0,.18.45.85.85,0,0,0,.72.09l.59-.08a3.5,3.5,0,0,1-.09,1.24,3.27,3.27,0,0,0,0,1.72.51.51,0,0,0,.4.29c.89.11,3.09-2.26,3.7-2.94l.07.23c.13.47.32,1.19.93,1,.79-.21,1.3-3,1.47-4.08a6.83,6.83,0,0,1,.77,1.07.47.47,0,0,0,.5.31c.32,0,.65-.3,1.12-2.91a15.33,15.33,0,0,0-.38-5,16.4,16.4,0,0,1-.37-2.81c0-.31.27-.57.77-.77,1.58-.62,4.7-.26,5.56.64.69.84,1.06,12.46,1.39,22.71.26,8.2.53,16.68,1,21.67l.66-.06c-.31-3.45-.54-8.58-.73-14.14.71,8.18,2.41,16.79,4.52,21.51l.6-.27c-2.94-6.57-5.65-23.16-4.6-33.9a66.46,66.46,0,0,0-.51-17.55c0-.3-.08-.5-.09-.58,0-.51,1.43-4.22,3.16-4.86s2.73,1.9,2.75,1.92l.1,0c.52,4.29,1.22,11.26,1.94,18.48,1.07,10.76,2.29,22.95,3.45,32l.65-.08c-1.16-9-2.38-21.21-3.45-32-1.46-14.65-2.25-22.33-2.72-23-1-1.52-8-1.83-11.41-1.42a12.11,12.11,0,0,0-4.27,1.39.75.75,0,0,0,0-.67.53.53,0,0,0-.54-.23,5,5,0,0,0-1,.45l.15-.53a18.23,18.23,0,0,1,5.3-1.17,31.67,31.67,0,0,1,8.13.76c1.43.28,1.86.37,2.07.05a.44.44,0,0,0,0-.51,5.38,5.38,0,0,0-.74-.74A32.07,32.07,0,0,1,47.05,86.16c-.77-4-1.31-8.39-1.73-12.59a94.46,94.46,0,0,0,3.35,16c2.51,8.29,8.26,15.19,10.41,15.78a1.26,1.26,0,0,0,.34,0,.78.78,0,0,0,.55-.2c1.28-1.17,1.73-4.39-.2-16.29-.37-2.29-.69-4.39-1-6.3-1.17-7.79-1.82-12.09-3.7-13.2-1-.57-2.93-1.42-4.83-2.25-1.29-.56-2.82-1.22-3.59-1.63a1.67,1.67,0,0,0,1.22-1,14,14,0,0,0,2.86,2.19l.81.48c3,1.76,3.29,1.94,3.6,1.67a.4.4,0,0,0,.09-.48,5.74,5.74,0,0,0-.43-.7,47.29,47.29,0,0,1-5.2-10.43,25.52,25.52,0,0,0-2.16-5.15l.35-.45c.15.17.62.92,1.64,4.23a54.15,54.15,0,0,0,3.4,8.29c.08.36.16.43.24.46,1,1.92,2,3.3,2.6,3.44l.13,0a.52.52,0,0,0,.38-.17c.66-.71.54-4.73.24-12.36-.05-1.39-.11-2.83-.16-4.3-.07-2-.07-3.15,0-3.87.45,0,.91-.05,1.39-.1,0,.88-.1,3.9-.27,11.79l-.06,2.62a57.33,57.33,0,0,0,.85,14.05l.54,3.65c1.41,9.68,2.5,16.58,3.7,17.24a.59.59,0,0,0,.28.07.56.56,0,0,0,.23,0c1.26-.56,7.07-9.3,10-19.43a2.06,2.06,0,0,1,.78-.14c.1,0,.2,0,.3,0A36.43,36.43,0,0,1,71.78,83a91.47,91.47,0,0,1-7.1,12.52,16.86,16.86,0,0,0-2.31,4.16A12.88,12.88,0,0,0,62,101l0,.07h0a41.73,41.73,0,0,0-.51,7.74,1.42,1.42,0,0,0-.35.91l.37,0c0,1.28.09,2.62.19,4l0,0,.06.06c.1,1.41.23,2.86.4,4.33.23,2,.52,4.75.85,7.84,1.06,10,2.51,23.64,3.65,29.05l.65-.14c-1.14-5.38-2.58-19-3.64-29-.33-3.1-.62-5.84-.85-7.85q-.21-1.8-.34-3.54c1.15,1.11,3,2.72,3.78,2.6a1,1,0,0,0,.82-.95,9.59,9.59,0,0,0,3.16,1.42.45.45,0,0,0,.24-.05.4.4,0,0,0,.18-.44,4.78,4.78,0,0,0-.31-.79,8,8,0,0,1-.49-1.28,18.71,18.71,0,0,0,5,.92h0c.77,0,1.28-.23,1.5-.67a1.68,1.68,0,0,0-.34-1.66,8.76,8.76,0,0,0-.73-.75c-.23-.22-.6-.59-.81-.84.55,0,.94-.09,1-.42s-.25-.62-.41-.74a6.62,6.62,0,0,0-1.16-.59l-.46-.21c.35-.15.7-.35.76-.7a.8.8,0,0,0-.3-.72,5,5,0,0,0-1.43-.65c.43-.08.81-.22.87-.55s-.21-.58-.55-.79h0a7.45,7.45,0,0,0,1.64-.06c.27-.06.63-.16.75-.48a.61.61,0,0,0-.07-.53,5.77,5.77,0,0,0,1.48-.12c1.57-.33,1.88-1,1.91-1.1l.09-.23L78.5,104a7.15,7.15,0,0,0-1.77-1,4.92,4.92,0,0,0-2.27-.08l-.3,0a5.05,5.05,0,0,0,.53-.29l.26-.2-.09-.25c-.12-.33-.3-.31-2.55,0-.59.09-1.29.19-1.91.26,1.25-.3,7.21-1.8,7.81-3.06a1,1,0,0,0,.11-.9c-.16-.27-.46-.28-.73-.3l-.21,0a11.66,11.66,0,0,1,2.33-1.12c.12,0,.48-.15.45-.48s-.21-.38-.88-.47a3.47,3.47,0,0,0,1.4-1.08l0,0,.55-.36c-.27-.42-.51-.83-.72-1.24a4.9,4.9,0,0,0,.69-.81.41.41,0,0,0,0-.47c-.17-.22-.45-.22-1.25,0A12.19,12.19,0,0,1,81.08,81.7c.17-.32.3-.57.38-.76.56-1.34,6.46-4.06,9.91-2.73a12.43,12.43,0,0,1,4.29,2.57,2.75,2.75,0,0,0,.8.58.85.85,0,0,0,.73,0,1.16,1.16,0,0,0,.49-.76c.24.14.62.4.94.63a8.23,8.23,0,0,0,2.48,1.39.82.82,0,0,0,.78-.21A1.16,1.16,0,0,0,102,81.3a2.53,2.53,0,0,0,1.11.39,4.93,4.93,0,0,0,2.8-.57c.35-.36,0-.79-.62-1.44a13.34,13.34,0,0,1-.87-1,2.86,2.86,0,0,0-1.52-1.08l.06,0,.15-.13V77.2c0-.27-.23-.41-1.56-1.13a16.9,16.9,0,0,1-2.26-1.37,19.69,19.69,0,0,1,2.51.17c.85.09,1.81.19,2.67.23a7.21,7.21,0,0,0,4.44-1.43l.2-.14.27-.07,0-.22c.05-.27-.14-.4-.53-.66s-.58-.39-1-.7a2.58,2.58,0,0,0-1.47-.55,3.35,3.35,0,0,0,1.11-.65l.94-.86a8,8,0,0,0,.6-.57l.13-.19,0-.17c-.07-.28-.39-.46-1.24-.8.33-.31,1-.83,1.39-1.18a8.38,8.38,0,0,0,1-.91l.14-.24-.11-.19c-.29-.48-2.68-.27-3.49-.19l.11-.21a4,4,0,0,0,.39-.88.41.41,0,0,0-.14-.44c-.3-.23-.79-.14-4,1.65h0c0-.22-.18-.31-.42-.43.34-1,.54-1.78.36-2.16a.55.55,0,0,0-.38-.31c-.65-.16-1.92.78-2.43,1.18l0,.06a6.1,6.1,0,0,0-.9-.13,3.94,3.94,0,0,1-.76-.11c.44-.17,1.23-.39,1.8-.54,1.51-.41,2.2-.62,2.43-.92a.56.56,0,0,0,.11-.59c-.15-.34-.6-.38-1.12-.43h-.13l.7-.44a8.11,8.11,0,0,0,1.59-1.14.54.54,0,0,0,.14-.61c-.18-.38-.74-.38-1.8-.35a9.26,9.26,0,0,1-1.09,0,1.67,1.67,0,0,0,.32-.28l.16-.22-.12-.2c-.17-.27-.44-.22-1.58,0a14,14,0,0,1-1.66.28,11.05,11.05,0,0,1,1.35-1.83,2.35,2.35,0,0,0,.34-.45l.08-.23-.12-.15c-.16-.2-.2-.19-1.41,0l-2.18.36C94.4,56.24,93,58,92,59.21a4.6,4.6,0,0,1-1.13,1.15,2.15,2.15,0,0,1-.28.08c0-.12.09-.83,2-2.8,2.15-2.21,5.58-3.53,7.05-4.1l.7-.28c.13-.06.49-.23.46-.57s-.36-.43-.82-.53l1.09-.37a10.93,10.93,0,0,0,1.37-.5c.3-.16.33-.36.31-.5,0-.29-.34-.39-.77-.48l.16,0a4.49,4.49,0,0,0,1.1-.41.46.46,0,0,0,.24-.48c-.07-.25-.32-.27-.52-.29l-.35,0a9.2,9.2,0,0,1,.73-.68,4.66,4.66,0,0,0,.73-.71.41.41,0,0,0,0-.47c-.12-.18-.29-.42-2.62.07a2.41,2.41,0,0,0,.29-.53l.06-.26-.16-.14c-.23-.2-.51-.07-1.33.31a9.72,9.72,0,0,1-1.81.72,25.09,25.09,0,0,1,3.4-2.89,19.62,19.62,0,0,0,1.94-1.58.65.65,0,0,0,.18-.71c-.19-.46-1-.51-1.77-.56h-.14c.29-.23.71-.52,1-.72a5.58,5.58,0,0,0,1.09-.84.46.46,0,0,0,.06-.45c-.14-.33-.6-.41-1.41-.53l-.28,0,.29-.15a3.58,3.58,0,0,0,.72-.42.48.48,0,0,0,.16-.51c0-.13-.14-.46-1.33-.63a5,5,0,0,1,.22-.53,4.47,4.47,0,0,0,.47-1.46.51.51,0,0,0-.27-.55c-.41-.19-.93.24-2,1.28a.39.39,0,0,0-.18-.47c-.48-.26-2,1.4-2.57,2.1l0-.28a4.64,4.64,0,0,0-.43-1.71.53.53,0,0,0-.51-.3c-.46,0-.74.7-1.19,1.85a10,10,0,0,1-.41.95,2.71,2.71,0,0,0-.15-.55.42.42,0,0,0-.42-.3c-.37,0-.5.39-.91,1.95-.06.24-.13.52-.2.74a2.36,2.36,0,0,0-.23-.39l-.17-.19-.21,0c-.32.07-.4.39-.73,2.09A15.78,15.78,0,0,1,91.57,45a21.84,21.84,0,0,1-.48-4.27,29.56,29.56,0,0,0-.33-3.57c-.11-.52-.37-.64-.57-.65h0c-.92,0-2.31,3.48-2.87,5a8.71,8.71,0,0,0-.43-1.08c-.16-.33-.36-.35-.5-.31-.38.1-.41.42-.26,3.12,0,.63.08,1.44.07,1.91a.54.54,0,0,0-.56-.2c-.31.11-.34.5-.35.67s0,.94,0,2c.18,6.69,0,10.24-.51,10.55-.28-.24-.22-2.22-.19-3.66.07-2.85.17-6.38-1-8a.43.43,0,0,0-.34-.42c-.49-.1-1.19,1.13-1.54,1.82-.21-.46-.52-1.24-.74-1.81a19.7,19.7,0,0,0-.76-1.82.48.48,0,0,0-.49-.29c-.47.05-.76.79-1.37,3l-.14.48a.68.68,0,0,0-.22-.18.69.69,0,0,0-.57,0c-.6.22-.66,1.26-.7,2.93a9.55,9.55,0,0,1-.12,1.68,4.47,4.47,0,0,1-.74-.6c.15-2.84.34-5,.54-6.6A11.18,11.18,0,0,1,78.5,40.1a5.27,5.27,0,0,0,.56-.85c.59-1.27,5.59-6.94,6.38-7.76A4.68,4.68,0,0,1,86.9,31c2.15-.51,5.74-1.38,7.66-5.16a3.68,3.68,0,0,0-.31-3.5.41.41,0,0,0-.48-.12c-.28.13-.24.47-.22.6a.79.79,0,0,1-.21.59,4.45,4.45,0,0,1-2.88,1.14,1.44,1.44,0,0,0-.57.19,4.84,4.84,0,0,0-.74-4.3.52.52,0,0,0-.6-.18c-.39.16-.51.74-.38,1.82s-.27,1.12-1.9,1.68c-.42.15-.91.31-1.46.53a4.41,4.41,0,0,0-.93.5q.16-.32.32-.67a4.69,4.69,0,0,0-.08-4.8L84,19.16a1.25,1.25,0,0,0-1.43-.59c-.13.06-.55.33-.23,1.08.2.49-.15.9-1.2,2l-.85.94c-.23-1-1.25-3.21-2-3.59-.21-.11-.56-.29-.84-.09s-.26.62-.14,1.7c.1.86-.82,1.57-1.27,1.86a8.36,8.36,0,0,0-1.14-1.55.8.8,0,0,1-.22-.94,1.82,1.82,0,0,0,.08-.5.48.48,0,0,0-.55-.46c-.8,0-2.45,1.2-2.5,4.83a9.39,9.39,0,0,0,.68,3.9,13.62,13.62,0,0,0-2.93-2.85h.06a13.17,13.17,0,0,1,1-3.31,1.18,1.18,0,0,1,.16.58,1.19,1.19,0,0,0,.63,1.09l.27-.6c-.17-.08-.2-.21-.24-.57a1.5,1.5,0,0,0-.5-1.12.49.49,0,0,0-.48-.08c-.62.23-1.14,2.24-1.42,3.6a13.82,13.82,0,0,0-1.58-1c-.67-.33-.68-.61-.71-1a2.33,2.33,0,0,0,0-.35.42.42,0,0,0-.29-.33.57.57,0,0,0-.58.22c-.46.47-1.13,2-.37,4.35a4.49,4.49,0,0,0,.17.44,5.59,5.59,0,0,0-3,.49,4.62,4.62,0,0,1-1,.31c-.69.1-1.2-.44-1.59-.84s-.49-.51-.77-.44a.48.48,0,0,0-.32.3c-.28.7.69,2.38,1.12,3.07a4,4,0,0,0,1.07,1.09,8.14,8.14,0,0,0-1.61,1.07,8,8,0,0,0-1.32,1.36c.13-5.63.45-11.31,1.14-12.35a60.85,60.85,0,0,1,5.78-6.73,12.55,12.55,0,0,1,2.27-1c2.09-.79,4.46-1.69,5.36-4.34,1.13-3.31,0-5.88-.61-6.17l-.34-.12-.16.24a1.53,1.53,0,0,0-.14.34,3.1,3.1,0,0,1-1.89,2.05,8.16,8.16,0,0,0-2.55,2c-.21-2.36-1.35-5.37-2.42-6.27A1,1,0,0,0,63.55.69l-.1,0-.05.1a1.74,1.74,0,0,0-.08.94,2.53,2.53,0,0,1-.44,2,16.34,16.34,0,0,0-1,1.32,1.23,1.23,0,0,0-.49-.54.44.44,0,0,0-.48.09,2,2,0,0,0-.37.82,10.24,10.24,0,0,1-.92,2.17,8.33,8.33,0,0,0-3-4.81c-.87-.57-.63-1.1-.38-1.67a1.68,1.68,0,0,0,.18-.56A.5.5,0,0,0,56,0c-.57-.15-1.34.77-2.29,2.72a6.79,6.79,0,0,0-.66,3.94c-.66-.78-1.38-1.53-2-2.23C49.9,3.3,48.76,2.12,48.8,1.62a.69.69,0,0,0-.23-.69.53.53,0,0,0-.56,0,4.58,4.58,0,0,0-1.62,3.47,8.35,8.35,0,0,0,1.19,4.67l-.21,0c-.82,0-1.56-.07-2.22-.09-2-.06-3.25-.1-3.74-.74A3.48,3.48,0,0,1,40.84,7c-.07-.24-.14-.47-.39-.51a.43.43,0,0,0-.43.23A5.66,5.66,0,0,0,44.5,14a24.11,24.11,0,0,0,5.19.65c1,0,1.38,0,1.93.53,3.13,2.85,5,5.07,5.25,6.09a21.43,21.43,0,0,1-.16,4.37c-.19,2.21-.43,5-.46,8.19-.05,4.9-.06,7.8-.06,8.85a12.11,12.11,0,0,0-1.94-.27,4.14,4.14,0,0,0,.76-1.3,6.71,6.71,0,0,0-1-4.66c-.37-.36-.67-.33-.85-.25-.36.16-.5.64-.46,1.51a3.23,3.23,0,0,1-1.15,2c-.49-2.5-1.76-3.55-2.49-3.47a.51.51,0,0,0-.47.54,2,2,0,0,0,.07.38c.12.5.31,1.26-1.33,2.78l-.24.22c-.44.41-.83.77-1.18,1.12-.17-1.06-.54-3.48-.56-4.49s1-2.12,2.1-3.43c.39-.47.8-1,1.18-1.45A13.23,13.23,0,0,1,52,29.12a33.35,33.35,0,0,0,3-2.18,4.7,4.7,0,0,0,1.67-4.37c-.08-.56-.33-1.5-.67-1.66l-.21-.06-.14.06c-.2.09-.27.3-.35.59a4.07,4.07,0,0,1-.42,1c-.23.39-.68.54-1.68.84l-.82.26a3.6,3.6,0,0,0-.07-2.16c-.13-.81-1.37-2.48-2.06-2.4-.08,0-.46.08-.42.65.06.76-.92,1.82-2.39,2.59a3.63,3.63,0,0,0-1.72,2.29,12.75,12.75,0,0,0-1.09-.84l-.15-.11a1.73,1.73,0,0,1-.34-.77c0-.17-.1-.34-.16-.49a.49.49,0,0,0-.47-.32c-.28,0-.6.31-.9.74a7.58,7.58,0,0,0-1.44-.67,7.35,7.35,0,0,1-1.47-.69,1.29,1.29,0,0,1-.49-1.14,2.39,2.39,0,0,0,0-.42.41.41,0,0,0-.4-.34h0c-.62,0-1.48,1.62-1.86,3.09a3.54,3.54,0,0,0,.51,2.94h-.18c-1-.06-1.19-.42-1.32-.74a.79.79,0,0,0-.65-.59.64.64,0,0,0-.59.31,2.44,2.44,0,0,0-.24,1.36,3.06,3.06,0,0,0-1.38-.29h0a4.1,4.1,0,0,0-1.83.52,6.59,6.59,0,0,1-.93.38c-.51.15-1-.4-1.38-.76a1.4,1.4,0,0,0-.47-.38.53.53,0,0,0-.6.23c-.3.38-.54,1.41.43,2.85,1.25,1.86,5.36,2.67,7.19,2.49a2.32,2.32,0,0,1,2.46.72c.29.23.65.51,1.11.85,2.44,1.79,3.87,3.16,4.52,4.3.56,1,1,4.4,1.17,5.63l.16,0a3.59,3.59,0,0,0-.64,1.18,4.92,4.92,0,0,0-.44-1.54,8.82,8.82,0,0,0-4.5-4.15,12.35,12.35,0,0,1-1.13-.63,1.6,1.6,0,0,1-.85-1.21.56.56,0,0,0-.58-.57.92.92,0,0,0-.62.37c-.56.72-.53,2.5-.45,3.55h0c-.15-.68-.47-.86-.71-.89a.85.85,0,0,0-.81.53,6,6,0,0,0-.5,2.16A8.81,8.81,0,0,1,30.77,41a3.31,3.31,0,0,1-1.59-1.16c-.26-.31-.47-.55-.77-.58-.08,0-.36,0-.46.41-.2.87.46,5.12,3.47,6.28,1.17.45,2.29.84,3.31,1.2a25.63,25.63,0,0,1,3.74,1.49c.71.42,1.85,2.45,2.76,4.09.55,1,1.08,1.92,1.5,2.51s.8,4.82,1.18,9.64c.23,3,.51,6.47.89,10.08a12.89,12.89,0,0,1-1.24,1A32.09,32.09,0,0,1,44,69.54c.06-.31,0-.52-.2-.61-.35-.17-.66.19-1.33,1l-.39.45c-.16-.31-.39-.9-.58-1.41-.89-2.31-1.65-4.07-2.64-4.07h0a.91.91,0,0,0-.66.29c-.57.58-.83,2.1-.79,4.64a3.25,3.25,0,0,0-1.26-.55.59.59,0,0,0-.58.17c-.44.49-.15,1.8.65,4.38.11.35.21.7.29,1l-.08,0A3.42,3.42,0,0,0,34.22,74a.56.56,0,0,0-.4.28c-.51.88.65,4.39,2.83,10.15.36,1,.65,1.72.75,2.05a2.6,2.6,0,0,1,.08,1.9s-.32,0-1.15-1.09a4.79,4.79,0,0,1-.29-.46l-.17-.37h0C34.2,83.12,32.9,75.08,33,72.8c0-.86,0-1.27-.34-1.37s-.53.24-.81.76l-.12.22c.18-.63.46-1.45.67-2.09a18.06,18.06,0,0,0,.77-2.6c0-.14,0-.51-.24-.65s-.59.11-1,.48a4.51,4.51,0,0,1-.58.5,9.32,9.32,0,0,1,.22-1.31,7.28,7.28,0,0,0,.22-1.36c0-.43-.2-.6-.36-.66-.37-.14-.79.13-1.57,1a8.76,8.76,0,0,1-1.13-1.83A8.34,8.34,0,0,0,27.58,62a.56.56,0,0,0-.62-.16c-.48.19-.59,1-.68,2.78,0,.25,0,.46,0,.6l0,0a8.93,8.93,0,0,0-.79-.51.49.49,0,0,0-.52,0c-.48.3-.46,1.48-.3,4.32a28.79,28.79,0,0,1,.08,3A83.43,83.43,0,0,1,21,61c-.07-.4-.27-.51-.43-.53s-.49-.08-1.11,1a13.94,13.94,0,0,1-1.28-1.72l-.27-.4a.46.46,0,0,0-.49-.23c-.45.09-.65.8-1.11,3.16-.09.48-.21,1.08-.29,1.45-.37-.49-1-1.55-1.51-2.37-1.69-2.78-2.25-3.59-2.72-3.63a.66.66,0,0,0-.52.17,1.3,1.3,0,0,0-.2,1,4.08,4.08,0,0,1,0,.53,17.3,17.3,0,0,1-1.22-1.48,7.66,7.66,0,0,0-1.6-1.78.68.68,0,0,0-.72,0c-.33.22-.35.71-.33,1.16-.33-.17-.84-.47-1.3-.74C3.55,55.29,1.53,54.17.54,54.4a.65.65,0,0,0-.51.45c-.22.77,1,2.19,3.36,4.54L4,60H3.91a3.69,3.69,0,0,0-1,.12.42.42,0,0,0-.31.34c0,.39.37.69,2.18,1.79a16,16,0,0,1,2,1.35,8,8,0,0,1-1.26.15A5.8,5.8,0,0,0,3.93,64a.41.41,0,0,0-.26.37c0,.43.52.75,3.77,2.27a24,24,0,0,1,3.94,2.08,14.08,14.08,0,0,1-3.5.38c-.49,0-.89,0-1.1.06a.46.46,0,0,0-.46.36c-.06.35.23.68,2.08,1.65a.5.5,0,0,0-.4.36c-.08.34.28.55.42.63a30.6,30.6,0,0,0,3.28,1.17c2.7.89,8.33,2.76,8.63,3.41-.41.42-4-.59-5.3-1a11.22,11.22,0,0,0-1.91-.47h0c-.11,0-.45,0-.58.27s.08.53.32.81a3.66,3.66,0,0,1,.33.43,18.19,18.19,0,0,1-3.43.88c-.62.12-1.16.23-1.46.31a.45.45,0,0,0-.37.4c0,.43.45.69,2.5,1.6a12.63,12.63,0,0,1,2.8,1.48,1.22,1.22,0,0,1,.14.19,3.44,3.44,0,0,1-.44.14,4.74,4.74,0,0,0-1.1.4.41.41,0,0,0-.24.45c.09.45.7.63,6.11,1.22,1.5.16,3,.33,3.35.44a1.77,1.77,0,0,1,.64.37,2.8,2.8,0,0,0,1.57.65c.3.05.61.08.94.11A11.35,11.35,0,0,1,30,87.53c1.69,1.06,4.45,2.79,4.81,3.4-1,0-6.91-3.91-8-4.77-.3-.24-.52-.19-.65-.11-.34.21-.28.72-.12,1.55a12.31,12.31,0,0,1-2.13-1.69c-.11-.13-.41-.46-.75-.34s-.38.57-.4,1v.09c-.18-.09-.44-.26-.65-.39a8.15,8.15,0,0,0-1.84-.94.91.91,0,0,0-.92.09c-.26.28-.12.68,0,1.11a3.23,3.23,0,0,1,.18.65A8.44,8.44,0,0,1,17.43,87a7.62,7.62,0,0,0-2.15-.18,1,1,0,0,0-.79.49,1.05,1.05,0,0,0,.23,1l0,.05a14.52,14.52,0,0,1-2.18.22c-.54,0-1,.06-1.27.1a.41.41,0,0,0-.35.32c-.09.42.28.85,4.33,3.58l.9.61a.63.63,0,0,0-.3.47.88.88,0,0,0,.39.68c.85.71,6.87,2.49,7.56,2.69v0c.45.6,1,1.21,1.5,1.78a17.07,17.07,0,0,1,1.21,1.45c-.24-.15-.58-.41-.92-.67-.55-.42-1.24-.93-2.11-1.51a8.7,8.7,0,0,0-6-1.18h-.1c-.12,0-.49.06-.6.37s.15.61.45.93l0,0c-.33-.09-.75-.22-1.07-.32a7,7,0,0,0-1.68-.42.55.55,0,0,0-.49.25c-.12.24,0,.45.16.64a1.56,1.56,0,0,1,.27.53,12.4,12.4,0,0,1-3.18-.76l-.23-.1-.17.15c-.2.18-.16.36.11,1.11a1.9,1.9,0,0,0-1.06-.4,1.4,1.4,0,0,0-1,.51,1,1,0,0,0-.16.75L8.3,100c-.42-.14-.73-.24-.95-.06l-.16.19v.1a5.09,5.09,0,0,1-1.14.17l-.55,0a.46.46,0,0,0-.44.4c-.08.69,1.95,1.83,2.31,2l.12.05a.94.94,0,0,1-.06.23,1.4,1.4,0,0,0-.1.47.43.43,0,0,0,.21.37,4.6,4.6,0,0,0,2.21-.07,1.5,1.5,0,0,1-.2.41l-.14.23.1.19C9.83,105.28,13.41,105.15,14.2,105.11Zm38.67.94c.68.77,1.51,2,1.39,2.53a12.36,12.36,0,0,1-2,3.44,55.78,55.78,0,0,1-3.11-5.92A33.31,33.31,0,0,1,52.87,106.05Zm-4.62.13.22,0c2.93,6.18,3.48,6.58,3.76,6.58h.06c.7-.08,2.4-3.1,2.61-4s-.57-1.92-1.13-2.63c2.58.17,4.86.6,5.26,1.21a16.55,16.55,0,0,1,.52,2.95,2.54,2.54,0,0,0-2.91-1.17c-2,.75-3.63,4.73-3.59,5.51,0,.09,0,.31.09.65a65.8,65.8,0,0,1,.5,17.38c-.09.94-.14,2-.18,3C53,122,52.7,115.49,52,114.72a3.55,3.55,0,0,0-1.54-.8l.19,0h.1a.82.82,0,0,0,.61-.52c.26-.67-.15-1.76-1.18-3.16a28.44,28.44,0,0,1-2.39-4Zm-2.51.62a11.14,11.14,0,0,1,1.35-.41,28.63,28.63,0,0,0,2.53,4.23c1.29,1.76,1.14,2.42,1.09,2.53a.15.15,0,0,1-.11.11c-.65,0-5-1.42-5.44-3A5,5,0,0,1,45.74,106.8Zm-2.49-.05a3.59,3.59,0,0,1-.33.55c-.09.13-.27.39-.07.61s.43.1.87-.15c.27-.15.65-.36,1.11-.58a5.07,5.07,0,0,0-.31,3.29c.46,1.49,3.27,2.73,5,3.22a8,8,0,0,0-3.81.21c-1,.38-1.19,1-1.19,1.37a16.75,16.75,0,0,0,.38,2.94,14.9,14.9,0,0,1,.38,4.73,12.2,12.2,0,0,1-.53,2.17c-.3-.49-1-1.52-1.49-1.41a.43.43,0,0,0-.32.44,14,14,0,0,1-1,3.83,3.51,3.51,0,0,1-.17-.52c-.12-.42-.21-.79-.54-.86a.53.53,0,0,0-.53.22,14.67,14.67,0,0,1-3.18,2.85,5,5,0,0,1,.11-1.22c.13-.76.23-1.43-.06-1.77a.62.62,0,0,0-.47-.2,5.41,5.41,0,0,0-.71.06l-.13,0c.09-.28.4-.94.63-1.43.92-2,1.05-2.38.85-2.65l-.17-.18-.19,0a3.8,3.8,0,0,0-.46.1l-.26.06c.41-.75,2.34-3.32,3.11-4.34l.34-.45c.81-1.09.85-1.45.64-1.69s-.32-.23-.69,0c-.61.34-6.37,8.16-6.43,8.23a.62.62,0,0,1-.24.21.77.77,0,0,1-.27-.52.41.41,0,0,0-.25-.31c-.32-.13-.75.13-1.68.74a10.17,10.17,0,0,1-1.62,1c-.15-.28.35-1.91,1.43-4.05.13-.25.25-.47.34-.65.29-.53.43-.78.21-1s-.48-.07-.58,0-.48.31-1.16.79c-1.42,1-4.07,2.88-4.89,3l-.11,0a.44.44,0,0,0-.53-.64c-.19,0-.45.11-.73.2a7.23,7.23,0,0,1-1.16.28,2.2,2.2,0,0,1,.14-.26c.12-.2.26-.44.11-.68a.58.58,0,0,0-.58-.19c-.7.08-1.36.13-1.8.14.25-.28.43-.61.33-.87a.43.43,0,0,0-.47-.26l-.24,0c-1.22.16-2,.24-2.5.28.63-.45,1.4-1.11,1.33-1.61a.56.56,0,0,0-.47-.45,2,2,0,0,1-.49-.18c2-.38,3-.8,3-1.23a.46.46,0,0,0-.33-.48,2.76,2.76,0,0,1-1-.62s.07-.11.51-.23,1.13-.23,1.74-.32c1.44-.23,2.08-.34,2.22-.76a.49.49,0,0,0-.15-.51,4.29,4.29,0,0,0-.39-.32,4.81,4.81,0,0,1-.67-.57s.37-.35,3.09-.25,4.81.37,6.16.55c1.52.2,1.83.24,2-.08a.43.43,0,0,0-.12-.51,22.79,22.79,0,0,0-3-1.84c-1.31-.74-3.16-1.78-3.91-2.32h.17c.29,0,.59,0,.75-.26a.71.71,0,0,0-.07-.68,10.74,10.74,0,0,0-.82-1.13,13.94,13.94,0,0,1-1.27-1.81,4.81,4.81,0,0,1,1,.53c.59.36,1,.64,1.41.43a.64.64,0,0,0,.27-.64,5.7,5.7,0,0,1,0-.59c.89.94,3.37,2.66,4.15,2.66h0a.48.48,0,0,0,.49-.36c0-.14.06-.28.09-.41l0-.07,0,0,0-.07c.93,1.16,4.43,4.92,7.48,6.17a9.24,9.24,0,0,0,2.44.66,25.48,25.48,0,0,1-3.1,1c-.25-.62-2.06-2.26-11.63-7.86l-.33.57c5.18,3,10.7,6.55,11.29,7.39l-.07.07a51.45,51.45,0,0,1-5.84,1c-.69-.51-3.34-1-5.55-1.33l-.1.65c1.57.23,3.31.57,4.35.84-1.2.17-2.33.38-3.4.61-.75-1-4.63-.77-6.35-.59l.07.66a16.23,16.23,0,0,1,5.49.11,40.84,40.84,0,0,0-8.75,3l.31.58a40.22,40.22,0,0,1,8.64-3,14.55,14.55,0,0,1-2.71,3.83l.48.45c.49-.53,2.72-3,2.93-4.44,1.17-.25,2.43-.48,3.76-.66A16.94,16.94,0,0,1,30,119l.34.57c.47-.28,2.7-1.67,3.22-2.61,1.85-.21,3.42-.47,4.76-.74-.71.6-1.63,1.35-2.44,2-3.83,3.11-4.66,3.87-4.69,4.31l.65.1a40.46,40.46,0,0,1,4.46-3.89c1.77-1.44,2.82-2.3,3.34-2.81a26.66,26.66,0,0,0,3.94-1.22,25.2,25.2,0,0,0-2.92,5.65c-1.9,4.9-1.82,5.94-1.78,6.09l.65-.12s-.08-1,1.75-5.73c1.9-4.9,3.78-6.62,3.79-6.63l0,0a1.16,1.16,0,0,0,.4-.32.62.62,0,0,0,0-.8c-.24-.27-1-.49-2.82-1a21.6,21.6,0,0,1-4.77-1.7l-.92-.63c.48.07,1.6-.37,5.09-2.1l0,0,0,.18.06-.21Zm-16.1,2.31h0Zm1.68-3.94A31,31,0,0,1,32.55,107l-.07.31-.05.24A13.4,13.4,0,0,1,28.83,105.12Zm15.85,8.26c-.58.26-1.87.27-3.72-.48a14.06,14.06,0,0,1-3.38-2.17,23.34,23.34,0,0,0,4.83,1.7,22.26,22.26,0,0,1,2.5.78S44.84,113.31,44.68,113.38ZM42,106.65l-.27.13c-1.1.55-3.16,1.57-4.17,1.92a16.29,16.29,0,0,1,4.39-2.54Zm-6.44-4.09a42.19,42.19,0,0,0,3.85,4.09l-.76.45C38.11,106.83,36.71,105.38,35.51,102.56Zm1.27-1.85-.3-.47a13.22,13.22,0,0,1-1.6-2.94,1.92,1.92,0,0,1,.84.38.47.47,0,0,0,.52.11.44.44,0,0,0,.21-.43c0-.11,0-.44-.11-.87s-.11-.74-.16-1.19c.74,1.16,2.85,4.5,4.08,6.57a12.48,12.48,0,0,1,1.56,3.63c-.66.26-1.28.55-1.84.84a33,33,0,0,1-4.49-4.94,2.47,2.47,0,0,1,.73,0c.21,0,.46.06.6-.15A.51.51,0,0,0,36.78,100.71Zm-.71-6.55.31.35,0,0-.3.19C36.09,94.52,36.08,94.32,36.07,94.16Zm5.37,5.72a.45.45,0,0,0,.47-.14,5.54,5.54,0,0,0,.67-1.17,9.21,9.21,0,0,1,.58-1.06,52.63,52.63,0,0,1,2,7,20.51,20.51,0,0,0-2.48.7,13.66,13.66,0,0,0,.48-4.27l-.65.1a11.35,11.35,0,0,1-.32,3.4,15.57,15.57,0,0,0-1.37-2.86c-1.25-2.1-3.41-5.51-4.12-6.63.4.45.68.68,1,.6A.48.48,0,0,0,38,95.1a2.47,2.47,0,0,1,.31-.73c.16.74.58,2.37,1.18,2.45a.48.48,0,0,0,.5-.32l.1-.2.16-.33c.05.23.11.59.18,1C40.83,99.06,41,99.75,41.44,99.88Zm5.14-25.06c-.09.73-.15,1.3-.18,1.77-.09-.58-.17-1.15-.25-1.72.16-.29.35-.59.51-.82C46.65,74.28,46.61,74.55,46.58,74.82Zm.11,3.3a.51.51,0,0,0,.51.07c.15-.06.33-.15.51-.24a2.8,2.8,0,0,1,.79-.32s.13.2-.17,1.22a16.67,16.67,0,0,1-1,2.68q-.36-1.73-.66-3.46Zm12.57,26.58c-1-.28-3-2.21-5-5.1,1.71,1.89,3.3,3.47,3.88,3.47h0a.44.44,0,0,0,.33-.21c.29-.47-.13-1.71-1.51-5.45-.79-2.14-1.68-4.57-2.33-6.81-1.37-4.75-2.36-19-2.55-21.89l.48.21c.12,1.2,1.85,18.89,3.54,24.52s3.74,10.61,3.76,10.66h0a1.85,1.85,0,0,1-.41.6C59.46,104.76,59.31,104.73,59.25,104.71ZM55.1,95.33a9.85,9.85,0,0,0-3.16-5.53l-.09-.09.53.18a.52.52,0,0,0,.64-.17c.54-.77-1.41-3.65-2.13-4.6a3.45,3.45,0,0,1-.66-3.22c0-.12.05-.23.07-.33a4.18,4.18,0,0,0,1.25.31c.35,0,.74,0,.89-.26s-.07-.59-.38-1c-.12-.16-.27-.34-.41-.55-.27-.4.16-1.25.61-1.88a87.34,87.34,0,0,0,1.83,12.57c.65,2.26,1.55,4.7,2.34,6.85A39.41,39.41,0,0,1,58,102.31a21.64,21.64,0,0,1-2.51-2.44A19.23,19.23,0,0,0,55.1,95.33Zm3-12.62c.29,1.91.6,4,1,6.3,1.19,7.32,1.56,11.79,1.12,14.09-.63-1.58-2.12-5.48-3.43-9.84-1.55-5.17-3.2-21.19-3.48-24,.58.27,1.08.52,1.43.73C56.36,70.93,57.07,75.61,58.13,82.71ZM49,57.48A47.89,47.89,0,0,0,54.23,68c-.57-.31-1.41-.81-2.33-1.36l-.81-.48A13.23,13.23,0,0,1,48.29,64c-.3-.3-.47-.47-.72-.36a.46.46,0,0,0-.25.45c0,.66-.85.86-1.34.92a.4.4,0,0,0-.4.34c-.06.42.23.62,4.42,2.43l1.47.64c.06.89.3,4.6.69,8.85-.23.26-1.81,2.12-1.07,3.21.15.22.31.42.44.58l.15.19h-.09a3.65,3.65,0,0,1-1.11-.29c-.27-.11-.51-.2-.71,0a.45.45,0,0,0-.12.47,1.94,1.94,0,0,1-.07.38,4.08,4.08,0,0,0,.78,3.76,12.35,12.35,0,0,1,2.09,3.7L52,89c-.63-.23-1-.36-1.18-.07s.05.59.17.74a7.2,7.2,0,0,0,.53.56,9.26,9.26,0,0,1,3,5.16,24.53,24.53,0,0,1,.36,3.74c-.74-.82-1.52-1.7-2.26-2.58l-.08.07a36.78,36.78,0,0,1-3.16-7.29c-.68-2.24-1.28-4.53-1.79-6.84A13.46,13.46,0,0,0,49,79c.31-1.06.3-1.63,0-1.91s-1,0-1.51.23l-.34.16a12.66,12.66,0,0,1,.16-2.62,8.36,8.36,0,0,0,.12-1.48A.44.44,0,0,0,47,73c-.14,0-.39-.06-1,.83A74.73,74.73,0,0,1,45.41,63c.14-5.94-.21-6.58-.41-7a.39.39,0,0,1-.06-.26A15.46,15.46,0,0,1,47,52.66,31.4,31.4,0,0,1,49,57.48ZM53.64,43.1a2.76,2.76,0,0,1,.36,0h.12a15.31,15.31,0,0,1,3.28.59,5.68,5.68,0,0,0,3.3.27,4.3,4.3,0,0,0,1.3-.75,2.56,2.56,0,0,1-.19,1.75A3.55,3.55,0,0,1,59,46.48c-.79.12-1.54.19-2.27.23-.19-.8-.39-1-.65-.93s-.38,0-.45,1c-1,0-1.91,0-2.63,0-1.48,0-2,0-2.19.23,0,0-1.07,1.26-2.32,2.79a19.55,19.55,0,0,0,2.24-3.23,6.23,6.23,0,0,1,.64-1.74A11.52,11.52,0,0,0,53.64,43.1Zm4.48-1.64a5.07,5.07,0,0,0,1.37-2.32c.47-1.76,1.21-3.58,3.19-3.78,2.57-.26,3.85-.43,4.42-.88a3.11,3.11,0,0,0,.66-.83h0a3.48,3.48,0,0,1-1.37,3.91,10.51,10.51,0,0,1-4.06,1.73,8.75,8.75,0,0,0-2.93,1.14,9.31,9.31,0,0,0-1.27,1.07Zm-8,5a32.51,32.51,0,0,1-2.53,3.47c0-.18-.08-.4-.12-.68h.07a5.44,5.44,0,0,1,2.9-3.89A5.65,5.65,0,0,0,50.08,46.42Zm-3.61.09c0,.42.08,1.06.18,1.91A14.1,14.1,0,0,0,47,50.56c-.63.81-1.32,1.66-2,2.5A35.34,35.34,0,0,1,46.47,46.51Zm1.46,5.12h-.09l.07-.09H48A.19.19,0,0,1,47.93,51.64Zm.31-.5c1.32-1.66,2.62-3.23,3-3.69a5.22,5.22,0,0,1,1.25-.05c-.46.76-.71,2.31-.73,4.64,0,3.9-.22,6.2-.35,7.39-.48-1.2-.94-2.46-1.33-3.73C49.12,52.51,48.59,51.47,48.24,51.13Zm3.67,9.46h0A51.53,51.53,0,0,0,52.44,52c0-4.34.83-4.54.84-4.54h-.05l0-.07.81,0c-.79,1-1.24,3.67-1.33,7.88-.08,3.53-.07,5.7,0,7.05Q52.31,61.52,51.92,60.6Zm3.73-9.31c.05,1.47.11,2.91.16,4.3.21,5.39.43,11,0,11.81a12.23,12.23,0,0,1-2.32-3.52,75.4,75.4,0,0,1-.07-8.55c.13-6,1-7.37,1.35-7.66a.24.24,0,0,1,.16-.07l.06-.16h.63C55.57,48.23,55.58,49.44,55.64,51.29Zm13.55,13.6a.48.48,0,0,0,.52-.11,13.13,13.13,0,0,0,1-1c.38-.44,1-1.13,1.43-1.56l-.1.41c-.21.8-.3,1.19-.12,1.44l.16.16h.16a.78.78,0,0,0,.29-.06c-.11.25-.27.58-.4.85-.66,1.35-.9,1.93-.65,2.28a.47.47,0,0,0,.46.19,4.08,4.08,0,0,0,.65-.14c-.2.37-.61,1-1,1.6-1.45,2.35-1.66,2.78-1.49,3.08l.14.19h.2a3.23,3.23,0,0,0,1.14-.46l.52-.26c-.25.42-.68,1.07-1,1.62-2,3-2.57,4.06-2.27,4.55a.46.46,0,0,0,.41.22h.08a13.18,13.18,0,0,0,3.13-1.11v0a2.49,2.49,0,0,0-.94.92c-1.24,2.06-1,3.17-.81,3.66a2.72,2.72,0,0,0-.46,1.15c-.05.2-.13.49-.2.69-.09-.17-.18-.34-.26-.52-.28-.57-.54-1.11-1-1.22a.79.79,0,0,0-.68.18,10,10,0,0,1-2.39,1.26c.17-.4.51-1.1.85-1.78,1.27-2.58,1.28-2.71,1-2.94L67.28,78l-.21.14a20.17,20.17,0,0,1-4,1.14l.12-.17c.29-.43.53-.77.35-1.08a.58.58,0,0,0-.59-.24c-.88.06-1.68.1-2.25.11.75-.61,1.54-1.6,1.46-2.06a.38.38,0,0,0-.39-.34,4.51,4.51,0,0,1-.76-.72,6.85,6.85,0,0,0-1.57-1.38c.37-.15.78-.29,1.08-.38l.24.51c.47,1,.76,1.62,1.18,1.71l.21,0,.12-.08c.32-.22.45-.91.72-2.84a15.84,15.84,0,0,1,.77-3.66c.12.21.28.56.38.79.33.74.47,1,.78,1l.25,0,.08-.2a1.69,1.69,0,0,0,.09-.58,7.73,7.73,0,0,1,.48-2.42,10.7,10.7,0,0,0,.37-1.29l0,0c.36.63.58,1,.9,1a.42.42,0,0,0,.36-.13,4.72,4.72,0,0,0,.52-1,16.87,16.87,0,0,1,1-2,2.16,2.16,0,0,1,0,.39C69,64.5,69,64.76,69.19,64.88Zm2,15.71A4.54,4.54,0,0,1,72,78l0,0C71.77,78.86,71.48,79.73,71.17,80.59ZM59.45,72.65a1.66,1.66,0,0,1,.42-.7,1.14,1.14,0,0,1,.35.45Zm3.29,23.43c-1-.51-2.48-10.68-3.37-16.75l-.54-3.65-.12-.82h0c.07-.33.16-.66.25-1a5.8,5.8,0,0,1,1.5,1.3,4.54,4.54,0,0,0,.91.85,4.84,4.84,0,0,1-1.72,1.68c-.35.13-.39.33-.36.47.06.3.1.46,3.46.24l-.19.28a6.19,6.19,0,0,0-.35.56.41.41,0,0,0,.07.51c.47.43,3.18-.41,4.44-.86-.23.52-.6,1.29-.89,1.86-.43.88-.84,1.7-1,2.06a.5.5,0,0,0,.15.61c.69.49,3.31-1.31,3.33-1.33a.25.25,0,0,1,.13-.06c.16,0,.4.54.56.87a7.46,7.46,0,0,0,.41.77.64.64,0,0,0,.31.27C66.94,90.79,63.41,95.75,62.74,96.07Zm11-19.63a2.67,2.67,0,0,0-.59.05,40.22,40.22,0,0,0,1.42-8.61c.07-1.29.19-2.22.33-3.4s.31-2.51.49-4.62c.24,5.34.34,10.83-1.18,16.65A3.84,3.84,0,0,0,73.7,76.44Zm6.68-11.78A5.53,5.53,0,0,1,79,68.87c-2.1,2.59-2.56,4.55-1.75,7.5A5.9,5.9,0,0,0,78.54,79a9.86,9.86,0,0,0-3.73-2.31c1.6-6.08,1.43-11.79,1.17-17.34v0A15.1,15.1,0,0,0,78.36,62a14.18,14.18,0,0,1,2,2.26h0A1.41,1.41,0,0,0,80.38,64.66ZM81.56,79c-.51-.52.48-6,2.69-9.19a3.67,3.67,0,0,1,3-1.91,26.32,26.32,0,0,1-.48,5.42C86.23,76.79,82.38,79.12,81.56,79Zm-1.9-.47-.08.25a.22.22,0,0,1-.15,0c-.42-.15-1-.91-1.5-2.59-.76-2.77-.37-4.45,1.63-6.91a6.34,6.34,0,0,0,1.52-3.8,9.71,9.71,0,0,1,.44,1.13C82.2,68.82,81.55,73.06,79.66,78.55Zm-4.56-25v.15l-.38-.89a14.75,14.75,0,0,1-.89-2.37,6.22,6.22,0,0,1,1.24,1c0,.22,0,.42,0,.65C75.07,52.53,75.09,53,75.1,53.5Zm-.11,2c0,.32,0,.63-.06.93-.38-.62-.71-1.17-.9-1.54l.31.26A1.1,1.1,0,0,0,75,55.51ZM72.38,83.29a37.17,37.17,0,0,0,2.26-6,8.94,8.94,0,0,1,4.22,3.09c.12.22.12.22-.17.51-.83.84-2.56,2.58-2.06,11.74a5.78,5.78,0,0,1-1.57.7l.15-.23a1.59,1.59,0,0,0,.4-1,.42.42,0,0,0-.23-.3c-.3-.15-.78,0-2.08.69.85-1,1.81-2.06,2.12-2.39.15-.16.39-.4.22-.66s-.44-.15-.8,0a5.48,5.48,0,0,1-.89.29,7.23,7.23,0,0,1,.31-.71c.29-.62.5-1.07.29-1.37a.44.44,0,0,0-.29-.18c.06-.17.19-.41.28-.59A4.16,4.16,0,0,0,75,85.47a.55.55,0,0,0-.2-.48c-.54-.44-2.35,0-3.4.24C71.73,84.61,72,84,72.38,83.29Zm-7.15,12.6a89,89,0,0,0,6-10.17l.07.24a9,9,0,0,1,3.11-.49,4.59,4.59,0,0,1-.44,1c-.31.6-.53,1-.31,1.34a.47.47,0,0,0,.3.19c-.06.18-.19.44-.27.62-.3.64-.54,1.15-.31,1.48a.52.52,0,0,0,.51.19,3.12,3.12,0,0,0,.48-.1c-.78.87-2,2.25-2.61,3-1,.53-2.26,1.13-3.58,1.71a12.26,12.26,0,0,0-4.75,4A26,26,0,0,1,65.23,95.89Zm8.37,13.4a1.91,1.91,0,0,1-.56.3l-.2.08a.44.44,0,0,0-.29.4c0,.36.4.53,1.13.85a7.67,7.67,0,0,1,1,.47l-.45,0a.49.49,0,0,0-.5.29c-.16.4.28.85,1.13,1.67a8.73,8.73,0,0,1,.66.68,1.11,1.11,0,0,1,.27,1c-.1.2-.45.29-.92.3a18,18,0,0,1-4.87-.91.6.6,0,0,0-.68.11c-.32.36-.06,1,.41,2.08l.13.29a13.32,13.32,0,0,1-2.58-1.35.57.57,0,0,0-.57-.14c-.24.11-.26.36-.28.57,0,.39-.08.49-.29.52-.44.07-2.24-1.43-3.74-2.95-.1-1.55-.17-3-.19-4.45a5.27,5.27,0,0,1,.75-.74,7,7,0,0,1,.58-.43c2.39-1.26,9.42.7,10,1.23C73.57,109.24,73.59,109.28,73.6,109.29Zm5.18-13.56c-.58.3-.84.44-.77.75,0,.1.1.28.41.31l.35,0c-.88.37-2.21,1-2.24,1.55a.45.45,0,0,0,.3.44,2.15,2.15,0,0,0,.73.14h.17a1.69,1.69,0,0,1-.1.24c-.35.73-4.71,2.09-7.59,2.75l-.37.08c-1.49.34-1.68.39-1.68.74s.33.4.79.49a17.06,17.06,0,0,0,3.64-.33l.6-.09c-.3.18-.43.34-.37.57s.51.32.79.31.76-.06,1.11-.1a4.4,4.4,0,0,1,2,0,6.27,6.27,0,0,1,1.3.68,3,3,0,0,1-1.26.51A5,5,0,0,1,75,105c-.26,0-.47,0-.61.15a.4.4,0,0,0,0,.41,1.4,1.4,0,0,0,.18.29l.09.13-.23.07a7,7,0,0,1-1.48,0c-.75,0-1.09,0-1.23.25a.4.4,0,0,0,.08.45,2.27,2.27,0,0,0,.53.38l.35.22a3.29,3.29,0,0,1-.43.09,5.36,5.36,0,0,1-2.8-.38,23,23,0,0,0-2.28-.64,5.3,5.3,0,0,0-3.94,1c-.07,0-.16.07-.23.12l0,0a7.64,7.64,0,0,0-.71.56l-.08.07c0-.73,0-1.43,0-2.1l.17.09s.83-1.41,4.3-4.39l.3-.28,0,0c3.16-3.3,9.87-6.44,9.93-6.47l-.28-.6a51.67,51.67,0,0,0-7.32,4.25A10.5,10.5,0,0,0,70.9,95l-.65-.1a11.77,11.77,0,0,1-4,6.33,30.94,30.94,0,0,0-4,3.95,30.11,30.11,0,0,1,.43-3.92C63,100.57,65,97,68.4,95.55c1.18-.51,2.27-1,3.23-1.53l.16.14.34-.39.62-.32c.8-.41,1.62-.83,2.08-1l-.18.29c-.25.38-.48.74-.28,1s.6.23.75.2a6.54,6.54,0,0,0,2-.86l.28-.16a.36.36,0,0,0,0,.3.53.53,0,0,0,.54.21,7.55,7.55,0,0,0,1.3-.31l.34-.09.18.38c-.58.6-.82.9-.71,1.2a.42.42,0,0,0,.39.26,2.57,2.57,0,0,0,.55-.05l.15,0A4.27,4.27,0,0,1,78.78,95.73Zm1.17-1.55.1-.11.05.09Zm.34-1.31-.06.06,0,0Zm.56-12.19c-.07.18-.2.42-.35.71-1,1.9-3.13,6-1.18,11.05l-.27.07-.82.22a.77.77,0,0,0,0-.3l-.06-.25L78,92.12c-.2-.1-.42,0-.76.14-.42-8.58,1.19-10.22,1.88-10.92a.93.93,0,0,0,.28-1.29,4.89,4.89,0,0,0-.83-1,1.39,1.39,0,0,0,.9.44A.7.7,0,0,0,80.2,79l.08-.24q.35-1,.64-2a5.09,5.09,0,0,0,0,2.42.64.64,0,0,0,.5.42h.13l.23,0A2.94,2.94,0,0,0,80.85,80.68ZM106.19,65.9a.56.56,0,0,0,.59.18,18.22,18.22,0,0,1,2.64-.12l-.55.45c-1.6,1.3-1.85,1.56-1.81,1.87l0,.21.17.07.25.1c.18.07.58.23.82.35l-.34.31-.95.86a4.14,4.14,0,0,1-2,.81c-.36.06-.62.11-.64.41s.29.39.45.43a4.19,4.19,0,0,0,1.06.13,2.33,2.33,0,0,1,1.57.43c.41.33.76.56,1,.73h0a6.6,6.6,0,0,1-4,1.31c-.84,0-1.79-.14-2.63-.23-2.27-.24-3-.28-3.3.11a.49.49,0,0,0,0,.51,8.21,8.21,0,0,0,2.67,1.81l.79.44c-.2,0-.36.12-.4.33s.21.43.3.48a2.74,2.74,0,0,0,.56.22,2.35,2.35,0,0,1,1.41.91,14,14,0,0,0,.91,1.09c.18.2.4.45.51.6a5.67,5.67,0,0,1-2.15.31,2.32,2.32,0,0,1-1.1-.48c-.24-.16-.44-.3-.67-.17a.41.41,0,0,0-.19.43,2.87,2.87,0,0,0,.1.46,2.06,2.06,0,0,1,.12.66.37.37,0,0,1-.2,0A8.68,8.68,0,0,1,99,80.66c-1-.73-1.36-.93-1.65-.82a.41.41,0,0,0-.24.33c0,.17-.11.52-.23.59a.26.26,0,0,1-.18,0,2.55,2.55,0,0,1-.59-.45,13,13,0,0,0-4.49-2.69c-2-.79-4.86-.31-7.12.58.23-.19.46-.39.68-.62a.58.58,0,0,0,.49.06,4.83,4.83,0,0,0,1.12-.53c1.41-.79,3.76-2.11,6.3-1.35a42.54,42.54,0,0,1,5.7,2.35,5.93,5.93,0,0,0,1.56.64.29.29,0,0,0,.24-.14l.14-.27-.17-.2a10.17,10.17,0,0,0-2.39-1.24c-1.34-.61-4-1.85-4.48-2.39.55-.37,2.87-1.54,5.13-2.68,7.29-3.69,9.1-4.71,9.22-5.22l0-.19-.26-.35-.25.14c-3.82,2.06-10,5.25-11.36,5.69a10.31,10.31,0,0,1,.77-1.37c.44-.7.58-.91.35-1.14a.38.38,0,0,0-.51,0c-.17.11-.53.42-1.06.89a36.84,36.84,0,0,1-6.11,4.6c-1.43.75-2.63,1.31-3.43,1.68l-.2.09a7.08,7.08,0,0,0,1.44-3.19A28.24,28.24,0,0,0,87.92,68a5.9,5.9,0,0,1,1,.3,3.27,3.27,0,0,0,.39.13c.16,0,.45.1.62-.12a.51.51,0,0,0,0-.58l0-.09c.27.09.64.25.89.37a6.29,6.29,0,0,0,1.21.45.66.66,0,0,0,.65-.16c.16-.22.06-.46,0-.68.28.07.66.19,1,.28a8.61,8.61,0,0,0,1.27.35l.28,0c.54.07.93.13,1.15-.15a.5.5,0,0,0,.1-.34c.28,0,.73.15,1.05.22a5.48,5.48,0,0,0,1.87.27c.15,0,.45-.09.5-.38s-.21-.41-.42-.53a2.07,2.07,0,0,1-.38-.24,17.25,17.25,0,0,1,2.82-.82h.06a.46.46,0,0,0,.11.48l.2.15.2-.08c.09,0,.41-.22.84-.46.77-.44,2.6-1.48,3.44-1.81l-.18.33C106.17,65.29,106,65.62,106.19,65.9ZM95.5,72.24a.48.48,0,0,0,.27.31l.08,0a22.9,22.9,0,0,0-2.7,1.49.51.51,0,0,0-.17.46,1.11,1.11,0,0,0,.47.63l-.18-.06a6,6,0,0,0-1.75-.25c-.22,0-.43,0-.64,0a42.07,42.07,0,0,0,5-3.89C95.57,71.54,95.41,71.95,95.5,72.24Zm7.11-9a6.28,6.28,0,0,1-.36,1.51c-.19-.1-.4-.23-.65-.4a3.68,3.68,0,0,0-.5-.27A4.87,4.87,0,0,1,102.61,63.27ZM76.78,52.52a.54.54,0,0,0,.39-.3,6.07,6.07,0,0,0,.22-2,6.24,6.24,0,0,1,.29-2.34,1,1,0,0,1,.12.33c0,.18.11.43.38.46a.44.44,0,0,0,.43-.31A9.67,9.67,0,0,0,79,47.13a18.54,18.54,0,0,1,.76-2.3c.17.36.39.95.61,1.51.86,2.22,1,2.53,1.39,2.53l.28,0,.08-.21a10.61,10.61,0,0,1,1-1.69c1,1.45.94,4.83.87,7.56-.06,2.45-.07,3.75.42,4.17a.59.59,0,0,0,.5.14c1-.19,1.32-3,1.1-11.2,0-.78,0-1.43,0-1.76a.56.56,0,0,0,.53.21.48.48,0,0,0,.35-.37,11.87,11.87,0,0,0,0-2.47c0-.43-.05-1-.07-1.43l.06.18c.17.51.25.76.55.76h0c.13,0,.3-.06.39-.34.3-.94,1.76-4.52,2.4-5.12v.06a29.91,29.91,0,0,1,.32,3.47c.18,3.12.32,4.52.82,4.87a.49.49,0,0,0,.44.07c.6-.19.92-1.35,1.46-4.06.07-.37.15-.78.23-1.11.11.22.23.4.47.41s.33-.1.45-.31a7.18,7.18,0,0,0,.38-1.24c.06-.25.15-.57.23-.86a.56.56,0,0,0,.28.45.58.58,0,0,0,.55-.07c.27-.15.46-.61.8-1.49a9.88,9.88,0,0,1,.59-1.32,5.17,5.17,0,0,1,.28,1.32c.08.63.13,1,.46,1.1a.48.48,0,0,0,.52-.22c.26-.33.85-1,1.36-1.46a.38.38,0,0,0,.07.41.41.41,0,0,0,.5.06,4.52,4.52,0,0,0,.9-.77,14.85,14.85,0,0,1,1.22-1.09,5.17,5.17,0,0,1-.37,1c-.23.51-.4.87-.23,1.18a.53.53,0,0,0,.42.27,4,4,0,0,1,.7.15l-.35.18c-.63.31-1,.52-1,.89a.45.45,0,0,0,.37.39,6.83,6.83,0,0,0,.82.15c.2,0,.49.07.7.12-.2.15-.49.35-.72.51-1.23.84-1.65,1.17-1.56,1.55a.43.43,0,0,0,.4.33c.17,0,.39,0,.63.05a5.43,5.43,0,0,1,1.16.15l0,0a21.28,21.28,0,0,1-1.84,1.49c-3.18,2.44-4,3.23-3.63,3.8s1.33.15,2.72-.5l.12-.06c-.15.24-.23.46-.09.66a.48.48,0,0,0,.55.15,17.93,17.93,0,0,1,2-.35l-.26.22c-.73.63-1.14,1-1.06,1.39a.46.46,0,0,0,.27.33l-.18.06c-.91.27-1.29.39-1.29.74a.4.4,0,0,0,.31.39,5.59,5.59,0,0,0,.64.15h0l-.76.26c-1.69.56-2.06.71-2.06,1.08a.4.4,0,0,0,.31.38c.17.05.37.1.56.14l.08,0-.36.14c-1.51.58-5,1.94-7.29,4.25-1.77,1.82-2.47,3-2.09,3.63.09.14.37.43,1.07.17a4.42,4.42,0,0,0,1.41-1.35c1-1.17,2.27-2.77,4.18-3.08l2.19-.36.32-.05c-1.17,1.42-1.5,2-1.34,2.41a.49.49,0,0,0,.43.29,9.34,9.34,0,0,0,2-.29l.24,0a.42.42,0,0,0,0,.28c.08.33.48.4.66.43a7.72,7.72,0,0,0,1.35,0c.31,0,.74,0,1,0a11.43,11.43,0,0,1-1.3.88c-1,.64-1.38.87-1.33,1.23a.42.42,0,0,0,.33.34,4.45,4.45,0,0,0,.71.1l.4,0a16.92,16.92,0,0,1-1.93.6c-1.88.51-2.5.72-2.55,1.16a.46.46,0,0,0,.28.47,3.21,3.21,0,0,0,1.35.32,3.35,3.35,0,0,1,1.76.53c.33.22.59.37.81.49l0,.13-.42.1c-2.69.64-3.51.93-3.38,1.51a.82.82,0,0,0,.22.39l-.92-.21c-1.12-.27-1.59-.36-1.83-.09a.42.42,0,0,0-.08.39l-.46-.05-.29,0a8.54,8.54,0,0,1-1.16-.32c-1.08-.34-1.57-.49-1.83-.23a.42.42,0,0,0-.1.42,2.19,2.19,0,0,0,.12.3c-.23-.07-.58-.22-.89-.36-1-.42-1.45-.62-1.75-.4a.43.43,0,0,0-.17.41,1.33,1.33,0,0,0,.06.27c-.92-.35-3.35-1.24-5.43,1.8a16.83,16.83,0,0,0-1.84,3.77c.64-3,.74-5.31.26-6.8a10.86,10.86,0,0,0-3.31-4.86,14.62,14.62,0,0,1-2.29-2.63l-.6-.93c-.07-1.48-.13-3-.17-4.49,0-.43,0-.88.06-1.35v-.07C76.21,52.39,76.51,52.57,76.78,52.52Zm5.9-19.62c.26-.39.55-.83.83-1.34a8,8,0,0,1,1.81-2l-.9,1.14C83.83,31.49,83.19,32.3,82.69,32.9Zm7.82-7.68a5,5,0,0,0,3.34-1.37,1.75,1.75,0,0,0,.23-.35,2.83,2.83,0,0,1-.1,2.05c-1.79,3.52-5.2,4.33-7.23,4.82a5.84,5.84,0,0,0-1.6.52C87,28.56,89.58,25.29,90.51,25.22Zm-8.85-3.09C82.71,21,83.35,20.31,83,19.4c-.06-.14-.07-.22-.08-.24a.71.71,0,0,1,.54.31l.11.19a4,4,0,0,1,.05,4.19A31,31,0,0,1,81.86,27,18.7,18.7,0,0,0,80,30.74l-.1.31-.25.76a4.35,4.35,0,0,0,0-2.33A4.33,4.33,0,0,1,80,24C80.61,23.25,81.19,22.63,81.65,22.13Zm.58,7.72c.25,1.23-1.87,4.3-2.83,5.17a31.12,31.12,0,0,1,1.1-3.77l.1-.31a16,16,0,0,1,1.55-3.13A6.22,6.22,0,0,0,82.23,29.86ZM78,20.56c0-.4-.09-.79-.1-1l.12.06c.55.28,1.66,2.81,1.68,3.32l.34,0-.59.7A5,5,0,0,0,79,29.83c.35.54-.55,4.57-1.57,8l.63.19c.16-.52.42-1.42.69-2.44a.46.46,0,0,0,.14.18.49.49,0,0,0,.61,0c.84-.5,3.69-4.31,3.34-6-.08-.37-.67-3.7,2.17-4.82.54-.21,1-.38,1.43-.52,1.57-.54,2.52-.87,2.34-2.38a4.17,4.17,0,0,1,0-.91,3.87,3.87,0,0,1,0,4.38,18.41,18.41,0,0,1-3,2.93,11.56,11.56,0,0,0-2.78,2.84,19.43,19.43,0,0,1-1.06,1.67c-.53.77-.75,1.09-.54,1.39a.54.54,0,0,0,.59.15A34.7,34.7,0,0,0,78.46,39a4.69,4.69,0,0,1-.49.74,12,12,0,0,0-1.06,1.64L77,41c.23-1.25.32-1.76,0-2.29a10.53,10.53,0,0,0-1.18-1.47.25.25,0,0,0,.15,0l.27-.17,0-.27a2.85,2.85,0,0,0-.32-.72h0a.44.44,0,0,0,.35-.37A4.26,4.26,0,0,0,76,34.1h.19c0,1.57.24,1.78.35,1.88a.46.46,0,0,0,.32.13h.05a.61.61,0,0,0,.44-.31c.56-.87.58-4.27.26-5.3a7.73,7.73,0,0,1-.3-1h-.24l0-.27c.06-.66.12-1.29.17-1.82a7.81,7.81,0,0,0-.9-4.29C76.92,22.75,78.16,21.84,78,20.56ZM73.56,32.05a4.61,4.61,0,0,1-.66-1.17c.26.17.64.44,1.14.82A6,6,0,0,1,75.52,35c-.19-.27-.42-.62-.63-1C74.53,33.48,74.07,32.77,73.56,32.05Zm1.2,3.54a38,38,0,0,1-2.87-3.31l.2.09A15.11,15.11,0,0,1,74.76,35.59Zm2.18-.34A21.49,21.49,0,0,1,77,30.69,12.47,12.47,0,0,1,76.94,35.25ZM74.47,21.4a8.11,8.11,0,0,1,2.16,5.89c-.06.54-.12,1.17-.18,1.83,0,.26,0,.49-.06.74a20.68,20.68,0,0,1-1.91-3.72c-1.37-3.26-.62-5.28-.48-5.61A1.49,1.49,0,0,0,74.47,21.4ZM73.7,20a1.35,1.35,0,0,1,.4-.24l0,.1a1.93,1.93,0,0,0-.08.63l-.52-.27A2.36,2.36,0,0,1,73.7,20Zm-.32.33c-.22.53-.93,2.69.5,6.09a15.17,15.17,0,0,0,2.44,4.44c-.07,1-.11,1.89-.12,2.54-.13-1-.44-2.66-1.13-3.3l-.22-.19c-.93-.83-2.49-2.21-2.44-6A5.7,5.7,0,0,1,73.38,20.31Zm1,10.07.21.19a3.88,3.88,0,0,1,.74,1.82,3.57,3.57,0,0,0-.92-1.21c-.88-.66-1.39-1-1.57-1.09v0a3.17,3.17,0,0,0,0-1.41c0-.05,0-.11-.05-.16A7.47,7.47,0,0,0,74.41,30.38ZM66,22.83A1.58,1.58,0,0,0,67.1,24.1c1.1.54,4.78,3.26,5.1,4.71a2.53,2.53,0,0,1,0,1.15A2.47,2.47,0,0,0,72.75,32a1.69,1.69,0,0,0-.39-.28c-.27-.12-.66-.31-1.1-.55l-.15-.3a6.06,6.06,0,0,0-3.72-3.55,8.4,8.4,0,0,0-1-.33,4.27,4.27,0,0,1-.36-.8A4.56,4.56,0,0,1,66,22.83Zm4.18,7.77A13.88,13.88,0,0,1,67,27.92l.13.05A5.27,5.27,0,0,1,70.22,30.6Zm-9.61-1.19a8.56,8.56,0,0,1-1-2.08,2.46,2.46,0,0,0,2.12,1,5.16,5.16,0,0,0,1.1-.35A4.82,4.82,0,0,1,66,27.6a11.69,11.69,0,0,0,3.29,3.15,12.5,12.5,0,0,1-2.64-.11,8.08,8.08,0,0,1-3.79-1.41l-.43.5a8.54,8.54,0,0,0,4.12,1.56,14.24,14.24,0,0,0,2,.15,9.94,9.94,0,0,0,1.6-.12l.61.36c.1.2.21.4.33.59s.48.65,1,1.32l0,0a5,5,0,0,0-4.32-1.64h-.69C64.68,31.88,61.59,31,60.61,29.41Zm-.67,3a5.39,5.39,0,0,1,1.79-1.12l0-.08a12.28,12.28,0,0,0,5.36,1.35h.7A4.33,4.33,0,0,1,71.65,34a35.92,35.92,0,0,1,4.76,5c.18.31.13.66-.09,1.84-.15.8-.35,1.95-.56,3.64a28.87,28.87,0,0,0-.68,6,2.8,2.8,0,0,0-1.34-.81.5.5,0,0,0-.47.19c-.3.41,0,1.27.84,3.14.22.51.51,1.17.63,1.59a3.23,3.23,0,0,0-.87-.58.46.46,0,0,0-.57.09c-.27.33-.07.86,1.56,3.43-.23,3.46-.47,5.34-.65,6.84-.15,1.19-.27,2.14-.34,3.45a39.75,39.75,0,0,1-1.25,8,17.34,17.34,0,0,1-3.22,1.26,27.53,27.53,0,0,1,2.2-3.71C72.84,71.53,73,71.23,73,71a.44.44,0,0,0-.24-.3c-.31-.14-.71.05-1.44.44l-.35.18c.3-.55.83-1.42,1.23-2.06a8.47,8.47,0,0,0,1.17-2.12.52.52,0,0,0-.16-.47c-.2-.16-.44-.09-.71,0l-.41.1a12.13,12.13,0,0,1,.65-1.48c.47-1,.63-1.31.57-1.57a.51.51,0,0,0-.29-.39.52.52,0,0,0-.49.08c0-.2.11-.44.16-.63a5.77,5.77,0,0,0,.24-1.19.4.4,0,0,0-.25-.4c-.35-.14-.72.18-2.44,2.14l-.55.62a1.2,1.2,0,0,0-.26-.7.44.44,0,0,0-.4-.15c-.42.06-.78.71-1.57,2.52l-.27.61c-.11-.16-.24-.38-.32-.54a5.93,5.93,0,0,0-.37-.59c-.11-.14-.24-.32-.48-.26s-.27.28-.3.49A8.79,8.79,0,0,1,65.2,67a8.73,8.73,0,0,0-.48,2.09A3.41,3.41,0,0,0,64.07,68L64,67.91h-.1c-.91-.09-1.17,1.59-1.55,4.31A21.54,21.54,0,0,1,62,74.4a10.28,10.28,0,0,1-.6-1.19c-.16-.35-.31-.67-.47-1v0h0c-.33-.61-.67-1-1.1-.94s-.88.87-1.18,1.71l-.14.08c-.58-4.07-.6-5.29-.47-11.36L58,59.11c.12-5.86.23-11,.27-11.87l.78-.1a4.15,4.15,0,0,0,3.29-1.89,3.2,3.2,0,0,0,.13-2.61.47.47,0,0,0-.32-.29c-.21,0-.35.09-.48.21a3.54,3.54,0,0,1-1.25.76,4.19,4.19,0,0,1-2.33-.15c0-.21,0-.43,0-.66A6.66,6.66,0,0,1,59.77,41a8.28,8.28,0,0,1,2.71-1,11.2,11.2,0,0,0,4.3-1.85,4.29,4.29,0,0,0,1.76-3,3.54,3.54,0,0,0-.41-2.21.42.42,0,0,0-.35-.15c-.26,0-.4.25-.59.56a2.62,2.62,0,0,1-.51.66c-.45.35-2,.53-4.08.74-2.38.24-3.26,2.4-3.76,4.26a4.36,4.36,0,0,1-.73,1.49c0-1.74,0-3.79.05-5.9A6.42,6.42,0,0,1,59.94,32.43ZM69.88,5.78a3.72,3.72,0,0,0,2.17-2.24A4.86,4.86,0,0,1,72.49,5L72,4.9A11.44,11.44,0,0,1,70.18,9a13.12,13.12,0,0,1-4.53,3.36l.27.6a13.54,13.54,0,0,0,4.8-3.58,12.06,12.06,0,0,0,1.82-4,7.71,7.71,0,0,1-.41,3.25c-.81,2.36-3,3.2-5,3.94a12.9,12.9,0,0,0-2.4,1.09,10,10,0,0,0-.9.89l.39-.57L64,13.8A16.23,16.23,0,0,0,67,9.1a4.28,4.28,0,0,0,.13-.91A8.64,8.64,0,0,1,69.88,5.78Zm-6.49-1.6A3.16,3.16,0,0,0,64,1.72c0-.14,0-.32,0-.44a.67.67,0,0,1,.26.15c1.22,1,2.64,5.53,2.11,7.5C66,10.32,64.3,12.38,63,14c-.43.54-.79,1-1.07,1.35a3.56,3.56,0,0,0,.26-1.3,2.16,2.16,0,0,1,.12-1.19l-.15-.11a5.37,5.37,0,0,0,.32-.56,11.36,11.36,0,0,0,2.78-4,6.52,6.52,0,0,0-.1-5.4l-.58.31a5.93,5.93,0,0,1,.08,4.83,12.77,12.77,0,0,1-1.72,2.86,4.41,4.41,0,0,0,0-.68,13.91,13.91,0,0,0-.76-4.32A13.31,13.31,0,0,1,63.39,4.18ZM58.64,16.8h0l0,.31C58.64,17,58.64,16.9,58.64,16.8Zm.63.51a8,8,0,0,0,.1-1.45c0-.24.51-.72,1-1.15s.75-.68,1.13-1.1a5.3,5.3,0,0,0,0,.54,8.33,8.33,0,0,1-2.33,4.43A7.87,7.87,0,0,1,59.27,17.3ZM61.14,5.64l.1-.32a11.16,11.16,0,0,1,1,4.8,3.9,3.9,0,0,1-.78,2.4,10.49,10.49,0,0,1-1.59,1.69l-.22.2c.26-.5.58-1.1,1-1.84a10.87,10.87,0,0,0,.94-6.09L61,6.58a10.36,10.36,0,0,1-.86,5.67,22.87,22.87,0,0,0-1.6,3.15,1.41,1.41,0,0,0-.23-.48,3.22,3.22,0,0,1,.21-4.84A9.93,9.93,0,0,0,61.14,5.64ZM56.2,3.35c1.34.88,2.93,3.47,2.8,5.12h0a9.72,9.72,0,0,1-.88,1,14.72,14.72,0,0,0-1.09-2c-.26-.44-.56-.94-.89-1.51a4.31,4.31,0,0,1-.55-3.15A2.33,2.33,0,0,0,56.2,3.35ZM47.05,4.42a4.52,4.52,0,0,1,1.09-2.79c0,.79,1,1.84,2.4,3.27a24.42,24.42,0,0,1,3.32,4,6.94,6.94,0,0,1,.79,5.4l-.53-.55a35.48,35.48,0,0,1-3-3.4A5.72,5.72,0,0,1,50,4.45l-.59-.29a6.36,6.36,0,0,0,1.17,6.55l.52.64a8.38,8.38,0,0,0-2.57-2A7.94,7.94,0,0,1,47.05,4.42Zm-6.12,6.25c0-.08-.06-.17-.1-.25a9.22,9.22,0,0,0,4.73,2.94,14.66,14.66,0,0,0,3.09.61,24.85,24.85,0,0,1-4-.59A5,5,0,0,1,40.93,10.67Zm11.14,4A2.6,2.6,0,0,0,50.13,14a8.48,8.48,0,0,0,1.05-.09l-.12-.65a12.42,12.42,0,0,1-5.3-.55c-4.38-1.36-5-3.84-5-3.87l-.26.06a6.26,6.26,0,0,1,0-1.09,3.85,3.85,0,0,0,.47.78c.68.88,2,.92,4.24,1,.65,0,1.39,0,2.2.09a2.56,2.56,0,0,1,.77.17,22.31,22.31,0,0,0,3.37,3.62l.77.72c.32.3.61.6.87.89.37.56.69,1.07.94,1.48C53.4,15.94,52.72,15.3,52.07,14.71Zm1.6,0c-.47-.73-1-1.51-1.62-2.27.66.74,1.2,1.28,1.6,1.69a3.81,3.81,0,0,1,.83,1h0l0,.07c.11.32.24.69.38,1.06A16,16,0,0,0,53.67,14.75Zm1.61,3.11a.36.36,0,0,0,.12-.09l0-.06c.09.22.19.44.29.65Zm-.13-2.77c0-.15.06-.32.1-.51a7.64,7.64,0,0,0-.84-6.06c-.12-.19-.26-.38-.39-.57l0-.14A6.21,6.21,0,0,1,54.31,3a10.3,10.3,0,0,1,1.2-2,2.19,2.19,0,0,0-.21,1L55.19,2a4.77,4.77,0,0,0,.4,4.3c.33.57.63,1.08.9,1.52a8,8,0,0,1,1.14,2.27,3.83,3.83,0,0,0,.16,5.25c.45.56.14,3.12-.52,4.33A17,17,0,0,1,55.16,15.09Zm1.75,18.76c0-3.2.27-5.94.46-8.14a21.3,21.3,0,0,0,.15-4.56,3,3,0,0,0-.32-.8h0a.56.56,0,0,0,.55-.31,7.39,7.39,0,0,0,.75-2.4c-.09.78-.1,1.34.25,1.55a.64.64,0,0,0,.73-.1A6.68,6.68,0,0,0,61.15,17a.38.38,0,0,0,.21.22h0a38.35,38.35,0,0,0-2.62,3.33c-.86,1.3-1.17,8-1.28,13.88l0,.12h0c0,2.57-.05,4.95,0,6.59l0,0,0,0c0,.41,0,.78,0,1.09a1.62,1.62,0,0,0-.17.37l.17,0c0,.1,0,.19,0,.27l-.61-.15C56.85,41.94,56.86,39,56.91,33.85Zm-3.54,3.83a3.56,3.56,0,0,1,0-.86.59.59,0,0,1,.15.11,6.36,6.36,0,0,1,.82,4,4.4,4.4,0,0,1-1.07,1.56,3.75,3.75,0,0,0-2.43,1.84c-.2.11-.39.21-.59.3a6.48,6.48,0,0,0-3.06,3.1c-.12-1.19-.14-1.84-.14-1.85H47c.19-.15.44-.32.72-.52,1.46-1,3.8-2.64,3.92-4.81C51.92,40.31,53.44,39,53.38,37.69ZM46.43,33a4.76,4.76,0,0,1,.12-2.05,5.48,5.48,0,0,1,1.88-2.49c0,.44.06.82.09,1.09C48.59,30.05,47.48,31.68,46.43,33Zm7-9c1-.3,1.68-.51,2.05-1.13a4.26,4.26,0,0,0,.4-.9,4.12,4.12,0,0,1-1.29,4.48,32.88,32.88,0,0,1-2.94,2.14,17.64,17.64,0,0,0-2.87,2.21,2.72,2.72,0,0,0,.43-1.34c-.13-1.1-.44-3.69,1.85-4.63A23.75,23.75,0,0,1,53.39,24Zm-1.84-.09-.78.3a3.78,3.78,0,0,0-2.33,3.52l-.05-.08a6.59,6.59,0,0,0-2.48,3.12,5.14,5.14,0,0,0,0,2.86,8.68,8.68,0,0,1-1,1,13.44,13.44,0,0,1,.15-1.88,10.38,10.38,0,0,0,.13-1.63c0-.27.2-.51.59-.91A5.64,5.64,0,0,0,47.23,28a2.18,2.18,0,0,0-.07-1.53,9.09,9.09,0,0,0,2.69-1.87,5.49,5.49,0,0,0,1.6-3.51,1.9,1.9,0,0,1,.21.54A2.86,2.86,0,0,1,51.56,23.89ZM46.3,25a3.18,3.18,0,0,1,1.45-2.17c1.3-.68,2.66-1.81,2.74-3.06a4.42,4.42,0,0,1,.74.86l-.41,0a4.92,4.92,0,0,1-1.42,3.41,8.38,8.38,0,0,1-2.54,1.76,5.35,5.35,0,0,0-.67-.83Zm-2.86-2.23.07.24a2.07,2.07,0,0,0,.57,1.1l.18.13c1.9,1.33,2.69,2.5,2.36,3.49a5,5,0,0,1-1.29,2c-.44.45-.81.85-.77,1.42a3.66,3.66,0,0,1,0,.52,4,4,0,0,0-.64-1.7,8.19,8.19,0,0,1-1.15-2.1,2.1,2.1,0,0,0,0-.65,1.21,1.21,0,0,0-.34-.6,3.58,3.58,0,0,1,0-1.67A6.25,6.25,0,0,1,43,23.46h0s0,0,0,0A3.5,3.5,0,0,1,43.43,22.81Zm-4.6,7.36.83.15a6.45,6.45,0,0,1,.76.15A9.93,9.93,0,0,1,42,33.26a17.92,17.92,0,0,1-2.35-1.9A4.6,4.6,0,0,1,38.83,30.17ZM42.42,29l0-.1a7.59,7.59,0,0,0,.92,1.51c.64.77.74,3.27.51,4a20.16,20.16,0,0,1-1.35-3.2c-.12-.34-.23-.63-.31-.84A1.78,1.78,0,0,1,42.42,29Zm-3.13-7a7.44,7.44,0,0,0,1.64.79,8,8,0,0,1,1.33.61,7.38,7.38,0,0,0-.48,1.13,4.75,4.75,0,0,0-.87-.56,7,7,0,0,1-1.13-.72,2.15,2.15,0,0,1-.84-1.61A2,2,0,0,0,39.29,21.95Zm-1.75.83a7.23,7.23,0,0,1,1-2.3,1.91,1.91,0,0,0,.38,1.11h-.32l-.33,0a2.8,2.8,0,0,0,1.08,2.15,7.52,7.52,0,0,0,1.23.79c.57.31.92.52,1,.81h.05a4.22,4.22,0,0,0,0,.86,11.37,11.37,0,0,0-3.3-.55A2.94,2.94,0,0,1,37.54,22.78Zm-2.33,2.09a.88.88,0,0,1,.1.19c.17.39.45,1.05,1.89,1.14l.41,0c1.32.08,3.39.19,4.16.75a9.19,9.19,0,0,0,.3,1,3.93,3.93,0,0,1-.26.8l0,0a5.9,5.9,0,0,1-3.37-.31c-2.21-.93-2.37-1.94-2.37-1.95l-.66.06c0,.14.19,1.4,2.77,2.49a6.32,6.32,0,0,0,2.46.48,6.56,6.56,0,0,0,.94-.07,1.81,1.81,0,0,0,.06,1.09c.08.2.18.49.3.82l.1.28a4.43,4.43,0,0,0-1.36-1.84,5.5,5.5,0,0,0-.9-.19c-1.22-.2-3.48-.58-4.09-1.7A4.05,4.05,0,0,1,35.21,24.87Zm3.12,6.25a2.91,2.91,0,0,0-2.93-.85c-1.89.18-5.59-.73-6.58-2.2a2.27,2.27,0,0,1-.51-2l.12.12c.43.45,1.15,1.2,2,.93a7.14,7.14,0,0,0,1-.42A3.56,3.56,0,0,1,33,26.27c1.13,0,1.43.47,1.44.49l0,0a5.77,5.77,0,0,0,.57,1.56,2.41,2.41,0,0,0,.67.74,10.83,10.83,0,0,1-2.5-.1,5,5,0,0,1-2.68-1l-.47.46a5.42,5.42,0,0,0,3.06,1.19,12.71,12.71,0,0,0,1.84.14,7,7,0,0,0,1.64-.16v0a8.81,8.81,0,0,0,1.56.5l-.13,0a4.62,4.62,0,0,0,1.1,1.7Zm5.8,5.34a10.65,10.65,0,0,0-2.25-2.55c.37.21.69.32.86.22a.38.38,0,0,0,.16-.21c.35.77.64,1.16.94,1.22A.47.47,0,0,0,44.3,35l0,0a.59.59,0,0,0,.16.27.46.46,0,0,0,.41.12,1.07,1.07,0,0,0,.38-.22,3.14,3.14,0,0,0-.56,1.66c0,1.31.59,4.73.65,5.06l0,0C45.18,40.7,44.74,37.54,44.13,36.47Zm0,8.13s0,0,0,0A51.37,51.37,0,0,1,43.71,52l-.12-.21,0-.07a.18.18,0,0,1,.08.05c-.35-.44-.78-4.75-.72-5.51a1.42,1.42,0,0,1,.3-.35A3,3,0,0,0,44.16,44.6Zm-6.35-6.78a12.85,12.85,0,0,0,1.19.67,8.15,8.15,0,0,1,4.2,3.83c.85,1.91.13,2.61-.39,3.13a1.3,1.3,0,0,0-.5.77s.05,1.82.26,3.46a5.27,5.27,0,0,1-.47-2.3l0-.24a4.57,4.57,0,0,0-.31-3h0c0-.07.25-1.81-2-3.56a4.94,4.94,0,0,1-2.11-2.87ZM42.21,51.7c-.73-.94-1.83-2.49-2.89-4l.16.07c.6.25.8.34,1.1.85C41.09,49.46,41.77,50.76,42.21,51.7Zm-4.51-14h0Zm-1-1.42,0,0a2.17,2.17,0,0,0,1,1.46l-.27,0-.33,0c0,.07.13,1.68,2.37,3.4a4.62,4.62,0,0,1,1.64,2,9,9,0,0,0-1.13-.94,26.79,26.79,0,0,0-2.66-1.64l-.83-.48C36.27,38.94,36.2,36.86,36.66,36.27Zm-1.9,3.07a1,1,0,0,1,.13-.17s.09.06.16.38c.15.67.84,1.05,1.89,1.64a26.16,26.16,0,0,1,2.6,1.6c2.2,1.56,2.14,2.51,2,4.18A9.37,9.37,0,0,1,38,45a7,7,0,0,1-2.68-3.93l-.65.09a7.46,7.46,0,0,0,2.92,4.35,9.7,9.7,0,0,0,3.9,2.1,5.46,5.46,0,0,0,.28,1.63c-.23-.42-.44-.78-.57-1a2.35,2.35,0,0,0-1.41-1.12,16.16,16.16,0,0,1-3.29-1.86A4.68,4.68,0,0,1,34.76,39.34Zm.19,7.17c-1-.35-2.13-.74-3.29-1.19a4.74,4.74,0,0,1-2.46-2.63,7.4,7.4,0,0,1-.63-2.56l.11.13a3.93,3.93,0,0,0,1.9,1.37,9.33,9.33,0,0,0,3.09.25,5.16,5.16,0,0,0,2.4,3.94,19.57,19.57,0,0,0,2.47,1.5l-.18.12.41.6A25.83,25.83,0,0,0,34.94,46.5Zm8.32,8.33c-.4-.56-.91-1.47-1.46-2.45l-.27-.48c.65.83,1.08,1.28,1.26,1.33l.28,0,.13-.17a.84.84,0,0,0,0-.63l0,0c.12.22.21.38.26.48l.16.29.27-.08c.82-.23.91-8.56.9-8.64-.15-1.23.82-2.13,2.74-3.9l.24-.22c1.92-1.79,1.68-2.81,1.53-3.42l0-.07c.39.17,1.26,1,1.64,3,.41,2.15-2.1,3.89-3.61,4.93a7.22,7.22,0,0,0-1.15.89c-.84,1-2,7.59-1.84,8.41l.16.64.42-.51,1.51-1.87a12.34,12.34,0,0,0-2.15,3.4,1,1,0,0,0,.14.6c.14.26.47.85.33,6.62,0,1.8,0,3.7.12,5.64-.11-1.34-.22-2.64-.31-3.83C44.09,58.78,43.82,55.6,43.27,54.83Zm-26.58,39-.12-.12.07,0a.6.6,0,0,0,.34-.44.48.48,0,0,0-.18-.4c-.11-.1-.45-.33-1.15-.8-1-.66-3.08-2.07-3.81-2.74l.78,0c1.94-.11,2.62-.21,2.83-.58a.45.45,0,0,0,0-.44l-.15-.27c-.07-.12-.18-.3-.19-.33a.69.69,0,0,1,.33-.12,8,8,0,0,1,1.91.19c1.4.23,2.27.35,2.65,0a.54.54,0,0,0,.19-.42,3,3,0,0,0-.22-.94c0-.12-.1-.28-.12-.39L20,86a7.73,7.73,0,0,1,1.68.87c.69.43,1.08.67,1.39.52a.45.45,0,0,0,.25-.36c0-.12,0-.25,0-.4s0-.17,0-.25c.41.45,2.56,2.27,3.11,2.07l.24-.11v-.23a3,3,0,0,0-.08-.54c0-.17-.1-.5-.12-.75,1.15.81,7.37,5.15,8.49,4.75a.58.58,0,0,0,.43-.49c.07-.66-.89-1.42-5.15-4.09a11.92,11.92,0,0,0-6.05-2.17c-.31,0-.61-.05-.89-.1a2.18,2.18,0,0,1-1.26-.51,2.39,2.39,0,0,0-.85-.48,30.61,30.61,0,0,0-3.49-.47c-1.56-.17-4-.43-5.07-.67l.39-.11c.44-.11.82-.21.93-.56a.91.91,0,0,0-.29-.83,10.76,10.76,0,0,0-3-1.66c-.61-.27-1.38-.62-1.82-.86l1-.2c2.6-.51,3.72-.8,4-1.27a.47.47,0,0,0,0-.42A3,3,0,0,0,13.4,76c.35.08.92.24,1.44.39,2.83.8,5.06,1.38,5.82.9a.63.63,0,0,0,.3-.44c.15-.87-1.8-1.77-9.06-4.17-1.16-.38-2.27-.75-2.83-1h0c.35,0,.6-.05.66-.33l0-.27L9.53,71l-.27-.14a21,21,0,0,1-2-1.1l.61,0c2.6-.09,3.88-.23,4.14-.81a.59.59,0,0,0-.14-.65A18.76,18.76,0,0,0,7.71,66c-1.08-.5-2.47-1.16-3.1-1.54.29,0,.66-.07,1-.1,1.08-.08,1.71-.14,1.9-.54a.54.54,0,0,0-.06-.55,9.31,9.31,0,0,0-2.31-1.63c-.53-.32-1.2-.73-1.59-1l.37,0c.4,0,.72,0,.86-.28a.48.48,0,0,0,0-.5,8.64,8.64,0,0,0-.89-.95C1.64,56.72.57,55.41.69,55c.8-.19,3.35,1.3,4.87,2.19s1.88,1.08,2.14.93L7.88,58v-.19c0-.07,0-.15,0-.24s0-.7,0-.78l.1,0a9.54,9.54,0,0,1,1.38,1.6c1.1,1.43,1.52,1.92,2,1.87a.44.44,0,0,0,.35-.29A2.59,2.59,0,0,0,11.71,59c0-.18,0-.46,0-.52a20,20,0,0,1,2.25,3.32c1.49,2.46,1.79,2.87,2.13,2.91h.2l.11-.11c.19-.19.29-.67.57-2.1A21.24,21.24,0,0,1,17.5,60l.11.16c1,1.57,1.52,2.12,1.93,2.1a.45.45,0,0,0,.38-.25,4.71,4.71,0,0,1,.46-.72c.38,1.37,3.23,11.4,4.34,11.57a.43.43,0,0,0,.36-.11c.35-.31.32-1.29.18-3.8a20.26,20.26,0,0,1,0-3.62c.26.15.45.29.6.4s.49.35.74.25a.65.65,0,0,0,.32-.55c0-.15,0-.43.05-.78a10.24,10.24,0,0,1,.24-2.11,10.2,10.2,0,0,1,1,1.62c.7,1.33,1.15,2.14,1.67,2.21a.54.54,0,0,0,.48-.19,5,5,0,0,1,.83-.79,7.76,7.76,0,0,1-.2,1.19c-.24,1.1-.35,1.73-.06,2a.49.49,0,0,0,.45.13A2.51,2.51,0,0,0,32.39,68l0,0c-.13.5-.4,1.32-.67,2.12-1,2.82-1.06,3.33-.74,3.58a.41.41,0,0,0,.49,0,2.84,2.84,0,0,0,.82-1.06v.13c-.09,2.48,1.32,11.11,3.13,14.33.21.45.56,1.22.91,2-1.34-1.77-3.71-4.72-7.66-9a1,1,0,0,0,0-.29c-.08-.51-.12-2.66-.16-4.94-.06-3.38-.13-7.2-.35-8.39l-.65.12c.21,1.13.28,5.1.34,8.28,0,1.89.06,3.56.12,4.46L26.77,78c-2.63-2.79-5.51-5.57-8.34-8.17a.72.72,0,0,0,0-.18c0-.46-.09-1.18-.14-1.95l.34-.06s-.3-1.8-.47-3.19c0-.24-.07-.57-.4-.53-.12,0-.23,0-.28.43h0a33.56,33.56,0,0,0,.25,4.86C10.28,62.43,3.43,57.1,3.34,57l-.4.52c.1.08,7.08,5.5,14.62,12.4-1,.48-4.53.29-6.66,0l-.08.66a37.74,37.74,0,0,0,4.12.27,6.69,6.69,0,0,0,3.12-.5c2.79,2.57,5.64,5.32,8.23,8.07l1.51,1.62a15.61,15.61,0,0,1-3-.53c-1-.23-2.23-.52-3.63-.78a28.18,28.18,0,0,0-9.38-.07l.12.65a28.08,28.08,0,0,1,9.14.07c1.38.26,2.61.54,3.6.77a16.53,16.53,0,0,0,3,.55,1.33,1.33,0,0,0,.61-.13,114.27,114.27,0,0,1,8.55,10.25c.4.54.55.75.72.75a.38.38,0,0,0,.18-.06c.28-.15.18-.41,0-.77-.22-.57-.53-1.29-.83-2a.82.82,0,0,0,.81.09c.74-.38.49-1.92.25-2.69-.11-.35-.4-1.12-.77-2.09-.91-2.42-3.34-8.84-2.94-9.54a2.88,2.88,0,0,1,1.76.67c.43.28.71.46,1,.29a.48.48,0,0,0,.19-.52,11.41,11.41,0,0,0-.4-1.44c-.31-1-1-3.37-.83-3.71a2.76,2.76,0,0,1,1.31.69c.16.14.32.28.54.18l.21-.13v-.21s0-.11,0-.24c-.09-3.35.33-4.3.59-4.57a.31.31,0,0,1,.19-.09c.62,0,1.57,2.47,2,3.65.55,1.42.74,1.87,1.06,2l.22,0,.13-.11a6.66,6.66,0,0,0,.67-.74l.28-.33c-.23,1.66-.79,6.19-.06,6.67a.46.46,0,0,0,.53,0,12,12,0,0,0,1.14-.91c.39,3.56.87,7.2,1.52,10.53a32.7,32.7,0,0,0,10.38,18.52l.27.25-1-.19a32.52,32.52,0,0,0-8.29-.77,16.66,16.66,0,0,0-2,.24,50.58,50.58,0,0,0-2.11-7.26.53.53,0,0,0-.48-.35c-.44,0-.74.56-1.22,1.55-.13.27-.28.57-.4.78a18.71,18.71,0,0,1-.47-2.23C41,96.36,41,96,40.9,95.71l.2,0c.32-.07.32-.1.17-1.71-.2-2.16-.67-7.23.19-8.54a54.62,54.62,0,0,0,2.89-5.47l-.6-.28a54.91,54.91,0,0,1-2.85,5.38,2.26,2.26,0,0,0-.2.41,40.5,40.5,0,0,1,.22-4.38c.56-4.75-.65-11.34-.66-11.4l-.65.12c0,.06,1.2,6.55.65,11.2a68.39,68.39,0,0,0,.36,14.16.42.42,0,0,0-.24-.11c-.38,0-.58.38-.83.91A8.65,8.65,0,0,1,39,94.2c-.11-.52-.37-.63-.56-.63h0c-.48,0-.81.72-1,1.15-.17-.17-.41-.44-.57-.63a7.31,7.31,0,0,0-.7-.75.42.42,0,0,0-.5-.07c-.36.2-.36.82,0,3.31l0,.32a2.54,2.54,0,0,0-.88-.27.52.52,0,0,0-.55.23c-.29.46.11,1.37,1.63,3.75l.08.13a2.72,2.72,0,0,0-.87.07.46.46,0,0,0-.23.15,24.3,24.3,0,0,1-.8-3.12,18.61,18.61,0,0,0-5.76-7.93.45.45,0,0,0-.48,0c-.3.18-.27.62-.22,1.29,0,.13,0,.27,0,.39-.35-.21-.95-.66-1.41-1-1.79-1.33-2.62-1.89-3.1-1.61s-.28,1.72.31,3.73l.16.56-.37-.36-.18-.18a.39.39,0,0,0-.48-.08c-.26.16-.35.32.3,2.71a3.5,3.5,0,0,0,.36.81A43,43,0,0,1,16.69,93.8Zm-6.27,9.45-.17-.22-.23.11a10,10,0,0,1-2,.26l0-.09a.76.76,0,0,0-.46-1.12,7,7,0,0,1-1.69-1.11l.19,0c.86-.07,1.39-.13,1.64-.43l.06-.09.28.09c.47.16.91.3,1.19.05a.53.53,0,0,0,.13-.54.48.48,0,0,1,0-.38.81.81,0,0,1,.56-.23,2.62,2.62,0,0,1,.66.32c.43.25.74.44,1,.23a.5.5,0,0,0,.09-.6l-.08-.23-.12-.34c1,.32,2.8.86,3.35.5a.5.5,0,0,0,.23-.46,1.66,1.66,0,0,0-.27-.78c.31.08.77.22,1.13.33,1.55.49,2,.58,2.2.29a.42.42,0,0,0,0-.5,4,4,0,0,0-.5-.6l-.18-.19h0a8.08,8.08,0,0,1,5.58,1.08c.86.57,1.53,1.08,2.08,1.49,1,.73,1.37,1,1.75.89a.52.52,0,0,0,.32-.42c.09-.44-.41-1-1.48-2.23a11.06,11.06,0,0,1-2.28-3.17c-.18-.66-.29-1.11-.36-1.43.43.41.7.58,1,.48a.43.43,0,0,0,.27-.38,5.16,5.16,0,0,0-.31-1.32,10.66,10.66,0,0,1-.6-3,12.24,12.24,0,0,1,2.36,1.54c1.51,1.13,1.89,1.37,2.23,1.22l.22-.15,0-.19a6.29,6.29,0,0,0,0-.84c0-.14,0-.31,0-.46A18.23,18.23,0,0,1,33.47,98c1,5.33,3.31,8.54,4.55,9.5a7.45,7.45,0,0,0-1.11.92l.06-.22c-1.25-.32-2.9-2.35-4.38-4.53l.09-.07c-2.94-3.81-3.32-9.26-3.33-9.32l-.66,0a21.45,21.45,0,0,0,.84,4.32l-.15-.26a68,68,0,0,0-4.65-7.09l-.52.4a67.2,67.2,0,0,1,4.6,7c2.42,4.29,5.47,9.25,7.82,10.06a.7.7,0,0,0-.09.2.41.41,0,0,0,.05.29c-1.1-.77-2.17-1.55-2.18-1.56h0a11.3,11.3,0,0,1-.83-1c-.06-.1-.27-.4-.57-.34a.4.4,0,0,0-.12.06,35.88,35.88,0,0,0-6.55-3,12.47,12.47,0,0,0-1.83-2.15,22,22,0,0,0-4.81-3.19l-.29.59A21.8,21.8,0,0,1,24,101.73c.55.56.93,1,1.2,1.31-1-.33-2.07-.66-3.25-1-.93-.25-1.83-.45-2.69-.61a1.2,1.2,0,0,0-.39-.91,7.8,7.8,0,0,0-2.77-1.77l-.22.62a7.23,7.23,0,0,1,2.5,1.59.74.74,0,0,1,.2.35,29.28,29.28,0,0,0-10.23-.11l.14.64a29,29,0,0,1,9.44,0c-.37.16-.83.32-1.27.47l-.59.2a19.14,19.14,0,0,1-4.07.83l.05.66a19.51,19.51,0,0,0,4.24-.86l.58-.2a6.38,6.38,0,0,0,2.05-.93c.91.16,1.86.37,2.84.63a51.07,51.07,0,0,1,6.08,2,2.82,2.82,0,0,0-.19,1.45,5.74,5.74,0,0,1-.68-.38,3.5,3.5,0,0,0-1.56-.65.5.5,0,0,0-.47.28c-.21.45.26,1.15,1.41,2.62l.31.41A31.86,31.86,0,0,0,21,110.09a15.92,15.92,0,0,1-4,1.24l0,.66a15.47,15.47,0,0,0,4.18-1.29,30.45,30.45,0,0,1,4.9-1.45l-.14.09v.2c0,.41.43.76,4.54,3.08.77.43,1.66.94,2.25,1.3l-.69-.09c-1.37-.18-3.43-.45-6.22-.55s-3.56.19-3.73.66a.64.64,0,0,0,.09.57c-1.21.07-2.51.11-3.1.07.15-.34.31-.84.11-1.13a.49.49,0,0,0-.53-.19,14.88,14.88,0,0,1-3.95-.58c.15-.19.43-.46.66-.69.77-.76,1.2-1.21,1.12-1.61a.47.47,0,0,0-.28-.35,3.45,3.45,0,0,0-.69-.19l.25-.3a3.3,3.3,0,0,1,2.47-1.44c2.24-.23,3-.37,3.13-.86a.68.68,0,0,0-.28-.72c-.44-.4-2-.25-5.62.28-.8.12-1.67.24-2.2.3l.45-.46c.95-1,1.43-1.49,1.23-1.92-.07-.14-.23-.31-.63-.27a23.43,23.43,0,0,1-4-.08C10.44,104,10.6,103.48,10.41,103.25Z"/><path class="cls-1" d="M83.61,68l-.12.4.63.2.1-.31a8.51,8.51,0,0,1,.94-1.94c.44-.65,6.72-2.81,10.1-4,2-.68,3.56-1.22,4.08-1.46.28-.13.37-.3.28-.5-.16-.37-.17-.37-6.67,1.84-2.68.91-5.52,1.9-6.5,2.25.16-1.44,2.25-7.48,4.09-10,1.4-1.88,4.6-3.33,6.72-4.29a8.92,8.92,0,0,0,2.13-1.13.37.37,0,0,0,.08-.51c-.22-.31-.23-.32-3.57,1.37-1.37.69-3.3,1.67-4.29,2.06,1.08-1.46,4.84-5.41,6.78-7.45,1.38-1.46,2.11-2.23,2.28-2.45s.14-.47,0-.58c-.25-.28-.53-.1-1.86.74l-1,.64c.8-1.32,2.92-4.18,3.74-5.2.12-.15.23-.29.15-.48l-.08-.18-.2,0a.71.71,0,0,0-.3.19h0l0,.06a79.48,79.48,0,0,0-15.58,26l-.18.48a4.59,4.59,0,0,0-.13-1.63c-.38-1-4.61-15.15-4.65-15.29l-.05-.18-.18,0a.48.48,0,0,0-.49.15c-.68.78.85,5,1.85,7.34C83.45,58.4,83.7,67.52,83.61,68ZM93.46,48.5c1.25-1.92,2.42-3.59,3.45-5a.4.4,0,0,0,0,.31.4.4,0,0,0,.49.12A11.81,11.81,0,0,0,99,43L97.9,44.16c-2.52,2.65-4.19,4.45-5.29,5.68Q93,49.17,93.46,48.5Zm-2.61,4.41h.22l.21,0a8.67,8.67,0,0,0-.8.73ZM85.38,65.34a8,8,0,0,0,.45-1,1.25,1.25,0,0,0,.07.83l0,0-.64.33Zm-.83-2.92a6.21,6.21,0,0,1,0,2c-.06.77-.08,1.1.24,1.2l.14,0a1.39,1.39,0,0,0-.37.33c-.13.19-.25.39-.35.58a64.9,64.9,0,0,0-.62-7.06C84.1,61,84.45,62.15,84.55,62.42Z"/></g></g></svg>