<svg xmlns="http://www.w3.org/2000/svg" viewBox="0 0 110.52 166.89"><defs><style>.cls-1{fill:#fff;}</style></defs><title>קופטיס סיני</title><g id="Layer_2" data-name="Layer 2"><g id="Expended"><path class="cls-1" d="M56,45.37a18.55,18.55,0,0,0,5.05,0l-.13-.7a18.2,18.2,0,0,1-4.84,0A5.3,5.3,0,0,0,51.44,46l.54.46A4.63,4.63,0,0,1,56,45.37Z"/><path class="cls-1" d="M63.12,109.25l0,.71A15.81,15.81,0,0,1,68.71,111v.47c.21.06.64.88.84,1.28l.15.29c.09.17.28.53.62.38.16-.07.36-.17.07-1.12.39.2.92.49,1.32.71a13.66,13.66,0,0,0,1.57.8.68.68,0,0,0,.21,0,.4.4,0,0,0,.38-.26c.25-.7-2.34-2.28-4.72-3.18A16.33,16.33,0,0,0,63.12,109.25Zm6.6,2.19-.09.06-.09-.13Z"/><path class="cls-1" d="M9.56,104.29l-.15.24.11.2c.31.58,3.64.47,4.65.43a13.46,13.46,0,0,1-.93,1c-.75.77-1,1-.92,1.33s.38.41,3.26,0c1.62-.24,4.64-.68,5.07-.45h0a14,14,0,0,1-2.47.38,3.94,3.94,0,0,0-2.93,1.69,1.77,1.77,0,0,1-.39.41c-.27.11-.4.28-.38.48s.35.39.79.47l.48.1a9.82,9.82,0,0,1-.85.91,5.29,5.29,0,0,0-.89,1,.47.47,0,0,0,.05.51c.47.62,3.52.92,4.49.92h0a2.25,2.25,0,0,1-.27.63l0,.42c.08.14.18.3,1.54.3.61,0,1.48,0,2.71-.12l0-.23c.14.12.29.24.43.35l.12.1a14.76,14.76,0,0,1-1.49.28c-.62.1-1.26.2-1.8.34-.24.06-1,.25-1,.81,0,.39.31.78,1,1.15a16.94,16.94,0,0,1-2.33.62c-.53.1-.58.45-.58.55,0,.44.51.75,1.07.91a7.19,7.19,0,0,1-1.66,1.32.42.42,0,0,0-.24.52c.11.32.17.47,3.61,0a1.93,1.93,0,0,1-.26.22.43.43,0,0,0-.2.52c.09.23.18.47,2.62.21a1.07,1.07,0,0,0-.14.61.51.51,0,0,0,.23.37c.34.22.92.07,1.83-.2l.31-.09a.49.49,0,0,0,.1.37c.2.25.57.22.89.16.89-.17,3-1.65,5.15-3.15l.3-.21-.11.21c-1.37,2.7-1.81,4.33-1.32,4.83s1.36-.11,2.49-.85c.31-.2.71-.47,1-.59a1.1,1.1,0,0,0,.71.77c.23.05.58,0,.94-.48l2-2.71a2.7,2.7,0,0,0-.26.5A.57.57,0,0,0,36,123c.24.26.63.17,1,.07-.17.46-.53,1.23-.77,1.75a6.44,6.44,0,0,0-.72,1.82.61.61,0,0,0,.19.47.88.88,0,0,0,.74.1l.56-.09a3.6,3.6,0,0,1-.09,1.22,3.28,3.28,0,0,0,0,1.73.54.54,0,0,0,.42.3c.91.11,3-2.2,3.7-2.92l.05.19c.12.45.33,1.21,1,1,.8-.21,1.3-2.92,1.48-4a6.86,6.86,0,0,1,.73,1,.5.5,0,0,0,.53.32c.33,0,.67-.31,1.14-2.93a15.31,15.31,0,0,0-.38-5,16.36,16.36,0,0,1-.37-2.81c0-.3.26-.56.76-.75,1.58-.61,4.68-.25,5.54.64.69.87,1.06,12.46,1.39,22.69.26,8.2.53,16.69,1,21.68l.71-.06c-.29-3.26-.51-8-.7-13.23.75,7.9,2.4,16.06,4.44,20.61l.65-.29C56,160,53.3,143.45,54.35,132.72a66.51,66.51,0,0,0-.51-17.56c0-.3-.08-.5-.09-.57,0-.51,1.44-4.2,3.15-4.83s2.7,1.89,2.71,1.91l.1,0c.52,4.29,1.22,11.27,1.94,18.5,1.07,10.75,2.29,22.93,3.45,32l.7-.09c-1.16-9-2.37-21.19-3.45-31.94-1.47-14.67-2.25-22.36-2.73-23.08-1-1.53-8-1.84-11.44-1.44A12.07,12.07,0,0,0,44,106.89a.73.73,0,0,0,0-.63.57.57,0,0,0-.57-.25,4.46,4.46,0,0,0-1,.42l.13-.45a18.15,18.15,0,0,1,5.29-1.17,31.79,31.79,0,0,1,8.12.75c1.45.29,1.88.37,2.1,0a.46.46,0,0,0,0-.53,5.37,5.37,0,0,0-.74-.74A32,32,0,0,1,47.1,86.18c-.66-3.38-1.15-7.09-1.54-10.72a94.65,94.65,0,0,0,3.11,14.14c2.52,8.29,8.27,15.21,10.43,15.8a1.28,1.28,0,0,0,.34,0,.81.81,0,0,0,.56-.21c1.28-1.17,1.74-4.4-.2-16.31-.37-2.29-.69-4.39-1-6.3-1.17-7.8-1.82-12.1-3.71-13.22-1-.57-2.93-1.42-4.83-2.25-1.26-.55-2.75-1.19-3.54-1.6a1.69,1.69,0,0,0,1.17-1,14.09,14.09,0,0,0,2.84,2.16l.81.48c3,1.79,3.31,2,3.63,1.67a.43.43,0,0,0,.1-.51,5.53,5.53,0,0,0-.43-.7,47.26,47.26,0,0,1-5.2-10.43,25.92,25.92,0,0,0-2.15-5.14l.32-.41c.16.2.63,1,1.62,4.2a54.07,54.07,0,0,0,3.4,8.28c.08.37.17.44.25.48,1,1.93,2,3.3,2.61,3.44l.14,0a.54.54,0,0,0,.4-.17c.67-.72.55-4.73.25-12.36-.05-1.39-.11-2.84-.16-4.31-.07-1.94-.07-3.12,0-3.84.43,0,.88,0,1.34-.09,0,.92-.1,4-.26,11.74l-.06,2.64a57.36,57.36,0,0,0,.86,14.06l.54,3.64c1.41,9.69,2.5,16.6,3.72,17.26a.61.61,0,0,0,.29.08.58.58,0,0,0,.24-.05c1.26-.57,7.08-9.3,10-19.44a1.92,1.92,0,0,1,.76-.13c.09,0,.18,0,.27,0A36.4,36.4,0,0,1,71.78,83a91.51,91.51,0,0,1-7.1,12.51,16.92,16.92,0,0,0-2.32,4.17,12.91,12.91,0,0,0-.33,1.36l0,.07h0a41.75,41.75,0,0,0-.51,7.75,1.43,1.43,0,0,0-.35.92l.37,0c0,1.28.09,2.63.19,4l0,0,0,.05c.1,1.41.23,2.86.4,4.33.23,2,.52,4.77.85,7.88,1.06,10,2.5,23.6,3.65,29l.69-.15c-1.14-5.37-2.58-19-3.63-28.94-.33-3.11-.62-5.87-.85-7.89q-.2-1.77-.33-3.48c1.21,1.17,2.95,2.68,3.75,2.55a1,1,0,0,0,.84-.93,9.36,9.36,0,0,0,3.13,1.41.49.49,0,0,0,.26-.06.43.43,0,0,0,.19-.46,4.83,4.83,0,0,0-.31-.8,8.68,8.68,0,0,1-.48-1.23,18.71,18.71,0,0,0,5,.91c.78,0,1.31-.23,1.54-.69a1.71,1.71,0,0,0-.35-1.69,8.89,8.89,0,0,0-.73-.76c-.22-.21-.57-.55-.78-.8.54,0,.91-.1,1-.43s-.27-.66-.42-.77a6.66,6.66,0,0,0-1.16-.59l-.41-.18c.34-.15.66-.35.73-.7a.83.83,0,0,0-.3-.75,4.75,4.75,0,0,0-1.35-.63c.4-.09.74-.23.8-.55s-.18-.56-.49-.77a7.15,7.15,0,0,0,1.59-.06,1,1,0,0,0,.77-.49.62.62,0,0,0,0-.51,5.83,5.83,0,0,0,1.45-.12c1.55-.33,1.88-1,1.93-1.11l.1-.25-.21-.16a7.19,7.19,0,0,0-1.77-1,4.94,4.94,0,0,0-2.28-.08l-.17,0a4.49,4.49,0,0,0,.41-.23l.28-.21-.1-.27c-.13-.36-.32-.33-2.57,0l-1.48.21c1.82-.45,6.84-1.8,7.41-3a1,1,0,0,0,.1-.92.83.83,0,0,0-.75-.31h-.14a11.88,11.88,0,0,1,2.27-1.07c.12,0,.5-.15.46-.51s-.23-.4-.83-.48a3.45,3.45,0,0,0,1.32-1l.59-.38c-.27-.41-.5-.82-.71-1.22a4.82,4.82,0,0,0,.68-.8.43.43,0,0,0,0-.49c-.18-.23-.46-.23-1.25,0a12.17,12.17,0,0,1,1.13-10.53c.17-.32.3-.57.38-.76.56-1.33,6.43-4,9.88-2.71a12.4,12.4,0,0,1,4.28,2.56,2.74,2.74,0,0,0,.81.59.87.87,0,0,0,.75,0,1.16,1.16,0,0,0,.5-.75c.25.15.62.41.91.61a8.25,8.25,0,0,0,2.49,1.39.83.83,0,0,0,.81-.22,1.13,1.13,0,0,0,.1-1,2.52,2.52,0,0,0,1.07.36,5,5,0,0,0,2.82-.58c.37-.37,0-.81-.62-1.47a13.35,13.35,0,0,1-.87-1,2.86,2.86,0,0,0-1.48-1.08h0l.17-.14v-.19c0-.3-.27-.44-1.57-1.15a18.78,18.78,0,0,1-2.21-1.33,20.83,20.83,0,0,1,2.45.18c.85.09,1.81.19,2.67.23a7.26,7.26,0,0,0,4.46-1.43l.19-.14.28-.08,0-.23c.06-.28-.14-.42-.54-.68-.24-.16-.58-.39-1-.7a2.55,2.55,0,0,0-1.38-.55,3.29,3.29,0,0,0,1-.62l.94-.85a8.09,8.09,0,0,0,.6-.57l.14-.2,0-.18c-.07-.28-.38-.47-1.22-.8.34-.32,1-.84,1.36-1.15a8.41,8.41,0,0,0,1-.91l.15-.25-.12-.2c-.29-.49-2.63-.29-3.46-.2l.09-.17a4.07,4.07,0,0,0,.39-.88.43.43,0,0,0-.15-.47c-.31-.24-.81-.15-4,1.64,0-.2-.19-.3-.4-.41a3.81,3.81,0,0,0,.35-2.15.58.58,0,0,0-.4-.32c-.65-.16-1.94.78-2.46,1.19l0,0a6.25,6.25,0,0,0-.88-.12,4.48,4.48,0,0,1-.69-.09c.45-.17,1.19-.37,1.73-.52,1.52-.41,2.21-.63,2.44-.93a.58.58,0,0,0,.12-.61c-.16-.35-.61-.4-1.14-.44H102l.64-.4a8.13,8.13,0,0,0,1.6-1.15.56.56,0,0,0,.15-.64c-.19-.41-.84-.39-1.82-.36-.37,0-.75,0-1,0a1.48,1.48,0,0,0,.27-.25l.17-.24-.13-.21c-.17-.29-.45-.23-1.61,0a15.27,15.27,0,0,1-1.62.27,11.81,11.81,0,0,1,1.33-1.79,2.41,2.41,0,0,0,.35-.46l.09-.24-.13-.17c-.17-.21-.24-.2-1.44,0l-2.18.36C94.41,56.24,93,58,92,59.22a4.62,4.62,0,0,1-1.12,1.15,1.66,1.66,0,0,0-.24.09c0-.14.14-.86,2-2.77,2.14-2.21,5.58-3.53,7-4.09l.71-.28c.14-.07.51-.24.47-.59s-.34-.43-.76-.53l1-.34a10.86,10.86,0,0,0,1.37-.5c.31-.17.35-.38.33-.52s-.31-.4-.7-.49l.07,0a4.5,4.5,0,0,0,1.11-.42.49.49,0,0,0,.25-.51c-.08-.27-.34-.29-.54-.31l-.31,0c.18-.2.5-.47.7-.64a4.7,4.7,0,0,0,.74-.71.44.44,0,0,0,0-.5c-.12-.18-.29-.43-2.59,0a2.21,2.21,0,0,0,.26-.49l.07-.27-.17-.15c-.24-.22-.53-.08-1.36.31a11.57,11.57,0,0,1-1.75.72,26.8,26.8,0,0,1,3.37-2.85,18.83,18.83,0,0,0,1.94-1.58.68.68,0,0,0,.19-.73c-.2-.48-1-.53-1.79-.58h-.08c.28-.22.68-.49,1-.68a5.55,5.55,0,0,0,1.09-.85.48.48,0,0,0,.07-.48c-.14-.34-.61-.43-1.43-.55l-.2,0,.23-.11a3.62,3.62,0,0,0,.72-.42.5.5,0,0,0,.17-.54c0-.13-.15-.46-1.32-.65,0-.13.14-.34.21-.5a4.52,4.52,0,0,0,.47-1.47.53.53,0,0,0-.28-.58c-.42-.19-.91.2-2,1.23a.4.4,0,0,0-.21-.42c-.5-.25-1.94,1.33-2.56,2.06l0-.22a4.65,4.65,0,0,0-.44-1.72.56.56,0,0,0-.53-.31c-.48,0-.76.7-1.21,1.87-.11.27-.25.63-.37.88a2.57,2.57,0,0,0-.14-.49A.45.45,0,0,0,95,37.3c-.41,0-.55.49-.93,2-.06.22-.12.47-.18.68a2.24,2.24,0,0,0-.2-.34l-.18-.21-.22.05c-.34.08-.41.4-.75,2.11A17.12,17.12,0,0,1,91.6,45a23.42,23.42,0,0,1-.46-4.22,29.61,29.61,0,0,0-.33-3.57c-.11-.53-.38-.65-.59-.66h0c-.93,0-2.29,3.4-2.87,4.94a8.5,8.5,0,0,0-.41-1c-.18-.36-.41-.36-.53-.33-.4.1-.43.4-.28,3.14,0,.61.07,1.38.07,1.85a.53.53,0,0,0-.54-.16c-.32.11-.35.52-.37.69s0,.95,0,2c.18,6.64,0,10.18-.47,10.53-.27-.26-.22-2.21-.18-3.64.08-2.85.17-6.38-1-8a.46.46,0,0,0-.36-.43c-.53-.1-1.19,1.09-1.54,1.79-.21-.46-.5-1.21-.71-1.76a19.73,19.73,0,0,0-.76-1.83.5.5,0,0,0-.51-.3c-.49.06-.78.79-1.4,3l-.12.44a.69.69,0,0,0-.19-.15.71.71,0,0,0-.59,0c-.62.22-.67,1.27-.71,3a10.43,10.43,0,0,1-.11,1.64,4.83,4.83,0,0,1-.7-.57c.15-2.83.34-5,.54-6.58a11.16,11.16,0,0,1,2.08-4.53,5.25,5.25,0,0,0,.56-.86c.58-1.26,5.58-6.93,6.38-7.75a4.81,4.81,0,0,1,1.44-.47c2.15-.52,5.75-1.38,7.68-5.17a3.64,3.64,0,0,0-.31-3.53.43.43,0,0,0-.51-.13c-.29.14-.25.5-.23.63a.77.77,0,0,1-.21.58,4.43,4.43,0,0,1-2.86,1.13,1.4,1.4,0,0,0-.52.16,4.94,4.94,0,0,0-.77-4.27.54.54,0,0,0-.63-.19c-.4.17-.53.75-.4,1.84.11.93-.27,1.09-1.88,1.65-.42.15-.91.31-1.46.53a4.47,4.47,0,0,0-.86.44l.28-.58a4.71,4.71,0,0,0-.08-4.82l-.09-.16a1.27,1.27,0,0,0-1.46-.6c-.14.06-.57.34-.24,1.12.2.48-.15.89-1.19,2l-.83.9c-.26-1-1.23-3.18-2-3.56-.22-.11-.58-.29-.87-.09s-.28.63-.15,1.72c.1.83-.78,1.52-1.23,1.82A8.37,8.37,0,0,0,75,20.95a.78.78,0,0,1-.22-.92,1.85,1.85,0,0,0,.08-.51.5.5,0,0,0-.57-.48c-.8,0-2.48,1.2-2.52,4.86a9.67,9.67,0,0,0,.59,3.68A14.6,14.6,0,0,0,69.57,25h0a13.71,13.71,0,0,1,1-3.28,1.27,1.27,0,0,1,.14.54,1.21,1.21,0,0,0,.64,1.11l.29-.65c-.15-.07-.19-.18-.23-.55A1.54,1.54,0,0,0,70.92,21a.52.52,0,0,0-.51-.08c-.6.22-1.1,2-1.43,3.59a13.69,13.69,0,0,0-1.56-1c-.65-.32-.67-.58-.69-.94a2.46,2.46,0,0,0,0-.36.45.45,0,0,0-.31-.35.59.59,0,0,0-.6.23c-.46.48-1.13,2-.37,4.37,0,.14.09.27.15.4a5.65,5.65,0,0,0-3,.49,4.62,4.62,0,0,1-1,.31c-.68.11-1.19-.44-1.56-.84s-.5-.52-.8-.44a.5.5,0,0,0-.34.31c-.27.68.59,2.23,1.13,3.09a4,4,0,0,0,1,1.07,8.37,8.37,0,0,0-1.58,1.06,8.08,8.08,0,0,0-1.28,1.31c.13-5.6.45-11.24,1.13-12.27a59.54,59.54,0,0,1,5.77-6.73,12.5,12.5,0,0,1,2.27-1c2.09-.79,4.47-1.69,5.38-4.36,1.13-3.32,0-5.91-.62-6.2l-.36-.12-.17.26a1.61,1.61,0,0,0-.15.35,3.08,3.08,0,0,1-1.87,2,8.09,8.09,0,0,0-2.52,2C66.89,4.8,65.75,1.83,64.68.93A1,1,0,0,0,63.57.69l-.11,0-.06.1a1.76,1.76,0,0,0-.08,1,2.51,2.51,0,0,1-.43,2,16.43,16.43,0,0,0-1,1.3,1.22,1.22,0,0,0-.48-.53.47.47,0,0,0-.51.1,2.06,2.06,0,0,0-.37.83,10.3,10.3,0,0,1-.89,2.11,8.36,8.36,0,0,0-3-4.77c-.86-.56-.62-1.08-.37-1.64A1.66,1.66,0,0,0,56.41.6.53.53,0,0,0,56,0c-.58-.15-1.36.77-2.32,2.73a6.81,6.81,0,0,0-.67,3.87c-.65-.76-1.34-1.49-2-2.17C50,3.37,48.81,2.13,48.85,1.65a.72.72,0,0,0-.24-.71.55.55,0,0,0-.58,0,4.61,4.61,0,0,0-1.63,3.49,8.37,8.37,0,0,0,1.17,4.64H47.4c-.82,0-1.55-.07-2.21-.09-2-.06-3.24-.1-3.72-.73A3.45,3.45,0,0,1,40.88,7c-.07-.24-.14-.48-.41-.52a.45.45,0,0,0-.45.24,5.68,5.68,0,0,0,4.5,7.33,24.07,24.07,0,0,0,5.2.65c1,0,1.37,0,1.92.53,3.13,2.85,5,5.06,5.24,6.08a21.9,21.9,0,0,1-.16,4.37c-.19,2.21-.43,5-.46,8.19-.05,4.88-.06,7.75-.06,8.82a12.19,12.19,0,0,0-1.86-.26,4.1,4.1,0,0,0,.74-1.27,6.74,6.74,0,0,0-1-4.68c-.4-.39-.72-.33-.87-.25-.48.22-.5,1-.47,1.53a3.16,3.16,0,0,1-1.11,1.94c-.5-2.48-1.75-3.55-2.51-3.45a.53.53,0,0,0-.49.56,2.12,2.12,0,0,0,.07.39c.13.53.3,1.25-1.33,2.76l-.24.22c-.43.4-.8.75-1.15,1.08-.17-1.08-.53-3.45-.55-4.44s1-2.11,2.1-3.42c.39-.47.79-1,1.17-1.45A13.21,13.21,0,0,1,52,29.16,33.21,33.21,0,0,0,55,27a4.73,4.73,0,0,0,1.68-4.39c-.08-.56-.33-1.52-.68-1.67l-.22-.07-.15.07c-.21.1-.28.31-.36.61a4.05,4.05,0,0,1-.42,1c-.23.38-.68.53-1.66.83l-.78.24a3.63,3.63,0,0,0-.09-2.13C52.22,20.65,51,19,50.27,19c-.08,0-.49.09-.44.68.06.75-.92,1.8-2.37,2.57a3.63,3.63,0,0,0-1.72,2.27,13,13,0,0,0-1.07-.82l-.15-.11a1.77,1.77,0,0,1-.33-.76c0-.17-.1-.34-.16-.49a.48.48,0,0,0-.49-.34c-.29,0-.61.3-.91.73a8,8,0,0,0-1.42-.66,7.37,7.37,0,0,1-1.47-.69,1.26,1.26,0,0,1-.48-1.12,2.36,2.36,0,0,0,0-.42.44.44,0,0,0-.42-.36h0c-.63,0-1.5,1.63-1.89,3.1a3.54,3.54,0,0,0,.49,2.92h-.14c-1-.06-1.16-.4-1.3-.73a.81.81,0,0,0-.67-.6.65.65,0,0,0-.62.32,2.42,2.42,0,0,0-.24,1.34,3.14,3.14,0,0,0-1.35-.27h0a4.13,4.13,0,0,0-1.84.52,6.6,6.6,0,0,1-.92.38c-.5.15-1-.39-1.35-.75a1.4,1.4,0,0,0-.48-.39.55.55,0,0,0-.62.23c-.3.39-.54,1.43.43,2.88,1.25,1.86,5.38,2.68,7.21,2.5a2.31,2.31,0,0,1,2.44.71c.29.23.65.51,1.12.85,2.4,1.77,3.88,3.17,4.51,4.29s1,4.39,1.17,5.62l.15,0a3.72,3.72,0,0,0-.6,1.06,5.07,5.07,0,0,0-.42-1.43,8.84,8.84,0,0,0-4.51-4.16,12.29,12.29,0,0,1-1.12-.63,1.58,1.58,0,0,1-.84-1.19c0-.18-.1-.59-.58-.59h0a.94.94,0,0,0-.63.38c-.53.69-.53,2.31-.46,3.38-.16-.54-.45-.71-.67-.74a.88.88,0,0,0-.84.54,6,6,0,0,0-.5,2.15A8.74,8.74,0,0,1,30.8,41a3.25,3.25,0,0,1-1.57-1.15c-.27-.31-.48-.56-.79-.58-.07,0-.38,0-.48.43-.2.87.47,5.15,3.48,6.31,1.17.45,2.29.84,3.31,1.2a25.61,25.61,0,0,1,3.74,1.49c.7.42,1.84,2.45,2.75,4.08.56,1,1.08,1.92,1.5,2.51s.79,4.81,1.17,9.63c.23,3,.51,6.46.89,10.07a12.71,12.71,0,0,1-1.2,1,33.3,33.3,0,0,1,.46-6.4c.07-.32,0-.54-.21-.64-.37-.18-.68.19-1.36,1l-.36.43c-.15-.32-.37-.89-.56-1.37-.89-2.31-1.66-4.09-2.67-4.09h0a.94.94,0,0,0-.68.3c-.57.58-.83,2.09-.8,4.61a3.27,3.27,0,0,0-1.23-.53.62.62,0,0,0-.6.18c-.45.5-.15,1.82.64,4.4.1.33.2.65.27.9l0,0A3.46,3.46,0,0,0,34.24,74a.59.59,0,0,0-.42.29c-.52.89.64,4.4,2.82,10.17.36,1,.65,1.71.75,2a2.77,2.77,0,0,1,.1,1.87s-.34,0-1.12-1.08a4.77,4.77,0,0,1-.29-.46l-.18-.38h0C34.25,83.14,32.95,75.1,33,72.82c0-.87,0-1.29-.36-1.4s-.56.25-.84.77v0c.18-.59.42-1.31.61-1.88a18,18,0,0,0,.77-2.6c0-.13,0-.52-.26-.67s-.61.11-1,.48a5.21,5.21,0,0,1-.54.47,10.33,10.33,0,0,1,.22-1.26,7.27,7.27,0,0,0,.22-1.37c0-.45-.21-.62-.37-.68-.37-.14-.81.13-1.58,1a9.32,9.32,0,0,1-1.11-1.81A8.33,8.33,0,0,0,27.62,62a.59.59,0,0,0-.65-.16c-.49.2-.61,1-.69,2.79,0,.23,0,.42,0,.56h0a9,9,0,0,0-.8-.52.52.52,0,0,0-.54,0c-.49.31-.48,1.43-.31,4.34.06,1,.13,2.21.09,2.87A85.24,85.24,0,0,1,21,61.06c-.08-.43-.32-.53-.46-.55s-.5-.08-1.12,1a14.71,14.71,0,0,1-1.26-1.7l-.27-.39a.49.49,0,0,0-.51-.23c-.47.1-.66.77-1.13,3.19-.09.46-.2,1-.28,1.39-.37-.5-1-1.53-1.48-2.33-1.7-2.79-2.26-3.61-2.74-3.64a.65.65,0,0,0-.54.18A1.31,1.31,0,0,0,11,59a4.5,4.5,0,0,1,0,.47c-.32-.32-.82-1-1.18-1.43a7.67,7.67,0,0,0-1.61-1.79.7.7,0,0,0-.75,0c-.33.22-.36.69-.34,1.14-.33-.18-.82-.46-1.26-.72C3.58,55.29,1.56,54.17.56,54.4a.67.67,0,0,0-.53.47c-.22.79,1,2.21,3.37,4.56L4,60h0a3.75,3.75,0,0,0-1,.12.44.44,0,0,0-.33.36c-.05.41.37.71,2.19,1.81a17.34,17.34,0,0,1,2,1.31,8.86,8.86,0,0,1-1.22.14A5.83,5.83,0,0,0,3.94,64a.43.43,0,0,0-.28.39c0,.45.52.77,3.78,2.29a25.38,25.38,0,0,1,3.91,2.05,14.94,14.94,0,0,1-3.46.37c-.49,0-.89,0-1.1.06a.49.49,0,0,0-.48.38c-.06.36.22.69,2,1.65a.5.5,0,0,0-.36.36c-.08.36.29.58.43.66a30.48,30.48,0,0,0,3.29,1.18c2.61.86,8,2.63,8.56,3.41-.62.29-3.94-.65-5.22-1a11.18,11.18,0,0,0-1.92-.47.62.62,0,0,0-.6.29c-.14.3.09.56.33.84a3.85,3.85,0,0,1,.32.4,19,19,0,0,1-3.4.86c-.62.12-1.16.23-1.46.31a.47.47,0,0,0-.39.42c0,.44.45.7,2.51,1.63a12.68,12.68,0,0,1,2.79,1.47,1.25,1.25,0,0,1,.12.16,4,4,0,0,1-.42.12,4.76,4.76,0,0,0-1.11.4.44.44,0,0,0-.25.48c.09.47.67.64,6.13,1.24,1.5.16,3,.33,3.35.44a1.74,1.74,0,0,1,.63.36,2.82,2.82,0,0,0,1.58.65c.3.05.61.08.94.11A11.32,11.32,0,0,1,30,87.57c1.54,1,4.31,2.71,4.77,3.35-1.12-.13-6.87-3.92-7.94-4.76a.56.56,0,0,0-.67-.11c-.35.21-.29.72-.14,1.52a12,12,0,0,1-2.08-1.66c-.11-.13-.42-.48-.78-.35s-.39.6-.41,1.05c0,0,0,0,0,.05-.18-.1-.42-.25-.62-.37a8.19,8.19,0,0,0-1.84-.94.92.92,0,0,0-1,.09c-.27.29-.13.7,0,1.13a3.26,3.26,0,0,1,.18.62,8.88,8.88,0,0,1-2-.19,7.63,7.63,0,0,0-2.16-.18.84.84,0,0,0-.58,1.48v0a15.28,15.28,0,0,1-2.15.21c-.54,0-1,.06-1.27.1a.44.44,0,0,0-.37.34c-.09.43.28.87,4.34,3.6l.87.59a.63.63,0,0,0-.28.47.9.9,0,0,0,.4.7c.85.71,6.88,2.5,7.57,2.7h0c.45.59,1,1.2,1.5,1.77s.89,1,1.15,1.35c-.23-.15-.53-.38-.82-.6-.55-.42-1.24-.93-2.11-1.51a8.71,8.71,0,0,0-6-1.19h-.1c-.13,0-.51.06-.62.38s.14.62.44.94l-1-.3a6.92,6.92,0,0,0-1.69-.42.57.57,0,0,0-.51.27c-.12.25,0,.47.16.66a1.63,1.63,0,0,1,.26.49,12.89,12.89,0,0,1-3.13-.76L11.07,98l-.18.16c-.21.18-.17.38.08,1.08a1.83,1.83,0,0,0-1-.37,1.41,1.41,0,0,0-1,.52,1,1,0,0,0-.17.74L8.33,100c-.43-.14-.74-.25-1-.06l-.17.2v.09a5.45,5.45,0,0,1-1.12.16l-.54,0a.48.48,0,0,0-.46.42c-.08.74,2.06,1.89,2.33,2l.1,0a1.15,1.15,0,0,1-.06.21,1.43,1.43,0,0,0-.1.48.46.46,0,0,0,.22.39,4.42,4.42,0,0,0,2.19-.05A1.37,1.37,0,0,1,9.56,104.29Zm36.22,2.55a11.06,11.06,0,0,1,1.32-.4,28.63,28.63,0,0,0,2.52,4.22c1.29,1.75,1.13,2.4,1.09,2.51s-.07.09-.09.09c-.59.06-4.94-1.44-5.42-3A5,5,0,0,1,45.78,106.85Zm7.11-.74c.68.77,1.49,2,1.37,2.49A12.67,12.67,0,0,1,52.31,112a56.73,56.73,0,0,1-3.08-5.86A33.48,33.48,0,0,1,52.89,106.11Zm-4.62.12.21,0c2.92,6.16,3.48,6.58,3.77,6.58h.07c.75-.09,2.45-3.23,2.63-4s-.54-1.88-1.1-2.6c2.54.17,4.79.6,5.18,1.18a16,16,0,0,1,.5,2.85,2.52,2.52,0,0,0-2.88-1.11c-2,.76-3.64,4.75-3.61,5.53,0,.09,0,.31.09.65a65.81,65.81,0,0,1,.51,17.38c-.07.72-.12,1.5-.15,2.29-.43-13.12-.75-19.45-1.48-20.22A3.31,3.31,0,0,0,50.7,114h0a.84.84,0,0,0,.63-.53c.26-.68-.15-1.78-1.18-3.19a28.31,28.31,0,0,1-2.37-3.94Zm-5,.6a4.12,4.12,0,0,1-.3.49c-.09.13-.28.4-.07.64s.46.1.9-.14c.26-.15.62-.34,1.06-.55a5,5,0,0,0-.29,3.25c.43,1.38,2.85,2.55,4.57,3.11a7.68,7.68,0,0,0-3.39.29c-1,.38-1.2,1-1.21,1.4a16.73,16.73,0,0,0,.38,2.95,14.91,14.91,0,0,1,.38,4.73,12.9,12.9,0,0,1-.51,2.12c-.32-.51-1-1.48-1.49-1.38a.45.45,0,0,0-.34.46,14.78,14.78,0,0,1-1,3.79,4,4,0,0,1-.15-.48c-.12-.43-.22-.81-.56-.88a.56.56,0,0,0-.55.23,15.1,15.1,0,0,1-3.14,2.83,5.4,5.4,0,0,1,.12-1.19c.13-.77.24-1.44-.07-1.79a.61.61,0,0,0-.48-.21h0a5.36,5.36,0,0,0-.71.06H36.3c.11-.29.4-.92.62-1.39.94-2,1.06-2.39.85-2.68l-.18-.19-.21,0a3.84,3.84,0,0,0-.46.1l-.21.05c.45-.8,2.34-3.3,3.09-4.3l.34-.45c.82-1.1.86-1.47.64-1.72s-.33-.24-.72,0c-.62.34-6.38,8.16-6.44,8.24s-.21.2-.21.21a.78.78,0,0,1-.25-.5l-.09-.25-.17-.07c-.33-.14-.74.11-1.7.74a7.84,7.84,0,0,1-1.6.9,11.45,11.45,0,0,1,1.45-4c.13-.25.25-.47.34-.65.3-.54.43-.79.21-1a.5.5,0,0,0-.61,0c-.14.07-.48.31-1.18.8-1.32.93-4.05,2.87-4.87,3h-.07a.48.48,0,0,0,0-.49.5.5,0,0,0-.52-.15c-.18,0-.45.11-.74.2a8.08,8.08,0,0,1-1.11.28c0-.08.08-.16.12-.22s.27-.46.11-.71a.6.6,0,0,0-.61-.2c-.67.08-1.3.13-1.75.14a.92.92,0,0,0,.31-.85.45.45,0,0,0-.5-.28l-.23,0c-1.16.15-1.92.23-2.41.27.62-.45,1.34-1.09,1.27-1.59a.58.58,0,0,0-.49-.47,2.11,2.11,0,0,1-.42-.14c1.93-.38,2.93-.8,3-1.24a.48.48,0,0,0-.34-.5,3.75,3.75,0,0,1-1-.58s.08-.11.5-.21,1.13-.23,1.73-.32c1.45-.23,2.09-.35,2.24-.78a.51.51,0,0,0-.15-.53,4.59,4.59,0,0,0-.4-.33c-.18-.14-.62-.47-.67-.54s.38-.34,3.07-.24,4.81.37,6.16.55c1.53.2,1.85.24,2-.1a.45.45,0,0,0-.12-.54,22.73,22.73,0,0,0-3-1.84c-1.27-.72-3.06-1.73-3.85-2.28h.1c.29,0,.61,0,.77-.27a.72.72,0,0,0-.07-.7,10.74,10.74,0,0,0-.82-1.14,15.18,15.18,0,0,1-1.24-1.76,5.34,5.34,0,0,1,1,.51c.59.36,1.06.65,1.43.43a.66.66,0,0,0,.28-.66c0-.21,0-.39,0-.53.92,1,3.36,2.63,4.13,2.63h0a.5.5,0,0,0,.51-.38c0-.14.06-.28.09-.41v0h0l0-.07c.94,1.17,4.44,4.92,7.48,6.17a9.31,9.31,0,0,0,2.35.65,25.93,25.93,0,0,1-3,.94c-.31-.65-2.24-2.37-11.61-7.85l-.36.61c5.14,3,10.62,6.5,11.27,7.37l0,0a51.22,51.22,0,0,1-5.83,1c-.71-.51-3.35-1-5.55-1.33l-.11.7c1.51.23,3.18.54,4.22.81-1.15.17-2.24.37-3.27.59-.78-1-4.64-.77-6.36-.59l.07.71a17,17,0,0,1,5.4.08,40.67,40.67,0,0,0-8.67,3l.33.63a40.07,40.07,0,0,1,8.59-3,14.84,14.84,0,0,1-2.69,3.78l.52.48c.49-.53,2.71-3,2.93-4.43,1.14-.25,2.37-.47,3.67-.64A17.46,17.46,0,0,1,30,119l.37.61c.47-.28,2.69-1.66,3.22-2.61,1.8-.21,3.34-.46,4.66-.73-.7.59-1.58,1.31-2.37,2-3.83,3.11-4.67,3.88-4.7,4.33l.7.11a41,41,0,0,1,4.45-3.88c1.76-1.43,2.81-2.29,3.34-2.81a26.91,26.91,0,0,0,3.86-1.19,25.45,25.45,0,0,0-2.88,5.58c-1.9,4.91-1.82,5.95-1.79,6.11l.7-.13s-.07-1,1.75-5.72c1.9-4.89,3.77-6.61,3.79-6.62l0,0a1.18,1.18,0,0,0,.4-.32.65.65,0,0,0,0-.83c-.24-.27-1-.5-2.83-1a21.63,21.63,0,0,1-4.76-1.7l-.84-.58c.53,0,1.71-.48,5-2.11h0l0,.27.09-.33ZM29,105.22A31,31,0,0,1,32.55,107l-.07.3,0,.22A14.24,14.24,0,0,1,29,105.22Zm12,7.68a13.49,13.49,0,0,1-3.14-2,27.07,27.07,0,0,0,4.57,1.56c1,.29,2.31.65,2.49.75C44.81,113.45,43.55,113.94,41,112.9Zm1-6.25-.25.13c-1.06.52-3,1.49-4,1.87a17,17,0,0,1,4.26-2.43Zm-6.32-3.9a44.11,44.11,0,0,0,3.71,3.92l-.72.43A10.65,10.65,0,0,1,35.64,102.75Zm1.19-2-.3-.48a14.05,14.05,0,0,1-1.59-2.9,1.91,1.91,0,0,1,.79.37.5.5,0,0,0,.54.11.47.47,0,0,0,.22-.46c0-.11,0-.44-.11-.87,0-.27-.1-.67-.15-1.09.78,1.23,2.82,4.46,4,6.48a12.49,12.49,0,0,1,1.56,3.61c-.65.26-1.25.54-1.81.83a34,34,0,0,1-4.46-4.89,2.62,2.62,0,0,1,.69,0c.22,0,.47.06.62-.16A.53.53,0,0,0,36.82,100.72Zm-.7-6.46.26.3,0,0-.25.16C36.14,94.57,36.13,94.4,36.12,94.25Zm5.34,5.67a.48.48,0,0,0,.49-.15,5.61,5.61,0,0,0,.68-1.18,10,10,0,0,1,.55-1,53,53,0,0,1,2,6.9,20.49,20.49,0,0,0-2.42.68,13.58,13.58,0,0,0,.47-4.24l-.7.1a11.05,11.05,0,0,1-.31,3.3,15.67,15.67,0,0,0-1.34-2.78c-1.18-2-3.17-5.13-4-6.42.32.33.56.49.83.43a.5.5,0,0,0,.36-.41,2.44,2.44,0,0,1,.28-.68c.2.91.61,2.33,1.19,2.41a.51.51,0,0,0,.53-.33l.1-.2.13-.27c0,.23.11.56.16.9C40.83,99.1,41,99.79,41.46,99.92Zm5.12-25.08c-.08.61-.13,1.12-.16,1.55-.08-.5-.14-1-.21-1.5.15-.27.31-.52.45-.73C46.64,74.38,46.61,74.62,46.58,74.84Zm.13,3.33a.53.53,0,0,0,.52.06c.15-.06.33-.15.51-.24a3.88,3.88,0,0,1,.76-.32s.12.21-.17,1.2a17,17,0,0,1-1,2.61Q47,79.83,46.71,78.17Zm12.57,26.54c-1-.27-2.83-2.08-4.75-4.81,1.62,1.78,3.11,3.22,3.67,3.22h0a.46.46,0,0,0,.34-.22c.29-.47-.13-1.73-1.5-5.47-.79-2.14-1.68-4.57-2.33-6.81-1.37-4.73-2.36-18.85-2.55-21.85l.43.19c.13,1.31,1.85,18.9,3.54,24.51s3.72,10.57,3.76,10.66a1.83,1.83,0,0,1-.4.58S59.4,104.74,59.28,104.71Zm-4.14-9.36A9.87,9.87,0,0,0,52,89.81l0,0,.42.14a.55.55,0,0,0,.66-.18c.65-.93-2.1-4.59-2.13-4.63a3.43,3.43,0,0,1-.66-3.2c0-.11,0-.21.06-.3a4.15,4.15,0,0,0,1.23.31c.36,0,.75,0,.92-.27s-.06-.61-.38-1c-.12-.16-.27-.34-.41-.55-.26-.38.14-1.18.57-1.8a86.83,86.83,0,0,0,1.82,12.51c.66,2.27,1.55,4.71,2.34,6.86a42.25,42.25,0,0,1,1.54,4.6,22.78,22.78,0,0,1-2.46-2.4A19.32,19.32,0,0,0,55.15,95.35Zm3-12.61c.29,1.91.6,4,1,6.3,1.18,7.24,1.55,11.68,1.14,14-.64-1.63-2.11-5.47-3.4-9.76-1.55-5.14-3.18-21-3.48-24,.56.27,1,.51,1.39.71C56.36,71,57.07,75.65,58.13,82.73ZM49,57.51a47.8,47.8,0,0,0,5.17,10.43c-.56-.31-1.37-.79-2.25-1.31l-.81-.48A13.21,13.21,0,0,1,48.33,64c-.3-.3-.48-.48-.75-.37a.48.48,0,0,0-.26.47c0,.64-.83.84-1.32.89a.43.43,0,0,0-.42.36c-.06.44.21.62,4.43,2.46l1.46.64c.06.92.3,4.6.68,8.83-.25.28-1.81,2.13-1.06,3.23.15.22.31.42.44.58l.11.14h0a3.62,3.62,0,0,1-1.1-.29c-.28-.11-.52-.21-.74,0a.47.47,0,0,0-.13.5,2,2,0,0,1-.07.37,4.11,4.11,0,0,0,.79,3.78,12.75,12.75,0,0,1,2.07,3.64L52,89c-.64-.23-1-.37-1.21-.06s0,.61.17.77a7.44,7.44,0,0,0,.53.56,9.23,9.23,0,0,1,3,5.15,24.91,24.91,0,0,1,.36,3.67c-.73-.8-1.49-1.67-2.22-2.53l-.08.07a36.78,36.78,0,0,1-3.16-7.28c-.68-2.24-1.27-4.53-1.78-6.83A13.58,13.58,0,0,0,49,79.08c.32-1.07.31-1.65,0-1.94s-1,0-1.54.22l-.31.15a13.32,13.32,0,0,1,.17-2.59,8.3,8.3,0,0,0,.12-1.49A.46.46,0,0,0,47,73c-.16,0-.4-.07-1,.79A74.59,74.59,0,0,1,45.46,63c.14-6-.21-6.59-.42-7a.36.36,0,0,1-.05-.25,15.73,15.73,0,0,1,2.08-3.09A32.62,32.62,0,0,1,49,57.51Zm4.66-14.36a2.69,2.69,0,0,1,.36,0h.11a15.32,15.32,0,0,1,3.27.59,5.71,5.71,0,0,0,3.32.27A4.38,4.38,0,0,0,62,43.25a2.48,2.48,0,0,1-.2,1.69A3.52,3.52,0,0,1,59,46.48c-.78.12-1.53.19-2.24.23-.17-.72-.36-1-.67-.93s-.4,0-.48,1c-1,0-1.89,0-2.61,0-1.48,0-2,0-2.21.24,0,0-.61.72-1.43,1.71a11,11,0,0,0,1.4-2.12,6.31,6.31,0,0,1,.66-1.73A11.55,11.55,0,0,0,53.67,43.15Zm-3.58,3.29a32.44,32.44,0,0,1-2.5,3.43c0-.17-.07-.37-.11-.63h.07a5.4,5.4,0,0,1,2.82-3.83A5.54,5.54,0,0,0,50.09,46.44Zm-3.61.2c0,.42.08,1,.17,1.8A14.45,14.45,0,0,0,47,50.58L45.09,53A36.93,36.93,0,0,1,46.48,46.64Zm1.48,5h-.08l.09-.11h.13A.21.21,0,0,1,48,51.68Zm.34-.52c1.28-1.62,2.55-3.15,3-3.67a5,5,0,0,1,1.19,0,10.71,10.71,0,0,0-.71,4.62c0,3.81-.21,6.09-.34,7.3-.47-1.17-.91-2.39-1.29-3.64C49.18,52.58,48.65,51.52,48.3,51.16ZM52,60.62h0a51.56,51.56,0,0,0,.51-8.56c0-4.25.81-4.52.82-4.52h-.06l0-.07h.78c-.78,1.06-1.22,3.69-1.32,7.86-.08,3.43-.07,5.59,0,7Q52.33,61.49,52,60.62Zm3.68-9.31c.05,1.47.11,2.93.16,4.32.21,5.33.42,10.84,0,11.76a12.3,12.3,0,0,1-2.28-3.46,73.57,73.57,0,0,1-.07-8.58c.13-6,1-7.33,1.32-7.63.1-.08.15-.08.15-.08l.07-.16h.6C55.57,48.28,55.58,49.49,55.64,51.31ZM69.21,64.93a.49.49,0,0,0,.55-.12,13.18,13.18,0,0,0,1-1c.37-.42.94-1.07,1.37-1.51l-.08.32c-.21.81-.31,1.21-.11,1.46l.17.17h.18a.76.76,0,0,0,.24,0c-.1.24-.25.54-.37.79-.66,1.36-.91,1.94-.65,2.3a.49.49,0,0,0,.48.2,4,4,0,0,0,.6-.12c-.21.38-.6,1-.93,1.55-1.48,2.38-1.67,2.79-1.49,3.11l.15.2h.21a3.23,3.23,0,0,0,1.15-.47l.44-.23c-.25.42-.65,1-1,1.55-2,3-2.58,4.08-2.27,4.57a.49.49,0,0,0,.43.23h.08a12.32,12.32,0,0,0,2.94-1,2.58,2.58,0,0,0-.77.81c-1.24,2.06-1,3.17-.82,3.66a2.85,2.85,0,0,0-.45,1.15c0,.18-.12.44-.18.63-.08-.15-.16-.31-.24-.47-.28-.58-.55-1.12-1-1.23a.81.81,0,0,0-.7.18,10.22,10.22,0,0,1-2.33,1.24c.17-.4.5-1.08.83-1.74,1.23-2.52,1.3-2.71,1-3L67.31,78l-.23.15a20.49,20.49,0,0,1-3.95,1.13l.08-.12c.3-.44.54-.79.35-1.11a.59.59,0,0,0-.61-.25c-.91.06-1.65.1-2.18.11.73-.62,1.49-1.58,1.41-2a.42.42,0,0,0-.4-.36h0a4.64,4.64,0,0,1-.75-.72,7.16,7.16,0,0,0-1.53-1.36c.35-.14.73-.27,1-.36l.23.5c.47,1,.76,1.63,1.2,1.73l.22,0,.13-.09c.33-.23.46-.92.73-2.85a17.33,17.33,0,0,1,.74-3.63c.11.21.26.54.36.76.34.75.48,1.09.8,1.05l.27,0,.09-.21a1.69,1.69,0,0,0,.09-.59,7.69,7.69,0,0,1,.48-2.41A10.73,10.73,0,0,0,66.23,66c.36.63.59,1,.91,1h.26l.12-.13a4.54,4.54,0,0,0,.52-1A18.49,18.49,0,0,1,69,64a2.72,2.72,0,0,1,0,.32C69,64.53,69,64.8,69.21,64.93Zm2,15.53A4.63,4.63,0,0,1,72,78.22Q71.61,79.36,71.22,80.46ZM59.5,72.63a1.63,1.63,0,0,1,.37-.64,1.09,1.09,0,0,1,.32.41ZM62.73,96c-1-.82-2.45-10.75-3.31-16.71l-.54-3.64-.12-.81h0c.07-.32.15-.63.24-.93a6.14,6.14,0,0,1,1.47,1.28,4.85,4.85,0,0,0,.9.84,4.86,4.86,0,0,1-1.69,1.65c-.37.13-.41.35-.37.5.07.33.1.48,3.44.26l-.16.24a6.5,6.5,0,0,0-.35.56.44.44,0,0,0,.08.54c.49.45,3.13-.38,4.42-.84-.23.51-.59,1.25-.86,1.8-.43.88-.84,1.71-1,2.06a.53.53,0,0,0,.16.63c.73.52,3.34-1.31,3.36-1.33a.23.23,0,0,1,.1-.05h0c.14,0,.4.55.54.85a7.45,7.45,0,0,0,.41.77.7.7,0,0,0,.29.27C67,90.64,63.56,95.52,62.73,96Zm11-19.61a2.7,2.7,0,0,0-.55,0,40.17,40.17,0,0,0,1.41-8.58c.07-1.29.19-2.22.33-3.4s.29-2.34.46-4.24c.23,5.21.29,10.56-1.19,16.23A3.84,3.84,0,0,0,73.73,76.44Zm6.65-11.75A5.5,5.5,0,0,1,79,68.88c-2.11,2.6-2.56,4.57-1.75,7.52a6.77,6.77,0,0,0,1,2.32,9.71,9.71,0,0,0-3.45-2.06c1.58-6,1.43-11.72,1.17-17.24a15.34,15.34,0,0,0,2.33,2.65,14.23,14.23,0,0,1,2,2.24A1.43,1.43,0,0,0,80.38,64.69ZM81.6,79c-.48-.54.53-6,2.69-9.16a3.66,3.66,0,0,1,3-1.9,26.62,26.62,0,0,1-.48,5.39C86.23,76.8,82.38,79.13,81.6,79Zm-1.94-.46-.08.25a.27.27,0,0,1-.18,0c-.2-.09-.89-.54-1.44-2.56-.76-2.76-.36-4.43,1.62-6.88a6.39,6.39,0,0,0,1.52-3.71,9.79,9.79,0,0,1,.39,1C82.2,68.85,81.55,73.07,79.66,78.55Zm-4.56-25v.05l-.34-.78a15.91,15.91,0,0,1-.88-2.31,6.7,6.7,0,0,1,1.19,1c0,.21,0,.41,0,.63C75.07,52.55,75.09,53,75.1,53.51ZM75,55.56c0,.28,0,.55,0,.82-.33-.54-.62-1-.8-1.37l.22.19A1.21,1.21,0,0,0,75,55.56ZM72.42,83.32a37.18,37.18,0,0,0,2.26-6,8.92,8.92,0,0,1,4.18,3.07c.11.2.11.2-.17.48-.83.84-2.56,2.59-2.07,11.74a6,6,0,0,1-1.5.68l.12-.18a1.6,1.6,0,0,0,.4-1.07l-.09-.24-.16-.08c-.31-.15-.77,0-2,.64.83-1,1.74-2,2-2.29s.4-.42.22-.69-.46-.17-.83,0a5.76,5.76,0,0,1-.85.28c.07-.2.2-.48.29-.67.3-.63.51-1.08.28-1.4a.47.47,0,0,0-.28-.18c.07-.16.18-.39.27-.56a4.2,4.2,0,0,0,.52-1.35.57.57,0,0,0-.21-.5c-.53-.44-2.31-.06-3.37.22C71.8,84.61,72.1,84,72.42,83.32Zm-7.15,12.6a89,89,0,0,0,5.94-10.15l.07.23a9.23,9.23,0,0,1,3.07-.49,4.86,4.86,0,0,1-.43,1c-.31.61-.53,1-.31,1.37a.49.49,0,0,0,.29.19c-.07.18-.18.42-.26.59-.31.65-.55,1.17-.3,1.51a.54.54,0,0,0,.54.2,3,3,0,0,0,.41-.08c-.78.87-1.94,2.21-2.56,2.92-1,.53-2.25,1.13-3.58,1.7a12.11,12.11,0,0,0-4.58,3.73A29.64,29.64,0,0,1,65.27,95.92Zm8.32,13.38a2.2,2.2,0,0,1-.54.28l-.2.08a.46.46,0,0,0-.31.43c0,.37.41.55,1.14.87a8.72,8.72,0,0,1,.89.43h-.37a.51.51,0,0,0-.52.31c-.16.41.28.87,1.14,1.7a8.75,8.75,0,0,1,.66.68c.22.28.39.7.27.94s-.41.29-.89.29h0a18,18,0,0,1-4.86-.91.61.61,0,0,0-.71.12c-.34.37-.07,1,.41,2.11l.1.23a13.45,13.45,0,0,1-2.52-1.32.6.6,0,0,0-.6-.15c-.26.11-.28.39-.29.59,0,.38-.08.47-.27.5-.4,0-2.06-1.27-3.71-2.94-.1-1.54-.17-3-.19-4.43a5.47,5.47,0,0,1,.83-.8c.11-.09.29-.22.51-.36,2.43-1.27,9.36.71,9.94,1.24Zm5.2-13.58c-.59.31-.85.45-.79.78a.42.42,0,0,0,.43.33l.25,0c-.88.37-2.14,1-2.17,1.53a.48.48,0,0,0,.32.47,2.17,2.17,0,0,0,.74.14h.14a1.87,1.87,0,0,1-.09.21c-.32.66-4.25,2-7.58,2.74l-.37.08c-1.51.35-1.7.39-1.7.76s.36.42.81.52a17,17,0,0,0,3.65-.33l.49-.07c-.24.16-.34.31-.29.54s.54.34.81.33.76-.06,1.11-.1a4.38,4.38,0,0,1,2,0,6.23,6.23,0,0,1,1.27.66,3,3,0,0,1-1.22.49A5.05,5.05,0,0,1,75,105c-.26,0-.48,0-.63.16l-.11.24.08.18a1.35,1.35,0,0,0,.18.29l.08.1-.2.05a7,7,0,0,1-1.47,0c-.76,0-1.11,0-1.25.26a.43.43,0,0,0,.08.48,2.3,2.3,0,0,0,.53.39l.3.19-.38.07a5.33,5.33,0,0,1-2.79-.38,23,23,0,0,0-2.29-.64,5.32,5.32,0,0,0-4,1c-.08,0-.16.07-.23.12l0,0a7.63,7.63,0,0,0-.72.56l0,0c0-.7,0-1.38,0-2l.16.09s.83-1.41,4.3-4.38l.3-.28,0,0c3.16-3.3,9.86-6.44,9.93-6.47l-.3-.64a51.86,51.86,0,0,0-7.23,4.17A10.48,10.48,0,0,0,71,95l-.7-.11a11.69,11.69,0,0,1-4,6.32,31.56,31.56,0,0,0-4,3.89,29.77,29.77,0,0,1,.42-3.84c.37-.71,2.37-4.26,5.72-5.71,1.19-.51,2.28-1,3.24-1.53l.16.14.34-.39.62-.32c.76-.39,1.54-.79,2-1l-.14.22c-.25.39-.49.75-.28,1.07s.62.24.78.22a6.54,6.54,0,0,0,2-.86l.23-.13a.38.38,0,0,0,0,.26.55.55,0,0,0,.56.22,7.5,7.5,0,0,0,1.31-.31l.31-.09.16.34c-.58.6-.82.9-.7,1.21a.44.44,0,0,0,.41.27,2.76,2.76,0,0,0,.55-.05l.1,0A4.86,4.86,0,0,1,78.79,95.73Zm1.29-1.57H80l0,0Zm.76-13.46c-.07.18-.2.41-.35.71a12.81,12.81,0,0,0-1.19,11l-.24.07-.78.21a.78.78,0,0,0,0-.27l-.06-.26-.17-.09c-.2-.1-.42,0-.75.13-.42-8.53,1.19-10.17,1.88-10.86a1,1,0,0,0,.29-1.32,4.43,4.43,0,0,0-.61-.8,1.23,1.23,0,0,0,.66.24.65.65,0,0,0,.71-.49l.08-.24c.18-.53.37-1.08.54-1.65a4.55,4.55,0,0,0,.06,2.13.66.66,0,0,0,.51.43h.13l.16,0A2.87,2.87,0,0,0,80.85,80.7ZM109.38,66l-.5.41c-1.61,1.3-1.86,1.57-1.82,1.89l.05.23.18.08.25.1c.17.07.54.21.79.33l-.32.29-.94.86a4.11,4.11,0,0,1-2,.8c-.36.06-.64.11-.66.43s.3.41.47.46a4.21,4.21,0,0,0,1.07.13,2.31,2.31,0,0,1,1.55.43c.39.31.74.55,1,.71a6.46,6.46,0,0,1-4,1.28c-.84,0-1.79-.14-2.63-.23-2.29-.24-3-.29-3.33.13a.51.51,0,0,0,0,.54,8,8,0,0,0,2.68,1.81l.74.41a.43.43,0,0,0-.36.34c0,.2.07.37.31.51a2.76,2.76,0,0,0,.57.22,2.34,2.34,0,0,1,1.39.9,14,14,0,0,0,.91,1.09c.17.19.38.42.49.57a5.6,5.6,0,0,1-2.11.3,2.3,2.3,0,0,1-1.09-.48c-.23-.16-.45-.31-.69-.17a.44.44,0,0,0-.2.45,2.9,2.9,0,0,0,.11.47,2.71,2.71,0,0,1,.13.63.36.36,0,0,1-.18,0A8.71,8.71,0,0,1,99,80.66c-1.06-.74-1.38-.94-1.68-.82a.44.44,0,0,0-.26.35c0,.15-.11.51-.22.58a.23.23,0,0,1-.16,0,2.58,2.58,0,0,1-.58-.45,13,13,0,0,0-4.5-2.69c-2-.78-4.77-.32-7,.53.19-.16.38-.33.57-.52a.63.63,0,0,0,.5,0,4.84,4.84,0,0,0,1.12-.53c1.4-.79,3.75-2.1,6.28-1.34a42.55,42.55,0,0,1,5.7,2.35,5.93,5.93,0,0,0,1.58.65.31.31,0,0,0,.26-.15l.15-.28-.18-.22a10.13,10.13,0,0,0-2.4-1.24,25.12,25.12,0,0,1-4.46-2.36c.58-.38,2.88-1.54,5.1-2.67,7.38-3.73,9.11-4.71,9.23-5.23l0-.21-.28-.37C108.36,66,109,66,109.38,66ZM95.5,72.27a.51.51,0,0,0,.28.32h0a22.33,22.33,0,0,0-2.65,1.47.53.53,0,0,0-.18.48,1,1,0,0,0,.39.57l-.07,0a6.09,6.09,0,0,0-1.75-.25l-.54,0a42,42,0,0,0,4.82-3.75A1.66,1.66,0,0,0,95.5,72.27Zm10.69-6.33a.59.59,0,0,0,.61.19c.23,0,.6-.07,1-.09l-.26.14c-3.77,2-9.83,5.18-11.3,5.68A11.07,11.07,0,0,1,97,70.54c.45-.72.59-.93.34-1.17a.4.4,0,0,0-.54,0c-.17.11-.48.38-1.06.89a36.86,36.86,0,0,1-6.1,4.59c-1.43.75-2.63,1.31-3.43,1.68l-.11.05a7.06,7.06,0,0,0,1.38-3.12A28.75,28.75,0,0,0,88,68a6,6,0,0,1,1,.29,3.2,3.2,0,0,0,.4.13c.16,0,.47.1.64-.13a.54.54,0,0,0,0-.61l0,0c.26.09.59.24.83.34a6.3,6.3,0,0,0,1.21.45.68.68,0,0,0,.68-.17.61.61,0,0,0,0-.65c.27.07.63.18.9.27a8.63,8.63,0,0,0,1.28.35l.27,0c.53.07.95.13,1.17-.16a.52.52,0,0,0,.11-.32c.28,0,.71.14,1,.22a5.53,5.53,0,0,0,1.88.27c.14,0,.47-.09.51-.4s-.22-.44-.44-.56a2.49,2.49,0,0,1-.35-.21,18.25,18.25,0,0,1,2.78-.8h0a.46.46,0,0,0,.12.46l.21.16.21-.09c.09,0,.41-.22.84-.46.75-.43,2.52-1.43,3.38-1.78l-.15.28C106.17,65.31,106,65.65,106.19,65.94Zm-3.58-2.61a6.7,6.7,0,0,1-.35,1.45c-.18-.1-.38-.22-.62-.38a3.65,3.65,0,0,0-.46-.26A5.18,5.18,0,0,1,102.61,63.32ZM81.76,48.92l.29,0,.09-.22A10.68,10.68,0,0,1,83.1,47c1,1.47.91,5,.84,7.52s-.08,3.76.42,4.19a.62.62,0,0,0,.52.14c1.06-.19,1.34-3,1.12-11.23,0-.74,0-1.36,0-1.7a.55.55,0,0,0,.51.18.5.5,0,0,0,.36-.39,11.8,11.8,0,0,0,0-2.48c0-.38,0-.83-.06-1.25v0c.16.5.25.78.57.78h0c.11,0,.31,0,.41-.36a24.93,24.93,0,0,1,2.36-5.08h0a30,30,0,0,1,.32,3.47c.18,3.13.32,4.54.83,4.89a.52.52,0,0,0,.46.07c.61-.19.94-1.36,1.47-4.07.07-.34.14-.73.21-1a.55.55,0,0,0,.46.36.54.54,0,0,0,.47-.33,7.21,7.21,0,0,0,.38-1.25c.06-.22.13-.5.21-.77a.51.51,0,0,0,.27.37.61.61,0,0,0,.57-.07c.28-.16.47-.62.81-1.5a10.91,10.91,0,0,1,.56-1.28,5.51,5.51,0,0,1,.26,1.27c.08.64.13,1,.47,1.12a.5.5,0,0,0,.54-.23c.26-.32.81-.91,1.3-1.4a.37.37,0,0,0,.1.35.43.43,0,0,0,.53.07,4.4,4.4,0,0,0,.9-.77c.29-.28.81-.78,1.16-1a5.62,5.62,0,0,1-.36.93,2.56,2.56,0,0,0-.29.88.34.34,0,0,0,0-.07l-.08-.2-.21,0c-.08,0-.17.06-.33.2h0l0,0c-1.23,1.09-4.95,5.89-8.17,10.83a79.56,79.56,0,0,0-7.42,15.21l-.13.35a4.23,4.23,0,0,0-.14-1.49c-.37-1-4.61-15.14-4.65-15.29l0-.05C81.24,48.64,81.42,48.92,81.76,48.92Zm15.69-5a10.33,10.33,0,0,0,1.39-.78l-.94,1c-2.38,2.5-4,4.24-5.09,5.46q.34-.55.7-1.1c1.22-1.88,2.37-3.52,3.39-4.93a.32.32,0,0,0,0,.23A.43.43,0,0,0,97.45,44Zm-6.24,9c-.21.18-.42.36-.6.55l.28-.52h.32ZM85.9,65.17h0l-.51.26,0,0a7.27,7.27,0,0,0,.41-1A1.16,1.16,0,0,0,85.9,65.17Zm-1,.53.07,0a1.25,1.25,0,0,0-.31.29c-.11.16-.2.32-.29.47a64.39,64.39,0,0,0-.59-6.64c.42,1.37.73,2.37.82,2.62a6.23,6.23,0,0,1,0,2C84.53,65.26,84.51,65.58,84.85,65.69Zm-8-13.13a.56.56,0,0,0,.4-.32,6,6,0,0,0,.22-2,7.37,7.37,0,0,1,.25-2.32,1,1,0,0,1,.12.32c0,.18.11.45.4.48a.47.47,0,0,0,.46-.32A9.66,9.66,0,0,0,79,47.16a19.58,19.58,0,0,1,.74-2.25c.16.37.38.92.59,1.47l.14.36-.18,0a.5.5,0,0,0-.52.15c-.69.79.84,5,1.85,7.37,1.79,4.19,2,13.32,1.94,13.9l-.1.34.67.21.11-.33a8.59,8.59,0,0,1,.93-1.93c.46-.65,6.71-2.8,10.07-3.95,2-.69,3.58-1.23,4.1-1.47.36-.17.36-.38.3-.53C99.49,60,99.5,60,93,62.27c-2.65.9-5.45,1.87-6.46,2.24.19-1.5,2.27-7.48,4.08-9.91,1.4-1.87,4.59-3.32,6.71-4.28a8.92,8.92,0,0,0,2.14-1.13.39.39,0,0,0,.08-.54c-.24-.32-.24-.34-3.6,1.36-1.34.68-3.2,1.62-4.2,2,1.14-1.5,4.81-5.37,6.72-7.37,1.39-1.46,2.12-2.23,2.29-2.45s.15-.5,0-.61c-.27-.29-.55-.11-1.89.74l-.94.58c.81-1.32,2.79-4,3.68-5.11a.71.71,0,0,0,.17-.32.51.51,0,0,0,.49.48,4.23,4.23,0,0,1,.64.13l-.3.15c-.64.32-1.06.53-1,.91a.48.48,0,0,0,.39.42,6.92,6.92,0,0,0,.83.15l.64.11-.68.48c-1.26.87-1.67,1.18-1.57,1.58a.46.46,0,0,0,.42.34c.17,0,.39,0,.63.05a5.94,5.94,0,0,1,1.12.14,21.75,21.75,0,0,1-1.84,1.49c-3.19,2.45-4.06,3.25-3.64,3.83s1.35.17,2.75-.49l.05,0a.55.55,0,0,0,0,.62.5.5,0,0,0,.58.17,18.69,18.69,0,0,1,1.9-.34l-.2.17c-.74.63-1.15,1-1.07,1.42a.48.48,0,0,0,.23.32l-.12,0c-.92.28-1.3.39-1.31.77a.42.42,0,0,0,.33.41,4.9,4.9,0,0,0,.57.14l-.67.22c-1.71.56-2.08.72-2.08,1.11a.43.43,0,0,0,.33.41c.17.05.37.1.56.14h0l-.29.11c-1.51.58-5,1.94-7.3,4.26C90.32,59,89.62,60.25,90,60.85c.09.14.39.45,1.1.18a4.36,4.36,0,0,0,1.42-1.36c1-1.17,2.26-2.76,4.16-3.07l2.19-.36.26,0c-1.16,1.41-1.47,2-1.3,2.39a.51.51,0,0,0,.45.31,9.33,9.33,0,0,0,2-.29l.19,0a.43.43,0,0,0,0,.26c.08.35.5.42.68.45a7.57,7.57,0,0,0,1.35,0c.29,0,.67,0,.94,0a12.67,12.67,0,0,1-1.25.84c-1,.64-1.4.88-1.34,1.25a.45.45,0,0,0,.35.36,4.46,4.46,0,0,0,.71.1l.31,0c-.41.17-1.25.4-1.84.56-1.9.52-2.51.72-2.57,1.18a.49.49,0,0,0,.29.49,3.23,3.23,0,0,0,1.36.33,3.33,3.33,0,0,1,1.75.53c.32.21.57.36.79.48l0,.09-.4.1c-2.71.64-3.54.94-3.39,1.54a.81.81,0,0,0,.18.34l-.85-.19c-1.13-.27-1.6-.37-1.85-.08a.44.44,0,0,0-.09.38l-.43-.05-.29,0a8.59,8.59,0,0,1-1.15-.32c-1.11-.35-1.58-.49-1.85-.22a.44.44,0,0,0-.11.45,2.15,2.15,0,0,0,.09.25c-.23-.08-.54-.22-.83-.34-1-.43-1.46-.62-1.77-.39a.46.46,0,0,0-.18.43,1.29,1.29,0,0,0,0,.23c-1-.36-3.35-1.18-5.42,1.82A16.27,16.27,0,0,0,82,72.87a13.79,13.79,0,0,0,.17-6.44,10.87,10.87,0,0,0-3.31-4.88,14.56,14.56,0,0,1-2.29-2.63L76,58c-.07-1.47-.13-3-.17-4.49,0-.43,0-.88.06-1.35v0C76.25,52.45,76.54,52.61,76.81,52.56Zm7.61-21.82c-.48.61-1,1.26-1.44,1.81.19-.29.38-.61.57-.95a7.32,7.32,0,0,1,1.6-1.79Zm6.11-5.48a5,5,0,0,0,3.36-1.38,1.86,1.86,0,0,0,.2-.3,2.75,2.75,0,0,1-.12,2c-1.79,3.51-5.19,4.32-7.22,4.81a7.23,7.23,0,0,0-1.5.45C87,28.62,89.63,25.33,90.53,25.27ZM85.08,25c.54-.21,1-.38,1.43-.52,1.53-.53,2.54-.88,2.35-2.41a4.63,4.63,0,0,1,0-.83,3.83,3.83,0,0,1-.08,4.29,18.39,18.39,0,0,1-3,2.92,11.57,11.57,0,0,0-2.79,2.85c-.31.56-.63,1-.92,1.46a5,5,0,0,0,.91-3C82.85,29.37,82.26,26.07,85.08,25Zm-2.85,4.93c.25,1.2-1.8,4.19-2.77,5.1a33.57,33.57,0,0,1,1.1-3.72l.1-.29a15.52,15.52,0,0,1,1.48-3A6.3,6.3,0,0,0,82.23,29.89Zm-.53-7.71C82.76,21,83.4,20.34,83,19.41c0-.11-.06-.18-.07-.21a.71.71,0,0,1,.49.29l.11.19a4,4,0,0,1,.05,4.17A30.89,30.89,0,0,1,81.86,27,18.68,18.68,0,0,0,80,30.75l-.1.29-.17.52a3.83,3.83,0,0,0-.06-2.08A4.31,4.31,0,0,1,80,24.08C80.66,23.29,81.23,22.67,81.7,22.17Zm-3.64-1.59c0-.38-.09-.74-.09-1l.08,0c.54.27,1.65,2.83,1.67,3.3H80l-.58.68A5,5,0,0,0,79,29.87c.34.54-.55,4.56-1.57,8l.68.2c.15-.51.41-1.38.67-2.37a.49.49,0,0,0,.12.13.52.52,0,0,0,.63,0,8.46,8.46,0,0,0,1.75-2,.5.5,0,0,0,0,.53.52.52,0,0,0,.55.17A34.31,34.31,0,0,0,78.46,39a4.77,4.77,0,0,1-.49.73,12.38,12.38,0,0,0-1,1.51l0-.2c.23-1.25.32-1.77,0-2.31a10.19,10.19,0,0,0-1.14-1.43H76l.29-.18-.05-.29a2.77,2.77,0,0,0-.31-.7.46.46,0,0,0,.33-.38,4.27,4.27,0,0,0-.18-1.61h.14c0,1.58.24,1.79.36,1.9a.48.48,0,0,0,.34.14h.06a.64.64,0,0,0,.46-.32c.56-.87.59-4.28.26-5.32a7.89,7.89,0,0,1-.29-1h-.24l0-.26c.06-.66.12-1.29.17-1.82a7.83,7.83,0,0,0-.89-4.28C77,22.77,78.2,21.86,78.05,20.58ZM73.6,32.06A5,5,0,0,1,73,31c.26.17.62.42,1.08.77a5.89,5.89,0,0,1,1.46,3.19c-.17-.26-.38-.57-.57-.87C74.57,33.49,74.11,32.78,73.6,32.06Zm1,3.33a38.48,38.48,0,0,1-2.61-3l.11.05A14,14,0,0,1,74.6,35.39ZM77,30.86A13.11,13.11,0,0,1,77,35.19,22.77,22.77,0,0,1,77,30.86Zm-2.55-9.41a8.08,8.08,0,0,1,2.16,5.87c-.06.54-.12,1.17-.18,1.83,0,.24,0,.45-.05.67a21.13,21.13,0,0,1-1.87-3.66c-1.28-3.06-.7-5-.51-5.51A1.55,1.55,0,0,0,74.48,21.45ZM73.72,20a1.43,1.43,0,0,1,.37-.24v.06a2,2,0,0,0-.08.63l-.24-.12-.24-.12Zm-.4.46c-.26.74-.75,2.82.56,5.94a15.32,15.32,0,0,0,2.44,4.43c-.06.88-.1,1.62-.12,2.22a5.83,5.83,0,0,0-1.1-3l-.22-.2c-.93-.82-2.48-2.2-2.44-6A6,6,0,0,1,73.32,20.49Zm1.1,9.93.21.19a3.55,3.55,0,0,1,.69,1.61,3.34,3.34,0,0,0-.84-1c-.86-.64-1.36-1-1.56-1.08h0a3.2,3.2,0,0,0,0-1.38A7.66,7.66,0,0,0,74.42,30.42ZM66.06,23a1.63,1.63,0,0,0,1.05,1.19c1.06.52,4.77,3.28,5.09,4.69a2.51,2.51,0,0,1,0,1.14,2.39,2.39,0,0,0,.46,2,1.31,1.31,0,0,0-.28-.18c-.27-.12-.65-.31-1.09-.55l-.14-.3a6.07,6.07,0,0,0-3.73-3.56,8.45,8.45,0,0,0-1-.33,4.14,4.14,0,0,1-.35-.79A4.5,4.5,0,0,1,66.06,23Zm4.12,7.6A13.87,13.87,0,0,1,67.12,28l0,0A5.25,5.25,0,0,1,70.18,30.56ZM59.67,27.43a2.41,2.41,0,0,0,2.07.93A5.2,5.2,0,0,0,62.85,28,4.81,4.81,0,0,1,66,27.65a11.62,11.62,0,0,0,3.24,3.1,12.54,12.54,0,0,1-2.56-.12,8,8,0,0,1-3.78-1.4l-.46.54a8.56,8.56,0,0,0,4.13,1.56,14.25,14.25,0,0,0,2,.15,10,10,0,0,0,1.59-.12l.59.35c.1.2.21.39.33.58s.38.52.81,1.05a4.89,4.89,0,0,0-4.09-1.43h-.7c-2.4,0-5.48-.93-6.45-2.5A9.09,9.09,0,0,1,59.67,27.43Zm.31,5a5.38,5.38,0,0,1,1.78-1.11v-.08a12.32,12.32,0,0,0,5.35,1.35h.7a4.31,4.31,0,0,1,3.85,1.46,35.76,35.76,0,0,1,4.75,5c.18.3.12.65-.09,1.82-.15.8-.35,1.95-.56,3.64a28.84,28.84,0,0,0-.68,5.94,2.74,2.74,0,0,0-1.31-.78.52.52,0,0,0-.49.2c-.31.42,0,1.24.83,3.16.21.48.47,1.09.61,1.51a3.06,3.06,0,0,0-.81-.53.49.49,0,0,0-.6.1c-.28.34-.09.84,1.56,3.45-.23,3.45-.47,5.34-.65,6.83-.15,1.19-.26,2.14-.34,3.45a39.59,39.59,0,0,1-1.25,8,17.44,17.44,0,0,1-3.16,1.24,29.1,29.1,0,0,1,2.19-3.66c1.26-1.92,1.41-2.2,1.35-2.46a.46.46,0,0,0-.26-.32c-.32-.15-.72.05-1.46.44l-.28.15c.3-.55.81-1.38,1.19-2a8.41,8.41,0,0,0,1.17-2.13.54.54,0,0,0-.17-.49c-.21-.17-.46-.1-.73,0l-.37.1a13.16,13.16,0,0,1,.64-1.44c.47-1,.63-1.32.57-1.58a.53.53,0,0,0-.3-.41.52.52,0,0,0-.47.05c0-.19.1-.41.14-.58a5.77,5.77,0,0,0,.24-1.2.42.42,0,0,0-.26-.42c-.37-.14-.73.16-2.48,2.15l-.51.57a1.18,1.18,0,0,0-.26-.66.45.45,0,0,0-.43-.16c-.44.06-.79.72-1.59,2.53l-.26.58c-.1-.15-.22-.35-.3-.5a6.08,6.08,0,0,0-.37-.6c-.11-.15-.26-.33-.51-.27s-.29.29-.32.51A8.81,8.81,0,0,1,65.2,67a8.88,8.88,0,0,0-.47,2A3.09,3.09,0,0,0,64.11,68L64,67.91h-.11c-.93,0-1.19,1.6-1.58,4.33-.1.73-.24,1.67-.36,2.14a11.4,11.4,0,0,1-.57-1.14c-.5-1.1-1-2-1.6-1.93-.49.09-.9.86-1.2,1.72l-.1.06c-.57-4-.59-5.27-.47-11.32l.06-2.64c.12-5.82.23-10.89.27-11.83l.76-.1a4.17,4.17,0,0,0,3.31-1.9,3.22,3.22,0,0,0,.13-2.62.5.5,0,0,0-.34-.3.57.57,0,0,0-.5.22,3.51,3.51,0,0,1-1.24.75,4.16,4.16,0,0,1-2.3-.15c0-.2,0-.41,0-.63A6.68,6.68,0,0,1,59.81,41a8.27,8.27,0,0,1,2.7-1,11.22,11.22,0,0,0,4.31-1.85,4.32,4.32,0,0,0,1.77-3,3.56,3.56,0,0,0-.41-2.22L68,32.73H67.8c-.27,0-.42.27-.61.58a2.63,2.63,0,0,1-.5.65c-.47.38-2.38.57-4.06.74-2.4.24-3.28,2.41-3.78,4.28a4.32,4.32,0,0,1-.68,1.42c0-1.72,0-3.74.05-5.82A6.41,6.41,0,0,1,60,32.47Zm-1.49,8.69a5.12,5.12,0,0,0,1-2c.47-1.75,1.21-3.56,3.16-3.76,2.58-.26,3.86-.43,4.43-.89a3,3,0,0,0,.64-.79,3.47,3.47,0,0,1-1.38,3.83,10.48,10.48,0,0,1-4.05,1.73,8.77,8.77,0,0,0-2.93,1.14A10.87,10.87,0,0,0,58.48,41.16ZM69.91,5.83a3.75,3.75,0,0,0,2.17-2.2A5,5,0,0,1,72.48,5L72,4.92A11.4,11.4,0,0,1,70.18,9a13.09,13.09,0,0,1-4.52,3.35l.29.65A13.56,13.56,0,0,0,70.76,9.4a12.12,12.12,0,0,0,1.79-3.87,7.76,7.76,0,0,1-.42,3.09c-.8,2.35-2.92,3.15-5,3.92a12.93,12.93,0,0,0-2.4,1.09,7.63,7.63,0,0,0-.71.69l.23-.34L64,13.84a16.25,16.25,0,0,0,3-4.7,4.28,4.28,0,0,0,.13-.91A8.59,8.59,0,0,1,69.91,5.83ZM66.33,8.95C66,10.33,64.3,12.39,63,14c-.38.47-.7.87-1,1.21a3.27,3.27,0,0,0,.2-1.15,2.16,2.16,0,0,1,.12-1.18l-.15-.11a5.4,5.4,0,0,0,.32-.56,11.4,11.4,0,0,0,2.79-4,6.48,6.48,0,0,0,.28-4.43C66.21,5.53,66.65,7.75,66.33,8.95Zm-7,8.38a7.94,7.94,0,0,0,.1-1.45c0-.23.51-.71,1-1.13s.72-.65,1.08-1.06c0,.14,0,.3,0,.48a8.36,8.36,0,0,1-2.28,4.38A8.77,8.77,0,0,1,59.31,17.33ZM63.43,4.22A3.18,3.18,0,0,0,64,1.75c0-.13,0-.29,0-.41a.78.78,0,0,1,.22.14,4.28,4.28,0,0,1,.91,1.34l-.59.31a5.93,5.93,0,0,1,.08,4.81A12.74,12.74,0,0,1,63,10.72a4.44,4.44,0,0,0,0-.6,13.91,13.91,0,0,0-.76-4.31A13.48,13.48,0,0,1,63.43,4.22ZM61.19,5.68l.09-.28a11.59,11.59,0,0,1,1,4.74,3.88,3.88,0,0,1-.77,2.39,10.51,10.51,0,0,1-1.59,1.69l-.12.11c.25-.48.56-1,.94-1.72a10.89,10.89,0,0,0,.95-6.11l-.7.1a10.34,10.34,0,0,1-.86,5.66,23.89,23.89,0,0,0-1.58,3.09,1.36,1.36,0,0,0-.21-.42,3.2,3.2,0,0,1,.21-4.81A10,10,0,0,0,61.19,5.68Zm-5-2.28c1.34.88,2.92,3.45,2.79,5.1h0a9.69,9.69,0,0,1-.84,1,16.24,16.24,0,0,0-1.09-2c-.26-.44-.56-.94-.89-1.51a4.31,4.31,0,0,1-.56-3.08A2.37,2.37,0,0,0,56.21,3.4Zm-9.11,1a4.59,4.59,0,0,1,1-2.73c0,.75.92,1.69,2.4,3.23A24.35,24.35,0,0,1,53.86,8.9a6.89,6.89,0,0,1,.8,5.33l-.5-.51a35.61,35.61,0,0,1-3-3.39,5.7,5.7,0,0,1-1.09-5.83l-.64-.31a6.38,6.38,0,0,0,1.17,6.58l.13.16a7.56,7.56,0,0,0-2.14-1.58A7.91,7.91,0,0,1,47.1,4.45ZM41,10.71s0-.09-.05-.13a9.38,9.38,0,0,0,4.65,2.83,14.83,14.83,0,0,0,2,.46,27.7,27.7,0,0,1-2.89-.49A5,5,0,0,1,41,10.71Zm11.12,4A2.39,2.39,0,0,0,50.59,14c.36,0,.59-.06.62-.07l-.12-.7a12.43,12.43,0,0,1-5.29-.55c-4.36-1.35-5-3.82-5-3.85l-.26.06a6.37,6.37,0,0,1,0-1,3.89,3.89,0,0,0,.43.69c.69.89,2,.93,4.26,1,.65,0,1.38,0,2.19.09a2.54,2.54,0,0,1,.75.17,22.37,22.37,0,0,0,3.37,3.62l.77.72c.32.3.61.6.87.89.32.48.6.93.83,1.31C53.34,15.85,52.71,15.26,52.11,14.72Zm1.61.05c-.38-.58-.81-1.2-1.27-1.81.48.52.88.93,1.21,1.25a3.89,3.89,0,0,1,.82,1h0l0,.08.31.87A17.08,17.08,0,0,0,53.72,14.77Zm1.63,3.13a.37.37,0,0,0,.1-.08v0l.19.44Zm-.14-2.78c0-.15.06-.31.1-.5a7.67,7.67,0,0,0-.84-6.08c-.12-.19-.26-.38-.39-.57l0-.13a6.19,6.19,0,0,1,.32-4.76,11.33,11.33,0,0,1,1.1-1.87,2,2,0,0,0-.14.88L55.19,2a4.8,4.8,0,0,0,.4,4.32c.33.57.63,1.08.9,1.52a8.16,8.16,0,0,1,1.13,2.25,3.85,3.85,0,0,0,.17,5.27c.44.55.14,3.07-.51,4.27A17.71,17.71,0,0,1,55.21,15.11ZM57,33.88c0-3.19.27-5.93.46-8.13a21.24,21.24,0,0,0,.15-4.57,2.89,2.89,0,0,0-.3-.77.59.59,0,0,0,.58-.32,6.7,6.7,0,0,0,.66-1.89c0,.51,0,.88.31,1.05a.66.66,0,0,0,.76-.1,6.56,6.56,0,0,0,1.6-2.06.41.41,0,0,0,.19.17h0a38,38,0,0,0-2.6,3.3c-.87,1.3-1.18,8-1.28,13.89l0,.12h0c0,2.56-.05,4.94,0,6.59h0l0,0c0,.42,0,.8,0,1.12a1.76,1.76,0,0,0-.17.36l.17,0V43l-.56-.14C56.9,41.92,56.91,39,57,33.88Zm-3.54,3.83a2.23,2.23,0,0,1,.06-.81l.09.08a6.31,6.31,0,0,1,.82,4,4.38,4.38,0,0,1-1.06,1.55,3.79,3.79,0,0,0-2.43,1.84c-.19.11-.39.21-.58.29a6.51,6.51,0,0,0-3,3c-.12-1.13-.13-1.75-.13-1.75H47l.7-.5c1.46-1,3.81-2.64,3.93-4.82C52,40.3,53.49,39,53.43,37.71Zm-7-4.76a4.74,4.74,0,0,1,.12-2,5.39,5.39,0,0,1,1.84-2.45c0,.42.06.78.09,1C48.59,30.07,47.51,31.67,46.48,33ZM53.42,24c1-.31,1.69-.51,2.07-1.14a4.27,4.27,0,0,0,.38-.83,4.1,4.1,0,0,1-1.3,4.38,32.76,32.76,0,0,1-2.94,2.14,18.41,18.41,0,0,0-2.77,2.11,2.49,2.49,0,0,0,.37-1.22c-.13-1.1-.44-3.67,1.84-4.61A23.87,23.87,0,0,1,53.42,24Zm-1.86-.14-.77.3a3.79,3.79,0,0,0-2.35,3.5l0-.07a6.61,6.61,0,0,0-2.49,3.13,5.17,5.17,0,0,0,0,2.88,8.31,8.31,0,0,1-.94,1,14.43,14.43,0,0,1,.16-1.84,10.46,10.46,0,0,0,.13-1.64c0-.26.2-.5.58-.9A5.67,5.67,0,0,0,47.28,28a2.2,2.2,0,0,0-.06-1.53,9.14,9.14,0,0,0,2.68-1.87,5.5,5.5,0,0,0,1.61-3.46,1.76,1.76,0,0,1,.16.47A2.84,2.84,0,0,1,51.57,23.89Zm-5.22,1.18a3.12,3.12,0,0,1,1.44-2.15c1.29-.68,2.64-1.8,2.75-3a4.4,4.4,0,0,1,.7.82l-.42,0a4.89,4.89,0,0,1-1.41,3.39,8.43,8.43,0,0,1-2.51,1.75,5.38,5.38,0,0,0-.64-.8Zm-2.84-2a2.09,2.09,0,0,0,.58,1.12l.18.13c1.89,1.32,2.68,2.49,2.35,3.46a5,5,0,0,1-1.29,1.94c-.44.46-.82.85-.78,1.44a2.92,2.92,0,0,1,0,.35A3.76,3.76,0,0,0,43.93,30a8.21,8.21,0,0,1-1.14-2.09,2.1,2.1,0,0,0,0-.65,1.23,1.23,0,0,0-.34-.61,3.54,3.54,0,0,1,0-1.65,6.23,6.23,0,0,1,.65-1.5h0s0,0,0,0a3.73,3.73,0,0,1,.42-.59Zm-3.77,8.29a4.64,4.64,0,0,1-.84-1.14l.78.14a6.43,6.43,0,0,1,.76.15A9.69,9.69,0,0,1,42,33.22,18,18,0,0,1,39.74,31.37ZM42.47,29l0-.05a7.49,7.49,0,0,0,.9,1.46c.63.75.74,3.16.52,3.93a21.38,21.38,0,0,1-1.32-3.16c-.12-.34-.23-.63-.31-.83A1.73,1.73,0,0,1,42.47,29ZM39.3,22a7.45,7.45,0,0,0,1.65.79,8.48,8.48,0,0,1,1.31.6,7.43,7.43,0,0,0-.46,1.08,5.06,5.06,0,0,0-.84-.54,7,7,0,0,1-1.12-.71A2.17,2.17,0,0,1,39,21.69,2,2,0,0,0,39.3,22Zm-1.71.82a7.38,7.38,0,0,1,1-2.23,1.89,1.89,0,0,0,.36,1h-.29l-.35,0a2.83,2.83,0,0,0,1.09,2.17,7.57,7.57,0,0,0,1.23.79c.56.31.91.51.94.79h0a4.23,4.23,0,0,0,0,.81,11.59,11.59,0,0,0-3.27-.54A2.92,2.92,0,0,1,37.59,22.81Zm-2.38,2.1a.94.94,0,0,1,.09.18c.22.52.57,1.07,1.91,1.15l.41,0c1.32.08,3.37.19,4.14.74a9.43,9.43,0,0,0,.3,1,4,4,0,0,1-.25.78v0a5.88,5.88,0,0,1-3.34-.32c-2.19-.93-2.35-1.92-2.35-1.93l-.35,0-.35,0c0,.14.19,1.41,2.78,2.51a6.34,6.34,0,0,0,2.46.48,6.55,6.55,0,0,0,.91-.06,1.82,1.82,0,0,0,.07,1.08c.07.19.17.46.28.77a3.7,3.7,0,0,0-1.2-1.54,5.53,5.53,0,0,0-.9-.19c-1.21-.2-3.47-.58-4.07-1.68A4.32,4.32,0,0,1,35.22,24.91Zm.21,5.36c-1.89.18-5.57-.73-6.55-2.19a2.26,2.26,0,0,1-.52-1.93l.09.09c.43.45,1.16,1.21,2.07.94a7.13,7.13,0,0,0,1-.42,3.48,3.48,0,0,1,1.54-.45h0c1.12,0,1.41.46,1.42.47l0,0a5.79,5.79,0,0,0,.57,1.56,2.4,2.4,0,0,0,.62.71,11,11,0,0,1-2.42-.1,5,5,0,0,1-2.67-1l-.51.49a5.45,5.45,0,0,0,3.07,1.2,12.68,12.68,0,0,0,1.83.14,7.07,7.07,0,0,0,1.65-.16v0a8.8,8.8,0,0,0,1.5.49l-.1,0A4.5,4.5,0,0,0,39,31.63l-.65-.5A2.93,2.93,0,0,0,35.42,30.27Zm8.75,6.21a10.38,10.38,0,0,0-2.11-2.43c.31.15.57.22.72.13a.4.4,0,0,0,.15-.16c.38.82.64,1.12.94,1.19a.49.49,0,0,0,.46-.15.6.6,0,0,0,.15.23.49.49,0,0,0,.43.12.85.85,0,0,0,.3-.15,3.06,3.06,0,0,0-.51,1.57c0,.51.1,1.34.22,2.19A9.91,9.91,0,0,0,44.18,36.48Zm0,8.27a53.52,53.52,0,0,1-.43,7c-.34-.46-.78-4.74-.72-5.49a1.5,1.5,0,0,1,.29-.33A3.16,3.16,0,0,0,44.17,44.75Zm-.43,7,0,.17-.09-.17,0-.06A.2.2,0,0,1,43.74,51.79ZM37.83,37.87a13.16,13.16,0,0,0,1.19.67,8.13,8.13,0,0,1,4.19,3.82c.84,1.89.16,2.56-.39,3.1a1.32,1.32,0,0,0-.5.78s.05,1.69.24,3.29a5,5,0,0,1-.41-2.12l0-.24a4.61,4.61,0,0,0-.3-3h0c0-.07.25-1.82-2-3.58a5.06,5.06,0,0,1-2.09-2.79Zm4.29,13.66c-.72-.94-1.73-2.36-2.71-3.79l.08,0c.6.25.8.34,1.09.84C41.06,49.43,41.68,50.61,42.12,51.53ZM36.7,36.31a2.19,2.19,0,0,0,.93,1.4l-.59,0c0,.07.13,1.69,2.38,3.42A4.69,4.69,0,0,1,41,43.11,9.23,9.23,0,0,0,40,42.25a26.87,26.87,0,0,0-2.66-1.64l-.82-.47C36.32,39,36.25,36.9,36.7,36.31Zm-1.9,3.06c0-.1.11-.14.09-.16a.7.7,0,0,1,.15.36c.15.68.85,1.07,1.9,1.65a26.27,26.27,0,0,1,2.6,1.6c2.17,1.54,2.13,2.49,1.95,4.13A9.43,9.43,0,0,1,38,45a7,7,0,0,1-2.67-3.91l-.7.1a7.5,7.5,0,0,0,2.93,4.37,9.77,9.77,0,0,0,3.9,2.11,5.1,5.1,0,0,0,.2,1.39l-.46-.81a2.39,2.39,0,0,0-1.42-1.14,16.2,16.2,0,0,1-3.28-1.86A4.66,4.66,0,0,1,34.8,39.37ZM35,46.5c-1-.35-2.12-.74-3.29-1.19-2.28-.88-3-3.95-3.07-5.11l.07.08a4,4,0,0,0,1.91,1.37,9.31,9.31,0,0,0,3.08.26,5.19,5.19,0,0,0,2.41,3.93,19.75,19.75,0,0,0,2.47,1.5l-.18.12.36.52A27.31,27.31,0,0,0,35,46.5Zm8.34,8.33c-.4-.56-.91-1.47-1.46-2.45l-.1-.18c.8,1,1,1,1.07,1.06l.29,0,.14-.19a.66.66,0,0,0,0-.48l.2.38.17.31.29-.08c.85-.24.93-8.59.92-8.67-.15-1.22.81-2.11,2.73-3.88l.24-.22c1.94-1.8,1.68-2.83,1.53-3.45v0c.4.2,1.21,1,1.58,2.92.41,2.13-2.1,3.87-3.6,4.9a7.15,7.15,0,0,0-1.15.89c-.84,1-2,7.61-1.84,8.44l.17.69.45-.55.71-.87a7.63,7.63,0,0,0-1.39,2.39,1,1,0,0,0,.14.61c.14.25.47.85.33,6.61,0,1.38,0,2.83.06,4.3-.07-.86-.14-1.7-.2-2.49C44.14,58.79,43.86,55.61,43.31,54.84Zm-26.58,39-.1-.09,0,0a.62.62,0,0,0,.35-.46.5.5,0,0,0-.19-.42c-.11-.1-.45-.33-1.15-.8-1-.65-3-2-3.77-2.7l.72,0c1.95-.11,2.63-.21,2.85-.59a.47.47,0,0,0,0-.46l-.15-.27a2.84,2.84,0,0,0-.2-.3.72.72,0,0,1,.31-.11,8,8,0,0,1,1.9.19c1.4.23,2.28.35,2.67,0a.56.56,0,0,0,.2-.43,3.05,3.05,0,0,0-.22-.94c0-.11-.09-.25-.12-.35L20,86a7.7,7.7,0,0,1,1.67.87c.7.44,1.08.68,1.41.52a.47.47,0,0,0,.26-.38c0-.12,0-.26,0-.4s0-.13,0-.2c.5.52,2.55,2.24,3.1,2l.25-.12v-.24a3,3,0,0,0-.08-.55c0-.16-.09-.45-.12-.69,1.26.89,7.32,5.12,8.46,4.71a.61.61,0,0,0,.45-.51c.07-.67-.89-1.44-5.16-4.11a11.93,11.93,0,0,0-6.06-2.17c-.31,0-.6-.05-.89-.1a2.16,2.16,0,0,1-1.25-.5,2.41,2.41,0,0,0-.86-.49,30.71,30.71,0,0,0-3.5-.47c-1.52-.17-3.83-.42-5-.65l.3-.08c.45-.12.83-.22,1-.58a.93.93,0,0,0-.29-.85,10.73,10.73,0,0,0-3-1.67c-.58-.26-1.31-.59-1.75-.83l.94-.19c2.6-.51,3.73-.8,4-1.29a.49.49,0,0,0,0-.44,2.81,2.81,0,0,0-.4-.59l1.37.37c2.84.81,5.07,1.38,5.84.9a.66.66,0,0,0,.31-.45c.15-.89-1.8-1.79-9.08-4.2-1.1-.36-2.15-.71-2.73-.93.3,0,.53-.07.58-.34l0-.29L9.57,71l-.27-.14c-1-.51-1.58-.84-1.91-1.05l.53,0c2.67-.09,3.9-.23,4.16-.83a.61.61,0,0,0-.14-.68A18.75,18.75,0,0,0,7.75,66c-1-.49-2.39-1.12-3-1.51.28,0,.62-.06.93-.09,1.09-.08,1.72-.14,1.92-.55a.56.56,0,0,0-.06-.58,9.28,9.28,0,0,0-2.31-1.64c-.48-.29-1.13-.69-1.53-1h.29c.41,0,.73,0,.88-.3a.5.5,0,0,0,0-.53,8.15,8.15,0,0,0-.9-1C3.08,58.12.6,55.64.72,55.09c.81-.19,3.43,1.36,4.85,2.19,1.64,1,1.89,1.09,2.17.93l.2-.14,0-.44a3.46,3.46,0,0,1,0-.74h0A9.81,9.81,0,0,1,9.32,58.5c1.11,1.44,1.54,1.95,2,1.88a.47.47,0,0,0,.37-.31A2.59,2.59,0,0,0,11.76,59a1.5,1.5,0,0,0-.07-.5,20.29,20.29,0,0,1,2.25,3.31c1.5,2.47,1.8,2.88,2.15,2.92h.21l.12-.12c.19-.19.3-.67.58-2.11a22.76,22.76,0,0,1,.55-2.4l.07.11c1.06,1.58,1.54,2.16,2,2.12a.47.47,0,0,0,.4-.26,4.86,4.86,0,0,1,.43-.68c.42,1.54,3.24,11.37,4.35,11.54a.45.45,0,0,0,.38-.12c.35-.32.33-1.3.19-3.82a21.33,21.33,0,0,1,0-3.58c.24.15.43.28.57.38s.5.36.76.25a.67.67,0,0,0,.33-.57c0-.15,0-.44.06-.79a11.1,11.1,0,0,1,.23-2.06,10.92,10.92,0,0,1,.94,1.59c.72,1.37,1.16,2.15,1.69,2.22a.58.58,0,0,0,.5-.2,5.5,5.5,0,0,1,.79-.76,8.84,8.84,0,0,1-.2,1.13c-.24,1.1-.36,1.74-.05,2.06a.52.52,0,0,0,.47.14,2.45,2.45,0,0,0,1.05-.72c-.13.5-.4,1.27-.65,2-1,2.84-1.06,3.35-.73,3.62a.43.43,0,0,0,.52,0,2.63,2.63,0,0,0,.78-1v0c-.09,2.49,1.32,11.12,3.13,14.35.19.42.5,1.1.82,1.83-1.36-1.78-3.7-4.69-7.53-8.85a1,1,0,0,0,0-.29c-.08-.51-.12-2.66-.16-4.94-.06-3.38-.13-7.2-.35-8.39l-.7.13c.21,1.13.28,5.09.34,8.27,0,1.9.06,3.5.11,4.4L26.81,78c-2.62-2.78-5.51-5.57-8.33-8.16a.75.75,0,0,0,0-.18c0-.45-.09-1.18-.14-1.95l.34-.06s-.3-1.8-.47-3.19c0-.24-.07-.6-.43-.56s-.51.07-.09,5.21C10.27,62.39,3.47,57.11,3.37,57l-.43.56C3,57.67,10,63.08,17.53,70c-1,.44-4.35.29-6.61,0l-.09.7A37.67,37.67,0,0,0,15,71a6.85,6.85,0,0,0,3.12-.49c2.79,2.56,5.63,5.31,8.22,8.06l1.48,1.59a17.48,17.48,0,0,1-2.94-.54c-1-.23-2.23-.52-3.63-.78a28.15,28.15,0,0,0-9.39-.07l.13.7a28.09,28.09,0,0,1,9.13.07c1.38.26,2.61.54,3.6.77a16.53,16.53,0,0,0,3,.55,1.39,1.39,0,0,0,.6-.12,114.17,114.17,0,0,1,8.54,10.24c.4.54.56.76.74.76a.4.4,0,0,0,.19-.06c.29-.16.19-.44,0-.8-.21-.55-.51-1.24-.8-1.91a.81.81,0,0,0,.77.06c.76-.38.51-1.94.27-2.71-.11-.36-.4-1.12-.77-2.09-.89-2.37-3.25-8.59-2.9-9.52a3.05,3.05,0,0,1,1.68.67c.43.28.72.47,1,.29a.51.51,0,0,0,.21-.54,11.39,11.39,0,0,0-.4-1.44c-.29-1-1-3.15-.81-3.67a2.76,2.76,0,0,1,1.25.67c.15.13.33.29.56.19l.22-.13v-.22s0-.11,0-.24c-.09-3.35.33-4.29.59-4.55a.23.23,0,0,1,.17-.09h0c.61,0,1.55,2.46,2,3.64.55,1.43.74,1.88,1.08,2l.23,0,.14-.11a6.75,6.75,0,0,0,.68-.75l.22-.27c-.24,1.73-.77,6.12,0,6.61a.48.48,0,0,0,.56,0,11.94,11.94,0,0,0,1.11-.88c.39,3.55.87,7.17,1.51,10.48a32.72,32.72,0,0,0,10.39,18.54L57,105l-.92-.18a32.52,32.52,0,0,0-8.3-.77,16.61,16.61,0,0,0-1.93.23,50.87,50.87,0,0,0-2.11-7.24.55.55,0,0,0-.5-.36c-.46,0-.75.56-1.24,1.56-.12.25-.26.52-.37.73a19.94,19.94,0,0,1-.46-2.17c-.08-.45-.15-.84-.21-1.09l.17,0c.34-.08.34-.11.19-1.74-.2-2.16-.66-7.22.18-8.52A54.46,54.46,0,0,0,44.4,80l-.64-.3a54.88,54.88,0,0,1-2.85,5.38,2.26,2.26,0,0,0-.16.3A40.09,40.09,0,0,1,41,81.11a46.07,46.07,0,0,0-.66-11.41l-.7.13c0,.06,1.2,6.55.65,11.2a68.81,68.81,0,0,0,.35,14.11.44.44,0,0,0-.21-.08c-.39,0-.59.36-.84.88A8.93,8.93,0,0,1,39,94.22c-.11-.53-.38-.65-.59-.65h0c-.48,0-.82.69-1,1.13-.17-.17-.39-.43-.54-.6a7.33,7.33,0,0,0-.7-.75.45.45,0,0,0-.53-.08c-.38.21-.38.8,0,3.33l0,.27a2.59,2.59,0,0,0-.85-.25.56.56,0,0,0-.57.24c-.29.46.1,1.38,1.63,3.77l.05.09a2.6,2.6,0,0,0-.83.08.5.5,0,0,0-.22.12,24.14,24.14,0,0,1-.78-3.07,18.62,18.62,0,0,0-5.77-7.94.47.47,0,0,0-.5,0c-.31.19-.28.64-.24,1.31,0,.12,0,.23,0,.35-.36-.22-.92-.64-1.37-1-1.83-1.37-2.63-1.9-3.13-1.61s-.29,1.73.3,3.76l.14.48-.3-.3-.18-.18a.41.41,0,0,0-.51-.08c-.28.17-.37.33.29,2.73a3.44,3.44,0,0,0,.33.76A42.58,42.58,0,0,1,16.73,93.8Zm-8.64,9.6,0-.06a.79.79,0,0,0-.47-1.15A7.07,7.07,0,0,1,6,101.13h.13c.86-.07,1.41-.13,1.66-.44l.05-.08.26.08c.48.16.93.31,1.21,0a.55.55,0,0,0,.14-.57.46.46,0,0,1,0-.36.79.79,0,0,1,.54-.22,2.67,2.67,0,0,1,.65.32c.44.26.76.45,1,.22a.52.52,0,0,0,.1-.62l-.08-.23-.1-.3c1,.32,2.77.84,3.32.48a.52.52,0,0,0,.24-.48,1.63,1.63,0,0,0-.25-.74c.31.08.73.21,1.08.32,1.49.47,2,.6,2.23.28a.44.44,0,0,0,0-.53,4,4,0,0,0-.5-.6l-.15-.16a8,8,0,0,1,5.56,1.07c.86.56,1.53,1.08,2.08,1.49,1,.74,1.39,1,1.77.9a.55.55,0,0,0,.34-.44c.09-.46-.39-1-1.48-2.25a11.05,11.05,0,0,1-2.28-3.16c-.16-.61-.27-1-.34-1.35.4.37.67.53.93.43a.45.45,0,0,0,.29-.4,5.1,5.1,0,0,0-.31-1.33,11.27,11.27,0,0,1-.61-2.92,13,13,0,0,1,2.33,1.53c1.51,1.13,1.9,1.38,2.25,1.22l.23-.16,0-.21a6.35,6.35,0,0,0,0-.85c0-.12,0-.27,0-.4A18.57,18.57,0,0,1,33.47,98c1,5.3,3.28,8.5,4.54,9.5a7.59,7.59,0,0,0-1.06.88l.05-.2c-1.24-.32-2.89-2.34-4.37-4.53l.09-.07c-2.93-3.8-3.32-9.25-3.32-9.3l-.71,0a21.26,21.26,0,0,0,.77,4.12l0-.07a68,68,0,0,0-4.65-7.09l-.56.43a67,67,0,0,1,4.59,7c2.41,4.27,5.46,9.22,7.81,10.06a.71.71,0,0,0-.08.19.46.46,0,0,0,0,.22c-1.07-.75-2.09-1.5-2.11-1.51h0a11.33,11.33,0,0,1-.82-1c-.07-.1-.27-.41-.6-.35a.42.42,0,0,0-.12.06,36,36,0,0,0-6.53-3,12.74,12.74,0,0,0-1.83-2.15,22,22,0,0,0-4.81-3.2l-.31.64A21.74,21.74,0,0,1,24,101.77c.51.52.88.93,1.14,1.25-1-.32-2-.64-3.17-.95-.92-.25-1.81-.44-2.67-.6a1.25,1.25,0,0,0-.39-.9,7.83,7.83,0,0,0-2.78-1.78l-.24.67A7.18,7.18,0,0,1,18.43,101a.84.84,0,0,1,.19.3,29.31,29.31,0,0,0-10.21-.1l.15.69a28.81,28.81,0,0,1,9.34,0c-.35.15-.78.29-1.19.43l-.59.2a19.07,19.07,0,0,1-4.07.83l.06.71a19.47,19.47,0,0,0,4.25-.87l.59-.2a6.46,6.46,0,0,0,2-.92c.91.16,1.85.37,2.83.63a51.13,51.13,0,0,1,6.05,2,3,3,0,0,0-.18,1.4,6.51,6.51,0,0,1-.64-.36,3.32,3.32,0,0,0-1.58-.66.53.53,0,0,0-.49.29c-.22.46.26,1.16,1.41,2.65l.29.37A31.38,31.38,0,0,0,21,110.09,16,16,0,0,1,17,111.33l0,.71a15.49,15.49,0,0,0,4.18-1.29A30.24,30.24,0,0,1,26,109.34l0,0v.22c0,.42.43.78,4.55,3.1.73.41,1.57.88,2.15,1.24l-.58-.07c-1.37-.18-3.43-.45-6.22-.55s-3.58.19-3.75.68a.65.65,0,0,0,.07.56c-1.17.07-2.43.11-3,.07.15-.34.3-.83.1-1.13a.51.51,0,0,0-.55-.2,15.5,15.5,0,0,1-3.9-.57c.15-.18.41-.44.63-.66.77-.77,1.21-1.22,1.13-1.63a.49.49,0,0,0-.3-.36,3.25,3.25,0,0,0-.65-.18l.22-.27a3.28,3.28,0,0,1,2.45-1.43c2.26-.23,3-.38,3.15-.88a.7.7,0,0,0-.29-.75c-.45-.4-1.87-.28-5.64.27-.77.11-1.6.23-2.14.29l.4-.42c1-1,1.44-1.5,1.23-1.95-.07-.15-.24-.33-.66-.29a23.75,23.75,0,0,1-4-.08c.17-.37.32-.88.13-1.11l-.18-.23-.25.12A9.73,9.73,0,0,1,8.09,103.4Z"/></g></g></svg>