<svg xmlns="http://www.w3.org/2000/svg" viewBox="0 0 88.43 217.12"><defs><style>.cls-1{fill:#fff;}</style></defs><title>כורכום</title><g id="Layer_2" data-name="Layer 2"><g id="Expended"><path class="cls-1" d="M74.51,125.76c4.14-.38,9.47-1.49,11.4-4.6l-.56-.35c-.72,1.16-9.1,4-10.92,4.29ZM82.84,123a15.13,15.13,0,0,1-3,1.16C80.89,123.78,81.92,123.39,82.84,123Z"/><path class="cls-1" d="M49.61,132.57h0l-.62.24h0c.29.78-1.39,6.4-2,7.57l.58.31C49,138.24,50.48,134.85,49.61,132.57Z"/><path class="cls-1" d="M73.6,123.07c-.26-1-1.1-9-.76-9.77a.2.2,0,0,1-.07.07l-.35-.56h0c-2.81,1.78.53,10.38.57,10.46Zm-1.48-8.76a48,48,0,0,0,.37,5.24C72,117.65,71.73,115.56,72.12,114.3Z"/><path class="cls-1" d="M40,127.93h0l-.16.29h0l-.16.29c1.91,1.08,3.78,6,5.18,11.36-1.76-1.8-5.52-6-5.65-6.6a.21.21,0,0,1,0,.1h0l-.62-.24h0c-1.11,2.91,5.65,7.37,6.6,8,1.37,5.57,2.18,11.26,1.94,13.17,0,.18-.08.34-.12.51l.62.22a1.77,1.77,0,0,0,.1-.39c.87-3.77-.26-10.1-1.65-14.86C44.73,135.13,42.34,129.27,40,127.93Zm-.79,6.56a48,48,0,0,0,3.42,4C41.16,137.23,39.67,135.73,39.24,134.5Z"/><path class="cls-1" d="M13.74,200.72a43.15,43.15,0,0,0,4.58-9l11.25-27c1.18-2.83,2.63-6.33,5.32-8.46,1.39,2.29,9.33,22.66,9.77,24.07l.51-.16c.22,1.36.45,2.72.67,4.07.61,3.76,1.25,7.64,1.91,11.45l.65-.11c-.67-3.8-1.3-7.69-1.91-11.44-.28-1.74-.58-3.51-.87-5.27h0a56.53,56.53,0,0,0-1.07-6.24q-.95-5.41-2.05-10.8c-.3-2.34-.49-4.7-.55-7v-.1c0-1.54-.09-3.29-1.05-4.63a4.43,4.43,0,0,0-2.53-1.66c-3.65-7.16-9.46-13-15.5-18.34,15.73,3.83,21.47,25.89,24.94,39.2l.17.65.12,0,.55.12c.17-.78.32-1.6.48-2.41h0v0c.21-1.11.41-2.23.6-3.33s.34-1.93.52-2.9l.27-.07c-.06-.22-.09-.44-.14-.66a56.78,56.78,0,0,1,2.39-9.22,19.43,19.43,0,0,1,2-3.51c1.26-1.91,2.56-3.89,2.7-5.81h0c.75-5.41-.13-11.46-.92-16.83h0c0-.95-1.54-1.75-3.55-2.77-1.6-.81-3.58-1.81-3.83-2.63a.49.49,0,0,1,0-.38c.39-.32,3.52-.1,6,.07,4.43.3,7.76.47,9.39,0a10.26,10.26,0,0,1-2.3,2.37,9,9,0,0,0-2.68,3l.3.13h0l-.33,0a17.52,17.52,0,0,1,.78,3.28c1.09,7.67-2.1,16.82-4.36,23.24l-.06.16c-.22.64-.44,1.27-.65,1.91-1.64,5-2.86,9.94-4.14,15.35a32.49,32.49,0,0,0-.48,7l-1.15-.09,1.15.35c0,1.42.07,2.91.14,4.42,0,0,0,0,0,0h0c.15,3.06.38,6.16.58,8.73.14,1.82.26,3.39.31,4.47l.66,0c-.05-1.09-.17-2.66-.31-4.49-.2-2.58-.43-5.69-.58-8.75-.05-.58,1.5-1.32,3.3-2.17,3.76-1.79,9.43-4.49,13.43-10.57A59.59,59.59,0,0,0,73,157.7C75.84,150.76,79,143,85,139.43l1.31-.67-.28-.6a14.87,14.87,0,0,0-1.36.7c-8.67,4.61-14,10.52-19.28,17.91-.84,1.18-2.06,2.69-3.47,4.44-3.59,4.45-8.14,10.11-10.11,14.79l-.44,0a32,32,0,0,1,.47-6.87l.61-2.57.27.1h0l.28.1,0,.31,0-.46c1.89-5,6.79-10.16,11.53-15.14,4.59-4.82,9.33-9.8,11.42-14.72a14.8,14.8,0,0,1,5-6.08,20.43,20.43,0,0,0,3.84-3.82c2.72-3.73,3-10.46,3.16-15.86.07-1.86.13-3.62.29-5.08l.09-.84-.63.55c-3,2.63-7.33,3.77-11.5,4.87s-8.35,2.21-11.42,4.78q2.63-4.72,5.8-11.68c.09-.15.2-.39.38-.77s.38-.8.47-1a71.56,71.56,0,0,1,4.81-7.86l.41-.58-.62.06a14.15,14.15,0,0,0,4.23-5.15l.46-1-.94.61a15.07,15.07,0,0,1-5.49,1.9,27.06,27.06,0,0,0-3.21.8,34.58,34.58,0,0,0,2.12-7.63c.66-3.29,1.33-6.69,2.91-8.92l.8-1.14-1.23.66a11.28,11.28,0,0,0-4.52,4.06A11.94,11.94,0,0,1,74.83,71l.74-.71-1,.14a11.13,11.13,0,0,0-2.28.55,13.31,13.31,0,0,0,2.27-7.26l0-.66-.5.43A28.84,28.84,0,0,1,70.33,66,31.27,31.27,0,0,1,73,61.36l.54-.72-.88.19a6.22,6.22,0,0,0-2.61,1.25c1.85-4,3.25-8.32,2.81-12.54l-.07-.71-.49.52a30.67,30.67,0,0,0-4.55,6.35c-.69-.06-.82-.62-1-1.86a5.35,5.35,0,0,0-.51-2.09A20.73,20.73,0,0,1,71.76,40h0l0,0,0,0-.09-.58a7.22,7.22,0,0,0-5.2,3.24c-.68-1.78.41-5.69,1.64-8.71l.3-.74-.73.31a7.21,7.21,0,0,0-.7.35,66.9,66.9,0,0,0,.25-11.09l-.08-1.11-.54,1a5.49,5.49,0,0,1-1.45,1.83c.62-2.41,1-5.05,1.39-7.27a8.17,8.17,0,0,0,.62-3.68L67,11.39l-.49,2c-.17.72-.35,1.88-.56,3.23l0,.31a26.51,26.51,0,0,1-3.27,5.3l-.42.58c.15-2.76,1-8.38,1.33-10.14L63.89,11,63,12.47c-.28.43-1.27,1.66-2.45,3a14.7,14.7,0,0,0,.73-4.5V9.34l-.36.86c-.21-2.33-.76-3.86-1.65-4.53a1.65,1.65,0,0,0-.78-.33C58.4,1.21,56.37.16,56.28.12L56,0l-.16.22a14.21,14.21,0,0,0-2.19,5.24,1.91,1.91,0,0,0-.25-.11l-.25-.07-.13.22a9.14,9.14,0,0,0-1.61,4.45l0,.11a23,23,0,0,0-.62,4.38L50.57,14a39.23,39.23,0,0,1-2.42-4.16l-.66-1.61,0,1.74a32.74,32.74,0,0,0,1.23,6.21c.84,3.3,1.78,7,1.55,9.5-2.71-2.24-4.09-8-4.38-9.36l-.16-.73-.43.61c-1.65,2.31-2.07,8.26-1,12.3h0l0,.06a8.5,8.5,0,0,0,1.1,2.62,12.09,12.09,0,0,1,.66,3.22,1.86,1.86,0,0,0-.3,0h-.32v.32a24.31,24.31,0,0,0,1.75,6.89c.29.83.57,1.64.82,2.42a5.16,5.16,0,0,0-4.62-2.14l-.66,0,.41.52c2.22,2.79,3.17,5.9,4.07,9.19h0l.41,1.45.28,1c0,.78,0,1.6,0,2.43,0,1.11,0,2.22.05,3.23l0-.09a24.69,24.69,0,0,0-1.78-3.39c-.53-.79-2.38-3.31-4.11-2.52l-.23.11,0,.25a14,14,0,0,0,1.63,4.12l.17.32-1.51-1.41,1.73,2.52a24.49,24.49,0,0,1,2.84,7.16l.38,1.33A13,13,0,0,0,44.45,66s-3-1.42-3.45-1.21l-.17.09,0,.17a4.61,4.61,0,0,0,1,2.59L42,68c.25.42.52.84.79,1.25s.59.91.86,1.38c.8,1.37,1.67,2.9,2.43,4.49l-1.17-.36a7,7,0,0,1-3-3.83l-.64.17a25.78,25.78,0,0,0,3.67,8.05c2.2,3.64,4.27,7.09,3.6,11.56-1.36-2.68-2.93-3.6-5-4.83a33,33,0,0,1-3.37-2.17l-.93-.7.63,1.58c.61,1.54,1.53,3.87,2.58,6.1a17.64,17.64,0,0,0-4.12-2.17l-.08-.21-.35.55c-3.6,5.68,5.44,16.29,12,24,1.91,2.24,3.63,4.26,4.82,5.88-4.15-.28-5.68-.3-6,.27a1.13,1.13,0,0,0-.12.93c.33,1.1,2.19,2,4.16,3a17.12,17.12,0,0,1,2.87,1.67s0,.09,0,.14l0,.21.21.05h0v0h0c.79,5.37,1.69,11.45.95,16.82l.33,0-.33,0c-.12,1.75-1.38,3.67-2.6,5.52a19.9,19.9,0,0,0-2.07,3.64,51.54,51.54,0,0,0-2.09,7.65c-.51-4,.22-7.47.95-10.87s1.54-7.19.91-11.31c-1-6.32-4.35-8-7.92-9.71-2.37-1.16-4.82-2.35-6.85-5l-.51-.67-.08.84c-.87,9.63,2.45,17.88,6,26.61,2.39,6,4.87,12.13,5.94,18.85-.06.31-.12.62-.18.93-3.61-13.86-9.7-36.33-26.53-39.31l-1.18-.21.91.78c6.19,5.36,12.24,11.28,16.05,18.51a9,9,0,0,0-3.78.42l-.44.15a6.06,6.06,0,0,1-1.86.44h0a6.2,6.2,0,0,1-2.18-.56l-.62-.23a12.08,12.08,0,0,0-10.15,1A23.48,23.48,0,0,0,13,154.56a34.31,34.31,0,0,0-2.91,3.72,34.08,34.08,0,0,0-3.22,7.26C3.44,175.34-.47,186.45,0,197.83c.09,1.85.29,3.75.49,5.58.49,4.5,1,9.15-.27,13.49l.62.22a28.24,28.24,0,0,1,4.48-7.37c1.12-1.33,2.39-2.59,3.62-3.8A43.28,43.28,0,0,0,13.74,200.72Zm48.73-39.1c1.42-1.76,2.64-3.28,3.5-4.47,4.34-6.09,8.74-11.16,15-15.32-3.93,4.11-6.35,10.13-8.56,15.63a59.21,59.21,0,0,1-4.7,10c-3.9,5.93-9.48,8.58-13.17,10.33a17.31,17.31,0,0,0-3,1.64,10.63,10.63,0,0,1,.73-2.77l.21.06a1.9,1.9,0,0,0,.56.08,3.1,3.1,0,0,0,1.06-.21c5.1-1.27,11.36-9.77,13.33-13l1.2-2-1.7,1.53c-.62.55-1.63,1.72-2.91,3.2-2.85,3.29-7.32,8.47-10.05,9.55a4.26,4.26,0,0,1-1.37.13h-.09C54.49,171.53,58.95,166,62.47,161.62Zm-2.85,10.63c1.19-1.22,2.45-2.61,3.73-4.08A43,43,0,0,1,59.62,172.25Zm-8,4.19c-.09.23-.16.45-.24.67,0-.25,0-.5,0-.74Zm10.63-57.51.27.14h-.3Zm-5.66,33,.06-.16c2.44-7,6-17.06,4.08-25.2-.12-.53-.26-1-.43-1.55a5.35,5.35,0,0,1,1-1.4c.43-.43.91-.84,1.41-1.26,1.25-1,2.54-2.12,3-3.74h0l-.64-.17h0c-.11.42-1.12.61-2.5.67,2.67-5,8.11-6.45,13.88-8,4-1,8.08-2.13,11.15-4.51-.1,1.3-.16,2.78-.22,4.33-.19,5.31-.44,11.93-3,15.5a19.91,19.91,0,0,1-3.73,3.7,15.53,15.53,0,0,0-5.17,6.33c-2,4.81-6.74,9.75-11.29,14.53-4.22,4.43-8.55,9-10.86,13.52l0-.16q0-.32.1-.67c.79-2.5,5.8-10.72,8.92-15.83,2-3.32,3.63-5.94,4.1-6.94.62-1.32,1.26-2.73,1.92-4.19l1.19-2.63c4.06-.42,9.07-1.56,10.93-4.55l-.56-.35c-.63,1-7.18,3.34-10,4.08,2.75-5.94,6.09-12.36,10.62-16.53q1.06-.91,2.2-1.77l-.39-.53a21.19,21.19,0,0,0-2.25,1.8,43.83,43.83,0,0,0-12.86,18.38c-.22.59-.55,1.32-1,2.14a1.8,1.8,0,0,1-.13-.27c-.67-1.93,1-7,2.28-10.79,1.43-4.31,2.09-6.4,1.27-6.89-.05,0-.31-.17-.54.18-.67,1-5.36,14.49-3.48,18a1.74,1.74,0,0,0,.28.37c-1.09,2.13-2.61,4.81-4.2,7.6-2.62,4.61-5.47,9.61-7.28,13.65C55.15,156.39,55.84,154.15,56.63,151.89Zm9.88-14,.08.06.2-.26a.28.28,0,0,0,0-.37c.47-.93.85-1.75,1.1-2.42a43.62,43.62,0,0,1,7.29-12.68,82.52,82.52,0,0,0-6,11.28l-.11,0,0,.18-1.27,2.79c-.66,1.46-1.29,2.86-1.91,4.18-.46,1-2.13,3.71-4.07,6.88-2.48,4.06-4.68,7.71-6.3,10.58,1.79-3.84,4.43-8.46,6.87-12.75C64,142.5,65.44,139.92,66.51,137.85Zm7.95-5.33c1-.37,2.06-.76,3-1.16A15.13,15.13,0,0,1,74.46,132.52Zm-7.75-3.58a63.12,63.12,0,0,1,2.72-9,41.42,41.42,0,0,1-1.59,5.51C67.45,126.62,67.06,127.79,66.71,128.94Zm-13.9,36.24,0,.32c-.11.26-.21.51-.31.77Zm18.27-64a7.53,7.53,0,0,0-.45.85h0l-.19.43a139.42,139.42,0,0,1-7.65,15,11.64,11.64,0,0,0-.76,1.21l-.24.37H60.73c1.27-2.69,2.72-6.4,2.79-9.51h-.66c-.07,3.25-1.8,7.32-2.85,9.51L58.6,119a8.9,8.9,0,0,0,1.09-3.09c0-.23.1-.46.15-.68a18.35,18.35,0,0,1,5.11-9l-.46-.48a19,19,0,0,0-5.29,9.31c-.05.23-.1.46-.15.69a7.82,7.82,0,0,1-1.09,3l.24.17-1.47-.09A47.51,47.51,0,0,1,65.09,102c3.48-4.47,7.09-7.22,10.28-7.84A72.38,72.38,0,0,0,71.08,101.21Zm3.44-10.84a18.8,18.8,0,0,0,4.73-1.43,13,13,0,0,1-5,4.8h0c-3.1,1-6.49,3.67-9.73,7.83a48.13,48.13,0,0,0-8.5,17.29l-.23,0a10,10,0,0,1,.39-5.46v0c.21-.75.46-1.52.72-2.31a37,37,0,0,0,1.61-6.28A52.1,52.1,0,0,1,64,97.23l.19,0a2.27,2.27,0,0,1,0-.3,32,32,0,0,1,4.25-4.29A13.85,13.85,0,0,1,74.52,90.37ZM49.44,94.62h.06A9.39,9.39,0,0,1,54,96v0l.06,0,0,0c0,.12.08.23.12.35l.27-.11c1.87,1.2,3.32,2.82,3.48,4.08.47,3.86-.66,7.36-1.65,10.45l-.14.43v-.61a11.13,11.13,0,0,0-.22-2c0-.39,0-.78,0-1.18a10,10,0,0,0-.18-3.28,16.89,16.89,0,0,0-2.46-5.77l-.56.43a16.11,16.11,0,0,1,2.34,5.53,7.15,7.15,0,0,1,.2,2.2A11.52,11.52,0,0,0,53,103c-.35-.37-.72-.72-1.1-1.07a7.57,7.57,0,0,1-2.4-3.14l-.68.2a8.2,8.2,0,0,0,2.6,3.46c.37.34.73.68,1.06,1a10.89,10.89,0,0,1,2.72,5.25c0,.15,0,.29,0,.44C53.51,105,50,101.82,46.53,98.71l-.62-.56C46.18,95.86,47.4,94.64,49.44,94.62Zm4.74-6.71A17.48,17.48,0,0,0,54,81.72c.08-.51.18-1,.29-1.47l.26-.2a1.71,1.71,0,0,1-.16-.24c1.17-4.64,3.73-7.78,5.92-8.58a2.36,2.36,0,0,1,2.45.32c1.58,1.38,1.82,5.17.67,10.4-3.71,1.06-7.11,7.73-8.66,11.76a13.22,13.22,0,0,1,.42-4.85c1.19-4.41,3.64-5.16,3.66-5.17l-.1-.34L58.67,83c-.12,0-2.85.83-4.15,5.67A14.58,14.58,0,0,0,54,92.16,32.09,32.09,0,0,1,54.18,87.91Zm-5.5-25.79c0-1.43,0-3.51-.07-5.6,0-.74,0-1.48,0-2.2l.08,0L48.56,54c0-.81,0-1.57,0-2.24a41.57,41.57,0,0,0,2.95,3.31,21.7,21.7,0,0,1,5.72,8.67c0,.12,0,.25,0,.36h0a11.25,11.25,0,0,0-1,3.93c-1.71-2.74-4.33-4.16-6.89-5.53Zm7.87-17.7.68-1.1c1.92,2.19,2,4.43,2.1,7,0,1,.08,2,.22,3.05l.13,0A20.46,20.46,0,0,0,57.23,62a21.26,21.26,0,0,0-4.51-6.58h0C52.46,51,54.54,47.63,56.55,44.42ZM52.73,32.09c-.35-3.74-.71-7.61.94-10.81a5,5,0,0,1,.78.64l-.1.22.17-.16c1.91,1.94,3.05,5.78,3.71,9.94V32h0a70.57,70.57,0,0,1,.71,12.75,8.55,8.55,0,0,0-1.53-2.18l-.3-.31-.22.37c-.29.49-.6,1-.9,1.46L55.4,45c-.27-.56-.64-1.23-1.1-2a10.69,10.69,0,0,0,.45-3.74l0-8.87H54l0,8.87a12.12,12.12,0,0,1-.24,2.93l-.38-.6-.93-1.43C53.27,37.89,53,35.07,52.73,32.09Zm3.19-20.46a10,10,0,0,1,1,5.53v.05a24.61,24.61,0,0,0-1.85,3.36l0,0a10.55,10.55,0,0,1-1.37-3.45,14.22,14.22,0,0,1,.11-1.43,5.71,5.71,0,0,1,.62-1.61A13.77,13.77,0,0,0,55.92,11.63Zm1.61,5.86c.26-.4.52-.77.77-1.13a24.11,24.11,0,0,0,2.17-3.54,14.07,14.07,0,0,1-1.18,4.06,11.75,11.75,0,0,1-2.44,2.21l-.12.09A5.75,5.75,0,0,0,57.53,17.49ZM56.89,69C57,64.2,59,62.27,61.54,59.83c.71-.69,1.45-1.39,2.18-2.21.13.52.32,1.18.52,1.87.27,1,.56,2,.64,2.44l.13,0a50.42,50.42,0,0,0-2.26,8.85,3.06,3.06,0,0,0-2.68-.16,6.86,6.86,0,0,0-2.24,1.47,12.68,12.68,0,0,0-1-3.09ZM65.1,93.22a22.93,22.93,0,0,0-1.45,3.42,62.49,62.49,0,0,0-4.92,6.57,16.19,16.19,0,0,0-.09-2.88,4.49,4.49,0,0,0-1-2.14h.11c0-.78.54-1.67,2.19-3.95a10.9,10.9,0,0,0,1.63-6l-.71,0a10.36,10.36,0,0,1-1.49,5.53,12.78,12.78,0,0,0-2.25,3.77,12.15,12.15,0,0,0-2.33-1.87C56,91.69,60.62,81.57,65,82.51a3.16,3.16,0,0,1,2.38,1.6C68.43,86.29,66.59,90.14,65.1,93.22Zm.17,1.59-.38.41.29-.62c0,.07,0,.13,0,.2Zm-10.88,0c0-.16-.08-.32-.12-.48l.31-.07ZM75,74.73a31.27,31.27,0,0,0-2.33,8c-.58,2.9-1.18,5.89-2.39,8.12a10,10,0,0,0-2.17,1.24,19.13,19.13,0,0,0-1.86,1.68,22.58,22.58,0,0,1,2.11-2.71,10.91,10.91,0,0,0,2.09-5.82l-.71,0a10.32,10.32,0,0,1-1.92,5.39c-.8.93-1.38,1.64-1.8,2.23,1.24-2.6,2.57-5.58,2.29-7.84a42.89,42.89,0,0,0,1.92-3.91C71.38,78.48,72.26,76.5,75,74.73Zm-4.23,3.71c-.41.76-.76,1.56-1.14,2.41s-.92,2.06-1.55,3.23c0-.09-.06-.17-.1-.25a3.82,3.82,0,0,0-2.83-2,3.31,3.31,0,0,0-1-.06c.15-.73.28-1.43.38-2.1l.1.16a12.25,12.25,0,0,0,3.78-4.34c1.14-1.9,2.14-3.56,5.27-4.26a12.59,12.59,0,0,0-3.19,7.14Zm-.82-11.49a32.58,32.58,0,0,0,4-2.52,12.59,12.59,0,0,1-3,7.2,9.34,9.34,0,0,0-3.1,3.57,12,12,0,0,1-3.23,3.87,22.58,22.58,0,0,0,.2-2.7l.13.11a36.23,36.23,0,0,0,3.5-6.54c.47-1,1-2,1.46-3.07Zm2-5.2a67.13,67.13,0,0,0-4.12,7.91,50,50,0,0,1-3.05,5.92,7.77,7.77,0,0,0-.92-3.71,6.91,6.91,0,0,0,2.37-2.38h0l0-.07a19.4,19.4,0,0,0,1-1.85c.59-1.09,1.2-2.22,1.8-3.4A6,6,0,0,1,71.95,61.74Zm-3.42,2A22,22,0,0,0,67,66.64l-.3.62-.33.6-.68,1.25a6.18,6.18,0,0,1-2.23,2.22,3.43,3.43,0,0,0-.25-.29h0l.18,0c.46-3.07,2.44-13.46,8.92-20.72C72.54,54.92,70.71,59.5,68.53,63.79Zm-1.08-7.48A42.14,42.14,0,0,0,65.35,61c-.13-.49-.29-1.08-.47-1.7-.28-1-.56-2-.65-2.45l-.12-.69-.45.53c-.86,1-1.73,1.84-2.57,2.65A19.81,19.81,0,0,0,57.85,63c0-3.84,1.74-11,5.17-11.6a3.05,3.05,0,0,1,2.34.22,1.34,1.34,0,0,1,.26.29V52h.08a4.46,4.46,0,0,1,.48,1.9C66.27,54.93,66.4,56.07,67.45,56.31ZM66.2,43.49l.31.4.24-.44a6.43,6.43,0,0,1,3.86-3.14,21.85,21.85,0,0,0-4.87,10.8,3.59,3.59,0,0,0-2.85-.34,3.82,3.82,0,0,0-1.57.71A17.14,17.14,0,0,1,63,48.1,10.89,10.89,0,0,0,63.93,42l-.7.1a10.36,10.36,0,0,1-.86,5.66c-1.33,2.35-1.89,3.46-1.83,4.47-.13.15-.27.3-.39.46-.08-.81-.13-1.61-.16-2.37a18,18,0,0,0-.48-4.09c1-3.21,3.79-9.53,7.68-11.75C66.3,36.8,64.75,41.63,66.2,43.49Zm-.83-18.38a5.29,5.29,0,0,0,1.27-1.29,69.46,69.46,0,0,1-.36,10.45c-3,2.1-5.37,6.43-6.66,9.67a73.18,73.18,0,0,0-.74-12.14l.73-.17A7.67,7.67,0,0,0,61.55,31c1.48-.76,2.52-2.89,3.3-5.46A3.11,3.11,0,0,1,65.37,25.11Zm-2.18-2.45c.86-1.18,1.7-2.34,2.38-3.51a54.27,54.27,0,0,1-1.33,6.12,4.42,4.42,0,0,0-.64,1.32l.19.06c-.66,1.83-1.49,3.27-2.55,3.81a7.06,7.06,0,0,1-1.78.54L59,31.1C59.32,28,61.29,25.29,63.19,22.66ZM61.56,23.8a18.28,18.28,0,0,0-3,6c-.68-3.38-1.76-6.42-3.42-8.2h.08l.12-.2.09-.15v.06c1.21-.16,5.46-5.17,7.29-7.46A78.52,78.52,0,0,0,61.56,23.8ZM60.33,11.52l-2.51,3.83a14.61,14.61,0,0,0-.94-4.41,9.53,9.53,0,0,1,1.45-5,1,1,0,0,1,.55.23C59.37,6.6,60.21,7.81,60.33,11.52Zm-6-5.81A14.34,14.34,0,0,1,56.22.87c.49.4,1.6,1.66,1.6,4.7a10.06,10.06,0,0,0-1.59,5.11l-.06-.13c-.11-3.07-1.36-4.38-2.13-4.9Zm-.84.38c.56.3,1.92,1.36,2,4.51a14.69,14.69,0,0,1-1,1.93c-.24.42-.47.85-.68,1.26l-.37.5c-.08-.27-.18-.6-.29-.93a10.89,10.89,0,0,0-1.08-3.23A7.88,7.88,0,0,1,53.47,6.08Zm-1.7,5.63a6.14,6.14,0,0,0,.33.69,7.69,7.69,0,0,1,.42,1.07c.1.57.16,1.12.21,1.69s.14,1.34.28,2c0,.29,0,.57,0,.82l-.21-.28c-.41-.73-.88-1.5-1.37-2.29A22.48,22.48,0,0,1,51.78,11.72Zm-2.4,4.34c-.4-1.57-.79-3.09-1-4.34.46.79,1,1.72,1.64,2.67l.78,1.25s0,0,0,.06l0,.15a16.3,16.3,0,0,0,1.43,2.24,17.17,17.17,0,0,1,1.15,2.32l-.14.25a12.64,12.64,0,0,0-1.46,5.86,3.45,3.45,0,0,1-.88-.35C51.29,23.53,50.28,19.56,49.38,16.06Zm-3.92,1.27c.71,2.91,2.63,9.1,6.32,9.87,0,1.64.14,3.31.29,5a23.88,23.88,0,0,1,0,7,10.74,10.74,0,0,1-1.55-3.37,8.06,8.06,0,0,1-.27-4l-.68-.19A8.56,8.56,0,0,0,49.86,36c.06.21.12.39.18.57-1.85-2.72-3.74-5.49-4.68-7.26-.16-.35-.32-.68-.48-1C44,24.83,44.28,19.83,45.46,17.33Zm1,15c.78,1.21,1.7,2.57,2.66,4a9,9,0,0,0-2.35-1.69A11.73,11.73,0,0,0,46.44,32.37Zm1.38,9a26.49,26.49,0,0,1-1.7-6.31c1.56.36,4.23,3.24,6.18,6,.62,1,1.18,1.84,1.65,2.63a6.92,6.92,0,0,1,.74,1.84l.22,0,.07.16c-1.59,2.65-3,5.48-2.92,9L52,54.62l-1-1.07h0a28.53,28.53,0,0,1-.66-2.88,33.28,33.28,0,0,0-.91-3.83A28.8,28.8,0,0,0,47.82,41.41Zm-3.73,1.18c4,.31,4.82,4.5,5.55,8.21.12.59.23,1.16.35,1.7-.51-.59-1-1.21-1.52-1.91l-.6-.84v1c0,.23,0,.48,0,.74A26,26,0,0,0,44.09,42.58ZM42.58,54.28c1.28-.25,2.86,2.08,3,2.36a24.17,24.17,0,0,1,1.73,3.3c.18.4.36.79.55,1.18l.1-.05c0,.24,0,.47,0,.68a20.27,20.27,0,0,1-3.05-2c-.26-.59-.57-1.2-.88-1.78A14.67,14.67,0,0,1,42.58,54.28Zm2.79,6.6a33.28,33.28,0,0,0,3.71,2.21c3.65,2,7.1,3.81,8.15,9.27l.39-.08A15.14,15.14,0,0,0,54,78.55c0-.28-.07-.62-.09-1a7.76,7.76,0,0,0-.1-2.18,11.1,11.1,0,0,0-2.34-5.5l-.3.25-.23.18h0s.23.28.53.73a13.68,13.68,0,0,1,1.58,3.71,5.9,5.9,0,0,1,.09.84c0,.89.05,1.61.1,2.22,0,0,0,.09,0,.13h0a6.22,6.22,0,0,0,.4,2c0,.19-.09.37-.13.57A8.51,8.51,0,0,0,50.16,77h.48A13.23,13.23,0,0,0,47.88,69l.17-.05c-.24-.74-.46-1.53-.69-2.33A34,34,0,0,0,45.36,60.88Zm-1.19,9.42c-.28-.48-.58-.94-.88-1.41s-.53-.81-.77-1.23l-.19-.31a6.26,6.26,0,0,1-.87-1.82c.73.23,2.44,1,2.65,1.08a12.2,12.2,0,0,1,3,2.52A12.46,12.46,0,0,1,50,76.84a18.31,18.31,0,0,0-3.08-1.43A55.58,55.58,0,0,0,44.17,70.29Zm1.28,8.52a39.48,39.48,0,0,1-2.67-4.94,7.91,7.91,0,0,0,2.66,1.94l.08-.18.9.3.07.16.17-.07c7.64,2.79,7.28,7,6.86,11.83a20.08,20.08,0,0,0,.29,7.32,10.07,10.07,0,0,0-4-1.2,23,23,0,0,0-1-2.66l.28.05C50,86.38,47.7,82.53,45.45,78.81Zm-2.32,7.64C45.84,88,47.51,89,49.08,94a3.76,3.76,0,0,0-2.94,1.57c-2-2-4.35-7.68-5.53-10.66C41.54,85.52,42.37,86,43.13,86.45Zm2.67,9.68a5.64,5.64,0,0,0-.47,1.48c-2.84-2.6-5.4-5.16-6.73-8.28a15,15,0,0,1,4.11,2.5l.16-.14A16.74,16.74,0,0,0,45.8,96.13Zm-7.73-6.32c1.6,3.58,4.73,6.41,8,9.39,4.32,3.91,8.79,7.95,9.55,13.87a13.34,13.34,0,0,0-.66,4.56,4.62,4.62,0,0,1-.49-1.63,9.34,9.34,0,0,0-.26-1.15,6.35,6.35,0,0,0-.47-1.07l.21.09c.62-1.39.37-3.15-.73-5.21a19.49,19.49,0,0,0-2.77-3.93l-.49.44A18.89,18.89,0,0,1,52.66,109a5.71,5.71,0,0,1,.82,4.29L51.14,109c-1.44-2.61-3.24-5.86-6.23-7.55l-.35.62c2.82,1.59,4.56,4.75,6,7.28l2.38,4.3a7.78,7.78,0,0,1,.65,1.38,8.84,8.84,0,0,1,.23,1.06c0,.19.07.37.11.56-1-1.27-2.22-2.68-3.52-4.2C44.13,105.16,35.67,95.24,38.06,89.81Zm5.08,58.61c-3.38-8.41-6.57-16.36-6-25.49a18.84,18.84,0,0,0,6.56,4.53c3.56,1.74,6.64,3.24,7.56,9.22.61,4-.12,7.44-.9,11.08-.84,3.94-1.69,8-.66,12.81-.22,1.17-.43,2.35-.63,3.51l-.29,1.62C47.6,159.57,45.34,153.91,43.14,148.42Zm2.17,30.45-.19.78c-1.27-3.36-9.09-23.84-10.06-24.16l-.19-.05-.14.1c-3,2.22-4.53,5.93-5.77,8.92l-11.25,27a42.62,42.62,0,0,1-4.51,8.83,42.76,42.76,0,0,1-4.68,5.15C7.29,206.7,6,208,4.86,209.32a28.93,28.93,0,0,0-3.38,5,45.12,45.12,0,0,0-.29-11c-.2-1.82-.4-3.7-.48-5.54-.52-11.25,3.37-22.3,6.81-32a33.55,33.55,0,0,1,3.15-7.12A33.65,33.65,0,0,1,13.52,155a23,23,0,0,1,5.27-5,11.4,11.4,0,0,1,9.59-1l.61.23a6.69,6.69,0,0,0,2.48.6,6.67,6.67,0,0,0,2.07-.48l.43-.15c2.23-.74,5.08-.66,6.41,1.17a7.49,7.49,0,0,1,.93,4.26v.1a72.68,72.68,0,0,0,1.07,10.61c.17,1,.5,2.48.88,4.23A91.53,91.53,0,0,1,45,178.89l.33,0Z"/><path class="cls-1" d="M24.4,154.81a18.39,18.39,0,0,1,5.91-3.73C28.5,150.62,26.49,152.08,24.4,154.81Z"/><path class="cls-1" d="M24.64,156.23c.5.7,3.2,6,3.2,6.68l.31.08.27.2h0c1.55-2.09-3.22-7.32-3.27-7.37Z"/><path class="cls-1" d="M22.06,160.76c.5.7,3.2,6,3.2,6.68l.31.08.26.2h0c1.54-2.08-3.22-7.32-3.27-7.37Z"/><path class="cls-1" d="M26.55,153.94c.5.7,3.2,6,3.2,6.68l.31.08.27.2h0c1.55-2.09-3.22-7.32-3.27-7.37Z"/><path class="cls-1" d="M19.55,164.05c.5.89,3.52,8.33,3.48,9h0l.57.34h0c1.61-2.71-3.44-9.65-3.49-9.72Zm3.62,7.24c-.33-1-.81-2.24-1.28-3.41A13.66,13.66,0,0,1,23.17,171.29Z"/><path class="cls-1" d="M16.72,170.07c.5.89,3.52,8.33,3.48,9l.57.34h0c1.61-2.71-3.44-9.65-3.49-9.72Zm3.62,7.24c-.33-1-.81-2.24-1.28-3.42A13.67,13.67,0,0,1,20.34,177.3Z"/><path class="cls-1" d="M14.39,174.73c3.22-8.12,6.72-15.61,10-19.93a36.73,36.73,0,0,0-9,12.65C12.58,166.06,6.29,172,6.22,172l.43.5a67.75,67.75,0,0,1,8.45-4.29l-.3.68-.06.15c-.57,1.62-10.18,32.73-12.38,41.77,0,0,5.4-19.36,12-36.06l.43,2.11c.1.48.35,1.35.67,2.45.79,2.74,2.26,7.84,1.64,8.73h0l.54.38c1.86-2.66-1.06-9.57-2.24-11.79Zm-4.88-4.56c1.58-1.13,3.4-2.18,4.71-2.29A47.72,47.72,0,0,0,9.51,170.17Z"/><path class="cls-1" d="M19.43,160h0a.2.2,0,0,1-.1,0l.38-.54h0c-2.71-1.94-9.43,4.37-9.5,4.43l.43.5C11.49,163.7,18.57,160,19.43,160Zm-1.19-.29A47.76,47.76,0,0,0,13.52,162C15.1,160.83,16.93,159.77,18.24,159.67Z"/><path class="cls-1" d="M24,153.13h0a.2.2,0,0,1-.1,0l.38-.54h0c-2.71-1.94-9.43,4.37-9.5,4.43l.43.5C16,156.88,23.11,153.13,24,153.13Zm-1.19-.29a47.87,47.87,0,0,0-4.71,2.29C19.64,154,21.47,153,22.77,152.85Z"/></g></g></svg>