<?xml version="1.0" encoding="utf-8"?>
<!-- Generator: Adobe Illustrator 20.1.0, SVG Export Plug-In . SVG Version: 6.00 Build 0)  -->
<svg version="1.1" id="Isolation_Mode" xmlns="http://www.w3.org/2000/svg" xmlns:xlink="http://www.w3.org/1999/xlink" x="0px"
	 y="0px" viewBox="0 0 89 89.2" style="enable-background:new 0 0 89 89.2;" xml:space="preserve">
<style type="text/css">
	.st0{fill:#d31123;}
</style>
<path class="st0" d="M79.8,24H68.2c-1,0-1.9,0.8-1.9,1.9c0,1,0.8,1.9,1.9,1.9h11.5c3,0,5.5,2.4,5.5,5.4v22.7c0,3-2.5,5.4-5.5,5.4
	H58.4c-3,0-5.5-2.4-5.5-5.4v-3.9h2.2c3,0,5.5,2.4,5.5,5.4v0.6c0,1,0.8,1.9,1.9,1.9c1,0,1.9-0.8,1.9-1.9v-0.6c0-5.1-4.1-9.2-9.2-9.2
	H53v-7.1h2.2c5.1,0,9.2-4.1,9.2-9.2V9.2c0-5.1-4.1-9.2-9.2-9.2H33.8c-5.1,0-9.2,4.1-9.2,9.2v10.9c0,1,0.8,1.9,1.9,1.9
	c1,0,1.9-0.9,1.9-1.9V9.2c0-3,2.4-5.4,5.5-5.4h21.4c3,0,5.5,2.4,5.5,5.4v22.7c0,3-2.5,5.4-5.5,5.4H53v-4.1c0-1.3,0.3-5.4,4.3-5.4
	c1,0,1.9-0.8,1.9-1.9c0-1-0.8-1.9-1.9-1.9c-5,0-8.1,3.5-8.1,9.2v4.1h-9.3v-4.1c0-5.1-4.1-9.2-9.2-9.2H9.2C4.1,24,0,28.1,0,33.1v22.7
	C0,60.9,4.1,65,9.2,65h11.4c1,0,1.9-0.9,1.9-1.9c0-1-0.8-1.9-1.9-1.9H9.2c-3,0-5.5-2.4-5.5-5.4V33.1c0-3,2.5-5.4,5.5-5.4h21.4
	c3,0,5.5,2.4,5.5,5.4v4.1h-2.2c-3,0-5.5-2.6-5.5-5.6c0-1-0.8-1.9-1.9-1.9c-1,0-1.9,0.9-1.9,1.9c0,5.1,4.2,9.4,9.2,9.4h2.2v7.1h-2.2
	c-5.1,0-9.2,4.1-9.2,9.2v22.7c0,5.1,4.1,9.2,9.2,9.2h21.4c5.1,0,9.2-4.1,9.2-9.2V68.9c0-1-0.8-1.9-1.9-1.9c-1,0-1.9,0.8-1.9,1.9
	v11.1c0,3-2.5,5.4-5.5,5.4H33.8c-3,0-5.5-2.4-5.5-5.4V57.3c0-3,2.4-5.4,5.5-5.4h2.2v3.9c0,2-0.5,5.4-4,5.4c-1,0-1.9,0.9-1.9,1.9
	c0,1,0.8,1.9,1.9,1.9c4.8,0,7.8-3.6,7.8-9.2v-3.9h9.3v3.9c0,5.1,4.1,9.2,9.2,9.2h21.4c5.1,0,9.2-4.1,9.2-9.2V33.1
	C89,28.1,84.9,24,79.8,24z M49.2,48.2h-9.3v-7.1h9.3V48.2z"/>
</svg>
