<svg xmlns="http://www.w3.org/2000/svg" viewBox="0 0 141.09 203.2"><defs><style>.cls-1{fill:#fff;}</style></defs><title>ציפורני שטן</title><g id="Layer_2" data-name="Layer 2"><g id="Expended"><path class="cls-1" d="M.6,32.4c2.14,1.52,8.14,2.11,9.62,2.23a2.24,2.24,0,0,1-1,1.69c-.51.32-.6.64-.6.85a.66.66,0,0,0,.39.56c.5.25,1.58.22,3-.71l1.26-.86c1.67-1.15,5.57-3.84,6.28-3.4.06,0,.08.18,0,.38a22.18,22.18,0,0,1-2,4.74c-1.42,2.89-2.2,4.56-1.71,5.22a.65.65,0,0,0,.56.26h.16c1.93-.29,9.07-2.64,10.11-6.91a22.44,22.44,0,0,0,.47-2.71c.25-2,.3-2.36,2.6-2.26A4.62,4.62,0,0,1,34,33.79a3.69,3.69,0,0,0-.44.28c-2.22,1.71-3.67,4.3-5.08,6.79s-2.79,5-4.92,6.69a8.61,8.61,0,0,0-3.33,7.4,4.71,4.71,0,0,0,2.09,3.82,5.07,5.07,0,0,0,2.44.67,4.1,4.1,0,0,0,1.54-.29c-.37,3.36,2.22,7.53,3.44,9.48L30,69a3.87,3.87,0,0,0,3.15,1.53h.35a7.61,7.61,0,0,0,5.9-2.94c1.16-1.48,3.12-2.18,5.2-2.93l.1,0c1,1.9,8,11.14,14.34,18.05,6.84,7.5,9.38,12.21,9.41,12.27a1.67,1.67,0,0,0-.77.65.91.91,0,0,0,0,.86c.41.81,3,4,6.32,8l3.49,4.26c3.15,3.87,3.47,6.68,2.9,7.62a.41.41,0,0,1-.39.25,3.71,3.71,0,0,1-1.27-1,13.93,13.93,0,0,0-6.58-3.8c-5.38-1.41-7.93-4-10.28-6.86-.54-.64-1-1.21-1.38-1.68-1.33-1.64-1.73-2.15-2.2-2s-.4.61-.41.84,0,.54,0,.87c0,.67,0,2.06-.29,2.2,0,0-.28.09-1-.64a44.52,44.52,0,0,1-4.23-5.91c-2.51-3.86-3-4.4-3.44-4.26-.15,0-.32.18-.31.57a9.32,9.32,0,0,0,.66,2.54l.14.39-.24-.23a55.76,55.76,0,0,1-4.31-5.53c-2.41-3.33-2.49-3.4-2.86-3.21s-.17.52-.11.68a13.71,13.71,0,0,1,.58,2c-.86-.9-5.81-4.43-6.58-4.25l-.24.07-.06.18c-.09.25.07.5.38.85s.8,1,1.42,1.82c3,4,9.28,12.19,16.25,15.68,2.77,1.38,5.46,2.57,7.62,3.51,2.46,1.08,5,2.19,5.33,2.68a1.8,1.8,0,0,1-.52.15c-.89.16-2,.3-3.26.45-4,.48-5.75.77-5.93,1.54-.07.29.08.56.44.81.93.63,3.08.59,5.35.54,2,0,4.29-.09,4.85.46a.31.31,0,0,1,.1.23v.62c0,1.39,0,2.23.5,2.45s.81-.17,1.12-.49c1.31-1.31,5.4-3.56,7.24-2.38.54.35,2,1.27,2,1.67,0,.09-.13.21-.36.34a10.27,10.27,0,0,1-1.14.49,12.69,12.69,0,0,0-5.46,3.45c-1.42,1.73-2.7,1.32-3.18,1.16-.16-.05-.39-.12-.54.07l-.13.23.12.2c.12.21.38.31.74.44s.95.37,1.08.7a.73.73,0,0,1-.09.59c-.33.67-1.68,1.13-2.76,1.5s-1.74.6-1.87,1.06a.57.57,0,0,0,.12.53c.78,1,3.34,1.26,5.74-.39l1-.7a12.58,12.58,0,0,1,2-1.29c0,.32,0,1.66.7,1.91a.68.68,0,0,0,.78-.27,8.55,8.55,0,0,0,.86-1.78c.79-1.88,2.26-5.38,3.56-5.38h0a2.09,2.09,0,0,1,1,.19c.11.12.08.5,0,1a17.87,17.87,0,0,0,0,2.19l0,.56c.63,12.93.1,15.34-.19,15.62a8.55,8.55,0,0,1-1.42-.77c-1.59-1-3.78-2.33-6.55-1.81-2.6.49-4.63,1.67-4.93,2.87A1,1,0,0,0,68,142a13.16,13.16,0,0,1,2.37,3v.2l.24.07c.25.08.35-.09.54-.39,2.23-3.58,3.83-4.11,4.79-3.92a7.41,7.41,0,0,1,5.34,6.93v.31c-.16,3.65-.59,13.36-.67,17.19,0,1.33-.17,3.89-.34,6.86-.34,5.92-.76,13.28-.56,16.41.31,4.78.36,13.62.25,14.16l.61.24c.2-.51.07-10.24-.2-14.45-.2-3.08.22-10.43.56-16.33.17-3,.32-5.55.35-6.89.07-3.82.5-13.52.67-17.17V148A8,8,0,0,0,76,140.37c-1.64-.31-3.44,1-5.33,4a13.28,13.28,0,0,0-2.33-2.87.39.39,0,0,1-.16-.44c.17-.68,1.64-1.87,4.41-2.38,2.52-.47,4.58.8,6.08,1.72a8.87,8.87,0,0,0,1.54.83.56.56,0,0,0,.53-.08c.9-.67,1.06-5.51.54-16.19l0-.56a17.16,17.16,0,0,1,0-2.11c0-.74.08-1.18-.21-1.51s-.74-.38-1.5-.41c-1.58,0-2.92,2.7-4.21,5.78a11.35,11.35,0,0,1-.74,1.59l-.07.08a2.57,2.57,0,0,1-.26-1.29.6.6,0,0,0-.3-.59c-.49-.26-1.21.26-2.78,1.37l-1,.7c-2.13,1.46-4.24,1.15-4.82.56a6.93,6.93,0,0,1,1.41-.58c1.26-.43,2.68-.92,3.13-1.83a1.35,1.35,0,0,0,.11-1.12,1.38,1.38,0,0,0-.52-.62,3.87,3.87,0,0,0,2.34-1.53,12.15,12.15,0,0,1,5.19-3.25,10.19,10.19,0,0,0,1.23-.53c.17-.1.68-.39.7-.9s-.75-1.26-2.27-2.24c-2.38-1.53-6.94,1.34-8.06,2.47-.24.24-.37.31-.39.34a6.65,6.65,0,0,1-.11-1.83v-.62a1,1,0,0,0-.3-.7c-.76-.75-2.88-.7-5.33-.65-2,0-4.21.08-5-.43l-.16-.12c.38-.43,3.49-.81,5.36-1,1.23-.15,2.39-.29,3.3-.45.48-.09,1-.25,1.09-.71.09-.78-1.41-1.47-5.75-3.38-2.16-.95-4.84-2.12-7.59-3.5-6.83-3.42-13-11.57-16-15.49-.48-.63-.89-1.16-1.2-1.55A32.7,32.7,0,0,1,42,92.08c.16.19.53.63.91.41.18-.1.45-.26,0-1.89.42.57.94,1.28,1.42,1.95a55.83,55.83,0,0,0,4.38,5.62c.67.65,1,.9,1.33.7s.19-.64-.15-1.56a11.48,11.48,0,0,1-.57-1.9c.58.71,1.61,2.3,2.48,3.63a44.68,44.68,0,0,0,4.33,6c.47.45,1.17,1,1.76.77s.71-1.64.69-2.82c0-.31,0-.6,0-.82V102a20.32,20.32,0,0,1,1.43,1.67c.39.48.84,1,1.38,1.69,2.9,3.48,5.57,5.76,10.62,7.07a13.35,13.35,0,0,1,6.29,3.64,3.76,3.76,0,0,0,1.6,1.13,1,1,0,0,0,1.08-.56c.61-1,.66-3.93-3-8.38-1.15-1.42-2.35-2.87-3.49-4.26-3-3.66-5.86-7.13-6.24-7.87a.25.25,0,0,1,0-.25c.15-.29.93-.69,2.64-.94a6.35,6.35,0,0,0,4-3.62c1,.69,3.84,7.47,5.24,10.78.7,1.65,1.25,3,1.53,3.49a.51.51,0,0,0,.63.31c1.8-.6,4.46-18.11,2.64-29.06C82.91,64.8,75.74,63.1,73,62.46l-.25-.06-.37-.11a17.82,17.82,0,0,1,1.92-.55c.65-.17,1.33-.34,1.89-.52s1.16-.45,1.15-.93-.94-1-2.9-1.59c-2.72-.88-9.59,3.89-10.36,4.44l-.28.19A19.77,19.77,0,0,1,67.48,59c.38-.33.71-.68.53-1s-1-.36-3.1.07a14.66,14.66,0,0,1-4.24.47l-.14,0a24,24,0,0,1,3-.93l1.33-.37a.81.81,0,0,0,.61-.56c.17-.64-.52-1.43-1.67-2.65a7.28,7.28,0,0,1-1.74-2.32.91.91,0,0,1,0-.23c.35-.14,2.15.93,3.29,2.46,1.42,1.9,6.58,3.9,9.34,2.6a.84.84,0,0,0,.51-.7c.24-2.32-9.12-9.53-11.26-11.14a12.31,12.31,0,0,0,.7-1.38c1.35,1.74,5.51,6.9,7.34,6.9h.11a.57.57,0,0,0,.51-.39c.38-1.22-5-6.17-7.35-8.27a12,12,0,0,0,.27-1.31c1.3,1.6,4.56,5.49,6.05,6.37.19.11.7.41,1,.09.6-.58-.35-2.48-5-11.06C63.46,28,54.84,24.39,51.6,23l-.78-.34a3.77,3.77,0,0,1-.54-.31,4.6,4.6,0,0,1,2.09-.5.43.43,0,0,0,.44-.32c.11-.43-.33-.79-3.36-2.71-1.22-.78-2.6-1.65-3.49-2.33,1.18.32,3.48,1.18,4.86,1.69,1.14.42,2.12.79,2.58.92s.78.2,1,0,.08-.46,0-.68a1.51,1.51,0,0,1,0-1.48h0c.5,0,2.31,2.13,3.64,3.68,2.31,2.71,4.93,5.78,7,6.59.19.08.79.31,1.06-.11,1-1.63-11.78-15-11.92-15.12a4.41,4.41,0,0,1-.59-.68,2.79,2.79,0,0,1,.8-.11,4.77,4.77,0,0,0,.85-.09.6.6,0,0,0,.42-.35c.21-.49-.19-1.21-.91-2.46a12.26,12.26,0,0,1-.91-1.77,12.65,12.65,0,0,1,3,2.78c.3.41.67.81,1.07.68s.52-.87.56-1.79v-.1a33.55,33.55,0,0,1,3,4.42c.12.25.28.34.48.29s.28-.3.18-1.15-.22-1.79-.26-3.07a18.94,18.94,0,0,1,1.41-5.76c.25-.72.47-1.32.57-1.75.17.34.41.83.67,1.39.42.9,1,2.12,1.8,3.71,1.7,3.41,1.82,7.32,1.9,9.91a9.38,9.38,0,0,0,.29,2.8c.17.38.39.55.66.51s.81-.12,1.25-3.86c0-.15.08-.35.44-.39a2,2,0,0,1,1.88,1.21.82.82,0,0,0,.54.59c.49.13,1-.31,1.63-.84a3.74,3.74,0,0,1,1.51-1h.14a7.36,7.36,0,0,1-.58,1.08c-.29.47-.64,1.06-1,1.71a1.13,1.13,0,0,0,0,1.13c.38.6,1.46.59,2.6.58a6.49,6.49,0,0,1,1.83.14c-.25.08-.62.18-1,.27a17.18,17.18,0,0,0-6,2.52c-3.28,2.39-2.26,5.56-1.71,7.26.09.28.17.53.21.72.09.42.23.82.58.89s.72-.35,1.35-1.29c.18-.27.39-.58.63-.92a27.24,27.24,0,0,1,5.16-4.57,5.29,5.29,0,0,1-.23,2.48c-.4,1.53-1.57,2.72-3.7,4.87-.58.59-1.24,1.26-2,2-3.8,4-.53,10.44.27,11.55.29.41.58.43.76.37.74-.21,1-2,1.19-6.08v-.15c.1-1.78.47-2.87,1.1-3.24a2,2,0,0,1,1.83.19,1.38,1.38,0,0,1,.83.9c.31,1.28-1.36,3.48-3,5.61l-.25.33c-2.45,3.24-.18,7.8,1.1,9a.78.78,0,0,0,.68.24c.57-.1,1-.87,1.54-1.95a9.26,9.26,0,0,1,2.58-3.48,1.5,1.5,0,0,1,.71-.33h0c.26.3-.27,2-1.59,5.07-.22.52-.41,1-.08,1.3s.89-.1,2-1a12.1,12.1,0,0,1,2.74-1.78l.36-.11a27.52,27.52,0,0,1-2,2.39l-1.21,1.36c-2.76,3.15-2.16,7.35,2.3,16,3.6,7,2.43,18.24,2,21.94a12.22,12.22,0,0,0-.11,1.41c0,.42.23.54.38.58.48.12.91-.37,3.57-5.06,2.31-4.09,5.92-11.84,6.38-13.07.05-.14.11-.15.12-.16.46-.1,1.78,1.18,2.66,2l.54.52a3.16,3.16,0,0,0,3.2.79,3.23,3.23,0,0,1,1-.09c.16,0,.19.08.2.1.12.3-.12,1.38-3.13,5.2-2.14,2.71-4.89,4.52-8.07,6.61-1.36.89-2.76,1.82-4.2,2.87-4.19,3.06-4.85,9.81-5.2,13.44-.06.59-.1,1.09-.16,1.46a5.39,5.39,0,0,0,.84,4.14,4.26,4.26,0,0,0,3.09,1.54c2.78.27,3.63,1.58,4.18,3.76.5,2,1.12,4.47,3.09,5.15a4,4,0,0,1,2,2.6,2.54,2.54,0,0,1-.13,2.19c-.79,1,0,3.18.62,5.09a15.24,15.24,0,0,1,.64,2.15,41.65,41.65,0,0,1-3.51-3.55c-1.76-1.89-3.75-4-5.6-5.7-3.16-2.83-2.9-6-2.75-7.88a4,4,0,0,0,0-1.61.91.91,0,0,0-1-.67c-.83.09-1.6,1.3-1.87,2.94-.24,1.46-1,19.65,1,20.42a.76.76,0,0,0,.82-.06c.42-.37.22-1.21-.09-2.48a9.62,9.62,0,0,1-.43-3.17,8.55,8.55,0,0,1,1.34-3,8.82,8.82,0,0,0,1.28-2.78c.44,1.32,1.11,4.48,1.43,6,.73,3.44-.87,4.51-1.83,5.14a2,2,0,0,0-.62.52.69.69,0,0,0,0,.71c.39.75,2.07.9,2.58.93h.08c1.63,0,5.38-2.49,6.49-4.08a1.17,1.17,0,0,1,.34-.37,3.32,3.32,0,0,1,.54,1.06,10,10,0,0,0,.68,1.48c.35.58.26.67-.55,1.23a8.58,8.58,0,0,0-2.24,2.11c-.27.38-.61.93-.37,1.4.32.62,1.39.59,2.86.55a12.23,12.23,0,0,1,3.87.3,13,13,0,0,1,3,1.43,6.5,6.5,0,0,0,3,1.16c1.62.17,2.93-1.46,4.08-2.89a9.73,9.73,0,0,1,1.74-1.86c.17-.12.27-.15.29-.18a4,4,0,0,1,0,1,4.12,4.12,0,0,0,.53,2.77,1.54,1.54,0,0,0,1.06.65c.7,0,1.31-.5,2.25-1.34.44-.39.93-.83,1.54-1.3.86-.68,1.76-1.31,2.63-1.92,1.71-1.2,3.06-2.15,3.45-3,.53-1.14,1.16-1.83,1.38-1.83,0,0,.1,0,.2.34.17.57.38,1.14.92,1.28.77.21,1.92-.58,4.55-3.11a20.16,20.16,0,0,0,5.42-10.41l.12-.5.07-.25c.07.22.15.51.2.71a7.37,7.37,0,0,0,.32,1,.48.48,0,0,0,.43.34h0c.32,0,.47-.31.71-.78.33-.65.83-1.64,1.67-1.71a.46.46,0,0,1,.14,0c.15.24-.38,1.57-.81,2.64a31.65,31.65,0,0,0-2,6.51c-.7,4.14-4.45,6.12-6.47,7.19a8.89,8.89,0,0,0-1.21.71c-.12.09-.42.34-.34.66s.45.4.88.48c.27,0,.77.14.84.3s0,.22-.16.47c-.66,1-4.64,1.54-7.28,1.9a13.85,13.85,0,0,0-3.36.64c-.25.15-.37.32-.34.53s.41.45.93.6a4,4,0,0,1,.82.29s0,.12-.37.35c-.85.58-2.6.62-4.16.67-1.87.05-3.5.1-4,1a.75.75,0,0,0-.05.6c.3,1,2.42,2.06,5.16,3.41.72.36,1.52.75,1.93,1a15.16,15.16,0,0,1-4.93-1c-1.46-.77-2.85-1.24-6.84-1.85-2.17-.33-4.34-2-6.07-3.4-1.4-1.1-2.51-2-3.36-2a.55.55,0,0,0-.59.33c-.2.53.54,1.23,2.69,3.09a17.36,17.36,0,0,1,2.54,2.45,5.09,5.09,0,0,1-.93-.3c-.64-.25-1.06-.41-1.31-.12s0,.6,0,.73c.61,1.08,2,6.16,1.45,7.51,0,.1-.09.17-.13.19s-.11,0-.19-.06c-1.23-.74-3.47-5.91-3.61-6.8,0-.13-.07-.45-.35-.51s-.44.17-.61.42c-.35.52-.75,1-1.43.88s-.9-3.15-1.05-5c-.19-2.3-.33-3.73-.83-4.19a.65.65,0,0,0-.68-.2c-.37.16-.37.67-.36,1.5a4.52,4.52,0,0,1-.35,2.33c-.23-.06-.74-1-1.11-1.62-.84-1.48-1.89-3.31-3.32-3.67a2.42,2.42,0,0,0-2.1.53c-2.12,1.64-3.48,6.23-3.53,12,0,2.09-.06,5.35-.11,9.06-.35,26.24-.25,26.29,0,26.43a1.31,1.31,0,0,1,.21.79,2.49,2.49,0,0,1-.94,1.86c-1.67,1.51-.68,8.65-.56,9.45l.65-.1c-.31-2.1-.85-7.79.35-8.87a3,3,0,0,0,1.14-2.69,1.65,1.65,0,0,0-.38-.92c-.17-1.4,0-16.13.15-26,0-3.71.09-7,.11-9.06.06-6.63,1.8-10.32,3.27-11.46a1.76,1.76,0,0,1,1.54-.42c1.16.29,2.13,2,2.91,3.36.65,1.15,1.08,1.9,1.63,1.95a.61.61,0,0,0,.57-.27,4.55,4.55,0,0,0,.5-2.72c0-.22,0-.5,0-.7a15.06,15.06,0,0,1,.54,3.65c.27,3.32.52,5.35,1.59,5.56a1.91,1.91,0,0,0,2-.95c.48,1.54,2.47,6.07,3.83,6.88a.88.88,0,0,0,.75.12.9.9,0,0,0,.53-.58c.6-1.59-.73-6.44-1.39-7.87l.35.13c.64.25,1.25.49,1.62.24a.57.57,0,0,0,.24-.49c0-.54-.85-1.33-2.79-3a22.55,22.55,0,0,1-2.39-2.25,9.52,9.52,0,0,1,2.81,1.82c1.8,1.42,4,3.18,6.38,3.54,3.9.6,5.25,1.05,6.63,1.78s5.31,1.45,6,.92a.44.44,0,0,0,.16-.46c-.08-.33-.56-.59-2.56-1.58-1.71-.84-4.58-2.25-4.82-3,0-.05,0-.07,0-.09.3-.53,2-.58,3.42-.62,1.72,0,3.5-.1,4.51-.78.31-.21.72-.54.65-1s-.73-.68-1.3-.84l-.1,0c.58-.15,1.7-.3,2.78-.45,3.79-.51,7-1,7.74-2.2a1.14,1.14,0,0,0,.22-1.09c-.21-.48-.83-.6-1.33-.68l-.16,0a11.75,11.75,0,0,1,1-.58c2.12-1.12,6.05-3.2,6.81-7.66a31.16,31.16,0,0,1,2-6.38c.71-1.78,1.11-2.76.73-3.28a.77.77,0,0,0-.72-.27c-1.21.11-1.83,1.34-2.21,2.07l-.08.15c-.06-.18-.11-.4-.17-.61-.24-.9-.39-1.49-.84-1.49h0c-.41,0-.57.51-.7,1l-.12.51a19.56,19.56,0,0,1-5.24,10.08c-.89.85-3.23,3.12-3.92,2.94-.19-.05-.33-.43-.45-.83-.19-.64-.53-.79-.77-.81-.94-.07-1.86,1.83-2,2.2-.31.66-1.73,1.66-3.23,2.71-.88.62-1.78,1.25-2.66,1.94-.62.49-1.12.93-1.57,1.33-.79.7-1.35,1.2-1.76,1.18a1,1,0,0,1-.6-.42,3.7,3.7,0,0,1-.38-2.32c0-.79.05-1.37-.36-1.59s-.73,0-1,.21a10.06,10.06,0,0,0-1.88,2c-1.09,1.36-2.23,2.76-3.5,2.64a5.91,5.91,0,0,1-2.71-1.07,13.53,13.53,0,0,0-3.12-1.49,12.93,12.93,0,0,0-4.09-.34c-.9,0-2.13.05-2.26-.2,0,0-.08-.16.32-.7a8,8,0,0,1,2.08-2c.76-.53,1.41-1,.74-2.11a9.49,9.49,0,0,1-.64-1.39c-.31-.79-.56-1.41-1.07-1.47s-.75.34-1,.65c-1.05,1.5-4.66,3.8-5.94,3.8H89c-1.21-.06-1.92-.38-2-.63a2.3,2.3,0,0,1,.42-.32c1-.63,2.94-1.95,2.12-5.83-1.4-6.58-1.7-7-2.15-7h0c-.41,0-.47.56-.51.85a7.53,7.53,0,0,1-1.22,2.77,9,9,0,0,0-1.42,3.28,10,10,0,0,0,.45,3.42,7.33,7.33,0,0,1,.33,1.81.43.43,0,0,1-.17,0c-1.22-.74-1.07-17-.63-19.7.24-1.49.9-2.35,1.29-2.39,0,0,.16,0,.28.26a4.11,4.11,0,0,1,0,1.31c-.16,2-.43,5.38,3,8.43,1.83,1.65,3.81,3.78,5.56,5.66,3.09,3.33,3.86,4.08,4.4,3.86a.5.5,0,0,0,.28-.54,11.38,11.38,0,0,0-.71-2.58c-.55-1.58-1.29-3.73-.72-4.47a3.12,3.12,0,0,0,.24-2.78,4.62,4.62,0,0,0-2.44-3c-1.51-.53-2.1-2.44-2.67-4.69s-1.61-4-4.75-4.26a3.63,3.63,0,0,1-2.64-1.29,4.76,4.76,0,0,1-.71-3.63c.06-.38.11-.89.16-1.49.34-3.53,1-10.09,4.93-13,1.43-1,2.83-2,4.18-2.85,3.1-2,6-4,8.23-6.75,2.82-3.58,3.35-4.91,3.29-5.58l.15.08a43.91,43.91,0,0,0,3.06-7.95c.7-3.08,1.66-4.15,1.72-4.22,4.7-.82,7.75-4.92,8-6.56,0,0,0-.07,0-.08a3.26,3.26,0,0,1,1,.35c1.39.65,3.72,1.74,5.36-1.22s-2.24-7.49-5.32-10.61c2.07,1.47,4.5,2.74,6.73,2.74a5.51,5.51,0,0,0,.85-.07c2.19-.35,4.27-2.44,5.73-5.73,1.6-3.62,2.36-9,.25-12.19a11.19,11.19,0,0,0-7.7-5.23l-.27,0c0-1.14-.58-6.77-6.79-7.61-2.76-.38-4.47-.47-5.61-.53-1.65-.09-2.15-.12-3.19-.78a2.43,2.43,0,0,0-2.64-.16,2.94,2.94,0,0,0-1.24,1.88c-1-1-3-2.94-4.93-3a2.68,2.68,0,0,0-2.14.89A40.56,40.56,0,0,1,89.44,26a4.35,4.35,0,0,0-2.33,3.29,2.4,2.4,0,0,0,.68,2.09l.43-.5a1.75,1.75,0,0,1-.45-1.52,3.69,3.69,0,0,1,2-2.78,41.28,41.28,0,0,0,9-6.88A2,2,0,0,1,100.4,19c2,.08,4.22,2.51,4.83,3.2a6.41,6.41,0,0,0,0,1.07c.3,3.07,1.28,15.09,1.29,15.21l.66-.05c0-.12-1-12.15-1.29-15.22-.15-1.5.24-2.69,1-3.18a1.77,1.77,0,0,1,1.94.16,5.87,5.87,0,0,0,3.51.89c1.12.06,2.82.15,5.55.53a6.94,6.94,0,0,1,6.22,6.94,5.91,5.91,0,0,0-4.06,1.58c-1.94,1.85-3.64,5.62-4.87,8.37a15.73,15.73,0,0,1-1.44,2.84l.07,0,0,.42a.55.55,0,0,1-.36-.55,2.34,2.34,0,0,1,.28-1c.13-.29.27-.59.09-.86s-.74-.39-2.76-.28H111c-2.35.14-5.36.31-7.22,1.2a26,26,0,0,0-2.31-3.39C98.26,33,94.52,31.09,90.62,31.5c-4.91.52-8.05,1.86-9.35,4A4.81,4.81,0,0,0,81,39.82,20,20,0,0,0,83.55,44c1.46,2,3,4.15,3.22,6.31.46,3.82,2.25,5.35,4.38,6.82a5.87,5.87,0,0,0,3.35,1,5.22,5.22,0,0,0,.52,0,5.39,5.39,0,0,0,.52,1.58,11.46,11.46,0,0,0,2.86,3.45h0a3.19,3.19,0,0,0,.06.82,21,21,0,0,1,0,5.93,34.05,34.05,0,0,1-1.09,5.43,1,1,0,0,0-.42,0,.83.83,0,0,0-.6.57c-.44,1.18-4.09,9-6.34,13-.81,1.44-2.09,3.69-2.7,4.48,0-.24.06-.61.1-1C87.77,88.55,89,77.17,85.27,70c-4.31-8.4-4.94-12.4-2.39-15.3l1.2-1.35c2-2.25,2.52-2.85,2.21-3.32s-.78-.2-1.27,0a12.48,12.48,0,0,0-2.92,1.88c-.34.27-.75.58-1,.76,0-.08.07-.19.12-.31,1.47-3.42,2.09-5.27,1.4-5.84-.43-.36-1.07,0-1.51.29a9.71,9.71,0,0,0-2.8,3.72c-.36.7-.82,1.56-1.07,1.6,0,0-.1,0-.12-.07-1-.94-3.24-5.18-1-8.11l.25-.33c1.78-2.35,3.46-4.57,3.08-6.16a2,2,0,0,0-1.19-1.34,2.55,2.55,0,0,0-2.45-.16c-.86.5-1.31,1.7-1.43,3.77v.15c-.08,1.48-.28,4.87-.69,5.44l-.07-.08c-.71-1-3.78-7.11-.33-10.71.73-.76,1.38-1.43,2-2,2.21-2.24,3.43-3.47,3.87-5.17.34-1.32.5-2.87-.07-3.27a.57.57,0,0,0-.67,0c-.95.68-4.14,3-5.38,4.77-.24.34-.46.66-.64.93a10.23,10.23,0,0,1-.66.92,2.91,2.91,0,0,1-.08-.29c0-.21-.13-.48-.23-.78-.54-1.65-1.43-4.41,1.47-6.52a16.36,16.36,0,0,1,5.74-2.42c1.1-.29,1.61-.42,1.68-.82a.56.56,0,0,0-.32-.56A4.77,4.77,0,0,0,77.54,19c-.78,0-1.86,0-2-.28-.07-.12,0-.36.08-.49.3-.62.63-1.18.93-1.66.55-.92.86-1.42.61-1.81s-.66-.27-.81-.25a4.09,4.09,0,0,0-1.87,1.12c-.3.26-.85.75-1,.7,0,0,0,0-.09-.16a2.66,2.66,0,0,0-2.57-1.66,1.07,1.07,0,0,0-1,1,13.15,13.15,0,0,1-.66,3.15,10.28,10.28,0,0,1-.23-2.54c-.08-2.65-.2-6.65-2-10.18-.79-1.58-1.37-2.8-1.79-3.69C64.17.24,64-.06,63.64,0s-.38.44-.41.67a14.13,14.13,0,0,1-.6,1.92,19.36,19.36,0,0,0-1.44,6c0,1,.11,1.81.18,2.47-.91-1.51-2.48-4-3.15-3.82a.47.47,0,0,0-.36.48l0,.44a6.59,6.59,0,0,1-.11,1.13,2.33,2.33,0,0,1-.33-.38c-.52-.71-3.18-3.51-4-3.08-.14.07-.36.27-.2.8a11.41,11.41,0,0,0,1,2,7.6,7.6,0,0,1,.9,1.83,4.35,4.35,0,0,1-.73.08c-.62,0-1.21.06-1.38.51s.09.78.75,1.41c2,1.92,11.52,12.51,11.8,14.22l-.24-.08c-1.93-.76-4.6-3.89-6.75-6.41s-3.47-4-4.22-3.91a.62.62,0,0,0-.49.31,2.07,2.07,0,0,0-.12,1.93l-.11,0c-.43-.12-1.4-.49-2.53-.91-5.3-2-5.95-2.09-6.2-1.64s.19.67.4.84A44.73,44.73,0,0,0,49.1,19.4c1,.64,2.22,1.41,2.78,1.85-.81.09-2.12.34-2.25,1s.64.9.92,1l.8.35C54.53,25,63,28.57,67,35.85,69.55,40.56,72,45,72.1,46l-.2-.1c-1.59-.93-5.55-5.8-6.29-6.72a8.08,8.08,0,0,0-2.44-6.71c-3.68-3.3-12.1-7.8-16.54-5.67,0-1,0-3.28,0-4.1a.54.54,0,0,0-.3-.49c-.37-.16-.78.16-1.41.65-.42.32-1.28,1-1.48.78a3.37,3.37,0,0,0-1.59-.81c-.37-.11-.82-.25-.82-.4,0-1.69.18-6.35,1-7.62.2-.3.42-.64.11-.85-.54-.38-3,2.72-3.45,3.35A11.65,11.65,0,0,0,37.6,20c-.54,1.59-1.37,4-2.13,4.19-.09,0-.23,0-.46-.19-1.79-1.72-3.38-7.12-3.31-10,.06-2.48-.14-3.08-.54-3.32a.86.86,0,0,0-.86.07c-.86.48-2.37,3.8-2.59,6.16a12,12,0,0,0,.56,3.69,11.45,11.45,0,0,1,.42,2,.6.6,0,0,1-.27-.1c-.8-.43-2.26-2.84-3.44-4.78C23.23,14.7,22.73,14,22.2,14.1c-.16,0-.36.17-.39.59A13.47,13.47,0,0,0,23,21.54l.48.82A11.08,11.08,0,0,1,24.79,25a.49.49,0,0,1-.22,0,8.78,8.78,0,0,1-1.85-.87c-.91-.51-1.45-.81-1.8-.52s-.13.67-.07.84a7.59,7.59,0,0,0,.72,1.34c.21.33.55.88.51,1s-.1.09-.61.08c-1.67-.06-3.55-.49-6.05-3.15a25.42,25.42,0,0,1-2-2.43c-.58-.78-.81-1.12-1.19-1s-.39.52-.41.76a4.06,4.06,0,0,0,.5,1.89,4.85,4.85,0,0,1,.31.81,2.82,2.82,0,0,1-.81-.24A19.53,19.53,0,0,1,8.13,21c-2.07-1.6-3.28-2.49-4-2.13a.88.88,0,0,0-.38.92c.18,2.91,2.26,5,4.28,6.74a11.9,11.9,0,0,0,4.66,2c-.5.05-1.07.08-1.63.11-1.73.09-2.5.15-2.67.63a.57.57,0,0,0,.25.64c.46.39.51.61.49.65s-.14.28-1.42.28c-.41,0-1,0-1.76-.07-4-.2-5.71-.16-6,.57C-.14,31.88.42,32.27.6,32.4ZM115.83,38.8c1.21-2.7,2.88-6.41,4.73-8.16A5.44,5.44,0,0,1,125,29.27a10.53,10.53,0,0,1,7.23,4.94c2,3,1.22,8.1-.3,11.56-1.34,3-3.3,5-5.23,5.34-4.26.69-10-4.82-11.6-6.47.64-.12,1.53-.37,1.82-.9a.86.86,0,0,0,0-.86c-.35-.66-1.19-.77-1.94-.88a7.55,7.55,0,0,1-.76-.13A11.59,11.59,0,0,0,115.83,38.8ZM95.44,55.74a3.43,3.43,0,0,0-.46,1.7,5.25,5.25,0,0,1-3.45-.9c-2.06-1.43-3.67-2.8-4.1-6.35-.28-2.33-1.84-4.51-3.34-6.62a19.59,19.59,0,0,1-2.43-4,4.12,4.12,0,0,1,.18-3.77C83,33.89,86,32.66,90.69,32.16c6.21-.66,10.48,5,12.49,8.47a2.79,2.79,0,0,0-.82.81,2.18,2.18,0,0,0-.3,1.36c-1.08-.3-4.28.62-6.48,1.33.88-.43,1.82-.85,2.57-1.12.27-.1.84-.3.77-.73s-.6-.59-2.34-.74l2.82,0v-.66c-9.93-.09-9.94,0-10,.43s.31.39,1,.45c1,.09,2.11.16,3.23.22a42.89,42.89,0,0,1,4.33.38h0c-1.13.41-5.47,2.39-5.57,3l0,.21.15.12c.18.15.38.12,1.14-.17,2.58-1,7-2.27,8.08-2.15a2.39,2.39,0,0,1-.24.23c-2.37,2-8.13,7.68-8.19,7.74l.46.47c.06-.06,5.81-5.69,8.16-7.71a2.64,2.64,0,0,0,.38-.39c0,.05,0,.1,0,.15a19.78,19.78,0,0,1,.82,2.46c.11.39.22.73.33,1.05-.4.45-1.16,1.12-1.91,1.79C99.59,50.87,96.9,53.25,95.44,55.74Zm.69,3.65A3.35,3.35,0,0,1,96,56.07c1.4-2.4,4-4.74,6-6.44.8-.71,1.38-1.22,1.77-1.63a1.74,1.74,0,0,0,.69.73c.65.34,1.61.25,3.2-.31a60,60,0,0,1,6.85-2l-.13-.65a60.65,60.65,0,0,0-6.93,2.06c-1.38.49-2.21.59-2.68.35a1.32,1.32,0,0,1-.55-.68,1.22,1.22,0,0,0,.17-.33L104,47c-.09-.27-.18-.57-.28-.92a20.84,20.84,0,0,0-.84-2.53,1.88,1.88,0,0,1,0-1.8,2.12,2.12,0,0,1,.59-.59,22.23,22.23,0,0,1,1,2l.61-.25a22.55,22.55,0,0,0-1-2.13c1.74-.82,4.76-1,6.93-1.12h.17a12.7,12.7,0,0,1,2.13,0l-.09.21a2.93,2.93,0,0,0-.34,1.29c0,1.16,1.11,1.32,2,1.44.62.08,1.25.17,1.44.53.08.14,0,.2,0,.23-.19.35-1.28.59-2,.65l-.67.05.45.5c.08.08.61.67,1.44,1.45l-.27.32c3,2.5,10.44,9.71,8.63,13-1.34,2.42-3.09,1.6-4.5.94-.68-.32-1.17-.54-1.55-.34a.71.71,0,0,0-.35.57c-.19,1.42-3.92,6.81-10.08,6.08C103.1,66.1,97.78,62.71,96.13,59.39Zm3,10.57a21.86,21.86,0,0,0,0-6.1l0-.2a18,18,0,0,0,8.38,3.63,9.74,9.74,0,0,0,1.19.07c.26,0,.51,0,.76,0a13,13,0,0,0-1.47,4,41.91,41.91,0,0,1-2.83,7.46.94.94,0,0,0-.51-.21,3.79,3.79,0,0,0-1.21.1,2.51,2.51,0,0,1-2.62-.62l-.54-.52A15,15,0,0,0,98,75.56,34,34,0,0,0,99.08,70ZM38.84,67.21a6.9,6.9,0,0,1-5.69,2.68,3.24,3.24,0,0,1-2.62-1.21l-.25-.4c-1.38-2.21-4.6-7.38-2.92-10.55,1.58-3,6.83-6.38,8.28-7.28A4,4,0,0,0,38,52.21a4.85,4.85,0,0,0,1.27.19,3.34,3.34,0,0,0,1.1-.18,48.39,48.39,0,0,1-.91,6.15c-.16-.67-.29-1.33-.41-1.92-.31-1.61-.46-2.34-1-2.4s-.62.37-.8.78c-.4.91-1.48,3-2.41,4.75,1.45-4.32.83-4.83.58-5s-.76-.21-1.33.14a33.21,33.21,0,0,0-3.28,2.43c-.37.3-.75.61-.89.7l-.13-.08c-.1.15-.3.44-.06.66s.4.12,1.49-.77a32.74,32.74,0,0,1,3.21-2.38c.37-.23.53-.21.56-.19.26.22.22,1.85-1.61,6.6-.21.54-.36.93,0,1.07a.42.42,0,0,0,.16,0c.25,0,.58-.47,2.1-3.31.94-1.77,1.87-3.6,2.21-4.37,0-.11.09-.19.12-.25a15.08,15.08,0,0,1,.4,1.73c.13.64.27,1.37.45,2.11.06.23.22.77.61.73s.89-.08,1.6-7.52a11.88,11.88,0,0,0,2.3-2.06l.55-.57a10.87,10.87,0,0,1,.87-.8h0c.08.06,8.53,6,6.25,10.87C49.76,62.1,47,63.1,44.33,64.06,42.17,64.85,40.12,65.58,38.84,67.21ZM38.2,51.57a3.08,3.08,0,0,1-2.32-2.3,1.6,1.6,0,0,1,.67-1.66,16.13,16.13,0,0,1,4-1.77,11.1,11.1,0,0,0,2.31-1.41,40.17,40.17,0,0,1,5.62-3.37c.88-.34,1.64-.29,1.93.12s.18,1.28-.94,2.62a12.93,12.93,0,0,1-3.32,2.83,14.2,14.2,0,0,0-2.72,2.15l-.55.58C41.17,51.21,40.28,52.14,38.2,51.57Zm22.33,7.53a14.44,14.44,0,0,0,4.5-.47,19.13,19.13,0,0,1,2.21-.36l-.2.19c-1.26,1.09-4.52,4.75-3.91,5.53.33.42,1-.06,1.37-.31,3.51-2.48,8.08-4.9,9.8-4.34a10.2,10.2,0,0,1,2.39.95,2.15,2.15,0,0,1-.68.31c-.53.18-1.2.35-1.84.51-1.86.47-2.61.68-2.61,1.21s.55.6,1.07.73l.25.06c2.58.61,9.44,2.25,11.39,13.91,1.87,11.23-1,26.45-2.1,28.2-.28-.58-.8-1.8-1.44-3.31-3.22-7.61-4.92-11.23-5.92-11.23a.56.56,0,0,0-.52.39l0,0c-1.21-2.22-5-9.54-6.55-15.81-1.82-7.57-9.25-14.92-9.33-15l-.46.47c.07.07,7.37,7.29,9.15,14.68,1.62,6.77,5.93,14.74,6.82,16.35a5.57,5.57,0,0,1-3.14,2.55,8.14,8.14,0,0,0-2.32.61l.54-.29s-2.6-4.82-9.51-12.41C52.75,74.86,46,65.81,45.26,64.43c2.56-.94,5.1-2,6.4-4.82,1.44-3.07-.79-6.39-3-8.7,3.82,2.62,5.38,4.39,6,5.47A4.64,4.64,0,0,0,58.45,59l.39,0a3,3,0,0,0,.91-.27A1.27,1.27,0,0,0,60.54,59.11Zm2.78-4.73c.64.68,1.6,1.71,1.51,2,0,0-.07.07-.16.1l-1.31.36c-1,.26-1.7.47-2.26.65a5,5,0,0,0,.65-1.44,8.7,8.7,0,0,0,.17-3.32A17.15,17.15,0,0,0,63.32,54.37Zm11.21,1.29a.19.19,0,0,1-.14.17C72,57,67.1,55.09,65.86,53.44c-1-1.35-3.17-3.06-4.09-2.66l-.08,0A6.07,6.07,0,0,1,63,46c.21-.26.41-.53.6-.82C68,48.46,74.68,54.15,74.53,55.66Zm-2.58-6.21h0c-1.24,0-4.93-4.22-7-7l.12-.35C68.33,45.11,71.77,48.6,71.94,49.45ZM62.73,33c3.43,3.08,2.63,9-.26,12.57-1.83,2.26-1.56,4.36-1.3,6.4a9.82,9.82,0,0,1,0,3.94,3,3,0,0,1-2.36,2.44c-1.3.15-2.65-.72-3.54-2.29-.8-1.41-3.07-3.89-9.34-7.72l-.3-.19,0,0-.2-.14c.4-.3.8-.56,1.22-.83a13.67,13.67,0,0,0,3.46-3c1.17-1.4,1.52-2.65,1-3.42s-1.51-.8-2.7-.35a40.37,40.37,0,0,0-5.75,3.44c-.89.6-1.82,1.21-2,1.31h0a16.55,16.55,0,0,0-4.26,1.86,2.24,2.24,0,0,0-1,2.31,3,3,0,0,0,.11.45c-1.39.86-6.88,4.38-8.58,7.58a4.45,4.45,0,0,0-.35.92,3.7,3.7,0,0,1-3.82-.14,4.13,4.13,0,0,1-1.75-3.3,8,8,0,0,1,3.08-6.82c2.23-1.81,3.68-4.39,5.08-6.88s2.79-5,4.9-6.59a2,2,0,0,1,1.94-.43c2.85,1,4.78,8.43,4.8,8.5l.07,0c0,.19,0,.3,0,.31l.66,0s.07-2.93-.08-6.38c-.16-3.72,1.47-6.56,5.15-8.95C50.4,25.09,59.14,29.77,62.73,33ZM6,31.49c.73,0,1.37.07,1.79.07,1.21,0,1.86-.23,2-.71s0-.8-.59-1.31a14.55,14.55,0,0,1,1.93-.17,17.27,17.27,0,0,0,2.45-.24c.25-.06.64-.14.65-.48s-.3-.43-1.22-.67A11.65,11.65,0,0,1,8.5,26.05c-2.71-2.29-3.92-4.16-4-6.28a.6.6,0,0,1,0-.29c.37-.16,2.17,1.23,3.25,2.07a19.81,19.81,0,0,0,3.85,2.57c.85.34,1.31.37,1.56.11s.09-.87-.21-1.55a3.88,3.88,0,0,1-.45-1.52l.42.55a26.15,26.15,0,0,0,2,2.49c2.15,2.29,4,3.27,6.51,3.36.41,0,1,0,1.2-.4s-.08-1-.52-1.7a7.11,7.11,0,0,1-.66-1.21c.25.11.63.32.92.48a9.22,9.22,0,0,0,2,.93.77.77,0,0,0,.88-.19c.4-.54-.21-1.65-1.25-3.41l-.47-.81a12.87,12.87,0,0,1-1.1-6.29,30,30,0,0,1,2,3c1.34,2.21,2.73,4.5,3.69,5,.15.08.6.33.94.06s.23-1.23-.14-2.68a11.66,11.66,0,0,1-.55-3.47c.23-2.43,1.75-5.36,2.26-5.65a.86.86,0,0,1,.2-.08c.09.07.28.47.22,2.74C31,17,32.61,22.55,34.56,24.42a1.12,1.12,0,0,0,1.07.36c1-.25,1.73-2.07,2.6-4.61a12.12,12.12,0,0,1,1-2.44c.46-.6,1.19-1.45,1.81-2.13a34,34,0,0,0-.66,6.85c0,.64.66.84,1.29,1a2.9,2.9,0,0,1,1.29.63c.61.67,1.59-.09,2.37-.71.2-.15.47-.37.65-.48.05,1,0,3.6,0,4.27-3.73,2.47-5.47,5.55-5.3,9.42.07,1.52.09,2.93.09,4-.8-2.39-2.43-6.34-4.67-7.12a2.38,2.38,0,0,0-1.51,0,5.28,5.28,0,0,0-4.69-2.7c-2.79-.11-3,.73-3.28,2.84a22,22,0,0,1-.46,2.64c-1,3.89-7.81,6.15-9.57,6.42h-.09c-.25-.42,1-2.9,1.77-4.54a22.29,22.29,0,0,0,2-4.94.94.94,0,0,0-.36-1c-1-.62-3.65,1.1-7,3.42l-1.25.85c-1.4.92-2.26.77-2.35.68s.07-.13.29-.27a3,3,0,0,0,1.29-2.57V34l-.29,0c-.07,0-7.35-.54-9.6-2.14a1.35,1.35,0,0,1-.29-.26C1.24,31.25,4.41,31.41,6,31.49Z"/><path class="cls-1" d="M28.61,27.52c6.72-2.34,10.74-.05,10.78,0l.34-.57c-.17-.1-4.3-2.47-11.33,0C21.57,29.27,18.07,29.46,18,29.46l0,.66C18.21,30.11,21.68,29.93,28.61,27.52Z"/><path class="cls-1" d="M108.76,53.58c0,1.32.07,2.83.19,4,0,.41.12,1.25.67,1.25h0c.91,0,1.81-3.74,2.19-5.76a10.13,10.13,0,0,0,1.41,3.67c.28.35.52.33.67.26s.91-.44-1.23-10.08l-.64.14a66.43,66.43,0,0,1,1.54,9,13.66,13.66,0,0,1-1.25-3.82c-.21-1-.27-1.19-.6-1.16s-.36.38-.38.75A22.36,22.36,0,0,1,109.68,58a3.9,3.9,0,0,1-.08-.5c-.11-1.18-.15-2.67-.19-4-.08-3.28-.14-3.93-.64-4s-.6.44-.72.75a28.51,28.51,0,0,1-3,5.26l.53.39a29,29,0,0,0,3.06-5.29C108.71,51.35,108.74,52.55,108.76,53.58Z"/><path class="cls-1" d="M121.44,39.49c-.42.3-.87.6-1.3.88-1.48,1-2.13,1.43-2,2s.77.5,1.67.47c1.32,0,3.58,0,5.52,0a67.13,67.13,0,0,0-8,1.12l.14.64a69.44,69.44,0,0,1,9.83-1.24c1.84-.11,2.07-.17,2.06-.56s0-.48-4-.62c-2.11-.07-4.39-.09-5.54,0a4.07,4.07,0,0,1-.94,0,11.71,11.71,0,0,1,1.62-1.18c.44-.29.91-.6,1.34-.91.19-.14.65-.47.46-.86-.11-.23-.36-.78-5.85.61l.16.64A31.24,31.24,0,0,1,121.44,39.49Z"/><path class="cls-1" d="M113.47,36.47c.58-7.3.33-7.35,0-7.42s-.46.31-.51.48c-.15.49-.36,1.36-.6,2.37s-.62,2.59-.91,3.49v-.1c0-1,0-2.15-.06-3.34-.07-5.77-.15-5.94-.59-6s-.48.42-.57.86c-.56,2.7-1.47,8.59-1.48,8.65l.65.1c0-.05.71-4.58,1.25-7.5,0,1.13.06,2.64.08,3.89s0,2.38.06,3.35.11,1.35.5,1.39h.05c.47,0,.73-.74,1.66-4.65l.14-.6c-.05,1.35-.17,3.21-.31,5Z"/></g></g></svg>