<svg xmlns="http://www.w3.org/2000/svg" viewBox="0 0 110.42 151.35"><defs><style>.cls-1{fill:#fff;}</style></defs><title>אמלה</title><g id="Layer_2" data-name="Layer 2"><g id="Expended"><path class="cls-1" d="M89.12,79.8A5,5,0,0,0,89.24,78a.49.49,0,0,0-.4-.4c-.42-.05-.72.42-1.38,1.5a8.49,8.49,0,0,1-1,1.46c-.5-.86-1.92-4.41-2.62-6.23l-.62.24c.09.22,2.13,5.52,2.73,6.43a.54.54,0,0,0,.47.27c.49,0,.94-.7,1.62-1.82.18-.29.42-.69.61-.95a11,11,0,0,1-.16,1.23c-.28,1.74-.7,4.36.6,6.87,1.7,3.26,6,20.76,4.67,34.73l.66.06c1.4-14.09-3-31.8-4.74-35.1C88.45,83.95,88.86,81.45,89.12,79.8Z"/><path class="cls-1" d="M109,9.64c-3.12-2.39-10.52,5.94-11.35,6.9l0,0a.73.73,0,0,0-.13.62c-.31.26-.83.77-1.73,1.66,1.07-1.92,2.73-5.7,2.16-7.76A1.84,1.84,0,0,0,96.8,9.8a1.24,1.24,0,0,0-1.18.13c-2.12,1.43-2.4,10-2.43,11v.32a5.32,5.32,0,0,0-.93,1.09l0,.08c-.71.6-1.45,1.26-2.22,1.95.34-1.68,1.13-5.58,1.65-7.79.41-1.73.62-2.81.07-3.26s-1.25-.15-2.28.32a1.82,1.82,0,0,0-.9,1.17c-.86,2.61.38,9,.65,10.26v0c-.45.42-.91.86-1.37,1.31-.09-2-.29-7.16-.08-9.1.15-1.43.15-3.21-.73-3.57-.56-.23-1.25.18-2.11,1.25-2,2.56,1.49,10.57,2.21,12.13-.44.44-.86.89-1.3,1.36-.06-.37-.24-1.3-.73-3.8-.27-1.39-.59-3-.91-4.67l-.06-.33c-.51-2.68-.8-4.16-1.74-4.51-.61-.23-1.37.07-2.55,1a1.86,1.86,0,0,0-.69,1.32,3.34,3.34,0,0,0,0,.68A1.93,1.93,0,0,0,78,17.61c-.81-.08-1.53.55-2.15,1.83a3.24,3.24,0,0,0,0,2.34,2.86,2.86,0,0,0-2.65.89,2.13,2.13,0,0,0-.61,1.76,4,4,0,0,0,.35,1.21c-.21.09-.42.18-.65.31a2,2,0,0,0-1.12,1.65A3.36,3.36,0,0,0,71.36,29a4.09,4.09,0,0,0-2.09,1.69,2.59,2.59,0,0,0-.45,2c.48,3.19,5.58,7.2,6.62,8l-.24.38-.59.15.47,0c-.36.58-.54.94-.6,1.07a.82.82,0,0,0-.07.14c-.53-.09-1-.16-1.56-.2A23.62,23.62,0,0,0,70.16,37a50.17,50.17,0,0,0-5.85-7.37,19.51,19.51,0,0,1-2.63-3.23c-.29-.69-.12-1,.58-2a20.31,20.31,0,0,0,2-3.55,72.63,72.63,0,0,0,3.26-8.49l0-.09a1.09,1.09,0,0,0-.1-1,1,1,0,0,0-.86-.24C66,11.1,65.25,12.6,63,17.69c-1.16,2.65-2.48,5.66-3.08,6.28a.7.7,0,0,1-.56.28c-.67,0-1.6-1.26-2.9-3-.54-.7-1.15-1.5-1.86-2.36-3.08-3.76-4.33-11-4.38-11.27A.45.45,0,0,0,50,7.35a5.79,5.79,0,0,0-3.39-.13.57.57,0,0,0-.33.31c-.3.68.42,2.44,1.63,5.26a23.48,23.48,0,0,1,1.64,4.46.24.24,0,0,1-.11.26c-.89.6-4.77-.31-8.73-1.88.11-1.17.9-12-1.17-13.33a1.09,1.09,0,0,0-1.33.17c-.9.7-1.17,2-1.09,3.54-.52-1.68-1.22-3.1-2.16-3.66a1.92,1.92,0,0,0-2,0A2.1,2.1,0,0,0,31.83,3.9C31.34,6.7,35.24,11.79,37,14l-.13-.06c-5.17-2.69-9.2-6.13-9.44-6.61l-.64.17c.14.71,4.76,4.42,9.78,7,.47.25,1,.49,1.52.74l.35.39v-.23c.57.26,1.16.51,1.76.75l.25.52.09-.39c3.83,1.51,8,2.61,9.23,1.78a.9.9,0,0,0,.4-.88,22.76,22.76,0,0,0-1.69-4.65c-.73-1.71-1.84-4.3-1.69-4.69a5.54,5.54,0,0,1,2.78,0c.18,1,1.49,7.79,4.5,11.47.7.85,1.31,1.65,1.85,2.34,1.51,2,2.42,3.15,3.39,3.21a1.41,1.41,0,0,0,1.07-.48c.68-.7,1.91-3.5,3.21-6.47,1.11-2.54,2.63-6,3.07-6.27a.48.48,0,0,1,.29,0s0,.12,0,.4a1.28,1.28,0,0,0,0,.17,77.35,77.35,0,0,1-3.2,8.3,19.77,19.77,0,0,1-2,3.44c-.68,1-1.1,1.58-.65,2.63a18.24,18.24,0,0,0,2.75,3.42,49.73,49.73,0,0,1,5.78,7.27,27.55,27.55,0,0,1,2.58,4.9,19.63,19.63,0,0,0-3.91.17c-.06-.61-.55-2.68-4-7.92a56.93,56.93,0,0,0-9-11.16v-.09h-.09c-.58-.52-1.16-1-1.74-1.43-2.4-1.78-5.25-2.66-9.77-4l0,0-.07,0-.8-.23c-1.55-.45-3.29-1-5.27-1.56-8.19-2.5-11-8-11.06-8.07l-.59.29c.12.24,3,5.82,11.46,8.41,2,.6,3.68,1.1,5.21,1.54-1.71.63-9.61,3.68-9.83,6a1.37,1.37,0,0,0,.82,1.32A2.7,2.7,0,0,0,35,26a5,5,0,0,0,2.74-1.05,3.92,3.92,0,0,0-.27,1.64,2.62,2.62,0,0,0,1.22,2l-.1,0-.21.12v.2a.39.39,0,0,0,.17.31,19.26,19.26,0,0,0-5,2.36,23.86,23.86,0,0,0-2.61-3.83l.09-.2c.41-.9,4-8.88,2.3-11a1.63,1.63,0,0,0-1.69-.54,2.61,2.61,0,0,0-1.87,1.29c-1.45,2.43-.16,7.56.42,9.5C28.92,25.11,27.27,23,25,20.2h0l.23-.34c1.72-2.52,3.92-6.06,3.21-7.63a1.31,1.31,0,0,0-1.13-.75,1.75,1.75,0,0,0-1.5.5c-1.52,1.45-1.53,5.74-1.47,7.42l-.83-1c-.33-.42-.64-.83-.94-1.23.34-.5,4-5.93,1.6-7.74a1,1,0,0,0-1.11-.18c-1.24.66-1.23,5-1.16,7-.68-1-1.28-1.89-1.8-2.73l.29-.48c1.8-2.91,2.74-4.73,2.22-5.45-.13-.18-.41-.37-1-.22-1.65.42-2.18,3.22-2.24,5l-.25-.42c-.31-.52-.57-.95-.8-1.31a5.71,5.71,0,0,0,1.84-2.12l.3-.51c.93-1.54,2.08-3.46,1.43-4.49-.31-.49-.93-.68-1.9-.59a2.36,2.36,0,0,0-1.15.43c.05-.19.11-.39.17-.59.3-1,.58-2,0-2.45S18-.06,16.88.44C14.93,1.31,15,4,15.46,6.22,14.18,3.58,12.34.44,10.91.09a1.22,1.22,0,0,0-1.4.7C8,3.34,12.26,7.05,14.78,9c-2.19-.87-5.29-1.9-6.49-1.21a1.09,1.09,0,0,0-.56.9,1.69,1.69,0,0,0,.83,1.57,8.5,8.5,0,0,0,4.46,1,12.3,12.3,0,0,0,3.54-.47,12.06,12.06,0,0,0,.76,1.43c-3.26.44-6.92,1.15-7,2.17,0,.6.84.89,1.71,1.1a8.79,8.79,0,0,0,2,.26,4.37,4.37,0,0,0,2.6-.74A3.62,3.62,0,0,0,18,13.18c.68,1,1.54,2.22,2.5,3.51-2.1-.59-6.24-1.57-7.41-.46a1.19,1.19,0,0,0-.28,1.25,1.87,1.87,0,0,0,1,1.22,4.11,4.11,0,0,0,1.82.35,19,19,0,0,0,5.69-1.25c.55.73,1.13,1.47,1.73,2.22-2.36-.56-7.87-1.68-9-.29a1.2,1.2,0,0,0,0,1.38,3.23,3.23,0,0,0,3.16,1.53,18.75,18.75,0,0,0,6.57-1.72c1.4,1.76,2.84,3.53,4.2,5.17a22.72,22.72,0,0,0-6-1c-2.41,0-4,.55-4.71,1.75a1.1,1.1,0,0,0-.07,1.31c.33.43,1.16.6,2.24.6a45.29,45.29,0,0,0,9.29-1.64h0c1.17,1.4,2.23,2.67,3.11,3.71-3.6.33-7.8,1-8,2.18-.12.66.78,1.08,1.07,1.21a5,5,0,0,0,2.1.48c2.77,0,4.86-2.45,5.43-3.19l.43.51a14.75,14.75,0,0,0-4.06,4.45A14.9,14.9,0,0,0,27.61,48a15.62,15.62,0,0,0,7.68,9.55l.63.3c-.34,0-.68,0-1,0a17.71,17.71,0,0,0-9.32,3.56c-.43-.57-1.16-1.54-2.13-2.88l.25,0-.46-.24c-.62-.85-1.33-1.84-2.13-2.94.86-.77,3.7-3.44,3.3-5a1.32,1.32,0,0,0-1.06-.89,1.89,1.89,0,0,0,.16-.83,1.37,1.37,0,0,0-.83-1.14,1.92,1.92,0,0,0-.25-.1,1.59,1.59,0,0,0,0-.18A1.46,1.46,0,0,0,21.72,46a1.89,1.89,0,0,0-.46-.23,2.74,2.74,0,0,0,.5-2,1.23,1.23,0,0,0-1.2-.75,2.39,2.39,0,0,0-1.24.23c.73-1.42,1.2-2.75.86-3.42a1,1,0,0,0-1-.52h-.07a1.88,1.88,0,0,0-1-1.24,1.74,1.74,0,0,0-1.33-.2,2.89,2.89,0,0,0,.26-1.67,1.1,1.1,0,0,0-.72-.78,1.25,1.25,0,0,0-.55-.07,2.55,2.55,0,0,0,.1-1.31,1.45,1.45,0,0,0-1-1,1.64,1.64,0,0,0-1.06,0,2.59,2.59,0,0,0,0-1.92.81.81,0,0,0-.84-.31,1.38,1.38,0,0,0-.38.13,3.24,3.24,0,0,0,0-2.42,1.16,1.16,0,0,0-1.22-.46,2.21,2.21,0,0,0-.5.12,1.71,1.71,0,0,0-.17-1,1.14,1.14,0,0,0-1.09-.51,1.63,1.63,0,0,0-1.29.68,2.32,2.32,0,0,0-.29.54c.11-1.75,0-3.55-.74-4.09A1.17,1.17,0,0,0,6,23.76a2.3,2.3,0,0,0-1.11,1.55c-.32,1.46.48,3.38,1.18,4.71C4.56,28.74,2.74,27.45,2,27.85c-.33.18-.44.57-.34,1.15a3,3,0,0,0,1.19,1.88,1.31,1.31,0,0,0-.45,1.06A1.84,1.84,0,0,0,3,33.49,2.9,2.9,0,0,0,4.13,34a.92.92,0,0,0-.55.27c-.23.28-.2.67.09,1.15a2.46,2.46,0,0,0,.78.81,1.4,1.4,0,0,0-.93.51.85.85,0,0,0,.18,1,2,2,0,0,0,1.08.68c.2.37.89.59,1.76.71a2,2,0,0,0-.46,1.35,1.59,1.59,0,0,0,.72,1.58,1.42,1.42,0,0,0,.46.14,1.48,1.48,0,0,0-.16.17A1.59,1.59,0,0,0,7,44a1.69,1.69,0,0,0,.8.94c-.68.52-1.14,1-1.09,1.46,0,.24.19.55.81.7a2.44,2.44,0,0,0,.56.06,2.57,2.57,0,0,0,1-.21,4,4,0,0,0,2.2.5,15.88,15.88,0,0,0,3.16-.38q.48.82,1,1.62l0,.27c-2.61-.91-6.43-2-7.12-1-.4.6.28,1.46.83,2a6.65,6.65,0,0,0,2.42,1.73,1,1,0,0,0-.38.19c-.34.31-.37.81-.09,1.48.68,1.62,2.25,2.2,3.87,2.32l-.16.07A1.22,1.22,0,0,0,14.18,57a1.71,1.71,0,0,0,.68,1.34,6.11,6.11,0,0,0,3.57.81,24.06,24.06,0,0,0,3.77-.34c1.16,1.55,2.07,2.7,2.55,3.31a20.46,20.46,0,0,0-6.67,11.46,17.83,17.83,0,0,0,2.68,14.59,16.88,16.88,0,0,0,1.14,1.38,20.35,20.35,0,0,1-4.12.06c-2.28-.18-4.91-.64-5.57-.76-.55-1.48-2.47-6.22-4.41-6.47a1.56,1.56,0,0,0-1.51.84,2.34,2.34,0,0,0-.34,2.14C6.4,86.71,8,87.83,9.49,88.59c-3.3-1.1-8-2.18-9.29.13A1.15,1.15,0,0,0,.19,90c.56.81,2.54,1.06,4.76,1.06a58.53,58.53,0,0,0,7.19-.56l1.61.27c-2.11.85-7.08,3.07-7.45,5.17a1.56,1.56,0,0,0,.63,1.51A2.1,2.1,0,0,0,8.32,98a2.31,2.31,0,0,0,.46,0c2.82-.57,5.87-6.31,6.22-7,.78.11,1.64.22,2.53.32-1.18,2.25-4.08,8.22-3,10.77A2,2,0,0,0,16,103.23a2.12,2.12,0,0,0,.48.06,1.85,1.85,0,0,0,1.57-.93c1.47-2.21,1.14-8.45.77-11l.29,0c.08,2.4.48,8.85,2.41,9.75a1.22,1.22,0,0,0,.52.12,1.75,1.75,0,0,0,1.11-.46,2.79,2.79,0,0,0,1-2.07c.16-2.45-2.21-5.67-3.59-7.32a4.2,4.2,0,0,0,2.57-.64,21.24,21.24,0,0,0,8.89,4.7c-1.66,1.35-6.74,5.66-6.27,7.61a1.29,1.29,0,0,0,1.15.92,2.71,2.71,0,0,0,.53.05c3.47,0,5.2-7,5.51-8.37.38.09.75.19,1.13.26-.67,1.42-3.8,8.29-2.32,10.31a1.48,1.48,0,0,0,1.26.59,2.5,2.5,0,0,0,.38,0,2.55,2.55,0,0,0,1.84-1.18c1.34-2.08.53-6.35-.39-9.58.57.09,1.14.19,1.74.25s1.2.09,1.78.09a15.53,15.53,0,0,0,3.06-.3c-1.09,2.17-4.35,9.06-3,11.1a1.42,1.42,0,0,0,1.26.62h.21a2.43,2.43,0,0,0,1.77-1,4.36,4.36,0,0,0,.58-1.11,1.24,1.24,0,0,0,1,.39l.26,0a2.28,2.28,0,0,0,1.57-1,5.5,5.5,0,0,0,.85-2.14,1,1,0,0,0,.32.63.61.61,0,0,0,.35.11,1,1,0,0,0,.6-.24,2.81,2.81,0,0,0,.83-1.09,2.43,2.43,0,0,0,.49,1.25,1.31,1.31,0,0,0,1,.44,2,2,0,0,0,.45-.05,2.48,2.48,0,0,0,1.58-1.2,4.07,4.07,0,0,0,.19-.39,1.59,1.59,0,0,0,.21,0,2.14,2.14,0,0,0,1.31-1.06.88.88,0,0,0,.38.09,1.34,1.34,0,0,0,.63-.18,2.47,2.47,0,0,0,1.12-1.46,2.1,2.1,0,0,0,.75,1.3.93.93,0,0,0,.48.13,1.47,1.47,0,0,0,.87-.34c1-.77,1.35-2.17,1.29-3.77a1.08,1.08,0,0,0,.51.48.65.65,0,0,0,.21,0,.83.83,0,0,0,.62-.32c1.76-2-2-8.58-2.4-9.33v0A7.79,7.79,0,0,0,59,87.33a.85.85,0,0,0,.36-.48,38.76,38.76,0,0,1,6.26,4.25,17.85,17.85,0,0,1,1.81,2.13,3,3,0,0,0,2.48,1.64l.47,0c1.39.1,1.48.11,3.92,1.47.69.38,1.54.79,2.44,1.22,1.68.8,4.22,2,4.24,2.61,0,.06-.09.15-.24.24-1.15.63-11.17,6.16-10.74,7.52.15.46.8.38,1,.36,1.76-.21,3.85-1.8,5.87-3.35,2.23-1.71,4.55-3.46,6-3a15.33,15.33,0,0,0,1.91.42c1.6.27,2.26.38,3.59,3.33,3.11,6.88,2.75,45.28,2.75,45.67h.66c0-1.59.36-38.93-2.81-45.94-1.42-3.14-2.28-3.41-4.08-3.71a15.1,15.1,0,0,1-1.83-.4c-1.83-.54-4.16,1.25-6.63,3.14-1.95,1.49-4,3-5.54,3.21l-.25,0c.81-1.11,7-4.84,10.34-6.66a.92.92,0,0,0,.58-.83c0-.94-1.76-1.83-4.62-3.19-.89-.42-1.73-.82-2.4-1.2-2.51-1.4-2.69-1.44-4.19-1.55l-.47,0c-1-.08-1.32-.46-2-1.38a18.75,18.75,0,0,0-1.88-2.2c-2.32-2.32-10.85-6.87-11.93-7.44a20.94,20.94,0,0,0,1.15-6.9c-.07-1.66-.18-3.07-.31-4.17a14.17,14.17,0,0,0,1.53,1.95,15.63,15.63,0,0,0,8.37,4.44H64.8c0,.08,2.37,8,2.93,10.63a3.08,3.08,0,0,1,.07.54c-.52,0-2.54-1.75-4.18-3.19-.71-.63-1.48-1.29-2.27-2C57.2,81,55.09,81,55,81v.66s2,.11,5.93,3.43c.79.67,1.55,1.33,2.26,2,2.53,2.22,3.87,3.35,4.63,3.35a.61.61,0,0,0,.32-.08c.41-.24.34-.83.25-1.26-.5-2.36-2.42-8.89-2.86-10.37.37.07.75.12,1.14.17.2,2.11,1,9,2.31,9.53a.66.66,0,0,0,.71-.15,8.08,8.08,0,0,0,1.69-2.54,14.5,14.5,0,0,1,2.29-3.52,19.19,19.19,0,0,0,2.13-2.74,23.8,23.8,0,0,1-.33,3c-.28,1.75-2.11,3.26-3.57,4.48-1.16,1-2,1.67-2,2.35a2.17,2.17,0,0,0,1.09,2c.63.23,1.4-.1,2.29-1,1.68-1.69,4.75-5.27,5.93-6.7A11.61,11.61,0,0,1,78.14,87c-.65,1.31-2.34,2.43-3.57,3.25s-1.65,1.12-1.66,1.55a.52.52,0,0,0,.23.44,6.63,6.63,0,0,0,1.7.61,20.66,20.66,0,0,1,7.95,3.82l.88.75c2.23,1.9,3.24,2.76,3.93,2.76a.78.78,0,0,0,.27,0c.43-.16.56-.66.63-1.08.29-1.86-.68-10.75-3.32-12.31-2.26-1.33-3.33-2.79-2.81-3.79.1-.19.2-.35.29-.5.54-.89.75-1.4-.39-3.43a6.46,6.46,0,0,0-2.15-2.57,21,21,0,0,0,9-11.64c2.24-7.32,0-14.41-5.82-18.5a23.46,23.46,0,0,0-5-2.69c2.76,1,7,2.5,8.91,2.65.2,0,.53,0,.9,0,1.09,0,2.61-.17,2.91-1.06s-.48-1.66-2.24-2.75a6.59,6.59,0,0,0-.85-.44,16.12,16.12,0,0,0,2.88-.29c2-.46,2.26-1.31,2.22-1.77-.06-.63-.69-1.17-1.65-1.54a1.91,1.91,0,0,0,.29-.26A1.71,1.71,0,0,0,92,36.67a2.52,2.52,0,0,0,2-1.57c.1-.4.06-1.13-.94-1.92l.77,0c2.18,0,3.48-.41,3.95-1.24s.18-1.62-.61-2.76a2.16,2.16,0,0,0-.26-.27,5.31,5.31,0,0,0,1.61-.31,2.28,2.28,0,0,0,1-2.49c-.19-.65-.89-1.7-3.44-1.46a22,22,0,0,0-7.69,2.4l1.86-1.79.08.35s2.25-.49,7-1.2l2-.28c1.77-.23,2.51-.33,2.79-.84s0-1-.43-1.9a1.24,1.24,0,0,0-.77-.65h-.07l.81-.15a38.35,38.35,0,0,0,5-1.09c.49-.24,1.6-.86,1.4-1.54s-1-1-5.87-.34a22.59,22.59,0,0,0-4.71,1.1,3,3,0,0,0,.62-.8c0-.1.08-.2.11-.29l.16,0c1.63,0,5.1-1.38,7.3-2.61.62-.35,1.21-.65,1.75-.93,1.67-.86,2.88-1.48,3-2.43C110.47,11.06,110,10.43,109,9.64ZM89.7,14.22a4,4,0,0,1,1.41-.46.27.27,0,0,1,.18,0c.28.23-.09,1.77-.29,2.6-.46,1.91-1.11,5.07-1.49,7C89,20.3,88.35,14.84,89.7,14.22Zm-4.3,1.19c.63-.79,1.06-1.06,1.27-1.06h.07c.25.1.54,1,.33,2.89a81.32,81.32,0,0,0,0,8.27C85.78,22.35,84,17.11,85.4,15.41ZM38.6,3A.71.71,0,0,1,39,2.8a.27.27,0,0,1,.15,0c1.34.82,1.17,8.46,1,11.53C38.68,11,36.52,4.6,38.6,3ZM32.48,4a1.45,1.45,0,0,1,.78-1.09,1.5,1.5,0,0,1,.71-.2,1.2,1.2,0,0,1,.63.18c2.05,1.24,3,8,3.19,10.93C36.2,11.93,32,6.64,32.48,4Zm5.65,6.86a43.74,43.74,0,0,0,1.69,4.39l-1.35-.6A37,37,0,0,0,38.13,10.87Zm-7.81,6.7a2,2,0,0,1,1.42-1l.33,0a.86.86,0,0,1,.73.32c1.09,1.42-.84,6.79-2,9.56C30.21,24.5,29,19.71,30.32,17.57Zm-4-5.13a1.12,1.12,0,0,1,.8-.33h.16c.42.05.54.24.61.37.28.62,0,2.27-2.84,6.53C25,17,25.18,13.53,26.32,12.44ZM23.43,9.77a.17.17,0,0,1,.09,0,.55.55,0,0,1,.31.14c1.36,1-.1,4.17-1.22,6C22.54,13.3,22.73,10.14,23.43,9.77Zm-2.52-1a1.61,1.61,0,0,1,.94-.85l.22,0c.08,0,.07,0,.07,0,.14.18,0,1-2,4.38A8.66,8.66,0,0,1,20.91,8.78ZM16.3,14.39a5,5,0,0,1-4.1.37,5.22,5.22,0,0,1-1.2-.41h0c.3-.47,3.45-1.16,6.42-1.57A3,3,0,0,1,16.3,14.39Zm-2.19,3.72a1.22,1.22,0,0,1-.68-.8c-.1-.36,0-.52.1-.61A2.18,2.18,0,0,1,15,16.37a23.61,23.61,0,0,1,5.57,1C18.91,17.93,15.63,18.88,14.11,18.11Zm.52,2.7c-.23-.46-.1-.62-.05-.67.25-.31.93-.43,1.84-.43a32.35,32.35,0,0,1,6.36.92C20.27,21.66,15.71,23,14.63,20.82Zm3.13,6.91c-.08-.11,0-.3.11-.57a3,3,0,0,1,2.06-1.25,8.87,8.87,0,0,1,1.87-.18,21.69,21.69,0,0,1,5.86,1C23.66,27.7,18.42,28.6,17.76,27.73Zm7.47,5.85c-.67-.31-.7-.5-.7-.5.08-.47,2.74-1.18,7.1-1.61C30.64,32.62,28.17,34.95,25.22,33.58Zm-.91-13.24-.19-.05c-.69-.87-1.35-1.71-2-2.51l.07-.1c.26.35.54.71.83,1.07Zm.16.26v.15l-.09-.11Zm-2.44-3L22,17.55l0,0Zm-4.6-8.88c0,.23,0,.43,0,.62a1,1,0,0,0-.2-.13Zm-.35,1.14.13.13-.15-.07Zm3-6.4.37,0a1.07,1.07,0,0,1,.91.31c.43.69-.74,2.63-1.44,3.8l-.31.51A5.78,5.78,0,0,1,18.2,9.87a15,15,0,0,1-.05-3.58c.15-.54.3-1.08.42-1.57a2.84,2.84,0,0,1,.3-.53A1.71,1.71,0,0,1,20.12,3.48ZM17.14,1A3.57,3.57,0,0,1,18.46.66a.35.35,0,0,1,.23.05c.22.19-.06,1.14-.24,1.76-.11.37-.22.74-.28,1.07s-.13.59-.22.95a6.24,6.24,0,0,0-.44,1.62C17.25,7,17,7.9,16.79,8.54,16.12,6.59,14.85,2.06,17.14,1Zm-7.07.07c.19-.33.38-.41.53-.41h.1C12.37,1,15.1,6.78,16,9.06,13.37,7.18,8.79,3.31,10.08,1.12ZM8.93,9.67a1.06,1.06,0,0,1-.55-1,.44.44,0,0,1,.23-.38,1.56,1.56,0,0,1,.76-.15c1.54,0,4.5,1.07,6.64,2C14,10.69,10.38,10.68,8.93,9.67Zm9.25,2.66,0-.31-.22,0a11.26,11.26,0,0,1-.88-1.55l.34-.16.18.27,0,.17.07,0c.27.42.57.92.87,1.42.79,1.32,1.82,3,3.16,4.89l-.11,0-.11,0C20.14,15.15,19,13.55,18.18,12.34Zm6.45,8.59.06-.11c1.37,1.73,3,3.76,4.4,5.61C27.54,24.54,26,22.68,24.63,20.93ZM15.51,47,14.89,46c.19-.17.5-.45.87-.82C15.65,45.85,15.56,46.51,15.51,47Zm2.91,4.51c.2-.12.51-.32.88-.58-.13.52-.23,1-.29,1.41Zm-.59-.84-.29-.42.5-.51c-.09.35-.16.68-.21.94Zm-1.07.23V51l0,0c.67,1.05,1.34,2.06,2,3v0a31.69,31.69,0,0,0-5-2.06,5.47,5.47,0,0,0,2.76-1.46Zm2.06,3.12,0,0,0,0Zm.91-.66.6-.47c0,.46,0,.9,0,1.27Zm3.36-3.31c.59.12.66.37.68.46.22.86-1.44,2.76-2.81,4a11.87,11.87,0,0,1,.11-2.28,10.94,10.94,0,0,0,2-2.21ZM21.43,51a2,2,0,0,1,.44-.65,1.18,1.18,0,0,1,.29-.18A10.11,10.11,0,0,1,21.43,51Zm.94-2.91c.4.2.46.44.47.6a1.45,1.45,0,0,1-.18.68,1.83,1.83,0,0,0-1.24.49,3.74,3.74,0,0,0-1,2.06c-.28.25-.56.48-.83.7a17.15,17.15,0,0,1,.55-2.33,7.5,7.5,0,0,0,2-2.26Zm-1.6.78a2.21,2.21,0,0,1,.63-.73A5.75,5.75,0,0,1,20.77,48.9Zm.58-2.39a.8.8,0,0,1,.44.72s0,.07,0,.11a1.46,1.46,0,0,0-.58.16,4.27,4.27,0,0,0-1.58,2.41c-.38.3-.76.57-1.1.79a17.56,17.56,0,0,1,.56-2,21.18,21.18,0,0,0,1.83-2.34A1,1,0,0,1,21.35,46.51ZM20.5,43.6c.54,0,.61.25.63.31.13.36-.14,1-.62,1.77a1.4,1.4,0,0,0-.27.09,4.33,4.33,0,0,0-1.77,2.55c-.34.39-.69.76-1,1.12.09-1.4.43-4.19,1.67-5.35a1.73,1.73,0,0,1,1.22-.49Zm-3.7,5.56-.64-1c.24-.32.59-.82,1-1.42A16.61,16.61,0,0,0,16.8,49.16Zm2.4-9.27c.3,0,.36.12.38.16.44.86-1.55,4.28-3.4,6.92.09-.81.23-1.77.43-2.71,1.17-1.27,2.46-3,2.58-4.36h0ZM17,42.81a5.11,5.11,0,0,1,1.51-2.68A7.29,7.29,0,0,1,17,42.81Zm.23-4.42a1.32,1.32,0,0,1,.62.18,1.24,1.24,0,0,1,.67.81c-1.3.55-2.07,2.58-2.5,4.56-.4.43-.8.82-1.14,1.14.13-2.1.62-5.83,1.91-6.58A.87.87,0,0,1,17.21,38.4Zm-3,6.33q-.44-.82-.86-1.64c.26-.32.76-.93,1.32-1.69A24,24,0,0,0,14.22,44.72ZM11,44.33a3.38,3.38,0,0,0-.64-.13l1.06-.56C11.26,43.85,11.11,44.09,11,44.33ZM9.2,46.18a1.1,1.1,0,0,1,.6-1.28,1.19,1.19,0,0,1,.34,0,2,2,0,0,1,.42,0A5.16,5.16,0,0,1,9.2,46.18Zm2.15-3.26c.2-.25.37-.47.48-.63l.1.2.06.13h0Zm-3.16-5a7,7,0,0,1,1.25.73,23.53,23.53,0,0,1-3.08-.15A8.62,8.62,0,0,0,8.19,37.88Zm-2.51,0a2,2,0,0,1,1.12-.34,2.64,2.64,0,0,1,.32,0A5.49,5.49,0,0,1,5.68,37.88Zm3.5-5.39c0,.45,0,.9.06,1.32L9,33.62l-.2-.5h0Zm3,8.25c.25-.28.64-.73,1.09-1.28-.23.92-.39,1.8-.5,2.47Zm-.95-2h0l.29-.54c0,.34-.07.67-.09,1Zm-2-4.46-.16-.39.13,0C9.25,34,9.26,34.14,9.28,34.27Zm-1.82-2,0-.09h0l.12.4L7,32.14h.37Zm1,2.6c-.59-.2-1.3-.43-2-.6a14.63,14.63,0,0,0,1.7-.17ZM9,36.28l-.89-.09c.29-.11.53-.22.72-.31Zm.79,1.79A8.16,8.16,0,0,0,9,37.52l.49-.27Zm.53,1.18h0l.15.32-.62-.31Zm1,2.08v.15a12.58,12.58,0,0,0-1.28,0c.43-.23.8-.45,1-.61ZM15.59,36a.58.58,0,0,1,.53-.06.45.45,0,0,1,.31.33c.27,1-1.46,3.69-3,5.62a24.23,24.23,0,0,1,1-4,12.92,12.92,0,0,0,1-1.78Zm-1.81-2.36a.89.89,0,0,1,.53-.18,1.14,1.14,0,0,1,.37.07.78.78,0,0,1,.57.56,2.63,2.63,0,0,1-.31,1.58,5.24,5.24,0,0,0-1.09,1.87,27.78,27.78,0,0,1-1.8,2.32,22.61,22.61,0,0,1,.51-3.73c.34-.73.68-1.5.95-2.24A1.56,1.56,0,0,1,13.78,33.67Zm-.66-2.33h.09c.09,0,.11,0,.12,0,.19.27,0,1.13-.42,2.26a6.48,6.48,0,0,0-1,2.29c-.2.43-.41.86-.63,1.3C11.4,34.65,11.91,31.53,13.12,31.34ZM10.63,37.4l-.31-.69.33-.21-.45-.06,0,0c.14-.25.35-.63.59-1.11C10.69,36.07,10.65,36.81,10.63,37.4Zm.86-8.81h.17c.3,0,.38.13.42.18.58.86-.79,4.12-2,6.51a19.35,19.35,0,0,1-.15-4.16,12.91,12.91,0,0,0,.85-2.18A1.36,1.36,0,0,1,11.5,28.59Zm-2.6-1a1,1,0,0,1,.79-.41h.06c.33,0,.41.13.44.19a1.75,1.75,0,0,1,0,1.17,4.14,4.14,0,0,0-.91,2.34c-.19.39-.39.78-.59,1.13C8.43,30.67,8.22,28.52,8.89,27.62ZM7.84,30.78a.32.32,0,0,0-.11-.05h0l.07-.45Q7.81,30.54,7.84,30.78Zm-2.3-5.34a1.64,1.64,0,0,1,.8-1.12.93.93,0,0,1,.45-.16.28.28,0,0,1,.18.06c.73.51.54,3.73.13,6.28C6.4,29.34,5.19,27,5.53,25.45ZM2.3,28.88c-.07-.36,0-.45,0-.45.36-.22,2.36,1.17,4.39,3-.31,0-.68-.07-1.07-.15a5.18,5.18,0,0,0-1.9-.64A2.56,2.56,0,0,1,2.3,28.88ZM3,32c0-.49.21-.58.27-.6a.71.71,0,0,1,.21,0,7.3,7.3,0,0,0,1.89.62,19.46,19.46,0,0,1,2.33,1.52c-1.29.18-3.39.27-4.27-.48A1.2,1.2,0,0,1,3,32Zm1,2.74c0-.07.19-.1.42-.1a14,14,0,0,1,3.68.85c-1.07.45-3.09,1.06-4-.37C4.06,34.8,4.09,34.7,4.09,34.7Zm0,2.38c.13-.22.89-.33,2-.33a24.67,24.67,0,0,1,2.63.16l-.51.25a3,3,0,0,0-3,.25,1.57,1.57,0,0,0-.34.35,1.3,1.3,0,0,1-.63-.41C4.1,37.2,4.08,37.11,4.1,37.08Zm2.64,3.42c0-.55.16-.9.46-1.05a1.17,1.17,0,0,1,.55-.12,6.86,6.86,0,0,1,2.84,1c-1.13.71-2.79,1.49-3.48,1.12C6.85,41.36,6.73,41,6.74,40.51Zm1.53,3.93c-.1,0-.4,0-.66-.65a1,1,0,0,1,0-1c.42-.55,1.63-.69,2.67-.69.3,0,.58,0,.83,0A9.87,9.87,0,0,1,9.35,44l-.56.34A1.11,1.11,0,0,1,8.27,44.44Zm-.6,2.06a.69.69,0,0,1-.31-.12c0-.21.49-.65,1.29-1.18a1.84,1.84,0,0,0-.08.2,1.51,1.51,0,0,0,0,1.06A1.8,1.8,0,0,1,7.68,46.5Zm2.07.12a6.54,6.54,0,0,0,1.47-1.5,11.8,11.8,0,0,1,2.45,1.48A9,9,0,0,1,9.75,46.62Zm1.85-2.06a12.21,12.21,0,0,0,.72-1.3l.22.43-.05.42.17-.2q.49.94,1,1.86A11.36,11.36,0,0,0,11.6,44.56ZM15.53,49l.07.11-.12,0ZM8.8,48.39c.07-.1.28-.15.59-.15A26.06,26.06,0,0,1,16.15,50h0a4.7,4.7,0,0,1-3,1.44,4.77,4.77,0,0,1-3.63-1.81C8.67,48.65,8.8,48.39,8.8,48.39Zm2.84,4.83c-.15-.37-.18-.63-.07-.73a.74.74,0,0,1,.49-.13c1.19,0,4,1.09,6.63,2.41C16.91,55.17,12.74,55.83,11.64,53.21Zm3.63,4.62a1.06,1.06,0,0,1-.43-.84.57.57,0,0,1,.25-.57,1.37,1.37,0,0,1,.71-.15c1.38,0,3.95,1,5.88,2C19.73,58.52,16.45,58.77,15.27,57.83Zm1.6-2.09a15.91,15.91,0,0,0,2.73-.54c.49.7,1,1.36,1.41,2A20.13,20.13,0,0,0,16.87,55.74ZM8.65,97.3A1.45,1.45,0,0,1,7.36,97,.89.89,0,0,1,7,96.07c.28-1.61,4.62-3.69,7.06-4.68C13.07,93.06,10.7,96.88,8.65,97.3Zm18.41,6.1c-.56-.11-.62-.35-.64-.43-.29-1.22,3.11-4.52,5.74-6.7C31.58,98.5,29.86,103.94,27.06,103.4Zm7.66,1.92a1.89,1.89,0,0,1-1.38.88c-.72.1-.94-.2-1-.3-1-1.37.92-6.39,2.1-9C35.51,100.94,35.62,103.92,34.72,105.32ZM96,10.48a.6.6,0,0,1,.34-.11.69.69,0,0,1,.24,0,1.2,1.2,0,0,1,.74.87c.61,2.22-1.94,7.26-2.71,8.23a5.93,5.93,0,0,1-.73.79C94,17.41,94.54,11.45,96,10.48ZM83.15,31.29c-.49.51-1,1-1.39,1.49a10.31,10.31,0,0,0-.18-3.13c.69.67,1.26,1.18,1.56,1.45l-.25.11Zm-2.71,3-.29.1.16.05c-.52.6-1,1.17-1.45,1.71-.2-1.05-.57-3-.88-4.6,1.33,1.14,2.49,2,2.87,2.28Zm-1.39,2.92,0-.2.13-.16.1.09Zm.45-.64-.16,0,.84-1Zm-.81.85.14.12c-.88,1.27-1.57,2.31-2.11,3.13l0,.06-.26.09-.2.05v-.07C76.77,39.91,77.58,38.77,78.68,37.38Zm-1.74,4.09.87.08-1.05.19Zm2.8-4.15a9.58,9.58,0,0,0,2.93,1.48c-1.49.39-3.15.9-5,1.54C78.25,39.51,78.92,38.51,79.75,37.32Zm1.79-2.52c.58.18,1.62.49,2.83.82-1.58.23-3,.51-3.93.7Zm1.4-1.91c.3-.4.62-.77.93-1.15l.4.35-.17-.52c.58.16,1.85.5,3.37.83a35.72,35.72,0,0,0-5,1.19Zm3.47-4,2.22.07c-1.39.43-2.66.9-3.57,1.27Zm1-.62.15-.08,0,.09Zm-2.22.62.07.08c-.27.3-.55.58-.81.89l-.69.71c-.33-1-1.31-4.07-2.1-6.58A55.27,55.27,0,0,0,85.24,28.93ZM79.76,17.56a1.21,1.21,0,0,1,.44-.88,3.52,3.52,0,0,1,1.73-.93.52.52,0,0,1,.18,0c.6.22.9,1.81,1.32,4l.06.33c.32,1.65.64,3.28.91,4.67l.52,2.66a44.73,44.73,0,0,1-4.08-6.23,10.59,10.59,0,0,0-.77-1.79A4.62,4.62,0,0,1,79.76,17.56Zm-3.33,2.17c.33-.68.84-1.47,1.44-1.47h.06c.5,0,1.06.6,1.56,1.49a15,15,0,0,0,.71,1.65c.05.16.11.31.15.47C81,23.94,82.27,28,82.91,30c-.48-.45-1-1-1.59-1.54-.72-2.56-2.68-5.55-4.78-6.47A2.91,2.91,0,0,1,76.44,19.73Zm3.75,7.53A23,23,0,0,1,77,23,10.55,10.55,0,0,1,80.19,27.26Zm-7-2.89a1.48,1.48,0,0,1,.42-1.24,2.18,2.18,0,0,1,2.31-.67l.13,0a23.19,23.19,0,0,0,4.67,6.28c0,.12.06.24.09.36A8.89,8.89,0,0,1,81,33.1c-.59-.44-1.89-1.44-3.27-2.65l-.06-.28-.1-.51c-.3-1.59-.68-3.58-2.08-4.23a2.78,2.78,0,0,0-2,0A3.39,3.39,0,0,1,73.2,24.37Zm3.74,5.32A17.7,17.7,0,0,1,73.79,26a2.87,2.87,0,0,1,.75-.12,1.64,1.64,0,0,1,.71.15C76.32,26.52,76.67,28.26,76.94,29.7Zm-4.38-3.18c.21-.12.42-.22.61-.3a20,20,0,0,0,4,4.58c.33,1.67.78,4,1,5.31a41.3,41.3,0,0,1-3.71-3.63l0-.08c-.39-1.89-1.24-3.16-2.29-3.39H72a2.94,2.94,0,0,1-.28-1.34A1.38,1.38,0,0,1,72.56,26.52Zm.82,4.65a13.38,13.38,0,0,1-.86-1.26A3.27,3.27,0,0,1,73.38,31.16Zm-3.91,1.45a1.93,1.93,0,0,1,.33-1.51,3.45,3.45,0,0,1,1.83-1.47,15.43,15.43,0,0,0,2.23,3.15c.4,2,1.12,5.38,1.46,7C73.7,38.48,69.85,35.16,69.47,32.62Zm5.26,1.12A44.75,44.75,0,0,0,78.16,37c-.91,1.14-1.61,2.11-2.16,2.9C75.74,38.6,75.16,35.82,74.72,33.73ZM76.2,41.4l-.37.55-.1,0-.35.09.42-.7Zm-1,1,.25.1-.13.17-.24,0Zm-.7.77a1.05,1.05,0,0,0,.42.28.61.61,0,0,0,.22,0,.6.6,0,0,0,.33-.12,20.9,20.9,0,0,1,5.45,2.2,15.23,15.23,0,0,0-7.27.08,18.72,18.72,0,0,0-8.5,4.57,5.23,5.23,0,0,0-.59,0A12.34,12.34,0,0,1,66,46.46a8.69,8.69,0,0,1,2.34-2.54l-.29-.59a9,9,0,0,0-3.85,3.07c-2.12,3.35-2.18,4.43-2.12,4.73a2.68,2.68,0,0,0-.23.26h0c-.07,0-1.79-.09-4.71,1.77a14,14,0,0,0-4.1,4.21,16.4,16.4,0,0,1,6.23-10.5c.29-.25.55-.47.76-.67a19.38,19.38,0,0,1,6.79-2.91A18.92,18.92,0,0,1,74.5,43.17ZM61.21,54.64a4.35,4.35,0,0,0,.19,1,17.36,17.36,0,0,0-4,9.63q-.07.69-.11,1.33a17,17,0,0,1,.57-6.11A12.22,12.22,0,0,1,61.21,54.64Zm.08-1.83a16,16,0,0,0-4.62,2.31,29.3,29.3,0,0,0-2.38,1.71,12.75,12.75,0,0,1,3.26-3.11,10,10,0,0,1,3.94-1.65c0,.08-.08.14-.1.22v0S61.33,52.53,61.28,52.81ZM62.52,57a2.21,2.21,0,0,0,.9.18,3.64,3.64,0,0,0,.77-.09l.46-.13c-.38,2-.73,8.09,1.47,12.58a16.19,16.19,0,0,0,4,5.22,18.62,18.62,0,0,1-5-6.25A24.79,24.79,0,0,1,62.52,57Zm1.53-.55a1.67,1.67,0,0,1-1.64-.3c-.81-.82-.57-2.88-.4-3.62A2.26,2.26,0,0,1,63.6,51a4,4,0,0,1,3.24.38,2.05,2.05,0,0,1,.83,2.14C67.36,54.88,65.94,56,64.05,56.4Zm-.64-6a3.68,3.68,0,0,0-.59.25,14.85,14.85,0,0,1,2-3.91A6.13,6.13,0,0,1,66,45.43c-.15.2-.31.42-.47.66a13.15,13.15,0,0,0-1.63,4.21Zm4,5a36.94,36.94,0,0,0,4.38,6.46,64.93,64.93,0,0,0,5.17,5.61l-2-1.52c-6.11-4.52-8.33-8.72-8.76-9.62A5.34,5.34,0,0,0,67.37,55.38ZM68,51.71c1-.1,4.42-.2,10,2.57a20.25,20.25,0,0,1,4.65,3.17A16.83,16.83,0,0,0,80,55.73a23.37,23.37,0,0,0-11.69-2.25A2.58,2.58,0,0,0,68,51.71Zm-.8-.86A3.32,3.32,0,0,0,66,50.34a18.71,18.71,0,0,1,7-3.81A12.88,12.88,0,0,0,67.17,50.86ZM46,38.85H45.9c-1.08-.41-2-1.15-1.87-2a2.24,2.24,0,0,1,.21-.69h0v0A4,4,0,0,1,46,34.57h0v0A7.16,7.16,0,0,1,47.34,34h0c.27-.08.67-.49,1.18-1.22a7.35,7.35,0,0,0-.31.72A2.63,2.63,0,0,0,49,36.43c.54.6.84,1,.65,1.57-.39,1.21-1.91,1.34-3.09,1.08A5.11,5.11,0,0,1,46,38.9Zm4.56-8.34a16.07,16.07,0,0,1,9.52,8.18c1.76,3.62,1.44,5.85,1.44,5.88h0a17.3,17.3,0,0,0-1.57.92c.07-1-.37-2.9-2.76-5.19a15.36,15.36,0,0,0-7.52-4.14L49.54,36c-.58-.64-1.08-1.2-.71-2.26A20.83,20.83,0,0,1,50.56,30.51Zm-.31,7.87c0-.06.06-.12.08-.18A1.63,1.63,0,0,0,50.25,37a15.51,15.51,0,0,1,6.49,3.81c1.93,1.85,2.46,3.38,2.55,4.25a13.17,13.17,0,0,0-2.2-3.15A13.33,13.33,0,0,0,50.25,38.38Zm-2.55-5.5a9.81,9.81,0,0,0-2.29-2.09,12.77,12.77,0,0,0-3.54-1.66,22.16,22.16,0,0,1,7.94.2A35.67,35.67,0,0,1,47.7,32.88ZM45,31.32c2,1.51,2.2,2,2.21,2h.06l0,0h0l-.08,0a7.34,7.34,0,0,0-1,.36,5.65,5.65,0,0,0-1.82-2.48,8,8,0,0,0-1.35-1A9.63,9.63,0,0,1,45,31.32Zm-1.26,4.39a20.88,20.88,0,0,0-5.61-.8c-.4,0-.79,0-1.17,0a37.9,37.9,0,0,1,7.88-.4A4.06,4.06,0,0,0,43.76,35.71Zm1.12,3.4a19.8,19.8,0,0,0-7,4.51,17.84,17.84,0,0,0-5.09,8.28,17.15,17.15,0,0,1,3.25-7.32c3.84-5.37,6.89-6.42,7.56-6.6A3.34,3.34,0,0,0,44.88,39.11Zm1.84.65a5.31,5.31,0,0,0,.9.09l.45,0a33.47,33.47,0,0,1-2.54,11c.2-.59.41-1.23.6-1.93A20,20,0,0,0,46.72,39.76Zm3-.58a14.56,14.56,0,0,1,4.06,7.68q.1.61.16,1.15a8.37,8.37,0,0,0-.42-1.33A27.25,27.25,0,0,0,49,39.6,2.48,2.48,0,0,0,49.69,39.18Zm4.71,7.56a15.08,15.08,0,0,0-3.84-7.63,12.74,12.74,0,0,1,6.08,3.23A12,12,0,0,1,59,46.06a.49.49,0,0,0,.06.14l-.2.17a18.4,18.4,0,0,0-4.44,5.07A13,13,0,0,0,54.4,46.74Zm9.32-11.91c3.58,5.46,3.87,7.38,3.89,7.67a21.39,21.39,0,0,0-5.4,1.73,12.84,12.84,0,0,0-1.53-5.83,16.76,16.76,0,0,0-9.76-8.47,50,50,0,0,1,4.22-5.87A57.87,57.87,0,0,1,63.72,34.84ZM50.8,28.91c.86-1.62,1.86-3.63,3-6,.29.23.58.47.87.73a28.49,28.49,0,0,0-3,3.89C51.42,28,51.11,28.43,50.8,28.91Zm2.47-6.43c-1,2.17-2.14,4.38-3.13,6.24a22.76,22.76,0,0,0-8.7-.19c2.49-1.83,4.51-8,4.88-9.23a21.74,21.74,0,0,1,6.77,3ZM44.8,18.84a9.46,9.46,0,0,0-2.35,1c.46-.67.75-1.14.8-1.22l.11-.18ZM33.94,25c-.54-.32-.51-.6-.5-.7.14-1.44,5.08-3.82,8.72-5.22-.38.56-.84,1.21-1.36,1.86a11.32,11.32,0,0,0-2.25,2.46C37,24.85,35.26,25.78,33.94,25Zm4.21,1.5A4.54,4.54,0,0,1,39,23.86a21.86,21.86,0,0,0,2.22-2.44c.18-.14.35-.28.53-.41a8.8,8.8,0,0,1,3.82-1.65c-.56,1.72-2.68,7.87-5,8.89a1.28,1.28,0,0,1-1.13,0A2.1,2.1,0,0,1,38.14,26.49ZM29.42,36.77a16.19,16.19,0,0,1,10.11-7.15l.52.16a8.63,8.63,0,0,1,3.88,2,5.17,5.17,0,0,1,1.62,2.14c-1.75-.13-7.48-.39-12,1.21-3.08,1.08-4.39,2.33-4.84,3.19A12.51,12.51,0,0,1,29.42,36.77Zm-1.17,11.1a14.6,14.6,0,0,1,.28-9.17,1,1,0,0,0,0,.33l.06.33.26,0,.29,0,.1-.22a10.43,10.43,0,0,1,8.9-3.55c3.76.24,5,.57,5.38.73a2.9,2.9,0,0,0-.12.51,1.72,1.72,0,0,0,0,.55c-.95.26-4,1.47-7.85,6.83-4.24,5.93-3.5,10-3.24,10.39l.1.14A15.31,15.31,0,0,1,28.25,47.87Zm4.24,6.93.43-.11,0-.22s0-.11,0-.2A17.26,17.26,0,0,1,38.37,44.1c4-3.68,6.72-4.42,7.46-4.56l.18.05a18.86,18.86,0,0,1-.51,9.14,20.58,20.58,0,0,1-3.23,7.09,2.15,2.15,0,0,0-.45.8.45.45,0,0,0,.3.53h.11c.91,0,2.52-3.05,3.74-5.67a33.78,33.78,0,0,0,2.75-11.24,27.25,27.25,0,0,1,4.17,6.67,8.3,8.3,0,0,1,0,6c-.13.4-.18.55-.1.72l.08.13.13,0,.1,0a.49.49,0,0,0,.28-.11,18.89,18.89,0,0,0-1,3.72l-.11-.25c-5.15,2.31-12,2.23-16.7-.19A14.07,14.07,0,0,1,32.49,54.79ZM44,59.55a21.21,21.21,0,0,0,8.31-1.65q-.09.67-.15,1.39a24.4,24.4,0,0,0,.63,7.92,26.92,26.92,0,0,0-10.27-7.71C43,59.52,43.52,59.55,44,59.55ZM6.57,85.15a1.69,1.69,0,0,1,.26-1.56c.34-.5.63-.57.79-.57h.09c1.22.16,2.85,3.37,3.77,5.75C10.12,88.23,7.14,86.85,6.57,85.15ZM.73,89.63c0-.06-.16-.22,0-.59.4-.74,1.35-1,2.57-1a25.78,25.78,0,0,1,8,1.93C7.2,90.47,1.52,90.76.73,89.63Zm14.59.72.1-.2L15,90.3,13.17,90l-.47-.2-.17-.07-.06-.17c1,.17,3.27.54,5.26.7l.34,0-.08,0v.16l-.1.18C17,90.57,16.11,90.46,15.32,90.35Zm2,11.9a1.09,1.09,0,0,1-1.15.33,1.31,1.31,0,0,1-1-.79c-1-2.28,1.84-8.09,3-10.24C18.45,94,18.9,100.53,17.28,102.25ZM18.8,90.74h-.12a1.42,1.42,0,0,0-.11-.37l0,0,.53,0v.42Zm3.91,9.58c-.54.44-.83.3-.93.26-1.3-.61-1.91-5.57-2-9.09,1.22,1.42,3.91,4.84,3.76,7.23A2.12,2.12,0,0,1,22.72,100.32ZM20,90.79l-.38-.42,0,0a16.82,16.82,0,0,0,2.65-.18l0-.25c.14.15.3.28.45.42A5.17,5.17,0,0,1,20,90.79Zm22.83,9.16a37.74,37.74,0,0,0-.44-4,13.91,13.91,0,0,0,2.55-1A51.81,51.81,0,0,0,42.86,99.95Zm-1.67,6.48a1.77,1.77,0,0,1-1.3.75.81.81,0,0,1-.86-.32c-1-1.5,1.41-7.14,2.85-10.1a33.93,33.93,0,0,1,.35,5.22,7.93,7.93,0,0,0-.32,2.77A4.59,4.59,0,0,1,41.19,106.43Zm3.36-1.69a1.62,1.62,0,0,1-1.13.7c-.44.05-.61-.1-.7-.22a1.11,1.11,0,0,1-.15-.4,14.18,14.18,0,0,0,.32-2.74,41.71,41.71,0,0,1,2.41-6.28C45.56,98,46,102.84,44.55,104.74Zm1.66-5.51a35.7,35.7,0,0,0-.41-4.62l0-.12a14.84,14.84,0,0,0,1.89-1.3C47.2,94.83,46.59,97.17,46.21,99.23Zm4.31-9h0c-.3.87-1.1,3.22-1.73,5.76-.07-1.85-.27-3.33-.29-3.48v0l.05,0A17.81,17.81,0,0,0,50.52,90.21Zm2.39,1.55c-.13-.56-.28-1.13-.44-1.74l0-.15.85-.23v0C53.2,90.07,53.06,90.83,52.91,91.76Zm.18,8.13a15.88,15.88,0,0,1,0-3.84A12.66,12.66,0,0,1,53.09,99.89Zm-.74-3.24a41.39,41.39,0,0,0-.62-4.54c.1-.41.2-.81.3-1.2.25,1,.45,1.87.62,2.69C52.52,94.59,52.41,95.64,52.35,96.65Zm-1.25,5c-.86-.87-.46-4.4.25-7.86.41,2.61.7,6,0,8A.55.55,0,0,1,51.1,101.68Zm.33-11.05-.12-.51.27-.05ZM56.06,88l0,0,.53-.15Zm-.36.14c-.68.26-1.41.51-2.11.72l-.07-.16L55.71,88Zm-.1.74c-.12,1-.34,2.82-.46,4.84a35.16,35.16,0,0,0-1.24-4.09l-.06-.15C54.43,89.29,55,89.08,55.6,88.87Zm-2.18,0a20.3,20.3,0,0,1-2.21.57c.57-.21,1.35-.47,2.25-.75ZM46.82,103a1.27,1.27,0,0,1-.19.11c-.49-.46.31-4.65,1.43-8.82C48.3,97.24,48.34,101.86,46.82,103Zm3,.44a.75.75,0,0,1-.82-.18c-1.28-1.43.66-8.33,1.86-12,.05.25.11.54.17.84-.78,3.31-1.78,8.66-.43,10a1.24,1.24,0,0,0,.43.28l0,.09A1.82,1.82,0,0,1,49.84,103.41ZM52,101.7a10,10,0,0,0,.35-2.2,4,4,0,0,0,.38,1.39A1.7,1.7,0,0,1,52,101.7Zm1.93-1c-.23.12-.36.11-.43.08.51-1.47.43-3.87-.23-7.18.11-.89.25-1.77.39-2.58C54.57,93.67,56.09,99.57,54,100.71Zm3.13-.31c-.27.2-.47.25-.61.17-1.1-.65-.83-6.52-.34-10.76C57.47,92.93,59.32,98.75,57.11,100.39Zm2.53-3.48a.33.33,0,0,1-.13.1c-.52-.09-1.22-3.33-1.6-7.26C59.25,92.42,60.55,95.9,59.63,96.91Zm-2.24-5.76c-.46-1.25-.88-2.21-1-2.56l.78-.32C57.17,88.92,57.25,90,57.39,91.15Zm1.35-4.64L57.11,87l-.1-.18V87c-2.63.73-4.32,1.26-5.41,1.65a24.78,24.78,0,0,0,2.29-4.8C54.52,84.15,56.52,85.22,58.74,86.51Zm-4.13-10.2A23.4,23.4,0,0,1,50.56,89c-.91.41-.92.6-.92.73a.4.4,0,0,0,.16.3,17.31,17.31,0,0,1-1.39,1.55l-.09-.68L48,92a14.65,14.65,0,0,1-2.34,1.78l0-.2-.15.29a13.32,13.32,0,0,1-3.18,1.34l-.1-.55-.35.67a15.35,15.35,0,0,1-5.17.33c-.66-.07-1.3-.17-1.94-.28l-.09-.55-.24.5c-.44-.08-.87-.19-1.3-.29l.1-.49-.5.4a19.48,19.48,0,0,1-11.4-7.2,17.18,17.18,0,0,1-2.57-14.06A19.72,19.72,0,0,1,25.46,62.4l0,0L26,62l0,0a17,17,0,0,1,9-3.42l.62,0c7,0,15.75,6.13,18.24,11.47l.16.36A27,27,0,0,1,54.61,76.31Zm18.56,5.38a15,15,0,0,0-2.39,3.67,7.7,7.7,0,0,1-1.58,2.38c-.58-.18-1.43-4.21-1.88-8.84a28.5,28.5,0,0,0,2.93.16h.63a18.55,18.55,0,0,0,4.74-.71A15.07,15.07,0,0,1,73.17,81.69Zm8.5-2.4c1,1.78.83,2.07.41,2.76-.1.16-.2.33-.31.54-.71,1.37.43,3.12,3.06,4.67,2.26,1.34,3.25,10,3,11.64-.08.5-.19.56-.2.56-.35.12-1.76-1.07-3.54-2.59l-.88-.75a21.25,21.25,0,0,0-8.19-4,11,11,0,0,1-1.4-.45,9.46,9.46,0,0,1,1.31-1c1.29-.86,3.07-2,3.8-3.51.92-1.85,1.57-4.38,1-4.73a.41.41,0,0,0-.55.15c-.35.47-4.32,5.18-6.31,7.18-.67.67-1.23,1-1.59.83s-.62-.87-.66-1.44c0-.35.9-1.12,1.72-1.8,1.55-1.29,3.48-2.9,3.8-4.89a15.18,15.18,0,0,0,.29-4.45,18.18,18.18,0,0,0,3.32-1.5l-.08.31S80.48,77.18,81.67,79.29Zm6.75-14.73A19.75,19.75,0,0,1,76.28,77.44l-.12-.6-.25.73a17.83,17.83,0,0,1-5,.82c-6.14.11-10.81-1.49-13.91-4.78A14,14,0,0,1,54.52,70a1.86,1.86,0,0,0-.08-.18h0l0-.09a21.85,21.85,0,0,1-1.56-10.39c0-.08,0-.14,0-.22A16,16,0,0,1,57,55.67a17,17,0,0,1,4.18-2.15c0,.1,0,.19,0,.29-.71.49-2.64,2.16-4,6.47-1.8,5.87.73,13.21,1,13.68l.18.31.28-.14L59,74l-.12-.29c-.31-.75-1.29-3.55-.78-8.35a17.32,17.32,0,0,1,3.65-9,2,2,0,0,0,.17.22,25.13,25.13,0,0,0,2.68,12.29c3.56,6.61,7.28,7.79,8.12,7.79h.1l.24-.06,0-.22c0-.26-.12-.37-.56-.65a15.61,15.61,0,0,1-5.79-6.43c-2.39-4.88-1.6-11.75-1.34-12.53l.17-.07c.47,1,2.71,5.23,9,9.85,2.94,2.17,5,3.83,5.91,4.67l.25.24.22-.15A.32.32,0,0,0,81,70.8c0-.3-.18-.53-1.93-2.2a76,76,0,0,1-6.79-7.18,34.11,34.11,0,0,1-4.43-6.62,3.46,3.46,0,0,0,.33-.65c1.33-.1,6.87-.31,11.57,2.15A19.3,19.3,0,0,1,87,63.53c.35.57.44.72.66.72h0l.21,0L88,64c.25-.55-2.84-7-9.7-10.35-5.88-2.89-9.45-2.75-10.46-2.63A12.36,12.36,0,0,1,75,46.64a14.38,14.38,0,0,1,7.89.43,1,1,0,0,0,.48.1C88.55,51.13,90.5,57.73,88.42,64.56ZM76,42.83l.07-.09,1.37.53C77,43.1,76.47,43,76,42.83ZM90.34,45c-.13.39-1.27.73-3.13.58C85,45.38,79.32,43.28,77,42.38a34,34,0,0,1,4.41-.55c1.32.08,2.77.16,4.16.18a8,8,0,0,1,2.84,1C90.45,44.29,90.38,44.88,90.34,45Zm2-5c0,.4-.63.82-1.71,1.07a24.3,24.3,0,0,1-5.07.28,19.57,19.57,0,0,0-4.19-.18c-1.29-.08-2.47-.18-3.33-.25a60.08,60.08,0,0,1,6.17-1.82c.18,0,.34,0,.53.06l.42,0c.66,0,1.37.05,2.07.05a10.55,10.55,0,0,0,3.29-.4C91.65,39.12,92.29,39.62,92.33,40Zm-4.67-1.46.44,0Zm3.46-.84a1.79,1.79,0,0,1-.66.42,9.65,9.65,0,0,0-1.92-.25,18.6,18.6,0,0,0-4.37.56A8.79,8.79,0,0,1,80.44,37a57.41,57.41,0,0,1,5.71-.93,22.49,22.49,0,0,0,4.54.75h.22l.43,0A1.08,1.08,0,0,1,91.12,37.7Zm-2.59-1.77a7,7,0,0,1,2.08.24A12.15,12.15,0,0,1,88.54,35.93Zm4.83-1c-.12.51-.79.93-1.69,1.12a1.4,1.4,0,0,0-.26-.25c-1-.63-3.08-.63-5.27-.41-1.5-.37-3-.8-3.88-1.08a28.58,28.58,0,0,1,7.63-1.48c.56.09,1.11.17,1.65.23a2.72,2.72,0,0,1,.51.21C93,33.83,93.49,34.43,93.37,34.94Zm3.26-5.37c.64.92.83,1.61.58,2.06s-1.33,1.07-4.69.86l-.89-.08a6.49,6.49,0,0,0-1.56-.21c-2-.33-4.08-.83-5.22-1.13a39.61,39.61,0,0,1,6.25-2h1.54c1.15,0,2.28,0,3.26-.07A1.76,1.76,0,0,1,96.63,29.57Zm-.52-4.25c1.54-.14,2.51.21,2.74,1A1.64,1.64,0,0,1,98.21,28a7.48,7.48,0,0,1-2.18.31,9.42,9.42,0,0,0-5.09.06l-3-.07v-.25A22.23,22.23,0,0,1,96.1,25.32Zm5-3.62c.23.48.54,1.13.45,1.3a5.7,5.7,0,0,1-2.29.5l-2,.28c-3.48.52-5.62.92-6.53,1.1l.29-.15c1.9-1,6.86-3.41,9.13-3.41a2,2,0,0,1,.61.08A.6.6,0,0,1,101.1,21.7Zm-8.92,1.67.56-.55.33-.28a16.6,16.6,0,0,1,2.67-.76C94.42,22.3,93.13,22.89,92.17,23.37Zm10.14-5.08a30.44,30.44,0,0,1,3.8-.31,2.9,2.9,0,0,1,1.35.16,2.35,2.35,0,0,1-1.05.79,45.56,45.56,0,0,1-4.88,1c-3,.56-5.48,1-7.14,1.47l.38-.32,1.15-1A19.07,19.07,0,0,1,102.32,18.28Zm4.83-4.76c-.54.28-1.14.59-1.77.94-3.14,1.77-6.57,2.71-7.22,2.53l0,0c2.17-2.48,8.21-8.49,10.43-6.79.79.61,1.17,1.1,1.14,1.46C109.7,12.21,108.58,12.79,107.15,13.52Z"/><path class="cls-1" d="M39,68.65c-.1-.93-.32-2-1.59-2.28-1.06-.22-2.92.88-3.43,1.19-.85-.22-5.37-1.24-9.11.75-1.06.56-1.41.83-1.28,1.19s.6.32,2,0c.42-.09.86-.18,1.09-.2,1.79-.16,5.69.74,6.76,1a2.37,2.37,0,0,0,.49.78h0s.15.19.39.55a45.85,45.85,0,0,0-4.78,4.86,18.9,18.9,0,0,0-4.84,9.11l0,.08a14.92,14.92,0,0,1,1.58-8.13,15.26,15.26,0,0,1,6.6-6.8l-.27-.6a15.64,15.64,0,0,0-6.92,7.11c-2.27,4.55-1.81,8.8-1.35,9.47a.44.44,0,0,0,.37.21h0a.45.45,0,0,0,.37-.3,5.42,5.42,0,0,0,.25-.89A18.3,18.3,0,0,1,30.07,77a48,48,0,0,1,4.63-4.75,29.42,29.42,0,0,1,3.23,9c1.49,7.24.94,10.13.68,11.53a.43.43,0,0,0,.14.47l.21.12.18-.1c.57-.31,1.71-3.33,1.39-10.34-.31-6.82-1.5-9.68-2-10.6a14.42,14.42,0,0,1,5.82,1.79c3.57,2,4.14,3.32,4.81,4.86.14.32.28.64.44,1a.44.44,0,0,0,.39.28h0l.27-.06.09-.19c.23-.51-.12-2.43-3.14-6.07C43.48,69.38,40,68.74,39,68.65Zm-12.35,0c-.27,0-.71.12-1.16.21L25,69l.14-.08c3.2-1.71,7.16-1,8.38-.75a3.25,3.25,0,0,0-.25,1.46A28,28,0,0,0,26.66,68.67Zm7.62-.51c.84-.53,2.35-1.27,3-1.14s1,.74,1.09,2a4,4,0,0,1-1.25,2.81c-.34.19-1.51,0-2.67-1.15A2.16,2.16,0,0,1,34.29,68.15Zm5.59,14.76a34.14,34.14,0,0,1-.31,7.31,38.41,38.41,0,0,0-1-9.15,30.71,30.71,0,0,0-3.1-8.85,3.06,3.06,0,0,0,1.29.33,1.42,1.42,0,0,0,.69-.16,1.29,1.29,0,0,0,.22-.17v0h.2l-.09.07S39.5,74.67,39.88,82.92Zm4.8-9.41a14.67,14.67,0,0,0-6.49-1.9A4.91,4.91,0,0,0,39,69.32c1,.12,4.22.81,7.67,5,.4.48.75.93,1.06,1.35A15.55,15.55,0,0,0,44.68,73.51Z"/></g></g></svg>