<?xml version="1.0" encoding="utf-8"?>
<!-- Generator: Adobe Illustrator 21.0.0, SVG Export Plug-In . SVG Version: 6.00 Build 0)  -->
<svg version="1.1" id="Layer_1" xmlns="http://www.w3.org/2000/svg" xmlns:xlink="http://www.w3.org/1999/xlink" x="0px" y="0px"
	 viewBox="0 0 35.2 103.6" style="enable-background:new 0 0 35.2 103.6;" xml:space="preserve">
<style type="text/css">
	.st0{fill:#FFFFFF;}
</style>
<g>
	<g>
		<g>
			<path class="st0" d="M26.8,49.8c0-2.6-0.9-4.9-2.8-6.8c-1.9-1.9-4.1-2.8-6.8-2.8H0.8C0.3,40.2,0,40.5,0,41c0,0.5,0.3,0.8,0.8,0.8
				h16.5c2.2,0,4.1,0.8,5.7,2.4c1.6,1.6,2.4,3.5,2.4,5.7c0,2.2-0.8,4.1-2.4,5.7c-1.6,1.6-3.5,2.4-5.7,2.4c-2.2,0-4.1-0.8-5.7-2.4
				C10,53.9,9.2,52,9.2,49.8c0-2.2,0.8-4.1,2.3-5.6c0.2-0.2,0.3-0.4,0.3-0.6c0-0.1,0-0.3-0.3-0.5c-0.3-0.3-0.7-0.3-1.1,0
				c-1.8,1.9-2.8,4.1-2.8,6.7c0,2.6,0.9,4.9,2.8,6.8c1.9,1.9,4.1,2.8,6.8,2.8c2.6,0,4.9-0.9,6.8-2.8C25.9,54.7,26.8,52.4,26.8,49.8z
				"/>
		</g>
	</g>
	<g>
		<g>
			<path class="st0" d="M35.1,62.9c0-0.5-0.3-0.8-0.8-0.8H8.5c-0.5,0-0.8,0.3-0.8,0.8c0,0.5,0.3,0.8,0.8,0.8h25.8
				C34.8,63.6,35.1,63.4,35.1,62.9z"/>
		</g>
	</g>
	<g>
		<g>
			<path class="st0" d="M17.3,102.2c1.2-1.1,1.8-2.8,1.8-5.1c0-2.5,0-5.2,1-6.2c0.6-0.5,1.3-0.8,2.1-0.8c0.9,0,1.6,0.2,2.1,0.8
				c0.6,0.6,0.9,1.3,0.9,2.3v8.3c0,0.5,0.3,0.8,0.8,0.8c0.5,0,0.8-0.3,0.8-0.8v-8.3c0-1.5-0.5-2.6-1.5-3.5c-0.9-0.8-1.9-1.2-3.2-1.2
				c-1.2,0-2.4,0.3-3.2,1.2c-1.5,1.6-1.5,5.1-1.5,7c0,2.1-0.4,3.5-1.3,4.3c-0.8,0.7-1.7,1-2.9,1c-1.1,0-2.1-0.3-2.9-1
				c-0.9-0.8-1.3-1.8-1.3-3.2v-8.5c0-0.5-0.3-0.8-0.8-0.8c-0.5,0-0.8,0.3-0.8,0.8v8.5c0,1.8,0.6,3.2,1.8,4.3c1.1,1,2.4,1.5,3.9,1.5
				S16.3,103.1,17.3,102.2z"/>
		</g>
	</g>
	<g>
		<g>
			<path class="st0" d="M26.9,84c0-0.5-0.3-0.8-0.8-0.8h-8.8h-5.4H8.5c-0.5,0-0.8,0.3-0.8,0.8c0,0.5,0.3,0.8,0.8,0.8h17.6
				C26.6,84.8,26.9,84.5,26.9,84z"/>
		</g>
	</g>
	<g>
		<g>
			<g>
				<path class="st0" d="M8.1,78.3c0-0.3,0.2-0.6,0.5-0.7c0.4-0.1,0.8,0.1,0.9,0.5c0.6,2.1,2.1,3.1,2.2,3.1c0.4,0.2,0.5,0.7,0.2,1
					c-0.2,0.4-0.7,0.5-1,0.2c-0.1,0-2-1.3-2.8-3.9C8.1,78.4,8.1,78.3,8.1,78.3z"/>
			</g>
		</g>
	</g>
	<g>
		<g>
			<g>
				<path class="st0" d="M11.8,81.2c-1.7-1.4-2.5-3.3-2.5-5.2c0-2,0.8-3.7,2.3-5.2c1.6-1.4,3.5-2.2,5.7-2.2h8.8
					c0.5,0,0.8-0.3,0.8-0.8c0-0.5-0.3-0.8-0.8-0.8h-8.8c-2.6,0-4.9,0.9-6.8,2.6c-1.9,1.7-2.8,3.8-2.8,6.3c0,1.7,0.5,3.3,1.5,4.8
					c0,0.1,0.1,0.1,0.1,0.2L11.8,81.2z"/>
			</g>
		</g>
	</g>
	<path class="st0" d="M25.8,31.3v-4.5c0-0.4-0.3-0.7-0.7-0.7c-0.4,0-0.7,0.3-0.7,0.7v4.5c0,1.2-0.9,2.1-2.1,2.1h-8.9
		c-1.2,0-2.1-1-2.1-2.1v-8.4c0-1.2,0.9-2.1,2.1-2.1h1.5v0.9c0,1.2-0.9,2.1-2.1,2.1h-0.2c-0.4,0-0.7,0.3-0.7,0.7
		c0,0.4,0.3,0.7,0.7,0.7h0.2c2,0,3.6-1.6,3.6-3.6v-0.9h2.8v0.9c0,2,1.6,3.6,3.6,3.6h8.9c2,0,3.6-1.6,3.6-3.6v-8.4
		c0-2-1.6-3.6-3.6-3.6h-4.3c-0.4,0-0.7,0.3-0.7,0.7c0,0.4,0.3,0.7,0.7,0.7h4.3c1.2,0,2.1,1,2.1,2.1v8.4c0,1.2-0.9,2.1-2.1,2.1h-8.9
		c-1.2,0-2.1-1-2.1-2.1v-0.9h1.6c0.5,0,2.1,0.1,2.1,1.7c0,0.4,0.3,0.7,0.7,0.7c0.4,0,0.7-0.3,0.7-0.7c0-1.9-1.4-3.2-3.6-3.2h-1.6
		v-3.6h1.6c2,0,3.6-1.6,3.6-3.6V3.6c0-2-1.6-3.6-3.6-3.6h-8.9c-2,0-3.6,1.6-3.6,3.6v4.5c0,0.4,0.3,0.7,0.7,0.7
		c0.4,0,0.7-0.3,0.7-0.7V3.6c0-1.2,0.9-2.1,2.1-2.1h8.9c1.2,0,2.1,1,2.1,2.1V12c0,1.2-0.9,2.1-2.1,2.1h-1.6v-0.9
		c0-1.2,1-2.1,2.2-2.1c0.4,0,0.7-0.3,0.7-0.7c0-0.4-0.3-0.7-0.7-0.7c-2,0-3.7,1.7-3.7,3.6v0.9h-2.8v-0.9c0-2-1.6-3.6-3.6-3.6H3.8
		c-2,0-3.6,1.6-3.6,3.6v8.4c0,2,1.6,3.6,3.6,3.6h4.4c0.4,0,0.7-0.3,0.7-0.7c0-0.4-0.3-0.7-0.7-0.7H3.8c-1.2,0-2.1-1-2.1-2.1v-8.4
		c0-1.2,0.9-2.1,2.1-2.1h8.9c1.2,0,2.1,1,2.1,2.1v0.9h-1.5c-0.8,0-2.1-0.2-2.1-1.6c0-0.4-0.3-0.7-0.7-0.7c-0.4,0-0.7,0.3-0.7,0.7
		c0,1.9,1.4,3.1,3.6,3.1h1.5v3.6h-1.5c-2,0-3.6,1.6-3.6,3.6v8.4c0,2,1.6,3.6,3.6,3.6h8.9C24.2,34.9,25.8,33.3,25.8,31.3z M16.3,19.3
		v-3.6h2.8v3.6H16.3z"/>
</g>
</svg>
