<svg xmlns="http://www.w3.org/2000/svg" viewBox="0 0 105.25 181.08"><defs><style>.cls-1{fill:none;stroke:#fff;stroke-miterlimit:10;stroke-width:0.66px;}</style></defs><title>חומעה צהובה</title><g id="Layer_2" data-name="Layer 2"><g id="Layer_1-2" data-name="Layer 1"><path class="cls-1" d="M39.64,4.46S41.8.93,40,.39,37,3,38.29,4.22C40,5.84,42.42,3.5,42.44,1.94c0-2-1.73-.87-1.73-.87"/><path class="cls-1" d="M35.51,6.79a3.41,3.41,0,0,1-3.37-.08c-2-1.15-1.47-2.86-.69-2.64"/><path class="cls-1" d="M31.37,3.55c0-.11-.27-1.42,1.14-1.26S36.74,6,36,6.69s-3.53-1.37-4.23-2.14S31.37,3.55,31.37,3.55Z"/><path class="cls-1" d="M33,2.37s.9-1.12,2-.72,1.59,3,1.21,4.54"/><path class="cls-1" d="M44.44,4.65s.5-1.29-.47-1.2S40,6,40.25,9A3.68,3.68,0,0,0,45,12.21c2.46-.72,4.16-6.27,3.54-6.8s-2.86,2-3.66,3.75a7.27,7.27,0,0,0-.63,2.49"/><path class="cls-1" d="M41,10.91s1.61-5.1,3.65-6.43,3.23.64,2.73,1.3"/><path class="cls-1" d="M43.17,16.29s1.4-2.27,3.18-1.92c2.32.46,4.94,5.91,3.16,6.94s-5.78.48-7.59-2.1C40.67,17.44,43.17,16.29,43.17,16.29Z"/><path class="cls-1" d="M49.33,21.46s-8-1.86-6.09-5.2c1.53-2.73,6.09,5.2,6.09,5.2"/><path class="cls-1" d="M33.21,12S34.43,11,33,10s-3.74-1.11-4.1,0,1.54,3.45,2.77,3.26S32.88,12.14,33.21,12Z"/><path class="cls-1" d="M42.53,27.45s3.09-3.46,5.08-.4,2.1,7.11.72,7.37S36.9,31.49,42.53,27.45Z"/><path class="cls-1" d="M44.56,30s-3-2.07-2-2.57S44.27,29.28,44.56,30Z"/><path class="cls-1" d="M43.9,21.92c-.58,2.25,1.94,3.45,6.3,4.52,3.74.92,4.78-.58,4.79-1.52a29.09,29.09,0,0,0-3.23-6.26,1.56,1.56,0,0,0-2.07-.22"/><path class="cls-1" d="M35.32,6.87s1.25-.22,1.91,3.48a24.63,24.63,0,0,1,.48,6.55"/><path class="cls-1" d="M36.32,5.23c0,.18.86,3.86,1.49,3.17s.66-4,.66-4"/><path class="cls-1" d="M39.32,4.77a12.55,12.55,0,0,0-.59,3.73c.14,1.4.65,1.6.4,2.28s-1.53,5.55-.36,5.27,2.07-4.56,2.43-4.71"/><path class="cls-1" d="M42,11.9s-2,3.21-1.57,4,2.78.33,2.78.33"/><path class="cls-1" d="M42.62,16.66a3.61,3.61,0,0,0-3.06,2.42,8.76,8.76,0,0,0-.43,4.37c.09,1.3.21,1.06.6.58s3.5-1.7,3.62-2.71c.09-.77-.27-1-.27-1"/><path class="cls-1" d="M32.5,13.29s.38,2.47-1.65,2.16S27,13.74,27.42,13.1,32.79,9.61,32.5,13.29Z"/><path class="cls-1" d="M30.67,13.18s2-.44,1.83.12S31.09,13.33,30.67,13.18Z"/><path class="cls-1" d="M34.41,12.63s-2.09.31-1.84-1.28,1.43-3,2-2.7S37.53,12.83,34.41,12.63Z"/><path class="cls-1" d="M34.49,11.2s.39,1.53-.08,1.44S34.37,11.53,34.49,11.2Z"/><path class="cls-1" d="M32.49,13.8a3.13,3.13,0,0,1,2.84.4c1.07,1,2.16,3.71,2.35,2.52"/><path class="cls-1" d="M34.51,12.67s.7.16,1.45,1.36a8,8,0,0,0,1.81,2"/><path class="cls-1" d="M31.09,15.9a1.6,1.6,0,0,0-2-.52c-1.3.49-2.88,4.55-2,5s6.12-1.17,6.15-3.13-3.14-1.14-3.29,0,1.92-1.34,1.85-1.86"/><path class="cls-1" d="M37.28,18.67c0-.07-1-1.2-2-.42s-3,5.24-.82,5.13,5.93-2.5,4.95-3.87-4,.15-3.31.89S37.73,19.7,37.28,18.67Z"/><path class="cls-1" d="M34.85,16.39s-2-1.53-3,.81-.89,3.76.75,3.57,4.42-2.84,3.67-4-3.46.72-2.88,1.49S35.58,17.61,34.85,16.39Z"/><path class="cls-1" d="M36.58,23s1.25,1.16,1.48,5.39.42,9.73.42,9.73c-.37.24-.37-.72-.66-1.23-.13-.23-1.29-3.87-1.29-3.87"/><path class="cls-1" d="M43.72,22.91s-3.21.91-2.39,1.78A7.85,7.85,0,0,0,44,26.16"/><path class="cls-1" d="M42.8,27.18s-1.29-1.83-2.57-1.64-1.4,1.71-1.23,3,.87,9.77.87,9.77"/><path class="cls-1" d="M29.39,27.38s-2.48-.87-1.66,2.42,4.65,5.75,7.86,4.12,1.28-5.86-2.48-7.36-1.7,3.66-.76,4.73,2.7,1.43,1.56-.37A11.08,11.08,0,0,0,29.39,27.38Z"/><path class="cls-1" d="M35.21,34.11S36.8,35,37.6,38"/><path class="cls-1" d="M33.36,35.52S31.9,33,26.78,36c-4.23,2.41-3,6.38-1.18,6.2s5.45-2.63,3-2-6.58,3.2-3.78,2.94,6.53-3,4.86-2.16-5.39,3.67-2.93,3.68C31.06,44.62,36,37.17,33.36,35.52Z"/><path class="cls-1" d="M44.33,50.76a2.92,2.92,0,0,0-1.22,4.39c2,3.23,7.73,3.89,8.89,2.6s-.81-6.77-2.76-8.46S44.6,50.8,46,52.86s4,3.09,3.87,2.24C49.37,52.21,46.78,49.9,44.33,50.76Z"/><path class="cls-1" d="M48.45,48s-3-4,1.18-6.56,4.25-3.14,4.44-3.38,2.21,3.16,2.26,5.36-1.57,4.9-3.78,5.38-2.56.08-2.09-.41,2.4-1.95,2.46-3.88.33-2.47.06-1.93a28.18,28.18,0,0,1-2.23,4.8A1.88,1.88,0,0,1,48.45,48Z"/><path class="cls-1" d="M52.06,53.35s2.4,1.62,4.77,3.4c.79.6,1.68,2.24,1.9,1.92s4-4.32,1.53-8S50.57,49,50.57,49s4,1.49,4.76,2.42.71,1.73-.07,1-3.25-2.13-4-.08C51.08,52.77,52.06,53.35,52.06,53.35Z"/><path class="cls-1" d="M38.81,48.83a4.71,4.71,0,0,1-4.07,3.34c-3.28.31-5.44-2.78-4.77-3.4A5.73,5.73,0,0,1,35.46,48C37.85,49,39.15,48.57,38.81,48.83Z"/><path class="cls-1" d="M31.62,49.26a8.52,8.52,0,0,0,4.11.54c2.42-.24,3.08-1,3.08-1"/><path class="cls-1" d="M40,49.89s2.58-2,2.2-2.61S39.62,46,40.6,44.48s2.93-3.13,3-4.2,2.35.05,2.95,2.42S47,47,45.35,47.45,42,48.5,41.93,49s1.46-.34,3-.39a8.69,8.69,0,0,1,2.71.27"/><path class="cls-1" d="M41,63.27s-.87-5.71-1.15-8.25-.24-3.71,1.37-4.44a4.09,4.09,0,0,1,3.21.06"/><path class="cls-1" d="M42.5,44.3s-.62,3.48.46,2.78,1.91-3.45,1.91-3.45"/><path class="cls-1" d="M31.44,43.37s1.32,4.2,4.39,4.28,3.91-3.1,1.49-4.67S32.44,44.37,31.44,43.37Z"/><path class="cls-1" d="M34.09,44.65s6,2.17,4.33,1.42a5.16,5.16,0,0,0-3.23-.5"/><path class="cls-1" d="M36.71,51.68a5.44,5.44,0,0,1,1.39,3.25c.33,2.32.74,8,.74,8"/><path class="cls-1" d="M36.62,38.34a1.86,1.86,0,0,1,.15,1.8c-.37,1.24.28,3.71,2.5,3.7s3.49-3.16,1.39-4.88A3.66,3.66,0,0,0,36.62,38.34Z"/><path class="cls-1" d="M38,40.17s1.2,3.89,1.15,3.13,1-.84,1-1.9-.36-1.34-.36-1.34"/><path class="cls-1" d="M45.91,75.63A4.27,4.27,0,0,1,46.58,72c1.3-2,2.38-2.71,1.77-1.87s-2.46,4.42-2.11,5.44"/><path class="cls-1" d="M50.62,77.37s.37-1.86,4-3.33,5.39-.7,5.22-.53-2.72-.59-5.29,1.12a8.06,8.06,0,0,0-3.23,3.71"/><path class="cls-1" d="M44.6,89a6.34,6.34,0,0,0,4.07,2.07c2.6.24,3.77-.36,3-.5s-2.36.71-4.82-.78"/><path class="cls-1" d="M46.6,99.47s3.29-.85,5.38,1.41,2.63,2.54,1.85,2.07-1.24-1.79-4-2.48c-2.57-.65-3.3-.45-3.3-.45"/><path class="cls-1" d="M46.74,82.25s.69-.84,1.19-.46,1,3.62,4.73,2.5a26,26,0,0,1,4.83-1.18s.71-1.16-.69-2.79S54.9,79,54.9,79"/><path class="cls-1" d="M48.06,81.08a10.56,10.56,0,0,1,3.6,1c2.27,1,3.56.13,3.53-.12s-.82.68-2.52.11a21.4,21.4,0,0,1-3.49-1.63"/><path class="cls-1" d="M57.91,82.22s2.31-.23,3.25,3.07,2.93,4.42,2.91,4.27.59.8-3,.71-8.09-.73-7.8-5.88"/><path class="cls-1" d="M55.27,84.05a11.89,11.89,0,0,0,3,3.69c1.61,1.08,2,1.22,1.57.76a7.05,7.05,0,0,1-3.58-5.1"/><path class="cls-1" d="M59.82,76.44s3.75-5.3,4.13-4.07,1.83.73,2.4.16,2.34-7.24,7.22-7.44,5.6,1,6.55.73,2.61,2.17,3.06,1.57S81.54,70,78.87,70.31,71.71,73.72,72,74.59s3.19.5,3.27-.09a5.12,5.12,0,0,1-3.56,3.79c-3.32.89-5.64,1.34-7.49,3.16a11.91,11.91,0,0,0-2.56,5.2"/><path class="cls-1" d="M58.81,80.74s3.41,1.4,8.1-4.35c4.15-5.09,3.81-6.91,7.59-7.81"/><path class="cls-1" d="M40.61,63.54s2.07-1.26,2.63.49a2.26,2.26,0,0,1-2.59,2.84c-1.47-.27-.12.56.56,2.69s.43,2.56.59,5.92.26,12.89.8,12.68A7.76,7.76,0,0,0,44,82.75C43.45,79.83,45.46,76,45.46,76s-3.34-3.17-.94-6,5.1-2.08,4.77-4.4,2.86,2.06,3.33,5.17-.9,5.44-3.22,5.64-3-.31-3.45.8-1.81,6.93-1.29,6.54.92-1.7,2.21-2.83a6.07,6.07,0,0,0,1.47-1.55l.85-2.57s1.09-6.66,7.1-6.27,5.75,2.82,5.37,3.11S60.4,76.56,58,77.92a11.21,11.21,0,0,1-7.24,1c-1.11-.42-3,1.33-4.07,3.34s-3.27,4.63-2.39,5.65,1.38-3.75,3.71-3.19,3.16,4.43,5.29,4.83.63.54.64.87-2.41,4-5.93,3.59-2.81-4.07-4-4.15-1.39.05-1.17,1.77.07,8.09.9,7.81,2.15-.9,2.29-1,1.5-3.11,4.75-2.47,5,5.59,6.89,6.21a3.35,3.35,0,0,0,2.52,0c0,.18-4,5.41-8.11,5.48s-5.52-7-6.71-7.43a1.53,1.53,0,0,0-2,1.25c.07.57-.87,8.38.35,9.14s1.35,1.77,1,2.36a3.72,3.72,0,0,0-.85,2.86,49.09,49.09,0,0,1-.83,10.55c-1,4.62-2.12,7.47-1.95,8.54"/><path class="cls-1" d="M33.75,62.34s-2.28-2.53-4.28-.41.23,7.56-.32,8.24.61.36,2.5,0,7.45-2,5.39-5.16-7.21,2.07-5.55,1.19S34.71,64,33.75,62.34Z"/><path class="cls-1" d="M26.13,61.48s-1.53-1.93-3.4-.62-2.64,3.61-3.29,3.87.19,2.12,2.33,2.6,6.52-.72,6.49-3-2.59.15-4.62.46"/><path class="cls-1" d="M33.34,57.59s-.19-3.64-4-2.55-5.19,3.47-6.54,3.52,1.86,2.87,4.84,3.36C31.16,62.49,35.54,59.77,33.34,57.59Z"/><path class="cls-1" d="M25.46,58.83s1,1.19,4.57.31,3.31-1.58,2.87-1.49a11.57,11.57,0,0,1-4.27,1.48"/><path class="cls-1" d="M24.07,58A3.4,3.4,0,0,1,21,54.42c0-3.41,1.21-2.35,1.78-2.31s5.82,1.49,6,2.57a.61.61,0,0,1-.48.71"/><path class="cls-1" d="M23.21,54.19s1,2.9,2.51,2.54"/><path class="cls-1" d="M31.07,100.87A14.64,14.64,0,0,1,24,98.46c-2.84-2.18-3.31-5.35-2.74-5.31s.94,1.49,4.49.86,7.1-3,7.52-2"/><path class="cls-1" d="M39.93,128.45s2.33-11.52,1.16-14.22-.25-3.78-2.11-5.38-3.07-2.55-4.15-2.06-.78,3.1-4.87,3.58a26.43,26.43,0,0,1-6.05.19s.23-5.07,4.93-6.13,3.84.5,6.43,1.29S39.54,110,39.56,109a17.25,17.25,0,0,0-1-3.44c-.9-2.36-4.39-6.75-3.91-8.33s2.94,5.07,3.06,6.07-5.51,1.55-6.91-3.63,2.45-7,3.2-7,3.59.93,5.87,5-1.27,4.61-.89,5.84,1.06,2.13,1.51,1.17.86-4.57.8-7.43a7.79,7.79,0,0,0-.69-3.7c-.22-.88-.93-1.42-3.12-.18s-6,1.09-6.21,1a3.92,3.92,0,0,0,2.16-2.65c.89-2.54,2.82-4.28,5.2-2.82s2.19,2.69,2.55,3.44-.45-2.67-.53-5.45-.17-3.46-.47-4.34-2.58-.72-3,.74-2.7,1.69-4.41,1.89-4.23,2.13-3.33,1.11-1.65-6.23,2.51-7.4,5.29,1.56,5.29,1.56l1.67.71c1.67.71,1.48.41,1.48.41s-.26-2.95-1-3.74-1.61-.79-4.86-.49-4.78-2.93-4.78-2.93a9.13,9.13,0,0,1,4.46-.88c3.13,0,3.33,2.45,3.5,2.32a5.47,5.47,0,0,1-2.66-2.27c-1.36-2.16.73-4.44.73-4.44s.14-.38,1.73.82a4.37,4.37,0,0,1,1.72,4.7c-.47,1.69-.23,1.81.51,2.59s.4-1.35.15-3.65-.59-5-.83-6.94a1.74,1.74,0,0,0-1.92-1.74"/><path class="cls-1" d="M25.88,109.17s6.89-4.32,6.68-3S28.49,107.67,27,108"/><path class="cls-1" d="M30,104.11A6.31,6.31,0,0,0,23.39,101c-4.57.86-3.23,7.06-5,8.35s5.69.21,5.8-.09"/><path class="cls-1" d="M26.55,105.17s-3-.81-4.7,1.35.59,1.09,1.07.13a4.16,4.16,0,0,1,3.14-1.71"/><path class="cls-1" d="M19.43,106.44s-5.49-4.37-10.07-3.84-2.93,2.84-3.81,2.69-3.53.74-3,1.62,2,1.9.84,2.19-3,.46-2.35,1.69,1.43,1.43,1,1.67-2.13,1.37-1.53,2.83S2.2,118.34,2,120.11s-1.46,2.49-.86,2.5,7.52-5.3,7.27-7.89-.29-3.81.78-3.43,2.67.85,2.61-.52,1.3-3.45,1.74-3,1.22,1.89,2.11.84,1.64-1.93,2.27-1.5a3.91,3.91,0,0,1,1,1.37"/><path class="cls-1" d="M3.5,118.19a10.27,10.27,0,0,0,1.73-6c-.17-3.47,3-6.12,5.24-6.63s4.48-.08,3.41.11-6.25.4-8.26,2.77"/><path class="cls-1" d="M38.93,133.76s-1-1.95-.42-2.71,2.64-2.16.66-3.74-7.94-3.11-8.88-1.91-.18,8.19,3,9.16,4.08-1.82,2.72-3.58-4.19-3.94-1.86-1.6,3.47,3.55,3.73,4.76"/><path class="cls-1" d="M36.58,139.37c-1,.19-3.08-1.67-6.08-1.25s2.8.66,4.45.28.65-3.56-.29-4.1c-2.37-1.38-8.42-.33-9.51.92s2.89,5.87,5.35,6.24,3.41-1.67,4.53-1.83,1.86,1.31,1.86,1.31.7,2.53.32,3.48-1.33-.08-3.3-.16a6.05,6.05,0,0,0-.85,0c-2.18.22-5.54,1.4-4.08,2.54,1.67,1.3,3.29-1.15,2.5-3.27s-2.6-2.67-4.9-.85-.72,7.82-1,8.79,1.46.81,4.32.15,5.47-3.12,5.45-5.28a1.65,1.65,0,0,0-2-1.51"/><path class="cls-1" d="M43.05,139.19A21.43,21.43,0,0,1,44.59,137c.66-.77-2.62-1.66-1.41-4.34s5.29-2.07,6.6-3,1.74.05,2.1,1.39.88,6.4-1.84,7-5.39.41-4.19-1.51,3.07-4.13,2.23-2.36-4.59,5-4.55,5.54,1.74,0,3.51,0,6.33-3.06,7.87.76,1.82,6.69.48,6.84-7.45-.08-9.15-3.4,1.69-4,3-2.86,3.53,3.8,1,1.95-4.18-3.22-6.46-2.41-2.76,2.68-2.42,3,4.29-2.2,5-1.78"/><path class="cls-1" d="M41.81,143.48s-1.4,2.7-.36,2.58,4.78-2.19,4.78-2.19"/><path class="cls-1" d="M42.4,140.29a2.89,2.89,0,0,1-3,.86c-1.67-.68-3.23-4.42-2.06-6.48s4.31,0,5.24,1.75.81,3.75-.9,3S37.2,135,38.54,136s3.48,4.28,3.17,5.08"/><path class="cls-1" d="M33.53,168.29s4.75-12.68,4.74-15.14.65-2.62,2-4,1.32-2.4,2.78-2.54,2.83.29,1.82.95-4.39,1.45-2.86,4,6.77,5.24,6.75,5.93,4.6-4.24,3.29-7.75-4.26-3-5.37-2.21.26,5.34.4,3.19-2.64-4.2-2.17-4.65a5.51,5.51,0,0,1,1.94-1.1"/><path class="cls-1" d="M35.6,145.72s1.15,1.65.34,3-1.95,3.13-1.73,4.56-.41,5.42-2.35,11.34S27.76,181,27.76,181"/><path class="cls-1" d="M55.72,142.73s8.11-4.53,15.13-2.41,14.24,6.08,17.57,5,2.21-3.16,4.6-3.95,4.71-1.89,5.54-3,2.13-1,3.56-1.68,4.09-3.49,2-3.76-4.24,2.63-5.75,2.3-4.71-1.41-6.13-.12-2.15,3.3-4.9,3-2.64-2.38-4.44-2-2.56,2.44-3.8,1.31-1.94-2.21-2.26-1.73-1.58,1.56-2.41.93-3-3.57-5.84-3.57-2.35,2.31-3.87,2-5.52-2.77-8.39-1.6a17.13,17.13,0,0,0-5.44,4.19"/><path class="cls-1" d="M66.47,137.86s6.49-.57,11.69,1.73,9.08,2.61,9,2.15-4.25-1.1-7.77-2.33a71,71,0,0,0-10.35-2.14"/></g></g></svg>