<svg xmlns="http://www.w3.org/2000/svg" viewBox="0 0 112.21 174.61"><defs><style>.cls-1{fill:none;stroke:#fff;stroke-miterlimit:10;stroke-width:0.66px;}</style></defs><title>כשותית</title><g id="Layer_2" data-name="Layer 2"><g id="Layer_1-2" data-name="Layer 1"><path class="cls-1" d="M32.65,46.21c.5,0,1,.48,1.56,1.36.59-.1,1,.69,1.36,2.09,0,5.81-2.65,8.73-6.47,10.43a24.32,24.32,0,0,0,12.52,5.22c.25-8.46.6-16.68,2.3-21.6l3.55-9.29-4.28-9.81c1-8.17,1.62-15.77.21-20.87L35,10.32l-2.92,7.93c-5,1.82-8.67,6.56-11.37,13.46l.84,7.3-1-.83c-1.13,2.29-1.53,5.38-1.25,9.18-2.92-10-9.7-4.8-16-10.33.31,5.9,4.25,10.9,10.43,15.34C10.23,51,5.65,50.82.72,51,10.95,62.28,20.86,71.15,28,61.34,32,64.51,36,66.94,39.54,67c-6.13,1.19-9.42,4.31-11.37,8.35a10.14,10.14,0,0,0-8.66,3.13c-5.53,3.65-5.84,3-8,10.85l4.38-1.57c-1.94,4.54-2.12,8.09-.31,10.54L18,95.47c.17,1.87.83,3.37,2.51,4.07,1.28,1.46,2.83,2.48,6.89-.83,2.19.55,3.82.19,4.8-1.25a4.55,4.55,0,0,0,4.59,3c-.23,1.36-.25,2.49,1.15,2.19.83,2.41,3.07,4.72,5.74,7a16,16,0,0,0-7.2,3.86c-4.79-4.4-8.78-2.85-12.63-.21l1.46,1.15-1.67,2.82a10.44,10.44,0,0,0-5.53,5.64c1.23,1.74,2.5,2.8,3.86,1.88l1,2.3c.26,5.18,2.22,6.83,5.64,5.43L28.48,136c4.77.18,8-2,9.5-7l1.77-3.23L41.52,120c.52-2.51.11-4.46-2-5.43l4.07-3.23c3.62,4.23,5.47,10.21,6.15,17.32L49.68,137a4.31,4.31,0,0,0-4.06.21c-.45.9-1,1.71-2.32,1.64a4.42,4.42,0,0,0-3.3,2.23c.22.75-.74,1-2,1.17a5.42,5.42,0,0,1-3.23.1l.79,1.06a5.58,5.58,0,0,0-3.64-.19l.59.91a5.15,5.15,0,0,1-3.11-1.61l.25.83a33.06,33.06,0,0,0-5.75-2.87c2.6,2.52,5.14,4.4,7.54,4.78,2,.91,3.86,1.1,5.64-.16a24.1,24.1,0,0,0,6.95-2.38,4.31,4.31,0,0,0,.56,1.74l.19.42a8.85,8.85,0,0,0-1.31,4.36l-1,1.68c.3.31.44.92.2,2.28l.95-1.69a3.67,3.67,0,0,1,1-2.65l1.82-3c.2-1.27,1.23-2.14,2.7-2.8a4.18,4.18,0,0,0,2.82-2c.57,1,1.2,1.77,2,1.85a4.53,4.53,0,0,0,2.93.78,3.94,3.94,0,0,0,2.4,2.42L62,148.91c.52-1.85-1.09-3.75-4.14-5.7-.6-1.68-3.3-2.79-6.2-3.85l-.87-.65A4.46,4.46,0,0,1,54.05,140a2.81,2.81,0,0,1,2.54,0c-.06-1-1.59-1.43-3.66-1.63A3,3,0,0,0,51,136.87l-.15-8.11.27-18.47c2.15.18,3.77,1.35,4.7,3.86-3.52,4.25-4.11,9.38-1.15,15.55,1.62,2.66,3.42,4.43,5.53,4.7,1,1.89,2.39,2.89,4.28,2.82,1.68,1.19,3.25.49,4.8-.52l-1.15-.52-.42-1.88L71,136c2.29-1,3.11-3.77,2.92-7.83l1.36,1.77a8.11,8.11,0,0,0-1.57-7.3c.23-1.51-1-3.13-2.71-4.8l1.67-.31c-.41-2.79-2.35-4-5-4.38l-.63-1a13.22,13.22,0,0,0-9,.31,12.68,12.68,0,0,0-7.31-4A37.55,37.55,0,0,0,59,102.67c14.82,9.08,13-13.56,24.42-21.81l-8.24,3S72.2,71.26,63,72.72C59.78,66,53.1,64.58,47.15,65.83l10.54-6.16c8.38,9.21,16.38,2.5,38.4,3.34a61.09,61.09,0,0,0-14.61-7c14.14,4.26,15.23-5.95,27.65-9.39-14.3.83-21.61-8.11-33.91,2,4.08-5,5.06-10.63,4.38-16.7-4,5.11-35.27,10.54-20.45,24.94l-14,7.62C42.56,53.73,51,28.27,48.3,11.36c6.82.21,12.4,1.61,15.44,5.43l-2.19,6.57q-3.66,7.53,1,9.6c1.13,4.78,3,6.47,6.26,4.9l10.75-5.95c1.14-.95,3.6,1.78,1.25-3.13,4.35-.51,4.82-2.73-1.77-8-3.14-4-7.19-6.18-12.83-5.11-5.08-4.5-8-4.9-18.47-6.36L47.36.61"/><path class="cls-1" d="M54.76,143.38a6.21,6.21,0,0,1-1.9,5.64,10.43,10.43,0,0,0-4.08,5c-1.08-3-2.32-4.86-3.65-6"/><path class="cls-1" d="M54.46,146.33c1.12,1.15,2.2,1.79,3.18,1.48a2.81,2.81,0,0,0,.36-2.46l1.91,2.54a6.55,6.55,0,0,1,2.36,3.38,4.1,4.1,0,0,1-.45,3.35l-1.45-1.9a17.06,17.06,0,0,1,1,6l-.71-1.26c.36,1.51.42,2.85-.46,3.7a8,8,0,0,1,0,3.51l-.54-.43a7.92,7.92,0,0,1-1.09,4l-.47-.36c0,2.27-.55,3.75-1.46,4.63l-1.14-.73L54,174.21a4.3,4.3,0,0,1-2.48-1.87,4.07,4.07,0,0,1-2-2.33,8.31,8.31,0,0,1-2-3.57,4,4,0,0,1-1.41-3.14,6.38,6.38,0,0,1-.85-3.46,5.3,5.3,0,0,1-.78-3.46,10.44,10.44,0,0,1-.8-5"/><path class="cls-1" d="M52.58,149.29c1.18,2.6,2.21,3.28,3.14,2.65a4.6,4.6,0,0,0,.75-4.1c.3,1.36.72,2.55,1.83,2.88l1.8,1.64a6.34,6.34,0,0,0,0-4.19"/><path class="cls-1" d="M44.62,148.89c-.42,2.08.69,4.08,1,3.68A3.72,3.72,0,0,1,47.43,151"/><path class="cls-1" d="M43.61,152.5l.95.38c-.11-.89-.28-1.23.13-1.85"/><path class="cls-1" d="M44.48,152c1.07,2.51,4.35,4.4,5,8.62.08-2.31.92-4,3.35-4.49a6.26,6.26,0,0,0,2.86-4.17"/><path class="cls-1" d="M55.6,152.38a3.67,3.67,0,0,0,2.31.76,3.07,3.07,0,0,0,.39-2.43"/><path class="cls-1" d="M55.56,152.65c1.31,2.29,2.84,4.19,5.06,4.81"/><path class="cls-1" d="M52.8,156.24c.52,1.39,1.35,2.25,3,1.61,1.62.52,2.49,0,2.69-1.46"/><path class="cls-1" d="M46.52,154.9c-3.92,5.2,0,4.74,2,9.2a5.18,5.18,0,0,1,1.29-2.74l3.8-3.76"/><path class="cls-1" d="M46.35,161.08c.61,3.42,2.89,3.91,3.79,6a13,13,0,0,0,4.81-6.2"/><path class="cls-1" d="M51.41,159.8c-.26,1.77,3.46,2.08,3.69.6a22.12,22.12,0,0,1,4.55,3.83"/><path class="cls-1" d="M52.61,165a1.89,1.89,0,0,0,2.47,0,9.29,9.29,0,0,0,3,2.88"/><path class="cls-1" d="M47.56,163.93c-.62.42-.78,1.13-.38,2.22"/><path class="cls-1" d="M56.47,166.67c-1.08,0-2.83,3.12-5.47,5.42"/><path class="cls-1" d="M53.56,169.46a3.64,3.64,0,0,0,1.92,2.26"/><path class="cls-1" d="M58,112.21a6.21,6.21,0,0,1,2.09,5.58,10.42,10.42,0,0,0,0,6.42c-2.74-1.65-4.87-2.31-6.6-2.32"/><path class="cls-1" d="M60.2,118.11c2.79,1.5,3.71,1.2,4,0-.2-1.67-3.21-5.28-4.63-6.29,1.2,1,4.71,4,5.83,3.52l2.61.25a7.74,7.74,0,0,0-3-3.67"/><path class="cls-1" d="M53.21,121.76c1,1.87,3.5,3.85,3.52,3.31a3.71,3.71,0,0,1,.41-2.3"/><line class="cls-1" x1="53.73" y1="126.77" x2="56.06" y2="126.01"/><path class="cls-1" d="M55.44,125.37c2.42,1.27,6.15.67,9.34,3.51-1.4-1.84-1.82-3.7-.24-5.6a6.26,6.26,0,0,0-.41-5"/><path class="cls-1" d="M64.31,118.66a3.67,3.67,0,0,0,2.27-.87,3.07,3.07,0,0,0-1.23-2.13"/><path class="cls-1" d="M64.45,118.9c2.69,1,5.3,1.51,7.64.47"/><path class="cls-1" d="M64.57,123.42c1.28.75,2.47.89,3.38-.67,1.58-.62,1.93-1.57,1.17-2.83"/><path class="cls-1" d="M58.86,126.35c.24,6.5,3,3.65,7.34,5.9a5.18,5.18,0,0,1-.73-2.94L66,124"/><path class="cls-1" d="M62.63,131.24c2.63,2.27,4.71,1.2,6.7,2.23a13,13,0,0,0-.19-7.84"/><path class="cls-1" d="M65.74,127.06c.91,1.53,4-.57,3.24-1.86a22.15,22.15,0,0,1,5.94.1"/><path class="cls-1" d="M69.94,130.3a1.89,1.89,0,0,0,1.9-1.58c2,.35,2.13-.59,2.13-.59"/><path class="cls-1" d="M62.18,131.47c-.87.9-2.25,1.5-2,2.92"/><path class="cls-1" d="M65.83,133.14c-1.67,1.25-1,2.92-1.36,4.07"/><path class="cls-1" d="M58.42,126.87c.58,2.94-1.36,2.71-1.36,5.64"/><path class="cls-1" d="M34.74,79c.63.52,1.67,1.77-.74,3.75a12.67,12.67,0,0,0-7.22.48,14,14,0,0,0,1.39-7.88"/><path class="cls-1" d="M33.64,82.89c-1.45,3-1,4,.32,4.16,1.86-.35,2.58-1.83,3.59-3.38"/><path class="cls-1" d="M28.16,75.33c-2,1.18-3.27,4.55-2.66,4.52a2.79,2.79,0,0,1,2,.28"/><line class="cls-1" x1="22.74" y1="76.27" x2="25.24" y2="79.71"/><path class="cls-1" d="M25.24,79.71c-1.21,2.62.41,3.76-2.5,7.3,1.95-1.6,3.2-.68,5.47.81A7.54,7.54,0,0,0,33.84,87"/><path class="cls-1" d="M33.39,87.21c.14,1,.5,4,1.14,4.6"/><path class="cls-1" d="M33.13,87.38c-.89,2.88-1.24,5.64.14,8"/><path class="cls-1" d="M28.05,87.87c-.73,1.4-.79,2.64,1,3.45.83,1.6,1.94,1.88,3.29,1"/><path class="cls-1" d="M24.26,82.17c-7.29.78-3.84,3.45-6,8.1a6.17,6.17,0,0,1,3.24-1l6,.17"/><path class="cls-1" d="M16.16,87.54c-2.32,2.92,2.09,3.76,2.09,6.16,2.4-.31,6.29,1.28,9.5.11"/><path class="cls-1" d="M24.06,89.38c-1.65,1.07,2.4,5,3.79,4.1.53,2.47-.87,3.58-1,5.3"/><path class="cls-1" d="M20.78,94c.11,1,1.31,3.13,2.47,3.34-.21,2.13,3.65,1.77,3.65,1.77"/><path class="cls-1" d="M18.79,86c-1.09-.83-3.88-2.55-5.45-2.15"/><path class="cls-1" d="M24.26,82.17c-3.26.85-4.71-2-8-1.72"/><path class="cls-1" d="M40.08,115.31Q38.5,118,36,117.84a6.16,6.16,0,0,0-4.86.48,16.77,16.77,0,0,0,1.35-6.76"/><path class="cls-1" d="M35.76,118c-1,2.9-.68,3.79.22,4,1.25-.34,3.64-5.13,4.32-6.62-.68,1.28-2.56,6.52-2.15,7.6l.21,4.57c1.06-.78,1.78-3.67,2.36-5.21"/><path class="cls-1" d="M32.57,111.32c-1.36,1.14-4.36,3.93-4,3.91a7.84,7.84,0,0,1,3.42.09"/><path class="cls-1" d="M28.2,111.26c-.81,2.51,1.47,6.82-.49,10.23,1.31-1.54,2.87-.18,4.4,1.25a3.83,3.83,0,0,0,3.79-.82"/><path class="cls-1" d="M35.59,122.14a4.22,4.22,0,0,0,.79,2.2c.55-.06,1.06-.59,1.53-1.4"/><path class="cls-1" d="M35.42,122.29a21.67,21.67,0,0,0,.71,10"/><path class="cls-1" d="M32,122.78c-.49,1.34-.52,2.53.71,3.31.56,1.53,1.31,1.8,2.21.94"/><path class="cls-1" d="M28.41,116.82c-4.9.77-1.07,3-2.5,7.44.69-.58.94-.14,1.71-.12l4.06.14"/><path class="cls-1" d="M25.69,121.34c-1.56,2.81-.35,4.92-1,7a7.67,7.67,0,0,0,5.92-.82"/><path class="cls-1" d="M29.32,124.24c-1.11,1,.68,3.94,1.61,3.08a52.17,52.17,0,0,1-.09,8.35"/><path class="cls-1" d="M27.13,128.68a1.73,1.73,0,0,0,1.31,1.77c-.14,2,0,2.16,0,2.16"/><path class="cls-1" d="M25.77,121c-.73-.79-3.41-2.86-4.46-2.48"/><path class="cls-1" d="M24.73,124.82c-1-1.56-1.84.28-2.73,0"/><path class="cls-1" d="M28.41,116.82c-2.19.82-1.53-1-3.74-.79"/><path class="cls-1" d="M43.5,41.83c-3.69-2.5-4.66-6.66-5.08-8.49,3.62,7.37,1,11.83-5.15,12.14l-3.76.42c-3.62-2.78-4.94-5.48-4.7-8.14-1.94,1.69-1.83,4.17-.83,7A12.58,12.58,0,0,1,21.59,39"/><path class="cls-1" d="M43.85,6.77C38,9,34.4,12.47,35,16.89c2.93,1.4,5.61,4.17,8.14,7.72"/><path class="cls-1" d="M31,76.58c1-4.3,3.9-7,8.87-8,3.11,4.22,4.35,9.58,4.07,15.86L40.68,88a4.42,4.42,0,0,0-2.92-3.86C38.28,80.89,34.82,78.69,31,76.58Z"/><path class="cls-1" d="M44.65,96.93A11.36,11.36,0,0,1,39.54,102c1.29,3.53,3.31,5.27,5.84,5.74Z"/><path class="cls-1" d="M47.47,67.4,46,82.95c2.39-2.57,4.8-4.93,7.3-6l.22-.18a27.6,27.6,0,0,1,6.57-2.4C59.1,68.78,55,66.34,47.47,67.4Z"/><path class="cls-1" d="M46.53,94.63l2.61,12.52a13.89,13.89,0,0,0,8.45-5.74c-2-.45-3.68-1.94-4.59-5.22-3.69-5.16-2.14-12.63.52-19.41C48.8,85,49,93.18,46.53,94.63Z"/><path class="cls-1" d="M37.34,84.09a5.54,5.54,0,0,1-1.46,4.07c.12,1.81-.34,3.12-1.56,3.76a7.5,7.5,0,0,1-2,5"/><path class="cls-1" d="M53,96.2c1.81-7.79,8.94-7.34,22.23-12.31"/><path class="cls-1" d="M58.6,100.82c-.9-4.09-1-7.87.14-11.13"/><path class="cls-1" d="M61.8,98A25.28,25.28,0,0,1,63,88"/><path class="cls-1" d="M66.81,95a17.29,17.29,0,0,1,1.95-8.63"/><path class="cls-1" d="M71.54,91.5a10,10,0,0,1,3.06-7.23"/><path class="cls-1" d="M65.41,97.07a23.1,23.1,0,0,0,9-4.59"/><path class="cls-1" d="M74.32,90A6.14,6.14,0,0,0,77,89"/><path class="cls-1" d="M61.1,100a17.47,17.47,0,0,0,10.71-.83"/><path class="cls-1" d="M60,101.8A19.1,19.1,0,0,0,67.22,104"/><path class="cls-1" d="M38,98.47c1.93.54,4.28-.46,6.64-1.54"/><path class="cls-1" d="M39.81,94.84a12.32,12.32,0,0,0,7.93-3.06"/><path class="cls-1" d="M41.07,91.78c2.24.19,4.77-1.4,7.37-3.48"/><path class="cls-1" d="M41.48,89.28A22.28,22.28,0,0,0,49,82.74"/><path class="cls-1" d="M39.26,92.61a16.77,16.77,0,0,1-2.37-4.87"/><path class="cls-1" d="M38.42,96.37c-1.71-.61-2.76-2.1-3.34-4.17"/><path class="cls-1" d="M37,99.22a7,7,0,0,1-3.69-3.48"/><path class="cls-1" d="M60,55a19,19,0,0,1-.28-12.24"/><path class="cls-1" d="M63.61,52.68c-.47-4.31.45-9,2.09-13.77"/><path class="cls-1" d="M69,47.54A25.7,25.7,0,0,1,70.84,37"/><path class="cls-1" d="M73.76,42.67A11.74,11.74,0,0,1,75,35.15"/><path class="cls-1" d="M60.82,58.39c2.14,2.59,10,6.12,10,6.12"/><path class="cls-1" d="M65,56.44c4.59,3.45,15,7.41,15.44,7.1"/><path class="cls-1" d="M71.68,55.61c4.87,3.29,16,7.51,16,7.51"/><path class="cls-1" d="M77.38,53.24c5.16,1.27,16.28,2.23,16.28,2.23"/><path class="cls-1" d="M86.42,51.71a98.76,98.76,0,0,0,12.8-.14"/><path class="cls-1" d="M82.81,51.71c.07-2.41,5-7.65,5-7.65"/><path class="cls-1" d="M73.9,53.8c.43-2.32,8.07-8.9,8.07-8.9"/><path class="cls-1" d="M67.36,55c.31-5.13,4.73-8.73,11.69-13.77"/><path class="cls-1" d="M27.71,58.94c3.27-2.09,6.82-11.27,6.82-11.27"/><path class="cls-1" d="M26.18,56.16c2.41-3.68,4.31-10,4.31-10"/><path class="cls-1" d="M24.93,49.9c1.35-2.07.7-7.79.7-7.79"/><path class="cls-1" d="M22.15,53.24a25.35,25.35,0,0,0-2.09-12.8"/><path class="cls-1" d="M16.86,49.07a13.34,13.34,0,0,0-.28-6.4"/><path class="cls-1" d="M14.08,46.7a33.49,33.49,0,0,0-1.36-6.12"/><path class="cls-1" d="M9.9,44.34a41.3,41.3,0,0,1-6.12-5.15"/><path class="cls-1" d="M11.57,46.84c-.41.78-1.56.84-2.92.7"/><path class="cls-1" d="M15.33,50.32c-.76.46-2.27.28-3.9,0"/><path class="cls-1" d="M18.95,53c-1.49.6-3.39.13-5.43-.7"/><path class="cls-1" d="M22.84,57.14C17.68,57,9,54.08,1,51.33"/><path class="cls-1" d="M27,60.75A71.34,71.34,0,0,1,6.88,57.38"/><path class="cls-1" d="M27.54,62c-2.14,1.27-10.43,2.34-11.79,2.19"/><line class="cls-1" x1="46.35" y1="94.84" x2="44.68" y2="97.21"/><line class="cls-1" x1="43.92" y1="84.41" x2="45.87" y2="83.01"/><path class="cls-1" d="M60.09,75c3.71,4.88,8.32,6.18,13.46,5.32"/><path class="cls-1" d="M52.06,82.84c3-.82,5.44-3.77,7.62-7.51"/><path class="cls-1" d="M69.48,80.44a28.58,28.58,0,0,0-5.84,6.68"/><path class="cls-1" d="M54.77,81.48c1,3.68,4.21,5.31,8.87,5.64"/><path class="cls-1" d="M55.81,84.2c-.81.85-4,3.27-4.7,5.84"/><path class="cls-1" d="M58,85.55c-2.25,1.78-4.89,6.39-5.09,9.29"/><path class="cls-1" d="M66.53,16c1.06,7.66,5.78,7.65,12,4.59"/><path class="cls-1" d="M74.88,22.21c-.61,3,4.73,2.92,6,6.57"/><path class="cls-1" d="M71.26,22.77c0,1.9-1.43,3.68-3.48,5.43"/><path class="cls-1" d="M66.11,19.85c-.33,2.36.44,5.24,1.67,8.35"/><path class="cls-1" d="M61.94,23.47c1-.18,4.17-3.62,4.17-3.62"/><path class="cls-1" d="M69.17,27.22c3.7,3,11,4.31,11,4.31"/><path class="cls-1" d="M61.38,24.72c1.29,4.64,3.47,5.35,6.12,4"/><path class="cls-1" d="M62.6,33c5.45-2.3,4.92-3.19,4.9-4.21"/><path class="cls-1" d="M73.62,29.87c.88,2,.41,3.86-.84,5.7"/><path class="cls-1" d="M21.59,36.82a10.05,10.05,0,0,1,4.73-7.93"/><path class="cls-1" d="M32.44,18.46c-.84,5.15,2.5,6.12,10.16,5.7"/><path class="cls-1" d="M35.92,23.88C35.08,28.48,43.57,28.61,47,34.6"/><path class="cls-1" d="M34,23.61c-1.11,4.87-7.37,1.25-10.85,3.48"/><path class="cls-1" d="M32.86,26.11c-2.23,9.74,9,6.54,14.19,8.9"/><path class="cls-1" d="M25.35,26.53a20.65,20.65,0,0,0,15.55,12.7"/><path class="cls-1" d="M26.32,28.89c-.63,2.08-2.25,6.93-1.39,9.46"/><line class="cls-1" x1="43.4" y1="3.75" x2="42.32" y2="0.09"/><path class="cls-1" d="M58.6,101.52c5.34-2.59,14-11,23-19.9"/><line class="cls-1" x1="36.82" y1="100.48" x2="40.68" y2="87.95"/><path class="cls-1" d="M59.29,57.41C67.07,55.24,74.5,54.59,81.48,56"/><path class="cls-1" d="M75.22,48.61c-4.84-1.69-10.32,2.92-15.93,8.8"/><path class="cls-1" d="M9.9,44.34C19,53.25,26.74,60.56,28.82,60.89"/></g></g></svg>