<svg xmlns="http://www.w3.org/2000/svg" viewBox="0 0 84.79 149.89"><defs><style>.cls-1{fill:#fff;}</style></defs><title>לפה גדולה</title><g id="Layer_2" data-name="Layer 2"><g id="Expended"><path class="cls-1" d="M4.17,75,4,75.68a23.14,23.14,0,0,0,5.22.81c.68,0,1.3,0,1.86,0,1.67,0,2.72-.08,2.74-.08l0-.66s-1.85.13-4.53,0A22.94,22.94,0,0,1,4.17,75Z"/><path class="cls-1" d="M84.32,77.52a4.08,4.08,0,0,0,.35-2.92,3.2,3.2,0,0,1-.07-.48.41.41,0,0,0-.24-.39c-.3-.14-.57.09-1.22.65a9.11,9.11,0,0,1-2.73,1.79l-.19.06-.46.15c-.16-.34-.55-.72-1.74-1.13a9.25,9.25,0,0,0-7.72.73c-1.62,1.06-3.24.63-4.66.26l-.11,0a8.23,8.23,0,0,0-6.24,1.91,9.19,9.19,0,0,1-2.11,1.46A44.71,44.71,0,0,0,57.48,75c0-1.29.1-2.71.18-4.13a29.26,29.26,0,0,0-.23-6.07,1.83,1.83,0,0,0,.56.11.42.42,0,0,0,.4-.19.41.41,0,0,0-.13-.55,1.68,1.68,0,0,0-.4-.2,2.66,2.66,0,0,0,.3,0h.07c1.62,0,3.77-1.37,4-2.2a.41.41,0,0,0,0-.27,1.81,1.81,0,0,0,.33-.37c.5-.79.66-1.11.37-1.32l-.05,0c.25-.53.3-.8.06-1a.31.31,0,0,0-.3,0c.3-.39.37-.55.25-.75a.41.41,0,0,0-.45-.18c-.25,0-.41.25-.92,1l0,.06c.35-.53,1.26-2,.81-2.41l-.08-.05-.07-.26-.16,0a.37.37,0,0,0-.33-.31,2,2,0,0,0,.17-.76l0-.08a7.94,7.94,0,0,0,2.16.31A3.43,3.43,0,0,0,66,54.86a.42.42,0,0,0,.14-.3,2.23,2.23,0,0,0,.63-.18c1.13-.55,1.35-.73,1.23-1a.3.3,0,0,0-.08-.1c.72-.45.86-.64.73-.91s-.54-.18-.74-.1-.48.15-.89.26l.85-.31c1-.36,1.21-.43,1.23-.75a.42.42,0,0,0-.3-.41c-.25-.11-.58,0-1.57.46a16.51,16.51,0,0,1-2.37.89,4.06,4.06,0,0,0,.79-.5A7.58,7.58,0,0,0,67,51.4c.28-.13,2.71-1.26,2.48-1.95a.41.41,0,0,0-.07-.11h0a.39.39,0,0,0-.07-.43h0a.41.41,0,0,0-.11-.52.31.31,0,0,0-.1,0,2.75,2.75,0,0,0,.76-.74.36.36,0,0,0-.11-.48c-.24-.16-.42,0-.63.22l-.06.06a1.13,1.13,0,0,0,0-.2l.16-.3-.21-.18a.35.35,0,0,0-.11-.06c.84-.83.84-1,.69-1.18a.38.38,0,0,0-.54-.06c-.09.05-.29.21-.87.69s-1.66,1.35-2.54,2a.37.37,0,0,0,0-.36c1-.59,1.54-1.06,1.52-1.41a.43.43,0,0,0-.05-.16,3.81,3.81,0,0,0,.43-.38c1.2-1.3,1.23-1.56,1-1.8a.41.41,0,0,0-.51-.06l0-.06a1.73,1.73,0,0,0,.52-.87l0-.27-.26-.09a.31.31,0,0,0-.14,0,1.82,1.82,0,0,1,.33-.37.72.72,0,0,0,0-1.07l0,0a.69.69,0,0,0,0-.34,3,3,0,0,1,1.62-.68l.24,0a.66.66,0,0,0,.47-.26.48.48,0,0,0,0-.4.64.64,0,0,1,0-.1l0-.18-.12-.08c-.16-.11-.4-.1-.92,0l.29-.14.47-.24c.27-.14.51-.26.46-.53s-.12-.24-.31-.29v0a.36.36,0,0,0,.08-.19.44.44,0,0,0-.27-.41l-.07-.17L70.43,37c-.08,0-.19-.07-.67.18l0,0a.45.45,0,0,0,.28-.51.61.61,0,0,0-.6-.4.41.41,0,0,0-.17,0,.56.56,0,0,0-.07-.7.46.46,0,0,0-.47-.08.54.54,0,0,0-.12-.31.43.43,0,0,0-.44-.15l-.13.06L68,34.93l-.18,0s-.06,0-.1,0c.27-.47.32-.69.28-.85l-.07-.19-.14-.07c-.24-.11-.45,0-.84.44l-.41-.12.07-.13-.27-.34-.21,0H66a.32.32,0,0,0-.11-.17c-.14-.12-.31-.11-.5,0l-.1.08c-.14,0-.24.09-.47.47a.3.3,0,0,0-.34-.05.42.42,0,0,0-.38-.11c-.18,0-.33.18-.49.47a1,1,0,0,0-.55-.18H62.9l-.11.09a.53.53,0,0,0-.15.19.8.8,0,0,0-.19-.13l-.2-.07-.15.09a.38.38,0,0,0-.14.15.76.76,0,0,0-.64.33,1.14,1.14,0,0,0-.25.06c-.2.07-.65.23,0,2.59a2.49,2.49,0,0,0-.59,1.22c0,.32-.09.85-.11,1.06l0,.09-.1,0L60,39.75l.44-1.45L59.21,40a2.43,2.43,0,0,0-.28.88c-.07.23-.12.45-.18.66a.4.4,0,0,0-.41-.34c-.13,0-.25.12-.35.29l-.56-.2a9,9,0,0,0-.52,1.62h0l-.12.25a2.24,2.24,0,0,0-.17.53c0-.1,0-.19,0-.29,0-.44.07-.86.1-1.1.07-.75.08-.84-.15-.94l-.22-.09-.16.18a2.89,2.89,0,0,0-.22,2c0,.26,0,.49,0,.7h-.11l-.14.14A2.71,2.71,0,0,0,55.41,46a7.14,7.14,0,0,1,.05-2.81l.06-.21-.17-.14a.56.56,0,0,0-.67,0c-.47.31-.62,1.35-.42,2.63a.39.39,0,0,0-.19-.28.45.45,0,0,0-.57.08c-.15.18-.13.53,0,1a.34.34,0,0,0-.11-.07.41.41,0,0,0-.48.07c-.18.19-.15.4.11,1l0,0-.3,0-.09.26s0,.07,0,.07-.14.17-.14.5h-.13l-.1.12H52l-.12.12a.65.65,0,0,0-.15.51,1.09,1.09,0,0,0-.41.12l-.16.09,0,.13a.44.44,0,0,0,0,.14h-.13l-.2,0-.08.16a.37.37,0,0,0,0,.15.67.67,0,0,0-.29.5l-.14.14c-.12.16-.38.48,1.07,1.84a2.15,2.15,0,0,0,0,.73l-.1-.35-.1,2.09a2,2,0,0,0,.19.75l.11.35a.36.36,0,0,0-.35,0,.48.48,0,0,0-.12.4l-.48.1a7.37,7.37,0,0,0,.32,1.27h0l0,.27s0,.06,0,.08l-.34-.66c-.27-.53-.32-.64-.57-.61l-.24,0,0,.24c-.06.38.23.86.7,1.48l.24.42,0,0,0,.19a.75.75,0,0,0,0,.36,5.34,5.34,0,0,1-.47-1L50,58.09l-.22,0a.5.5,0,0,0-.39.13,40,40,0,0,0-4.52.24l-.95.1a20.54,20.54,0,0,0-3.94.71c-1.73.42-3.85,2.37-5.26,3.66A10.54,10.54,0,0,1,33.37,64a.4.4,0,0,1-.46-.07c-.32-.27-.56-1.05-.19-2.36.62-2.17,3.83-3.76,5.55-4.62l.49-.24a20.09,20.09,0,0,1,6-2.09c2.4-.41,5.09,1.72,5.12,1.75l.41-.51a10.31,10.31,0,0,0-3.42-1.74,53.3,53.3,0,0,1,.64-10.6c1-7,1.9-12.55,1.91-12.6l-.19,0c.18-1,.43-1.47,1.11-1.76A3.87,3.87,0,0,0,52,27.81a13.3,13.3,0,0,1,1.62.57c.58.23,1.23.49,2.11.76a10.12,10.12,0,0,0,3.06.52,1.21,1.21,0,0,1,.63.1,1.4,1.4,0,0,0,.75.29l.19,0a.66.66,0,0,0,.43-.37l.07-.11a6.85,6.85,0,0,0,1-6,4.18,4.18,0,0,0-2.22-2.8A5.75,5.75,0,0,0,55,21c-2.45,1.13-3.28,1.58-3.53,1.93l-.44,0,.06-.06a.43.43,0,0,0-.08-.6,2.88,2.88,0,0,0-.64-.39,10.15,10.15,0,0,1-1.11-.66,3.91,3.91,0,0,0,1.79.7l.43,0c2,0,4.41-1.26,4.71-2.09a.42.42,0,0,0,0-.33,2.23,2.23,0,0,0,.49-.43c.8-1,.91-1.24.67-1.47a.3.3,0,0,0-.12-.06c.46-.71.51-.95.28-1.13s-.56.07-.72.23-.37.34-.69.61l.63-.63c.76-.75.92-.91.8-1.2a.43.43,0,0,0-.45-.24c-.28,0-.51.26-1.23,1.08a16.47,16.47,0,0,1-1.77,1.82,4.14,4.14,0,0,0,.5-.77,7.78,7.78,0,0,0,1-1c.2-.23,1.92-2.29,1.42-2.82L57,13.4h0a.39.39,0,0,0-.25-.36h0c0-.12-.05-.39-.32-.42h-.1a2.74,2.74,0,0,0,.38-1c0-.29-.18-.37-.3-.39-.28,0-.37.19-.48.47l0,.08a1.12,1.12,0,0,0,0-.2l0-.34-.27-.07a.36.36,0,0,0-.12,0c.41-1.11.35-1.24.12-1.36-.06,0-.29-.13-.51.17-.06.08-.17.31-.5,1s-.93,1.93-1.46,2.89a.37.37,0,0,0-.13-.34c.67-1,.94-1.61.78-1.93a.43.43,0,0,0-.12-.13,3.81,3.81,0,0,0,.22-.53c.53-1.68.46-1.93.16-2.07a.41.41,0,0,0-.49.16V9a1.73,1.73,0,0,0,.1-1l-.08-.26-.27,0a.31.31,0,0,0-.13,0,1.82,1.82,0,0,1,.14-.47c.28-.58-.28-.87-.46-1h0A.69.69,0,0,0,52.7,6a3,3,0,0,1,1.19-1.3l.19-.14a.66.66,0,0,0,.31-.43.48.48,0,0,0-.15-.38l-.07-.08-.11-.15-.15,0c-.2,0-.4.08-.83.41l.19-.24.34-.43c.2-.25.35-.45.19-.68a.35.35,0,0,0-.4-.13l0,0a.36.36,0,0,0,0-.2A.44.44,0,0,0,53,1.91l-.14-.13-.16,0c-.09,0-.2,0-.53.45l0,0a.45.45,0,0,0,0-.58.61.61,0,0,0-.72-.11.34.34,0,0,0-.14.11c0-.46-.27-.57-.36-.6a.45.45,0,0,0-.45.13.54.54,0,0,0-.24-.23.43.43,0,0,0-.56.15L49.57,1l-.18,0-.09,0c0-.54,0-.76-.11-.89L49,0h-.16c-.26,0-.41.17-.57.76l-.42.06V.68l-.39-.2-.17.12-.09,0a.32.32,0,0,0-.17-.11c-.18-.05-.33,0-.44.25l-.06.12c-.12.08-.18.19-.22.62a.3.3,0,0,0-.33.1.43.43,0,0,0-.39.06.8.8,0,0,0-.24.64,1,1,0,0,0-.58.07l-.18.08-.06.13a.52.52,0,0,0-.05.23c-.07,0-.15,0-.23,0l-.21,0L44,3a.38.38,0,0,0-.06.2c-.26.07-.37.34-.44.57a1.19,1.19,0,0,0-.2.16c-.15.15-.5.48,1.07,2.36a2.49,2.49,0,0,0,0,1.36c.1.31.28.82.35,1V8.7H44.6l-.26,0-.22-1.49L43.77,9.3a2.42,2.42,0,0,0,.13.92c0,.24.08.46.12.67a.39.39,0,0,0-.51-.13.5.5,0,0,0-.19.41l-.59.05a8.92,8.92,0,0,0,.15,1.35.36.36,0,0,0-.27.15,1.5,1.5,0,0,0-.14-.83l-.14-.24-.21.07a.21.21,0,0,0-.11-.05,1.44,1.44,0,0,1,0-.26c.08-.4-.13-.66-.63-.78h0a.67.67,0,0,0-.16-.23A2.67,2.67,0,0,1,42,9.08l.14-.16a.62.62,0,0,0,.19-.47.46.46,0,0,0-.23-.32L42,8.08,41.86,8h-.15c-.15,0-.28.1-.47.32h0l.19-.42c.11-.25.21-.49,0-.67l-.29-.11-.1.06h0A.35.35,0,0,0,41,7a.39.39,0,0,0-.43-.15l-.16-.09-.15.06c-.06,0-.14.05-.25.26a.4.4,0,0,0-.15-.3.57.57,0,0,0-.68.06l-.06.06a.51.51,0,0,0-.45-.39.47.47,0,0,0-.37.19A.52.52,0,0,0,38,6.56a.43.43,0,0,0-.42.15l-.05.08-.13-.07-.17.08h0c-.07-.44-.16-.61-.29-.7L36.79,6l-.15,0c-.25.06-.35.27-.36.78L36,7l0-.11-.2-.06h-.28l-.12.13a.34.34,0,0,0-.16,0c-.12,0-.3,0-.36.34a.53.53,0,0,0,0,.1c-.09.1-.12.2-.08.56l-.11,0L34.53,8l-.25,0-.11.14a.71.71,0,0,0-.09.58,1.08,1.08,0,0,0-.46.19l-.15.11,0,.14a.47.47,0,0,0,0,.18l-.17,0-.2.06L33,9.65a.37.37,0,0,0,0,.18.7.7,0,0,0-.25.58,1.06,1.06,0,0,0-.13.18c-.11.18-.34.55,1.42,1.84a2.24,2.24,0,0,0,.28,1.17l.51.8v0l-.06,0-.18.07L34,13.09l.15,2.09a2.18,2.18,0,0,0,.31.79l.19.43a.37.37,0,0,0-.41.06.48.48,0,0,0-.09.43l-.5.17a8.09,8.09,0,0,0,.53,1.38h0l.06.27h0a1.84,1.84,0,0,0,.1.29l0,0c-.22-.32-.43-.63-.54-.81-.37-.56-.43-.64-.67-.58h0a5.61,5.61,0,0,0-1.52-.33,2.14,2.14,0,0,0-2.05.69l-.13.14a2.52,2.52,0,0,1-.56-.08c-.7-.15-1.75-.37-2.32.4a1.85,1.85,0,0,1-.69.51l0,0,0,0a9.91,9.91,0,0,1-1.56.53,4.54,4.54,0,0,0-1,.35.62.62,0,0,0-.28.43c-.17.9,1,2.9,1.78,3.95a3,3,0,0,1,.34.57.56.56,0,0,0,0,.09.53.53,0,0,0,0,.1c-.07.11-.09.21,0,.56h-.1l-.09.2-.24,0-.09.15a.7.7,0,0,0,0,.58,1.06,1.06,0,0,0-.42.24l-.13.13V27a.47.47,0,0,0,0,.18l-.15,0-.19.09,0,.17a.38.38,0,0,0,0,.18.71.71,0,0,0-.17.6,1.06,1.06,0,0,0-.11.19c-.09.19-.26.58,1.62,1.63a2.21,2.21,0,0,0,.42,1.12l.6.72,0,0-.05,0L25.7,32l-.75-1.35.41,2a2.15,2.15,0,0,0,.39.72l.25.41a.37.37,0,0,0-.39.12.48.48,0,0,0,0,.44l-.47.23a8,8,0,0,0,.69,1.29h0l.09.26a1.88,1.88,0,0,0,.13.26l0,0-.63-.72c-.44-.51-.5-.59-.74-.49l-.22.09,0,.24c0,.4.47.85,1.12,1.36l.39.41-.06,0v.2a1.29,1.29,0,0,0,.37.65L26,38c-.16-.39-.28-.5-.45-.48a4.93,4.93,0,0,1-.4-.54l-.11-.19-.22,0a.53.53,0,0,0-.48.43.84.84,0,0,0,.08.47.35.35,0,0,0-.36.13,1.1,1.1,0,0,0-.34-.44l-.23-.15-.14.14a.91.91,0,0,1-.06-.13c-.06-.23-.23-.47-.76-.39a.6.6,0,0,0-.15-.08,2.06,2.06,0,0,1,.06-1.12l0-.16a.55.55,0,0,0,0-.45.5.5,0,0,0-.37-.19l-.17,0-.13.08a.39.39,0,0,0-.12.11v0c0-.22,0-.47-.27-.54a.32.32,0,0,0-.3.07L21,34.49a.3.3,0,0,0-.38,0h-.18l-.11.12a.31.31,0,0,0-.09.15.39.39,0,0,0-.14-.06.52.52,0,0,0-.53.29.44.44,0,0,0-.45-.06.4.4,0,0,0-.22.24.52.52,0,0,0-.18,0l-.26.1,0,.2v0H18.4l-.07.09c-.19-.25-.31-.32-.43-.35l-.19,0-.12.1c-.18.15-.19.33,0,.72l-.07.07,0,0L17,36.2l0,.15-.11,0-.22.21.06.27c0,.12,0,.21.11.42l-.08,0,0,.14-.14.07,0,.17a.56.56,0,0,0,.11.44,1.12,1.12,0,0,0-.22.27l-.08.16,0,.14a.44.44,0,0,0,0,.09l-.06,0-.15.14,0,.18a.37.37,0,0,0,0,.12.64.64,0,0,0,0,.5,1,1,0,0,0,0,.16c0,.2-.05.56,1.64.88l.07.13-.1-.09L19,42.65a1.73,1.73,0,0,0,.5.46l.1.08-.1.26a.46.46,0,0,0,.11.39l-.3.3a6.42,6.42,0,0,0,.79.75h0l.05.07-.32-.19c-.35-.21-.5-.29-.64-.24l.11-.33c-.06,0-1.6-.51-4.68,1.29a44.19,44.19,0,0,1-4.18,2.09,15.82,15.82,0,0,0-2.62,1.36c-1.16.86-1.63,1.06-2.55.74S3.9,50.27,3.52,51c-.18.33-.47.89-.64.84s-.33-.1-.52-.17c-.67-.24-1.44-.52-2-.13A1.32,1.32,0,0,0,0,52.75c.18,2.45,4.64,5.16,6,5.93a8.21,8.21,0,0,0,4,1.17h.24c-.74,2-1,3-.59,3.47a.62.62,0,0,0,.48.21.94.94,0,0,0,.23,0l.46-.13a1.1,1.1,0,0,0,.13.32l-.12.05,0,.15-.17.08-.05.16a.64.64,0,0,0,.1.51,1.09,1.09,0,0,0-.3.3l-.1.15,0,.14a.43.43,0,0,0,0,.13l-.1.06-.16.13v.18a.37.37,0,0,0,0,.15.67.67,0,0,0,0,.57,1,1,0,0,0-.05.19c0,.19-.11.6,1.78,1.12a2.14,2.14,0,0,0,.28.53L12,68.1,12.84,70a2,2,0,0,0,.52.57l.25.25a.36.36,0,0,0-.28.2.46.46,0,0,0,.07.42l-.37.31a7.29,7.29,0,0,0,.86,1h0l.15.23,0,0-.57-.4c-.48-.35-.58-.42-.79-.27l-.19.14.07.23c.12.36.6.65,1.29,1l.4.26,0,0,.06.19a.72.72,0,0,0,.19.27,5.22,5.22,0,0,1-.85-.65l-.15-.16-.2.08a.51.51,0,0,0-.34.51c0,.42.58.91,1.42,1.28h0a.42.42,0,0,0-.2.51c.06.17.27.3.55.39a.4.4,0,0,0-.14.4c.09.31.36.33,1.48.42h.22a.46.46,0,0,0-.13.32l.06.26.18.08a.51.51,0,0,0,.22,0,1.64,1.64,0,0,0,.7-.24.45.45,0,0,0,.19.52.48.48,0,0,0,.24.06,1.34,1.34,0,0,0,.84-.5.42.42,0,0,0,.23.18l.14,0a.63.63,0,0,0,.43-.21c-.07.31,0,.5.1.62a.39.39,0,0,0,.25.09.55.55,0,0,0,.3-.1,2.37,2.37,0,0,0,.62-1.55,32.94,32.94,0,0,1,3.44,4A6.86,6.86,0,0,0,22,79.49c-1.85-.68-3,.3-4.11,1.26a5.27,5.27,0,0,1-3,1.59c-2.17.19-3.46-1.53-4.6-3A15.39,15.39,0,0,0,9.25,78a3.61,3.61,0,0,0-2.71-1.4,12.3,12.3,0,0,1-1.32-.23C3.53,76,3.1,75.35,3,75.09c.58-.61,4.52-3.1,6.57-3.45a5,5,0,0,1,3,.09l.17-.28.17-.28c-.1-.06-1-.58-3.41-.18a19.29,19.29,0,0,0-7.05,3.79.43.43,0,0,0-.08.34c.06.31.44,1.36,2.77,1.9a13.1,13.1,0,0,0,1.39.24,3,3,0,0,1,2.31,1.2,14.94,14.94,0,0,1,1,1.25C11,81.27,12.41,83.2,15,83a5.87,5.87,0,0,0,3.37-1.75c1.09-.94,2-1.68,3.45-1.14,2.37.87,4,3.53,5,5.11.22.36.41.67.57.9l.17.25.2.34h0a12.45,12.45,0,0,1,.95,2.17c.13.36.28.77.47,1.25a37.05,37.05,0,0,1,1.11,3.79l.22.83A13.27,13.27,0,0,0,26,94.17a4.88,4.88,0,0,1-3.6-.8c-.68-.43-1-.34-1.38,0A2.15,2.15,0,0,1,20,94c-1.26.35-1.49.15-2.35-.59l-.09-.08c-.83-.72-1.63-.15-2.33.36a5,5,0,0,1-1,.6c-1.08.44-1.1.44-2.07-.2A2.4,2.4,0,0,0,9.83,94a13.28,13.28,0,0,1-2,.5c-1.55.25-3.53-1-5-1.91a8.07,8.07,0,0,0-1.68-.92c-.12,0-.49-.13-.68.13s0,.7.61,1.63A24.13,24.13,0,0,1,2.92,96.7c1.16,2.59-.15,4.32-1.42,6l-.51.69c-1.27,1.76.22,4.16.72,4.87a7.25,7.25,0,0,0-.84,3.1,7.74,7.74,0,0,0,1.59,4.8c.08.13.15.22.17.27s.05.11,0,.44,0,1.24.05,3.07c.14,3.76,5.55,12.2,7.08,12.87,1.27.56,2.79,1.87,6,5.18s5.82,1.57,7.55.45l.17-.11a10.8,10.8,0,0,0,2.28-2.48,15.71,15.71,0,0,1,4.39-4.35c3-1.78,4.73-.4,8.07,2.35l.28.23c3.39,2.78,8.2,15.68,8.25,15.81l.62-.23c-.2-.54-4.93-13.19-8.45-16.09l-.28-.23c-3.35-2.76-5.38-4.42-8.82-2.41a16.47,16.47,0,0,0-4.58,4.52,10.49,10.49,0,0,1-2.12,2.33l-.18.11c-1.73,1.13-3.88,2.53-6.72-.35-3.32-3.38-4.9-4.72-6.25-5.32-1.13-.5-6.56-8.66-6.69-12.29-.07-1.82-.06-2.64-.05-3a1.24,1.24,0,0,0-.11-.74,3.9,3.9,0,0,0-.22-.35,7.15,7.15,0,0,1-1.48-4.37,5.74,5.74,0,0,1,.83-2.94l.19-.21-.17-.22s-2-2.64-.85-4.28l.5-.67c1.26-1.66,2.83-3.71,1.5-6.67a25.13,25.13,0,0,0-1.9-3.38c-.15-.23-.3-.47-.42-.67a14.09,14.09,0,0,1,1.27.75c1.53,1,3.63,2.29,5.42,2A13.89,13.89,0,0,0,10,94.62c.85-.27,1.23-.39,1.79,0a2.13,2.13,0,0,0,2.68.26,5.45,5.45,0,0,0,1.13-.68c.76-.55,1.11-.74,1.51-.39l.09.08a2.52,2.52,0,0,0,3,.73,2.79,2.79,0,0,0,1.27-.7c.21-.19.21-.19.58,0a5.54,5.54,0,0,0,4.05.89,14,14,0,0,1,4.54.67c.48,1.82,1.13,4.16,2.1,7.33l-.5.73a4.3,4.3,0,0,0-.51,2.4c0,.18-.06.37-.09.57a8.31,8.31,0,0,0,.47,2.88,16.16,16.16,0,0,1,.74,4.61c0,1.73.06,4.07.14,6,.05,1.14.1,2.16.1,2.77-.25-.29-.6-.76-1-1.25a68.86,68.86,0,0,0-4.4-5.42,50.17,50.17,0,0,0-10.49-8.31c-1-.63-2-1.27-2.93-1.93a43,43,0,0,1-8.5-8.42L4.75,96,5.2,97.7c0,.07.51,1.8,3.2,4.75a79.16,79.16,0,0,0,13.05,10.48,30.08,30.08,0,0,1,7.13,6.81l-1.11-.27a9.43,9.43,0,0,0-1.06-.12,65.12,65.12,0,0,1-7.41-1c-4.32-.88-7.49-1.6-7.52-1.61l-1.67-.38,1.4,1c.12.08,2.92,2,9.73,2.54,5.48.47,6.52.91,7.84,1.46.31.13.63.26,1,.4,1.18.43,4.23,4.08,6.25,6.49,2.21,2.65,2.58,3,2.87,3H39a.41.41,0,0,0,.32-.27c.12-.33-.19-.67-1.08-1.68a34.26,34.26,0,0,1-2.45-3c-1.7-2.42-1.59-4-1.43-6.41v-.17a24.3,24.3,0,0,0-1.3-10.41,10,10,0,0,1-.71-3.29c.2-1.18.44-2.15.44-2.16l.1-.39,0,.06c1,3.16,2.1,6.65,3.19,10,1.8,5.58,3.67,11.36,5,16.07a79.72,79.72,0,0,0,3.74,10.61c.45,1.06.8,1.9,1,2.64l.63-.2c-.24-.77-.6-1.62-1.06-2.7a79.13,79.13,0,0,1-3.71-10.53c-1.32-4.73-3.18-10.51-5-16.1-1.09-3.37-2.21-6.86-3.19-10l-.34-1.12,0-.14-.05.08c-1.17-3.87-1.85-6.45-2.35-8.38a37.43,37.43,0,0,0-1.13-3.86c-.19-.48-.34-.89-.47-1.24a12.17,12.17,0,0,0-1.14-2.48l-2.26-3.88a30.59,30.59,0,0,0-5-6.16l-.23.25a4.31,4.31,0,0,0,0-.63,3.62,3.62,0,0,0,1.47.3h0A50.51,50.51,0,0,0,27,83.53l.27.28h0a6.63,6.63,0,0,1,2.12,3.9c.13,1,1.75,7.2,2.66,7.37a.41.41,0,0,0,.44-.23,3.2,3.2,0,0,0,.23-.85,39.65,39.65,0,0,0,.2,5.22c.5,5.1,3.2,11.69,4.81,15.62.25.6.46,1.13.64,1.58a31.47,31.47,0,0,1,1.18,4,65.16,65.16,0,0,0,3.27,10.07c1.28,3.11,2.21,6.11,2.89,8.31,1,3.12,1.25,4,1.81,4h0c.39,0,.54-.45.65-.91.41-1.8-.59-11.18-1.56-20.26-.58-5.44-1.13-10.58-1.3-13.39-.13-2.2-.18-4.71-.22-7.14-.11-5.8-.23-11.79-1.41-14.59-.92-2.17-1.23-2.94-1.34-3.21A20.07,20.07,0,0,0,44.18,82l1.12-.82c0,1.16,0,3.9.17,7.46l0,0h0c.08,1.88.21,4,.39,6.19.64,7.81,2.12,23.4,2.32,24.3,0,.15.12.51.44.51h0c.43,0,.47-.16,1.17-5,.26-1.82.64-4,1-6.24.34-1.92.67-3.87,1-5.79l.12.13c1-.9,7.57-2,9.73-2.34,4.26-.7,5.83-2.36,6.22-2.88a6.5,6.5,0,0,0,2.63-1.06c1.49-.91,2.72-1.74,3-2,.39,0,1.6-.28,4-2.1l1.22-.92c2.13-1.58,3.82-2.83,5.11-5.78a5.21,5.21,0,0,0-.42-5.66,2.52,2.52,0,0,1-.15-.23c-.13-.26.18-.81.65-1.65ZM17,39.86v0l.2.1Zm-1.84,78.32,3.5.73A28.71,28.71,0,0,1,15.16,118.18Zm18.32-4.88a27.15,27.15,0,0,1,.25,6.34v.17c0,.3,0,.58-.06.86l0-.72c-.09-1.88-.19-4.21-.14-5.91C33.49,113.79,33.49,113.54,33.48,113.3Zm-.09,10.36a.47.47,0,0,0,.33-.47s0-.09,0-.15a7.27,7.27,0,0,0,.71,2.21c-1.9-2.2-3.48-3.84-4.4-4.17-.38-.14-.69-.27-1-.39s-.67-.28-1.07-.42c1.52.39,1.57.28,1.68.07l.13-.24-.21-.17-.24-.3a31.18,31.18,0,0,0-7.53-7.26,80.61,80.61,0,0,1-12.67-10.1,32.65,32.65,0,0,0,4.77,4.1c1,.67,2,1.3,2.94,1.94,3.66,2.38,7.12,4.63,10.36,8.2a68.24,68.24,0,0,1,4.36,5.37C32.69,123.38,33,123.78,33.39,123.66ZM62.45,37.48a1.91,1.91,0,0,1,1.29.54.92.92,0,0,0,.64.29.41.41,0,0,0,.21,0h0a.85.85,0,0,0,.21.07.57.57,0,0,0,.22.15h0l-.8,1.21-.05.07-.06.08.07-.17,0,0h0l0-.07-.12-.05-.1-.13.08.13-.21-.32a.29.29,0,0,0-.05-.34.37.37,0,0,0-.52,0l-.23.15a.34.34,0,0,0-.08-.17c-.25-.27-.6,0-1.19.43.07-.17.08-.33-.12-.44s-.3-.13-.69.49c0-.19,0-.39.06-.53S61.47,37.51,62.45,37.48Zm5,2.69a.55.55,0,0,0,.17.29l-.64.42.38-.65-1,.55a3.22,3.22,0,0,0-.7.59.45.45,0,0,0-.08-.1,3.14,3.14,0,0,0,.11-.31,1.61,1.61,0,0,0,.06-.31l1.34-.93A.55.55,0,0,0,67.44,40.17Zm0,1h0Zm-5.15,3.14a4.87,4.87,0,0,1-.48,1,5.66,5.66,0,0,1,.22-.67ZM57.72,52l.13-.11a4.22,4.22,0,0,0,.05.42.42.42,0,0,0-.09.1C57.78,52.31,57.75,52.17,57.72,52Zm-2.84,5.86,0,0s0,0,0-.06h0Zm2.54-.2a.34.34,0,0,0-.13-.08l0-.07.11.12Zm5.13-15.09c-.19.36-.4.73-.62,1.08l0,0c.14-.34.3-.69.46-1A.44.44,0,0,0,62.55,42.61Zm-1.61,3.26.11-.08c0,.13,0,.25-.06.38s0,0-.08-.06a.36.36,0,0,0-.2,0l.17-.26ZM55.07,52l0,0h0L55,52Zm4,5.09L59,57c.66-1.25.48-1.52.4-1.63a.39.39,0,0,0-.08-.07l.05-.18a1.66,1.66,0,0,0,.3.25C59.48,55.87,59.26,56.5,59,57.05Zm2.51-14.25h0l.11-.16Zm-1.82,4.37.09-.09-.12.18,0,0Zm.5,14.72-.12,0,.08,0ZM60,54.38l-.11-.15-.31-.42v-.06a3.8,3.8,0,0,0,.47.48Zm4-.5,0,.07a.59.59,0,0,0-.28-.33l-.09,0H64l0,.28Zm-1.43-.38a2,2,0,0,1-.6-.11Zm1.58-8.21c.38-.49.78-1,1.09-1.34a.54.54,0,0,0,.07.1,6.82,6.82,0,0,1-.86,1h0l-.21.2Zm.67-4a1.45,1.45,0,0,0-.21.15,2.85,2.85,0,0,0,.09-.34,3.39,3.39,0,0,1,.37-.4A3.24,3.24,0,0,1,64.79,41.3ZM52.32,51.5a1.45,1.45,0,0,1,1.06-.17.83.83,0,0,0,.6-.08.38.38,0,0,0,.13-.11l.16,0h.1v.06a.45.45,0,0,0,0,.32.49.49,0,0,0,.06.12l0,.52h-.07L54.12,52l0-.22-.28-.09h-.32l-.12.27-.06.13s0,0-.09-.05c-.3-.08-.46.2-.64.68a.26.26,0,0,0-.28-.13c-.23,0-.3.06-.32.42L52,52.88A1.18,1.18,0,0,1,52.32,51.5Zm15.51-9.26a.85.85,0,0,0-.41.22,5.62,5.62,0,0,0,.44-1.34v-.27l-.22-.08h0l.09-.23.09.06c.19.1.24.27.28.28-.24.26,0,.56.08.69a.94.94,0,0,1,.11.17A2.46,2.46,0,0,0,67.83,42.23Zm-2.1-1.73a.55.55,0,0,0-.27-.52.61.61,0,0,0-.62.08l0-.06.41-1.42a.73.73,0,0,0,.65.31.68.68,0,0,0,.55.44.42.42,0,0,0,.15.2Zm-9.2,5.08c0,.26,0,.51,0,.76,0-.26-.07-.5-.08-.71l.09,0ZM52.57,58l.17.07h0c0,.1.07.3.13.54-.11-.21-.2-.42-.3-.63Zm8,2.1.07-.18a6.35,6.35,0,0,0,.67-.84C61.09,59.39,60.84,59.75,60.57,60.09Zm.47-5v-.24l-.27,0h0l0-.13c.14.07.28.14.42.2A.52.52,0,0,0,61,55.1Zm2.64-7.47h0l0-.25-.12-.07.18-.14.07.32.13,0Zm4.68-7.42-.09-.08.21,0Zm-.65-1v0l0,.18a.65.65,0,0,0-.06-.13Zm-.94-.58-.17,0a.57.57,0,0,0,.21-.08A.45.45,0,0,0,66.78,38.69Zm-3.67-1.8v0l0,0Zm-1.39-1.5c0,.25,0,.6,0,.85s0,.59,0,.77l-.08,0a6.41,6.41,0,0,1-.23-1.53A.35.35,0,0,0,61.72,35.39Zm-3.34,8.87a.63.63,0,0,0,.11.28,1.4,1.4,0,0,1,.18.25v0l-.08,0c-.07.2-.25.74-.43,1.35A17.44,17.44,0,0,1,58.38,44.26Zm-4.46,1.2,0,0h0Zm-.68,1,0,.06h0ZM50.8,50.58a.31.31,0,0,0,.1-.1l.28.48.17.29A4.86,4.86,0,0,1,50.8,50.58Zm.58,2.58.37.77h0l-.14,0L51.35,53ZM40.11,59.88a20.11,20.11,0,0,1,3.85-.7l1-.1a39.67,39.67,0,0,1,4.26-.24,3.39,3.39,0,0,0,.7,1.34h0a.43.43,0,0,0-.41.36.84.84,0,0,0,.3.61.4.4,0,0,0-.31.29c-.06.32.19.48,1.12,1.08l.21.11a.47.47,0,0,0-.29.23l-.07.26.12.16c.1.13.29.27.88.27h0a.45.45,0,0,0-.07.55.61.61,0,0,0,.55.25,2,2,0,0,0,.63-.12.42.42,0,0,0,.11.26.47.47,0,0,0,.35.14.93.93,0,0,0,.26-.05c-.22.25-.29.44-.22.62a.42.42,0,0,0,.42.26h.07a1.24,1.24,0,0,0,.65-.35,14.75,14.75,0,0,1,1.17,4.72,12.2,12.2,0,0,0-7.54-6.7,35.53,35.53,0,0,0-10.3-1.78A7.74,7.74,0,0,1,40.11,59.88Zm4.32,2.95c-.3,3.6-1,8.73-1.64,9.45-.38-.25-1.34-1.91-3.72-9.64l-.18-.59A37.42,37.42,0,0,1,44.43,62.83Zm-6-6.68-.48.24c-.51.25-1.14.57-1.8.94a11.63,11.63,0,0,0-3.88-5.13,6.58,6.58,0,0,1,2,1.7l.51-.42-.1-.12.14,0,.1-.13c.58-.76-2.55-10.58-2.94-11.77a3.56,3.56,0,0,0,.09-.57,3.9,3.9,0,0,0,1.13.63l-.09,0s1.19,5,2.37,9.69,1.35,5.2,1.36,5.22l.63-.2s-.18-.59-1.35-5.18L36,50.52a34.16,34.16,0,0,1,2.83,2.54,4,4,0,0,1,1.27,2.31C39.55,55.63,39,55.89,38.46,56.15ZM14.11,61.27a.45.45,0,0,0-.29,0,.42.42,0,0,0-.26.26.49.49,0,0,0-.22,0,.41.41,0,0,0-.33.28v0h-.11l-.09.09,0,0a2.23,2.23,0,0,0-.16-.23c.62-.7,1.51-1.78,2.72-3.44a15.58,15.58,0,0,1,3.29-3.38,8.07,8.07,0,0,0-2.11,4C16.47,59.7,15.41,60.55,14.11,61.27Zm6.71-7.66.06,0v0a8.76,8.76,0,0,1,4.8-2.1l1.39-.08c-2.16.58-4,2.15-5.64,3.58-.54.47-1.07.92-1.6,1.34-1.28,1-2,1.57-2.5,1.9A12.21,12.21,0,0,1,20.82,53.61ZM32,28a2.19,2.19,0,0,0,0,.58.6.6,0,0,0-.09.24,4.43,4.43,0,0,0-.53-1l-.2-.17-.18.09-.05-.11h0a.39.39,0,0,1,.31,0c.06.29.38.33.51.34S31.94,28,32,28ZM29,45.79a5.4,5.4,0,0,0,1.37-2.25.39.39,0,0,0,.25.08.65.65,0,0,0,.21,0,2.11,2.11,0,0,0,.91-1.12c.75,2.27,2.52,8.5,2.73,10.06A73.43,73.43,0,0,1,29,45.79Zm-.21-18a.62.62,0,0,0,.6-.08.43.43,0,0,0,.17,0l.07,1a.5.5,0,0,0-.46-.1.55.55,0,0,0-.31.4l-.62-1A.63.63,0,0,0,28.77,27.82Zm.65,1.79v0h0Zm.71,5.61.05,0v0l.1.13h0l-.09.07Zm1.17,3.59,0,0v0ZM30.07,33.6c0,.09.08.19.12.31l-.1-.2Zm1.61-1.34c0-.33-.08-.63-.11-.9h0A5.66,5.66,0,0,1,31.68,32.25Zm-2.48.53c-.06-.15-.11-.29-.17-.44l0,0C29.11,32.47,29.16,32.62,29.2,32.78ZM36.88,38l.12.14a.57.57,0,0,0-.25,0Zm-4-3.56-.13-.11-.08,0v-.11l.21.13Zm-2.45-6.77-.29,1a2.78,2.78,0,0,0-.06.77h0c0-.09-.08-.17-.12-.24a1.42,1.42,0,0,0-.15-.22L30,27.63A.51.51,0,0,0,30.44,27.66Zm.2.48-.14-.49a.52.52,0,0,0,.22.05Zm6.82,6.45a17.75,17.75,0,0,1-.72,1.75,2.84,2.84,0,0,0,.08-.47,6.86,6.86,0,0,0,.53-1.16,12,12,0,0,0,.38-1.34H38A3.62,3.62,0,0,0,37.47,34.59Zm-3-1.24a.32.32,0,0,0-.13-.11c.37-1.5.11-1.73,0-1.83l-.06,0a.91.91,0,0,1,.38.11C34.59,32.06,34.52,32.75,34.44,33.35ZM27.69,24l0,.09-.13,0-.15.1,0,0a2.07,2.07,0,0,0-.19-.46l.56.28Zm.22,4.2,0,.08-.07-.07Zm-.1,7.77a1.27,1.27,0,0,1,.25,0l0,0c.07.13.23.44.43.8-.26-.29-.5-.59-.73-.89Zm-.52,1.91.09.09-.09-.08Zm-5.83-.19,0,.71a1.81,1.81,0,0,0,.07.37l-.13-.09-.16-.95A.46.46,0,0,0,21.46,37.67Zm-.38.84a.44.44,0,0,0-.29.09.43.43,0,0,0-.17.27l-.52-.44a.55.55,0,0,0,.26-.26.54.54,0,0,0,.42-.21l.05,0Zm-2.57,1.36a1.21,1.21,0,0,1,.66-.6.76.76,0,0,0,.41-.34.34.34,0,0,0,.06-.17l.07-.07.11-.05.41.71h0l-.12,0h.1l-.14,0-.1-.23-.28.08-.27.15,0,.29v.07h-.05c-.28.09-.27.37-.19.77a.28.28,0,0,0-.23.05.26.26,0,0,0-.11.37A1,1,0,0,1,18.51,39.86Zm3.28,4.57,0,0,0,0Zm5.76,2.77a2.41,2.41,0,0,0,1.37-.4c1.34,1.78,2.79,3.64,3.91,4.93a7.54,7.54,0,0,0-2.68-.88l-.92-1.5a9.83,9.83,0,0,0-1.71-2.14ZM44.66,54a18.92,18.92,0,0,0-3.88,1.11,4.78,4.78,0,0,0-1.43-2.51,36.06,36.06,0,0,0-3.41-3l-.09.12c-.89-3.56-1.71-7-2-8a5.67,5.67,0,0,0,1.12.15c.51,0,.66-.16.71-.32a.42.42,0,0,0-.27-.51,2.51,2.51,0,0,0-.66-.12h0a2.89,2.89,0,0,0,.63-.09c1.81-.5,3.6-2.51,3.58-3.35a.42.42,0,0,0-.1-.28,2,2,0,0,0,.26-.49c.33-1,.38-1.33.06-1.46h-.08c.14-.68.11-.93-.16-1a.34.34,0,0,0-.39.13c.25-.58.3-.76.12-.94l-.08-.06a3.51,3.51,0,0,0,.68-.32c.54-.32.85-.46,1.32-.09,1,.75,3.45,5.48,3.5,7.25.06,2.18.33,3.26.87,3.59l.11.06c0,.12,0,.3,0,.55.07,1.05-.34,8.74-.56,9.45l.57.17ZM57.51,25.12a9,9,0,0,0-5.12-2h0c.68-.42,2.22-1.13,3-1.47a5,5,0,0,1,4-.34,3.55,3.55,0,0,1,1.86,2.39,6.21,6.21,0,0,1-.88,5.49,1.58,1.58,0,0,0-.13.21s-.11,0-.4-.17a1.68,1.68,0,0,0-1-.21,9.41,9.41,0,0,1-2.88-.49c-.86-.26-1.49-.52-2.06-.74A10.17,10.17,0,0,0,50,26.86a5.19,5.19,0,0,1-2.88-1.27A4.8,4.8,0,0,0,46,24.92a7.14,7.14,0,0,1,1.6-.79,7.66,7.66,0,0,1,4.16-.46h0a2.3,2.3,0,0,0,.61.11,8.38,8.38,0,0,1,4.78,1.87c2.59,2,2.62,3.29,2.62,3.3l.66,0C60.39,28.81,60.37,27.37,57.51,25.12Zm-14.25-.37-.05-.19-.25.07-.35-.09-.11,0,.3,0a2.87,2.87,0,0,0,.41,0A6.22,6.22,0,0,0,47.08,22a6.82,6.82,0,0,1-.14,1.7,4.4,4.4,0,0,0-2.06,1.38,1.42,1.42,0,0,0-.19.14,1.14,1.14,0,0,0-.33.87c0,1.14,1.47,2.67,2.25,3.41-.09,3.21-.24,6.62-.41,8.39-.06-.37-.13-.79-.2-1.2a65.53,65.53,0,0,0-1.39-6.9l-1.19-4.42,0-.06A.42.42,0,0,0,43.26,24.75ZM47,5.57a.92.92,0,0,0,.71,0,.4.4,0,0,0,.14-.1l0,0a.86.86,0,0,0,.22,0,.52.52,0,0,0,.29.06l-.21,1.42,0,.1v.08c0-.06,0-.12,0-.18v0h0V6.78h-.13l-.15-.08.13.08-.33-.2a.29.29,0,0,0-.19-.29c-.27-.12-.42.13-.47.22l-.14.22a.34.34,0,0,0-.15-.12c-.34-.14-.55.23-.9.9,0-.19-.07-.33-.29-.35s-.32,0-.42.73L45,7.39a1.57,1.57,0,0,1,.66-1.76A1.88,1.88,0,0,1,47,5.57Zm4.26.38a.58.58,0,0,0,.28.18l-.41.66L51.24,6l-.7.94a3.2,3.2,0,0,0-.39.83L50,7.74a3.15,3.15,0,0,0,0-.33,1.61,1.61,0,0,0-.08-.31l.82-1.41A.57.57,0,0,0,51.29,5.94Zm-11.37,4.8-.42,1a2.83,2.83,0,0,0-.15.77h0c0-.1-.06-.19-.09-.26a1.41,1.41,0,0,0-.13-.23l.39-1.32A.5.5,0,0,0,39.92,10.74Zm.68,3.85a5.73,5.73,0,0,1,0,1c0-.36,0-.69,0-1Zm10-3v0c0,.06-.07.16-.11.28l0,.08c.14-.6.29-1.21.41-1.67l.1.05A6.81,6.81,0,0,1,50.61,11.61Zm-2.79,2.26.07-.12c0,.13.07.25.1.37s-.06,0-.1,0a.35.35,0,0,0-.18.08c0-.1,0-.2,0-.3Zm-.19,4.27,0,0a.39.39,0,0,0,0,.15.81.81,0,0,0-.12-.15l.13-.06ZM38.89,17c0-.1-.07-.18-.09-.27v-.13C38.82,16.74,38.86,16.87,38.89,17Zm9.51-5.2a4.87,4.87,0,0,1,0,1.15,5.65,5.65,0,0,1-.08-.7Q48.36,12.06,48.4,11.83Zm-9.75,6.46h.06v-.05l.09.15h0l-.1.06C38.66,18.39,38.65,18.34,38.65,18.29ZM39.37,22v0h0Zm8-6.58,0,.22v-.09ZM44.91,22l.16-.12,0,0L45,22Zm3-11.79c0,.41-.06.83-.11,1.24l0,0c0-.37,0-.75,0-1.13A.43.43,0,0,0,47.9,10.23Zm-.81.59h0l0-.2C47.08,10.7,47.08,10.76,47.08,10.82Zm-9.14,4.4c0,.18.07.37.1.56,0-.18-.09-.35-.13-.52ZM52.51,20.1a2.05,2.05,0,0,1-.53.14Zm-3.14-12a1.39,1.39,0,0,0-.13.22A2.78,2.78,0,0,0,49.19,8a3.31,3.31,0,0,1,.16-.51A3.23,3.23,0,0,1,49.37,8.08ZM38.71,13l-.08-.16c0-.11,0-.22,0-.31a3.34,3.34,0,0,1,.1.39Zm9,7.78a4.39,4.39,0,0,0,.76.92c-.08.45-.19,1.09-.22,1.49l-.56.18A12.54,12.54,0,0,0,47.69,20.82ZM49,22.21h0a6.22,6.22,0,0,0,1.28.7,8.83,8.83,0,0,0-1.41.16C48.94,22.83,49,22.52,49,22.21ZM54,19.91a.59.59,0,0,0-.4-.18l-.12,0,.38-.17.1.26h0ZM51.06,14.3h0l-.13-.22h-.14l.1-.2.2.26.11-.07Zm-.78-8.6L49.88,7a.55.55,0,0,0-.46-.36.62.62,0,0,0-.53.33V6.88l-.23-1.46a.7.7,0,0,0,.72,0,.68.68,0,0,0,.68.17A.42.42,0,0,0,50.27,5.7Zm-1-.58L49.12,5l0,0ZM45,13.69a1.38,1.38,0,0,1,.27.15l0,0h-.08l0,.3a.48.48,0,0,0-.15.31c-.12-.34-.22-.67-.32-1A.63.63,0,0,0,45,13.69Zm-5-2.43L40,10.74a.53.53,0,0,0,.22.08Zm-1.11.52a.51.51,0,0,0-.45-.16.53.53,0,0,0-.37.34l-.48-1.12a.63.63,0,0,0,.58-.15.62.62,0,0,0,.62,0,.43.43,0,0,0,.17,0Zm-2.71,6.93a1.25,1.25,0,0,1,.25.07l0,0c.05.14.18.48.34.88-.23-.34-.45-.68-.65-1Zm-.65,2-.12-.13v0ZM49,21l0,0ZM52.52,7.64a.84.84,0,0,0-.28.37,5.62,5.62,0,0,0-.17-1.4L52,6.38l-.23,0h0V6.15l.1,0a1,1,0,0,1,.38.14c-.11.34.22.52.37.59a1,1,0,0,1,.17.1A2.45,2.45,0,0,0,52.52,7.64Zm-.31-2.2s0,.09-.06.14l-.11,0Zm-1-.42,0,.18-.11-.09L51.16,5ZM50,4.74a.45.45,0,0,0,0,.13l-.16,0A.67.67,0,0,0,50,4.74ZM46,4.84h-.05l0,0Zm-2.15-.55A.36.36,0,0,0,44.08,4c.11.23.25.55.34.77s.24.55.32.7l-.06.06A6.41,6.41,0,0,1,43.83,4.29Zm-2.45,7a2.22,2.22,0,0,0,0,.58.63.63,0,0,0-.12.24,4.5,4.5,0,0,0-.41-1.05l-.17-.2-.19.07,0-.13h.05a.39.39,0,0,1,.31.06c0,.29.34.37.47.4S41.37,11.32,41.38,11.3Zm-8.12-.44a.33.33,0,0,0,.13-.19l.4.52c.18.24.31.4.41.52h0A6,6,0,0,1,33.26,10.86Zm1.8.79a1.63,1.63,0,0,1,1.16-.34.92.92,0,0,0,.63-.16A.38.38,0,0,0,37,11a.79.79,0,0,0,.18-.07h.16l.16,1.13-.11,0-.3-.09a.29.29,0,0,0-.25-.25c-.19,0-.33.07-.4.31l-.06.19a.33.33,0,0,0-.13-.06c-.33,0-.45.29-.6.88a.27.27,0,0,0-.32-.16c-.25,0-.3.11-.25.6l-.17-.27A1.34,1.34,0,0,1,35.07,11.65Zm-8,7.13c.29-.39.92-.3,1.65-.14.46.1.8.17,1,0a1.91,1.91,0,0,0,.27-.25,1.48,1.48,0,0,1,1.5-.49,5.37,5.37,0,0,1,1.39.29l0,0a3.75,3.75,0,0,0,.9,1.22l.34.47-.06,0,0,.2a1.38,1.38,0,0,0,.32.74,6.06,6.06,0,0,1-.94-1.39l-.09-.2h-.22a.53.53,0,0,0-.53.37c-.15.46.27,1.21,1,1.95a.29.29,0,0,0-.12,0,.44.44,0,0,0-.38.41c0,.2.18.42.46.64h0a.4.4,0,0,0-.32.35c0,.33.24.46,1.35,1a3.5,3.5,0,0,0,.34.11.51.51,0,0,0-.36.31.41.41,0,0,0,.1.41c.06.06.18.19.62.19a3.4,3.4,0,0,0,.47,0,.48.48,0,0,0-.06.64.58.58,0,0,0,.47.19,2.05,2.05,0,0,0,.84-.24.43.43,0,0,0,.16.3.47.47,0,0,0,.3.1,1,1,0,0,0,.46-.15c-.27.35-.34.58-.23.78a.42.42,0,0,0,.39.21l.15,0c.53-.11,1.13-1,1.39-1.65a4.5,4.5,0,0,0,.28-.87,4,4,0,0,0,1.53,1,5.41,5.41,0,0,0,1.31.34L44,29.94a64.91,64.91,0,0,1,1.37,6.84c.34,2.12.43,2.63.78,2.78l.33,0c.17-.11.53-.35.8-9.84l.24-.28-.23-.21v-.07h-.08C46.39,28.38,45,26.92,45,26a.47.47,0,0,1,.14-.38c.34-.34.62-.21,1.53.46a5.82,5.82,0,0,0,3.25,1.4,11.21,11.21,0,0,1,1.37.14,3.36,3.36,0,0,1-1.22.88c-1.26.55-1.44,1.61-1.66,3.44l.17,0c-.32,2-1,6.32-1.72,11.46A55.85,55.85,0,0,0,46.22,54a5.14,5.14,0,0,0-1.09-.06,92.22,92.22,0,0,0,.58-9.66,3.68,3.68,0,0,1,0-.65v-.4l-.33,0a.28.28,0,0,1-.11,0c-.14-.09-.48-.55-.55-3-.05-1.87-2.57-6.81-3.75-7.75a1.62,1.62,0,0,0-2.06,0,1.82,1.82,0,0,1-.83.32h-.24c0-.39,0-.71-.22-.81l-.1,0-.15-.25-.18,0a.38.38,0,0,0-.43-.24h0a2.26,2.26,0,0,0,0-.88.36.36,0,0,0-.42-.25c-.26.06-.28.27-.28.51l0,0-.1-.32-.27,0-.06,0c0-1-.1-1.1-.36-1.14-.07,0-.32,0-.41.33a9.3,9.3,0,0,0-.1,1v.12a1.67,1.67,0,0,0-.5-.08c-.09-1.35-.22-1.61-.54-1.63a.37.37,0,0,0-.33.18,1.48,1.48,0,0,0-.24-.79l-.17-.22-.24.12,0,0a1.47,1.47,0,0,1,0-.35c0-.4-.21-.63-.72-.69h0a.65.65,0,0,0-.19-.2,2.65,2.65,0,0,1,.55-1.4l.06-.08a27.15,27.15,0,0,1,9.18,6.49c2,2.31,2.34,3.4,2.39,3.72l.65-.14c-.08-.52-.51-1.73-2.54-4A27.85,27.85,0,0,0,32.45,25a.56.56,0,0,0-.21-.2l-.07,0-.07,0A5.32,5.32,0,0,0,31.85,23a15.73,15.73,0,0,0-2.06-3.78l-.56.34s.23.46.77,1.68c.32.73.71,1.77,1,2.58a.4.4,0,0,0-.4-.06l-.17-.07-.15.08c-.06,0-.13.07-.21.27a.4.4,0,0,0-.19-.26.42.42,0,0,0-.19-.05,21,21,0,0,0-2.12-3.4c-.3-.52-.45-.71-.6-.79l-.48-.25A2.06,2.06,0,0,0,27,18.78ZM24.4,20.07a9.57,9.57,0,0,0,1.77-.62l.38.54.47.68c.21.37.47.84.68,1.23.45.82.75,1.37,1,1.73h0a12.12,12.12,0,0,1-4.79-3.41l-.31.23a.34.34,0,0,1,0-.12A4.87,4.87,0,0,1,24.4,20.07Zm-.69,1a12.57,12.57,0,0,0,3,2.34l-.07,0c-.23.09-.31.31-.26.81l-.26.15,0-.1-.21,0-.28,0,0,0a3.86,3.86,0,0,0-.35-.57A12,12,0,0,1,23.72,21.09ZM24,28.4l.46.47c.2.2.35.35.46.46h0a5.94,5.94,0,0,1-1-.73A.33.33,0,0,0,24,28.4Zm1.76.75a1.61,1.61,0,0,1,1.1-.47,1.39,1.39,0,0,0,.42-.1c.25.27.49.51.72.73H28l-.16,0a.29.29,0,0,0-.29-.22c-.2,0-.32.11-.36.36l0,.19a.33.33,0,0,0-.13,0h0c-.33,0-.4.34-.47.93a.28.28,0,0,0-.34-.11c-.24.07-.28.14-.18.62l-.19-.23A1.32,1.32,0,0,1,25.79,29.14Zm-.35,9.76,0,.15a.49.49,0,0,0-.2.14c0-.08,0-.16-.07-.24L25,38.54A5.32,5.32,0,0,0,25.44,38.91Zm-2.78-1.36h0a1.81,1.81,0,0,0,.15.34h0l-.33-.32Zm-3.54,4.32,0,0-.16-.14ZM6.34,58.1C3.8,56.67.79,54.39.67,52.7c0-.34,0-.57.13-.66s.89.06,1.33.22c.21.08.41.15.58.19.65.17,1-.54,1.38-1.17s.63-1.09.92-1c1.29.45,2.06,0,3.16-.84a15.56,15.56,0,0,1,2.5-1.29,44.89,44.89,0,0,0,4.24-2.13c2.23-1.3,3.52-1.31,4-1.26l.08.18c.13.32.58.54,1.22.77l.31.17h0l.07.18,0,.05a4.39,4.39,0,0,1-.57-.38l-.17-.14-.19.1a.49.49,0,0,0-.28.51.91.91,0,0,0,.38.54A10.56,10.56,0,0,0,15,50a13.77,13.77,0,0,0-3.12,5.65c-.1.32-.23.71-.4,1.13a9.31,9.31,0,0,1-2.08-.14v0c-.42-.1-1.33-2.47-1.95-5.07l-.64.15a20.85,20.85,0,0,0,1.61,4.71,13.77,13.77,0,0,1-6-3.82L1.89,53c.16.19,3.79,4.45,9.14,4.45h.17l-.29.73-.38,1A7,7,0,0,1,6.34,58.1Zm3.9,4.75h-.06c-.23-.45.8-3,1.36-4.44.39-1,.77-1.91,1-2.59a13,13,0,0,1,3-5.43,10.15,10.15,0,0,1,4.66-3.06L20.07,47a4,4,0,0,0,.58.26.41.41,0,0,0-.1.46A.71.71,0,0,0,21,48l-.13.15.08.21c.1.26.32.29,1,.29h.42a.43.43,0,0,0,0,.25l.08.24.18.07a.47.47,0,0,0,.16,0,1.24,1.24,0,0,0,.58-.22.43.43,0,0,0,.24.39.45.45,0,0,0,.19,0,1.1,1.1,0,0,0,.74-.48.4.4,0,0,0,.2.12h.09a.5.5,0,0,0,.32-.14.47.47,0,0,0,.18.44.39.39,0,0,0,.22.07.49.49,0,0,0,.31-.12,2.37,2.37,0,0,0,.44-1.69,4,4,0,0,0-.07-.59,3.14,3.14,0,0,0,.63.13l-.13.2a7.79,7.79,0,0,1,1.94,2.29l.65,1.07a23.8,23.8,0,0,0-3.7,0A9.47,9.47,0,0,0,20.51,53a13.5,13.5,0,0,0-5.73,4.86C12,61.64,11,62.36,11,62.36l.14.22C10.8,62.69,10.49,62.79,10.23,62.85ZM27.59,80.78a31.7,31.7,0,0,1-.8-4.68h-.14l.12-.27a4.29,4.29,0,0,0,.27-.91,4,4,0,0,0,.84.64h0c0,.24.2,6,.81,7.65A6,6,0,0,1,29,84.86a11,11,0,0,0-1-1.3A8.81,8.81,0,0,0,27.59,80.78ZM14.83,65a.6.6,0,0,0,.51-.2.39.39,0,0,0,.12,0l.26.81a.47.47,0,0,0-.39,0,.49.49,0,0,0-.2.37l-.68-.69A.6.6,0,0,0,14.83,65Zm17.51,7.71a.57.57,0,0,0-.3,0l.17-.14ZM15.86,66.54l0,.06,0,0Zm11.7-1.43a6,6,0,0,1,0,1.1c0-.4,0-.79,0-1.11ZM17.68,71.2l0,0h0l0,0Zm8.07-3.88v-.17a4.49,4.49,0,0,1,.14.53C25.82,67.54,25.78,67.43,25.74,67.32Zm-2,3v0l0-.06,0-.06ZM25.8,69h0l-.11.07c0-.06,0-.12,0-.18h.06l0-.06Zm.63,3.69h0v0l0,0Zm-1.55-6.91c0,.22.09.45.12.68-.06-.21-.12-.42-.17-.62Zm.74-2.21a2.05,2.05,0,0,0-.09-.18,3.45,3.45,0,0,1,0-.35,3.35,3.35,0,0,1,.11.42S25.63,63.54,25.62,63.58Zm-5.79,6.24h-.14v-.07l.15,0Zm-3.34-5.14-.13-.23h.12Zm15.89,8h0ZM27,61.77l-.09-.58a.53.53,0,0,0,.24.09Zm-.14-.57-.41,1a2.9,2.9,0,0,0-.15.79h-.06c0-.09-.06-.19-.09-.26a1.47,1.47,0,0,0-.13-.24l.38-1.36A.51.51,0,0,0,26.82,61.2Zm-1.11,0a.44.44,0,0,0,.18,0l-.05,1.11a.51.51,0,0,0-.46-.17.54.54,0,0,0-.38.36l-.5-1.15a.64.64,0,0,0,.58-.17A.63.63,0,0,0,25.71,61.16ZM17,64.3h0l0,0Zm-.19.08,0,0h0l.1,0Zm-.56.11,0,.89a2.34,2.34,0,0,0,.09.62l-.11-.14a1.3,1.3,0,0,0-.17-.15l-.09-1.17A.49.49,0,0,0,16.21,64.49Zm-3.7,2.27a1.43,1.43,0,0,1,.85-.64.83.83,0,0,0,.48-.34.37.37,0,0,0,.07-.17.68.68,0,0,0,.12-.1.49.49,0,0,0,.18-.08l.42.9-.06,0-.22,0-.07-.21-.29.06-.28.14,0,.29v.14a.32.32,0,0,0-.1,0c-.31.07-.31.39-.25.89a.27.27,0,0,0-.3,0c-.2.11-.23.2-.09.51l-.12-.09A1.17,1.17,0,0,1,12.52,66.75Zm3.22,5.55.18,0,0,0,.34.39-.51-.38Zm12.82-3.87-.13-.13-.09,0,0-.13.22.18Zm-.26-6.08a.66.66,0,0,0-.13.27,4.69,4.69,0,0,0-.44-1.09l-.18-.19-.2.07,0-.15h.16c.12,0,.21,0,.22,0,0,.35.34.43.48.47s.14,0,.15,0A2.26,2.26,0,0,0,28.3,62.35Zm-.8-1.72h0Zm-1-.17h0Zm-1,0h0ZM21,62.3a6.09,6.09,0,0,1-1-.88.33.33,0,0,0,.14-.21l.43.54c.19.25.32.41.43.52Zm.87-.1a1.67,1.67,0,0,1,1.18-.36.91.91,0,0,0,.63-.17.38.38,0,0,0,.12-.15.8.8,0,0,0,.18-.07.49.49,0,0,0,.24,0l.13,1.16-.12,0-.32-.09a.29.29,0,0,0-.26-.24c-.19,0-.33.08-.4.32l-.06.2a.33.33,0,0,0-.14-.06c-.35,0-.45.3-.59.92a.28.28,0,0,0-.33-.17c-.26,0-.3.1-.24.64l-.19-.29A1.38,1.38,0,0,1,21.88,62.19Zm-4.13,2.86a5.7,5.7,0,0,0-.51-.57.91.91,0,0,0,.29,0h.09a2,2,0,0,0,.15.45A.43.43,0,0,0,17.75,65.06Zm-7,1.59a.31.31,0,0,0,0-.13l.46.28.25.16A4.65,4.65,0,0,1,10.77,66.65Zm1.69,2h0l.68.49h0l-.11.09Zm10.66,7.9.12,0a2.07,2.07,0,0,0,.87-.27.43.43,0,0,0,.17.31.47.47,0,0,0,.29.1,1,1,0,0,0,.5-.18c-.29.37-.35.61-.24.82a.42.42,0,0,0,.38.21l.16,0a1.68,1.68,0,0,0,.82-.69A31.19,31.19,0,0,0,27,81a9.44,9.44,0,0,1,.34,1.9A58.62,58.62,0,0,1,23.12,76.53Zm8.93,17.61a31.94,31.94,0,0,1-2-6.5A6.2,6.2,0,0,0,29.62,86a6.38,6.38,0,0,0-.34-3c-.49-1.38-.71-5.86-.76-7.11l.08,0a4.91,4.91,0,0,0,1.48.34c.41,0,.49-.17.53-.26a.42.42,0,0,0-.22-.54,2.6,2.6,0,0,0-.65-.2l-.19,0,.34,0a2.92,2.92,0,0,0,.46,0c1.9-.31,4-2.15,4-3a.43.43,0,0,0-.07-.29,2,2,0,0,0,.32-.47c.45-1,.54-1.31.23-1.48a.29.29,0,0,0-.09,0c.22-.68.22-.94,0-1.06a.37.37,0,0,0-.47.16c.37-.63.45-.81.28-1a.41.41,0,0,0-.48-.12c-.25.07-.41.35-.84,1.24a17.51,17.51,0,0,1-1,1.77,3,3,0,0,0,.15-.54,7.05,7.05,0,0,0,.67-1.12c.2-.41,1.15-2.47.58-2.83l-.1,0-.12-.27h-.18a.38.38,0,0,0-.4-.3l0,0a2.35,2.35,0,0,0,.09-.91c-.09-.28-.28-.31-.39-.3-.27,0-.31.26-.34.51l0-.06-.06-.33h-.29l-.06,0c.1-1,0-1.15-.23-1.21-.07,0-.32-.05-.45.29,0,.09-.08.33-.21,1s-.35,1.79-.58,2.73a.31.31,0,0,0-.15-.15c.36-1,.44-1.62.23-1.86a.43.43,0,0,0-.12-.08,3.44,3.44,0,0,0,.07-.49c.08-1.52,0-1.82-.35-1.87a.37.37,0,0,0-.37.16,1.53,1.53,0,0,0-.15-.86h0l-.15-.23-.25.1-.06,0a1.56,1.56,0,0,1,0-.38c.08-.4-.14-.66-.65-.78h0a.66.66,0,0,0-.17-.23,2.73,2.73,0,0,1,.73-1.38l.14-.17a.63.63,0,0,0,.18-.48.46.46,0,0,0-.23-.32l-.07-.06-.14-.11-.15,0c-.15,0-.29.11-.49.36v0l.2-.45c.11-.27.21-.5,0-.67L28,57.48l-.1.06h0a.35.35,0,0,0-.06-.17.4.4,0,0,0-.44-.14l-.16-.09-.15.06c-.06,0-.14.05-.26.28a.41.41,0,0,0-.16-.31.58.58,0,0,0-.69.07l-.07.07a.51.51,0,0,0-.46-.39.42.42,0,0,0-.37.2.53.53,0,0,0-.25-.12.42.42,0,0,0-.42.16l-.05.09-.14-.07-.16.08,0,0c-.08-.46-.17-.63-.3-.72l-.17-.1-.15,0c-.25.07-.34.28-.35.8l-.3.13,0-.11-.42-.1-.14.16,0,0a.33.33,0,0,0-.17,0c-.13,0-.3.05-.36.34a.69.69,0,0,0,0,.1c-.09.1-.12.2-.07.58l-.12,0-.11.19-.25,0-.11.14a.71.71,0,0,0-.08.6,1.05,1.05,0,0,0-.47.2l-.15.12,0,.14a.47.47,0,0,0,0,.19L20,60l-.2.07-.06.17a.37.37,0,0,0,0,.18.71.71,0,0,0-.25.6,1.1,1.1,0,0,0-.13.19c-.11.18-.33.56,1.47,1.84a2.27,2.27,0,0,0,.3,1.19l.53.8,0,0-.06,0-.19.08-.6-1.42.1,1.16a.4.4,0,0,0-.16,0,.37.37,0,0,0-.32.41,8.35,8.35,0,0,0,.13.89c.05.34.14.89.22,1.47h0c-.09-.64-.27-.73-.35-.78l-.11,0a3,3,0,0,0-.08-.4c-.38-1.23-.57-1.53-.91-1.47a.37.37,0,0,0-.24.19,1.31,1.31,0,0,0-.36-.6l-.22-.17-.2.18h0a1.26,1.26,0,0,1-.07-.25c-.06-.37-.33-.53-.8-.48a.64.64,0,0,0-.19-.12,2.38,2.38,0,0,1,.18-1.32l.07-.18a.58.58,0,0,0,0-.48.54.54,0,0,0-.38-.23L17,61.45l-.13.06a.5.5,0,0,0-.23.25v-.21c0-.25,0-.5-.23-.6a.33.33,0,0,0-.34.07.35.35,0,0,0-.09-.1l-.09,0a3.08,3.08,0,0,0,1.23-1.74c.31-.19,1.1-.75,3.11-2.32.54-.42,1.08-.88,1.63-1.36,2.36-2,4.8-4.14,8-3.56,3.6.64,5.46,5.06,5.74,5.77-1.53.93-3.07,2.18-3.52,3.75-.39,1.36-.24,2.5.39,3a1.06,1.06,0,0,0,1.17.16,8.66,8.66,0,0,0,1.49-1.23c.47-.43,1-.94,1.61-1.43v0s.55,0,1.42,0h0c0,.07.12.37.26.82,2.13,6.9,3.35,9.83,4.2,10.1l.17,0a.53.53,0,0,0,.33-.11C44.25,72,44.91,65,45.08,63l.95.25c-1.09,6.39-1.2,8.84-1.08,9.8a10.43,10.43,0,0,0-3.56.48l-.58.14c-1.28-4.4-3.16-10.91-3.21-11.36l-.66,0c0,.48,2.57,9.22,3.23,11.48l-.26.06c-2.44.52-4.91,1.22-6.42,2.79s-1.87,2.14-3.35,5.72,1.66,7.31,2.25,8A29.62,29.62,0,0,1,32.05,94.14Zm1-3.53.1,0c0,.11-.07.31-.13.63C33,91,33,90.77,33,90.61Zm1.57-3.24.18-.23-.1-.1,2.08-2,0-.13L39,83.08l0-.15h0a2.91,2.91,0,0,0,1.3-.52l-.29.24-1.1.93a26.76,26.76,0,0,0-3.79,3.59c-.33.41-.65.84-1,1.25l-.49.65a.91.91,0,0,0,0-.29.76.76,0,0,0-.1-.28l.09,0,.09,0Zm-.54-1.75a8.33,8.33,0,0,0,.39,1l.14.29,0,0A3.25,3.25,0,0,1,34.06,85.63Zm5.19-1.51a7.4,7.4,0,0,0-.51.72l-.18.27a10,10,0,0,1-3.13,3.23,9.88,9.88,0,0,0-.9.63l.13-.17c.3-.4.62-.83.94-1.24A26,26,0,0,1,39.26,84.12ZM46,121.67c.92,8.6,2,18.35,1.58,20,0,.09,0,.17-.06.22a30.11,30.11,0,0,1-1.14-3.33c-.68-2.21-1.62-5.23-2.91-8.37a64.52,64.52,0,0,1-3.24-10A31.79,31.79,0,0,0,39,116.18c-.18-.45-.4-1-.64-1.58-1.6-3.9-4.27-10.43-4.76-15.43-.11-1.07-.16-2-.19-2.91a5.39,5.39,0,0,1,2.46,1c0,.76.14.92.86.95l.54,0a3.15,3.15,0,0,1,2.19,2c.44,1.13.81,1.27,1.6,1.5s1.88.83,1.88,1.13a12.59,12.59,0,0,0,1.61,3.27l0,0c0,.74.06,1.46.1,2.15C44.86,111.08,45.41,116.22,46,121.67ZM43.11,86.75c1.13,2.67,1.25,8.6,1.36,14.34,0,1.25,0,2.52.08,3.76a8.41,8.41,0,0,1-1-2c0-1.07-2.34-1.74-2.37-1.75-.67-.19-.83-.23-1.17-1.1a3.74,3.74,0,0,0-2.74-2.43l-.58,0h-.22c0-.08,0-.19,0-.27,0-.86-1.89-1.41-3.13-1.68a20.74,20.74,0,0,1,.38-4.85h0a5.65,5.65,0,0,1,2-1.82,10.58,10.58,0,0,0,3.33-3.42l.18-.28a2.48,2.48,0,0,1,1.94-1.45,2.68,2.68,0,0,0,.56-.18C42,84.07,42.36,85,43.11,86.75Zm.67-5.25a15.37,15.37,0,0,1-2,1.36,2.44,2.44,0,0,1-.66.24,3.61,3.61,0,0,0-1.12.39l.42-.35a41,41,0,0,1,3.5-2.42c2.29-1.49,3.17-2.09,3.31-2.45a.42.42,0,0,0-.1-.51c-.34-.28-.7-.12-4.92,2.66a27.44,27.44,0,0,1-2.92,1.75,13.44,13.44,0,0,1,.08-2.69,10.4,10.4,0,0,1,1.26-3.65c.21-.4.29-.55.28-.71l0-.32-.27,0c-.58-.1-1.3,1.56-1.82,3a12,12,0,0,0-.53,5.07l-1.55,1.28a9,9,0,0,1-.24-2.57,13.08,13.08,0,0,1,1.44-5.41l.13-.22-.27-.36-.22.06a7.31,7.31,0,0,0-2,4.42A11.8,11.8,0,0,0,36,84.9l-1.12,1.05A21.1,21.1,0,0,1,34,82.37,6.55,6.55,0,0,1,34.64,78c.1-.19.15-.28.11-.41l-.07-.3-.3,0c-.43.06-1.49,1.79-1.34,5.35.12,2.79.61,4,.89,4.45l-.54.66c-.14-.06-.44-.27-.85-1a5.6,5.6,0,0,1-.45-2.51c0-.54,0-.79-.23-.93l-.2-.09-.16.08a.62.62,0,0,0-.29.39,5.12,5.12,0,0,0,.55,3.38,5.67,5.67,0,0,0,1.1,1.57c.13.13.16.16.17.21a2.25,2.25,0,0,1-.32.84c-.81-1-3.1-4.3-1.95-7.08,1.45-3.51,1.72-4,3.21-5.51S37.7,75,40,74.52c.53-.11,1-.24,1.5-.36a11.92,11.92,0,0,1,2.89-.5,4.68,4.68,0,0,1,.9.08,7.54,7.54,0,0,0,1.77.12c.59,0,.92,0,1.28.31a4.34,4.34,0,0,1,.68,1.13,4,4,0,0,0,1.28,1.77A22.6,22.6,0,0,1,47,79.32,24.7,24.7,0,0,0,43.78,81.5Zm3.57-1.59a25.09,25.09,0,0,0,3.9-2.73,3.47,3.47,0,0,0,2.13-1.91L54,73.79l-1.16,1.1s-.8.75-1.89,1.66c-.5,0-.87-.63-1.31-1.55a4.57,4.57,0,0,0-.82-1.33,2.16,2.16,0,0,0-1.74-.48,7,7,0,0,1-1.48-.09c-.24-.77.34-5.42,1.07-9.69l.94.31c5.31,1.88,7.7,5.93,7.68,8.91A21.49,21.49,0,0,1,55,76c-.2,1.25-.34,2.16.16,2.74a2.16,2.16,0,0,1,.26.33l-.09.12a2.33,2.33,0,0,0-.42.79c0,.08-.07.26-.12.5a13.11,13.11,0,0,0-3.71,3l-.25.37c-.65,1-.65,1-2.3,2.12l-.24.17a15,15,0,0,0-2.15,1.8c-.15-3.81-.14-6.54-.14-7.17A16.17,16.17,0,0,1,47.36,79.9Zm2.84,28.41c-.4,2.28-.78,4.43-1,6.26-.19,1.28-.35,2.42-.49,3.25-.44-3.9-1.57-15.94-2.15-23-.18-2.14-.3-4.16-.38-6a11.69,11.69,0,0,1,2.49-2.21l.24-.17c1.71-1.21,1.74-1.23,2.46-2.29l.25-.37a11.14,11.14,0,0,1,3-2.48c-.71,3.81-2.41,14.19-3,18.29C51.23,102.43,50.71,105.42,50.2,108.31ZM83.37,77.87c-.6,1.06-1,1.7-.67,2.28a3.08,3.08,0,0,0,.2.31c.51.73,1.57,2.25.36,5S80.49,89.4,78.35,91l-1.23.92c-2.57,2-3.63,2-3.63,2h-.12l-.1.07s-1.37.94-3.09,2a5.25,5.25,0,0,1-2.44,1h-.2l-.1.17s-1.25,2-5.87,2.72c-5.09.84-8,1.49-9.38,2.09l.13-.36c.38-1.12,1-2.81,2-3l.41-.08c1.49-.28,2.48-.47,3.08-1.19a6.8,6.8,0,0,0,.59-1c.76-1.46,2-3.9,3.86-4.29A8.11,8.11,0,0,0,66,89.77a10.42,10.42,0,0,1,2.13-1.54,10.25,10.25,0,0,0,3.31-2.53l.25-.27a5.47,5.47,0,0,0,.63-.94A9.82,9.82,0,0,1,75,81.32C76.9,80,77.2,79.78,77.2,79.78l-.29-.59c-.12.06-.79.51-2.31,1.59a10.38,10.38,0,0,0-2.85,3.36,5.39,5.39,0,0,1-.54.81l-.27.29a9.57,9.57,0,0,1-2.37,2,22,22,0,0,1,1.3-6.62,4.77,4.77,0,0,1,3.44-3l-.09-.65a5.41,5.41,0,0,0-4,3.4A23.23,23.23,0,0,0,67.9,87.6l-.06,0a11.11,11.11,0,0,0-2.27,1.63A9.22,9.22,0,0,1,63.08,91,21.58,21.58,0,0,1,64,85.81C65.28,80.93,68.17,80,68.2,80L68,79.33a6.83,6.83,0,0,0-3.49,3.32c0-.18,0-.38,0-.61a10.47,10.47,0,0,1,1-3.2l-.59-.3A11,11,0,0,0,63.91,82a8.1,8.1,0,0,0,0,2,14.28,14.28,0,0,0-.54,1.61,21.07,21.07,0,0,0-.91,5.54c-.1,0-.18.07-.28.09a4.48,4.48,0,0,0-2.38,1.59c-.06-.68-.14-2.06-.16-4.79a18.23,18.23,0,0,1,2.26-8.4c.11-.22.13-.25.14-.33l-.39,0-.25-.11-.08.17a18.89,18.89,0,0,0-2.33,8.71,34.68,34.68,0,0,0,.25,5.51,20.06,20.06,0,0,0-1.36,2.32,7.21,7.21,0,0,1-.51.91c-.45.54-1.34.71-2.7,1l-.41.08a3.07,3.07,0,0,0-2,2l0-.13c.72-5.29,3-18.65,3.23-19.55a1.66,1.66,0,0,1,.31-.59c.34-.44.3-.72-.2-1.29-.3-.35-.18-1.13,0-2.21a22.06,22.06,0,0,0,.34-3.45c0-.19,0-.39,0-.59h.24c-.06-4.55-1.17-6.91-1.48-7.48a4.31,4.31,0,0,0,.32-.48,4.61,4.61,0,0,0,.33-.7,3.67,3.67,0,0,0,1.24,1l.14.06A27.3,27.3,0,0,1,57,70.78c-.08,1.42-.14,2.85-.18,4.15a35.28,35.28,0,0,1-.33,4.77l.25.06-.23.08.18.63a8.57,8.57,0,0,0,3-1.88,7.58,7.58,0,0,1,5.63-1.76l.11,0c1.48.39,3.32.87,5.19-.35a8.55,8.55,0,0,1,7.15-.66c1.24.43,1.35.76,1.39.86.16.47.45.38,1.23.12l.19-.06a9.61,9.61,0,0,0,3-1.91l.41-.34,0,.18a3.45,3.45,0,0,1-.28,2.49Z"/></g></g></svg>