<svg xmlns="http://www.w3.org/2000/svg" viewBox="0 0 132.22 169.49"><defs><style>.cls-1{fill:#fff;}</style></defs><title>ליקריץ</title><g id="Layer_2" data-name="Layer 2"><g id="Expended"><path class="cls-1" d="M110.5,14.45A17.9,17.9,0,0,0,113.09,24l.56-.34a17.24,17.24,0,0,1-2.49-9.2Z"/><path class="cls-1" d="M87.11,130.95c-.65-.91-1.18-1.79-1.7-2.64a18.48,18.48,0,0,0-5.63-6.43c-3.64-2.53-16.23-10.3-25.63-4.05l.3.45h-.53c.05,3.6.57,8.81,2.77,13.2,1.9,3.79,5.44,5.48,9.2,7.26l1,.46,1.6.79c4,2,11.57,5.84,17.08,5.83a8.33,8.33,0,0,0,2.9-.46,5.62,5.62,0,0,0,.73-.35l.19.08.09-.22a5.27,5.27,0,0,0,2.11-2.55C93,138.86,90.1,135,88,132.15,87.68,131.72,87.38,131.32,87.11,130.95Zm.35,1.59c.45.61.95,1.27,1.42,2a8.56,8.56,0,0,0-2.39,0l-.86,0c-2.55-.08-5.73-.19-7-.15a11.38,11.38,0,0,0-2.52.31c-.53-.53-1-1-1.5-1.55a21.38,21.38,0,0,0,2.66,0c2.15-.13,6.48.16,8.8.32.81.06,1.21.08,1.42.08s.23,0,.29-.07l-.23-.28v-.3l-1.43-.09c-2.34-.16-6.68-.45-8.89-.32a21,21,0,0,1-2.65,0l.6-.18c.47-.13.73-.21.71-.52s-.23-.33-.44-.38h1.7l8.81.06v-.66l-8.81-.06c-3.49,0-4.17,0-4.52.19l-.3-.35-.91-1h0c.59-.08,1.69-.24,3.4-.39a96.34,96.34,0,0,1,10.4.21c.4.65.82,1.32,1.31,2C86.84,131.71,87.15,132.11,87.46,132.54Zm3.16,5c-1.79-.28-7.26-1.1-9.51-.88a8.62,8.62,0,0,1-2.29-.05l.09,0a64.24,64.24,0,0,1,7.58-1.47c1.3,0,2,.06,2.35,0h0c.26,0,.35-.07.38-.14A16.54,16.54,0,0,1,90.62,137.56Zm-14-2.39a12.26,12.26,0,0,1,2-.2c.84,0,2.53,0,4.31.06-1.63.32-3.19.7-4.19.94l-1,.22h0C77.39,135.85,77,135.51,76.67,135.17Zm-10.31.07a6.7,6.7,0,0,1,0-2.35,23.89,23.89,0,0,0,.17-3.27,13.89,13.89,0,0,0-.59-4.6l.22.18a8.92,8.92,0,0,1,2.15,5.65,17,17,0,0,1,.05,2.27,9,9,0,0,0,.37,3.11,13.34,13.34,0,0,0,2.12,4.22l-1.42-.71C69,139.43,66.68,137,66.37,135.24Zm-1.66-12,0,0-.11-.08.42.05a3,3,0,0,1,.48.12l-.13.1a2.16,2.16,0,0,0-.17.15l-.32-.23Zm-2.43-1.46h0l-.7-.34a13.5,13.5,0,0,1,4.33-1.58,35.86,35.86,0,0,1,7.42-.76,1.8,1.8,0,0,0,.36,0l0-.11c1,.47,2,1,3,1.63-.88,0-6.36-.31-9.35.42a17.43,17.43,0,0,0-4.14,1.26l-.87-.48ZM63.88,137q-.63-.32-1.23-.66a14.91,14.91,0,0,1-1.77-5.7,12.26,12.26,0,0,1,.34-3.16c.12-.54.25-1.15.38-2.07a5.28,5.28,0,0,0-.85-3.6c.35.15.7.32,1.07.5a9.94,9.94,0,0,1,1.31,2.81c.24,1.3.09,2.33-.31,5.06l-.17,1.18A8.4,8.4,0,0,0,63.88,137Zm-4.66-10c.07-.66.17-1.3.27-1.9a10.57,10.57,0,0,0,.2-3.61A4.91,4.91,0,0,1,61,125.35c-.12.9-.25,1.49-.37,2a12.94,12.94,0,0,0-.36,3.3,13.49,13.49,0,0,0,1.38,5.07,13.81,13.81,0,0,1-2.5-2A53.62,53.62,0,0,1,59.22,127ZM70,117.47c.83.28,1.7.63,2.6,1a35.69,35.69,0,0,0-6.81.75,12.42,12.42,0,0,0-4.89,1.91,18.9,18.9,0,0,0-2.05-.73c.73-.33,1.87-.84,3.5-1.42a28.13,28.13,0,0,1,7.46-1.35l.22,0Zm12.13,7.27a23.62,23.62,0,0,1,2.74,3.88,90.09,90.09,0,0,0-10-.18c-1.73.15-2.84.31-3.44.4h0a.61.61,0,0,0,0-.26.45.45,0,0,0-.38-.33,5,5,0,0,1-1-.42l-.06-.06c1.62-.38,10.43-1.58,12.7-1.44l0-.66a81.76,81.76,0,0,0-13.26,1.57q-.53-.54-1.11-1.08c.55-.15,1.58-.41,3.39-.8,1.22-.26,4-.58,10.27-.61ZM69.33,136.06a8.31,8.31,0,0,1-.35-2.92,17.93,17.93,0,0,0-.05-2.35,12.62,12.62,0,0,0-.95-4q.55.52,1.06,1a1.07,1.07,0,0,0,.45.46l.91,1-.1,0a21.3,21.3,0,0,1,1.16,4.84,38.84,38.84,0,0,0,.9,5.2c-.06.25-.12.58-.18,1l.52.08a7.81,7.81,0,0,0,.51,1.11l-1.57-.74.19-.16A13.69,13.69,0,0,1,69.33,136.06Zm3.94,2.63-.39-.22h-.06c-.3-1.32-.51-2.83-.7-4.35a23.26,23.26,0,0,0-.78-3.75l.51.58,1.15,1.3a11.3,11.3,0,0,0,.52,4.2c.58,1.77,1.92,5.08,2.44,6.32l-1.51-.64A13,13,0,0,0,73.27,138.69Zm.71-6.78a2.1,2.1,0,0,0-.29.14l-.26-.29.76.08Zm.16,4.34a10.81,10.81,0,0,1-.51-3.28c.85.93,1.76,1.89,2.8,2.88a12,12,0,0,0,1.2,4.2c.1.66.31,1.77.67,3.63-.55-.19-1.1-.4-1.65-.62l.11,0S74.85,138.43,74.14,136.25Zm7.31-12.16a57.23,57.23,0,0,0-10,.62c-2.4.51-3.45.81-3.82.92q-.82-.73-1.75-1.44a28.73,28.73,0,0,1,4-.92c3.31-.54,9.92,0,10,0l0-.45A16.06,16.06,0,0,1,81.45,124.09Zm-1.85-1.53a54.5,54.5,0,0,0-9.82.06,30.06,30.06,0,0,0-3.54.79.49.49,0,0,0,0-.16c-.09-.38-.59-.52-1.12-.62-.21,0-.49-.06-.77-.09.57-.18,1.53-.45,3.12-.84,3.09-.75,9.21-.4,9.27-.39l0-.6c.86.52,1.75,1.09,2.65,1.72ZM57.3,131.2c-2.13-4.26-2.64-9.33-2.7-12.86,1.69-1.11,6.5-3.45,14.12-1.25a27.39,27.39,0,0,0-6.64,1.3c-1.11.4-2,.76-2.69,1.06a10.88,10.88,0,0,1,3.21-1.63l-.21-.63a10.61,10.61,0,0,0-4.67,2.88l-.06.06h0c-.38-.08-.71-.14-1-.18a.41.41,0,0,0-.15-.21l-.18-.1-.17.12a.29.29,0,0,0-.08.11l-.49,0v.39h-.1a15.58,15.58,0,0,0,.3,1.54c.1.39.31.43.44.43s0,.19,0,.28c-.08,1.7-.52,2.07-.52,2.08l.19.27.17.28c.12-.07.72-.54.82-2.6a14.83,14.83,0,0,0,0-1.87h.08a5.36,5.36,0,0,1,.49,3.31c-.58,5-.53,5-.16,5.1l.39-.32-.22,0h.2c0-.21.17-2.32.44-4.66a6.55,6.55,0,0,0-.34-3.22c.35.08.72.18,1.13.3.5.72.28,2.19,0,3.88-.09.61-.2,1.26-.27,1.93a48.59,48.59,0,0,0-.15,6A10,10,0,0,1,57.3,131.2Zm8.89,7-1.32-.63.11-.1a7.92,7.92,0,0,1-1.67-5.93l.17-1.18c.4-2.74.57-3.87.31-5.28A7.79,7.79,0,0,0,63,123c.31.18.62.38.94.59l.53.38c1,.91,1.37,2.54,1.4,5.7a23,23,0,0,1-.16,3.19,7.3,7.3,0,0,0,0,2.54,8.69,8.69,0,0,0,2,3.54l-.54-.27ZM79,143.92c-.17-.86-.37-2-.53-2.86a1.89,1.89,0,0,0,.6.3c.32.09.47,0,.54-.15.19-.31-.09-.59-.76-1.28a6.05,6.05,0,0,1-.68-.77l-.32-.14a12.4,12.4,0,0,1-.67-2.46c.47.43,1,.86,1.49,1.3l1.4,1.14c-.37,1.63,2.51,5.2,2.85,5.61l.51-.42a21.91,21.91,0,0,1-2-2.83.37.37,0,0,0,.2,0c.22,0,.34-.22.41-.47l.36.53a24,24,0,0,0,1.6,2.18,7.09,7.09,0,0,0,1.69,1.54A21,21,0,0,1,79,143.92Zm6.07-2.71c-.29.13-.37.28-.38.42l-1.09-.76c.46.07,1,.14,1.77.22Zm-3.66-1.14.15.11a.52.52,0,0,0,0,.13Zm6.76,4.7a6.92,6.92,0,0,1-1.67.36v-.32s-.69-.07-2-1.6a21.15,21.15,0,0,1-1.36-1.83,43.49,43.49,0,0,0,5.22,3.29Zm2.74-2.67a4.59,4.59,0,0,1-1.79,2.2,35.35,35.35,0,0,1-3.66-2.14,11.59,11.59,0,0,0,1.57.08h.52v-.66c-.49,0-1,0-1.46,0l.29-.09c.47-.14.73-.22.7-.53s-.36-.35-.6-.38l-.41,0a30.93,30.93,0,0,1-3.24-.44,5.51,5.51,0,0,1,2.83-.2l.13-.65a5.75,5.75,0,0,0-3.77.49c-.91-.69-1.89-1.47-2.94-2.35l0,0a10,10,0,0,0,2.1,0c2.36-.21,8.58.75,9.72.94A5.36,5.36,0,0,1,90.94,142.1Z"/><path class="cls-1" d="M97.81,73.3a11.89,11.89,0,0,0,.72,1.2,18.12,18.12,0,0,0,2.55,1.14,14,14,0,0,1-.94-1.09A16.17,16.17,0,0,1,97.81,73.3Z"/><path class="cls-1" d="M102,60.23a21.94,21.94,0,0,1,3-.58,59.62,59.62,0,0,1-5.48,5.06,17.29,17.29,0,0,0-3,2.6c-1.16-.07-2-.13-2.43-.2a2.43,2.43,0,0,0,.06.51h.44c0,.07,0,.14,0,.21l1.44.11c0-.16,0-.33,0-.49h.5c0,.17,0,.34,0,.51l.78,0c0-.17-.07-.34-.09-.52l.5-.06c0,.2.07.41.1.61l.74,0A7.69,7.69,0,0,1,100,70.93a8.11,8.11,0,0,0,2.06,3.29l.11.12.27-.18.3-.13a.93.93,0,0,0-.22-.27,7.48,7.48,0,0,1-1.9-3,9.19,9.19,0,0,0-1.28-2.6l.91,0v0l.13,0,.47,0c.41.79,1.72,3.38,2.43,5.19A5.78,5.78,0,0,0,105.21,76,22.11,22.11,0,0,1,101.14,75l.3.34-.35.35A23.53,23.53,0,0,0,106,76.81a32.35,32.35,0,0,0,4.24.28c.55,0,1.11,0,1.66-.06a2,2,0,0,0,.66.13,1,1,0,0,0,.29,0l0-.13A32.45,32.45,0,0,0,129,71.41c1.38-1,3.69-2.64,3.16-4.76-.41-1.62-2.42-2.33-4-2.9-.34-.12-.66-.23-.94-.34l-1.43-.58a.49.49,0,0,0-.09-.31c-.1-.14-.26-.35-1.09-.15A63.66,63.66,0,0,0,117,59.91l-.05-.14-.18.08-1.2-.27-.09-.22-.32.14-.76-.15a33.49,33.49,0,0,0-5.86-.47l0-.08-.17.08a29.08,29.08,0,0,0-6.43.74l.36.3Zm-1.8,7.32h0Zm1.55,0a11.26,11.26,0,0,0,1.71-1.25,20.64,20.64,0,0,1,1.65-1.3,13.66,13.66,0,0,0-2.17,2.62Zm4,8.54.17-.4a4.57,4.57,0,0,1-2-2.58c-.63-1.62-1.75-3.86-2.28-4.91l1.85.1c.2,1,.84,3.86,1.74,5.05a20.16,20.16,0,0,0,2.28,2.44l-.09.14.59.38c-.66,0-1.32-.1-2-.19Zm3.47.29-.09-.09h0l-.16-.12a17.93,17.93,0,0,1-3.23-3.2,15,15,0,0,1-1.58-4.61l2,.13a33.18,33.18,0,0,0,2.7,5.6,9,9,0,0,0,1.92,2.32Q110.07,76.43,109.28,76.41Zm15.55-13.23a7,7,0,0,1-.57.63l.24.24-1.88.52a8.85,8.85,0,0,0-2.92,1.67c-.36.27-.76.56-1.21.89a17.12,17.12,0,0,1-2.18,1.37l-1.64-.05a24.37,24.37,0,0,0,2.2-1.59,11.63,11.63,0,0,1,3.93-2.3,10.18,10.18,0,0,0,1.12-.45,17.35,17.35,0,0,1,2.59-1.07Zm-8.43,6,.06,0,.92,0A5.51,5.51,0,0,0,119,72.35a24.38,24.38,0,0,0,3,2q-.8.3-1.62.55a7.93,7.93,0,0,0-1.11-1.29l-.47.46.16.16a21,21,0,0,1-1.76-1.59,9.09,9.09,0,0,1-1.94-3.51l1.19,0Zm12.07-4.6.66.25a42.22,42.22,0,0,0-5,1.93,10.06,10.06,0,0,0-2.21,1.65l-1.52.06c.39-.28.94-.68,1.74-1.23a22.75,22.75,0,0,1,6.41-2.47Zm-4.74,3.73-.8.05a9.43,9.43,0,0,1,1.48-1,50.16,50.16,0,0,1,5.59-2.1,5.25,5.25,0,0,1,.49.3c-1,.27-3.48.92-4.58,1.3A5.48,5.48,0,0,0,123.72,68.31Zm-1.69.76a2.53,2.53,0,0,0,1.06,1.45,21.62,21.62,0,0,0,4,1.36q-.82.5-1.68.94A15.17,15.17,0,0,1,121.71,71a6,6,0,0,1-1.15-1.84Zm-2.17.08a6.93,6.93,0,0,0,1.39,2.29,13.13,13.13,0,0,0,3.32,1.79q-.93.45-1.91.84c0-.16-.28-.46-1.66-1.33l-.11.18c-.41-.28-.92-.64-1.54-1.09a4.77,4.77,0,0,1-1.3-2.64Zm-5.36,0a9.91,9.91,0,0,0,2.17,4,18.36,18.36,0,0,0,2.48,2.13q-.77.21-1.55.38v-.25c-.07,0-1.8-.08-3.27-2.41a18.19,18.19,0,0,1-1.91-4C113.12,69,113.82,69.07,114.5,69.11Zm-2.77-.18a18.18,18.18,0,0,0,2.05,4.38,5.8,5.8,0,0,0,2.88,2.5q-.75.14-1.5.25v-.38h0A4,4,0,0,1,112.08,74,27,27,0,0,1,110,68.77l1.63.14Zm.32,7.46a6,6,0,0,1-2.54-2.63,32.32,32.32,0,0,1-2.54-5.2l2,.14v.06a1.78,1.78,0,0,0,.31,0h0a28.34,28.34,0,0,0,2.27,5.66,4.55,4.55,0,0,0,2.6,1.76C113.45,76.27,112.75,76.34,112,76.38Zm-3-8.27h0Zm-.48-.1a14,14,0,0,0,3.07-2A21.2,21.2,0,0,1,117,62.22a5.35,5.35,0,0,1,2.9-.75l0-.07,1.12.36a8.59,8.59,0,0,0-2.63.66,9.51,9.51,0,0,0-2.72,1.92,30.6,30.6,0,0,1-2.57,2.12,7.83,7.83,0,0,1-3.44,1.61Zm8.09-6.38a21.82,21.82,0,0,0-5.47,3.87,15.17,15.17,0,0,1-4,2.41l-.63,0c.65-.47,1.73-1.29,3-2.34a43.59,43.59,0,0,1,7.27-5q.82.2,1.62.43A10,10,0,0,0,116.67,61.63Zm11.92,9.25c-.26.18-.52.36-.79.53A26.53,26.53,0,0,1,123.47,70a2,2,0,0,1-.77-1c4.3-.25,7.32-.73,7.38-.73l-.11-.65s-2.1.33-5.2.58a4.58,4.58,0,0,1,1.35-.76c1.28-.44,4.58-1.3,5-1.4a1.82,1.82,0,0,1,.41.74C131.91,68.5,129.83,70,128.59,70.87Zm-.9-6.58a21,21,0,0,0-6,2.41c-1.58,1.08-2.23,1.58-2.5,1.8h-1.63c.34-.21.74-.48,1.26-.85s.87-.62,1.23-.9a8.26,8.26,0,0,1,2.7-1.57c1.21-.34,3.7-1,4.22-1.16ZM126,63.64l-.9.24a4.85,4.85,0,0,0,.37-.46Zm-4.37-.12a9.48,9.48,0,0,1-1.05.42,12.19,12.19,0,0,0-4.12,2.4c-2.43,1.92-3,2-3,2v.07l-1.77-.14-.27,0A11.3,11.3,0,0,0,113.46,67a31.68,31.68,0,0,0,2.62-2.16A8.86,8.86,0,0,1,118.62,63a7.61,7.61,0,0,1,3.18-.64l0-.35,1.72.62C123,62.88,122.41,63.14,121.62,63.52ZM109.12,65c-2,1.66-3.52,2.73-3.54,2.74l0,0L104,67.7l.48-.42a46.61,46.61,0,0,1,4.89-3.89,39.2,39.2,0,0,1,5.88-3.21l.61.12A49.37,49.37,0,0,0,109.12,65ZM109,62.85c-1.12.75-2.13,1.54-3,2.25.51-.54,1.1-1.13,1.75-1.78,3.49-3.46,3.49-3.46,3.21-3.74h0c1,.09,2.07.21,3.18.4A39.22,39.22,0,0,0,109,62.85Zm1.6-3.31-.15.09h0c-.41.3-1.21,1.07-3,2.79A15.38,15.38,0,0,1,105.36,64,24.26,24.26,0,0,0,103,65.83a7.64,7.64,0,0,1-2.67,1.68l-.89,0A19.27,19.27,0,0,0,101.19,66c2.42-2.38,6.38-6,7.45-6.5Q109.57,59.46,110.56,59.53Zm-9.83,5.95a16.64,16.64,0,0,1-2.32,1.93l-1.1-.06a20.05,20.05,0,0,1,2.56-2.11,68,68,0,0,0,6.06-5.64l-.07-.07c.51,0,1-.08,1.58-.09C105.16,61.15,100.78,65.43,100.73,65.48Z"/><path class="cls-1" d="M131.49,25c-.72-.81-1.94-1.12-3.86-1a20,20,0,0,0-3.89.68h-.13c2.07-5.2,5-14.25,3.51-20.83-.48-2.08-1.45-3.34-2.89-3.74-3.29-.9-8.13,3-10.47,5.48l-.11.12c-3.83,4-8.58,9-8.87,14.93a26.25,26.25,0,0,0,4.89,15.89l-.3.4h0q-.92,1.26-1.81,2.56h0l0,.1c-1,1.44-1.95,2.9-2.9,4.34h0c.64-3.6.07-7.79-.39-11.2-.11-.81-.21-1.57-.29-2.26a16.84,16.84,0,0,0-3.62-9.36c-1.72-2-5.4-4.9-8.23-3.18-1.91,1.16-1.71,4.63-1.56,7.17a17.8,17.8,0,0,1,.05,2.1,51.67,51.67,0,0,1-.93,5.93c-.27,1.39-.56,2.83-.75,4.27a8.14,8.14,0,0,0-.07,1l0,.05,0,0A8.45,8.45,0,0,0,89,40.29a36,36,0,0,0-4.72-6.71c-.33-.36-.72-.76-1.14-1.16,0-.09,0-.18,0-.26l-.23,0c-2.43-2.23-6-4.56-8.74-3.39-3.34,1.44-1.33,8.68-.63,10.86a40.3,40.3,0,0,0,4.36,8.6l.73,1.19a72,72,0,0,1,4.09,8.22l.7,1.57c1.17,2.59,3.15,6.07,6.83,6.38l.05-.66c-2.71-.23-4.44-2.44-5.58-4.57a30.16,30.16,0,0,0,4.92,1.29c.38,1.09.76,2.17,1.15,3.24l.53-.2-.09.26L90,66.19a31.94,31.94,0,0,0-3.78,4.36c-1.92,2.83-3.75,5.76-5.53,8.59-.9,1.43-1.81,2.88-2.74,4.33.09-2.35.14-4.68.14-6.94l.28-.29L78.11,76c0-2.5,0-4.9-.08-7.13a4.22,4.22,0,0,0,.22-.8L78,68c0-.13,0-.26,0-.39,0-.81,0-1.61,0-2.43a71.22,71.22,0,0,0-.36-7.51l0,0,0,0a26.58,26.58,0,0,0-1-4.67l-.22-.71c-.3-1-.63-2-1-3.11,0-.06,0-.12,0-.18l-.1,0A32.52,32.52,0,0,0,71.85,41a3.6,3.6,0,0,0-3-1.87c-2.32.08-4.33,3.06-5.09,4.34a30.69,30.69,0,0,0-3.41,9.94l-.09,0,.06.1c-.15.82-.27,1.64-.38,2.46l-.35.15a3.21,3.21,0,0,0,.28.5,45.4,45.4,0,0,0-.1,9.27l0,0h0c.09.87.2,1.7.34,2.48.86,4.62,5.06,10.64,9.55,13.7a11.71,11.71,0,0,0,6.49,2.28,7.88,7.88,0,0,0,1.21-.1c-2.1,3.24-4.29,6.47-6.71,9.53-1.47,1.84-3,3.64-4.6,5.41a10.74,10.74,0,0,0,.28-2.53A17.41,17.41,0,0,0,65,90.42,28.88,28.88,0,0,0,58.11,79.8a26.54,26.54,0,0,0-2.57-2.18c-.21-.54-.37-.89-.4-.94l-.54.26a31.7,31.7,0,0,0-2.82-1.73l0,0h0a44.15,44.15,0,0,0-10.62-4l0-.23-.57.08a70.22,70.22,0,0,0-7.93-1.36c-2.1-.24-3.54.05-4.4.88a.32.32,0,0,0-.36.21.32.32,0,0,0,0,.25c-1.21,1.87-.09,5.16.91,8.09l.31.9c1.29,3.81,2.9,8.53,6.05,11.22,0,.11.07.17.23.2,3.05,2.46,7.31,4.08,11.08,5.51l1.71.65a39,39,0,0,0,14.81,3.11,4.58,4.58,0,0,0,1.17.17,2.37,2.37,0,0,0,.63-.08c-1.82,2-3.66,4-5.48,5.89s-3.71,3.93-5.52,5.92-3.47,3.82-5.3,5.79c0-.38-.12-.79-.2-1.15,0-.2-.08-.38-.1-.52-.76-5.15-2.41-8.61-5-10.56-2.44-1.81-5.63-2.71-8.87-3.32a52.85,52.85,0,0,0-2-11.61,100.83,100.83,0,0,0-5.53-13.72c-1.93-4.09-3.47-7.81-2.88-11.74a1,1,0,0,0,.17.1.88.88,0,0,0,.29.05l.47.21q.1-.23.21-.45l.17-.14L25,65.51a12.39,12.39,0,0,1,1.37-1.89c.29-.35.59-.71.88-1.12a13.88,13.88,0,0,0,1-1.64A8,8,0,0,1,30,58.48l.51-.44-.66-.13a2.35,2.35,0,0,0-1.84.4c0-.24.09-.51.13-.79.88-1.09.83-1.14.62-1.33a.33.33,0,0,0-.47,0c0-.4.06-.82.08-1.28.1-2.72-.92-8.51-3.14-9.43-.53-.22-1.38-.26-2.37.8l0,0A19.63,19.63,0,0,0,22.56,44c-.37-2.36-2.13-7-4.18-7.41a1.58,1.58,0,0,0-1.48.54,4.2,4.2,0,0,0-1.47-2.66A5.14,5.14,0,0,0,11.2,33a3.13,3.13,0,0,0-.61.19A8.11,8.11,0,0,0,4.28,28a4,4,0,0,0-3.2.7C-.4,30,0,32.22.24,33.13A11.71,11.71,0,0,0,2,36.89a2.28,2.28,0,0,0-.22.18,1.44,1.44,0,0,0-.48,1.46,1.82,1.82,0,0,0,1,1,2.49,2.49,0,0,0-.51,1,3,3,0,0,0-.3,1.34A5.73,5.73,0,0,0,2,43.78a9.09,9.09,0,0,1,.33,1A3.94,3.94,0,0,0,.85,46.24a5.66,5.66,0,0,0-.45,3.12,10.26,10.26,0,0,0,.27,1.73,7.82,7.82,0,0,0,3.57,4.73l-.06,0a4.34,4.34,0,0,0-1.58,3.19,10.22,10.22,0,0,0,1.9,7c.93,1,3.79,3.65,6.17,3.65h.21a2.52,2.52,0,0,0,2-1.14,43.72,43.72,0,0,0,7.7,1.57c.64.72,1.08,1,1.43,1a.52.52,0,0,0,.27-.07c.54-.31.26-1.48-.06-2.41a5.68,5.68,0,0,0-.33-.74,3.46,3.46,0,0,0,1.22-1.83c-.51,4.34,1.5,8.61,3,11.77a100.13,100.13,0,0,1,5.5,13.63,51.9,51.9,0,0,1,2,11.3l-1.29-.21c-.43-.07-1.26-.16-2.34-.23l-.05-.07-.09.07-.63,0a48.31,48.31,0,0,0-1-11.26,33,33,0,0,0-4.38-9c-.65-1.06-1.31-2.13-1.92-3.22a1.42,1.42,0,0,0,0-1.06,1.83,1.83,0,0,0-1-.84,18.23,18.23,0,0,1-1.69-5.3l-.65.09A18.27,18.27,0,0,0,20,76.56a21.92,21.92,0,0,0-2.45-.41,10.27,10.27,0,0,1-3.22-.72l-.28-.21-.43.5A1.74,1.74,0,0,0,14,76a11.47,11.47,0,0,1,1.26,1.18,10.1,10.1,0,0,0-2.86.22l-.69.15.56.43a5.64,5.64,0,0,0,1.19.53,12.16,12.16,0,0,1,1.75.76l-.11,0c-1.91.58-3.81,1.21-4.17,2.09a.49.49,0,0,0,.07.52c.13.15.35.24.81.24a21.14,21.14,0,0,0,4.16-.75l.36-.09.82-.08c1.53-.12,3.42-.28,4.4-1.74.55,1,1.13,1.91,1.71,2.85a32.47,32.47,0,0,1,4.3,8.86,47.59,47.59,0,0,1,.93,11.07c-.82,0-1.72,0-2.67,0l0-.06-.13.07c-4.87,0-11,.75-13.67,3.47l.47.46h0c-1.37,4.2,6.44,9.22,11.17,12.27.93.6,1.74,1.12,2.26,1.5a9.81,9.81,0,0,0,3.26,1.48c0,.6.05,1.2.09,1.8,0,.79.08,1.63.11,2.48.11,3.07.25,6.51,1.27,9.38l-.44-.23a107.47,107.47,0,0,0-5.79,13.93l-.87,2.41c-.34.94-.71,1.88-1.08,2.84-1.7,4.37-3.45,8.9-3.33,13.56l.66,0c-.12-4.53,1.61-9,3.28-13.31.37-1,.74-1.91,1.08-2.85L25,149a108,108,0,0,1,5.68-13.71c.06.15.1.31.17.46l.61-.26c-1.21-2.87-1.34-6.56-1.46-9.81,0-.86-.06-1.7-.11-2.5,0-.53-.05-1.07-.08-1.6a24.35,24.35,0,0,0,5,.46c0,.51,0,1,.06,1.58a34.79,34.79,0,0,0,.81,7.64l-.81.74.44.49.82-.75.34-.11,0-.16c3.91-3.56,7.67-7.39,11.2-11.16a1.38,1.38,0,0,0,.74-.8c2-2.18,4-4.33,5.86-6.39s3.69-4,5.51-5.91c3.88-4.11,7.89-8.37,11.47-12.86A160.76,160.76,0,0,0,81.26,79.49c1.77-2.83,3.6-5.75,5.51-8.57a31.26,31.26,0,0,1,3.71-4.26l.29-.3.46.21c.19-.4.36-.82.52-1.23a21.82,21.82,0,0,0,3.11-4c.84-1.45,1.61-3,2.34-4.45a46.94,46.94,0,0,1,4.26-7.34h.25l.1-.1c.09-.08.16-.17.24-.25l.09.13a93.77,93.77,0,0,1-7.8,14.29,10.07,10.07,0,0,0-1.65,2.4l.07,0-.14.21a2.32,2.32,0,0,0-.53-.24L92,66H92a.41.41,0,0,0-.36.29,1.74,1.74,0,0,0,.32,1l-1.63,2.43c-2,2.93-4,6-5.87,9-.32.52-.67,1-1,1.55A13.63,13.63,0,0,0,80.3,83.9l0,.1a6.4,6.4,0,0,0-.16,1.21C76,90.78,71.3,96,66.74,101c-2.46,2.74-5,5.56-7.43,8.41-2.62,3.09-5,6.38-7.33,9.57-1.49,2.06-3,4.18-4.63,6.23a28.35,28.35,0,0,1-5.59,5.06c-2.4,1.81-4.87,3.67-6.6,6.47-2.83,4.59-4,9.92-5.09,15.08-1.3,6-2.65,12.29-6.72,17.21l.51.42C28,164.44,29.4,158.12,30.72,152c1.1-5.1,2.24-10.38,5-14.87,1.66-2.69,4.09-4.52,6.43-6.29a28.84,28.84,0,0,0,5.71-5.18c1.6-2.06,3.14-4.19,4.64-6.25,2.31-3.18,4.69-6.46,7.3-9.53,2.41-2.84,5-5.66,7.42-8.39l2.37-2.64a10.86,10.86,0,0,0-.9,1.86l0,.06v.06c.11,3.65,2.08,6.75,4.94,9.18l.15.27.1-.06a26,26,0,0,0,8.68,4.55h0c.86.27,1.72.5,2.58.68a37.62,37.62,0,0,0,7.86.76c1.89,0,3.92-.11,6.14-.32.47,0,1-.07,1.64-.09,2.52-.1,5.65-.23,7.05-1.87a3.12,3.12,0,0,0,.67-2.47c-.39-3.47-4.44-6.39-7.41-8.52l-.11-.08v0h-.07l-.85-.61a55.76,55.76,0,0,0-8.87-5.41v-.15l-.16-.11c-.07,0-.13-.08-.39,0-.57-.27-1.14-.52-1.71-.76-4.1-1.71-10.15-2.82-14.86-.79a10.19,10.19,0,0,0-2.3,1.38c2.89-3.28,5.73-6.65,8.37-10.17.4,1.78,2.12,2.3,3.68,2.78a7.76,7.76,0,0,1,2.41,1c.91.7,1.81,1.47,2.67,2.21,2.94,2.52,5.72,4.91,8.37,3.87a1.67,1.67,0,0,1,.54-.08l.22.22.19-.21a24.18,24.18,0,0,1,3.59.77,24.93,24.93,0,0,0,5.78,1.06,3.93,3.93,0,0,0,2.63-.77,3.45,3.45,0,0,0,.9-3.17c-.69-6.26-4.1-9.39-8.38-11.63l0,0a.57.57,0,0,0-.25-.11c-1.18-.6-2.42-1.14-3.69-1.66-1-.39-1.93-.76-2.89-1.07h0l-.25-.61L95,79.1a23.38,23.38,0,0,0-2.32-.57l-.39-.4-.3.3a11.16,11.16,0,0,0-7.17,1l.21-.33c1.87-3.05,3.9-6.07,5.85-9L92.32,68a53.18,53.18,0,0,0,3.48,4.65A15.17,15.17,0,0,0,97.6,74,12.48,12.48,0,0,1,97,72.73c-.26-.19-.51-.39-.75-.6s-.58-.68-1.14-1.41l-.36.17a7.68,7.68,0,0,1-.43-1.22c-.6-.81-1.19-1.66-1.59-2.29L93,67l.26-.24-.07-.06.65-1a4.55,4.55,0,0,1,.57-1,10.58,10.58,0,0,1,2.39-2.12l1.45-1,.09.13a17.58,17.58,0,0,1,2.8-1.17l.74-.86a16.5,16.5,0,0,0-5.75,2.5,88.7,88.7,0,0,0,6.56-12.3c1.48,1,4.68,1.08,6,1.08h.58a25.62,25.62,0,0,0,10.66-3.39,25.06,25.06,0,0,0,8.76-8.77l.06-.06v0a25.27,25.27,0,0,0,3.07-8C132.34,27.92,132.47,26.1,131.49,25ZM28.95,58.57a11.17,11.17,0,0,0-1.26,2,13.51,13.51,0,0,1-.94,1.56c-.29.4-.58.75-.86,1.09a12.59,12.59,0,0,0-1.47,2.05.32.32,0,0,1-.25,0c-.57-.21-.87-2.24-1-3.11l0-.19a.62.62,0,0,0,.5-.1c.32-.25.22-.69.13-1.17l0-.14.42-.16s-.1-.27-.25-.71l.11,0a1.53,1.53,0,0,1,.07.36,1.37,1.37,0,0,0,.44,1c1,.7,1.75-.1,2.45-.88l.37.2a6.21,6.21,0,0,0,.35-1A2.87,2.87,0,0,1,28.95,58.57Zm-14.7,7.79c0,.16-.18.35-.48.56a1.14,1.14,0,0,1-.58-.15l0,0a.35.35,0,0,0,.16-.36l.49-.27-.32-.58h.08C14,65.83,14.26,66.13,14.25,66.36Zm-3.93.54a.46.46,0,0,1,.24-.29c.32-.15.93.1,1.48.36l0,0c-.29,0-.65,0-1,0h-.6ZM10.09,58h0a10.65,10.65,0,0,1-1.14-2h0c-.16-.8-.27-1.36-.36-1.77a2.82,2.82,0,0,1,0-.53c.24-1.09.75-1.17.91-1.19,1.59-.22,4.75,3.11,6,5.4a18.15,18.15,0,0,1,1.26,2.75c-.66-1.63-.71-1.61-1-1.51s-.2.44-.17.55c.11.32.2.62.27.87-1-1.26-1.19-1.15-1.36-1s-.08.49,0,.64l.05.08c.19.29.61.91.85,1.35l-.37-.17c-.7-.32-.88-.41-1-.12s0,.38.19.52c-.21-.06-.38-.06-.48.16a.32.32,0,0,0,0,.13c-.36-.33-.74-.71-1.14-1.12A6.5,6.5,0,0,0,10.09,58ZM8.95,41.4c1.56.08,3.91,3.83,4.67,6.23l0,.09a2.28,2.28,0,0,0-.21.17l-.1.12a.35.35,0,0,0-.19,0c-.32.05-.28.4-.26.51l0,.35a1.25,1.25,0,0,0,0,.48l0,0v0c-.78-1.44-1-1.35-1.15-1.26s-.17.48-.1.64l0,.09c.14.32.43,1,.59,1.48L12,50.12c-.62-.43-.79-.56-1-.3s-.06.38.1.55c-.19-.1-.36-.13-.5.06,0,0,0,0,0,.05-1.65-2.42-3.64-6-2.72-8.13C8.29,41.36,8.77,41.38,8.95,41.4Zm7.51,4.49a.47.47,0,0,0,.3.08v0a1.29,1.29,0,0,0-.28-.06ZM18.41,49a1.53,1.53,0,0,1-.83.51l-.3.09a1.13,1.13,0,0,0-1.48-1.3l0-.48a2.8,2.8,0,0,1,0-.55c.27.09.45.14.47.14l.12-.51a.33.33,0,0,0,.3-.13.5.5,0,0,1,.11.1,1.32,1.32,0,0,1,.14.78l0,.78.61-.48a.88.88,0,0,1,.61-.25c.17,0,.3.18.38.46A1,1,0,0,1,18.41,49Zm-3.83,3.45h0a.45.45,0,0,1-.4-.23c-.42-.63.18-1.34.57-1.71l.08-.07a1.6,1.6,0,0,0,1.19.73h.11l-.15.2C15.45,52,14.93,52.45,14.58,52.45Zm1.83-2.36c-.1.23-.22.35-.38.36v0c-.26,0-.58-.34-.78-.68,0,0,.2-.66.69-.78a.56.56,0,0,1,.57.1C16.69,49.32,16.56,49.76,16.41,50.09Zm-1.86-.5-.07.25a1.91,1.91,0,0,1-.7-.47c0-.23-.09-.43-.13-.59a1.13,1.13,0,0,1,.28-.42,1.17,1.17,0,0,1,.8-.41h.15a1,1,0,0,1,.34.14l.37.23A2,2,0,0,0,14.55,49.59Zm2.51.78a3.22,3.22,0,0,0,.18-.53l.14.2a2.34,2.34,0,0,1,.45,1.81c-.07.33-.21.35-.25.36s-.54-.18-1-.87l-.19-.26A1.21,1.21,0,0,0,17.06,50.38Zm.54-3.32a1.54,1.54,0,0,0-.19-.51l.15,0c-.09-.39-.17-.73-.24-1,.23.53.45,1,.68,1.49A1.27,1.27,0,0,0,17.61,47.06Zm-2.53.24H15a1.51,1.51,0,0,0-.79.07A13.09,13.09,0,0,0,13.68,46a5.11,5.11,0,0,0,1.47,1A2.28,2.28,0,0,0,15.08,47.3Zm-3.9,4L12,52l.35-.38a.45.45,0,0,0,.47-.22.36.36,0,0,0,0-.21l.08-.06a.41.41,0,0,0,.14-.21.35.35,0,0,0,.31.05l.11,0a1.6,1.6,0,0,0,.07,1.65,1.16,1.16,0,0,0,1,.54h0a1.29,1.29,0,0,0,.39-.07,19.33,19.33,0,0,0,.85,4,17.72,17.72,0,0,0-3.43-3.94l.1-.08S11.9,52.32,11.17,51.3Zm2,11.16c1,.92,1.74,1.54,1.84,1.62l.41-.52s-.45-.37-1.08-.93c.87.49,1.07.61,1.08.62l.27-.43a3.64,3.64,0,0,0,.66,1.5,4.3,4.3,0,0,1,.56,1.09l-3.54-2.24C13.33,62.93,13.26,62.7,13.18,62.46Zm3.61-.68.3-.12a4.46,4.46,0,0,1,.08.46l.31,0c0,.25.08.5.12.76l-.27-.26-.66-.65A.25.25,0,0,0,16.8,61.78Zm2.11-1.71H19l.28,0v-.39h0l.23.22c.53,2,.35,2.31.35,2.33s-.27,0-1-.68l.15,0Q19,60.79,18.91,60.08Zm1.51-.77,0-2.73L19.78,58q-.17.39-.35.77a1.43,1.43,0,0,1-.16-.52l-.45,0c0-.06,0-.13,0-.19v-.48l-.44.18a1.22,1.22,0,0,0-.7,1.41,1.19,1.19,0,0,0,.57.72c0,.34.06.69.09,1l-.5-.54,0,0a25.36,25.36,0,0,1-2.19-7.64,4.5,4.5,0,0,0,.66-.61c.51.6,1,.86,1.45.79a1,1,0,0,0,.83-.91,2.84,2.84,0,0,0-.33-2,1.93,1.93,0,0,0,.76-.6,16.68,16.68,0,0,1,2.74,7.46,21.19,21.19,0,0,1,.1,3.3.78.78,0,0,0-.44.46l-.24-.38A5.52,5.52,0,0,0,20.42,59.31Zm2.73.19a2.06,2.06,0,0,0,0,1.36,4.14,4.14,0,0,1,.08.48,1.81,1.81,0,0,1-.34-.13l-.11-.05a2.38,2.38,0,0,0-.32-.61,20.88,20.88,0,0,0-.08-3.7c0-.07,0-.14,0-.21C22.61,57.76,22.91,58.77,23.14,59.5Zm4-.45-.51.56c-.82.93-1.2,1.27-1.68.91-.11-.08-.15-.33-.18-.55a1,1,0,0,0-.4-.84.81.81,0,0,0-.64,0l-.22-.71.59-.11v0l.06.05c.13.12.42.36.69.19A.38.38,0,0,0,25,58.3a.39.39,0,0,0,.31.11.84.84,0,0,0,.62-.4l0,.07c-.12.35,0,.51.13.58a.36.36,0,0,0,.39,0l.43.36.39-.47C27.2,58.74,27.16,58.9,27.12,59ZM23.31,46.74c.6-.64,1.13-.85,1.63-.64,1.72.71,2.84,5.83,2.73,8.8,0,.78-.09,1.44-.16,2-.3.29-.57.54-.78.72.73-2.26.37-2.4.25-2.45-.32-.13-.48.22-.55.39l0,.11a10.8,10.8,0,0,1-1,2c-.11-.26-.24-.6-.35-.9-.3-.82-.38-1-.71-1s-.27.42-.23.71.1.54.16.78a9.88,9.88,0,0,1-.47-.89c-.16-.34-.28-.58-.58-.47s-.24.23-.2.48c-.61-2.48-1.12-5.61-.59-7.84l.24.07a5.55,5.55,0,0,0,.16-1.19A3.35,3.35,0,0,1,23.31,46.74ZM17,38c.57-.91,1-.81,1.21-.78,1.53.32,3.28,4.38,3.66,6.87a16.58,16.58,0,0,1,.23,3.28c-.82,1.77-.72,4.36-.32,6.78a16.06,16.06,0,0,0-2.09-4.76l.23-.14C19.91,49.14,15.06,41.11,17,38Zm-5.72-4.31A4.46,4.46,0,0,1,15,34.91a3.14,3.14,0,0,1,1.22,2.82l.19,0c-.78,1.41-.51,3.5.12,5.53h-.15c-.22,0-.33.2-.33.51a4.18,4.18,0,0,0,.2,1.19c-.43-.21-1-.41-1.2-.15s-.15.33.15.61l.18.18c-1.63-.83-1.83-.57-1.93-.44a.33.33,0,0,0-.06.17,14.85,14.85,0,0,0-2.24-3.32l.22-.2c-1.15-1.28-2.42-4.76-1.73-6.77a2.16,2.16,0,0,1,.58-.91l0,.12,1,.09.06-.66h-.16ZM.87,33c-.16-.62-.6-2.72.63-3.77a3.47,3.47,0,0,1,2.67-.54A7.43,7.43,0,0,1,10,33.52a2.73,2.73,0,0,0-1,1.36c-.61,1.79.12,4.51,1.09,6.27a2.43,2.43,0,0,0-1-.39l.29-.24a6.22,6.22,0,0,0-2.25-1.71,1.7,1.7,0,0,0,.2-.21,1.64,1.64,0,0,0,.19-1.46A1.14,1.14,0,0,0,6,36.25a1.54,1.54,0,0,0-.23-.59,1.23,1.23,0,0,0-1-.55,1.16,1.16,0,0,0-1,.41,1.77,1.77,0,0,0-.36,1H3.37a1.5,1.5,0,0,0-.77.06A11,11,0,0,1,.87,33Zm1.41,4.61a1.63,1.63,0,0,1,.15-.11c.22.28.46.54.71.79a2.21,2.21,0,0,0-.24.54L2.83,39A1.4,1.4,0,0,1,2,38.32.78.78,0,0,1,2.29,37.57Zm3.45,1.67a2.34,2.34,0,0,1,.45,1.81c0,.22-.14.34-.25.36s-.55-.18-1-.87l-.19-.26a1.22,1.22,0,0,0,.7-.72,3.22,3.22,0,0,0,.17-.5h0ZM2.42,40.7a3.06,3.06,0,0,1,.84-1,1.52,1.52,0,0,0,1.11.63h.11l-.15.2c-.53.69-1.06,1.1-1.4,1.1h0a.46.46,0,0,1-.39-.23A.84.84,0,0,1,2.42,40.7ZM4.12,37a1.61,1.61,0,0,1,.2-1,.42.42,0,0,1,.4-.16.51.51,0,0,1,.42.23,1.31,1.31,0,0,1,.14.77l0,.78.61-.48a.9.9,0,0,1,.61-.25c.17,0,.3.18.38.46a1,1,0,0,1-.09.85,1.17,1.17,0,0,1-.42.35,4.65,4.65,0,0,0-.71-.13,1.11,1.11,0,0,0-.24-.59,1.22,1.22,0,0,0-1.25-.34Zm.25,2.64a.79.79,0,0,1-.5-.31,3.11,3.11,0,0,1,1-.27l-.08.22C4.66,39.51,4.54,39.63,4.37,39.64Zm-.09-1.47a.56.56,0,0,1,.57.1.38.38,0,0,1,0,.12h0a3.78,3.78,0,0,0-1.17.3A.93.93,0,0,1,4.28,38.18Zm-1.19-1h.15a.94.94,0,0,1,.34.14l.37.24a1.44,1.44,0,0,0-.35.19c-.18-.19-.36-.37-.53-.57Zm-.52,6.38A5.77,5.77,0,0,1,2.14,42a1.13,1.13,0,0,0,.79.31h0a2.44,2.44,0,0,0,1.67-1c.51.6,1,.86,1.45.79a1,1,0,0,0,.83-.91,2.8,2.8,0,0,0-.29-1.91A5.44,5.44,0,0,1,8.7,40.75c-.47.07-1,.37-1.44,1.33A4.17,4.17,0,0,0,7,44.28a2.18,2.18,0,0,0-1-.31,7.21,7.21,0,0,0-2.91.36l-.27.13C2.79,44.14,2.68,43.84,2.57,43.54ZM1.32,50.93a9.59,9.59,0,0,1-.25-1.62,5.07,5.07,0,0,1,.37-2.76A3.54,3.54,0,0,1,3.38,45,6.58,6.58,0,0,1,6,44.63a1.21,1.21,0,0,1,.77.28.17.17,0,0,1,0,.14l.36,0a22.33,22.33,0,0,0,3.75,7,2.7,2.7,0,0,0-1.54-.35,1.72,1.72,0,0,0-1.37,1.37H8c-.32.05-.28.4-.26.51,0,.34.08.64.11.91-.78-1.44-1-1.35-1.15-1.26s-.17.48-.1.64l0,.09c.14.32.43,1,.59,1.49l-.34-.24c-.62-.44-.79-.55-1-.3s-.06.38.09.54c-.19-.09-.36-.13-.5.06s0,.43.35.7c.87.73,1.06.9,1.07.91l.35-.38a.44.44,0,0,0,.47-.22.37.37,0,0,0,0-.21l.08-.06A.41.41,0,0,0,8,56.13a.35.35,0,0,0,.31.05l0,0a10.09,10.09,0,0,0,.73,1.43,4.9,4.9,0,0,0-1,0,5.91,5.91,0,0,1-1,0,1.63,1.63,0,0,1-1.46-.77,3.78,3.78,0,0,0-1-1l-.14-.1.25-.45A7.14,7.14,0,0,1,1.32,50.93ZM10.84,69c-1.93.12-4.6-2-5.84-3.42a9.6,9.6,0,0,1-1.73-6.44,4,4,0,0,1,1.13-2.58,3.31,3.31,0,0,1,.62.67,2.25,2.25,0,0,0,1.92,1,6.4,6.4,0,0,0,1.13,0,2.77,2.77,0,0,1,1.56.23A24.45,24.45,0,0,0,12,61.34,12.65,12.65,0,0,1,12.65,63l-.05.17a1.59,1.59,0,0,0-.07.56c-.33-.52-.42-.48-.61-.39s-.15.46-.09.6c.34.75.58,1.36.73,1.79-1.83-1.5-2.1-1.23-2.19-1.13-.24.25,0,.53.16.66l.08.08.62.64a1.47,1.47,0,0,0-.93,0,1.2,1.2,0,0,0-.64.83.47.47,0,0,0,.15.47,1.14,1.14,0,0,0,.19.13c0,.22.31.3.56.36l.36.06.28.1c-.31,0-.62.08-.84.09-.37,0-.64,0-.65.36s.25.35.73.41l.72.09A2.05,2.05,0,0,1,10.84,69Zm10.27.72L21,69.4c-.78.22-5.48-.77-8.41-1.64a.38.38,0,0,0-.09-.18.5.5,0,0,0,.21-.25s0,0,0,0c.56.26,1,.41,1.4.17a1.5,1.5,0,0,0,.77-1c0-.55-.41-1-.85-1.42l-.35-.35c0-.19-.07-.37-.11-.56l3.74,2.37.16-.33c.34-.7-.15-1.47-.58-2.15s-.65-1.11-.54-1.38l.49.48,1,1c.42,1.7,1.21,3.25,3.1,3.64a6.14,6.14,0,0,1,.61,1.18,5,5,0,0,1,.33,1.56A3.61,3.61,0,0,1,21.11,69.71Zm-2.21-4.6c.5.53,1,1.08,1.4,1.62A3.28,3.28,0,0,1,18.89,65.1Zm2.62,2.22a22.55,22.55,0,0,0-3.06-3.63c-.05-.22-.1-.44-.14-.67l.07.13.58-.31s-.15-.28-.35-.69c.71.63,1.19.81,1.54.61s.56-.77.11-2.59l.28.44c.34.55.49.78.73.83a.45.45,0,0,0,.4-.12,5.47,5.47,0,0,1-.17.81l.62.23a4.78,4.78,0,0,0,.13-.52c0,.18.07.37.11.55s0,.29.08.42C22.75,64.33,22.79,66.26,21.51,67.33Zm1.73-2.13a2.13,2.13,0,0,0,.2.32l-.24,0C23.22,65.38,23.23,65.29,23.24,65.19ZM21,79.07c-.79,1.23-2.46,1.36-3.93,1.48l-.84.08-.44.1a17.57,17.57,0,0,1-4.17.73c.55-.62,2.77-1.29,3.65-1.56l.54-.17.22-.07v-.23c0-.63-.92-1-2.36-1.57l-.07,0a9.46,9.46,0,0,1,1.6,0l0-.64c.16.17.31.35.46.53l.51-.41c-.22-.27-.45-.53-.69-.78.6.12,1.27.21,2,.3a15.58,15.58,0,0,1,2.9.55c.24.49.49,1,.76,1.45A2.85,2.85,0,0,1,21,79.07Zm26.56,38.35a4.78,4.78,0,0,1,.16,1.81c-.23.58-.67.6-1.67.59-.28,0-.58,0-.9,0a8.51,8.51,0,0,0-1.57.25,5.45,5.45,0,0,1,1-1l.15-.12c.08.1.24.2.56.08a13.69,13.69,0,0,0,1.25-.58l-.06-.12.31-.2s-.1-.15-.25-.35a.28.28,0,0,0,0-.12v-.21l-.19-.09a.36.36,0,0,0-.21,0c-.16-.18-.34-.39-.56-.61l0-.08a10.35,10.35,0,0,0-.09-5l-.64.16a10.66,10.66,0,0,1,.33,2.83c-.1-.6-.23-1.31-.41-2.13-.44-2-.95-3.91-1.28-5.09,2,1.94,3.29,5,3.94,9.41C47.49,117,47.52,117.2,47.57,117.42Zm-5.64,3.14-1,.31L43,119a4.68,4.68,0,0,1,2.56-1.36h0a12.48,12.48,0,0,0-1.36.94,4,4,0,0,0-1.45,1.71Zm-3.25.71-.59,0a12,12,0,0,0,2.16-1.61c.45-.41.87-.82,1.27-1.21,1.09-1.07,2.05-2,2.76-2,.26.22.48.44.69.64a5.87,5.87,0,0,0-2.46,1.43c-1.4,1.27-2.64,2.35-3,2.68A6.2,6.2,0,0,1,38.68,121.27Zm3.51-7.11h0l-.71-.38a16.91,16.91,0,0,0-1-3.76,29.81,29.81,0,0,0-2.85-5.67c.68.2,1.34.43,2,.69l-.08,0,.1.2a37.43,37.43,0,0,1,2.24,5.18,12.87,12.87,0,0,1,.87,4Zm-21.36,1.6a1.88,1.88,0,0,0,.39,0,15.45,15.45,0,0,0,2.84-.33l.24,0c-.17.18-.36.39-.55.57l.46.47a4.51,4.51,0,0,0,1.09-1.3A16.19,16.19,0,0,0,29,113.8a18.32,18.32,0,0,1,4-1.66l0-.09,1.12.16a1.13,1.13,0,0,0,.44.12l.12,0,1.1.22a11,11,0,0,0-3.21,1.35,16.19,16.19,0,0,0-1.73,1.19,7.31,7.31,0,0,1-2.26,1.26,13.61,13.61,0,0,1-5.25.41l-.08.65C22.51,116.89,21.68,116.35,20.83,115.77Zm-4-10.24c-.28.14-.2.4-.09.83l0,.08c-.19-.28-.39-.59-.56-.88l-.57.34a13.54,13.54,0,0,0,1,1.45,24,24,0,0,1-3.45-1.77,12.46,12.46,0,0,1,4.47-1.85h0c.73.76,1.49,3.3,1.75,4.45-.37-.38-.94-1.08-1.71-2.08l-.22-.29C17.3,105.63,17.11,105.39,16.83,105.52Zm.79,1.7,0-.14c.32.4.58.72.81,1l-.9-.36A.53.53,0,0,0,17.62,107.23ZM20,109.35h0Zm.14-.65a15.74,15.74,0,0,0-1.78-5.14l.87-.16a42.28,42.28,0,0,1,2.95,4.73,9,9,0,0,0,.94,1.52C22,109.33,21,109,20.12,108.7Zm1.21-5.59c.12.24.4.66,1,1.49a28.32,28.32,0,0,1,1.52,4.89h0a7.59,7.59,0,0,1-1.07-1.66,40.57,40.57,0,0,0-2.81-4.55Zm3.31,7c0-.07-.11-.41-.19-.73-.15-.65-.37-1.55-.65-2.5.5.75.95,1.45,1.24,2a11.19,11.19,0,0,1,.75,1.55Zm1.91.42a10.43,10.43,0,0,0-.94-2c-.59-1-1.83-2.84-2.74-4.17v0a6.37,6.37,0,0,0-.73-1.23q.88-.07,1.74-.11c.2.39.59,1.1,1.36,2.5.62,1.12,1.31,2.38,1.84,3.38a19.38,19.38,0,0,0,1.18,2C27.71,110.69,27.14,110.6,26.55,110.49Zm3,.21v0l.26.33-.22,0A2.1,2.1,0,0,0,29.51,110.7Zm-.81-1.59c-.27.15-.19.4-.07.83l.1.36a20.43,20.43,0,0,1-1.07-1.81c-.54-1-1.23-2.27-1.85-3.39l-1.21-2.21.8,0c.45.87,1.56,2.93,3,5.13l.7,1.12A.34.34,0,0,0,28.7,109.11Zm1,2.53,1.45.18.52.06a20.45,20.45,0,0,0-3,1.35,17.5,17.5,0,0,1-4.74,1.6l-.31,0c-3.1.24-3.1.24-3.09.61a.32.32,0,0,0,0,.15l-1.34-1a56.54,56.54,0,0,0,7.17-1.21A10,10,0,0,0,29.69,111.64Zm5.57-7.87q.7.15,1.39.33a31.93,31.93,0,0,1,3.18,6.13c.41,1.26.66,2.08.8,2.62l-.3-.37c-.32-.36-.66-.68-1-.55h0a16.88,16.88,0,0,0-1.12-3,54.61,54.61,0,0,0-2.79-5h0ZM39.58,113c0-.06,0-.11,0-.19s0-.06,0-.09l.23.23.14.17-.15,0Zm.43.16h0Zm2.59-6.44c.18.52.94,3.19,1.56,6,.32,1.47.48,2.56.58,3.28a15.62,15.62,0,0,0-1.38-1.06,11.81,11.81,0,0,0-.9-4.66,38.83,38.83,0,0,0-2.07-4.85A13.16,13.16,0,0,1,42.61,106.68Zm-7.76-2.36h0a49,49,0,0,1,2.73,4.92,15.11,15.11,0,0,1,1.22,3.43q-.93-.32-1.81-.55c-.1-.36-.38-1.32-1.11-3.33a27.77,27.77,0,0,0-3-5.47l1.67.3C34.48,103.78,34.52,103.84,34.84,104.32ZM32,103.18l.08.11A28.18,28.18,0,0,1,35.25,109c.55,1.53.84,2.43,1,2.93L35,111.7c-.15-.84-3.23-6.37-4.68-8.69C31,103.06,31.58,103.12,32,103.18Zm2.3,8.39a4.1,4.1,0,0,1-.75-.53.43.43,0,0,0-.46-.15.56.56,0,0,0-.17.09c-.22-.51-.62-1.41-1.29-2.73A36.05,36.05,0,0,0,28,102.88l1.53.07A90.65,90.65,0,0,1,34.3,111.57Zm-7.16-8.71a38.36,38.36,0,0,1,3.9,5.69c.68,1.35,1.08,2.26,1.29,2.75l-1.11-.13-.34,0c-.05-.35-.37-.94-2-3.47-1.24-2-2.25-3.81-2.77-4.79Zm-14.06,2.75-.14.2-.09,0Zm0,.69a32,32,0,0,0,5.11,2.4,16.76,16.76,0,0,1-1.82-.06c-1.67-.17-2-.62-2-.63l-.56.36c.07.12.54.73,2.53.93a19.31,19.31,0,0,0,2.32.06h.47a.51.51,0,0,0-.1.54.4.4,0,0,0,.07.1,17.84,17.84,0,0,1-2.89,0l-.06.66c.17,0,.81.06,1.61.06,1.35,0,3.12-.15,3.78-.85l1.45.44c.53.16,1,.29,1.54.41a10.57,10.57,0,0,1-1.9.73l-.06-.19-.3,0a4.87,4.87,0,0,1-.85-.11c-.8-.14-1.17-.21-1.32.11a.42.42,0,0,0,.16.52l.17.13-.17.06.2.63,1.17-.38a9.55,9.55,0,0,0,3.9-1.3c1.16.25,2.24.43,3.28.58a9.34,9.34,0,0,1-2.55,1.29A62.72,62.72,0,0,1,18.83,114l0,.34C15.41,111.8,12.27,108.77,13.09,106.3Zm10.19,11.09a16.72,16.72,0,0,0,1.85.1,10.83,10.83,0,0,0,3.7-.55,7.93,7.93,0,0,0,2.42-1.35,15.38,15.38,0,0,1,1.67-1.15,7.42,7.42,0,0,1,5-1.34l.13,0a12.58,12.58,0,0,0-3.54,2,22.08,22.08,0,0,0-2.28,1.83,6.05,6.05,0,0,1-1.71,1.19,4.05,4.05,0,0,1-3.13.07h0l-.25.61a5,5,0,0,0,1.79.33,4.28,4.28,0,0,0,1.88-.42,6.65,6.65,0,0,0,1.87-1.3,21,21,0,0,1,2.22-1.79c2.56-1.82,3.76-2.13,4.67-1.95l.56.22.78.35a6.34,6.34,0,0,0-1.82.46c-1.15.54-1.89,1.26-3.67,3l-.78.76a5.5,5.5,0,0,1-4.46,1.79l-.11.65a3.28,3.28,0,0,0,.53,0,6.51,6.51,0,0,0,4.5-2l.78-.76c1.78-1.73,2.45-2.37,3.5-2.87a8.06,8.06,0,0,1,2.6-.48c.27.16.53.32.78.48a4.57,4.57,0,0,0-2.95,1.25c-.61.58-1,1-1.32,1.37a11.39,11.39,0,0,1-2.12,1.9,3.66,3.66,0,0,1-3.25.68l-.23.62a3.47,3.47,0,0,0,1.13.17,4.62,4.62,0,0,0,2.74-.93,12,12,0,0,0,2.22-2c.33-.36.7-.77,1.29-1.33A4.11,4.11,0,0,1,43.5,116a10.31,10.31,0,0,0-2.44,2c-.39.39-.81.79-1.25,1.19A8.12,8.12,0,0,1,37.1,121l.08.29c-3.65.09-8,.13-10.9-1.94-.54-.39-1.35-.92-2.29-1.52Zm9.2-14.68h0Zm3.72,28a36.33,36.33,0,0,1-.7-7.16c0-.54,0-1.05-.05-1.56l2.19,0,1.06,0c.22,0,.44,0,.66-.06a.19.19,0,0,0,.12,0,.54.54,0,0,0,.24-.1,18.05,18.05,0,0,0,2.42-.64,12.86,12.86,0,0,1,3.07-.71c.3,0,.59,0,.86,0h.45C43.24,123.94,39.79,127.44,36.2,130.72Zm29.49-34a7,7,0,0,1-.46,2.87c-.35-1.23-1.15-4-1.61-5.06l0-.2h0c-.08-.16-.14-.25-.18-.27l-.19-.06h0a2.85,2.85,0,0,1,0-.37c.08-1.7.52-2.07.52-2.07l-.36-.55c-.12.07-.72.54-.82,2.59a7,7,0,0,0,.3,1.92l-.33-.05A5.36,5.36,0,0,1,62,92.21c.58-5,.53-5,.16-5.1l-.39.32.22,0h-.2c0,.21-.17,2.32-.44,4.66a6.55,6.55,0,0,0,.34,3.22c-.34-.08-.72-.18-1.13-.3-.5-.72-.28-2.19,0-3.88.1-.61.2-1.26.27-1.93a9.36,9.36,0,0,0-.15-4l-.62.23a9.05,9.05,0,0,1,.12,3.7c-.08.66-.17,1.3-.27,1.9a10.54,10.54,0,0,0-.2,3.61,4.91,4.91,0,0,1-1.26-3.84c.13-.9.25-1.49.37-2a13,13,0,0,0,.36-3.3,19.51,19.51,0,0,0-.59-4.34,28.16,28.16,0,0,1,5.89,9.47A16.79,16.79,0,0,1,65.69,96.77ZM52.11,97.92a1.74,1.74,0,0,0-.31,0l0,.35q-1.24-.4-2.55-.88l.56,0a17.63,17.63,0,0,0,3.75-.47A12.44,12.44,0,0,0,58.49,95a18.86,18.86,0,0,0,2.05.73c-.73.33-1.87.84-3.5,1.42A10.73,10.73,0,0,1,52.11,97.92Zm5.48-17.7a21.08,21.08,0,0,1,.87,5.3,12.3,12.3,0,0,1-.34,3.16c-.12.54-.25,1.15-.38,2.07a5.29,5.29,0,0,0,.85,3.6c-.35-.15-.71-.32-1.07-.5A10,10,0,0,1,56.2,91c-.24-1.3-.09-2.33.31-5.07l.17-1.18a14,14,0,0,0-.73-6C56.53,79.25,57.08,79.72,57.59,80.22ZM55,78a14.57,14.57,0,0,1,1,6.65l-.17,1.18c-.41,2.74-.57,3.87-.31,5.28a7.8,7.8,0,0,0,.83,2.08c-.31-.18-.62-.38-.94-.59l-.54-.38c-1-.91-1.37-2.54-1.39-5.69a23,23,0,0,1,.16-3.19,7.32,7.32,0,0,0-.05-2.54,32.85,32.85,0,0,0-1.36-4.58A29.71,29.71,0,0,1,55,78ZM43.57,95.19c-.88-.35-1.75-.72-2.61-1.12a66.49,66.49,0,0,0,8.6-.5,30,30,0,0,0,3.54-.79.47.47,0,0,0,0,.16c.09.38.59.52,1.12.62.21,0,.49.06.77.09-.57.19-1.53.45-3.12.84-3.09.75-8.23.3-8.29.29ZM41.54,80a.36.36,0,0,0,.17-.06l.55.45,0,.17.17,0,.48.42a11.43,11.43,0,0,1-2.22.26,46.12,46.12,0,0,1-5.81-.62c2.38-.14,4.85-.41,6-.54Zm-1,1.88h.17a10,10,0,0,0,2.7-.37l0-.14c.65.6,1.24,1.19,1.79,1.79a16.47,16.47,0,0,0-3.1,0c-2.06.13-6.44,0-9.06-.06-2-.05-2.09-.06-2.19,0-.34-.89-.65-1.77-.94-2.62a6.48,6.48,0,0,0,.88.13h.06C33.18,81,38.6,81.89,40.55,81.89Zm5.29-2.16c-.6-1.83-1.72-5.83-2.09-7.11L45,73c-.13,1.19,1,4.43,1.06,4.47l.39.22a.31.31,0,0,0,.2-.09c.17,1.09.3,2.23.42,3.28l.14,1.16a23.38,23.38,0,0,0,.61,3.16c-.47-.57-1-1.14-1.47-1.71A11.34,11.34,0,0,0,45.83,79.73Zm7.6,11.4-.36-.3a9.19,9.19,0,0,1-2-5.49A17.21,17.21,0,0,1,51,83.07,9,9,0,0,0,50.66,80c-.49-1.84-1.33-4.25-1.76-5.44.85.38,1.67.79,2.45,1.21A31.64,31.64,0,0,1,53,80.95a6.7,6.7,0,0,1,0,2.35,23.92,23.92,0,0,0-.17,3.27A14,14,0,0,0,53.44,91.14ZM50,80.13A8.36,8.36,0,0,1,50.37,83a17.8,17.8,0,0,0,.05,2.35,12.9,12.9,0,0,0,.85,3.73c-.83-.85-1.58-1.72-2.33-2.61a22.08,22.08,0,0,1-1-4.54l-.14-1.15c-.17-1.47-.36-3.13-.66-4.59l.07-.44-.17,0a9.85,9.85,0,0,0-.77-2.32q.94.34,1.84.72C48.33,74.87,49.44,77.93,50,80.13Zm-3.6-3.91,0,.15c-.21-.71-.49-1.7-.65-2.42A10.89,10.89,0,0,1,46.42,76.22ZM45.82,84,46,84l.41.47c-.27,0-.65-.09-1.2-.14l.21-.08A1.36,1.36,0,0,0,45.82,84ZM31,83.42l0,.3c.11,0,1,0,1.93,0,2.63.07,7,.2,9.12.06a21.16,21.16,0,0,1,2.66,0l-.61.18c-.47.13-.73.21-.71.52s.23.33.44.38h-1.7c-3.49,0-9.28.31-10.49.38q-.46-1-.85-2Zm11.15,2.1c4,0,4.31,0,4.66-.27l.1-.07.86,1,.39.47-.31,0c-.59.08-1.69.24-3.4.39-2.87.26-10.24.51-11.53.56-.34-.57-.67-1.16-1-1.77C33.6,85.78,38.94,85.49,42.18,85.51Zm6.29,1.77h0Zm.24,0,.08.1-.12,0Zm1.4,1.59c.38.41.78.82,1.19,1.22a7.64,7.64,0,0,1-3.52.73c-3.44.12-7.46.13-12,0H35.6l-.22-.21C38.78,90.58,49.26,89.32,50,89A.61.61,0,0,0,50.11,88.88Zm-8,2.94v-.24c2,0,3.92,0,5.66-.1,2.51-.09,3.59-.64,4-.91.27.25.55.5.83.74l.15.16,0,0,.66.53h0a28.49,28.49,0,0,1-4,.92,76.59,76.59,0,0,1-9.64.49v.11a24.9,24.9,0,0,1-3.3-2Zm12.21,1.09a3,3,0,0,1-.48-.12l.13-.1.19-.14.3.21.15.15,0,0,.11.08ZM43,72.41c.07.26,1.5,5.38,2.2,7.53a10.69,10.69,0,0,1,.5,2.84,33.63,33.63,0,0,0-2.83-2.72,11.75,11.75,0,0,0-1.11-3.82c-.06-.71-.22-2-.52-4.29Q42.14,72.16,43,72.41Zm-10.47-2a69.34,69.34,0,0,1,8,1.38c.15,1.12.32,2.45.43,3.47a2,2,0,0,0-.73-.4c-.32-.09-.47,0-.55.15-.19.31.09.59.76,1.28a6.05,6.05,0,0,1,.68.77l.32.14a12.08,12.08,0,0,1,.63,2.26c-.46-.37-.95-.74-1.47-1.12l-1.42-1a.47.47,0,0,0,0-.07c.47-1.6-2.5-5.27-2.84-5.68L35.9,72a21.91,21.91,0,0,1,2,2.83.37.37,0,0,0-.2,0c-.22,0-.34.22-.41.47l-.36-.53a24,24,0,0,0-1.6-2.18c-1.47-1.74-2.31-1.84-2.48-1.84h0v.66s.69.07,2,1.6a23.43,23.43,0,0,1,1.55,2.12l.26.38-.28-.06-1.75-1.08c0-.09-.14-.17-.4-.24-1.68-1-3.12-1.81-4.13-2.37l-.25-.14.16-.52-.92-.28A5.68,5.68,0,0,1,32.53,70.38Zm5.56,6.18-.53-.35a.42.42,0,0,0,.25-.34l.12.3ZM34.25,75l.06,0,.39.24L34,75.1Zm-5.9-3.46c.3.18.73.42,1.38.79s1.76,1,2.92,1.66h-.89v.66c.49,0,1,0,1.46,0l-.29.09c-.47.14-.73.22-.7.53s.36.35.6.38l.42,0c1.28.13,2.22.25,2.84.36l.21.13a5.4,5.4,0,0,1-2.64.14l-.13.65a5.67,5.67,0,0,0,1.15.12A5.94,5.94,0,0,0,37,76.63c1,.68,2.13,1.41,3.25,2.21l0,0a9.94,9.94,0,0,0-2.11,0c-2.36.22-8.2-1-9.26-1.23C28.16,75.32,27.55,72.87,28.35,71.51Zm.8,6.83c1.71.36,6.83,1.38,9.08,1.17a9.61,9.61,0,0,1,1.82,0,58.75,58.75,0,0,1-9.17.48l-.9-.13h0a.6.6,0,0,0-.28,0v0l-.31-.9Zm4.21,10c2-.07,8.5-.31,11.18-.54,1.72-.15,2.84-.31,3.43-.4h0a.64.64,0,0,0,0,.26.45.45,0,0,0,.39.33,4.92,4.92,0,0,1,1.14.47C47.8,88.81,37,90.14,34.74,90V90A13.06,13.06,0,0,1,33.36,88.29Zm11,7.21c.65,0,1.61.09,2.71.09a22.44,22.44,0,0,0,5-.46,17.9,17.9,0,0,0,4.14-1.26l.87.48v0h0l.7.34a13.51,13.51,0,0,1-4.33,1.58,12.78,12.78,0,0,1-5.19.3.61.61,0,0,0-.29,0l.08.35-1.42-.54Zm18.74,4.61v0A32.65,32.65,0,0,1,53,98.63a12.6,12.6,0,0,0,4.22-.83c1.11-.4,2-.76,2.69-1.06a10.86,10.86,0,0,1-3.21,1.63L57,99a10.6,10.6,0,0,0,4.67-2.88l.06-.06h0c.52.11,1,.18,1.31.23a24.09,24.09,0,0,0,1.58,3.92A2.77,2.77,0,0,1,63.11,100.12ZM61,69.34c-.09-.33-.17-.65-.23-1l0-.12a32.38,32.38,0,0,0,8.79,4.26l1.08.35a11.43,11.43,0,0,1,2.53,1c.17.6.35,1.21.53,1.8C69.5,74.85,63.44,72,61.11,69.25Zm.75-19.12a15.86,15.86,0,0,0,2.52,3l1.33,1.26c.69.66,1.41,1.34,2.19,1.95a15.39,15.39,0,0,0,1.72,1.15l.07.4a10.13,10.13,0,0,1-3.31-1.69C64.34,55,62,52.83,61.54,51,61.6,50.72,61.68,50.47,61.75,50.22Zm7.81-5.84-.07.45c-.27,1.72-.56,3.5-.67,4.6,0,.21,0,.42-.08.62A8.66,8.66,0,0,1,68.53,48,17.26,17.26,0,0,1,69.56,44.38Zm2.77,3.15.15-4.07c.41.81.79,1.68,1.15,2.57a48.2,48.2,0,0,1-3.46,9.62,1.94,1.94,0,0,1-.27.43c-.11-.62-.22-1.27-.33-1.91l1.9-3.54A7.13,7.13,0,0,0,72.18,49,7.16,7.16,0,0,0,72.33,47.53Zm-2.22,9.64h0L70,56.81a1.72,1.72,0,0,0,.73-.9,58.43,58.43,0,0,0,3.29-8.76c.24.66.48,1.33.7,2a17.14,17.14,0,0,1-1.12,3,17.58,17.58,0,0,0-1.08,2.88,8.44,8.44,0,0,1-.77,2.29,4.43,4.43,0,0,1-1.37,1.47C70.31,58.29,70.21,57.73,70.11,57.17Zm-1.57-5c.05.24.11.48.15.7.08.45.15.88.23,1.32-1.39-1-4.08-4.42-5.31-6-.43-.55-.69-.88-.87-1.07.08-.21.15-.42.24-.62L64.08,48c.53.71,1.07,1.42,1.42,1.87a6.51,6.51,0,0,0,1,1.06,6.72,6.72,0,0,0,.8.53,3.39,3.39,0,0,1,1.08.85ZM63.05,49l.18-.12c2.2,2.78,4.6,5.72,5.83,6.23l.29,1.64c-.4-.25-.78-.52-1.15-.8-.76-.59-1.46-1.26-2.15-1.91l-1.33-1.26c-1-1-2.62-2.75-2.68-3.53h0c.13-.41.25-.81.39-1.21Zm2.85,7.87a10.11,10.11,0,0,0,3.81,1.83c.08.43.16.85.25,1.28l-1.73-.61c-.36-.13-.72-.25-1.07-.4A13.74,13.74,0,0,1,61,53.48q.12-.67.27-1.34C62.41,54.39,65.26,56.41,65.9,56.84Zm5.38,9.5-3.68-1.41C65.15,64,61.77,62.57,60.24,61c0-.29,0-.59,0-.89a66.88,66.88,0,0,1,6.45,3.53,7.71,7.71,0,0,0,4,1.3l.29,0Zm.82.64.06,0,0,0Zm-.64-3,.46.37A19.44,19.44,0,0,0,74.79,60c.17-.38.31-.77.45-1.16s.52-1.22.86-1.94c.19-.4.38-.81.55-1.19.11.58.2,1.17.28,1.76-.28.48-.74,1.21-1.23,2-.82,1.31-1.67,2.67-2,3.34L72,66.36Q71.7,65.19,71.45,64Zm-4.09,1.53,4.09,1.57.07.3,0,0,.06.12.14.65c-3.74-.88-8.54-2.6-11.42-4.66q0-.8,0-1.63A27.82,27.82,0,0,0,67.36,65.54Zm4.5,3.38L72.12,70a14.58,14.58,0,0,1-3-.54,16.41,16.41,0,0,1-3.76-2,13.55,13.55,0,0,0-2.73-1,18.63,18.63,0,0,1-2.29-.82c0-.41-.06-.83-.09-1.26A38.28,38.28,0,0,0,71.86,68.91Zm.4-1.19a8.38,8.38,0,0,0,3.16-3.43,12.83,12.83,0,0,1,.87-1.42,15.3,15.3,0,0,0,.93-1.53q.05,1.27.07,2.54l-.16,0c-.59,2-2.69,4.39-4.38,5.75l.41.51a18,18,0,0,0,2.76-2.8,7.46,7.46,0,0,1-3,3.26C72.7,69.62,72.48,68.67,72.26,67.72ZM73,70.62l.3.52a8.09,8.09,0,0,0,2-1.59A4.79,4.79,0,0,1,73.36,72l.37.55a5.46,5.46,0,0,0,2.18-3l-.55-.15a8.12,8.12,0,0,0,1.4-2.32l-.53-.21a11.72,11.72,0,0,0,1.07-1.73v0c0,.81,0,1.63,0,2.43,0,.35,0,.72,0,1.08a12.77,12.77,0,0,1-3.65,4.69l.12.17-.12-.07Q73.32,72.06,73,70.62Zm4.5,5.63-2.13,2.16q-.43-1.17-.81-2.35l.34.14a3.53,3.53,0,0,1,1.33-1.34,5.11,5.11,0,0,0,1.27-1.16C77.45,74.53,77.45,75.39,77.45,76.25Zm-1.85,2.9.18-.05,1.65-.48c0,.38,0,.76,0,1.15a5,5,0,0,0-.9.38L75.93,80C75.82,79.73,75.71,79.44,75.6,79.15Zm1.83-.57-1.27-.09,1.28-1.3C77.44,77.65,77.44,78.12,77.43,78.58Zm0-5.7-.29-.07c-.14.64-.73,1.05-1.35,1.5a4.66,4.66,0,0,0-1.41,1.37c-.19-.61-.38-1.23-.56-1.85l.11-.15.17.24A14,14,0,0,0,77.4,70.1Q77.42,71.46,77.44,72.88ZM77.15,60,77,60a7.52,7.52,0,0,1-1.27,2.48,13.28,13.28,0,0,0-.92,1.5,7.73,7.73,0,0,1-2.35,2.81l1.81-3.65c.32-.64,1.2-2,2-3.28L77,58.61Q77.1,59.33,77.15,60Zm-.71-5.27-.09,0c-.17.48-.52,1.21-.85,1.92s-.7,1.48-.88,2-.27.76-.43,1.13a18.76,18.76,0,0,1-2.76,4.14l-.13-.61c-.07-.35-.15-.71-.22-1.07l0-.17H71v0a8,8,0,0,0,3.1-4.28c.45-1.2,1.3-3.57,1.72-5.09l.14.46C76.18,53.67,76.32,54.22,76.44,54.78Zm-.81-2.87-.24-.05a58.41,58.41,0,0,1-1.87,5.68,7.76,7.76,0,0,1-2.62,3.84c-.12-.6-.24-1.22-.36-1.84a5.08,5.08,0,0,0,1.81-1.83,9.08,9.08,0,0,0,.84-2.46,17.27,17.27,0,0,1,1-2.76c.32-.73.64-1.47.88-2.18ZM71.3,41.41c.27.4.53.83.78,1.27h-.23l-.18,4.83a6.59,6.59,0,0,1-.14,1.3,6.68,6.68,0,0,1-.65,1.5L69.39,53.1l-.05-.31c-.08-.48-.2-1-.32-1.52a4.21,4.21,0,0,0,.46-1.78c.11-1.08.39-2.85.66-4.57.24-1.52.49-3.08.62-4.19A5.48,5.48,0,0,1,71.3,41.41Zm-7,2.44c1.46-2.47,3.16-4,4.54-4h.07a2.19,2.19,0,0,1,1.24.41h0a22.27,22.27,0,0,1-1.1,3.6l-.28.8a5.11,5.11,0,0,1-.72-1.2l-.61.25a5.79,5.79,0,0,0,1.08,1.67,11.2,11.2,0,0,0-.65,2.56,6.3,6.3,0,0,0,0,.82,7.38,7.38,0,0,0-.7-.42,3.25,3.25,0,0,1-1.09-.78,3.33,3.33,0,0,1-.36-.64l-1.18-2.56-.6.28,1.18,2.56a3.89,3.89,0,0,0,.44.77,3.79,3.79,0,0,0,1.3,1,3.69,3.69,0,0,1,1,.69l.08-.07c.08.53.2,1.07.33,1.6l-.12.12,0,0c-.19-.14-.4-.26-.6-.38a6.19,6.19,0,0,1-.72-.48,6,6,0,0,1-.89-1c-.35-.44-.88-1.14-1.41-1.85s-1-1.29-1.32-1.74A20.83,20.83,0,0,1,64.32,43.85ZM66.9,59.54c.36.15.73.28,1.15.43l2.05.73.25,1.24a17.59,17.59,0,0,1-6.4-2.45,15,15,0,0,1-3.4-3c.08-.69.17-1.38.28-2.06A14.71,14.71,0,0,0,66.9,59.54Zm-3.31.5a18.25,18.25,0,0,0,6.9,2.59l.17.82.17.81a6.88,6.88,0,0,1-3.77-1.18,64.2,64.2,0,0,0-6.76-3.68q.05-1,.15-2A17.94,17.94,0,0,0,63.59,60Zm-1.11,7A13.65,13.65,0,0,1,65,68,16.94,16.94,0,0,0,69,70.09a16,16,0,0,0,3.32.59q.29,1.18.62,2.34a15.79,15.79,0,0,0-2.08-.77l-1.06-.35c-4.5-1.59-7.58-3.15-9.17-4.65,0-.29-.08-.59-.11-.89C61,66.6,61.74,66.82,62.48,67.06Zm-1.11,3.41c3.05,2.87,9,5.31,12.56,6,.21.64.42,1.27.65,1.9a17.12,17.12,0,0,1-8-3.45,7.2,7.2,0,0,0-1.66-1.48L62.7,72.09l1.79,1.83a17,17,0,0,0,1.6,1.44c.31.36.61.74.91,1.11a10.9,10.9,0,0,0,2.62,2.66,4.78,4.78,0,0,0,2.53.69A10.75,10.75,0,0,0,75,79.33l.23.6h-.13a3,3,0,0,1-.71.05h-5a2.48,2.48,0,0,1-.7-.06.21.21,0,0,1,.07.19.23.23,0,0,1-.1.18l-.17-.64a.46.46,0,0,0-.39.43h0A25.43,25.43,0,0,1,61.37,70.47ZM74,78.91a5.1,5.1,0,0,1-4-.34,8.19,8.19,0,0,1-2-1.89A17.79,17.79,0,0,0,74,78.91Zm-4,2.75c-.47-.32-.93-.67-1.38-1a4,4,0,0,0,.69.05h5a3.31,3.31,0,0,0,.87-.08l.23,0c.29.69.58,1.38.9,2.06l.6-.28c-.25-.53-.48-1.08-.71-1.62l.21.06.15,0,.13-.08a3.72,3.72,0,0,1,.66-.31c0,1.08-.06,2.16-.1,3.26C75.07,84.09,72.56,83.37,70,81.65Zm7.52,2.25h.12l-.09.14Zm-8.22,17,0-.11c.12.15.46.31,1.52.68.3,1.39.55,2.53.94,3.95a24.81,24.81,0,0,0,1,3A11.37,11.37,0,0,1,69.35,100.87Zm5.42,1.82a10.06,10.06,0,0,1,1.68,3.4A35.3,35.3,0,0,0,79,112.66a24.74,24.74,0,0,1-2.85-1.6l.05,0a73.39,73.39,0,0,1-2.11-8.58Zm0-.68-1.31-.42a14.44,14.44,0,0,1,2.69-1.38c2-.8,9.42-4.52,9.73-4.68l-.06-.13c.68.18,1.32.39,1.93.61a72.4,72.4,0,0,0-10.55,4.73A12.09,12.09,0,0,1,74.81,102Zm1.13-2.41a12.94,12.94,0,0,0-3.23,1.74L71.58,101a9.65,9.65,0,0,1,3.68-2.68,22.21,22.21,0,0,0,2.13-1.2c.27-.18.53-.37.8-.56a6,6,0,0,1,2.63-1.34l-.08-.6a23.2,23.2,0,0,1,4.35.63C83.34,96.09,77.61,98.93,75.94,99.6Zm-2.59,2.64a74.34,74.34,0,0,0,2,8.28q-.61-.44-1.18-.91a14,14,0,0,1-.71-1.46,24.09,24.09,0,0,1-.95-2.94c-.34-1.27-.58-2.32-.85-3.53Zm6.53,10.84c.16-.22.14-.87-.55-3.21l-.63.19c.18.62.31,1.1.4,1.47a47.17,47.17,0,0,1-2-5.62A11.86,11.86,0,0,0,75.8,103l.82.26v0h.14l.57.18c.39.83,1.83,3.92,2.6,6a31.57,31.57,0,0,0,2.12,4.4C81.31,113.66,80.59,113.39,79.88,113.08ZM94.06,99a32.46,32.46,0,0,0-8.08,1.4,34.42,34.42,0,0,0-5.19,2.5,12.41,12.41,0,0,1,3.68-2.41,66.14,66.14,0,0,0,6.27-3.23C91.85,97.84,93,98.4,94.06,99ZM85.8,106.3l0,.06a2.49,2.49,0,0,0,.43.14,37.09,37.09,0,0,0,2.4,6.4,6.89,6.89,0,0,0,3,2.63q-.91,0-1.79-.09v-.2s-1.44-.11-3.43-3.74a43.87,43.87,0,0,1-2.65-5.89Zm.27,8a14.33,14.33,0,0,1-3.53-4.6c-.49-1.31-1.26-3.86-1.63-5.08l2.08.69a44.45,44.45,0,0,0,2.87,6.47,10.9,10.9,0,0,0,2.71,3.5c-.83-.09-1.64-.21-2.43-.35l.28-.28Zm-5.54-10.5.5-.28a34.18,34.18,0,0,1,5.17-2.51,35.54,35.54,0,0,1,8.86-1.41h0a45.49,45.49,0,0,0-9,3,35.48,35.48,0,0,1-3.74,1.75v0Zm-1-.33-1.3-.42a8.58,8.58,0,0,0,1.79-.77c.45-.25.85-.46,1.22-.64A6,6,0,0,0,79.51,103.52ZM83,114.21a33.54,33.54,0,0,1-2.44-4.93c-.65-1.77-1.78-4.26-2.36-5.5l2,.63c.27.9,1.2,4,1.77,5.56a14.89,14.89,0,0,0,3.7,4.85l.07.06-.41-.08C84.52,114.65,83.75,114.44,83,114.21Zm9.43,1.33.1-.39a6.24,6.24,0,0,1-3.34-2.6A34,34,0,0,1,87,106.71l1.64.58.21.07A23.84,23.84,0,0,0,91,112.41c1.23,2.19,2.33,2.9,2.93,3.12Zm1.25-6.61h0l1.12.31a14.11,14.11,0,0,0,1.58,3.61,24,24,0,0,0,2,2.45l-.91.08.19-.34a12.89,12.89,0,0,1-3.13-2.43,12.44,12.44,0,0,1-2-4l1.16.34Zm-1.79-1.24a19.19,19.19,0,0,0,2.31-1c3.07-1.48,3.64-1.56,5.22-1.31a8.45,8.45,0,0,1,2.5.82,8.26,8.26,0,0,0-1.46-.14,7.56,7.56,0,0,0-3.11.85c-.38.17-.8.35-1.29.54a13.58,13.58,0,0,1-2.3.76Zm-.13.65A13.26,13.26,0,0,0,94,113a12.36,12.36,0,0,0,3,2.39c-.92.06-1.79.1-2.64.12l0-.54s-1.29-.14-2.84-2.9a24.7,24.7,0,0,1-2-4.47Q90.67,108,91.75,108.33Zm9,6.81c-.56,0-1.07,0-1.51.08a25.44,25.44,0,0,1-2.29-2.75,12.62,12.62,0,0,1-1.36-3l1.83.47a9.75,9.75,0,0,0,1.47,2.74,30.76,30.76,0,0,0,2.45,2.46ZM100.6,110a7.12,7.12,0,0,1,1.56-.6,5.55,5.55,0,0,1,2.44-.07l-.67,0a4.31,4.31,0,0,0-2.33.85Zm-.87.48a3.38,3.38,0,0,0,1.09,1.79,33.1,33.1,0,0,0,4.06,2.48,17.08,17.08,0,0,1-2.61.35,36.12,36.12,0,0,1-2.87-2.83,8.51,8.51,0,0,1-1.2-2.13Zm7.61,3a3.62,3.62,0,0,1-1.56,1,40.32,40.32,0,0,1-4.51-2.7,3.2,3.2,0,0,1-.81-1.15c3.76.81,6.56,1.2,7.41,1.31A2.31,2.31,0,0,1,107.33,113.5Zm.47-2.25c-.8-.11-2.71-.39-5.25-.88A3.67,3.67,0,0,1,104,110a13.14,13.14,0,0,1,1.9,0l.08-.66a9.6,9.6,0,0,0-1.27,0l.17-.62a6.09,6.09,0,0,0-2.85,0,7.61,7.61,0,0,0-2.35,1l-1.76-.41c.41-.17,1-.41,1.84-.73a9.85,9.85,0,0,1,4.1-.74l.07-.66a10.37,10.37,0,0,0-4.4.78c-1.63.63-2.34.94-2.64,1.09l-1.88-.5c.35-.12.78-.27,1.32-.49s.92-.38,1.31-.55a6.69,6.69,0,0,1,2.83-.8h0a7.3,7.3,0,0,1,2.38.4l.24-.61a6.34,6.34,0,0,0-.85-.24l.3-.48a8.81,8.81,0,0,0-3-1.05c-1.72-.27-2.4-.18-5.61,1.37-2.59,1.25-3.15,1.13-3.17,1.12l0,.06-1.87-.64-.41-.14a9.11,9.11,0,0,0,2.16-.63,23.11,23.11,0,0,0,2.78-1.43A6.7,6.7,0,0,1,96,103.37a23.59,23.59,0,0,1,4.66.08l0,0C103.34,105.36,107.25,108.18,107.8,111.25Zm-11.86-8.53A7.3,7.3,0,0,0,93,103.89a22.19,22.19,0,0,1-2.71,1.39,6.92,6.92,0,0,1-3.63.63l-1.24-.43a11,11,0,0,0,3.22-1.16,16.07,16.07,0,0,1,5.6-2.26,5.54,5.54,0,0,1,3.1.09l.3-.59a5.93,5.93,0,0,0-3.52-.15,16.69,16.69,0,0,0-5.82,2.34A12.18,12.18,0,0,1,84.13,105l-.81-.27c.69-.29,1.83-.8,3.12-1.5a42.56,42.56,0,0,1,9.5-3.07c1.24.78,2.48,1.6,3.71,2.51A19.89,19.89,0,0,0,95.94,102.72Zm-6.13-5.84c-.91.4-2.51,1.19-5.46,2.68-.66.33-1.21.57-1.8.82a25.36,25.36,0,0,0-2.87,1.38,6.06,6.06,0,0,1-2.81.92l-1.09-.35a14,14,0,0,0,1.82-1,65.06,65.06,0,0,1,11.2-4.88C89.14,96.56,89.47,96.73,89.81,96.88ZM74.37,95.59a14.38,14.38,0,0,1,6.17-1A6.94,6.94,0,0,0,77.8,96c-.26.19-.51.37-.77.55A21.62,21.62,0,0,1,75,97.7a9.88,9.88,0,0,0-4,3,6.06,6.06,0,0,1-1-.42l-.21.18h0l-.09-.23A9,9,0,0,1,74.37,95.59Zm9.68-7.25c-1.73-.52-3.25-1-3.29-2.92.57-.78,1.12-1.56,1.67-2.35v0l.3-.2,0,0v.28a14.57,14.57,0,0,1,2,.59,14.08,14.08,0,0,0,1.46,2.8,31.69,31.69,0,0,1,2,4.1c-.49-.41-1-.82-1.49-1.2A8.2,8.2,0,0,0,84.05,88.34Zm4.86,3,.19-.07a38.68,38.68,0,0,0-2.36-5,15.84,15.84,0,0,1-1.18-2.16l.68.23a13,13,0,0,1,1.11,2.08c.19.45.43,1,.69,1.68.66,1.61,1.24,3,1.72,4l-.38-.33Zm-1.2-6.51a6,6,0,0,1,1.44,2,23.25,23.25,0,0,1,1.07,3.12A33.3,33.3,0,0,0,91.4,93.4L91,93.09l.07-.08c-.5-.44-1.67-3.32-2.45-5.22-.26-.65-.51-1.24-.7-1.69a15.21,15.21,0,0,0-.73-1.48Zm11.9-2.93.2-.26,1.24.55a15.59,15.59,0,0,0-2.83.74c-1.14.41-2.92,2.7-3.5,3.48l-.22-.07v0l-1.4-.45a26.06,26.06,0,0,1,3.41-3C98.75,81.33,99.61,81.87,99.61,81.87Zm3.8,1.52a6.91,6.91,0,0,0-3.95,1A14.86,14.86,0,0,0,96.6,87l-.06,0-1.18-.36c.76-1,2.25-2.81,3.08-3.11a14.37,14.37,0,0,1,2.9-.74l.08.45a4.15,4.15,0,0,0,1.15-.32ZM101,90.46c.24.37.44.71.63,1a7,7,0,0,0,1.67,2.12,33.48,33.48,0,0,1,3.07,3.5l-.63-.1c-.4-.56-2.06-2.88-3.11-3.45s-1.37-.9-2.81-3.44c-.42-.74-.75-1.27-1-1.66l1,.38A13.54,13.54,0,0,1,101,90.46Zm-3.32-2.41,0,.05s.41.24,1.6,2.32c1.44,2.54,1.84,3,3.07,3.69a12,12,0,0,1,2.48,2.7l-1.1-.25,0,0s-2.7-2-3.78-3.13a6.88,6.88,0,0,1-1.31-2.06A24.72,24.72,0,0,0,97.38,89a9.19,9.19,0,0,0-1-1.35Zm3.19.46-.68-.27h0l-.83-.31a7.09,7.09,0,0,1,2.43-1.9,16.26,16.26,0,0,1,4.09-.43v-.5a13.76,13.76,0,0,1,1.1,1,11.77,11.77,0,0,0-4,.57A8.44,8.44,0,0,0,100.91,88.52Zm.66-3.09a7.9,7.9,0,0,0-2.84,2.27l-1.43-.48A14.81,14.81,0,0,1,99.85,85c1.83-1.29,4.67-.84,4.7-.84v0q.6.4,1.16.86A15.93,15.93,0,0,0,101.57,85.43Zm-8.64,1.12a11.81,11.81,0,0,1,2.19,2.93A17,17,0,0,0,98,94a16.7,16.7,0,0,0,1.74,1.61,10,10,0,0,0-1.58-.23A47.57,47.57,0,0,1,94,88.91c-.55-1-1-1.9-1.39-2.45Zm.5,2.66a51.86,51.86,0,0,0,3.92,6.18h0a44.62,44.62,0,0,1-4.11-5,36.16,36.16,0,0,1-2.43-4.3l-.15-.31,1.05.35h0S92.49,87.41,93.43,89.21Zm-2,1.08a17,17,0,0,1,1.12,3.79,17.59,17.59,0,0,1-1.66-4.35l-.3-1A15.06,15.06,0,0,0,91.39,90.29Zm-1.65-3.8A9.19,9.19,0,0,0,89,85.24l.63.21A3.53,3.53,0,0,0,89.74,86.49Zm3.37,8.14c.32-1.06-1.07-4.54-1.16-4.69a14.32,14.32,0,0,1-1.18-2.36,32.3,32.3,0,0,0,1.87,3.18,44,44,0,0,0,3.94,4.83A4.93,4.93,0,0,1,93.11,94.63Zm8,1.27.06-.1a16.77,16.77,0,0,1-2.66-2.28,16.51,16.51,0,0,1-2.77-4.33A10.81,10.81,0,0,0,94.21,87l.58.18a6.13,6.13,0,0,1,2,2.18,24,24,0,0,1,1.25,2.31,7.5,7.5,0,0,0,1.44,2.24c.65.66,1.83,1.61,2.72,2.31l-.2-.05Zm6.11,1.26.07-.05a40,40,0,0,0-3.52-4,6.43,6.43,0,0,1-1.51-1.94c-.19-.31-.39-.64-.63-1s-.39-.59-.55-.82l1,.41c.14.26.48.83,1.29,2.05a39.3,39.3,0,0,0,5.22,5.31l.43-.5a39.8,39.8,0,0,1-5.1-5.18c-.35-.54-.61-.93-.8-1.24l.89.4a8,8,0,0,0,1.13,1.86,4.89,4.89,0,0,0,1.78,1.42l.15-.37c.91,1,2.25,2.81,2.58,3.24A4.09,4.09,0,0,1,107.19,97.15Zm-1.89-6a4.51,4.51,0,0,0,.78,1.32,5,5,0,0,1-.48-.51,7.3,7.3,0,0,1-.68-1Zm-1-1.2-.93-.42a4.68,4.68,0,0,1,1.33-.92c.82-.33,3.21-.92,3.53-1q.33.48.62,1c-.68.12-2.76.48-3.32.61A2.12,2.12,0,0,0,104.3,90Zm5.79,6.28a39.27,39.27,0,0,0-3.18-3.85,3.42,3.42,0,0,1-.63-.75c2.11,1.06,3.45,1.86,3.48,1.88l.34-.56s-2.09-1.25-5.17-2.7a1.59,1.59,0,0,1,.76-.38c.63-.15,3.4-.62,3.49-.64A14.3,14.3,0,0,1,110.5,94,3.19,3.19,0,0,1,110.09,96.26Zm-2.27-9.2c-.74.18-2.62.66-3.36,1a5.65,5.65,0,0,0-1.73,1.25l-1.16-.49a7.33,7.33,0,0,1,1.72-1.5,12.65,12.65,0,0,1,4-.49v-.36C107.47,86.63,107.65,86.84,107.82,87.06Zm-9.09-5.9a6.45,6.45,0,0,0-2.61,1.25,26.41,26.41,0,0,0-3.72,3.28L91,85.23c.61-.72,1.85-2.18,2.55-2.89a7.83,7.83,0,0,1,3.53-1.83l1.45.57Zm-2.64-1a7.7,7.7,0,0,0-3,1.73c-.8.82-2.24,2.52-2.75,3.13l-1.28-.44c.75-.63,2.17-1.87,3.12-2.85a11.32,11.32,0,0,1,2.86-1.92Zm-4.37,1.12c-1.07,1.11-2.81,2.59-3.37,3.06L88,84.21l-.09-.06v0l-.57-.2A7.72,7.72,0,0,0,89,82.52c.85-1,2.42-2.6,3.22-3.41q1,.17,1.9.43A10.55,10.55,0,0,0,91.72,81.26ZM91.43,79c-.85.87-2.15,2.22-2.92,3.1a6.23,6.23,0,0,1-2,1.61,28,28,0,0,0-3.72-1.17c.39-.57.76-1.15,1.14-1.73A9.9,9.9,0,0,1,91.43,79Zm36-51.07a12.36,12.36,0,0,0-1,1.55,4.76,4.76,0,0,0-.54,1.53l-.37.42c.06-.21.12-.43.21-.66a56.64,56.64,0,0,1,3.63-6,3.16,3.16,0,0,1,1.22.38c-.44.61-1.65,2.25-3.37,4.32a10.29,10.29,0,0,1,.71-1.09Zm1.19-3.24a51,51,0,0,0-3.5,5.85,9.28,9.28,0,0,0-.46,1.86l-.9,1c.08-.35.18-.76.31-1.27.56-2.21,3.27-6.57,3.79-7.39C128.11,24.66,128.37,24.66,128.6,24.66Zm-2.18,9.1.33,0A24.16,24.16,0,0,0,130.82,32c-.16.63-.36,1.25-.57,1.86a17.58,17.58,0,0,1-4.19,1,6,6,0,0,1-2.17-.68l.88-.93H125l0,0A2.12,2.12,0,0,0,126.42,33.76Zm1.86,4.36a13.52,13.52,0,0,0-2.4,0l0,.48c-.59,0-1.28.09-2.06.12h-.11a6.67,6.67,0,0,1-3.4-1.22l.8-.72.11.06a2.26,2.26,0,0,0,.13-.28l.44-.41a10.18,10.18,0,0,0,3.09,1.31,3.88,3.88,0,0,0,.62,0,18.31,18.31,0,0,0,3.3-.44C128.65,37.45,128.47,37.79,128.28,38.12Zm-7.79,8.26-.3,0a7,7,0,0,1-3.94-.46c-1.06-.53-3-1.69-4-2.24l1.42-1.09A31.15,31.15,0,0,0,119,44.81a9.12,9.12,0,0,0,2.56.43l.51,0C121.58,45.62,121,46,120.48,46.38Zm-5.12,2.41a13.7,13.7,0,0,1-4.17-1.31,8.71,8.71,0,0,0-2.45-1l.62-.49,0,0,.07-.1.33-.26c.78.3,3.28,1.27,4.89,2.08a6.14,6.14,0,0,0,2,.64c-.38.16-.76.31-1.15.45ZM116.19,30a50.2,50.2,0,0,0-2.63,8.43c-.35,2.33-.78,4-.78,4h0l-1.15.89.07-.52a42.06,42.06,0,0,1,1-5.64,29.39,29.39,0,0,1,3.09-6.84Zm6.67,4.24L121.8,35.3c.08-.28.16-.59.25-1s.22-1,.31-1.37a7.48,7.48,0,0,1,.92-2.71c.65-1,2.78-4.68,3.23-5.45l.52-.06c-.88,1.42-3.08,5.1-3.6,7.16C123.11,33.1,123,33.81,122.86,34.25Zm-3.22,3c.15-.53.32-1.25.51-2.27a10.11,10.11,0,0,1,1.26-3.68A5.93,5.93,0,0,0,122,30a26.32,26.32,0,0,1,1.56-4.36,17.88,17.88,0,0,1-.17,2.74l.23,0c-.38.64-.72,1.2-.91,1.49a8.08,8.08,0,0,0-1,2.93c-.09.4-.18.85-.3,1.35a19,19,0,0,1-.59,2Q120.24,36.76,119.64,37.26Zm4.51-9.72a9.75,9.75,0,0,0,0-2.27q.72-.19,1.48-.32Zm-1.34-1.85a30.51,30.51,0,0,0-1.44,4.13,5.31,5.31,0,0,1-.54,1.17,10.79,10.79,0,0,0-1.33,3.88c-.51,2.77-.86,3.16-.88,3.17l0,0c-.43.35-.87.68-1.31,1l-.13.1a10.36,10.36,0,0,0,.66-2,28.54,28.54,0,0,0,.5-3.08,8,8,0,0,1,.66-2.77c.78-1.61,2.85-5.19,2.87-5.22l0,0C122.17,25.94,122.48,25.81,122.81,25.69ZM118.43,31a8.63,8.63,0,0,0-.72,3,27.65,27.65,0,0,1-.49,3,7.15,7.15,0,0,1-1.41,3.19l-.72.54a12.68,12.68,0,0,0,.87-3.17,19.14,19.14,0,0,1,1.39-5.8c.79-1.78,2-4,2.21-4.48q.64-.41,1.31-.76C120.22,27.68,119,29.84,118.43,31Zm-1.68.47a19.75,19.75,0,0,0-1.44,6,13.73,13.73,0,0,1-1.3,4.07l-.42.32c.16-.72.41-1.91.62-3.34A47.77,47.77,0,0,1,117.38,29h0c.21-.18.41-.38.63-.55l.39-.3C117.91,29.05,117.25,30.37,116.75,31.5Zm-7.86,14.08h0Zm2-1.59-.8.62a10.34,10.34,0,0,0,.4-1.83c.08-.62.16-1.14.24-1.6A10.38,10.38,0,0,0,110.85,44Zm1.26-7c-.33,1.24-.56,2.44-.73,3.48,0-.7.09-1.5.19-2.38s.25-1.9.34-2.49.1-.73-.09-.82c.72-.9,1.45-1.77,2.22-2.62A25.32,25.32,0,0,0,112.11,37ZM111,36.75l-.19.91c-.09.44-.18.83-.26,1.2a37.31,37.31,0,0,0-.71,3.84,6.94,6.94,0,0,1-.83,2.76l-.6.47a17.53,17.53,0,0,0,.26-2,24.81,24.81,0,0,1,1.3-6.61c.42-.58.84-1.15,1.28-1.71C111.14,35.88,111.07,36.24,111,36.75Zm7,10.92a4.32,4.32,0,0,1-3-.53c-1.43-.72-3.54-1.56-4.58-2l1.34-1c.77.46,3,1.8,4.22,2.39a6.48,6.48,0,0,0,2.9.62h.37q-.6.34-1.22.64Zm5.13-3.53s-.75,1-3.87,0a30.46,30.46,0,0,1-4.94-2l1.44-1.08,0,.05A1.71,1.71,0,0,0,116,41a26.36,26.36,0,0,0,5.07,2.5,4.73,4.73,0,0,0,1,.1,8.08,8.08,0,0,0,2.34-.4c-.37.38-.76.74-1.16,1.1Zm2.35-2.08a7.72,7.72,0,0,1-4.23.74,24.93,24.93,0,0,1-4.69-2.31l1.19-.87.08-.06a17.08,17.08,0,0,0,4.14,1.75,6.79,6.79,0,0,0,1.87.26,7.23,7.23,0,0,0,2.38-.41C126,41.47,125.71,41.77,125.45,42.06Zm1.28-1.84a6.49,6.49,0,0,1-4.61.46,17.09,17.09,0,0,1-3.75-1.55q.73-.55,1.44-1.15a7.44,7.44,0,0,0,3.92,1.44h.14a30.9,30.9,0,0,0,3.81-.33c-.28.43-.57.86-.88,1.27Zm2.48-3.88a16,16,0,0,1-4.2.51,9.2,9.2,0,0,1-2.7-1.13l.82-.8.28,0s0-.1.06-.36l.16-.17-.15.28a6.88,6.88,0,0,0,2.55.81h.1a17.94,17.94,0,0,0,3.84-.88Q129.62,35.49,129.21,36.35Zm-19.3-.6c.39-.67.78-1.45,1.16-2.29l.07,0,0-.08A120.66,120.66,0,0,0,115.49,21l.25-.79a31,31,0,0,0,.89-4.17c.44-2.62.89-5.32,2.47-7.34l-.52-.41c-.08.1-.14.2-.21.3l0-2.41a4.24,4.24,0,0,1,.18-1.42L118,4.56a4.88,4.88,0,0,0-.22,1.67l0,3.5a12.43,12.43,0,0,0-.9,2.29l-.29-5.18c0-.38.06-.79.25-.82l-.1-.65c-.56.08-.86.64-.81,1.5l.34,6.09.36,0c-.23,1-.4,2-.57,3-.1.6-.2,1.18-.31,1.75L115,9.56l-.66.05.77,9.37.29,0c-.09.37-.18.73-.3,1.08l-.25.79-.12.39a4.2,4.2,0,0,0-.22-.59A14.87,14.87,0,0,1,113.31,13l-.66-.07a15.54,15.54,0,0,0,1.27,8c.18.39.31.74.19,1l.37.19c-.55,1.74-1.19,3.72-1.88,5.68a40.47,40.47,0,0,1-2.73-11.35l-.66,0c0,.09,0,.19,0,.29l-.5-.11c-.69,3.29-.06,6.6.71,10a13.88,13.88,0,0,0,1.42,3c.25.44.48.84.63,1.16h0c-.23.58-.46,1.14-.69,1.68-.51-1.51-1.29-3.9-1.51-4.74-.5-1.9-1-3.84-1.38-5.76a7.71,7.71,0,0,1-.24-2.79L107,19a8.26,8.26,0,0,0,.25,3c.41,1.93.88,3.88,1.38,5.79.27,1,1.28,4.09,1.76,5.46-.3.66-.61,1.27-.91,1.82a25.71,25.71,0,0,1-4-14.45c.28-5.66,4.94-10.57,8.69-14.51l.11-.12c2.09-2.19,6.83-6.13,9.82-5.3,1.19.33,2,1.42,2.42,3.25,1.52,6.64-1.66,16-3.7,21a16.71,16.71,0,0,0-5.2,2.89c-.79.64-1.54,1.34-2.27,2h0a52.09,52.09,0,0,0-5.23,6Zm2.2-7.43.35-.16q-.32.9-.65,1.78l-.37-.66a13.91,13.91,0,0,1-1.35-2.82c-.71-3.11-1.28-6.16-.79-9.14A41.67,41.67,0,0,0,112.11,28.31ZM108,43.86a15.08,15.08,0,0,1-.43,2.72l-.76.6a18.19,18.19,0,0,1,.49-2.94c.4-1.68.74-3.68.85-4.38l.59-.84A34.71,34.71,0,0,0,108,43.86Zm-4.32-10.25-.09,0c-.31-.12-.39.09-.57.57-.25.63-.76,1.94-1.08,2.57q-.21.41-.42.77c.25-.56.48-1.17.69-1.8a30.61,30.61,0,0,0,1.09-5.07c.08.68.18,1.42.29,2.22Zm-13.41-.25a5.49,5.49,0,0,0,2.34,2.38,22.6,22.6,0,0,0,4.8.79,1.62,1.62,0,0,0,.07.24l0,0,.44,1.4a26.15,26.15,0,0,1-4.4-1.06,5.41,5.41,0,0,1-3.44-3Zm.82-11a29.63,29.63,0,0,0,2.39,3.67,2.1,2.1,0,0,0,1.38.59h0c.06.34.12.68.18,1a4.78,4.78,0,0,1-1.62-.57,12,12,0,0,1-2.08-3.22l-.27.13C91.07,23.49,91.06,22.94,91.07,22.4Zm5.35,8.46A14.85,14.85,0,0,1,97.06,29c.17-.41.32-.77.46-1.1a7,7,0,0,0,.76-2.59,4,4,0,0,1,.08-.56,5.25,5.25,0,0,1,.26,1.13c.14,1.18.06,1.64-1.18,4.28-.35.75-.59,1.32-.75,1.76C96.6,31.6,96.51,31.23,96.42,30.87Zm1.2-5.54a6.44,6.44,0,0,1-.71,2.35c-.14.33-.3.69-.47,1.11s-.23.58-.31.82q-.12-.53-.22-1c.14-.31.41-.92.87-2.13a9.2,9.2,0,0,0,.74-3.59l-.54,0a14.57,14.57,0,0,0,1-3.07c.35.27.66.56,1,.84A27.69,27.69,0,0,0,97.62,25.33ZM95.9,23.19l.08-.83.42.19c-.2.54-.44,1.15-.73,1.85-.12.31-.25.59-.36.85l0-.25A4.34,4.34,0,0,0,95.9,23.19Zm1,0a9.69,9.69,0,0,1-.69,3c-.2.51-.35.9-.48,1.22-.06-.34-.12-.67-.18-1,.18-.37.47-1,.78-1.77C96.5,24.1,96.69,23.62,96.86,23.19ZM96,21.74c.11-1.06.24-2.31.31-3a9.53,9.53,0,0,1,1,.59A9.86,9.86,0,0,0,96,21.74Zm-.81,1.38a3.34,3.34,0,0,1-.15.69c-.38-2.68-.58-4.83-.64-5.67a5,5,0,0,1,1.28.34C95.64,19.31,95.34,22.14,95.24,23.12Zm-2.15,4.54a5.78,5.78,0,0,0,2.11.7l0,.11,0,.05,0,0c.07.35.14.69.22,1a7.52,7.52,0,0,1-2.29-.54,7,7,0,0,1-2-1.9,20.39,20.39,0,0,0-.06-2.06V24.9A9.34,9.34,0,0,0,93.09,27.66Zm-.22,2a8.57,8.57,0,0,0,2.73.63l.14.6c0,.07,0,.11,0,.12h0c.07.28.14.57.21.85A7.13,7.13,0,0,1,93,31a7.63,7.63,0,0,1-1.84-2.3l-.11.06c0-.2,0-.41.06-.62A6.16,6.16,0,0,0,92.87,29.64Zm-.22,1.87a7.92,7.92,0,0,0,3.52,1q.2.73.43,1.44a14.83,14.83,0,0,1-3.33-.78A3.44,3.44,0,0,1,90.87,31l-.18,0q.13-.71.23-1.43A6.58,6.58,0,0,0,92.65,31.51Zm.4,2.29a14.93,14.93,0,0,0,3.77.84l0,.06.38,1.15a21.08,21.08,0,0,1-4.37-.72,5.84,5.84,0,0,1-2.39-2.83l.09-.46A4.47,4.47,0,0,0,93,33.81Zm5.53-.67a25.4,25.4,0,0,1,1.16-2.37,8,8,0,0,0,1-2.45,29.14,29.14,0,0,0,.62-4.46c.21.39.4.79.56,1.18l-.36,0a37.36,37.36,0,0,1-.53,4.34,16.51,16.51,0,0,1-1.92,4.76,10.84,10.84,0,0,0-.95,2.52L98,36A6.13,6.13,0,0,1,98.57,33.13Zm-5.24,4.58a26.61,26.61,0,0,0,4.83,1.13l.42,1.39c-.94-.08-2.84-.25-3.83-.4-1.41-.22-4-2.52-4.92-3.28l-.15-.13c.07-.44.14-.88.22-1.31A6.4,6.4,0,0,0,93.33,37.71Zm-3.82-.2c0-.11,0-.22.05-.33,1.09.95,3.57,3,5.09,3.29,1.12.18,3.34.37,4.14.43l.39,1.3c-1-.24-2.78-.69-4.13-.9s-4.6-2.44-5.59-3.16C89.47,37.94,89.48,37.73,89.51,37.51Zm10.06,3.71A5.75,5.75,0,0,0,100.62,40l-.26.49a9.18,9.18,0,0,0-.59,1.35Zm-.19-1.11-.09.16L99,39.18h0s.55-1.42,1.47-3.22l.15-.3a12.42,12.42,0,0,0,1.62-4.25l-.66-.08a12,12,0,0,1-1.55,4l-.15.3c-.54,1-.94,2-1.19,2.55l-.1-.3a11.82,11.82,0,0,1,1.12-3.49,17.09,17.09,0,0,0,2-4.95,33.57,33.57,0,0,0,.49-3.77,18.23,18.23,0,0,1,.78,2.81l-.07,0c-.21.06-.33.16-.6,1.51l.38.08a28,28,0,0,1-1.12,5.4A24,24,0,0,1,99.38,40.11Zm1.36-17.28c-.2.19-.39.81-.76,2.64l.53.11c-.1.74-.24,1.63-.43,2.6a7.44,7.44,0,0,1-.93,2.26A25.91,25.91,0,0,0,98,32.88a9.19,9.19,0,0,0-.52,1.6q-.22-.66-.42-1.34h.05s0-.47,1-2.64c1.24-2.65,1.4-3.25,1.24-4.64a5.66,5.66,0,0,0-.66-2.1c.24-.88.57-1.88.8-2.58l.37.4A12.15,12.15,0,0,1,100.74,22.84Zm-8.34-4.31a3,3,0,0,1,1.39-.42c.07.85.3,3.49.79,6.75l-.06.08.08.07c.05.33.11.66.16,1a1.5,1.5,0,0,1-.87-.42,37.66,37.66,0,0,1-2.54-4l-.25.14C91.2,20.31,91.52,19.05,92.39,18.52ZM94.95,42c1.51.23,3.72.79,4.44,1l.09.32c0,.06,0,.1,0,.1h0l.17.58a7.72,7.72,0,0,0-2.15-.5c-1.4-.13-6-2.54-7.57-3.34l-.39-.2a7.8,7.8,0,0,1-.11-.93C90.76,39.9,93.49,41.74,94.95,42ZM89.44,59.21Q88.71,57.11,88,55a5.62,5.62,0,0,0,1.85-2.53,19.66,19.66,0,0,1-.21,7.22ZM83.09,57l-.71-1.58a23,23,0,0,0,5.39,1l.78,2.23-1.47-.39A20.82,20.82,0,0,1,83.09,57Zm2.31-6.87v.05h0l.17.41A35.05,35.05,0,0,1,79.09,49l-.25-.41c1.26.13,2.87.21,4.28.21.63,0,1.22,0,1.72,0Q85.12,49.43,85.39,50.1Zm3.06-5a17.73,17.73,0,0,1-1.67,6.75c-.23-.59-.45-1.18-.69-1.76a1.32,1.32,0,0,0,.28-.14,2.17,2.17,0,0,0,.65-.82A21.76,21.76,0,0,0,88.46,45.1Zm-2.6,6.15.4,1a21.1,21.1,0,0,1-5.75-.75c-.29-.55-.6-1.11-.92-1.66A35.55,35.55,0,0,0,85.86,51.25Zm.07,1.7.57,0q.52,1.38,1,2.77C86,55.55,83,55.2,81.93,54.43q-.49-1.05-1-2.09A23.72,23.72,0,0,0,85.93,53Zm3.55-1.43a6.39,6.39,0,0,1-1.75,2.83q-.3-.82-.6-1.64C87.74,51.4,89.66,46.9,89,44l-.25.06c.17-.72.31-1.41.41-2,.29.57.56,1.14.83,1.73.34.77.65,1.55.93,2.33H90.8A19.65,19.65,0,0,1,89.48,51.53ZM83.77,34l.48.56c-.12,1-.11,3-.11,4.44,0,.57,0,1.07,0,1.39a4.15,4.15,0,0,1-1.06,3.06l.45.48a4.76,4.76,0,0,0,1.27-3.53c0-.33,0-.82,0-1.4,0-1.18,0-2.7,0-3.72.39.49.78,1,1.15,1.51-.06.66-.14,1.76-.22,2.84s-.13,1.91-.18,2.45a3.57,3.57,0,0,1-1.45,2.77l.33.57a4.05,4.05,0,0,0,1.78-3.28c0-.55.12-1.49.18-2.47.05-.72.1-1.43.15-2q.44.66.87,1.34h-.07c-.1,2.08-1,6.8-2.25,8l.46.48c1.34-1.28,2.15-5.37,2.39-7.63q.32.55.63,1.12a29.17,29.17,0,0,1-2.15,7.84,1.6,1.6,0,0,1-.44.58.68.68,0,0,1-.17.07,60.68,60.68,0,0,0-4.07-8.24c1.07-1.47,1.43-5.36,1.38-7.84C83.38,33.61,83.59,33.82,83.77,34ZM77.13,45.79c-.51-.87-1-1.76-1.47-2.66,1.48.44,4,1.28,5.13,1.69a7.41,7.41,0,0,0,2.41.35c.17.34.32.69.48,1-1.62,0-4.15-.14-5.54-.26v-.17C77.63,45.77,77.33,45.77,77.13,45.79Zm-3-6.33c-.07-.22-.14-.44-.2-.67a12.61,12.61,0,0,0,3.4,1.47,18.72,18.72,0,0,0,2.5.17l.69,0c.33.51.64,1,1,1.55-2.12-.08-5.85-1.07-7-2.11l-.12.13C74.25,39.8,74.18,39.63,74.13,39.46Zm7-7.9c.49.38.95.78,1.37,1.17.12,2.19-.17,6.26-1.09,7.87-.23-.37-.45-.75-.69-1.11l.16,0A71.8,71.8,0,0,0,81.11,31.55Zm-1,8.19a18,18,0,0,1-2.66-.14,12,12,0,0,1-3.76-1.82c-.18-.69-.33-1.39-.45-2.07.82.61,2,1.37,2.88,2l.89.59a8.22,8.22,0,0,0,3,1.39Zm1.66,2.88h.13c.35.61.67,1.24,1,1.87a6,6,0,0,1-1.82-.3c-1.25-.46-4.46-1.52-5.75-1.86-.24-.51-.47-1-.68-1.56A17.38,17.38,0,0,0,81.73,42.63ZM80.42,31a70.92,70.92,0,0,1-.16,7.84q-.41-.58-.83-1.15h0l0,0c-.14-.18-.26-.38-.4-.55l-.07.05a35.88,35.88,0,0,1-4.24-7.87C76.41,28.76,78.54,29.71,80.42,31Zm-6.34-1.46c.78,2.1,3.25,7.06,4.81,8.52.18.23.34.47.51.71a9.25,9.25,0,0,1-2.06-1.1l-.9-.6c-1.08-.71-2.69-1.76-3.39-2.38C72.75,32.41,73,30.37,74.08,29.59Zm3.5,16.95c1.65.22,5.28.3,6.41.32.19.42.4.84.58,1.27a40.21,40.21,0,0,1-6.17-.23Zm6.61,12.89L84,59l-.49-1.09a31.35,31.35,0,0,0,3.42,1c.72.18,1.41.36,1.9.52v0L89.35,61A19.43,19.43,0,0,1,84.19,59.43Zm6.18,2.48.35.26a7.27,7.27,0,0,0,1.37-5l-.66.07a6.6,6.6,0,0,1-1.16,4.4l-.08-.23.05-.27-.16,0-.33-1,.41.1a20.35,20.35,0,0,0,.23-8.38l-.37.07.07-.17a25.4,25.4,0,0,0,1.24-4.39,27,27,0,0,1,0,17.21C91,63.7,90.69,62.8,90.37,61.9Zm6.25-5.3c-.73,1.46-1.49,3-2.33,4.41a18.28,18.28,0,0,1-2,2.74,28.8,28.8,0,0,0-1.38-19.41l.11.14a14.79,14.79,0,0,0,9.69,5A49.59,49.59,0,0,0,96.62,56.6Zm4.86-7.7a14.27,14.27,0,0,1-9.93-4.83,10.28,10.28,0,0,1-.7-1L90.57,43l.06-.3a9,9,0,0,1-.85-2c2.69,1.4,6.35,3.22,7.7,3.35a6.25,6.25,0,0,1,2.46.69l.1.33.83.3-.18.47-.48-.17c.89,3,.95,3,1.26,3l.35-.24-.34-.13v0l.23-.16a14.5,14.5,0,0,1-.66-1.95,14,14,0,0,0,1.44-2.81,9.92,9.92,0,0,0,.77-2.87l-.55,0a9,9,0,0,0,.61-2.28l-.66-.07a10.33,10.33,0,0,1-1.57,4.09,15.28,15.28,0,0,0-.78,1.45l-.15-.51a6,6,0,0,1,.8-2.33,24.09,24.09,0,0,0,1.86-4.06l.4-1.15c.25-.73.41-1.18.49-1.47l0-.06a35.33,35.33,0,0,1,.31,9.13.34.34,0,0,1,.24.1l-.29.29,0,.08.06,0a.15.15,0,0,0,.1,0,.44.44,0,0,0-.06.2,1.35,1.35,0,0,1-.28.74q-.12.5-.28,1l-1,1.5.09.06a2.37,2.37,0,0,0-.67,1.26C101.78,48.59,101.64,48.75,101.49,48.9Zm-.89-4.22a13,13,0,0,1,1.05-2.1,14.31,14.31,0,0,0,.9-1.73,11,11,0,0,1-.67,2.3,15.83,15.83,0,0,1-1.08,2.22Zm2.15,2.6-.09-.08.1.07Zm1-.46a4.21,4.21,0,0,1,.38-2.38l.45.22a3.55,3.55,0,0,0-.32,1l.92-1.39q1-1.56,2.08-3.13c-.15.86-.36,1.94-.59,2.9a15.85,15.85,0,0,0-.53,3.63,16.8,16.8,0,0,1-2,1.42l0,.27-.32-.08-.05.28.16.1a2.2,2.2,0,0,1-1.34-.83.58.58,0,0,1,0-.17A8.54,8.54,0,0,0,103.71,46.83Zm5.48,3.42a18.68,18.68,0,0,1-4.94-.46c.34-.07,1.1-.64,3.78-2.75a7.22,7.22,0,0,1,2.82,1,12.23,12.23,0,0,0,3.43,1.2,25,25,0,0,1-2.89.69l-.07.22-.4-.14C110.36,50.12,109.78,50.2,109.19,50.25Zm22-19.69c0,.19-.08.37-.13.56a29.68,29.68,0,0,1-4.34,2,1.6,1.6,0,0,1-1.26-.29l-.17.17c0-.08,0-.19,0-.31l.56-.62.63,0a3.84,3.84,0,0,1,0-.72c2.3-2.65,4-4.92,4.57-5.73C131.77,26.47,131.62,28.15,131.15,30.56Z"/><path class="cls-1" d="M93.26,67.19l.06.23a.34.34,0,0,0,.25.26,3,3,0,0,1-.07-.63l0,0Z"/><path class="cls-1" d="M94,67.73l-.11,0,.11,0S94,67.75,94,67.73Z"/><path class="cls-1" d="M67.87,46.76l.37-.54a3.36,3.36,0,0,1-1.38-2.07l-.65.14A4,4,0,0,0,67.87,46.76Z"/><path class="cls-1" d="M95.38,66.9l.36.35c2.16-2.26,4.26-4.62,6.27-7l.26-.31-.36-.3,0,0,0,0-.74.86C99.27,62.67,97.35,64.83,95.38,66.9Z"/><path class="cls-1" d="M96.46,68c0-.17,0-.34,0-.51H96c0,.16,0,.33,0,.49a12.48,12.48,0,0,0,1.64,6,12.28,12.28,0,0,0,.76,1.19l.4-.29c-.08-.11-.16-.23-.23-.35a11.89,11.89,0,0,1-.72-1.2A12,12,0,0,1,96.46,68Z"/><path class="cls-1" d="M101.14,75A13.77,13.77,0,0,1,97.75,68c0-.2-.08-.4-.1-.61l-.5.06c0,.17.06.35.09.52a14.28,14.28,0,0,0,2.9,6.54,14,14,0,0,0,.94,1.09h0l.35-.35Z"/><path class="cls-1" d="M94.52,67.84c0-.07,0-.14,0-.21h-.44a2.43,2.43,0,0,1-.06-.51A3.57,3.57,0,0,1,94.78,65a10.24,10.24,0,0,1,2.29-2l1.45-1-.2-.28-.09-.13-1.45,1a10.58,10.58,0,0,0-2.39,2.12,4.55,4.55,0,0,0-.57,1,3.66,3.66,0,0,0-.3,1.32,3,3,0,0,0,.07.63c0,.05,0,.11,0,.16l.31-.08.11,0s0,0,0,0a7.76,7.76,0,0,0,.28,1.9,7.68,7.68,0,0,0,.43,1.22l.36-.17.1,0A7.28,7.28,0,0,1,94.52,67.84Z"/><path class="cls-1" d="M103.56,43.87c0,.41-.38.72-.76,1-.14.12-.28.24-.4.37a3,3,0,0,0-.85,2.17l.5,0a2.5,2.5,0,0,1,.71-1.81c.12-.12.25-.23.38-.34a4,4,0,0,0,.65-.66,1.35,1.35,0,0,0,.28-.74.44.44,0,0,1,.06-.2.15.15,0,0,1-.1,0l-.06,0,0,0,.06-.06.29-.29a.34.34,0,0,0-.24-.1.31.31,0,0,0-.13,0C103.64,43.34,103.56,43.73,103.56,43.87Z"/><path class="cls-1" d="M100.69,45.87l.18-.47-.83-.3a61,61,0,0,0-9.37-2.58l0,.19-.06.3.28.06a60.48,60.48,0,0,1,9.35,2.62Z"/><rect class="cls-1" x="96.2" y="41.5" width="0.5" height="7.51" transform="translate(31.85 129.99) rotate(-77.82)"/><path class="cls-1" d="M111.4,49.94l.08-.26A30.46,30.46,0,0,1,107.11,48l-.22.45a30.87,30.87,0,0,0,4,1.62l.4.14Z"/><path class="cls-1" d="M104.85,48.46a3.78,3.78,0,0,1-.62-2.76,3.55,3.55,0,0,1,.32-1l-.45-.22a4.21,4.21,0,0,0-.38,2.38,4.17,4.17,0,0,0,.72,1.92Z"/><path class="cls-1" d="M19.71,47.8l.4-.32a.44.44,0,0,0,.5-.15.36.36,0,0,0,.07-.2l.09,0a.41.41,0,0,0,.17-.19.34.34,0,0,0,.3.1.3.3,0,0,0,.25-.13l.43,0C21.79,44,21.75,44,21.43,44s-.34.35-.34.46c0,.34,0,.64,0,.91-.55-1.53-.75-1.48-.94-1.42s-.24.43-.19.62l0,.1c.09.33.27,1.06.35,1.55L20,45.9c-.55-.53-.7-.67-.94-.45s-.11.37,0,.56c-.17-.12-.34-.19-.51,0s-.05.43.23.75C19.54,47.59,19.7,47.79,19.71,47.8Z"/></g></g></svg>