<?xml version="1.0" encoding="utf-8"?>
<!-- Generator: Adobe Illustrator 20.1.0, SVG Export Plug-In . SVG Version: 6.00 Build 0)  -->
<svg version="1.1" id="Layer_1" xmlns="http://www.w3.org/2000/svg" xmlns:xlink="http://www.w3.org/1999/xlink" x="0px" y="0px"
	 viewBox="0 0 264.6 115.4" style="enable-background:new 0 0 264.6 115.4;" xml:space="preserve">
<style type="text/css">
	.st0{fill:#C4132D;}
	.st1{fill:#58595B;}
</style>
<g>
	<g>
		<path class="st0" d="M28.4,100.3v2.3h2.1v0.8h-2.1v5.9c0,0.6,0.1,1,0.3,1.3c0.2,0.2,0.5,0.4,0.9,0.4c0.1,0,0.2,0,0.4,0
			c0.1,0,0.3,0,0.4-0.1l0.2,0.7c-0.1,0.1-0.3,0.1-0.5,0.2c-0.2,0-0.4,0.1-0.6,0.1c-0.7,0-1.2-0.2-1.5-0.6c-0.4-0.4-0.6-1-0.6-1.9
			v-5.9h-1.6v-0.8h1.6v-2.3H28.4z"/>
		<path class="st0" d="M39.4,103.5l-0.7-0.1c-0.7,0-1.2,0.2-1.6,0.5c-0.4,0.4-0.7,0.8-0.9,1.5v6.3h-1v-9.1H36l0.1,1.5v0.1
			c0.3-0.6,0.6-1,1.1-1.3c0.5-0.3,1-0.5,1.6-0.5c0.1,0,0.2,0,0.4,0c0.1,0,0.2,0,0.3,0.1L39.4,103.5z"/>
		<path class="st0" d="M47.2,111.9c-1.2,0-2.2-0.4-3-1.3c-0.8-0.8-1.1-1.9-1.1-3.2V107c0-1.3,0.4-2.4,1.1-3.2
			c0.8-0.8,1.7-1.3,2.8-1.3c1.1,0,2,0.3,2.6,1.1c0.6,0.7,0.9,1.7,0.9,2.9v0.8h-6.5v0.3c0,1,0.3,1.9,0.8,2.6c0.5,0.7,1.3,1,2.2,1
			c0.6,0,1.1-0.1,1.6-0.3c0.5-0.2,0.9-0.4,1.2-0.7l0.4,0.7c-0.3,0.3-0.8,0.6-1.3,0.8C48.6,111.8,48,111.9,47.2,111.9z M47.1,103.3
			c-0.8,0-1.4,0.3-2,0.8c-0.5,0.6-0.8,1.3-0.9,2.1l0,0.1h5.4v-0.2c0-0.8-0.2-1.5-0.7-2C48.6,103.6,47.9,103.3,47.1,103.3z"/>
		<path class="st0" d="M61.4,111.7c-0.1-0.3-0.1-0.6-0.1-0.8c0-0.2,0-0.5,0-0.7c-0.3,0.5-0.8,0.9-1.4,1.2c-0.6,0.3-1.3,0.5-2,0.5
			c-0.9,0-1.6-0.2-2.1-0.7c-0.5-0.5-0.8-1.1-0.8-1.9c0-0.8,0.4-1.5,1.1-2c0.7-0.5,1.7-0.8,2.9-0.8h2.3v-1.1c0-0.6-0.2-1.2-0.6-1.5
			c-0.4-0.4-1-0.6-1.8-0.6c-0.7,0-1.3,0.2-1.7,0.5c-0.4,0.3-0.7,0.8-0.7,1.3h-1l0,0c0-0.7,0.3-1.3,0.9-1.8c0.6-0.5,1.5-0.8,2.5-0.8
			c1,0,1.9,0.3,2.5,0.8c0.6,0.5,0.9,1.2,0.9,2.2v4.5c0,0.3,0,0.6,0.1,0.9c0,0.3,0.1,0.6,0.2,0.9H61.4z M57.9,111
			c0.8,0,1.5-0.2,2.1-0.5c0.6-0.4,1-0.8,1.2-1.4v-1.7h-2.3c-0.8,0-1.5,0.2-2.1,0.6c-0.5,0.4-0.8,0.9-0.8,1.4c0,0.5,0.2,0.9,0.5,1.2
			C56.8,110.9,57.3,111,57.9,111z"/>
		<path class="st0" d="M69.3,100.3v2.3h2.1v0.8h-2.1v5.9c0,0.6,0.1,1,0.3,1.3c0.2,0.2,0.5,0.4,0.9,0.4c0.1,0,0.2,0,0.4,0
			c0.1,0,0.3,0,0.4-0.1l0.2,0.7c-0.1,0.1-0.3,0.1-0.5,0.2c-0.2,0-0.4,0.1-0.6,0.1c-0.7,0-1.2-0.2-1.5-0.6c-0.4-0.4-0.6-1-0.6-1.9
			v-5.9h-1.6v-0.8h1.6v-2.3H69.3z"/>
		<path class="st0" d="M87.3,103.5l-0.7-0.1c-0.6,0-1.2,0.2-1.6,0.5c-0.4,0.4-0.7,0.8-0.9,1.5v6.3h-1v-9.1h0.9l0.1,1.5v0.1
			c0.3-0.6,0.6-1,1.1-1.3c0.5-0.3,1-0.5,1.6-0.5c0.1,0,0.2,0,0.4,0c0.1,0,0.2,0,0.3,0.1L87.3,103.5z"/>
		<path class="st0" d="M92.8,100h-1v-1.4h1V100z M92.8,111.7h-1v-9.1h1V111.7z"/>
		<path class="st0" d="M98,107.3c0-1.4,0.3-2.6,0.9-3.5c0.6-0.9,1.5-1.3,2.6-1.3c0.7,0,1.2,0.1,1.7,0.4c0.5,0.3,0.9,0.7,1.2,1.2
			l0.1-1.4h0.8v9.1c0,1.2-0.3,2-1,2.7c-0.7,0.6-1.6,0.9-2.8,0.9c-0.5,0-0.9-0.1-1.4-0.2c-0.5-0.1-1-0.3-1.3-0.4l0.2-0.9
			c0.4,0.2,0.8,0.3,1.2,0.4c0.4,0.1,0.9,0.1,1.4,0.1c0.9,0,1.6-0.2,2.1-0.7c0.5-0.5,0.7-1.1,0.7-2v-1.3c-0.3,0.5-0.7,0.8-1.2,1
			c-0.5,0.2-1.1,0.4-1.7,0.4c-1.1,0-2-0.4-2.6-1.2c-0.6-0.8-0.9-1.9-0.9-3.3V107.3z M99,107.4c0,1.1,0.2,2,0.7,2.6
			c0.5,0.6,1.1,1,2.1,1c0.7,0,1.2-0.1,1.7-0.4c0.4-0.3,0.8-0.7,1-1.2v-4.3c-0.2-0.5-0.6-0.9-1-1.2c-0.4-0.3-1-0.5-1.7-0.5
			c-0.9,0-1.6,0.4-2.1,1.1c-0.5,0.7-0.7,1.7-0.7,2.8V107.4z"/>
		<path class="st0" d="M111.9,104.2c0.3-0.5,0.7-1,1.3-1.3c0.5-0.3,1.1-0.4,1.8-0.4c1,0,1.7,0.3,2.3,0.9c0.5,0.6,0.8,1.5,0.8,2.8
			v5.6h-1v-5.6c0-1-0.2-1.7-0.6-2.1c-0.4-0.4-1-0.6-1.7-0.6c-0.7,0-1.3,0.2-1.8,0.5c-0.5,0.3-0.8,0.8-1,1.4v6.5h-1V98.6h1V104.2z"/>
		<path class="st0" d="M125.1,100.3v2.3h2.1v0.8h-2.1v5.9c0,0.6,0.1,1,0.3,1.3c0.2,0.2,0.5,0.4,0.9,0.4c0.1,0,0.3,0,0.4,0
			c0.1,0,0.3,0,0.4-0.1l0.2,0.7c-0.1,0.1-0.3,0.1-0.5,0.2c-0.2,0-0.4,0.1-0.6,0.1c-0.7,0-1.2-0.2-1.5-0.6c-0.4-0.4-0.6-1-0.6-1.9
			v-5.9h-1.6v-0.8h1.6v-2.3H125.1z"/>
		<path class="st0" d="M139.5,111.7v-8.3h-1.6v-0.8h1.6v-1.3c0-0.9,0.2-1.6,0.7-2.1c0.5-0.5,1.1-0.8,2-0.8c0.2,0,0.4,0,0.6,0
			c0.2,0,0.4,0.1,0.6,0.1l-0.1,0.8c-0.1,0-0.3-0.1-0.4-0.1c-0.1,0-0.3,0-0.5,0c-0.6,0-1,0.2-1.3,0.5c-0.3,0.3-0.5,0.8-0.5,1.5v1.3
			h2.1v0.8h-2.1v8.3H139.5z"/>
		<path class="st0" d="M153.3,110.2c-0.3,0.5-0.7,0.9-1.2,1.2c-0.5,0.3-1.1,0.4-1.8,0.4c-1,0-1.8-0.3-2.3-1c-0.6-0.7-0.8-1.7-0.8-3
			v-5.3h1v5.3c0,1.1,0.2,1.9,0.6,2.4c0.4,0.5,0.9,0.7,1.7,0.7c0.8,0,1.4-0.2,1.9-0.5c0.5-0.3,0.8-0.8,1-1.4v-6.5h1v9.1h-0.9
			L153.3,110.2z"/>
		<path class="st0" d="M161.3,100.3v2.3h2.1v0.8h-2.1v5.9c0,0.6,0.1,1,0.3,1.3c0.2,0.2,0.5,0.4,0.9,0.4c0.1,0,0.2,0,0.4,0
			c0.1,0,0.3,0,0.4-0.1l0.2,0.7c-0.1,0.1-0.3,0.1-0.5,0.2c-0.2,0-0.4,0.1-0.6,0.1c-0.7,0-1.2-0.2-1.5-0.6c-0.4-0.4-0.6-1-0.6-1.9
			v-5.9h-1.6v-0.8h1.6v-2.3H161.3z"/>
		<path class="st0" d="M174.2,110.2c-0.3,0.5-0.7,0.9-1.2,1.2c-0.5,0.3-1.1,0.4-1.8,0.4c-1,0-1.8-0.3-2.3-1c-0.6-0.7-0.8-1.7-0.8-3
			v-5.3h1v5.3c0,1.1,0.2,1.9,0.6,2.4c0.4,0.5,0.9,0.7,1.7,0.7c0.8,0,1.4-0.2,1.9-0.5c0.5-0.3,0.8-0.8,1-1.4v-6.5h1v9.1h-0.9
			L174.2,110.2z"/>
		<path class="st0" d="M184.8,103.5l-0.7-0.1c-0.6,0-1.2,0.2-1.6,0.5c-0.4,0.4-0.7,0.8-0.9,1.5v6.3h-1v-9.1h0.9l0.1,1.5v0.1
			c0.3-0.6,0.6-1,1.1-1.3c0.5-0.3,1-0.5,1.6-0.5c0.1,0,0.3,0,0.4,0c0.1,0,0.2,0,0.3,0.1L184.8,103.5z"/>
		<path class="st0" d="M192.7,111.9c-1.2,0-2.2-0.4-3-1.3c-0.8-0.8-1.1-1.9-1.1-3.2V107c0-1.3,0.4-2.4,1.1-3.2
			c0.8-0.8,1.7-1.3,2.8-1.3c1.1,0,2,0.3,2.6,1.1c0.6,0.7,0.9,1.7,0.9,2.9v0.8h-6.5v0.3c0,1,0.3,1.9,0.8,2.6c0.5,0.7,1.3,1,2.2,1
			c0.6,0,1.1-0.1,1.6-0.3c0.5-0.2,0.9-0.4,1.2-0.7l0.4,0.7c-0.3,0.3-0.8,0.6-1.3,0.8C194,111.8,193.4,111.9,192.7,111.9z
			 M192.6,103.3c-0.8,0-1.5,0.3-2,0.8c-0.5,0.6-0.8,1.3-0.9,2.1l0,0.1h5.4v-0.2c0-0.8-0.2-1.5-0.6-2
			C194,103.6,193.4,103.3,192.6,103.3z"/>
		<path class="st0" d="M215.4,107.4c0,1.4-0.3,2.4-1,3.3c-0.6,0.8-1.5,1.2-2.6,1.2c-0.7,0-1.3-0.1-1.8-0.4c-0.5-0.3-0.9-0.6-1.2-1.1
			l-0.2,1.4h-0.8V98.6h1v5.4c0.3-0.5,0.7-0.9,1.2-1.2c0.5-0.3,1.1-0.4,1.7-0.4c1.1,0,2,0.4,2.6,1.3c0.6,0.9,1,2,1,3.5V107.4z
			 M214.4,107.3c0-1.2-0.2-2.1-0.7-2.8c-0.5-0.7-1.1-1.1-2.1-1.1c-0.7,0-1.3,0.2-1.7,0.5c-0.4,0.3-0.8,0.8-1,1.3v4.2
			c0.2,0.5,0.6,0.9,1,1.2c0.5,0.3,1,0.5,1.7,0.5c0.9,0,1.6-0.3,2-1c0.5-0.7,0.7-1.5,0.7-2.6V107.3z"/>
		<path class="st0" d="M224.7,103.5l-0.7-0.1c-0.6,0-1.2,0.2-1.6,0.5c-0.4,0.4-0.7,0.8-0.9,1.5v6.3h-1v-9.1h0.9l0.1,1.5v0.1
			c0.3-0.6,0.6-1,1.1-1.3c0.5-0.3,1-0.5,1.6-0.5c0.1,0,0.2,0,0.4,0c0.1,0,0.2,0,0.3,0.1L224.7,103.5z"/>
		<path class="st0" d="M230.3,100h-1v-1.4h1V100z M230.3,111.7h-1v-9.1h1V111.7z"/>
		<path class="st0" d="M235.4,107.3c0-1.4,0.3-2.6,1-3.5c0.6-0.9,1.5-1.3,2.6-1.3c0.7,0,1.2,0.1,1.7,0.4c0.5,0.3,0.9,0.7,1.2,1.2
			l0.1-1.4h0.8v9.1c0,1.2-0.3,2-1,2.7c-0.7,0.6-1.6,0.9-2.8,0.9c-0.5,0-0.9-0.1-1.4-0.2c-0.5-0.1-1-0.3-1.3-0.4l0.2-0.9
			c0.4,0.2,0.8,0.3,1.2,0.4c0.4,0.1,0.9,0.1,1.4,0.1c0.9,0,1.6-0.2,2.1-0.7c0.5-0.5,0.7-1.1,0.7-2v-1.3c-0.3,0.5-0.7,0.8-1.2,1
			c-0.5,0.2-1.1,0.4-1.7,0.4c-1.1,0-2-0.4-2.6-1.2c-0.6-0.8-1-1.9-1-3.3V107.3z M236.5,107.4c0,1.1,0.2,2,0.7,2.6
			c0.5,0.6,1.1,1,2.1,1c0.7,0,1.2-0.1,1.7-0.4c0.4-0.3,0.8-0.7,1-1.2v-4.3c-0.2-0.5-0.6-0.9-1-1.2c-0.4-0.3-1-0.5-1.7-0.5
			c-0.9,0-1.6,0.4-2.1,1.1c-0.5,0.7-0.7,1.7-0.7,2.8V107.4z"/>
		<path class="st0" d="M249.4,104.2c0.3-0.5,0.7-1,1.3-1.3c0.5-0.3,1.1-0.4,1.8-0.4c1,0,1.7,0.3,2.3,0.9c0.5,0.6,0.8,1.5,0.8,2.8
			v5.6h-1v-5.6c0-1-0.2-1.7-0.6-2.1c-0.4-0.4-1-0.6-1.7-0.6c-0.7,0-1.3,0.2-1.8,0.5c-0.5,0.3-0.8,0.8-1,1.4v6.5h-1V98.6h1V104.2z"/>
		<path class="st0" d="M262.5,100.3v2.3h2.1v0.8h-2.1v5.9c0,0.6,0.1,1,0.3,1.3c0.2,0.2,0.5,0.4,0.9,0.4c0.1,0,0.3,0,0.4,0
			c0.1,0,0.3,0,0.4-0.1l0.2,0.7c-0.1,0.1-0.3,0.1-0.5,0.2c-0.2,0-0.4,0.1-0.6,0.1c-0.7,0-1.2-0.2-1.5-0.6c-0.4-0.4-0.6-1-0.6-1.9
			v-5.9h-1.6v-0.8h1.6v-2.3H262.5z"/>
	</g>
	<g>
		<g>
			<path class="st1" d="M127,21.2c-6.7,0-12.5,2.4-17.3,7.2c-4.8,4.8-7.2,10.6-7.2,17.3v42.1c0,1.2,0.8,2,2,2c1.2,0,1.9-0.8,1.9-2
				V45.7c0-5.6,2-10.5,6.1-14.5c4-4,8.9-6,14.5-6c5.6,0,10.5,2,14.5,6c4,4,6,8.9,6,14.5c0,5.6-2,10.5-6,14.5c-4,4-8.9,6.1-14.5,6.1
				c-5.6,0-10.4-2-14.4-5.9c-0.4-0.4-0.9-0.7-1.4-0.7c-0.4,0-0.9,0.1-1.4,0.7c-0.8,0.8-0.8,1.9,0,2.8c4.7,4.7,10.5,7,17.2,7
				c6.7,0,12.5-2.4,17.3-7.2c4.8-4.8,7.2-10.6,7.2-17.3c0-6.7-2.4-12.5-7.2-17.3C139.5,23.6,133.7,21.2,127,21.2z"/>
		</g>
	</g>
	<g>
		<g>
			<path class="st1" d="M160.5,0.2c-1.2,0-2,0.8-2,2v65.9c0,1.2,0.8,2,2,2c1.2,0,1.9-0.8,1.9-2V2.2C162.4,1,161.7,0.2,160.5,0.2z"/>
		</g>
	</g>
	<g>
		<g>
			<path class="st1" d="M260.7,45.5c-2.8-3-7.2-4.6-13-4.6c-6.3,0-13.3,0-15.7-2.5c-1.4-1.4-1.9-3.3-1.9-5.4c0-2.2,0.6-4,2-5.4
				c1.4-1.6,3.4-2.4,5.9-2.4h21.2c1.2,0,2-0.8,2-2c0-1.2-0.8-2-2-2H238c-3.7,0-6.7,1.3-8.9,3.8c-2,2.2-3,4.9-3,8
				c0,3.1,0.9,6,3.1,8.1c4.1,3.9,13.1,3.7,17.8,3.7c5.3,0,9,1.1,11,3.4c1.7,2,2.6,4.4,2.6,7.3c0,2.8-0.9,5.3-2.6,7.3
				c-2,2.3-4.7,3.4-8.2,3.4h-21.6c-1.2,0-2,0.7-2,1.9c0,1.2,0.8,2,2,2h21.6c4.6,0,8.3-1.5,11.1-4.6c2.5-2.8,3.8-6.1,3.8-10
				S263.2,48.3,260.7,45.5z"/>
		</g>
	</g>
	<g>
		<g>
			<path class="st1" d="M214.5,21.2c-1.2,0-1.9,0.8-1.9,2v22.5v13.8v8.7c0,1.2,0.7,2,1.9,2c1.2,0,2-0.8,2-2V23.2
				C216.4,21.9,215.7,21.2,214.5,21.2z"/>
		</g>
	</g>
	<g>
		<g>
			<g>
				<path class="st1" d="M199.8,69.1c-0.8,0-1.6-0.5-1.8-1.4c-0.3-1,0.3-2.1,1.3-2.4c5.4-1.6,7.9-5.5,7.9-5.5
					c0.5-0.9,1.7-1.2,2.6-0.6c0.9,0.6,1.2,1.7,0.6,2.6c-0.1,0.2-3.2,5.1-10.1,7.2C200.1,69.1,199.9,69.1,199.8,69.1z"/>
			</g>
		</g>
	</g>
	<g>
		<g>
			<g>
				<path class="st1" d="M207.2,59.7c-3.5,4.3-8.5,6.4-13.3,6.4c-5.2,0-9.5-2-13.2-6c-3.6-4-5.5-8.9-5.5-14.5V23.2
					c0-1.2-0.7-2-1.9-2c-1.2,0-2,0.8-2,2v22.5c0,6.7,2.2,12.5,6.6,17.2c4.4,4.8,9.7,7.2,16,7.2c4.4,0,8.5-1.3,12.2-3.9
					c0.1-0.1,0.3-0.2,0.4-0.3L207.2,59.7z"/>
			</g>
		</g>
	</g>
	<path class="st0" d="M79.8,24H68.2c-1,0-1.9,0.8-1.9,1.9c0,1,0.8,1.9,1.9,1.9h11.5c3,0,5.5,2.4,5.5,5.4v22.7c0,3-2.5,5.4-5.5,5.4
		H58.4c-3,0-5.5-2.4-5.5-5.4v-3.9h2.2c3,0,5.5,2.4,5.5,5.4v0.6c0,1,0.8,1.9,1.9,1.9c1,0,1.9-0.8,1.9-1.9v-0.6c0-5.1-4.1-9.2-9.2-9.2
		H53v-7.1h2.2c5.1,0,9.2-4.1,9.2-9.2V9.2c0-5.1-4.1-9.2-9.2-9.2H33.8c-5.1,0-9.2,4.1-9.2,9.2v10.9c0,1,0.8,1.9,1.9,1.9
		c1,0,1.9-0.9,1.9-1.9V9.2c0-3,2.4-5.4,5.5-5.4h21.4c3,0,5.5,2.4,5.5,5.4v22.7c0,3-2.5,5.4-5.5,5.4H53v-4.1c0-1.3,0.3-5.4,4.3-5.4
		c1,0,1.9-0.8,1.9-1.9c0-1-0.8-1.9-1.9-1.9c-5,0-8.1,3.5-8.1,9.2v4.1h-9.3v-4.1c0-5.1-4.1-9.2-9.2-9.2H9.2C4.1,24,0,28.1,0,33.1
		v22.7C0,60.9,4.1,65,9.2,65h11.4c1,0,1.9-0.9,1.9-1.9c0-1-0.8-1.9-1.9-1.9H9.2c-3,0-5.5-2.4-5.5-5.4V33.1c0-3,2.5-5.4,5.5-5.4h21.4
		c3,0,5.5,2.4,5.5,5.4v4.1h-2.2c-3,0-5.5-2.6-5.5-5.6c0-1-0.8-1.9-1.9-1.9c-1,0-1.9,0.9-1.9,1.9c0,5.1,4.2,9.4,9.2,9.4h2.2v7.1h-2.2
		c-5.1,0-9.2,4.1-9.2,9.2v22.7c0,5.1,4.1,9.2,9.2,9.2h21.4c5.1,0,9.2-4.1,9.2-9.2V68.9c0-1-0.8-1.9-1.9-1.9c-1,0-1.9,0.8-1.9,1.9
		v11.1c0,3-2.5,5.4-5.5,5.4H33.8c-3,0-5.5-2.4-5.5-5.4V57.3c0-3,2.4-5.4,5.5-5.4h2.2v3.9c0,2-0.5,5.4-4,5.4c-1,0-1.9,0.9-1.9,1.9
		c0,1,0.8,1.9,1.9,1.9c4.8,0,7.8-3.6,7.8-9.2v-3.9h9.3v3.9c0,5.1,4.1,9.2,9.2,9.2h21.4c5.1,0,9.2-4.1,9.2-9.2V33.1
		C89,28.1,84.9,24,79.8,24z M49.2,48.2h-9.3v-7.1h9.3V48.2z"/>
</g>
</svg>
