<svg xmlns="http://www.w3.org/2000/svg" viewBox="0 0 74.84 138.54"><defs><style>.cls-1{fill:#fff;}</style></defs><title>מור</title><g id="Layer_2" data-name="Layer 2"><g id="Expended"><path class="cls-1" d="M70.72,66.35a16.46,16.46,0,0,0-8.47-2.13h-.19a10.48,10.48,0,0,1-1.24-.27c-.72-.18-1.7-.42-2.88-.65a7.31,7.31,0,0,0-3.31.25c.63-.33,1.57-.73,2.13-1l.69-.29a4.61,4.61,0,0,1,1.88,0A8.86,8.86,0,0,0,65,61.47c3.19-1.85,2.51-5.41,2.34-6.1a.7.7,0,0,0-.25-.37,4.17,4.17,0,0,0,3.35-3.26v-.08l0-.08c0-.1-1-2.41-4.91-2.24a6.2,6.2,0,0,0-3.13,1,16.69,16.69,0,0,0,2.69-7c1.1-7.1-2.39-8.71-2.54-8.78l-.14-.06-.14.07c-.07,0-1.81.93-3.67,5.56-1.39,3.46-.35,8.71.3,11.28a1.94,1.94,0,0,0-1.35-.11c-.22.05-.24,0-.56-.11l-.42-.2a.78.78,0,0,0-.69-.08c-.38.18-.51.62-1.19,3.08l-.26.92a15.89,15.89,0,0,0-.61,4.25,3.56,3.56,0,0,1-.62,2.41c-1,1.29-2.54,2.73-3.52,2.83a.56.56,0,0,1-.46-.11c-.49-.42.06-3,.86-5.13a6.8,6.8,0,0,0,3.16-2.76,7.48,7.48,0,0,0,.44-5.47l0-.15a.43.43,0,0,0-.31-.34,2.43,2.43,0,0,0-1.51.37,27.25,27.25,0,0,0,.3-3.66A27,27,0,0,1,53.12,42a28.39,28.39,0,0,0,.75-3.75,68.65,68.65,0,0,1,1.74-9.14c.51-1.78,1.39-6,2.09-9.4l.38-1.84c.64-3,1.59-6.25,1.89-7.22l.09,0,.17-.64-3-.77-.11.43-.59-.1c0,.13-2.25,12.67-3.31,15.81L53,26c-1.43,4.23-2.43,7.28-2.28,8a1.15,1.15,0,0,0,.13.33,6.47,6.47,0,0,1-2-2.87,11.5,11.5,0,0,1,.39-6.28,12.4,12.4,0,0,1,1.16-1.86,11.19,11.19,0,0,0,2.07-4.07c.3-1.46.23-2.19-.23-2.36a.55.55,0,0,0-.49.07,1.86,1.86,0,0,0-1-1.31,2.81,2.81,0,0,0-3,.33l0,0a21.08,21.08,0,0,0,1.06-3.36c.17-.78.55-2.64.21-3-.59-.72-1.79-.18-4.61,2.09-1.86,1.49-2.22,4.33-2.47,6.21,0,.35-.1.74-.15,1-.22-.6-.56-1.7-.88-2.78C39.3,10.87,36.67,2.16,33,.59c-1.88-.8-3.31-.79-4.24,0C27.52,1.73,27.51,4,28,5.72a15,15,0,0,0,7.91,8.83c3.27,1.66,4.25,3.22,4.58,4.15a15.61,15.61,0,0,0-2.64-1.55,5.18,5.18,0,0,0-5.07.09,1.83,1.83,0,0,0-.74.81,4.82,4.82,0,0,0-3.36-.89.75.75,0,0,0-.59.59,10.32,10.32,0,0,0,2,6.78,7.46,7.46,0,0,0,2.76,2.27h0A34.06,34.06,0,0,1,28,25.63c-3.83-1.19-7.13-2.21-11.08.21-2.31,1.41-3.71,3.09-3.84,4.61A1.79,1.79,0,0,0,13.62,32a3,3,0,0,0,2.17.62,49.5,49.5,0,0,0,8-1.21c6.86-1.36,8.59-2.83,9.75-3.81l-.18-.28.21.25.18-.17-.06-.2,0,0a7.83,7.83,0,0,0,1,.26c-1.21.89-6.41,4.89-6.68,8.26A3,3,0,0,0,29,38.11l.13.08a5.09,5.09,0,0,0,1.58.27,3.84,3.84,0,0,0,2.93-1.35,9.4,9.4,0,0,0,1.94-4.55,3.69,3.69,0,0,0,1.29,1.57,7.05,7.05,0,0,0,1.45.78l-2.1,1.21c-1.45.83-2.75,1.57-5.77,3.35s-4,4.6-3.14,8.58c0,.15.05.26.06.33a.49.49,0,0,0,.44.42l.2,0c1.36,0,5.73-1.76,7.41-4.89a33.69,33.69,0,0,0,2-4.74A11.43,11.43,0,0,1,39,35.81c1.07-1.19,3.95-1.2,4.29-1l.13.14a1.92,1.92,0,0,1-.61-.07l-.56-.11A1.44,1.44,0,0,0,41,35.3a6.4,6.4,0,0,0-1.7,4,1.57,1.57,0,0,0,.83,1.31c.7.33,1.69.08,3-.73,2.31-1.49,2.4-2,1.81-3.85,0-.11-.15-.46.43-.76.9-.46,2.87-.38,3.62.67,1,1.39.8,2.58.21,6.13L49,43.5C48.34,47.33,47.11,54,46.7,56.24c-.85-1.71-2.77-5-5.69-6.73-3.6-2.17-6.49-1.47-7.14-1a.45.45,0,0,0-.21.5,1.37,1.37,0,0,0,.29.47,1,1,0,0,1,.28.58,8.83,8.83,0,0,0,6,6.33c1.2.34,2.23.66,3.11.93a13.55,13.55,0,0,0,3.07.77A.9.9,0,0,0,47,58a.62.62,0,0,0,.25-.53l0-.12-.11-.25.1,0,.18-.95a5.45,5.45,0,0,0,.69,2.62.73.73,0,0,0,.61.59l.26,0a2.25,2.25,0,0,0,.4,0c-.52,1.49-1.45,4.58-.5,5.38a1.22,1.22,0,0,0,1,.26c1.08-.12,2.51-1.34,3.56-2.58a.38.38,0,0,0,0,.16c.09.27.41.3.55.3.8,0,3.53-1.49,4.07-1.8l.15-.09v-.18a5.45,5.45,0,0,1,3.92-4.62c4.1-1.36,4.66-.68,4.66-.68.15.61.75,3.76-2,5.37a8.22,8.22,0,0,1-5.31.73,4.73,4.73,0,0,0-2.22.06l-.68.29c-2.34,1-3.17,1.43-3.15,2a.44.44,0,0,0,.18.34c.24.17.55.09,1.12-.07a6.86,6.86,0,0,1,3.16-.28c.62.12,1.18.25,1.68.36a22.08,22.08,0,0,0-2.41,0H56.8c-1.41.06-1.94.09-2.14.49a.84.84,0,0,0,.17.81,9.26,9.26,0,0,0,1.37,1.29c1.2,1,2.85,2.43,3.23,3.48a12.83,12.83,0,0,1,.42,1.39c.1.41.16.66.6.77a1.24,1.24,0,0,0,.63-.08,5.16,5.16,0,0,1,5.14,1.27c2.5,2.07,2.75,3.34,2.74,3.79a.59.59,0,0,1-.18.46c-1.24.93-3.31.29-4.83-.42-2.13-1-3.37-3.23-4.11-4.56-.42-.76-.6-1.08-.89-1.12a.5.5,0,0,0-.51.29,3.87,3.87,0,0,0,.86,3.46c.17.2,4.2,4.85,4.29,8.74.08,3.44-1.49,4.8-1.82,4.82h0A6.13,6.13,0,0,1,57.34,84a44.12,44.12,0,0,1,.48-7.55c.43-3.63.51-4.58-.12-4.67h-.24a1.4,1.4,0,0,0-.19-1.12,16.72,16.72,0,0,0-2.22-3.15,4.23,4.23,0,0,0-4.26-1.25,8.45,8.45,0,0,1-1.06.17,1.75,1.75,0,0,0-1.47.69c-.54.75-4.6,11-5.36,13.44a21.14,21.14,0,0,0-.79,3,13.85,13.85,0,0,0-3.71,2.28l.49-.7c.35-.51.75-1.09,1.23-1.74,1.9-2.59,1.55-3.7,1.21-4.78l-.06-.21a1.06,1.06,0,0,0-.51-.66c.4-1.27,3.21-9.44,4.75-13.88a8.75,8.75,0,0,0,1.36-1c1.47-1.34,2-2.19,1.84-2.84s-.8-.79-1.47-.94c-.3-.09-4-1.17-6.35.94-1.69,1.53-2.18,3.44-1.78,4.47a1,1,0,0,0,.94.71h.34a9.88,9.88,0,0,0,4.26-.87c-1,2.8-4.22,12.22-4.55,13.33-1.12.16-2.64,1.61-3.78,2.9-2.67,3-.21,6.64-.19,6.67l.05.08.09,0a.9.9,0,0,0,.35.08.86.86,0,0,0,.32-.07L38,87a3.72,3.72,0,0,1,2.24.16,4.74,4.74,0,0,1,.85.51c1,.69,2.35,1.63,6.07,1.81l.89,0c4,0,5.21-1.44,5.55-2.34a2,2,0,0,0-.47-1.58c-.46-.67-2.27-2.87-6.51-2.94a11.18,11.18,0,0,0-3.8.61c.09-.44.28-1.2.7-2.51.82-2.59,4.81-12.62,5.27-13.25.25-.34.45-.36,1-.42a8.91,8.91,0,0,0,1.14-.18,3.59,3.59,0,0,1,3.61,1,16.1,16.1,0,0,1,2.14,3,.76.76,0,0,1,.12.64.85.85,0,0,1-.62.32,1.18,1.18,0,0,1-.26-.05c-.56-.15-1.59-.43-3.87.86-2.93,1.66-2.72,6.2-2.71,6.39l0,.15c.18.31,1,.67,4.17-.45,3.44-1.2,3.43-5.19,3.4-6a.52.52,0,0,1,.18-.29.56.56,0,0,1,.34-.13,26,26,0,0,1-.31,3.94,44.54,44.54,0,0,0-.48,7.69,6.7,6.7,0,0,0,5.06,5.8h0c.92,0,2.53-1.91,2.45-5.49-.09-4.13-4.27-9-4.45-9.16a3.76,3.76,0,0,1-.83-2.43l.31.55c.73,1.32,2.08,3.76,4.41,4.84s4.29,1.25,5.5.35a1.21,1.21,0,0,0,.45-1c0-.68-.35-2.14-3-4.31a5.83,5.83,0,0,0-5.73-1.4l-.33.09a2,2,0,0,1-.08-.29A13.61,13.61,0,0,0,60,70.18c-.43-1.21-2.16-2.69-3.42-3.76a10.37,10.37,0,0,1-1.25-1.15l-.08-.14A10,10,0,0,1,56.83,65h.29c1.79-.08,3.5-.1,4.58.56.8.49.83.56,1.66,2.25.24.49.54,1.1.94,1.88a11.78,11.78,0,0,0,6.8,5.38,3.2,3.2,0,0,0,2.6-.21,3,3,0,0,0,1.12-2.68A7.43,7.43,0,0,0,70.72,66.35Zm-47-35.6c-6.73,1.33-8.81,1.5-9.65.75a1.15,1.15,0,0,1-.32-1,2.33,2.33,0,0,1,.1-.46.39.39,0,0,0,0,.08c.07.4.57.34,1,.29a20.91,20.91,0,0,0,3.29-.85l1.08-.33,0,.08c-.86,1-.67,1.18-.58,1.29a.32.32,0,0,0,.25.12.66.66,0,0,0,.38-.17,1.23,1.23,0,0,0,.36-.57c0-.09.07-.18.13-.28s.3-.33.47-.51a.93.93,0,0,0,.13-.16,6.25,6.25,0,0,1,2.93-.77c2-.17,4-.14,5.39-.13,2.11,0,2.6,0,2.79-.32a.41.41,0,0,0,0-.43l-.08-.12-.15,0a34.27,34.27,0,0,0-10.59.5c-5.43,1.28-6.48,1.86-6.66,2.17.27-.78,1.07-2.1,3.4-3.52A8.5,8.5,0,0,1,21.88,25a20.66,20.66,0,0,1,5.93,1.24,34.48,34.48,0,0,0,4.91,1.18C31.58,28.35,29.58,29.58,23.71,30.75Zm19.85,26c-.88-.27-1.92-.6-3.12-.94a8.23,8.23,0,0,1-5.55-5.73,1.58,1.58,0,0,0-.43-1L34.38,49c.62-.34,3.12-.84,6.29,1.08,3.49,2.11,5.55,6.63,5.88,7.4A12.42,12.42,0,0,1,43.56,56.73ZM48.17,16.4a2.14,2.14,0,0,1,2.31-.26,1.16,1.16,0,0,1,.68,1.13c0,.22-.05.46-.09.71-.42,1.1-1,3-1,3.13h0c.12.42.36.46.49.45.6-.05,1-2.19,1.18-3.41a4.44,4.44,0,0,1,.2-.47,1.27,1.27,0,0,1,.11-.17A5.22,5.22,0,0,1,51.86,19a10.68,10.68,0,0,1-2,3.83,12.77,12.77,0,0,0-1.22,2,10,10,0,0,0-.65,3,5.56,5.56,0,0,1,.26-2.34c.17-.43.33-.75.46-1a1.75,1.75,0,0,0,0-2.13C48.07,21.26,46.92,17.39,48.17,16.4Zm0,6.31c.39.64.33.77,0,1.49-.13.27-.3.61-.48,1.06a6.36,6.36,0,0,0-.3,2.74c0,.12,0,.26,0,.38a12.64,12.64,0,0,1-1.24-4.66A3.31,3.31,0,0,0,44.55,21a2.66,2.66,0,0,0-1.44-.44,7.24,7.24,0,0,1,2.11-1.34A4.59,4.59,0,0,0,47,17.37,10.07,10.07,0,0,0,48.18,22.71ZM35.37,21.49a5.1,5.1,0,0,0,2.33.73l.31,0a5,5,0,0,0,2.6-.87,2.88,2.88,0,0,1,.5-.29.53.53,0,0,1,.61,0,1.77,1.77,0,0,0-.5,1.17,4.89,4.89,0,0,0,1.53,3.5,2.55,2.55,0,0,0,1.28.41,2.65,2.65,0,0,1,1.84.85c1.11,1.17,1,3.42.82,4.13-.22,0-1-.37-3.32-2.44a1.31,1.31,0,0,1-.48-.81A7.18,7.18,0,0,0,41.24,25a5.09,5.09,0,0,0-5.31-1.64A7.09,7.09,0,0,0,35.37,21.49Zm7.06-.11a1.4,1.4,0,0,1,.67-.17,2.1,2.1,0,0,1,1.09.36,2.67,2.67,0,0,1,1.3,2.11,8.92,8.92,0,0,0,.38,2.45,3.4,3.4,0,0,0-1.75-.61,2,2,0,0,1-1-.29,4.23,4.23,0,0,1-1.27-2.92A1,1,0,0,1,42.43,21.38ZM36.23,14a14.32,14.32,0,0,1-7.58-8.43c-.46-1.54-.43-3.54.53-4.4A2,2,0,0,1,30.56.66a5.72,5.72,0,0,1,2.17.54c3.4,1.45,6.08,10.31,7.51,15.07l.35,1.14A11,11,0,0,0,36.23,14Zm-3.56,4.35c0-.06.15-.31.59-.58a4,4,0,0,1,2-.52,5.3,5.3,0,0,1,2.29.54,12.17,12.17,0,0,1,3.13,2c.12.11.31.28.53.13a.31.31,0,0,0,.14-.22c.15.23.28.26.46.23.46-.11.54-.72.7-2,.23-1.77.58-4.45,2.23-5.78,3-2.4,3.57-2.33,3.66-2.24.24.72-1.08,7.57-3.52,8.75-2,.95-2.54,1.63-2.68,2a1.18,1.18,0,0,0-1.39-.24,3.46,3.46,0,0,0-.61.35,4.41,4.41,0,0,1-2.31.76h-.25a6,6,0,0,1-3.13-1.37c-.08-.1-.16-.21-.26-.31a10.82,10.82,0,0,0-1.5-1.34A.75.75,0,0,1,32.67,18.31Zm-2,5.82a9.74,9.74,0,0,1-1.88-6.27s.09-.08.31-.1h.17A5.86,5.86,0,0,1,32.35,19a8.52,8.52,0,0,0,1.17,1.19c.13.11.33.27.58.45a6,6,0,0,1,1.19,2.9l0,.16a5.68,5.68,0,0,0,0,2.31c0,.32-.1.59-.14.77A6.71,6.71,0,0,1,30.64,24.13Zm2.5,12.54a3.33,3.33,0,0,1-3.75.92,2.28,2.28,0,0,1-.69-1.87c.23-3,4.94-6.68,6.29-7.7,0,.12.05.25.07.39a10.35,10.35,0,0,0,0,2.61A10.13,10.13,0,0,1,33.14,36.67Zm2.63-5.79a12.79,12.79,0,0,0,0-2.4c0-.28.06-.55.09-.74l.25.13a4.69,4.69,0,0,0,2.6,1.79,3.59,3.59,0,0,1,1,3.94c0,.06,0,.11-.07.22a1,1,0,0,1-.23.46l-.23.12c-.27,0-.83-.09-2-.83A3.77,3.77,0,0,1,35.78,30.88Zm1,8.08a33,33,0,0,1-2,4.64c-1.62,3-6,4.62-6.83,4.55l0-.25c-.28-1.37-1.14-5.54,2.83-7.88,3-1.78,4.31-2.52,5.76-3.35l1.65-.95A15,15,0,0,0,36.79,39Zm3.53-5.08,0-.06a4,4,0,0,0-.6-3.91,11.7,11.7,0,0,0,1.79.13h0a4.06,4.06,0,0,1,2.71,1.56,8.92,8.92,0,0,0,1.27,1.09c.28.18.3.28.3.28s-.43.4-.66.55a7.54,7.54,0,0,0-.72.54A4.39,4.39,0,0,0,40.32,33.87Zm3.62.73-.2-.2.25.14Zm-1.17,4.74c-1.39.89-2,.81-2.32.69a1,1,0,0,1-.46-.79,5.88,5.88,0,0,1,1.5-3.46c.24-.23.46-.34.62-.31l.53.1a1.46,1.46,0,0,0,1.46-.21l.28,0a1.14,1.14,0,0,0-.07.91C44.79,37.73,44.87,38,42.77,39.35Zm6.85,4.26.24-1.41c.62-3.65.85-5-.32-6.62a3.91,3.91,0,0,0-4.46-.87l-.08.05a.59.59,0,0,0-.07-.21,7.29,7.29,0,0,1,.63-.47c.51-.34,1-.64,1-1.1a1.1,1.1,0,0,0-.6-.83,8.37,8.37,0,0,1-1.17-1,4.67,4.67,0,0,0-3.17-1.75h0a9.47,9.47,0,0,1-2.52-.3,11,11,0,0,0-2.49-1.72A4.45,4.45,0,0,1,36,26,9.71,9.71,0,0,0,36,24a4.46,4.46,0,0,1,4.71,1.4,6.51,6.51,0,0,1,1.53,2.66,2,2,0,0,0,.68,1.13c3.17,2.8,3.72,2.66,4,2.59a.52.52,0,0,0,.37-.34,5.72,5.72,0,0,0,.15-2.13.39.39,0,0,0,.16,0A.48.48,0,0,0,48,29a8.6,8.6,0,0,0,.3,2.62,7,7,0,0,0,3.91,4.22.79.79,0,0,0,.23,0,.34.34,0,0,0,.32-.17c.16-.27,0-.46-.45-.84s-.84-.78-.9-1.05c-.12-.58,1.37-5,2.26-7.61l.21-.61c1-3,3-13.93,3.3-15.69l2.19.57c-.31,1-1.25,4.21-1.89,7.25l-.38,1.84c-.7,3.38-1.58,7.6-2.08,9.36a69.55,69.55,0,0,0-1.76,9.26,28.21,28.21,0,0,1-.74,3.65,27.27,27.27,0,0,0-.94,5.27,25.41,25.41,0,0,1-.38,4.09,14.35,14.35,0,0,0-2.38,1.91,4.55,4.55,0,0,0-1.13,1.71C48.18,51.83,49.1,46.76,49.62,43.61Zm-.8,15.13c-.1,0-.1,0-.1-.09l-.05-.15a4,4,0,0,1,.57-5c2-1.9,3.4-2.49,3.86-2.53h0a6.85,6.85,0,0,1-.37,5C51.71,57.83,49.51,58.89,48.82,58.74ZM65.6,50c3.12-.15,4,1.38,4.23,1.74a3.56,3.56,0,0,1-3.17,2.69A9.58,9.58,0,0,1,61,53.24l0,0a1,1,0,0,0-.14-.21A6.05,6.05,0,0,1,65.6,50Zm-6.35-9.68c1.45-3.61,2.8-4.81,3.22-5.12.61.39,2.89,2.26,2,8-.85,5.48-3.62,8.2-4.62,9C59.36,50.48,57.72,44.11,59.25,40.32ZM53.85,61.8a4.25,4.25,0,0,0,.67-2.68A15.07,15.07,0,0,1,55.11,55l.26-.92c.44-1.58.7-2.54.78-2.65l.22.09.37.18a1.22,1.22,0,0,0,1,.16,1.25,1.25,0,0,1,.89,0,.29.29,0,0,1,.12.23c.07.69.37.93.72,1l0,.09.1-.06.31,0-.05.12.24.15.29.17a2.92,2.92,0,0,1-.84,1.77c-.82,1-2,2.26-3,3.34a22,22,0,0,0-2,2.27A3.72,3.72,0,0,1,53.85,61.8Zm8-6.23a6.22,6.22,0,0,0-4.35,5,24.62,24.62,0,0,1-3,1.5,3.8,3.8,0,0,0,.57-.69A22.75,22.75,0,0,1,57,59.25c1-1.08,2.21-2.32,3.05-3.39A4.24,4.24,0,0,0,61,54a12.15,12.15,0,0,0,2.86,1C63.28,55.14,62.62,55.33,61.88,55.58Zm-21.63,9H40c-.14,0-.25-.1-.32-.29-.27-.7,0-2.33,1.61-3.74,2.11-1.9,5.69-.8,5.73-.79h0c.23,0,.92.2,1,.47s0,.7-1.65,2.18A8.51,8.51,0,0,1,40.25,64.54ZM36.61,86.76h0c-.34-.56-1.89-3.39.2-5.76,1.9-2.14,3.09-2.79,3.57-2.69.08,0,.19.07.26.29l.07.21c.3,1,.59,1.87-1.11,4.19-.48.65-.89,1.24-1.24,1.75C37.56,85.9,37,86.76,36.61,86.76Zm10-3.42c3.66.07,5.33,1.78,5.87,2.51A2,2,0,0,1,53,87c-.24.64-1.29,2.11-5.79,1.89-3.53-.17-4.79-1-5.72-1.69a5.31,5.31,0,0,0-1-.58,4.23,4.23,0,0,0-1.62-.31,12.14,12.14,0,0,1,7.55-3Zm6.72-5.1c-2.25.79-3.08.75-3.34.7,0-.84.11-4.31,2.38-5.6,2-1.16,2.88-.93,3.37-.8a1.32,1.32,0,0,0,.51.07h.08a.82.82,0,0,0-.05.31C56.33,73.61,56.34,77.18,53.34,78.23Zm20-3.92a2.64,2.64,0,0,1-2.07.11,11,11,0,0,1-6.38-5c-.4-.78-.7-1.39-.94-1.88a14,14,0,0,0-.85-1.59,6.53,6.53,0,0,0,.85.28,10.13,10.13,0,0,1,2.11.77c.75.43,1.06,2.09,1.28,3.3a4.79,4.79,0,0,0,.43,1.57c.19.29.41.23.49.19.34-.16.28-.36-.25-2.29-.11-.4-.23-.82-.32-1.17.57.52,1.48,1.46,2.2,2.2a31.32,31.32,0,0,0,2.64,2.56.93.93,0,0,0,.51.21.39.39,0,0,0,.32-.15c.54-.66-1.59-3.29-3.26-4.87a15.12,15.12,0,0,0-6.77-3.42l-.08,0-.08,0c-.26.08-.4.22-.39.42h0A4.08,4.08,0,0,0,62,65l-.22-.12.21,0h.36a16.12,16.12,0,0,1,8,2,6.86,6.86,0,0,1,3.78,5.27A2.34,2.34,0,0,1,73.34,74.3Zm-6.19-7.1A12,12,0,0,1,69.65,69a16.43,16.43,0,0,1,2.9,3.49c-.53-.48-1.37-1.34-2.18-2.17-2.17-2.24-2.75-2.76-3.07-2.79C67.25,67.4,67.2,67.3,67.15,67.2Z"/><path class="cls-1" d="M57.12,127.91c-2.53-2.36-6-3.58-8.22-4.39a15.35,15.35,0,0,1-1.85-.73,9.55,9.55,0,0,1,1.3-.26,10.35,10.35,0,0,0,4.49-1.46,4.56,4.56,0,0,0,2.05-3.54,3.41,3.41,0,0,0,.51.08c2.42.18,4.12-.64,4.22-1.29A4,4,0,0,0,57,112.56a6.29,6.29,0,0,0-5,0l-.87.26a4.17,4.17,0,0,1-2.94,0c.31-.14.93-.35,1.54-.55,2.23-.75,6-2,8.41-4.21,3.84-3.46,2.7-7.14,2.45-7.45-.39-.47-3-.24-7.34,2.45a11.53,11.53,0,0,0-5.1,7.7c-.05.23-.12.49-.14.54a4.29,4.29,0,0,1-1.19.9c0-.19.11-.44.18-.68.4-1.49,1.08-4,.3-5.93-1-2.5-4-3.23-4.67-3.36a.48.48,0,0,0-.42-.17c-.33,0-.73.31-1.21,3a5.2,5.2,0,0,0,.1,2.21,2.09,2.09,0,0,0-1.25-.26,2.15,2.15,0,0,0-1.6,1.23c-.92,1.63-.65,4.19-.57,5a1,1,0,0,0,0,.17h0c-.12.46-2.61,4.07-3.76,4.65l-.17.08a16.33,16.33,0,0,1,.37-1.67c.24-1,.57-2.29.94-4.09,1-5,3.31-15.13,3.75-17.08.92,1,1.59,1.24,2,1.24l.19,0c.31-.06.79-.6,1.08-1.23a5,5,0,0,0-.37-4.66,5.25,5.25,0,0,0-5.08-3.1l-.17,0-.08.15a3.53,3.53,0,0,0-.27,1.49L36,89.27c0,.07-.13.29-.26.58a6.56,6.56,0,0,1-1.53-4.27c0-.67,0-1.24-.06-1.74C34,82,34,81.46,34.63,81.17c1-.49,2.13-1.36,2.85-4.19.32-1.24.64-2.79.35-3.19l-.15-.21-.24.09a4.86,4.86,0,0,0-1.87,1.4,2,2,0,0,0-.43-1.49c-1.08-1.14-1.9-1-2-1l-.22,0,0,.22a28.42,28.42,0,0,0-.41,5.58,7.68,7.68,0,0,0,.4,2A29.32,29.32,0,0,0,32.59,85a8.34,8.34,0,0,0,.53,2.93c-.93-1-2.75-4.54-3.67-9-.95-4.65-.66-5.11.73-7.35l.1-.16c1.74-2.81,3.62-6.5,2.65-10.16-.88-3.32-2.11-4.29-2.6-4.56a1,1,0,0,0-.76-.13c-.68.22-4.07,4.7-3.37,10.12.33,2.52.64,4.44.86,5.71.1.59.19,1.14.24,1.53A6.94,6.94,0,0,0,22.61,72c-4.42-.36-5.06,1.86-5.09,2l0,.18.12.13a12,12,0,0,0,1.13,1,3.19,3.19,0,0,0,0,1.18,18,18,0,0,1,.15,3,6.93,6.93,0,0,0,1.23,4l-.42-.38C17.17,80.8,12.43,76.5,8.2,75.45c-6-1.47-8.11,2.94-8.13,3L0,78.58l.06.14c0,.1,1.15,2.46,3,2.47,1.28,0,4.9,1.09,8.69,2.57a4.46,4.46,0,0,0-1.61.21c-.35.16-.36.4-.34.5a1.93,1.93,0,0,1,0,.26,6.92,6.92,0,0,0,2.55,6c2.1,1.89,3.41,2.24,4.1,2.24a1.61,1.61,0,0,0,.29,0,2.93,2.93,0,0,0,.13.39A70.52,70.52,0,0,0,10,96.09c-5.76,2.58-7.51,8.83-7.58,9.1l-.07.26.23.12a4.53,4.53,0,0,0,2,.32,13.52,13.52,0,0,0,3.2-.44c3.5-.86,5.56-4,7.75-7.27l.35-.53c1.89-2.84,3.71-3.09,4.4-3.18h0A10,10,0,0,0,22.5,99c2.35,2.91,4.65,3.82,5.46,3.82h0a1.1,1.1,0,0,0,.81-.55c.58-.84.88-2.65,0-5.17-1-2.86-4.58-3.93-6.16-4.35A23.88,23.88,0,0,1,28.85,92H29c4.48,0,5.47,1,5.48,1.06l.25-.21,0,0a2.16,2.16,0,0,0,0,.41,71.44,71.44,0,0,1-3,12.26c-1.11,2.67-2.44,10.78-2.5,11.13l.65.11c0-.08,1.38-8.38,2.46-11s3.19-11.45,3.1-12.57a8.89,8.89,0,0,1,.81-2.8,9,9,0,0,0,1.1,2.84A15,15,0,0,0,38.45,95l-.21,0c0,.12-2.7,11.92-3.83,17.42-.36,1.78-.69,3.1-.93,4.06-.41,1.66-.54,2.16-.19,2.43s.69,0,.93-.09a9,9,0,0,0,2.17-2.12c-.47.78-.62,1.25-.54,1.54a.49.49,0,0,0,.26.31c-.66.36-.87.58-.83.88s.49.43.63.45a9.27,9.27,0,0,0,1.1.09l-.34.05c-3.45.62-5.16,1.79-6.16,7.13a51.89,51.89,0,0,0-.68,7.84,17.4,17.4,0,0,1-.21,2.95,3.19,3.19,0,0,1-.44,0,.31.31,0,0,0,0-.08c0-.15,0-.37-.34-.55a3.31,3.31,0,0,0-.63-.21c-.74-.2-1.37-.37-1.14-1.88,0-.07.45-3.06.94-6.49a12,12,0,0,0,.57-4c.38-2.73.71-5.14.78-6a7,7,0,0,1,2.24,1.66l.52-.41a7.62,7.62,0,0,0-4.52-2.49c-1.66-.26-3.73-.47-4.22.07a.48.48,0,0,0-.11.45c.06.22.28.35.87.69,1.23.71,3.53,2,3.71,4.09.05.63.07,1.25.07,1.84-.17,1.2-.35,2.47-.53,3.71-.87-.52-3.72-2.92-3.89-5.29-.07-.91-.1-1.82-.12-2.62-.06-1.83-.1-2.64-.35-3l.17,0a11.25,11.25,0,0,1,4.8-.07c4.19.56,4.73,2.13,4.73,2.13l.64-.17c0-.08-.59-2-5.28-2.62a12.07,12.07,0,0,0-5.05.09,2.53,2.53,0,0,1-.51.09,4.6,4.6,0,0,1-.95-.79,18.48,18.48,0,0,0-4.85-3.5,7.79,7.79,0,0,0-7.55.6.47.47,0,0,0-.27.38c0,.35.13.45,2.59,2.08l1.08.72c2.6,1.73,5.57,1.48,7.46,1.27l-1.61.52c-1.61.52-3.61,1.16-5.44,1.88-4.33,1.69-4.31,7.11-4.26,8.18a2,2,0,0,0,.93,1.59,1.37,1.37,0,0,0,.69.18,1.71,1.71,0,0,0,.8-.22,13.4,13.4,0,0,0,1.68-1.16,53.27,53.27,0,0,1,5-3.43,10.8,10.8,0,0,0,4.62-6.49l.11-.36c.06.52.09,1.37.12,2.15s.06,1.74.12,2.65c.2,2.73,3.5,5.49,4.45,5.92-.39,2.72-.74,5.14-.88,6.06-.26,1.71.47,2.23,1.16,2.48l-.6,0-.29,0-.21.38.13.17a8.25,8.25,0,0,0,2.93.5l.28,0c.5-.13.55-.84.63-3.55a51.47,51.47,0,0,1,.67-7.74c.93-4.91,2.28-6,5.63-6.6,3.06-.55,6.92,1.44,7.46,2-.33.39-3.57.89-4.66,1.05a4.77,4.77,0,0,0-3.75,2.78,5.39,5.39,0,0,0-.46,3.62c.59,1,2.27.85,5-.42a6.28,6.28,0,0,0,3.88-4.36c.1-.3.19-.58.31-.85.49-1.11.68-1.26,1.06-1.38a24.35,24.35,0,0,1,1.55,2.55c1.41,2.48,3.35,5.88,5.18,7.62,3,2.85,7.61,2.85,8.35,2.41A.86.86,0,0,0,61,135C61.15,133.91,60.47,131,57.12,127.91ZM26.85,66.54a12.29,12.29,0,0,1,2.92-9.4h0c.25,0,1.58.7,2.51,4.23s-.9,6.95-2.57,9.64l-.1.16c-1.44,2.31-1.82,2.93-.82,7.83a28.59,28.59,0,0,0,2.8,7.87,20.75,20.75,0,0,1-1.9-4A31.32,31.32,0,0,1,28,75.53L28,74.68a7.84,7.84,0,0,0-.26-2.45C27.48,70.89,27.18,69.05,26.85,66.54Zm2.27,18.79A8,8,0,0,0,26.31,82a1.74,1.74,0,0,0-2.12.16c-.24.25-.7,1,.17,2.21A4.19,4.19,0,0,0,26.75,86a4.39,4.39,0,0,1,1.65.88,14.88,14.88,0,0,0,2.9,1.88,19,19,0,0,1,1.88,1.11l.42.31c-.59,0-1.45-.09-2.49-.11A13,13,0,0,1,28.33,89a34.32,34.32,0,0,1-5.82-3.91,1.81,1.81,0,0,1,.27-.42,7.35,7.35,0,0,0,1.48-4.45,4.3,4.3,0,0,0-.75-2.76h.34a6.1,6.1,0,0,0,3.62-1.14,32.26,32.26,0,0,0,1.63,6.84,21.68,21.68,0,0,0,1.9,4A4.64,4.64,0,0,1,29.12,85.33Zm1,2a9.23,9.23,0,0,1-1.23-.91,5,5,0,0,0-1.88-1A3.55,3.55,0,0,1,24.9,84c-.42-.59-.5-1.09-.23-1.37a.88.88,0,0,1,.64-.24,1.25,1.25,0,0,1,.66.18,7.37,7.37,0,0,1,2.55,3A4.54,4.54,0,0,0,30.08,87.33ZM22.56,72.69c3,.25,4.09,1.43,4.54,1.93.15.17.37.41.62.32l-.28.45s-.82,1.26-3.62,1.39h-.18a4.44,4.44,0,0,1-.77-.08,7.66,7.66,0,0,0-3.31-1.63l-.1,0a13.1,13.1,0,0,1-1.2-1C18.47,73.57,19.39,72.43,22.56,72.69ZM.73,78.58c.39-.7,2.39-3.7,7.3-2.49,4.07,1,8.73,5.24,11.23,7.51,1.4,1.27,1.64,1.44,1.88,1.43l.17,0,.09-.11c.24-.3,0-.64-.39-1.26a7,7,0,0,1-1.45-4.06,19.13,19.13,0,0,0-.15-3.14c0-.22-.05-.45-.06-.63a8.91,8.91,0,0,0,3.22,1.52,3.63,3.63,0,0,1,1,2.84,6.66,6.66,0,0,1-1.35,4.09c-.28.39-.55.75-.29,1.16.46.7,4,3,6.06,4.14.41.23.8.41,1.17.57l-.67,0,.07-.26a12.34,12.34,0,0,1-3.78-2c-.77-.58-1.36-1.08-1.79-1.44-.76-.64-1-.86-1.33-.7s-.24.49-.23.62a3.77,3.77,0,0,0,.24.84,4.5,4.5,0,0,1-.12,4.13c-1.4,2.38-2.32,2.61-2.77,2.72a1.22,1.22,0,0,1-1-.42c-.61-.63-.72-1.78-.3-3.24A7.93,7.93,0,0,1,18,89.19l.1,0,0-.12a8,8,0,0,1,3.07-3.36l-.28-.6s-2.16.84-6.4-1-9.51-3.6-11.36-3.6C1.86,80.52,1,79,.73,78.58Zm21.58,8.35-.13-.37.4.33c.43.37,1,.87,1.82,1.46a14.94,14.94,0,0,0,3.1,1.82l-.66,0a24,24,0,0,0-4.41.77A5.33,5.33,0,0,0,22.32,86.93Zm-4.56,1.26a10.31,10.31,0,0,0-1.61-2.75,11.06,11.06,0,0,0,3.47.51A8.76,8.76,0,0,0,17.76,88.19Zm-5,2a6.31,6.31,0,0,1-2.34-5.43c0-.08,0-.16,0-.22.63-.24,3.78-.32,5.06,1.19A9.62,9.62,0,0,1,17.35,89a8.68,8.68,0,0,0-.43,1.17,6.05,6.05,0,0,0-.27,2.07C16.33,92.3,15.15,92.31,12.8,90.19Zm2.52,7.09-.35.53c-2.2,3.32-4.1,6.2-7.35,7a9.21,9.21,0,0,1-4.45.26c.42-1.26,2.33-6.23,7.12-8.37a61.45,61.45,0,0,1,6.93-2.83l.16.18a2.14,2.14,0,0,0,.7.48A8.56,8.56,0,0,0,15.32,97.28ZM34.8,92.52c-.45-.37-1.9-1.18-5.95-1.14-3.39,0-7.15.52-7.31,1.29a.4.4,0,0,0,.25.45,4.81,4.81,0,0,0,.54.16c1.36.36,5,1.33,5.89,4,.79,2.3.52,3.91.06,4.59-.14.2-.26.26-.3.26h0c-.57,0-2.71-.82-4.93-3.57a9.4,9.4,0,0,1-2.1-4.2c-.07-.3-.1-.48-.3-.56l-.06,0a9.53,9.53,0,0,0,1.59-2.11c0-.08.08-.16.12-.24l.1.33a23.1,23.1,0,0,1,4.54-.82c1.5-.12,2.92-.14,4.11-.12a7.67,7.67,0,0,0,.81.18l0-.16c1.26,0,2.15.12,2.45.15V91a.43.43,0,0,0,.39-.3c.08-.29-.07-.6-1.12-1.33a19.64,19.64,0,0,0-1.95-1.15l-.53-.29a1.52,1.52,0,0,0,.47.14.41.41,0,0,0,.39-.19.47.47,0,0,0,0-.5,3.7,3.7,0,0,0,1.24,1.37c.2.09.49.22.71,0s.12-.46,0-.86A7.76,7.76,0,0,1,33.25,85a28.14,28.14,0,0,1,.32-4.52l.07-.13-.13-.12a5.92,5.92,0,0,1-.35-1.81,26.13,26.13,0,0,1,.36-5.11,2.39,2.39,0,0,1,1.15.76c.44.46.21,1.57,0,2.46s-.33,1.58.1,1.89a.56.56,0,0,0,.59.11c.25-.13.24-.41.23-.79a5,5,0,0,1,.13-1.52,3.13,3.13,0,0,1,1.55-1.71,12.45,12.45,0,0,1-.43,2.33c-.66,2.57-1.64,3.34-2.5,3.76s-1,1.43-.89,3.3c0,.49,0,1.06.06,1.72a7,7,0,0,0,1.91,4.92h0A12.68,12.68,0,0,0,34.8,92.52Zm2.09-4.22a4.56,4.56,0,0,1,4.22,2.77,4.63,4.63,0,0,1,.54,3.6,3,3,0,0,1-.8,1.33s-1.11.17-3-3.08C36.43,90.43,36.73,88.8,36.88,88.3ZM13,115.76,11.9,115c-1.11-.73-1.83-1.21-2.15-1.46a7.08,7.08,0,0,1,6.72-.45,17.66,17.66,0,0,1,4.68,3.38l.32.3a5.47,5.47,0,0,0-.78,0l-.8-1.31s-.76-1.2-3.62-2.18c-2.06-.7-3.87-.76-4.12-.13a.45.45,0,0,0,.27.58,3.83,3.83,0,0,0,1,.19,12.45,12.45,0,0,1,6,2l1.21.88-.38,0C18.48,117.1,15.5,117.43,13,115.76Zm8.91,2.67a10.07,10.07,0,0,1-4.33,6.12A53.72,53.72,0,0,0,12.48,128a13,13,0,0,1-1.59,1.1.84.84,0,0,1-.85,0,1.4,1.4,0,0,1-.6-1c0-.61-.15-6,3.84-7.53,1.81-.71,3.8-1.35,5.4-1.86,2.92-.94,3.33-1.1,3.36-1.44a1.33,1.33,0,0,0,.26.14A3.68,3.68,0,0,0,21.9,118.44Zm2.61-.34-.34-.2a11.79,11.79,0,0,1,3.36.22,6.73,6.73,0,0,1,1.32.36h-.09c0,.19-.17,1.5-.41,3.31C27.68,119.93,25.59,118.72,24.51,118.1Zm26.76-4.62.89-.27c1.53-.48,2.73-.86,4.55-.05a3.43,3.43,0,0,1,2.26,3c-.13.24-1.43.93-3.53.77a3.19,3.19,0,0,1-.59-.11c0-.08,0-.15,0-.21a.49.49,0,0,0-.29-.34,2.36,2.36,0,0,0-1.18,0c-1-.47-2.1-1.1-3.08-1.66l-1.5-.84A6.59,6.59,0,0,0,51.28,113.48Zm-2.75-1.73a2.42,2.42,0,0,0,.25-.78,10.92,10.92,0,0,1,4.8-7.29l.58-.34-.15.22a3.92,3.92,0,0,0-.42,1.85,3.38,3.38,0,0,1-.53,2,16.14,16.14,0,0,1-1.89,1.78c-1.42,1.21-1.9,1.66-1.73,2.07a.46.46,0,0,0,.48.28h.15l.08-.07c2.12-1.73,9-7.49,9-8.78a.48.48,0,0,0-.21-.39c-.71-.5-1.66.6-3.16,2.42a16.8,16.8,0,0,1-1.38,1.57,9.13,9.13,0,0,1,.33-2.16c.14-.56.2-.82-.1-.94a.3.3,0,0,0-.12,0c2.9-1.67,4.69-2,5.36-2h.19c.16.54.86,3.56-2.39,6.49-2.34,2.11-6,3.34-8.18,4.08-.67.23-1.13.38-1.45.51A3,3,0,0,0,48.53,111.75ZM54.3,107l-.52.46A2.82,2.82,0,0,0,54,107l.09,0A.49.49,0,0,0,54.3,107ZM56,105.5l.33-.4a13.18,13.18,0,0,1,2.13-2.26A15.5,15.5,0,0,1,56,105.5Zm-14.33-.23a9.53,9.53,0,0,1,.61-2.37l.12,0s3.32.55,4.3,3c.69,1.73.05,4.1-.33,5.51-.26,1-.34,1.27-.05,1.46s.71,0,1.12-.2h0l-.06.19.06.13.07.14a1.21,1.21,0,0,0-.75-.08,22.62,22.62,0,0,0-5.3,2.72l-.85.51.86-.54c1.27-.81,2.48-1.58,3-1.83,1.19-.55,1.64-.8,1.64-1.22s-.38-.55-.55-.63a10.21,10.21,0,0,1-3.14-3.25,3.06,3.06,0,0,0-.25-.48A5,5,0,0,1,41.64,105.27Zm-3.32,8c-.08-.79-.33-3.2.48-4.65a1.54,1.54,0,0,1,1.11-.9H40a2,2,0,0,1,1.32.66,2.23,2.23,0,0,1,.21.27l.22.4a2.5,2.5,0,0,1,.06,1.92c-.07.14-.13.29-.2.44a2.52,2.52,0,0,1-1.47,1.68l-.73.24c-.69.22-1,.33-1.28.71l-.09.13a1.67,1.67,0,0,0,.25-.64S38.33,113.42,38.32,113.3Zm.19,1.44.22-.3c.14-.2.29-.25.94-.46l.74-.25a3.12,3.12,0,0,0,1.86-2c.06-.14.12-.28.18-.41a2.47,2.47,0,0,0,.23-.94,10.3,10.3,0,0,0,2.58,2.31l.09,0a10.25,10.25,0,0,1-1.18.61c-.58.27-1.74,1-3.09,1.87a41.53,41.53,0,0,1-4.57,2.7A13.68,13.68,0,0,1,38.51,114.74Zm-.72,4.55c-.62,0-1.16,0-1.59-.08.38-.23,1.07-.55,1.7-.85a36.69,36.69,0,0,0,3.88-2,22.13,22.13,0,0,1,5.15-2.65,12.61,12.61,0,0,1,3,1.48c.77.44,1.57.9,2.35,1.3a20.69,20.69,0,0,0-4.44,1.79,4.57,4.57,0,0,0-2.54,2.59,2,2,0,0,0-.06.61c-.41-.22-1-.58-2-1.14C41.63,119.37,39.5,119.33,37.79,119.29ZM44,124.21c-.12.28-.22.59-.33.91a5.65,5.65,0,0,1-3.53,4c-3.32,1.54-4,.91-4.16.69a5.35,5.35,0,0,1,.64-3.32,4.07,4.07,0,0,1,3.1-2.1,19.79,19.79,0,0,0,4.72-1A8.44,8.44,0,0,0,44,124.21Zm1.54-1.76a1.8,1.8,0,0,0-.59.25.92.92,0,0,0,0-.13c0-.17-.12-.33-.37-.54a12.81,12.81,0,0,0-5.06-2,8,8,0,0,1,3.42.86c2.17,1.26,2.69,1.5,2.71,1.51l.1,0A.71.71,0,0,0,45.5,122.45Zm.47.09.33.15a.54.54,0,0,0,0,.25l0,0A2.1,2.1,0,0,0,46,122.54Zm.06-.64a1.23,1.23,0,0,1-.08-.9c.13-.52.62-1.32,2.21-2.17a18.25,18.25,0,0,1,5.08-1.9c.34.16.68.3,1,.41a3.88,3.88,0,0,1-1.79,3.21,9.85,9.85,0,0,1-4.2,1.34c-1,.16-1.61.25-1.84.58Zm14.33,13.21a9.43,9.43,0,0,1-7.55-2.32c-1.76-1.67-3.67-5-5.06-7.47-.59-1-1-1.73-1.28-2.17a6.79,6.79,0,0,0,2.21,1c2.22.79,5.56,2,8,4.25C60.18,131.67,60.62,134.73,60.36,135.11Z"/><path class="cls-1" d="M36.22,9.85c-1.34-2-3.14-4.56-5.58-8l-.12-.18-.45.12L30,1.94c-.3.8,3.15,5.51,3.73,6.29-.27-.08-.62-.21-.91-.32a12.58,12.58,0,0,0-1.72-.54c-.23,0-.58-.11-.67.21s-.1.38,3,1.49L35,9.64a1.8,1.8,0,0,1,.66.53l.84,1.24c.22.38.44.78.66,1.18a15.91,15.91,0,0,0,2,3.15.66.66,0,0,0,.42.25.32.32,0,0,0,.21-.08c.21-.17.36-.29-2.85-5A9,9,0,0,0,36.22,9.85ZM34.54,8.78a.42.42,0,0,0,.06-.11l.12.17Z"/><path class="cls-1" d="M30,18.28h0l-.21,0-.08.17c-.1.21,0,.41.18.63s.76,1,1.25,1.57l.47.57c-.65-.31-1.42-.57-1.66-.26-.11.14-.17.37.19.7a2.64,2.64,0,0,0,1.19.55,2.8,2.8,0,0,1,1.67,1A3.47,3.47,0,0,1,33.64,25c.06.45.11.8.38,1a.55.55,0,0,0,.31.09l.2,0,.22-.06,0-.23c0-.06.09-1.55-1.58-4.07C32.25,20.31,30.57,18.28,30,18.28Z"/><path class="cls-1" d="M47.92,11.65c.05-.37-.13-.5-.25-.54-.29-.1-.69-.22-4.91,7.21l.54.37C43.75,18.13,47.7,13.19,47.92,11.65Z"/><path class="cls-1" d="M30.58,42.4c-2,3.76-1.54,4.14-1.37,4.28a.41.41,0,0,0,.25.09.5.5,0,0,0,.32-.13c.11-.09.18-.25.44-.83.73-1.68,2.68-6.13,6.57-8.25l-.3-.59A14.42,14.42,0,0,0,30.58,42.4Z"/><path class="cls-1" d="M36,49.39a.42.42,0,0,0-.12.53c.56,1.48,8.19,6.26,8.95,6.39l1.23.21-1-.79C36.73,48.87,36.26,49.22,36,49.39Zm4.87,3.82a37.34,37.34,0,0,1-3.61-2.66C38.15,51.12,39.45,52.08,40.9,53.21Z"/><path class="cls-1" d="M60.31,50.37l-.08.13.18.41.26,0c.73-.09,1.65-5.11,1.85-6.69.27-2.22.52-6.11-.27-6.61l-.2-.11-.17.09c-.3.16-.36.5-.43,4.07,0,1.24-.05,2.71-.15,3.53-.11-.3-.22-.68-.3-1a8,8,0,0,0-.5-1.42c-.08-.14-.27-.46-.57-.32s-.38.17.76,3.58A5.92,5.92,0,0,1,60.31,50.37Zm1.21-4.12,0,.21,0-.19Z"/><path class="cls-1" d="M58.5,82.75c.32.05.4-.2.59-.7a7.42,7.42,0,0,1,.66-1.46c.21.41.7,1.82,1.44,6.69l0,.14c.05.33.21.42.35.42h.06c.17,0,.62-.09-.09-5.09a21.26,21.26,0,0,0-2.19-6.19l-.06-.12-.13,0a.45.45,0,0,0-.39.07c-.29.21-.59.83-.56,5.56v.14C58.19,82.36,58.19,82.69,58.5,82.75ZM59,77.4A24.84,24.84,0,0,1,60.13,80a.48.48,0,0,0-.26-.15.48.48,0,0,0-.51.18,4.05,4.05,0,0,0-.51.86A23.67,23.67,0,0,1,59,77.4Z"/><path class="cls-1" d="M17.82,84.06a.39.39,0,0,0,.26-.1.45.45,0,0,0,.09-.57l-.09-.12A31.8,31.8,0,0,0,10,78.53c-3.89-1.49-7-.72-7.51.09a.48.48,0,0,0,.07.63c.26.24,1,.26,3.59.2,1,0,2.33-.06,3.06,0-.34.21-.68.4-1,.56-.82.45-1.06.59-1,.92s.44.27.57.25a2.25,2.25,0,0,0,1-.46,2.56,2.56,0,0,1,2.83-.38,29.28,29.28,0,0,1,3.52,2.17C16.81,83.64,17.46,84.06,17.82,84.06ZM6.1,78.79c-1,0-2.31.06-2.87,0a7.85,7.85,0,0,1,5.32,0C8,78.74,7.18,78.76,6.1,78.79Zm4.1.63a.42.42,0,0,0,0-.08l.17.07Z"/><path class="cls-1" d="M14.53,95.37c-1.3.55-5,2.32-6.87,5.22-1.4,2.2-1.33,2.49-1.05,2.71a.37.37,0,0,0,.24.09c.2,0,.51-.15,1-.68.06-.06.23-.26.47-.55,1.07-1.3,4.19-5.07,6.37-6.15l.48-.2L15,95.19A3.93,3.93,0,0,0,14.53,95.37Zm-6.68,6.36-.38.45c.16-.29.4-.7.75-1.25a11.09,11.09,0,0,1,3-3C9.8,99.37,8.53,100.91,7.85,101.74Z"/><path class="cls-1" d="M20.92,118.13l-.23.08c-.21.07-5.24,1.85-7.38,5.07s-1.7,3.7-1.52,3.86a.45.45,0,0,0,.29.11.81.81,0,0,0,.53-.25,4.78,4.78,0,0,0,.76-1.14,16.77,16.77,0,0,1,3.21-4.27,10.51,10.51,0,0,1,3.77-2.34c.46-.18.72-.27.79-.53a.43.43,0,0,0-.08-.38Zm-8.12,7.39c-.13.23-.25.44-.35.61a15.18,15.18,0,0,1,1.42-2.49,7.71,7.71,0,0,1,1-1.18A19,19,0,0,0,12.8,125.52Z"/><path class="cls-1" d="M29.28,66.17a8.52,8.52,0,0,1-.82,2.32c-.58,1.29-.85,1.93-.54,2.29a.49.49,0,0,0,.39.17.83.83,0,0,0,.24,0l.12,0,.07-.11c.09-.15,2.29-3.78,2.32-6.91,0-.5,0-4.87-.79-4.9-.37,0-.44.47-.47.8-.05.66,0,1.82,0,2.95,0,.77,0,1.73,0,2.33-.65-.61-1.81-1.4-2.31-1.22a.47.47,0,0,0-.31.52c.05.49.54.67,1,.84C28.9,65.42,29.31,65.62,29.28,66.17Zm.66,0c0-.05,0-.1,0-.15h.12c-.07.25-.14.49-.22.72A2.8,2.8,0,0,0,29.94,66.2Z"/></g></g></svg>