<svg xmlns="http://www.w3.org/2000/svg" viewBox="0 0 125.62 171.63"><defs><style>.cls-1{fill:#fff;}</style></defs><title>בן חרדל</title><g id="Layer_2" data-name="Layer 2"><g id="Expended"><path class="cls-1" d="M61,84a34.27,34.27,0,0,0-8.81-2.25L52,81.08c-2.7-6.85-6.76-17.27-6.86-17.94,0-.1-.06-.42-.32-.5l-.23-.05-.14.15c-.47.48-.13,3.39,1.45,8A33.77,33.77,0,0,0,51.4,81.41l.19.22a28.94,28.94,0,0,0-5.1-.08c0-.35-.84-1.22-8.33-5.1l-.39-.2-.09.43a.56.56,0,0,0,.17.46A30.31,30.31,0,0,0,45,81.72a20.46,20.46,0,0,0-9.06,3.45c-7,4.89-10.27,9.11-13.27,14.58-.4,0-1.59.28-5.53,2.08a37.45,37.45,0,0,0-7.69,5l-.07.06-.08.37.18.14a.31.31,0,0,0,.22.08c.55,0,2.53-.87,12.39-6.69l.05,0c-.88,1.65-1.75,3.41-2.7,5.35-.6,1.21-1.22,2.48-1.91,3.84-1.53,3-3,5.91-4.37,8.46l-.2.39-.86.58c-7.31,4.89-7.11,5.5-7,5.77a.45.45,0,0,0,.48.3h0c1.43,0,5.39-4,6.69-5.29-3.64,7-4.51,8.95-4,9.5a.48.48,0,0,0,.35.14,1,1,0,0,0,.47-.14c1-.51,2.49-3.79,5.34-10,1.36-3,2.92-6.39,4.58-9.76a18.81,18.81,0,0,0-1,4.69c-.35,3.69-2.4,8.9-3.07,10.61l-.2.51a.78.78,0,0,0,0,.77.41.41,0,0,0,.31.14h.09c.73-.16,1.88-2.63,3.13-6.78,2-6.72,1.76-10,1.71-10.44A.39.39,0,0,0,20,109l-.17-.12-.18.08a.59.59,0,0,0-.2.2,70.47,70.47,0,0,1,7.51-12.47c8.31-10.09,15.44-14.47,22.43-13.78a75.29,75.29,0,0,1,9.46,1.58c1.86.42,2.25.5,2.45.16.07-.12.1-.32-.13-.57ZM46.47,70.57A33.58,33.58,0,0,1,45,64.79c1.14,3.15,3.89,10.17,5.4,14A38.36,38.36,0,0,1,46.47,70.57Zm-5.55,8.11c1.66.91,3.15,1.76,4,2.34A31.93,31.93,0,0,1,40.93,78.67ZM11.53,106a33.78,33.78,0,0,1,5.88-3.58c.84-.38,1.57-.7,2.19-1C15.36,103.94,12.93,105.29,11.53,106Zm-6,18.76h0v.33Zm.58-.19a37.71,37.71,0,0,1,3-2.36A18.62,18.62,0,0,1,6.11,124.57Zm13.34-13.92a35.4,35.4,0,0,1-1.71,8.93A38.41,38.41,0,0,1,16,124.4a43.1,43.1,0,0,0,2.73-9.81A20.23,20.23,0,0,1,19.45,110.65Zm-5.6,8.68c-2.18,4.78-4.24,9.3-5,9.73h0c.09-1.06,2.46-5.59,5-10.37l.13-.25.72-.75Zm.75-1.65-.5.34c1.15-2.2,2.41-4.61,3.69-7.15C16.66,113.2,15.59,115.52,14.61,117.67ZM26.4,96.21a64.7,64.7,0,0,0-6.75,10.93l.37-.76c4.34-8.82,7-14.14,16.29-20.67a20,20,0,0,1,9.22-3.4C39.54,83.25,33.36,87.76,26.4,96.21ZM48.5,82.13h.07a29.92,29.92,0,0,1,3.66.24l.16.19c-.93-.13-1.93-.26-3-.36Zm4.05.45-.07-.18A35.29,35.29,0,0,1,58,83.57C56.58,83.27,54.75,82.9,52.55,82.58Z"/><path class="cls-1" d="M32.37,100.05a37.27,37.27,0,0,1-1.49-4.78c-.23-.92-.3-1.22-.63-1.27a.53.53,0,0,0-.5.31l-.05.08v.1a19.19,19.19,0,0,0,4.49,11.19c3.68,4.1,4.91,4.7,5.38,4.7a.43.43,0,0,0,.25-.07c.14-.08.34-.3.15-.81a8,8,0,0,0-1.74-1.92C36.35,105.77,33.52,103,32.37,100.05Zm6.91,9.55c-.5-.28-1.77-1.21-4.6-4.36a17.44,17.44,0,0,1-3.75-7.29c.21.68.48,1.46.82,2.34,1.21,3.13,4.1,5.92,6,7.76A15.83,15.83,0,0,1,39.28,109.6Z"/><path class="cls-1" d="M29,90.78l.12-.48c.08-.35-.1-.7-5-4.93l-1.13-1a5.93,5.93,0,0,1-1-1.76c-.35-.83-.53-1.25-.92-1.19s-.44.54-.48.86c-.24,2,6.65,7.17,8,8.19Zm-7.75-8.15.11.26.05.12A1.73,1.73,0,0,1,21.23,82.63Z"/><path class="cls-1" d="M28.76,80.2C34.7,82.74,36.21,84,36.22,84l.31.27.2-.36.07-.17,0-.14c-.33-1-10.52-6-11.52-6.5-1.88-.85-5.44-1.68-6.5-1.08a.7.7,0,0,0-.38.53c-.09.76.81.94,2.62,1.3A37,37,0,0,1,28.76,80.2Zm-9-3.68A15.1,15.1,0,0,1,25,77.75c.56.25,1.45.69,2.51,1.22a39.54,39.54,0,0,0-6.37-1.72A7,7,0,0,1,19,76.68C19.07,76.57,19.33,76.52,19.74,76.52Z"/><path class="cls-1" d="M48.15,91.08a46.18,46.18,0,0,1-.78-5.35c-.12-1.24-.15-1.54-.45-1.65l-.26,0-.15.14c-.42.41,0,6.38,1.59,11.31.65,2,2.3,6.68,3.54,7.07l.19,0a.56.56,0,0,0,.35-.12c.41-.32.11-1-1.1-3.68A40.86,40.86,0,0,1,48.15,91.08Zm.58,4.2q-.17-.51-.31-1c.63,1.69,1.42,3.4,2.06,4.8.47,1,1,2.16,1.16,2.71C51.19,101.31,50.16,99.65,48.74,95.28Z"/><path class="cls-1" d="M46.19,86.08,45.54,86c-.05.26-1.22,6.52-.24,9.5.89,2.68,1.39,3,1.66,3l.12,0c.48-.12.34-.84.28-1.19C47,95.46,45.88,88.1,46.19,86.08Zm-.26,9.18A15,15,0,0,1,45.67,90c.29,2.82.81,6.08,1,7.14A15.65,15.65,0,0,1,45.93,95.26Z"/><path class="cls-1" d="M47.75,85.88a62.76,62.76,0,0,1,2.54,5.95c.31.79.59,1.49.78,2,.44,1.07.62,1.5.94,1.5h.1c.39-.09.39-.4.2-2.53-.24-2.81-3.89-7.09-4-7.27Zm3.91,6.92c0,.21,0,.52.07.84l0-.11c-.2-.47-.47-1.17-.78-2-.42-1.06-.88-2.23-1.31-3.27A11.23,11.23,0,0,1,51.66,92.81Z"/><path class="cls-1" d="M41.18,102.14c.2.2.44.44.67.44a.34.34,0,0,0,.22-.08c.32-.26.31-.44-2.06-4.13-.44-.69-.95-1.48-1-1.61l-.64.17v0A12.6,12.6,0,0,0,41.18,102.14Z"/><path class="cls-1" d="M40.85,106a.88.88,0,0,0,.45.17.37.37,0,0,0,.28-.12c.19-.2.48-.5-2.68-4.81l-.13-.24-.46.06-.05.22C38.17,101.65,39.51,105.08,40.85,106Z"/><path class="cls-1" d="M8.87,112.68a1.23,1.23,0,0,0,.27,0c1.56-.35,2.77-2.44,3-2.88l.28-.19L12,109l-.34.24-.07.05c-3.49,2.48-3.29,2.93-3.2,3.12A.43.43,0,0,0,8.87,112.68Zm1.51-1.59a4,4,0,0,1-.78.65C9.82,111.56,10.09,111.33,10.38,111.1Z"/><path class="cls-1" d="M7,120.44H7.1c1.65-.2,4.48-3.31,4.79-3.66l1.48-1.66-1.9,1.16c-5.23,3.18-5.07,3.63-5,3.89A.44.44,0,0,0,7,120.44Zm2-1.75a9.16,9.16,0,0,1-1,.69Z"/><path class="cls-1" d="M13.47,125.18c-1.5,4.74-1.76,6.31-1.14,6.72a.46.46,0,0,0,.46,0c.81-.39,1.43-5.17,1.73-8l-.65-.09C13.85,124,13.66,124.57,13.47,125.18ZM12.66,131a16.36,16.36,0,0,1,.67-3.08A20.59,20.59,0,0,1,12.66,131Z"/><path class="cls-1" d="M49.58,81.16a.58.58,0,0,0,.32.12.33.33,0,0,0,.25-.12c.23-.27.35-.4-4.19-5.35L44.33,74l1.1,2.16A24.27,24.27,0,0,0,49.58,81.16Z"/><path class="cls-1" d="M39.83,53.51h0a.52.52,0,0,0,.16-.44l0-.1c0-.09-1-2.33-7.31-5.71-4.52-2.43-9.18-3.33-10.12-2.75a.5.5,0,0,0-.25.44c0,.28.26.54.8.82A17.63,17.63,0,0,0,27.21,47c2.62.57,5.59,1.23,7.41,2.88,1.22,1.1,2,1.87,2.47,2.37-1.85-1-10.65-3.74-13.54-4.49l-.58-.2,0,.05a.91.91,0,0,0-.3,0l-.17.11,0,.21c0,.23,0,.23,1.15.58a24,24,0,0,1,6.83,3.15h-.23c-5.26-.37-5.29-.13-5.32.18s.31.44,1.45.59c2,.27,3.58.35,5.06.42,1,0,2,.1,3.19.21s2.18.3,3,.45l.77.14a57.2,57.2,0,0,0-11.71,2C14.35,59,1.91,65.77,1.79,65.84l-.11.06-.1.36.16.14a.32.32,0,0,0,.24.1c.33,0,1.1-.33,3.76-1.5a179.29,179.29,0,0,1,19.44-7.49A54.62,54.62,0,0,1,44.11,55,16.54,16.54,0,0,0,46.95,55c.25,0,.51-.12.59-.36l0-.26-.14-.14C47.06,53.83,44.15,53.37,39.83,53.51ZM27.35,46.34a17.59,17.59,0,0,1-3.94-1.15A2.64,2.64,0,0,1,23.1,45c.93-.15,4.43.38,8.57,2.47A36,36,0,0,0,27.35,46.34Zm7.33,6c-1.19-.11-2.22-.16-3.22-.21l-.38,0a.45.45,0,0,0,.17-.28c.09-.44-.66-1-1.74-1.63,2.61.83,5.29,1.74,6.65,2.32C35.7,52.45,35.2,52.39,34.68,52.34Zm.58-2.79a13.76,13.76,0,0,1,4,3.47,6.52,6.52,0,0,1-.86-.11C38.31,52.55,37.71,51.78,35.26,49.55Zm8.87,4.84A55.28,55.28,0,0,0,25,56.89c-4.52,1.38-8.86,3-12.57,4.55a111.23,111.23,0,0,1,14.46-5.26,55.78,55.78,0,0,1,14.61-2,29.81,29.81,0,0,1,4.44.28C45.43,54.42,44.83,54.41,44.13,54.39Z"/><path class="cls-1" d="M51.84,47.49A28.18,28.18,0,0,1,56.25,43c.61-.39,1-.67.84-1s-.61-.29-2.27.09a26.92,26.92,0,0,1-3.44.64l.34-1.47a90.12,90.12,0,0,1,5.81-7.82C58.72,32,59.75,30.7,60.19,30c.29-.43.56-.84.22-1.07-.7-.48-5.17,4.94-5.21,5a3.78,3.78,0,0,1-.68.75c-.08-.07-.43-.63.18-4.84.9-6.19,1.25-18.94,0-20.57-.16-.21-.4-.52-.7-.38s-.29.44-.09,1.71a50.92,50.92,0,0,1,.63,10.2c-.18,5-2,13.83-3.45,20.3-.52.95-.68,1.58-.49,2l0,0c-.82,3.51-1.45,6-1.46,6v0a.42.42,0,0,0,.23.48.41.41,0,0,0,.17,0C49.89,49.71,50.33,49.22,51.84,47.49ZM54,30.42c-.56,4.15-.14,4.7.3,4.88s1-.34,1.47-1c.34-.46,1.44-1.69,2.48-2.8L57,33.05c-2.17,2.71-3.8,4.81-4.89,6.39C52.76,36.61,53.42,33.45,54,30.42Zm-2.73,13h.15A26.79,26.79,0,0,0,55,42.76l.78-.18a29.84,29.84,0,0,0-4.42,4.48c-.47.54-1,1.13-1.35,1.52C50.23,47.62,50.68,45.77,51.23,43.43Z"/><path class="cls-1" d="M49.44,45.6c.73-1.39-2.29-10.53-4.25-12.86-.15-.17-.49-.58-.84-.37s-.92.56,4.3,13.32l.08.18.2,0H49A.53.53,0,0,0,49.44,45.6ZM44.85,33.38c1.93,2.53,3.72,8.81,4,11.1A108.77,108.77,0,0,1,44.85,33.38Z"/><path class="cls-1" d="M51.42,36.48h.06c.37,0,.38-.5.38-.73,0-2.62-2.08-10.84-3.43-11.82a.59.59,0,0,0-.56-.11l-.28.1.07.29C50.47,35.85,51.06,36.48,51.42,36.48Zm-.28-1.8c-.62-1.89-1.62-5.66-2.54-9.37A38.66,38.66,0,0,1,51.14,34.68Z"/><path class="cls-1" d="M111,54.23a14.34,14.34,0,0,1-2.08-.86c.13-.19.14-.32,0-.46s-.18-.17-.5.08h0l0,0,0,0c-2.28-1.42-2.69-3.39-3.46-7.17l0-.22a1.56,1.56,0,0,0-1-1.3c-2.49-.79-8.51,4.37-14.64,10.08-.82.76-1.46,1.36-1.74,1.59s-.72.5-1,.37-.69-.61-.68-3.16c0-.53-.15-.85-.46-1-.74-.25-1.85,1-4.22,4.22-.39.52-.75,1-1,1.38s-.49.5-.69.5h0c-.38,0-.85-.63-1.3-1.23a12.09,12.09,0,0,0-.88-1.09c.11-.71.64-3.11,3.25-8.93a36.55,36.55,0,0,1,2.86-5.09l.08-.1a2.89,2.89,0,0,1,3.17-.73,6.21,6.21,0,0,1,2.29,1.91,8.87,8.87,0,0,0,3.37,2.67,8.13,8.13,0,0,0,2.83.74,1,1,0,0,0,.83-.26l.06-.1a4.1,4.1,0,0,0-.75-3.86L95,42.17a22.54,22.54,0,0,0,3.84,1.53c3.94,1.2,5,0,5.14-.1l.06-.07v-.09a2.82,2.82,0,0,0-.54-2.11,10.06,10.06,0,0,0,5.26-1.07c3-1.84,2.79-7.68,2.78-7.93l0-1.11-.57,1A9.61,9.61,0,0,1,106,36a6.68,6.68,0,0,1-4.39-.22,5,5,0,0,0-2.37-.36,16.16,16.16,0,0,0-1.85.45,5.14,5.14,0,0,0,1.32-1.26,3.89,3.89,0,0,0,.67-2.75l0-.14-.12-.07c-.12-.07-3-1.76-5.53.08A17.19,17.19,0,0,0,91.19,34a7.32,7.32,0,0,1-1.85,1.52,22.15,22.15,0,0,0-2.63,1.9c1.56-1.95,3.11-3.7,4.39-5.16.88-1,1.64-1.86,2.22-2.56a16.82,16.82,0,0,0,1.54-2.29,5.11,5.11,0,0,0,3.34,1.39,4.18,4.18,0,0,0,1-.13,7,7,0,0,0,1.89-.75,8.05,8.05,0,0,0-1.46,2.9c-.44,1.69.22,2.73,1,3.14a1.82,1.82,0,0,0,.86.22,2,2,0,0,0,1.47-.68,5,5,0,0,0,.94-5,6.09,6.09,0,0,0,3.29,1.45,8.51,8.51,0,0,0,1.06.07,7.1,7.1,0,0,0,3.92-1.08l.13-.09v-.16c0-.08,0-2-3.34-3.39a4.71,4.71,0,0,0-3.09-.23,6,6,0,0,0,.62-1.21c1-2.64-.2-5.13-1.08-5.67a1.91,1.91,0,0,0-1.54-.22c-.93.25-1.83,1.17-2.66,2.73a4.73,4.73,0,0,0-.27,3.8,6.31,6.31,0,0,0-2.74-.6,7.15,7.15,0,0,0-1.66.13,22.72,22.72,0,0,1,2.75-4.84A8.74,8.74,0,0,1,104.08,16l.16,0a1.47,1.47,0,0,0,.16,1,3.05,3.05,0,0,0,2.88,1.27,2.26,2.26,0,0,0,1.59-1.06A2.39,2.39,0,0,0,110.75,19a1.92,1.92,0,0,0,.48.07,1.1,1.1,0,0,0,.83-.33c.65-.68.36-2.22.18-2.92.77-.21,2.6-.82,3.14-2a1.77,1.77,0,0,0-.1-1.64,1.48,1.48,0,0,0-1.25-.92c-1,0-2,1.08-2.5,1.79a15.14,15.14,0,0,1-.52-2,1.67,1.67,0,0,0-1-1.14l.36-.21c1.07-.67,1.61-1.44,1.53-2.17-.05-.46-.36-1.09-1.57-1.52a1.69,1.69,0,0,0-.94-.08,3.42,3.42,0,0,0,.13-1,1.41,1.41,0,0,0-1-1.43c-.6-.08-1.46.31-2.22,2.73A12.68,12.68,0,0,1,104.38,10a8.88,8.88,0,0,0-1,1.09,2.09,2.09,0,0,1-.69.38,3.39,3.39,0,0,1,.23-.63,6.53,6.53,0,0,0,1-1.86,11.23,11.23,0,0,0,.82-1.67,10.75,10.75,0,0,1,.48-1.16c.56-1.24,1.33-2.95,1.12-4.14-.16-.92-.69-1.12-1-1.16a2.18,2.18,0,0,0-2,1.41,4.37,4.37,0,0,0-.15,2.93c.08.49.17,1.07.25,1.8a4.35,4.35,0,0,1-.17,1.74l0,0c-.4.73-.7,1.3-.91,1.76a5.56,5.56,0,0,1-.66.74,28.6,28.6,0,0,1-.8-3.49,7.19,7.19,0,0,1-.18-3.25,2.27,2.27,0,0,0,.07-.44.57.57,0,0,0-.05-.26.66.66,0,0,0,.15-.51C100.75,2.25,98.37.24,98.17.1a.47.47,0,0,0-.5-.06c-.31.16-.32.59-.33,1.25a7.12,7.12,0,0,1,0,.84,2.35,2.35,0,0,1-.14.5,1.72,1.72,0,0,0,0,1.53,1.09,1.09,0,0,0-.66-.28c-.74,0-1.5.77-1.95,1.33a11.18,11.18,0,0,1-.37-1.42,1.64,1.64,0,0,0-1.48-1.13,1.87,1.87,0,0,0-2,1.11,1.62,1.62,0,0,0-.05,1.34,2.31,2.31,0,0,0,.73.91A3.62,3.62,0,0,0,89,7.1a1.3,1.3,0,0,0-.13,1.45,2.49,2.49,0,0,0,2.34,1,1.78,1.78,0,0,0,1.22-.76,2.09,2.09,0,0,0,.11.27,2,2,0,0,0,1.39,1,1.6,1.6,0,0,0,.4.05.94.94,0,0,0,.7-.28,1.29,1.29,0,0,0,.3-.69l.26.06s.08-.34.53-.29,1.76,1.23,2.3,2.77a6.91,6.91,0,0,0,1.84,2.63c-.19.28-.46.64-.85,1.17-.69.93-1.73,2.34-3.24,4.5-.67,1-1.26,1.82-1.82,2.65a5.12,5.12,0,0,0-2.31-3.92h.38a6.11,6.11,0,0,0,3.12-.86,7.36,7.36,0,0,0,3.34-3.83l0-.15-.09-.13c0-.06-1.15-1.58-4.71-.66a4.71,4.71,0,0,0-2.59,1.69,6,6,0,0,0-.24-1.34C90.48,10.8,88,9.55,87,9.66a1.92,1.92,0,0,0-1.35.76c-.59.77-.74,2-.45,3.78a4.73,4.73,0,0,0,2.1,3.18,6.3,6.3,0,0,0-2.55,1.19c-2.29,1.65-2.27,3.12-2.05,3.85.1.34.39.89.78.91a7.54,7.54,0,0,0,1.17.1,4.66,4.66,0,0,0,3.8-1.67,7,7,0,0,0,1-1.72,8.12,8.12,0,0,0,.62,3.17,2.69,2.69,0,0,0,2.38,1.92l.28,0-.2.31a49.82,49.82,0,0,1-6.75,8.76,31.59,31.59,0,0,0-3.06,3.65c.09-.57.18-1.26.27-2.1.16-1.37,1.13-2,2.74-3,.59-.38,1.26-.82,2-1.36s1-.72.79-1-.2-.31-2.14.8a30.36,30.36,0,0,1-3.73,1.95.61.61,0,0,1-.53-.05c-.6-.39-.87-2-1.08-3.31,0,0-.71-4-1.77-3.94-.5,0-.59.71-.61,1.44,0,.53-.06,1.08-.1,1.66-.19,2.64-.39,5.64,1.16,7.68a8,8,0,0,1,1.65,3.22A49.1,49.1,0,0,0,75,54.2c-1.65,6.88-2.15,8.16-2.73,8.33-.64-.16-1.2-3.67-.23-19.44.09-1.41.14-2.26.13-2.5,0-.76.67-1.86,1.71-3.52.47-.75,1-1.62,1.61-2.63a14,14,0,0,0,1.8-7.88,2.47,2.47,0,0,1,.53-1.42c.18-.27.32-.48.2-.72a.43.43,0,0,0-.4-.22h0c-1,0-2.37,4.29-2.46,6.85a5.91,5.91,0,0,1-2.87,4.83c-.25-.8.15-4.61.94-9a9.61,9.61,0,0,1,2.94-4.78A9.52,9.52,0,0,0,77.84,20c.63-1.26.47-4,.36-6.08a14.05,14.05,0,0,1,0-2.08c0-.17.07-.33.11-.48.13-.55.22-.91-.08-1.1s-.65,0-1,.34c-1.47,1.13-1,5.88-.79,7.3.34,2.63-1.62,4-2.86,4.79a12.67,12.67,0,0,0,.72-2.91,66.59,66.59,0,0,0,.68-7.45c0-1.31.88-2.17,1.93-3.26a15.2,15.2,0,0,0,2.21-2.71c.36-.6.54-1.05.26-1.33s-1,0-2.8,1.11c-.55.35-1.15.73-1.59,1A24.14,24.14,0,0,1,78,4.73c.75-.5,1.12-1,1.11-1.51,0-.75-.76-1.24-1.43-1.68l-.4-.27a.62.62,0,0,0-.54-.1,1,1,0,0,0-.53.4l0-.06C75.87.71,74.75.47,73.8.35a1.27,1.27,0,0,0-1.13.34c-.71.73-.51,2.35-.33,3.52-.3-.4-.78-1.13-1.56-2.42A2.3,2.3,0,0,0,68.31.53a2.3,2.3,0,0,0-1.65,2.2,1.66,1.66,0,0,0,.42,1.37c.68.66,2,.54,3.11.42l.73-.06a1.3,1.3,0,0,1,1.1.62,2.45,2.45,0,0,0-2,.31c-.16.09-.63.35-.58.79s.87.81,2.1,1.2A16.14,16.14,0,0,1,73.29,8c.67.3,1,2.88-.17,9.14l0,.09a9.34,9.34,0,0,1-.9-1.63,14.7,14.7,0,0,1-.88-5.93c0-.29,0-.54,0-.74s0-.66-.42-.68c-.81,0-1.45,3.49-1.51,4-.24,2.07,1.15,5,2.65,6.79,1.12,1.35-.16,4.22-1,6.12l-.14.32a28.22,28.22,0,0,1-1-3.82C69,17.78,68.5,16.07,67.7,16a.59.59,0,0,0-.52.21c-.51.62,0,2.59,1.24,6.63.55,1.85,1.17,3.94,1.63,5.89,1.22,5.14.78,22.53.37,27.36a10.22,10.22,0,0,0-1.19-3.87c-.88-1.31-.81-7.46-.77-11.53a30,30,0,0,0-.1-4.52c-.2-.75-.56-.79-.75-.75-.79.17-.82,2.34-.51,4.41.41,2.76-.21,5-.93,7.49-.19.67-.38,1.36-.57,2.08l-.14.57C64.67,53,64.31,54.43,67,58.31a30.22,30.22,0,0,1,3.54,7.95l-.31-.33a11.41,11.41,0,0,1-5.37,2.61,2.47,2.47,0,0,1-2-.43C61.51,67,61,64.29,60.69,61.47c-.49-4.31,3.1-16.79,3.7-18.48A2.57,2.57,0,0,0,64,40.66a5.9,5.9,0,0,1-.89-3.83A38.44,38.44,0,0,1,63.69,33c.85-4.32,2-10.24-.18-13.25-1.18-1.62-2.64-4-4-6.24-2.36-3.8-3.84-6.14-4.56-6.48a1.85,1.85,0,0,0-1.6.32c-1.86,1-4.78,4.13-5.16,7.49-.35,3.11-2,6.37-3,8.32a14.09,14.09,0,0,0-.67,1.4,1.13,1.13,0,0,1-.27.36,4.13,4.13,0,0,0-1.92-2.29,1.4,1.4,0,0,0-1.08-.24c-.41.11-.61.49-.81.84a2,2,0,0,1-.95,1,.32.32,0,0,1-.27,0c-1.09-.46-2.52-4.15-3-5.36L36,18.54a.94.94,0,0,0-1.15-.65c-.57.05-1.43.12-3-2.13C29,11.68,19.53,8.59,14.8,8.58h0c-4.18,0-12.55,3.91-14,6.55a1.3,1.3,0,0,0-.07,1.39,9,9,0,0,0,2,2.13,29.08,29.08,0,0,1,5,5.41,36.82,36.82,0,0,1,3,4.54,9.07,9.07,0,0,0,2,2.53c1.87,1.88,3.22,1.44,4.41,1a4.88,4.88,0,0,1,1.5-.33h0c.9,0,1.12.43,1.7,1.76a18.59,18.59,0,0,0,1.62,3.09c1.36,2.07,5.39,4.31,8.63,6.11,1.18.66,2.26,1.26,3,1.74a39.47,39.47,0,0,0-8.71-2.65c-1.92-.35-3.24-.06-3.93.84-1.51,2,.59,6.32,1.71,8.65l.35.75c.08.18.1.32.06.37-.31.4-2.55,0-4-.28a15.94,15.94,0,0,0-4-.44c-1,.13-1.44.23-1.58.59s.1.61.42,1a8,8,0,0,1,1,1.45c.23.46.24.65.2.74-.11.24-.81.38-1.71.57a26.64,26.64,0,0,0-4.79,1.4C4,59.33,0,65.21,0,67.23A.78.78,0,0,0,.44,68c.36.15.59.27.82.39A17.6,17.6,0,0,0,5,69.78c3.74,1.08,16.54-5.23,18.23-6.17.77-.43.77-.43,1,.05a6.24,6.24,0,0,0,1.23,1.57c1.31,1.21,4.23,0,8.94-3.84l.06-.05c.6-.48,1.07-.2,2.17.55A13.47,13.47,0,0,0,39,63.21a2.46,2.46,0,0,0,2,.14c1-.41,1.4-1.57,1.79-2.6.11-.28.21-.55.32-.8a4.38,4.38,0,0,1,4.79-2.43c1.63.22,1.93.71,4.26,4.6,1,1.68,2.4,4,4.42,7.14,2.81,4.37,5.13,7.86,6.83,10.42,2,3,3.39,5.1,3.71,5.83l-.49-.34c-.47-.33-1.11-.78-2-1.3a21.2,21.2,0,0,0-2.05-1.11,6.74,6.74,0,0,1-2.48-1.81c-1.72-1.84-2.66-2.66-4.5-2.82-.59,0-.67-.16-.67-.16a1.45,1.45,0,0,1,.12-.48,3.92,3.92,0,0,0,.26-1.19c0-1.3-.1-1.4-1.66-2.09l-1-.46C51,72.94,51,72.3,51,69.91c0-.73,0-1.64-.06-2.73-.26-4.75-6.25-6-6.5-6.06l-.17,0-2.35,2.27c-2.21,2.14-1.2,4.94-.13,7.91L42,72a13.54,13.54,0,0,0,.7,1.65,1.43,1.43,0,0,0-1,.53,3.55,3.55,0,0,1-1.24.81c-.69.26-2.18-.6-3.77-1.52a19.84,19.84,0,0,0-5.24-2.38c-3.2-.7-4.29.21-5.25,1-.17.14-.34.28-.51.41-.54.4-.61.33-.87.08A1.93,1.93,0,0,0,24,72c-1.11-.34-2.57.33-4,1.86a3.26,3.26,0,0,1-2.49.79,3.15,3.15,0,0,0-2.18.6c-1.12,1,.35,3.6,1.32,5.29.16.28.3.52.4.71l.07.14c.38.72.38.72.36,2,0,.36,0,.82,0,1.41,0,2.54,2.44,3.63,3.91,4.27a7.33,7.33,0,0,1,1,.47l.11.08a5.58,5.58,0,0,1-2,.32c-1.63.06-1.7,2.1-1.74,3.08v.25a3,3,0,0,0,0,.47,3.58,3.58,0,0,1-.78-.07c-.31,0-.7-.1-1.19-.15-2.19-.23-3.89,1.78-5.53,3.73-.35.41-.69.82-1,1.2L9.72,99c-1.57,1.72-2.16,2.36-2,4.26a42,42,0,0,1-.14,8.5,3.56,3.56,0,0,1-.68,1.65,3.58,3.58,0,0,0-.63,2.75v.21c.11,2,.11,2-1.06,3.86-.29.47-.65,1-1.1,1.79C1.73,126,2,135.28,2.8,136.65a1,1,0,0,0,.76.46c2,.33,7.58-2.23,10.32-4.71a53.44,53.44,0,0,0,3.95-4.12,24.11,24.11,0,0,1,4.07-4,5.33,5.33,0,0,0,2.72-5.23c0-1.61.85-2.81,3-4.15a3.47,3.47,0,0,0,1.68-2.57,3.13,3.13,0,0,1,.84-1.77c.63-.62,1.67-.12,3.45.82a18.42,18.42,0,0,0,4.59,1.88c1.67.37,2.67.33,3.25-.11a2.39,2.39,0,0,0,.65-2c0-.26,0-.54.06-.81a29,29,0,0,1,.61-3c.26-1.1.56-2.34.78-3.67s-1-3.42-2.45-5.8-3.14-5.21-3.11-7.25A4.07,4.07,0,0,1,39.86,87,1.31,1.31,0,0,1,41,86.79s.07.05.06.15a43,43,0,0,0,.67,9.18c.82,4.93,7.82,7.87,10.34,8.15a1.94,1.94,0,0,0,1.79-.61c.67-.79.77-2.3.28-4-.57-2-.26-3.53.63-6.14.78-2.3-1.13-5.6-2.4-7.79-.29-.5-.54-.94-.69-1.25,0-.06,0-.09,0-.1a2.74,2.74,0,0,1,1.71.15C54.9,85,56.6,86,56.82,87.08c.5,2.44,2.23,5.46,4.46,6.26a1,1,0,0,0,.78,0c.7-.36,1.05-1.58,1.46-3s.86-3,1.63-3.34A1,1,0,0,1,66,87c.63.31,1.2.55,1.75.78a9.86,9.86,0,0,1,5.6,4.81c1,1.61.83,3.29.66,5.24a16.45,16.45,0,0,0,.52,7c-3.14-1.9-10.61-5.94-15.2-4.24-3.26,1.21-5.12,3.21-7.08,5.33a26.28,26.28,0,0,1-5.48,4.84c-4.2,2.63-7.74,8-7.58,11.43a2.92,2.92,0,0,0,1.59,2.64,6.1,6.1,0,0,0,2.7.51c3.59,0,8.79-1.71,12.83-3,1.26-.41,2.34-.77,3.17-1l1.24-.35c2-.58,2-.58,2.49,0,.14.17.32.38.57.63a2,2,0,0,0,1.76.57c1.44-.22,3.11-1.79,4.26-4,1.3-2.51,6.47-5.6,8.28-6.67,9,16.62,8.15,59.66,8.14,60.11l.66,0a282.63,282.63,0,0,0-1.6-34,5.11,5.11,0,0,1,1.34,3.11c0,.13,0,.42.33.43h0c.28,0,.32-.25.37-.5s.07-.37.13-.69a37.22,37.22,0,0,0-.1-6.75c-.16-2.56-.36-5.74,0-6.29A15.19,15.19,0,0,1,89,125.06,23.13,23.13,0,0,0,93,120c.88-1.81,2.87-3.6,4.33-4.9a15.8,15.8,0,0,0,1.65-1.6c.24-.3.47-.64.29-.93s-.58-.21-1.11-.08a4,4,0,0,1-1.21.17,10.32,10.32,0,0,1-3-1.63c-.55-.37-1.07-.71-1.51-1s-.83-.45-1.09-.18-.05.71.6,1.8l.54.91a3.86,3.86,0,0,1,.31.64l-.29,0a3.42,3.42,0,0,0-1-.05c-1.14.15-1.79,1.88-2.6,4.08l-.13.34a5.75,5.75,0,0,1-4.7,3.49c-.58-.15-1-4.36-1.33-7.43-.18-1.79-.39-3.77-.66-5.72a8,8,0,0,0,1.31.07c1.1,0,2.84-.08,5.64-.22,1.81-.09,3.69-.19,5.14-.22,3.27-.07,4.22-1.45,5-2.56a4.16,4.16,0,0,1,.94-1.09c1.13-.8,3.84-2.9,4.76-5.19a10.84,10.84,0,0,1,1.7-2.66,21,21,0,0,0,2.21-3.28,1.63,1.63,0,0,0-.29-2c-1.75-1.89-8.53-2.75-16.22.63a21.13,21.13,0,0,0-11,11.76,24.76,24.76,0,0,0-.75-2.66c-2.2-6.24-4-19.17-4.7-25.72a9.94,9.94,0,0,0,1.65-1.13l.74-.61c1.36.4,5.76,1.62,8.15,1.62a4.06,4.06,0,0,0,.89-.08c.14,0,.55-.13.53-.49s-.05-.79-8.81-1.7c1.43-1.27,3.4-3.2,3.63-4.36.37.51.75,1,1.18,1.61.61.8,1.05,1.39,1.37,1.82.78,1,.88,1.17,1.17,1.13s.32-.26.37-.4a1.51,1.51,0,0,1,.21-.44c.23,0,.82.95,1.25,1.61a13.6,13.6,0,0,0,3,3.63,1.51,1.51,0,0,0,.86.33.93.93,0,0,0,.43-.11c1.06-.55,1.13-3.15,1.11-6,0-.54,0-1,0-1.31a1.75,1.75,0,0,0,.9.82.53.53,0,0,0,.46-.1c.91-.68,1.22-5.49,1.22-5.54s.06-.17.11-.2c.42-.2,1.84.17,3.7,1.59,1.23.95,1.66,1.16,2,1s.3-.46.3-.75a2.14,2.14,0,0,1,0-.46c0-.19.13-.24.2-.26s.89-.12,2.78,1.47c.52.44.85.75,1.06,1s.48.46.72.39.29-.26.34-.43a3.13,3.13,0,0,1,.5-1c.38-.51,2.65-.17,4.85.15,3.48.52,7.82,1.16,11.18,0,1.36-.45,1.65-1.25,1.65-1.85C125.62,62.1,115,55.57,111,54.23ZM103.91,2.58a1.69,1.69,0,0,1,1.22-1h.06c.27,0,.38.36.43.63.18,1-.54,2.59-1.07,3.75-.2.43-.37.82-.47,1.11V6.95c-.08-.74-.17-1.33-.25-1.83A3.8,3.8,0,0,1,103.91,2.58ZM94.3,13.78c2.49-.64,3.57,0,3.9.29a7,7,0,0,1-3,3.28,5.42,5.42,0,0,1-4.28.55l0-.14,1.28-.38c1.3-.39,4.31-1.43,4.11-2.55a.53.53,0,0,0-.34-.42c-.76-.26-2.88,1.39-4.07,2.4l-.92.78a4.65,4.65,0,0,0,.46-1.4A4.25,4.25,0,0,1,94.3,13.78ZM94,16.05a7.17,7.17,0,0,1,1.69-1A4.81,4.81,0,0,1,94,16.05Zm-8.14-2c-.32-1.93,0-2.85.32-3.27a1.27,1.27,0,0,1,.9-.51h.08a4.75,4.75,0,0,1,3.54,3.38A5.26,5.26,0,0,1,90.85,16a7.06,7.06,0,0,0-.49,1.45v0a1.4,1.4,0,0,1-.25.3l-.28-.09,0,.13C89,17.58,86.27,16.71,85.84,14.09Zm2.09,7.26a4.36,4.36,0,0,1-4.35,1.34h0a1.45,1.45,0,0,1-.29-1c0-.59.36-1.53,1.87-2.62,1.94-1.39,3.06-1.2,3.59-.92l-.47.17c-.48.18-2.9,1.12-3.32,2.1a.78.78,0,0,0,0,.63.6.6,0,0,0,.47.37h.08c.88,0,2.48-1.79,3.14-2.58l.4-.48.05.05C89.13,18.65,89.28,19.64,87.92,21.35Zm-.84-1.76a4.86,4.86,0,0,1-1.55,1.23s0,0,0-.1A3.76,3.76,0,0,1,87.08,19.59ZM90.71,23a7.7,7.7,0,0,1-.53-3.59l0,.16c.17.78.78,3.37,1.61,3.79a.65.65,0,0,0,.29.07.61.61,0,0,0,.59-.48c.21-.89-1.41-3-1.91-3.66l-.52-.65v-.07c1,.42,3.65,1.84,3.42,4.75a1.24,1.24,0,0,1-1,1.19C92.07,24.55,91.24,24.21,90.71,23Zm.61-1.84a4.51,4.51,0,0,1,.8,1.61C91.92,22.65,91.61,22,91.32,21.11ZM79.25,28.91c0-.58.08-1.15.1-1.68a4.6,4.6,0,0,1,.06-.63,11.26,11.26,0,0,1,1,3.21c.31,1.88.59,3.25,1.38,3.75a1.26,1.26,0,0,0,1.06.13,5.22,5.22,0,0,0,.78-.32,3.33,3.33,0,0,0-1.28,2.28c-.13,1.15-.32,2.41-.49,3.29a10.19,10.19,0,0,0-1.59-2.8C78.87,34.3,79.07,31.44,79.25,28.91Zm-3.42,2.16A14.63,14.63,0,0,1,76.66,27a13.3,13.3,0,0,1-1.4,6.55A6.44,6.44,0,0,0,75.82,31.07ZM77,17.84c-.45-3.41-.23-6.1.54-6.7l.09-.07,0,.16c0,.16-.08.33-.12.51a12.48,12.48,0,0,0,0,2.25c.1,1.85.26,4.65-.29,5.75a5.46,5.46,0,0,1-.8,1.11A4.6,4.6,0,0,0,77,17.84Zm-6.14-14-.75.07c-1,.1-2.13.21-2.59-.24a1,1,0,0,1-.23-.85,1.66,1.66,0,0,1,1.14-1.6,1.24,1.24,0,0,1,.29,0,1.79,1.79,0,0,1,1.46,1c.42.7.76,1.25,1,1.68A1.7,1.7,0,0,0,70.89,3.8ZM86.06,73.94a22.07,22.07,0,0,1-3.48-.53C84,73.59,85.22,73.78,86.06,73.94Zm3.59-37.88a7.93,7.93,0,0,0,2-1.64,16.47,16.47,0,0,1,2.41-2.11,4.52,4.52,0,0,1,4.67-.12,3.43,3.43,0,0,1-.6,2.11c-.67,1.06-3.3,2.39-4.26,2.82l.25.61a36.28,36.28,0,0,1,5.2-1.61,4.47,4.47,0,0,1,2.06.34c.34.11.7.22,1.1.32a26.37,26.37,0,0,0-2.38,1.55l0,0a15.75,15.75,0,0,1-1.73-.11,29.82,29.82,0,0,0-6.71,0c1.81-1.31,5.11-3.8,5.67-4.91.17-.35,0-.52-.07-.59-.25-.19-.57-.42-7,5.69A29,29,0,0,0,86,39.3l0,.06-.08.25h0l-.27-.19-.14.21.12.19c.07.1.11.17.4.17a18.82,18.82,0,0,0,2.29-.31c3.19,3.6,4,4.19,4.39,4.19A.32.32,0,0,0,93,43.8l.19-.18,0-.2c-.1-.61-2.43-2.95-3.68-3.91l1.11-.19A15.88,15.88,0,0,1,96,39.15l.62.06c1,1.33,2.68,3.53,3.72,3.53a.61.61,0,0,0,.23,0,.51.51,0,0,0,.34-.41c.08-.57-.87-1.43-2.87-3,.65,0,1.38.09,2.27.12a17.7,17.7,0,0,0,10.2-3.26l-.38-.54a20.21,20.21,0,0,1-8.62,2.66,10.66,10.66,0,0,0,1.28-.88c.12-.1.37-.31.19-.57a6.77,6.77,0,0,0,3.23-.19,9.85,9.85,0,0,0,4.75-3.3c-.08,1.72-.49,5.1-2.46,6.31s-4.93,1-5.91.92c-.39,0-.65,0-.7.26s.21.38.54.47c1.07.29,1.08,1.5,1.05,1.88-.26.19-1.38.76-4.38-.16a16.11,16.11,0,0,1-5.33-2.48l-.47.46,1.38,1.7a3.45,3.45,0,0,1,.68,3.1c-.19.06-.92.14-2.89-.65a8.21,8.21,0,0,1-3.12-2.5,6.78,6.78,0,0,0-2.55-2.09,3.55,3.55,0,0,0-1.29-.25,3.34,3.34,0,0,0-1.23.24l.57-.78A38.1,38.1,0,0,1,89.65,36.06Zm8.8,4.46a10.55,10.55,0,0,1,1.69,1.56A6.32,6.32,0,0,1,98.45,40.52Zm4-7.5a1.24,1.24,0,0,1-1.53.33c-.54-.29-1-1.07-.65-2.4a7.71,7.71,0,0,1,1.76-3.17l-.07.15c-.34.72-1.43,3.15-1,4a.62.62,0,0,0,.42.34l.14,0a.61.61,0,0,0,.39-.14c.71-.58.72-3.26.71-4.06v-.84l.05-.05C103.17,28.09,104.43,30.85,102.48,33Zm-.58-3.16a4.52,4.52,0,0,1-.34,1.77A3.43,3.43,0,0,1,101.9,29.86Zm6.82-4c2.37,1,2.83,2.18,2.92,2.6a7,7,0,0,1-4.36.8,5.42,5.42,0,0,1-3.73-2.17l.1-.09,1.25.47a12.71,12.71,0,0,0,3.72.91c.52,0,.93-.12,1.09-.44a.53.53,0,0,0,0-.54c-.43-.67-3.13-.65-4.69-.57l-1.2.06A4.67,4.67,0,0,0,105,26,4.27,4.27,0,0,1,108.72,25.86Zm-1.64,1.61a7.18,7.18,0,0,1,2,.23A4.81,4.81,0,0,1,107.08,27.47ZM101.82,21c.92-1.73,1.73-2.26,2.25-2.4a1.28,1.28,0,0,1,1,.14c.62.38,1.68,2.56.81,4.88a5.25,5.25,0,0,1-1.25,1.92,7.07,7.07,0,0,0-1.26.85h0a1.39,1.39,0,0,1-.38.09l-.17-.24-.11.08C102.23,25.67,100.57,23.29,101.82,21Zm-.2,5-.48-.15c-.49-.15-3-.88-3.91-.35a.78.78,0,0,0-.39.49.6.6,0,0,0,.15.58,1.85,1.85,0,0,0,1.25.31,14.77,14.77,0,0,0,2.87-.39l.61-.14v.08c-.08.19-.56,1.06-2.68,1.6a4.2,4.2,0,0,1-3.87-1.2c.36-.67.69-1.36,1-2a5.53,5.53,0,0,1,2-.24C100.59,24.58,101.36,25.41,101.62,26Zm-2.16.12a4.64,4.64,0,0,1-2,0s0,0,.07-.08a1.34,1.34,0,0,1,.61-.1A7.49,7.49,0,0,1,99.46,26.08Zm-4.65,0a1.54,1.54,0,0,1,.32-.64l0,0Zm15.54-14.94a19.36,19.36,0,0,0,.76,2.7l.23.64.36-.58c.5-.79,1.55-2,2.28-2h0c.1,0,.39,0,.69.57a1.13,1.13,0,0,1,.08,1.05c-.44,1-2.33,1.56-3,1.71l-.35.08.11.34c.2.66.49,2.16.06,2.61,0,0-.19.2-.67.08a1.86,1.86,0,0,1-1.28-.92,2.3,2.3,0,0,1-.19-1.27,4.26,4.26,0,0,0,.3-1.06v-.33l-.28-.06c-.29-.06-.41.23-.46.34a3.91,3.91,0,0,0-.23.94c-.31.72-.85,1.59-1.58,1.65a2.41,2.41,0,0,1-2.25-.94.89.89,0,0,1,.11-1l0,0,.12-.11c.85-.83,2.89-1,3.65-1l1.91,0L109,13.85a3.44,3.44,0,0,1-1.76-1.45,1.32,1.32,0,0,1,.06-1.1c0-.06.06-.1.09-.16.61-.28,1.2-.55,1.72-.82C109.82,10.43,110.3,10.82,110.35,11.14Zm-.68-4.6a1.16,1.16,0,0,1,.39.07c.69.24,1.09.58,1.13,1s-.4,1-1.22,1.54c-.26.16-.6.35-1,.54a2.25,2.25,0,0,0-2,1l-.58.27-.11,0c.25-.24.49-.48.69-.71a8.75,8.75,0,0,0,1.15-1.89C108.64,7.24,109,6.54,109.67,6.54Zm-2.83-.15c.52-1.69,1.09-2.28,1.44-2.28h0c.25,0,.48.41.48.78,0,1-.3,1.68-1.94,3l-.17.14-.75.61A16,16,0,0,0,106.85,6.4Zm-3.05,5.22a6.33,6.33,0,0,0,1.06-1.12c.72-.66,1.61-1.38,2.27-1.92l.17-.14,0,0a6.81,6.81,0,0,1-.88,1.39,7.62,7.62,0,0,1-2.83,2.15A1.16,1.16,0,0,1,103.79,11.61Zm-6-8.75A2.94,2.94,0,0,0,98,2.23a7.72,7.72,0,0,0,0-.92c0-.15,0-.33,0-.49.76.63,2.28,2.22,2.18,2.59a.63.63,0,0,1-.18.12,4.64,4.64,0,0,0-.71.11l-.37.07h-.49c-.13,0-.43,0-.46.3s.29.36.39.38a2,2,0,0,0,.64,0,4.13,4.13,0,0,0,1.06-.16c0,.06,0,.13,0,.2a7.72,7.72,0,0,0,.17,3.52c.63,3.33.86,3.94,1.23,4.1a.44.44,0,0,0,.42,0l.17-.13a.52.52,0,0,0,.05.11.51.51,0,0,0,.48.23,1.46,1.46,0,0,0,.39-.08.55.55,0,0,0,.2.39,1.2,1.2,0,0,0-.4.39l.58.31a19,19,0,0,1,3.23-1.66,1.88,1.88,0,0,0,.1,1.12,3,3,0,0,0,1.07,1.24,5.7,5.7,0,0,0-2.75.93,7.91,7.91,0,0,0-2.89,0,2.53,2.53,0,0,0,.47-1.18,1.35,1.35,0,0,0-.69-1.35,1,1,0,0,0-1.06,0,.65.65,0,0,0-.19.26l0,0c.14-.19.44-.88-.19-3a13.6,13.6,0,0,0-2.24-5.11C97.5,3.63,97.61,3.33,97.78,2.87ZM97.2,7.93a2.09,2.09,0,0,1-.32-1.07A2.2,2.2,0,0,0,97.66,6a1.42,1.42,0,0,0,0-1.1,13.1,13.1,0,0,1,2.09,4.84,6.33,6.33,0,0,1,.35,2.1c-.3-.48-.61-1-.85-1.4a7.4,7.4,0,0,0-1.36-1.71A4.67,4.67,0,0,1,97.2,7.93Zm-4.68-1a3.3,3.3,0,0,0-.19.75c-.24.55-.66,1.21-1.18,1.25a1.86,1.86,0,0,1-1.71-.7.63.63,0,0,1,.08-.74c.54-.72,2.19-.87,2.87-.87h.36A.49.49,0,0,0,92.52,6.93Zm2,.54c.19.63.35,1.69.07,2-.08.09-.24.1-.46,0a1.4,1.4,0,0,1-1-.69,1.75,1.75,0,0,1-.15-1A3.38,3.38,0,0,0,93.23,7V6.68l-.2,0,1.34,0L92.6,6a2.65,2.65,0,0,1-1.35-1.11,1,1,0,0,1,0-.81,1.24,1.24,0,0,1,1.35-.73c.5.07.88.36.92.58a15.31,15.31,0,0,0,.6,2.15l.23.64.36-.58c.32-.52,1.16-1.61,1.75-1.57.07,0,.27,0,.49.41a.82.82,0,0,1,.06.77c-.34.73-1.8,1.19-2.33,1.31l-.35.08Zm.87,1.07a5.69,5.69,0,0,0-.15-.93,7,7,0,0,0,1-.39,2.8,2.8,0,0,0,.39,1.06,3.14,3.14,0,0,0,.24.32,1.67,1.67,0,0,0-.7-.27A1.17,1.17,0,0,0,95.36,8.54Zm3.69,3c-.06-.17-.13-.33-.21-.5.58,1,1.38,2.2,1.75,2.74A6.11,6.11,0,0,1,99,11.53Zm-17.36,29a.38.38,0,0,0,.15,0h0c.15,0,.35,0,.62-1.23a33.17,33.17,0,0,1,3.8-4.71,50.31,50.31,0,0,0,6.84-8.86c1-1.54,2.16-3.28,3.62-5.35s2.54-3.55,3.23-4.48c1.47-2,1.53-2.08,1.28-2.91a.29.29,0,0,1,0-.16.38.38,0,0,1,.31,0,.69.69,0,0,1,.36.71,2.28,2.28,0,0,1-.54,1.12c-.17.22-.34.45-.19.69s.53.19.91.11a10.14,10.14,0,0,1,1.87-.19l-.06,0a9.45,9.45,0,0,0-5.08,3.33,23.63,23.63,0,0,0-2.88,5.07l-.21.44a2.56,2.56,0,0,0-1.47,1.43c-.13.35-.23.94.07,1.19l.05.05a16.48,16.48,0,0,1-1.55,2.34c-.56.69-1.32,1.55-2.2,2.54-1.8,2-4.11,4.67-6.26,7.6a10.8,10.8,0,0,0-1.45,1.43,1.47,1.47,0,0,0-.12.82,37.33,37.33,0,0,0-2.95,5.24,46.71,46.71,0,0,0-3.22,8.68,3,3,0,0,0-.52-.32,2.56,2.56,0,0,0-.6-.2l.16-.68A48.21,48.21,0,0,1,81.69,40.55ZM76.86,6.73A17.91,17.91,0,0,1,78.7,5.66a4.24,4.24,0,0,1-.22.4,14.66,14.66,0,0,1-2.12,2.6A8.55,8.55,0,0,0,74.57,11a6.36,6.36,0,0,0-.45-3,.78.78,0,0,0,.43,0A9,9,0,0,0,76.86,6.73ZM73.14,1.15A.62.62,0,0,1,73.72,1c1.11.15,1.73.4,1.89.76s-.17,1-.48,1.42-.68.92-1,1.34c-.44.57-.76,1-1,1.31a4.62,4.62,0,0,0-.27-.62c.23-.18.18-.56.15-.73l0-.15C72.88,3.4,72.62,1.69,73.14,1.15Zm1.34,4a3.25,3.25,0,0,1-.73,1C73.94,5.86,74.21,5.49,74.48,5.15Zm-.6,2.46a1.05,1.05,0,0,0-.31-.22,16.8,16.8,0,0,0-1.82-.65,11.15,11.15,0,0,1-1.65-.59A.7.7,0,0,1,70.36,6a2.19,2.19,0,0,1,1.06-.32,1.34,1.34,0,0,1,.46.08,1.24,1.24,0,0,1,.72.66l.15.36.13,0a.48.48,0,0,0,.07.12c.24.31.69.11.91,0,.82-.35,1.42-1.74,2-3.08.33-.75.83-1.89,1.07-2l.42.28c.5.33,1.13.74,1.13,1.13s-.28.6-.82,1C76.49,5,73.87,6.8,73.88,7.6Zm-3.19,21c-.47-2-1.09-4.07-1.64-5.92-.74-2.49-1.66-5.6-1.43-6,.47.22,1.18,3.3,1.6,5.14.76,3.35,1.06,4.43,1.65,4.49.17,0,.4,0,.58-.44l.19-.43c1-2.17,2.3-5.15.91-6.81S69.83,14.17,70,12.3a13,13,0,0,1,.62-2.67v0a15.23,15.23,0,0,0,.94,6.21c.88,1.86,1.29,2.2,1.66,2.15s.41-.24.48-.61l0-.16q.16-.83.28-1.58c-.1,1.15-.25,2.4-.47,4.06a11.87,11.87,0,0,1-.85,3.16c-.15.36-.25.59,0,.78s.41.07.92-.24a13.86,13.86,0,0,0,1.19-.8,8.69,8.69,0,0,0-2.23,4.16c-.61,3.36-1.51,9.1-.65,9.73a.51.51,0,0,0,.55,0,6.44,6.44,0,0,0,2.2-2c-.49.83-.95,1.55-1.35,2.2-1.11,1.76-1.84,2.93-1.81,3.9,0,0,0,.08,0,.15C71.47,35.7,71.24,30.88,70.69,28.57Zm-3,7.71,0,.06a29.87,29.87,0,0,1,.08,3.8q0-.2-.05-.41A9.27,9.27,0,0,1,67.7,36.28Zm-52.9-27a28.74,28.74,0,0,1,10.91,2.87l-.05,0-.27.14,0,.26c0,.85,7.39,14.18,8.88,14.43h.08a.4.4,0,0,0,.34-.18c.39-.61-2.53-5.5-8.68-14.52a14.23,14.23,0,0,1,5.28,3.88c1.8,2.56,2.93,2.46,3.6,2.4.35,0,.37,0,.48.24l.14.36c1,2.55,2.17,5.23,3.35,5.73a1,1,0,0,0,.78,0,2.65,2.65,0,0,0,1.26-1.31c.14-.26.27-.49.41-.53s.24,0,.57.18a3.38,3.38,0,0,1,1.7,2.14s0,0,0,.06l-.19.15a11,11,0,0,0-1.17,1,2.29,2.29,0,0,0-.16-.66.59.59,0,0,0-.48-.42.5.5,0,0,0-.25,0,.72.72,0,0,0-.66-.25,1.38,1.38,0,0,0-1.22.84,1.54,1.54,0,0,1-.51.53.8.8,0,0,0,.27-.72c-.1-.46-.66-.68-1.88-.75-.89-.05-1.33,0-1.53.27a.51.51,0,0,0,0,.45h-.07a.42.42,0,0,0-.41.26A2.61,2.61,0,0,0,35.48,28l-.25.14a1.45,1.45,0,0,0-.33-.34,1.17,1.17,0,0,0-1.21-.19,2.37,2.37,0,0,0-.93.83.89.89,0,0,0-.92.22,2.56,2.56,0,0,0-.27.28,1.14,1.14,0,0,0-1.34,0c.18-.51.31-2.32-4.65-5.52-.81-1.53-2.59-4.47-6.37-10.22l-.3-.46-.26.48c-.36.66,2.35,5.44,4.53,8.77l-1.32-.71c-2-1-4-1.93-5.88-2.7-.13-.53-.9-1.93-4.19-6.16l-.49-.63-.1.79c-.11.83,1.76,3.78,3,5.29A69,69,0,0,0,2.33,14.5l-.15,0c2.47-2.26,8.94-5.24,12.6-5.24Zm13.06,6.92c2.7,4.06,5.13,7.91,6,9.57A89.08,89.08,0,0,1,27.86,16.16Zm13.5,13.2c.4,1.7.26,1.86-1.17,3.42-.43.47-1,1-1.6,1.81a3.11,3.11,0,0,0-.29,3,8.45,8.45,0,0,1-5.66-1.26,13.18,13.18,0,0,1-2.7-2,2.94,2.94,0,0,0-1.25-.85,2.49,2.49,0,0,0,.24-1.2,1.5,1.5,0,0,0,0-.35.72.72,0,0,0,.48,0,3,3,0,0,1,.55,0,.56.56,0,0,0,.6-.37l0-.07.15.29c.53,1.07.85,1.42,1.22,1.3s.38-.6.27-1.34c0-.19,0-.38-.06-.57l.17.07q.26.18.59.38c.53.31.71.4.9.25l.18-.14-.06-.21c-.06-.21-.62-.57-1.29-.85a2.37,2.37,0,0,1-.56-.54,3.15,3.15,0,0,0-.09-.49,1.25,1.25,0,0,1,.34-.45.24.24,0,0,1,.25-.08,1.13,1.13,0,0,0,.46,1l.09.07a.72.72,0,0,0,0,.28c0,.25.25.51.73.49a5.49,5.49,0,0,0,2.77-.74c.16.53.29.66.54.63s.4-.43.4-1.53a6,6,0,0,0-.06-.87l.34-.18a.37.37,0,0,0,0,.25c.13.36.62.3,1,.25a3.74,3.74,0,0,0,2.42-2c.08-.13.18-.28.27-.4A2.18,2.18,0,0,1,41.29,28l.08.05A2.57,2.57,0,0,0,41.36,29.36ZM28.58,31.52a.79.79,0,0,1,.34-.56h0l0,0a1.21,1.21,0,0,0-.21.58Zm2.79-1.29-.13,0c-.32,0-.54-.08-.69-.11a1.5,1.5,0,0,0-.27,0,.37.37,0,0,0-.2.05c.25-.44.54-.81.87-.75a.4.4,0,0,1,.32.25,1.08,1.08,0,0,0,0,.25A1.17,1.17,0,0,0,31.37,30.23Zm.06.68c0,.28,0,.57.08.88l0,.14c-.07-.13-.16-.29-.26-.49a6.67,6.67,0,0,0-.34-.6l.22,0Zm-1.9.32.12-.25a.82.82,0,0,1,.19.23A2,2,0,0,0,29.53,31.24Zm5-2.43a2.63,2.63,0,0,0-.89.49,2.35,2.35,0,0,0-.35-.49,1.68,1.68,0,0,1,.67-.6.55.55,0,0,1,.52.13.8.8,0,0,1,.18.19A.41.41,0,0,0,34.55,28.81Zm.21.63a1.1,1.1,0,0,0,.39-.21h.1a3.5,3.5,0,0,0,.83-.21h0c.12.14.25.35.19.49-.18.4-1.43.69-2.49.73h0A1.7,1.7,0,0,1,34.76,29.43Zm1.71-3.56a6.16,6.16,0,0,1,.84,0,3.65,3.65,0,0,1,1.27.22c0,.06-.16.34-1.41,1l0,0a7.69,7.69,0,0,0-.51-1Zm2.77,2h0l.33-.21A2,2,0,0,1,39.23,27.92Zm.66-1.22a1,1,0,0,0,.2-.35.53.53,0,0,1,.29-.26A1,1,0,0,1,40.7,26a1.74,1.74,0,0,1-.17.19A5.15,5.15,0,0,1,39.9,26.7ZM24,25.11l.11.08a18.75,18.75,0,0,1-6-.21,30.38,30.38,0,0,1-3.78-.78A35.27,35.27,0,0,0,19.5,25a40,40,0,0,0,4.43.08ZM17.64,20c1.28.56,2.59,1.19,3.91,1.87.92.48,1.73.93,2.46,1.36.34.48.64.9.9,1.23h-.74A61.6,61.6,0,0,0,17.64,20Zm6.78,2.71c-.93-1.38-2.1-3.28-3.1-5,1.16,1.83,2.3,3.65,3.1,5Zm1.14,2.49h0l.06,0a.47.47,0,0,0,.23.06.37.37,0,0,0,.27-.12c.07-.07.14-.16,0-.61,3.39,2.37,3.54,3.69,3.52,4s-.08.24-.05.25c-.13-.07-.76-.59-1.42-1.14s-1.68-1.4-2.8-2.28A1,1,0,0,0,25.57,25.18Zm-11-7.81c-.39-.51-.83-1.13-1.24-1.77C13.84,16.25,14.27,16.86,14.6,17.36ZM69.22,117.87c-1,2-2.55,3.48-3.77,3.66a1.29,1.29,0,0,1-1.19-.38c-.23-.24-.4-.43-.53-.59-.74-.88-.93-.82-3.17-.18l-1.23.35c-.85.24-1.94.6-3.2,1-4.85,1.59-12.17,4-15,2.57a2.26,2.26,0,0,1-1.22-2.09c-.15-3.19,3.31-8.36,7.27-10.84a26.83,26.83,0,0,0,5.62-4.95c1.91-2.06,3.71-4,6.83-5.16,4.64-1.72,12.87,3.08,15.33,4.63a17.24,17.24,0,0,0,1,2.06l-1.54.24a64.53,64.53,0,0,0-13.26,3.17c-7.92,2.92-18.76,9.15-19,10.92,0,.15-.08.56.22.74s.82-.12,2.25-1.25c1.24-1,3.11-2.48,5.82-4.26,6.24-4.1,18.65-6.84,22.72-7.74a10.7,10.7,0,0,1,3.77-.27l0,0c.3.43.58.89.86,1.37C75.93,112,70.61,115.18,69.22,117.87Zm7-9.3.15.24a12.46,12.46,0,0,0-3.45.33,137.26,137.26,0,0,0-13.53,3.6q1-.39,1.9-.74a63.92,63.92,0,0,1,13.13-3.14C75.28,108.75,75.85,108.66,76.27,108.58ZM47,119.07c-1.19.88-2.13,1.62-2.86,2.2-.55.44-1.08.86-1.39,1.06C43,121.81,44.6,120.57,47,119.07Zm31.31-8.5q-.23-.4-.47-.77a1.07,1.07,0,0,1,.56.47A.25.25,0,0,1,78.32,110.57Zm3.38-5.35A10,10,0,0,0,85.41,102c.83-1.29.88-1.29,2.38-1.23.35,0,.76,0,1.27,0h0c1.09,0,3.28-1.11,5.79-2.56-4.86,3-11.23,7.21-12.89,8.63Q81.85,106,81.7,105.22ZM92.56,92c7.13-3.13,13.81-2.56,15.47-.78a1,1,0,0,1,.19,1.22,20.4,20.4,0,0,1-2.15,3.19,11.31,11.31,0,0,0-1.79,2.82c-.87,2.18-3.69,4.3-4.53,4.89a4.72,4.72,0,0,0-1.1,1.26c-.75,1.09-1.52,2.22-4.46,2.28-1.46,0-3.34.13-5.16.22-2.47.13-5.45.29-6.55.2,1.95-1.58,12-8.19,17.08-11.11,1.58-.9,3-1.67,4.1-2.29,3.06-1.68,3.29-1.82,3.13-2.23s-.59-.27-1.37-.09c-1.26.3-4,1.93-7.07,3.83-3.67,2.23-7.82,4.75-9.27,4.75h0c-.5,0-.91,0-1.25,0-1.62-.07-2,0-3,1.53a9.88,9.88,0,0,1-3.27,3l0-.24A20.58,20.58,0,0,1,92.56,92Zm7.38,3.21a46.49,46.49,0,0,1,5-2.77l-1.6.89C102.38,93.81,101.23,94.44,99.95,95.17Zm-24.34-23A11.61,11.61,0,0,1,78.17,64a2.52,2.52,0,0,0,.26-.38c1.35.41,2.32,1.7,3.61,3.53-1.17.15-4.22,3.69-6.33,6.3C75.67,73,75.63,72.55,75.6,72.18Zm6-3.62a21,21,0,0,1-3.53,3.68l-.16,0,0,.18c-.48.41-.94.77-1.33,1.06,2.25-2.73,4.66-5.34,5.4-5.63A2,2,0,0,1,81.63,68.55Zm42.14-1.63c-3.22,1.07-7.47.44-10.88-.07-2.93-.43-4.86-.72-5.48.11a3.81,3.81,0,0,0-.53,1l0,0c-.22-.21-.56-.54-1.09-1-1.54-1.3-2.68-1.83-3.41-1.59a1,1,0,0,0-.64.73,2.77,2.77,0,0,0-.06.6v.09a9.18,9.18,0,0,1-1.24-.86c-1.8-1.38-3.56-2.05-4.38-1.67a.85.85,0,0,0-.49.77c0,1.38-.5,4.52-.91,5a2.16,2.16,0,0,1-.52-.62c-.21-.33-.39-.61-.72-.53s-.38.45-.41.85,0,.83,0,1.48c0,1.62,0,5-.75,5.41-.14.07-.34,0-.61-.18a13.11,13.11,0,0,1-2.87-3.46C88,71.81,87.5,71.08,87,71a.61.61,0,0,0-.51.2,1.58,1.58,0,0,0-.29.42L85.69,71c-.32-.43-.76-1-1.38-1.83S83.2,67.67,82.72,67c-2-2.78-3.27-4.61-6.2-4.08l.12.65a4.17,4.17,0,0,1,1.08-.05l-.08.1a12.24,12.24,0,0,0-2.7,8.61c0,.54.1,1.21.17,2l0,0-.07.08v.11l0,.28.12.06c.68,6.58,2.51,19.6,4.73,25.9a27.28,27.28,0,0,1,.95,3.64c-.08.25-.11.4-.12.42v.06a.5.5,0,0,0,.32.51c.49,2.74.8,5.75,1.07,8.36.57,5.56.87,8,2,8h0a6.38,6.38,0,0,0,5.31-3.92l.13-.34c.68-1.83,1.32-3.56,2.07-3.65a2.88,2.88,0,0,1,.78.05c.4.06.78.12,1-.18s0-.75-.33-1.4l-.54-.93-.42-.71h0c.43.25.94.59,1.48.95a10.09,10.09,0,0,0,3.27,1.74,4.4,4.4,0,0,0,1.44-.18l.14,0a16.15,16.15,0,0,1-1.57,1.51c-1.5,1.34-3.55,3.18-4.48,5.11a22.71,22.71,0,0,1-3.85,4.92,14.9,14.9,0,0,0-1.75,2c-.4.69-.27,3,0,6.67.14,2.17.28,4.39.21,5.76A5.38,5.38,0,0,0,85.59,137l-.34.35c-1.18-10-3.2-20-6.6-26.21A.91.91,0,0,0,79,110a2.24,2.24,0,0,0-1.74-1.09l-.35-.53c.24-.1.34-.21.37-.38l-.65-.12a.21.21,0,0,1,.07-.13l-.14.06a17.34,17.34,0,0,1-.85-1.63l.25-.37-.56-.37a15.19,15.19,0,0,1-.76-7.52c.19-2.06.34-3.85-.75-5.64A10.5,10.5,0,0,0,68,87.23c-.53-.23-1.1-.47-1.71-.77a1.63,1.63,0,0,0-1.42-.09c-1.05.47-1.53,2.14-2,3.76-.32,1.11-.68,2.36-1.13,2.59a.3.3,0,0,1-.25,0c-1.93-.7-3.57-3.48-4-5.77-.33-1.64-2.75-2.8-4.29-3.18-.74-.18-1.7-.3-2.07.16a.7.7,0,0,0,0,.79c.16.33.42.78.72,1.29,1.13,2,3,5.23,2.34,7.24-.92,2.69-1.25,4.36-.64,6.54.42,1.51.37,2.83-.15,3.43a1.29,1.29,0,0,1-1.22.38c-2.09-.23-9-3-9.76-7.6a42.34,42.34,0,0,1-.66-9,.79.79,0,0,0-.38-.73,1.87,1.87,0,0,0-1.78.19,4.72,4.72,0,0,0-2.27,4.28c0,2.23,1.69,5.08,3.21,7.6,1.31,2.18,2.55,4.23,2.37,5.35-.21,1.31-.51,2.54-.77,3.62a29.43,29.43,0,0,0-.63,3c0,.3-.05.59-.06.87,0,.67-.06,1.21-.39,1.47s-1.28.3-2.7,0a17.63,17.63,0,0,1-4.42-1.82c-1.8-.95-3.21-1.69-4.22-.7a3.76,3.76,0,0,0-1,2.1,2.82,2.82,0,0,1-1.39,2.15c-2.32,1.46-3.31,2.87-3.29,4.72a4.67,4.67,0,0,1-2.42,4.67,24.49,24.49,0,0,0-4.2,4.1,51.92,51.92,0,0,1-3.9,4.07c-2.78,2.52-8.11,4.83-9.77,4.55a.42.42,0,0,1-.29-.13c-.59-1.06-1-10.05,1.33-14,.44-.74.8-1.31,1.09-1.78,1.26-2,1.28-2.1,1.16-4.24v-.2a3,3,0,0,1,.52-2.34,4.17,4.17,0,0,0,.79-1.92,42.32,42.32,0,0,0,.14-8.68c-.15-1.61.26-2.07,1.81-3.76l.42-.45c.35-.38.7-.8,1.05-1.22,1.53-1.81,3.12-3.68,5-3.5.49,0,.87.1,1.17.14.71.1,1,.14,1.28-.07s.24-.49.25-1v-.24c.06-1.71.38-2.42,1.1-2.44,1.6-.06,2.48-.33,2.62-.82.08-.28-.07-.55-.43-.79a7.69,7.69,0,0,0-1.05-.52C20.08,87.88,18,87,18.06,84.87c0-.59,0-1,0-1.4a3.31,3.31,0,0,0-.43-2.35L17.57,81c-.1-.19-.24-.44-.41-.73C16.45,79,15,76.47,15.72,75.78a2.61,2.61,0,0,1,1.75-.42,3.83,3.83,0,0,0,2.94-1c1.26-1.31,2.52-1.94,3.36-1.68a1.3,1.3,0,0,1,.54.37c.4.39.8.65,1.72,0,.19-.14.37-.29.55-.44.93-.78,1.8-1.51,4.69-.88A19.4,19.4,0,0,1,36.32,74c1.88,1.08,3.36,1.93,4.33,1.56a4.23,4.23,0,0,0,1.45-.94c.41-.38.5-.47,1-.22l.24.15a.68.68,0,0,0,.45.29l.25,0,.05-.24c0-.08.06-.25-.31-.52a8.43,8.43,0,0,1-1.13-2.32L42.37,71c-1-2.88-1.93-5.37,0-7.21l2.1-2c.94.23,5.6,1.58,5.81,5.41.06,1.07.06,2,.06,2.69,0,2.37,0,3.46,2.12,4.43l1,.46c1.3.58,1.3.58,1.27,1.47a3.35,3.35,0,0,1-.23,1c-.13.38-.26.74-.05,1.06s.52.4,1.16.46c1.62.14,2.44.86,4.07,2.61a7.35,7.35,0,0,0,2.68,2,20.34,20.34,0,0,1,2,1.08c.83.51,1.46,1,1.92,1.28.79.56,1.08.77,1.39.58s.22-.52.2-.68c-.08-.58-1.06-2.07-3.87-6.3-1.7-2.55-4-6-6.82-10.41-2-3.14-3.4-5.44-4.41-7.12-2.37-3.94-2.8-4.66-4.74-4.91a5.1,5.1,0,0,0-5.48,2.82c-.12.26-.22.54-.33.83-.36.95-.73,1.93-1.44,2.23a1.86,1.86,0,0,1-1.46-.14,12.77,12.77,0,0,1-2.19-1.26c-1.05-.71-2-1.32-3-.52l-.06.05c-5.7,4.6-7.5,4.4-8.07,3.87a5.55,5.55,0,0,1-1.11-1.42c-.47-.8-.78-.94-1.94-.3-1.58.88-14.27,7.11-17.73,6.11a17.11,17.11,0,0,1-3.66-1.31c-.24-.12-.49-.25-.87-.41,0,0-.07-.15,0-.49.42-2.12,4-7.17,8-8.78a26,26,0,0,1,4.68-1.36c1.19-.25,1.91-.4,2.17-.93a1.55,1.55,0,0,0-.21-1.32A8.57,8.57,0,0,0,14.32,53c-.09-.11-.2-.25-.26-.34a6.4,6.4,0,0,1,1-.19,15.64,15.64,0,0,1,3.84.43c2.54.47,4.13.72,4.66,0a1,1,0,0,0,0-1.05l-.36-.76c-1-2-3-6.3-1.78-8,.52-.69,1.63-.89,3.29-.59a39.51,39.51,0,0,1,9.09,2.83c1,.45,1.3.56,1.5.28s-.06-.56-.31-.82a22.54,22.54,0,0,0-4.16-2.61c-3.17-1.76-7.12-4-8.4-5.89a18,18,0,0,1-1.57-3c-.56-1.3-.94-2.16-2.31-2.16h0a5.47,5.47,0,0,0-1.7.36c-1.16.38-2.15.71-3.74-.88a8.48,8.48,0,0,1-1.87-2.39,37.42,37.42,0,0,0-3.05-4.61,29.65,29.65,0,0,0-5.05-5.52,8.35,8.35,0,0,1-1.86-2c0-.07-.17-.27.09-.72A3.78,3.78,0,0,1,2,14.66a.45.45,0,0,0,0,.41c.16.41.82.59,3.31,1.23,1.82.47,4.31,1.11,7.45,2.11,3.36,1.08,7.25,3.67,10.4,6.06-.93,0-2.13,0-3.57-.1A35.66,35.66,0,0,1,12.25,23l-.07,0H12.1c-.47.07-.51.38-.51.47,0,1,4,1.85,6.39,2.21a28.5,28.5,0,0,0,4.18.36,8.62,8.62,0,0,0,2.56-.3c1.22,1,2.27,1.83,3,2.47a12,12,0,0,0,1.58,1.24.59.59,0,0,0,.23,0,.62.62,0,0,0,.2,0,5.33,5.33,0,0,0-.44.75,1.15,1.15,0,0,0-.8.28,1.4,1.4,0,0,0-.58,1.37,2.34,2.34,0,0,0-.26.44l0,0a1.63,1.63,0,0,0-1.39-.12.77.77,0,0,0-.57.84c.11.59.95,1,2.19,1a2,2,0,0,1,1.63.78,13.94,13.94,0,0,0,2.82,2.12,9.67,9.67,0,0,0,4.93,1.44,5.91,5.91,0,0,0,1.28-.12,24.31,24.31,0,0,0,3.44,5.7,75.28,75.28,0,0,0,5.53,6.4l.47-.46c-3.2-3.25-11-12.25-8.86-14.83.64-.76,1.16-1.33,1.59-1.79,1.46-1.6,1.81-2,1.32-4-.33-1.39.81-2.31,1.82-3.11l.2.18a1,1,0,0,0,.23-.53,2.46,2.46,0,0,0,.8-1c.08-.24.33-.71.64-1.31,1-2,2.75-5.32,3.11-8.54.34-3,3-6,4.83-7,.59-.33.91-.34,1-.3.57.27,2.54,3.44,4.28,6.23,1.42,2.28,2.88,4.64,4.07,6.28,2,2.77.89,8.53.07,12.73a38.86,38.86,0,0,0-.64,3.89,6.56,6.56,0,0,0,1,4.21c.38.67.63,1.12.39,1.79-.64,1.78-4.25,14.28-3.74,18.77.34,3,.87,5.86,2.45,7.08a3,3,0,0,0,1.86.61,4.13,4.13,0,0,0,.6,0,11.76,11.76,0,0,0,5.65-2.72c.71,2.29,1.31,4.68,1.83,7,.18.79.33,1.63.46,2.47A13.38,13.38,0,0,0,71,77.66a84.31,84.31,0,0,0-1.37-9.15h0l-.08-.25-.52,0,0,.26c0,.19.27,3.41.45,5.07a29.31,29.31,0,0,0,.73,4.92c-.7.74-1.55,1.68-2.6,2.86C65.93,79.11,64,75.93,61.59,72c-1.93-3.24-3.7-6.45-5.22-9.34.3-.51.64-1.95,1.48-5.81s1.87-8.61,2.77-10.34L61,45.8l-.72.19c-.47.13-1.92.51-3.5,8.59-.52,2.65-.88,5.28-1.07,6.71-2.94-5.66-4.79-9.78-4.82-9.84l-.6.27c0,.07,2.08,4.62,5.28,10.73h0l0,.07a.55.55,0,0,0,.16.26C57.26,65.71,59.06,69,61,72.29c2.71,4.55,4.71,7.73,6.26,9.9a.87.87,0,0,0,.32.51l.08,0c1.67,2.26,2.78,3.23,3.7,3.42a1.53,1.53,0,0,0,.3,0,1.35,1.35,0,0,0,.82-.28c1.54-1.15,1.62-5.73,1.08-9.76a.42.42,0,0,0,0-.17c-.13-1-.3-1.87-.49-2.71-1.25-5.43-2.89-11.5-5.54-15.35-2.51-3.63-2.2-4.85-1.44-7.81l.14-.57c.18-.71.37-1.4.56-2.06a28.5,28.5,0,0,0,1-4.27c0,4.55.13,8.19.9,9.35a11.13,11.13,0,0,1,1.17,4.15c.14,1,.19,1.31.54,1.33s.41-.27.49-.53c.07,3,.34,5,1,5.5a.68.68,0,0,0,.63.13c.82-.24,1.25-1,2.64-6.62.24.45.61,1,1.08,1.74l.66,1a1.25,1.25,0,0,1,.16,1c-.39,1.51-3,2.92-3,2.94l.31.58c.12-.06,2.86-1.57,3.33-3.35A1.9,1.9,0,0,0,77.42,59l-.67-1a15,15,0,0,1-1.31-2.23,2.46,2.46,0,0,1,.36.14,5.31,5.31,0,0,1,1.73,1.72c.6.8,1.11,1.48,1.82,1.49a1.72,1.72,0,0,0,1.22-.75c.3-.38.66-.87,1.05-1.4,1-1.29,3-4,3.44-4a.71.71,0,0,1,0,.35c0,2.21.33,3.41,1.05,3.76.47.23,1,.08,1.69-.45.3-.24.92-.82,1.78-1.62,3.45-3.21,11.53-10.73,14-9.93.2.06.48.22.6.8l0,.22c.78,3.83,1.22,6,3.6,7.5-.43.42-1.07,1.06-2,2-1.26,1.27-2.92,2.94-3.43,3.41l-1.74-.23a48,48,0,0,0-4.88-.33,47.6,47.6,0,0,1,7.36-12.16l.07-.07-.4-.52-.05,0h0c-.2.19-4.94,4.62-7,8.6-.62,1.21-1.12,2.12-1.5,2.81s-.55,1-.69,1.31a44.72,44.72,0,0,0-14.75,2.72l-.24.1.09.43.12.08c.2.13.42.07,1.13-.13a37.81,37.81,0,0,1,5.7-1.15l.1.12a68.56,68.56,0,0,1,3.17,7.33c.5,1.28.9,2.28,1.09,2.67.1.21.6,1.16,1.12,1.16a.43.43,0,0,0,.18,0c.3-.14.75-.34-.92-4.29a32.19,32.19,0,0,0-4-7A74.28,74.28,0,0,1,97,60a20.51,20.51,0,0,1,4.44,3.28c1.5,1.62,2.15,1.93,2.45,1.93a.34.34,0,0,0,.24-.09c.35-.28,0-.81-.31-1.28a19.36,19.36,0,0,0-4.32-3.72,52.28,52.28,0,0,1,17.11,4.2,10.33,10.33,0,0,0,3,1,1.08,1.08,0,0,0,.36-.05.51.51,0,0,0,.39-.55c-.11-1-4.59-2.93-11-4.42a17.87,17.87,0,0,0-3.05-.69h-.15c.12-.13.31-.31.46-.45s.36-.34.55-.53.45-.46.24-.71-.39-.14-1.06.27a18.16,18.16,0,0,1-2,1.09,32.51,32.51,0,0,1,4.07-5.36,14.86,14.86,0,0,0,2.3,1C115.16,56.3,125,62.72,125,65.7,125,65.9,125,66.52,123.77,66.92ZM28.08,32.85v0a1.22,1.22,0,0,0-.07.43h-.12c-1.13,0-1.55-.39-1.56-.48a.35.35,0,0,1,.17-.12.74.74,0,0,1,.29-.06,1.38,1.38,0,0,1,.57.17.75.75,0,0,0,.61.1A.42.42,0,0,0,28.08,32.85Zm44,52.53a.72.72,0,0,1-.6.13c-.77-.15-1.83-1.19-3.19-3a36,36,0,0,0,4.74-5.3C73.47,80.94,73.24,84.55,72.12,85.39ZM70.66,79h0l.16-.21h0l1-1.08A42.92,42.92,0,0,1,67.94,82v0C68.85,80.92,69.8,79.87,70.66,79ZM56.57,59.53c.63-4.4,1.66-9.51,2.82-11.76-.76,2.3-1.53,5.88-2.19,8.89C57,57.62,56.78,58.63,56.57,59.53Zm48.93-.06h0Zm14.13,5.18a11.56,11.56,0,0,1-2.75-.94,61.6,61.6,0,0,0-6.39-2.3.37.37,0,0,0,.26-.13h0C115.79,62.58,119,64,119.64,64.65Zm-17.31-5,.38.1c-1.42-.18-2.93-.32-4.53-.39a4.56,4.56,0,0,0-.82-.28c1,.05,2.11.14,3.21.27l1.24.17Zm-6.91-.38a.65.65,0,0,0,0-.09l.06-.17,1.14,0-.13,0-.7.22Zm-2-.25a.51.51,0,0,0,.06.24h0c-2.22,0-4.15.11-5.8.26A49,49,0,0,1,93.39,59.06Zm.93-.68c.14-.27.32-.6.53-1,.38-.69.89-1.61,1.51-2.83a24.26,24.26,0,0,1,2.81-4.1,39.52,39.52,0,0,0-4.07,7.91Zm8.9.7,1.44-1.42a7,7,0,0,0-.83,1.52ZM88.3,64.59c.47.88,1,1.9,1.46,3.06a18.72,18.72,0,0,1,1.11,3.1,3.41,3.41,0,0,1-.28-.47c-.18-.37-.59-1.41-1.07-2.62S88.69,65.54,88.3,64.59Zm13.36-2.06A12.72,12.72,0,0,1,103.11,64a16,16,0,0,1-1.17-1.14Z"/><path class="cls-1" d="M88,12.48a.46.46,0,0,0-.48.19c-.49.68,1.13,3.17,1.38,3.47a.65.65,0,0,0,.45.28.36.36,0,0,0,.16,0c.18-.09.25-.27.19-.56C89.58,15.22,88.74,12.65,88,12.48Z"/><path class="cls-1" d="M103.33,25h.08c.16,0,.3-.11.41-.33.28-.56,1.18-3.11.69-3.69a.45.45,0,0,0-.49-.14c-.8.24-1,3.21-1,3.6C103,24.59,103,24.95,103.33,25Z"/></g></g></svg>