<svg xmlns="http://www.w3.org/2000/svg" viewBox="0 0 118.21 129.26"><defs><style>.cls-1{fill:#fff;}</style></defs><title>ציפורני החתול</title><g id="Layer_2" data-name="Layer 2"><g id="Expended"><path class="cls-1" d="M.66,41a9.13,9.13,0,0,1,3,1.44c1.83,1.28,1.53,2.85,1,6-.14.73-.28,1.53-.42,2.42a12.71,12.71,0,0,0,2.06,8.57,8.7,8.7,0,0,1,.43.79,2.8,2.8,0,0,1,.23.94,9.12,9.12,0,0,0,.87,2.93A11.24,11.24,0,0,0,10,67.26a.71.71,0,0,0-.19.72,1.19,1.19,0,0,0,1.19.76h.08a2.43,2.43,0,0,1,.82.23l.35.27.06-.08c.4.19.8.42,1.12.63a2.08,2.08,0,0,0-.2.17,1.26,1.26,0,0,0-.39.7l-1.61-.11a2,2,0,0,0-.68-.6.79.79,0,0,0-.75.05,1.26,1.26,0,0,0-.56,1,.79.79,0,0,0,.31.68,1.6,1.6,0,0,0,1,.28,2.75,2.75,0,0,0,.76-.11A8.65,8.65,0,0,1,13.7,72v-.08L14,72a3,3,0,0,0-.61.77,15.67,15.67,0,0,1-1.89.49,4.87,4.87,0,0,1-1.54.08l-.48,0a.54.54,0,0,0-.49.31,1,1,0,0,0,.23,1,1.07,1.07,0,0,0,.83.42l.23,0c.57-.14,1.09-.28,1.33-.35,0,.06,0,.1,0,.17a.85.85,0,0,0,.3.61,1.45,1.45,0,0,0,.29.2,2.26,2.26,0,0,1-.75.2,1.59,1.59,0,0,0-1.32.76,1,1,0,0,0,.13,1,1.08,1.08,0,0,0,.88.52h.06a1.7,1.7,0,0,0,1.26-1.06c.3-.59,1.3-.76,1.67-.78v-.18c.64.07,1.29.09,1.83.09-.34.09-.58.25-.59.59a.84.84,0,0,0,.1.43l-.85.6a3.94,3.94,0,0,1-.38-.24,1.08,1.08,0,0,0-1-.08,1.33,1.33,0,0,0-.81,1,1.13,1.13,0,0,0,.13,1,.91.91,0,0,0,.28.24,2.46,2.46,0,0,1-.34.09c-.57.09-1.26.38-1.32.91s.28.74,1,1a1,1,0,0,0,.37.06c1.28,0,3.24-1.92,4.23-3l.06.07a.9.9,0,0,0,.63.29h.08a4.62,4.62,0,0,1-1.18,1.08,1.65,1.65,0,0,0-1.53.82,1,1,0,0,0,.35,1.3.79.79,0,0,0,.54.21h.14a1.36,1.36,0,0,0,.46-.17,1.26,1.26,0,0,0-.4,1.18.89.89,0,0,0,.48.85.8.8,0,0,0,.33.07A2.34,2.34,0,0,0,17.94,84a.92.92,0,0,0,.77.47h.14a1.06,1.06,0,0,0,.77-1A10.85,10.85,0,0,1,20.48,81a1.29,1.29,0,0,0,.07.22,1.35,1.35,0,0,0,1,.74,1.55,1.55,0,0,0,.37,0,.77.77,0,0,0,.53-.18,5.07,5.07,0,0,1-.33,1,1.07,1.07,0,0,1-.6.59,1.17,1.17,0,0,0-.75,1,.84.84,0,0,0,.53,1,.82.82,0,0,0,.23,0c.56,0,1.28-.51,1.75-1.61a18.73,18.73,0,0,0,.73-2,.74.74,0,0,0,.54.24h0a.84.84,0,0,0,.22,0,3.36,3.36,0,0,1,0,1.87A1.61,1.61,0,0,0,25,85.8a1.26,1.26,0,0,0,.92.42,1.22,1.22,0,0,0,.41-.07.82.82,0,0,0,.55-.56,2.22,2.22,0,0,0-.5-1.61,1.59,1.59,0,0,1,.08-.37,3.05,3.05,0,0,0,.15-1.26,3.61,3.61,0,0,0-.21-.81,1.09,1.09,0,0,0,.86.45c.18,0,.41-.16.51-.59a2.4,2.4,0,0,0-.44-1.85,1.65,1.65,0,0,0,.89-.58,1.18,1.18,0,0,0,.13-1.05,1,1,0,0,0-.33-.52,5.7,5.7,0,0,0,.54-.61c.37.51.88,1.07,1.34,1,.19,0,.43-.16.53-.62a2.61,2.61,0,0,0-.5-2,2.3,2.3,0,0,0,.56-.24,14.26,14.26,0,0,1,3,1.49,4.6,4.6,0,0,0,2.08,1.13.78.78,0,0,0,.65-.36,1.21,1.21,0,0,0,.19-1.23,1.17,1.17,0,0,0-1-.65A6,6,0,0,1,34,74.81a11.9,11.9,0,0,0-1.85-.62,5.28,5.28,0,0,1-1-.33,1.46,1.46,0,0,0-.06-.49c-.15-.51-.44-.66-.65-.69h-.19a5.36,5.36,0,0,0,.67-.72c.37.51.86,1.06,1.34,1,.17,0,.39-.16.5-.54.29,0,.94.08,1.61.08A5.59,5.59,0,0,0,36,72.28a4,4,0,0,1,1.11-.15c.62,0,1.33-.06,1.51-.69a1.53,1.53,0,0,0,.06-.54,31.74,31.74,0,0,1,7.18,1.94c6.75,2.7,6.79,4.14,6.79,4.14h0l-.29.85.78-.47a.2.2,0,0,1,.19,0c.11.05.48.32.72,1.77a79.75,79.75,0,0,0,4.19,16.22C60.52,101,64,114.62,64.7,117.15c-2.61-3.6-6-8.64-6-9.75,0-1.47-1.28-9.35-6.23-11.21A16.66,16.66,0,0,0,50,95.47l.14-.09c-.13-.19-3.25-4.74-7.92-6.12a12.17,12.17,0,0,0-7.76,0c-.72-.22-4.35-1.27-6.59-.13A8.3,8.3,0,0,0,24.6,92c-.66.22-3.64,1.28-4.72,3s-4.11,5.16-7.09,4.3c-2.66-.76-3.16-3.23-3.65-5.62-.07-.34-.13-.67-.21-1-.5-2.2-2.82-3.64-3.77-4.16a2.68,2.68,0,0,0-.43-.21L4.48,89l.36.19a1.65,1.65,0,0,1,.84,1.88A9.64,9.64,0,0,1,5.1,92.5c-.83,1.8-2,4.27-.46,6.93,1.94,3.44,4.51,3.48,4.63,3.48v-.66c-.09,0-2.31-.06-4.06-3.15-1.33-2.36-.33-4.56.48-6.33a10,10,0,0,0,.62-1.55,2.3,2.3,0,0,0,0-1A5.18,5.18,0,0,1,8.29,92.9c.07.32.14.64.21,1C9,96.33,9.56,99.12,12.6,100c3.35,1,6.5-2.43,7.84-4.59,1.07-1.73,4.45-2.78,4.48-2.79l.13,0,.06-.12a7.52,7.52,0,0,1,3.09-2.73c2.19-1.12,6.16.19,6.2.2l.12,0,.12-.05a11.46,11.46,0,0,1,7.42,0c3.64,1.07,6.38,4.3,7.25,5.44a10.29,10.29,0,0,0-3.13,0l-.36,0a15.06,15.06,0,0,0-6.09-4.21,13,13,0,0,0-6-.85l-2.76.52,2.8.14s4.35.23,6.36,1.84a12.63,12.63,0,0,1,2.28,2.33,16.09,16.09,0,0,0-3.46.37,11.82,11.82,0,0,0-2.65.88,18.86,18.86,0,0,0-4.93-2.36,10.38,10.38,0,0,0-7.75,0l.25.61a10.31,10.31,0,0,1,6.64.6c3.17,1.32,3.63,2.19,3.68,2.29-.62.37-1.13.7-1.42.9l-.21.14-.18.09A14.83,14.83,0,0,0,29,100.86l-.05-.12c-.06,0-5.81,2.44-9.75,2.55-2.81.08-7.86-.54-10-5.44C8.5,96.36,8.28,96.27,8,96.31l-.28.09,0,.25c-.1.79,1.88,5.61,5.53,7.16A12.18,12.18,0,0,0,19,105.08a24.12,24.12,0,0,0,7.75-1.45c-1.5,2-5.12,6.08-9.31,4.65a23.38,23.38,0,0,1-6.65-3.3L9.61,104l.63,1.33a12.17,12.17,0,0,0,3.35,3.91c2.16,1.69,5.94,3.55,11.7,2.82a28,28,0,0,0,10.86-4c3.8-2.12,6.79-3.8,12.06-2.2,7.71,2.34,8.7,3.72,10.67,6.48.42.59.89,1.25,1.48,2a16.46,16.46,0,0,1,3,5.39A5,5,0,0,0,64.55,122a2.88,2.88,0,0,0,.79.54,11.15,11.15,0,0,0-.21,1.55,40.32,40.32,0,0,0-.06,5.18l.66,0a39.66,39.66,0,0,1,.06-5.08A10.2,10.2,0,0,1,66,122.6c0-.19.11-.51-.29-.63a1.8,1.8,0,0,1-.72-.46,4.46,4.46,0,0,1-1-2A17,17,0,0,0,60.89,114c-.58-.73-1-1.38-1.46-2-2-2.78-3.09-4.32-11-6.72-5.53-1.68-8.79.15-12.58,2.26a27.46,27.46,0,0,1-10.62,3.92c-8,1-12-2.93-13.56-5.07a28.4,28.4,0,0,0,5.54,2.52c5.42,1.85,9.85-4.5,10.69-5.79a11.53,11.53,0,0,1,4.74-3.87l.22-.11.24-.16A17.09,17.09,0,0,1,39,96.18a13.49,13.49,0,0,1,3.79-.33h0c.47,0,1,.11,1.56.21a6.18,6.18,0,0,0,1.87,0,10.68,10.68,0,0,1,5.92.79C56.8,98.53,58,106,58,107.42c0,1.78,6.09,10,6.78,10.95l.53-.39-.33-.45.48-.12c0-.16-4.07-16.07-6.59-22.29A79.32,79.32,0,0,1,54.7,79c-.21-1.28-.58-2-1.12-2.24a.87.87,0,0,0-.33-.07c-.18-.5-.82-1.3-2.75-2.4l.12,0a.39.39,0,0,0,.24-.08c.28-.21.14-.6.06-.84a2.94,2.94,0,0,0-.5-.78,1.4,1.4,0,0,0,.51-.26c.7,1.24,1,1.35,1.09,1.4l.26-.61s-.53-.39-2-3.62a5,5,0,0,1-.46-4.06,16.1,16.1,0,0,0,.44-3.24c.13-3.94-3-6.78-4-7.72l-.14-.13a2.55,2.55,0,0,1-.65-.94A25.1,25.1,0,0,0,43.7,50.5c-2.63-4-8.63-4.94-10.4-5.14a29,29,0,0,1-5.29-1L26.8,44c-2.12-.54-3.47.31-4.77,1.14l-.1.06c-.82.52-1.9.31-3,.09-.44-.09-.9-.17-1.33-.21a3,3,0,0,0-1.84.44c-.42.22-.63.32-1,.2a35.69,35.69,0,0,0-5.53-1.13c-1.18-.16-1.5-1-1.9-2a7.25,7.25,0,0,0-.72-1.47c-.87-1.27-4-1.35-4.6-1.36-1.68,0-1.83.26-1.9.36a.43.43,0,0,0-.08.41C.1,40.84.33,40.9.66,41ZM11.1,71.25a1.53,1.53,0,0,1-1.15-.05.13.13,0,0,1-.06-.13.61.61,0,0,1,.24-.5.19.19,0,0,1,.09,0h0a1.62,1.62,0,0,1,.5.5l.09.14.41,0Zm.77,5.56c-.21.41-.49.69-.72.7s-.24-.07-.36-.23-.1-.29-.07-.35a1,1,0,0,1,.77-.38,2.74,2.74,0,0,0,.68-.14A1.59,1.59,0,0,0,11.86,76.81Zm21.91-1.4a6.14,6.14,0,0,0,1.59.5.52.52,0,0,1,.46.26.57.57,0,0,1-.12.56c-.19.26-.81-.18-1.84-.93a10.44,10.44,0,0,0-1.68-1A12.71,12.71,0,0,1,33.78,75.42Zm-6.39,27.24c-.78.32-8.5,3.38-13.85.56a7.21,7.21,0,0,1-2.13-1.43,12.49,12.49,0,0,0,7.78,2.16,31.05,31.05,0,0,0,8.87-2.15A8.72,8.72,0,0,0,27.39,102.66Zm3.33-8q-.42-.18-.83-.31a11.86,11.86,0,0,1,1.21.37,21.76,21.76,0,0,1,4.48,2.06l-.87.46C34.47,96.71,33.61,95.82,30.72,94.61Zm13.79.8c-.48-.08-.9-.15-1.29-.19a12.32,12.32,0,0,0-2.71-2.9L40.12,92A14.78,14.78,0,0,1,45,95.45,3.35,3.35,0,0,1,44.51,95.41Zm-37-34.35a3.49,3.49,0,0,0-.28-1.12,9.41,9.41,0,0,0-.46-.86,12.12,12.12,0,0,1-2-8.14c.14-.88.28-1.68.42-2.4a23.48,23.48,0,0,0,.44-3.07c1,1.84,3.88,5.46,11,7.51a86.2,86.2,0,0,0,8.82,1.92c5.29.94,9.48,1.69,13.69,5a41.7,41.7,0,0,1,9.12,10.92,6.71,6.71,0,0,0-2.64-1c-2.4-.29-3,.06-3.14.13l0,0-.68-.19a27.2,27.2,0,0,0-8.46-1,1.56,1.56,0,0,0-.05-.29c-.15-.51-.44-.66-.65-.69a1.17,1.17,0,0,0-.86.31,1.61,1.61,0,0,0-.2-1A.84.84,0,0,0,31,66.8a.76.76,0,0,0-.67.27,1.88,1.88,0,0,0-.28,1.24,1.28,1.28,0,0,0-.46-.19,1.11,1.11,0,0,0-.38,0,2.8,2.8,0,0,0-.53-1.64,1.79,1.79,0,0,0,1-.63,1.19,1.19,0,0,0,.2-.65l.09.18a8.7,8.7,0,0,0,1.79-1.25,8.81,8.81,0,0,0,1.44-2,1.36,1.36,0,0,0,1-1.32,1.61,1.61,0,0,0-1-1.37.84.84,0,0,0-.94.33,1.47,1.47,0,0,0-.28.89,2.43,2.43,0,0,1-.66,1.56,10.54,10.54,0,0,1-1.87,1.88.7.7,0,0,0-.19-.07,1.16,1.16,0,0,0-.86.31,1.78,1.78,0,0,0-.13-.8A3.93,3.93,0,0,0,29,61.37a5,5,0,0,0-.07-1.85,1.49,1.49,0,0,1,0-.63c.1-.68-.11-1-.3-1.15a1,1,0,0,0-1.47.48,2.25,2.25,0,0,0,.31,1.72A6.83,6.83,0,0,1,27.07,63l0,0a.77.77,0,0,0-.3.22,1.87,1.87,0,0,0-.28,1.24,1.27,1.27,0,0,0-.46-.19,1.36,1.36,0,0,0-1.22.48,1.25,1.25,0,0,0-.39.7l-.06,0a.79.79,0,0,0-.35,0c.57-1.49,1.32-3.42,1.44-3.63l.09-.16c.52-.88.95-1.78.61-2.41a.8.8,0,0,0-.65-.47c-.54,0-1,.45-1.33.87A1,1,0,0,0,24,60.8a2,2,0,0,1,.1.76,13.64,13.64,0,0,1-.48-2,1.67,1.67,0,0,1,.14-.59,1.39,1.39,0,0,0-.13-1.54,1,1,0,0,0-1.09-.31,1.48,1.48,0,0,0-.92,1.28,2,2,0,0,0,.39,1.26,6.12,6.12,0,0,1,.65,1.49,13.93,13.93,0,0,1,.42,3.12l-.14.26a.9.9,0,0,0-.33-.1.76.76,0,0,0-.67.27A1.87,1.87,0,0,0,21.71,66l-.07,0a3.08,3.08,0,0,0-.49-1.17,1.79,1.79,0,0,0,1-.63A1.26,1.26,0,0,0,22.27,63a1.1,1.1,0,0,0-.3-.52h0a4.28,4.28,0,0,0-.51-2,5.62,5.62,0,0,0-.55-.8c-.15-.19-.16-.21-.16-.28a1.48,1.48,0,0,1,0-.17,1.18,1.18,0,0,0-1-1.54c-.95-.23-1.3.18-1.41.36a1,1,0,0,0,.25,1.14l.38.36a6.25,6.25,0,0,1,1.45,1.76,4.32,4.32,0,0,1,.45,1.22l-.16.11a1.62,1.62,0,0,0-.2-1,.85.85,0,0,0-.67-.38.76.76,0,0,0-.67.27,1.89,1.89,0,0,0-.28,1.24,1.25,1.25,0,0,0-.46-.19,1.37,1.37,0,0,0-1.22.47,1.06,1.06,0,0,0-.38,1.08,1.84,1.84,0,0,0,1.18,1,3.54,3.54,0,0,0-.35.38.84.84,0,0,0-.53-.25.81.81,0,0,0-.41.08c-.31-.25-2.17-1.69-2.51-1.92a3.13,3.13,0,0,1-.73-.84l-.08-.11a.76.76,0,0,0-.73-.33,1.28,1.28,0,0,0-1,.76.79.79,0,0,0,0,.65c.18.43.75.71,1.75,1.09a7.45,7.45,0,0,1,2.48,2,1.09,1.09,0,0,0-.18-.07,1.13,1.13,0,0,0-.36,0,7.82,7.82,0,0,0-1.77-1.3c-.31-.14-.34-.2-.38-.29a1.3,1.3,0,0,0-.47-.56,1,1,0,0,0-1.06-.13,1.08,1.08,0,0,0-.57,1,.9.9,0,0,0,.34.71,1.32,1.32,0,0,0,1.08.23,6.8,6.8,0,0,1,1.77,1.09,1,1,0,0,0-.18.83,1.12,1.12,0,0,0,.36.51A10.21,10.21,0,0,1,12,67.31a1,1,0,0,0-.6-.47,1.31,1.31,0,0,0-.78.08A10.81,10.81,0,0,1,8.35,63.8,8.55,8.55,0,0,1,7.53,61.06ZM9.21,48.52c3.12,2.06,7.8,3.73,14.48,5.26L26,54.3l-.31-.06a85.58,85.58,0,0,1-8.75-1.91A21,21,0,0,1,9.21,48.52Zm20.33,5.92c-.14-.41-.66-1.9-1.48-4.16a3.29,3.29,0,0,0-.29-.6,12.8,12.8,0,0,1,2.36,4.9ZM50.17,73.36,49.62,73l-.37-.27c-1.25-.9-1.71-1.23-5.33-2.28a13.66,13.66,0,0,1,1.71.11A7.3,7.3,0,0,1,50.17,73.36ZM32.46,68.9l.08.53a2,2,0,0,1-.9.29h-.09a.92.92,0,0,0,0-.18l.09-.13c.35-.5.83-.94,1-.94h0s.07.06.12.23a.85.85,0,0,1,0,.15ZM26.06,77a1.12,1.12,0,0,0,.19.63l0,0a4,4,0,0,1-.16.76H26A2.41,2.41,0,0,1,26,77,.07.07,0,0,1,26.06,77ZM24,78.8c0-.11.08-.26.19-.36a.74.74,0,0,1,.49-.27h.07a1,1,0,0,1,.53.44,1.56,1.56,0,0,0-.47.71C24.42,79.2,24,79,24,78.8Zm1.47.62a.59.59,0,0,1,.34-.35l.12,0-.17.52-.19,0Zm.75-3.09-.07,0a.75.75,0,0,0-.64.26,1.7,1.7,0,0,0-.26,1.1,1.17,1.17,0,0,0-.38-.15,1.26,1.26,0,0,0-1.15.44,1.24,1.24,0,0,0-.36.6l-.13-.08a1.07,1.07,0,0,0-.82,0,.7.7,0,0,0-.22-.67.53.53,0,0,0-.48,0c.47-.42,1-1.06,1-1.61a.74.74,0,0,0-.29-.52l.13-.16c.37.51.87,1.06,1.34,1,.18,0,.43-.16.53-.62a2.61,2.61,0,0,0-.5-2l.25-.08a.79.79,0,0,0,.28.06h0c.6,0,1.26-.72,1.63-1.2a4.49,4.49,0,0,0,.43.51,1.92,1.92,0,0,0-.42.31,1.06,1.06,0,0,0-.38,1.08,1.84,1.84,0,0,0,1.18,1A2.91,2.91,0,0,0,26.21,76.33ZM18.77,77a2.29,2.29,0,0,1,.53-.1.81.81,0,0,0-.15.62.88.88,0,0,0,.09.25,1.51,1.51,0,0,0-.79.46A6.18,6.18,0,0,0,18.77,77Zm0,0h0Zm.65-2,.08-.15a8,8,0,0,0,.47-1.1,2.65,2.65,0,0,0,.86.52,2.88,2.88,0,0,0-.65.85Zm-2.31,1.17,0-.38.17,0v-.08l.14.18.17.22Zm-3.68-2a1.64,1.64,0,0,0-.74-.42l.56-.15A1.12,1.12,0,0,0,13.41,74.12ZM21.5,63h0s.07.06.12.23a.62.62,0,0,1,0,.56,1.65,1.65,0,0,1-1.09.46h-.09a.91.91,0,0,0,0-.18l.09-.13C20.83,63.43,21.31,63,21.5,63Zm.24,4a1.65,1.65,0,0,0-.54.81c-.41-.14-.85-.37-.92-.61a.21.21,0,0,1,0-.11,1.05,1.05,0,0,0,.82.38c.18,0,.43-.16.53-.62h0Zm1.41-6.53a7.24,7.24,0,0,0-.53-1.07,1.41,1.41,0,0,1-.3-.88.82.82,0,0,1,.47-.71l.11,0a.38.38,0,0,1,.28.15c.2.23.16.43,0,.88a2.18,2.18,0,0,0-.18.85A5.1,5.1,0,0,0,23.15,60.43Zm.39,1.44c.12.41.23.75.28.92l-.12.29C23.68,62.7,23.63,62.29,23.55,61.87Zm4.73-2.21a4.39,4.39,0,0,1,.05,1.64A3.61,3.61,0,0,1,27.78,63,6.47,6.47,0,0,0,28,59.65a1.83,1.83,0,0,1-.28-1.19.25.25,0,0,1,.15-.15.64.64,0,0,1,.23-.06h.07s.1.18.05.53A2.09,2.09,0,0,0,28.28,59.66Zm1.56,5.06s0-.06,0-.09a11.09,11.09,0,0,0,2-2,3.05,3.05,0,0,0,.79-1.93.88.88,0,0,1,.15-.54.19.19,0,0,1,.23-.09,1,1,0,0,1,.57.79c0,.48-.59.67-.62.68l-.14,0-.07.13a8.6,8.6,0,0,1-1.37,1.93A8,8,0,0,1,29.84,64.73Zm-.67.76a1.65,1.65,0,0,1-1.09.46H28a.91.91,0,0,0,0-.18l.09-.13c.35-.5.83-.94,1-.94h0s.07.06.12.23A.62.62,0,0,1,29.16,65.48Zm-1.89,7.35,0,.09a3.68,3.68,0,0,1-.91-1.07l-.1-.16a1,1,0,0,0,.27-.38,2.85,2.85,0,0,0,.11-.32A2.22,2.22,0,0,1,27.27,72.83ZM21.35,79a.24.24,0,0,1,0-.12.45.45,0,0,1,.26-.29l.13-.07c0,.06,0,.13,0,.22s-.07.19-.09.21A.44.44,0,0,1,21.35,79Zm-1.55-1.6c0-.06,0-.14.14-.23a1.09,1.09,0,0,1,.12-.09,1.62,1.62,0,0,1,.26.82C20.06,77.7,19.83,77.52,19.8,77.36Zm.79-.7a.77.77,0,0,0,.24.05c0,.09,0,.18,0,.28A1.35,1.35,0,0,0,20.6,76.66Zm-1,1.68a.48.48,0,0,1,.2,0,1,1,0,0,1,.47.48c-.34.17-1,.4-1.31.05-.14-.15-.1-.22-.06-.27A1,1,0,0,1,19.63,78.34Zm2-1.91a3.15,3.15,0,0,0,.32-.26c.08,0,.1.07.1.09,0,.2-.26.58-.59.91A3.32,3.32,0,0,1,21.6,76.43Zm1-3.76-.21,0a2.65,2.65,0,0,1,0-1.57.12.12,0,0,1,.12,0,.19.19,0,0,1,.17.09A2.49,2.49,0,0,1,22.65,72.66Zm-2.39.4c0-.14.09-.31.21-.42a.84.84,0,0,1,.56-.3h.08a1.1,1.1,0,0,1,.61.52,1.66,1.66,0,0,0-.54.81C20.77,73.52,20.33,73.29,20.26,73.06Zm1.6.67a.69.69,0,0,1,.4-.42.53.53,0,0,1,.18,0l-.21.63L22,73.86Zm.33.3v0l0,0Zm.78.19a2.86,2.86,0,0,0,.11-.32,2.24,2.24,0,0,1,.65,1.83l0,.09a3.68,3.68,0,0,1-.91-1.07l-.1-.16A1,1,0,0,0,23,74.22Zm.28-.93h-.09a.92.92,0,0,0,0-.18l.09-.13a4.21,4.21,0,0,1,.35-.43,1.14,1.14,0,0,0,.05.66A2.5,2.5,0,0,1,23.25,73.29Zm-.43-4.43-.1-.16a1,1,0,0,0,.27-.38A2.86,2.86,0,0,0,23.1,68a2.76,2.76,0,0,1,.63,1.11l-.19.16a1.66,1.66,0,0,0-.22.28A5.68,5.68,0,0,1,22.82,68.86Zm-.94-1a.69.69,0,0,1,.4-.42.54.54,0,0,1,.18,0l-.21.63L22,68Zm.31.34h0l0,0Zm-.58.37a1.32,1.32,0,0,0,.37.26l-.06.18.11-.16a.73.73,0,0,0,.22,0c-.36.54-1,1.29-1.36,1.29,0,0-.06,0-.12-.09C20.39,69.5,21.46,68.65,21.61,68.53Zm2.29-.59a1.79,1.79,0,0,0,1-.63,1.18,1.18,0,0,0,.2-.7,3.35,3.35,0,0,0,.54.27c-.74.69-1,1.4-.67,2a1.09,1.09,0,0,0-.2-.08,1.11,1.11,0,0,0-.43,0A3.22,3.22,0,0,0,23.9,67.94Zm2.79-1.56a.69.69,0,0,1,.4-.42.49.49,0,0,1,.18,0l-.21.63-.25-.06ZM25.4,70.83a.69.69,0,0,1,.4-.42.53.53,0,0,1,.18,0l-.21.63L25.51,71Zm.34.26,0,.07,0,0Zm.45-1.33-.21,0c0-.13,0-.26-.06-.4a1.47,1.47,0,0,0,.41-.19A4.49,4.49,0,0,1,26.19,69.76Zm-.3-1.12a.88.88,0,0,1,.12-.48.12.12,0,0,1,.12,0,.19.19,0,0,1,.17.09.6.6,0,0,1,0,.1A2,2,0,0,1,25.89,68.65Zm1.45-.48c.09.12.18.24.28.35a1.48,1.48,0,0,0-.57.29,2.62,2.62,0,0,0,0-.28C27.15,68.41,27.25,68.28,27.34,68.16ZM27,66.72h0Zm-.59.37a1.33,1.33,0,0,0,.37.27l-.06.19.11-.16a.73.73,0,0,0,.21,0c-.08.12-.17.24-.27.37A.74.74,0,0,0,26,67.5,4.19,4.19,0,0,1,26.42,67.09ZM24.4,70a2.07,2.07,0,0,0,0-.5.57.57,0,0,1,.14,0h.08a1.1,1.1,0,0,1,.61.52,1.66,1.66,0,0,0-.54.81,3,3,0,0,1-.61-.28A.82.82,0,0,0,24.4,70Zm0,2.33a.61.61,0,0,1-.05.52.67.67,0,0,1-.1.09A.79.79,0,0,1,24.39,72.31Zm.63-.22a1.32,1.32,0,0,0-.15-.33l.27-.22a1.33,1.33,0,0,0,.37.26l-.06.18.11-.15a.73.73,0,0,0,.22.05,5.87,5.87,0,0,1-.71.86A1.42,1.42,0,0,0,25,72.09Zm1.77-1.7H26.7a.92.92,0,0,0,0-.18l.09-.13c.35-.5.83-.94,1-.94h0s.07,0,.12.23a.62.62,0,0,1,0,.56A1.65,1.65,0,0,1,26.79,70.39Zm1.77-2,0,.09a3.67,3.67,0,0,1-.91-1.07l-.1-.16a1,1,0,0,0,.27-.38,2.85,2.85,0,0,0,.11-.32A2.22,2.22,0,0,1,28.56,68.39ZM27.3,63.72s0,0,.12,0a.19.19,0,0,1,.17.09,2.5,2.5,0,0,1-.11,1.55l-.21,0A2.64,2.64,0,0,1,27.3,63.72ZM26,66.32c-.42-.14-.85-.37-.92-.61s.09-.31.21-.42a.84.84,0,0,1,.56-.3h.08a1.11,1.11,0,0,1,.61.52A1.66,1.66,0,0,0,26,66.32Zm-1.66.61a1.65,1.65,0,0,1-1.08.46h-.09a.93.93,0,0,0,0-.18l.09-.13c.35-.5.83-.94,1-.94h0s.07.06.12.23A.62.62,0,0,1,24.36,66.93Zm-.89-1.74,0-.08.18-.32Zm-.79,1.57-.2,0a2.66,2.66,0,0,1,0-1.57s0,0,.12,0a.19.19,0,0,1,.17.09A2.48,2.48,0,0,1,22.67,66.76Zm-3.55-2.1a.69.69,0,0,1,.4-.42.58.58,0,0,1,.18,0l-.21.63-.25-.06Zm.33.27,0,.06,0,0Zm.77.22a2.91,2.91,0,0,0,.11-.32,2.91,2.91,0,0,1,.58,1,1.34,1.34,0,0,0-.62.26l-.24-.35-.1-.16A1,1,0,0,0,20.23,65.15Zm.78,1.3a1.38,1.38,0,0,1,0,.22l0,.09a1.16,1.16,0,0,1-.24-.2A.66.66,0,0,1,21,66.45ZM19.9,63.6l-.2,0a2.65,2.65,0,0,1,0-1.57s0,0,.12,0A.19.19,0,0,1,20,62,2.49,2.49,0,0,1,19.9,63.6Zm-1.46,1c-.41-.14-.85-.37-.92-.61s.09-.31.21-.42a.84.84,0,0,1,.56-.3h.08a1.1,1.1,0,0,1,.61.52A1.66,1.66,0,0,0,18.44,64.6Zm.41.77a1.33,1.33,0,0,0,.37.26l-.06.17.11-.15a.73.73,0,0,0,.22.05,6,6,0,0,1-.5.65l-.07,0a1.16,1.16,0,0,0-.86.31,2.41,2.41,0,0,0,0-.38A3.22,3.22,0,0,1,18.85,65.37Zm-.72,2.28h0a1.41,1.41,0,0,0,.81-.35.59.59,0,0,1-.06.46,1.65,1.65,0,0,1-1.09.46H17.7a.91.91,0,0,0,0-.18l.09-.13c.07-.1.15-.19.22-.28ZM17,73.36a1.31,1.31,0,0,0-.4-.27.8.8,0,0,0-.21-.05,5.7,5.7,0,0,1-.34-.49l-.1-.16a1,1,0,0,0,.27-.38,2.9,2.9,0,0,0,.11-.32A2.34,2.34,0,0,1,17,73.36ZM16.72,69l0,0,0,0Zm.08-.75a.54.54,0,0,1,.18,0l-.21.63-.14,0a1.09,1.09,0,0,0-.11-.28l0,0A.56.56,0,0,1,16.81,68.24Zm-.76,1.19a4.09,4.09,0,0,1-.19,1l-.2,0c0-.17-.06-.36-.08-.54A4,4,0,0,1,16.05,69.43Zm.43,1.65a5.61,5.61,0,0,0,.58-.64c.09.12.19.25.29.37A2,2,0,0,1,16.48,71.08Zm1-1.24h0s.06.06.11.19Zm.78,0c-.15-.51-.44-.66-.65-.69h-.08l0,0a2.87,2.87,0,0,0,.11-.32,2.22,2.22,0,0,1,.65,1.83l0,.09,0,0A1.32,1.32,0,0,0,18.23,69.88ZM17.33,67a4.46,4.46,0,0,1-.14.57l-.2,0A2.65,2.65,0,0,1,17,66s0,0,.12,0a.19.19,0,0,1,.17.09.6.6,0,0,1,0,.15A1.21,1.21,0,0,0,17.33,67Zm-1-1a10.28,10.28,0,0,0-1.23-1.19l1.28,1A1.56,1.56,0,0,0,16.29,66.07Zm0,1.72a1.41,1.41,0,0,0-.35.39l-.07,0a.74.74,0,0,0-.61.22.85.85,0,0,1-.44-.39c0-.14.09-.31.21-.42a.85.85,0,0,1,.56-.3h.08A1.1,1.1,0,0,1,16.27,67.79Zm-.21-1,.17-.14c0,.07,0,.14,0,.21A1.46,1.46,0,0,0,16.06,66.74Zm-.93,4.85a.78.78,0,0,0,.29.06h0l0,.08-.25-.06Zm.28.24v0h0Zm.32,1.48.15.19a4.3,4.3,0,0,0,.9,1.55L14,74.7c-.13,0-.16,0-.17-.06a2.16,2.16,0,0,0-.2-.3.76.76,0,0,0,.48.17h0C14.69,74.51,15.35,73.79,15.72,73.31Zm1.74.69a1,1,0,0,0,.13-.33,2.61,2.61,0,0,0-.5-2,2.09,2.09,0,0,0,.75-.37.79.79,0,0,0,.56.16c.19,0,.43-.16.53-.62a2.61,2.61,0,0,0-.5-2,1.79,1.79,0,0,0,1-.63A1.25,1.25,0,0,0,19.56,67a1.3,1.3,0,0,0-.09-.22l.3-.36.06.08a1,1,0,0,0-.17.82,1.84,1.84,0,0,0,1.18,1c-.79.73-1,1.5-.61,2.1a.78.78,0,0,0,.67.38h0c.6,0,1.26-.72,1.63-1.2a3.85,3.85,0,0,0,.64.71v0a1.84,1.84,0,0,0,1.18,1l-.06.07a1.23,1.23,0,0,0-.78.31,1.61,1.61,0,0,0-.2-1,.85.85,0,0,0-.67-.38.76.76,0,0,0-.67.27,1.88,1.88,0,0,0-.28,1.24,1.27,1.27,0,0,0-.46-.19,1.26,1.26,0,0,0-1,.3.42.42,0,0,0-.28-.35c-.61-.19-1.58,1.64-2.09,2.74l-.06.13c-.07-.09-.14-.23-.2-.32Zm4.13.43a1.33,1.33,0,0,0,.37.26l-.06.17.11-.15a.73.73,0,0,0,.22.05,6,6,0,0,1-.58.73.78.78,0,0,0-.25.11l0,0a1,1,0,0,0-.57-.37A3.37,3.37,0,0,1,21.59,74.43Zm-2.48,6h0a.29.29,0,0,1,0-.11.31.31,0,0,1,.12-.28.88.88,0,0,1,.49-.11H20A2.91,2.91,0,0,1,19.11,80.4Zm1.69-1.08h0l0,.08-.07,0Zm1.59-.1a.85.85,0,0,1,.54-.15s.07.09.07.3,0,.18,0,.2A1.65,1.65,0,0,1,22.39,79.23Zm3.92-4.9c0-.14.09-.31.21-.43a.84.84,0,0,1,.56-.3h.08a1.12,1.12,0,0,1,.61.52,1.65,1.65,0,0,0-.54.81C26.82,74.79,26.38,74.57,26.31,74.33Zm1.6.67a.69.69,0,0,1,.4-.42.51.51,0,0,1,.18,0l-.21.63L28,75.14Zm.32.3v0h0Zm.46-1.37-.2,0a3.6,3.6,0,0,1,0-1.43,1.15,1.15,0,0,0,.14.29.85.85,0,0,0,.3.28A4.3,4.3,0,0,1,28.7,73.94Zm-.22-2.27a.74.74,0,0,0-.47.24.93.93,0,0,0-.1.18,3.1,3.1,0,0,0-.49-1.14,1.79,1.79,0,0,0,1-.63l0-.06a2.92,2.92,0,0,0,.75.41A2.67,2.67,0,0,0,28.48,71.67Zm.17-2.17c0-.13.08-.29.19-.4A.58.58,0,0,0,29,69a.73.73,0,0,1,.42-.19h.08a1.1,1.1,0,0,1,.61.52,1.66,1.66,0,0,0-.54.81C29.16,70,28.72,69.73,28.65,69.49ZM31,69.1l-.21,0a2.65,2.65,0,0,1,0-1.57s0,0,.12,0a.19.19,0,0,1,.17.09A2.48,2.48,0,0,1,31,69.1Zm-.79,1.06a.69.69,0,0,1,.4-.42.54.54,0,0,1,.18,0l-.21.63-.26-.06Zm.33.28,0,.05,0,0Zm-5.9-9.83c-.07-.26-.09-.31,0-.48.35-.46.63-.62.75-.62h0s.09.07.12.12c.21.39-.4,1.42-.6,1.76l-.1.18-.12.27A2.69,2.69,0,0,0,24.68,60.62Zm-4.45-.81c-.26-.29-.52-.53-.76-.75l-.36-.34c-.14-.14-.18-.29-.14-.35s.13-.1.31-.1a1.56,1.56,0,0,1,.37,0c.62.15.58.39.51.79a2.23,2.23,0,0,0,0,.25A.79.79,0,0,0,20.23,59.81Zm-5.46,4.84a4.66,4.66,0,0,0-1.06-.6c-.32-.12-1.28-.49-1.38-.73,0,0,0,0,0-.13a.62.62,0,0,1,.45-.36h0a.1.1,0,0,1,.1,0L13,63a3.64,3.64,0,0,0,.9,1Zm-1.82,1a1.13,1.13,0,0,0-.38-.08h-.1a.69.69,0,0,1-.55-.09.24.24,0,0,1-.09-.2.43.43,0,0,1,.21-.38.34.34,0,0,1,.37.07.66.66,0,0,1,.26.31A.91.91,0,0,0,12.95,65.68Zm-2.51,2.11s0-.06,0-.07l.36.34A.51.51,0,0,1,10.44,67.79Zm1.81.62c-.27-.21-.65-.53-1.09-.94h.05a.3.3,0,0,1,.19.16c.36.61,2.76,1.61,3.5,1.91,0,0,0,.08,0,.12a1.25,1.25,0,0,0-.46-.19,1.13,1.13,0,0,0-.61.06l.13-.2A13.46,13.46,0,0,0,12.25,68.41Zm1.23,2.44c0-.14.09-.31.21-.43a.84.84,0,0,1,.56-.3h.08a.66.66,0,0,1,.28.14,1.18,1.18,0,0,0,0,.72,1.82,1.82,0,0,0-.22.46C14,71.32,13.54,71.09,13.48,70.85Zm1.33,1.37a1.33,1.33,0,0,0,.37.26l-.06.19.12-.17a.73.73,0,0,0,.22,0c-.36.54-1,1.28-1.36,1.29,0,0-.06,0-.12-.09C13.57,73.19,14.67,72.33,14.81,72.23ZM11.58,74s-.68.2-1.45.38a.36.36,0,0,1-.35-.12A.65.65,0,0,1,9.6,74l.31,0a5.49,5.49,0,0,0,1.73-.08l.26-.05a.94.94,0,0,0-.23.43Zm.76,1c-.08-.07-.08-.12-.08-.14,0-.38.07-.51.12-.53h.05a1,1,0,0,1,.56.31,1.2,1.2,0,0,1,.22.31c.13.24.25.36.67.41l1.81.23C14.32,75.56,12.79,75.41,12.34,75Zm.06,6.15a1.21,1.21,0,0,1-.53-.3h0a1.18,1.18,0,0,1,.76-.33,7.51,7.51,0,0,0,2.52-1.2l.6-.37C14.5,80.21,13,81.39,12.4,81.16Zm3-2.79-.63.39a14.89,14.89,0,0,1-1.42.81l0-.29a.44.44,0,0,1-.28-.14.55.55,0,0,1,0-.43.73.73,0,0,1,.4-.54.46.46,0,0,1,.35,0c.45.31.76.5,1,.32l1.21-.86a1.92,1.92,0,0,0,.4,0A4.72,4.72,0,0,1,15.44,78.37Zm1.84.08a.77.77,0,0,1-.07-.09l.07-.08-.21-.18a.43.43,0,0,1,0-.2l.08-.13h0a2,2,0,0,1,.16-.24c.1-.13.25-.32.11-.54a.36.36,0,0,0-.32-.17l-.18,0-.18,0A2.17,2.17,0,0,1,16,77a.08.08,0,0,0,0,0,3.06,3.06,0,0,1,1-.13c.64,0,1.15,0,1.32-.4a.54.54,0,0,0-.1-.59l-.26-.34-.17-.23h.08c.32,0,.5-.32.63-.58a15.6,15.6,0,0,1,1.09-2,6.15,6.15,0,0,1-.65,1.79c-.17.34-.3.58-.17.83a.52.52,0,0,0,.44.26c.37,0,.64.1.86.14a1.11,1.11,0,0,0,.06.36c-.23,0-.47.07-.7.1-.59.06-1.21.13-1.26.66s-.36,1.59-.65,1.7C17.43,78.56,17.34,78.51,17.28,78.45Zm-1.53,3.48a.14.14,0,0,1-.14,0c-.32-.28-.23-.45-.2-.52a1,1,0,0,1,.78-.46h0c.36.07.86-.31,1.38-.84C16.95,81,16.19,81.86,15.75,81.93Zm.61.44A8.66,8.66,0,0,0,18.47,80a1.17,1.17,0,0,0,0,.28.83.83,0,0,0,.1.43,4.78,4.78,0,0,1-1.13,1.35,1.45,1.45,0,0,1-.36.08A1.68,1.68,0,0,0,16.36,82.37Zm2,.28a1,1,0,0,0-.5,1.08l-.24-.3c-.31.25-.77.47-.93.4s-.08-.11-.09-.29c0-.65.14-.68.58-.74a2,2,0,0,0,.54-.13A5.24,5.24,0,0,0,19.14,81h0a8,8,0,0,1-.71,1.55Zm.64.69c0,.31-.15.44-.24.46s-.18,0-.24-.16-.08-.21.25-.46l.12-.1a1.29,1.29,0,0,0,.24-.32A4.12,4.12,0,0,0,19,83.34Zm.73-2.49.18-.09-.06.13Zm.43-.24.32-.23a1.9,1.9,0,0,0,0,.38Zm1.89.72s-.1,0-.33,0a.72.72,0,0,1-.53-.37,1.31,1.31,0,0,1,0-.88A1.7,1.7,0,0,1,22,81C22.06,81.2,22,81.31,22,81.33Zm-.34-1.73.1,0a2.92,2.92,0,0,0,.92.6c0,.1,0,.33-.07.64A2.4,2.4,0,0,0,21.67,79.6Zm1,4.08c-.42,1-1,1.25-1.19,1.21s-.08-.17-.06-.31c.06-.39.16-.44.38-.54a1.71,1.71,0,0,0,.91-.9,9.87,9.87,0,0,0,.67-3h0a.78.78,0,0,0,.32-.71,2.43,2.43,0,0,0,.75.46,2.24,2.24,0,0,0-.67,1l-.16,0A15.67,15.67,0,0,1,22.64,83.68Zm1.88-2.15h0s0,0-.09-.07c-.33-.49.59-1.23.75-1.36a1.23,1.23,0,0,0,.31.22l-.11.33.21-.3.13,0a5.25,5.25,0,0,1-.61.75l-.6.22.05.16Zm1.58,4a.58.58,0,0,1-.63-.17,1,1,0,0,1-.11-1.06,4.19,4.19,0,0,0,0-2.47,3.68,3.68,0,0,0,.32-.3,3.15,3.15,0,0,1,.28.93,2.45,2.45,0,0,1-.13,1c-.1.34-.19.66,0,.91a1.72,1.72,0,0,1,.41,1.06S26.22,85.49,26.1,85.53Zm1-4.27v0a3.64,3.64,0,0,1-.79-.95l-.08-.13a1,1,0,0,0,.24-.34c0-.09.06-.17.09-.25A2,2,0,0,1,27.12,81.26Zm.56-2.67a1.51,1.51,0,0,1-1,.41h-.06a.89.89,0,0,0,0-.13l.08-.11c.33-.47.76-.85.91-.85h0s0,0,.09.19A.55.55,0,0,1,27.67,78.59ZM27,77.32a1.3,1.3,0,0,0-.16-.63,3,3,0,0,1,.86-1A1.33,1.33,0,0,0,28,76l-.06.19.11-.16a.73.73,0,0,0,.22,0C27.93,76.57,27.29,77.28,27,77.32ZM29.79,77l0,.09A3.65,3.65,0,0,1,28.85,76l-.1-.16a1,1,0,0,0,.27-.38,2.88,2.88,0,0,0,.11-.32A2.24,2.24,0,0,1,29.79,77Zm.53-3.68s.07,0,.12.23a.63.63,0,0,1,0,.52l-.06.05h0a1.72,1.72,0,0,1-1,.42h-.09a.91.91,0,0,0,0-.18l.09-.13c.35-.5.83-.94,1-.94Zm-.81-.93a1.14,1.14,0,0,0-.14-.38.83.83,0,0,0-.22-.21,3.09,3.09,0,0,1,.84-.94,1.33,1.33,0,0,0,.37.27l-.06.18.11-.15a.73.73,0,0,0,.22,0A4.59,4.59,0,0,1,29.5,72.4Zm2.61-.23,0,.09a3.68,3.68,0,0,1-.91-1.07l-.1-.16a1,1,0,0,0,.27-.38,2.89,2.89,0,0,0,.11-.32A2.22,2.22,0,0,1,32.12,72.17Zm.57-1.05a3.26,3.26,0,0,0-.42-.84l.24-.08.07.49a19,19,0,0,1,3-.08,6.6,6.6,0,0,1-1.32.34,8,8,0,0,1-1.45.18Zm5.28.14c0,.17-.39.19-.91.22a4.56,4.56,0,0,0-1.29.19,8.46,8.46,0,0,1-2.57.1,10.91,10.91,0,0,0,1.19-.17,5.5,5.5,0,0,0,1.73-.5,6.66,6.66,0,0,1,.64-.28l.34-.1.89.1A.7.7,0,0,1,38,71.26Zm8.13,1a32.39,32.39,0,0,0-7.87-2.07A1.61,1.61,0,0,0,37.07,70a23.92,23.92,0,0,0-4.18,0,1.37,1.37,0,0,0,.37-.35,1.2,1.2,0,0,0,.09-.16,26.64,26.64,0,0,1,8.38,1c5.39,1.49,5.76,1.76,7.13,2.75l.37.27.58.41A40,40,0,0,0,46.1,72.23ZM49.93,72a15.22,15.22,0,0,1-1-1.48C47.32,68,44.3,63.1,39.64,59.41a20.19,20.19,0,0,0-5-2.91,21.19,21.19,0,0,1,5.65,2.86c.25.18.51.38.77.59,0,.37.09.62.09.65l.53-.11C44.52,63,47.38,67.21,49,69.62a18.83,18.83,0,0,0,1.33,1.85c.16.16.21.28.19.33A.84.84,0,0,1,49.93,72ZM36.21,56.38c-.1-.75-.43-3.26-.87-5.52a3.81,3.81,0,0,0-.75-1.56,6.12,6.12,0,0,1,1.31,3c.17.83.66,3.1.92,4.29ZM42,56.1a4.41,4.41,0,0,0,.16-1.36,2.76,2.76,0,0,1,0,.39c0,1.23,0,3.65,0,4.92l-.49-.43A9.93,9.93,0,0,1,42,56.1Zm-36-14.53a6.73,6.73,0,0,1,.65,1.34c.42,1.07.86,2.17,2.43,2.38a35.54,35.54,0,0,1,5.39,1.1A1.7,1.7,0,0,0,16,46.14a2.35,2.35,0,0,1,1.47-.36c.4,0,.82.12,1.27.2,1.22.24,2.48.48,3.52-.18l.1-.06c1.24-.78,2.4-1.52,4.25-1.06l1.19.32a29.61,29.61,0,0,0,5.39,1c3.51.4,8,1.88,9.93,4.85a24.47,24.47,0,0,1,1.69,2.88,3.19,3.19,0,0,0,.79,1.13l.14.13c1,.88,3.92,3.57,3.79,7.21a15.47,15.47,0,0,1-.43,3.12,5.34,5.34,0,0,0,.07,3.4,58.75,58.75,0,0,0-6.35-8.05c0-.87.08-4.07,0-5.56,0-1.8-2.08-5.09-2.17-5.22l-.57.33s1.88,3.52,1.25,5.7A10.29,10.29,0,0,0,41,59.07l-.33-.25A23,23,0,0,0,37.57,57c-.2-.9-.83-3.8-1-4.77a6.4,6.4,0,0,0-3.08-4.73,10.73,10.73,0,0,0-3.88-1.65L27,45.45l2.44,1s4.8,2,5.29,4.52c.39,2,.69,4.12.82,5.12a45.16,45.16,0,0,0-4.83-1.39l.14,0c0-.19-.93-4.65-4-6.8-2.56-1.78-4.88-2.14-5.34-1.62a.43.43,0,0,0,0,.58c.15.17.45.27,1.18.51,1.44.46,4.13,1.33,4.8,3.15s1.11,3.09,1.34,3.76l-2.39-.54-2.55-.58C13.38,50.75,8,48,5.75,44.08L4.25,41.4l.29.94A4.89,4.89,0,0,0,4,41.9,10.1,10.1,0,0,0,1.31,40.5C2.68,40.42,5.42,40.65,6.05,41.57Z"/><path class="cls-1" d="M21.37,9.33a18,18,0,0,0,.49,3.41c.49,2.25,3,3.68,3.85,4.09-.11.7,0,2.54,2.59,5.89s4.17,3.38,4.9,3.2c.25.53,1,1.47,3.16,2.92a8.77,8.77,0,0,0,5.38,1.79,5,5,0,0,0,2.33,2.24h-.13a2,2,0,0,0-1.24.47,1.37,1.37,0,0,0-.27-1,1.63,1.63,0,0,0-.94-.54.74.74,0,0,0-.16-.6,1.57,1.57,0,0,0-1.08-.42h-.08a2.09,2.09,0,0,0-.51.18v0a.75.75,0,0,0-.37-.66c-.49-.28-1.24.07-1.38.14l-.15.08-.06.41a1.65,1.65,0,0,0-1.35-.33A.74.74,0,0,0,36,31l-.15,0c-.17,0-1.05.15-1.25.72a.72.72,0,0,0,0,.55h0l0,0c-.12.12-.74.74-.65,1.32a.73.73,0,0,0,.24.43,1.78,1.78,0,0,0-.59,1.16,1.18,1.18,0,0,0,.58,1,2.27,2.27,0,0,0,.77.37,1.24,1.24,0,0,0,.19.9.94.94,0,0,0,.73.37h.11l.3,0a1.74,1.74,0,0,0,1.38,1,1.24,1.24,0,0,0,.39-.06,2,2,0,0,0,.83-.48.81.81,0,0,0,.15.21.73.73,0,0,0,.49.18l.23,0a1.46,1.46,0,0,0,1.06-.93,1.27,1.27,0,0,0,.06-.5l.18,0a2.4,2.4,0,0,0,.26.43A3.1,3.1,0,0,1,42,39.25l-.11,1,.68-.73a3.24,3.24,0,0,0,.65-2.64,3.33,3.33,0,0,0-.41-1.16A16.42,16.42,0,0,1,47.67,38c3.88,2.36,5.6,3.94,5.78,5.29l.06.41c.18,1.18.32,2.11-.76,12.2-1.2,11.13.92,16.57,1,16.79l.61-.25c0-.05-2.15-5.53-1-16.48,1.09-10.17,1-11.09.76-12.37l-.06-.4c-.21-1.61-1.92-3.23-6.09-5.77a20.17,20.17,0,0,0-4.47-2.18l.26-.1a15.75,15.75,0,0,1,6.19,3c.83.67,1.44,1.2,1.89,1.58.79.68,1.09.93,1.33.93a.4.4,0,0,0,.19-.05c.27-.14.24-.44.18-.94,0-.23,0-.52-.06-.85A9.14,9.14,0,0,0,53,35.63l.08,0c0-.14-3.69-14.06-11.88-21.92A34.45,34.45,0,0,0,29.81,6.55c8.18,3,14.36,8,17.65,14.44,6.47,12.64,6.75,19.39,6.75,19.45l.66,0c0-.23-.21-5-4.15-14.08l.3,0a41.6,41.6,0,0,1,.46-8.67,9.17,9.17,0,0,0-.58-6L50,9.92l.32,1.92s.59,3.62-.49,6a11.2,11.2,0,0,0-.69,4.92c-.33-.69-.68-1.39-1-2.11a25.44,25.44,0,0,0-1.64-2.76,27.48,27.48,0,0,0,.55-8c-.41-4.34-3.22-5.22-3.34-5.26l-.23.62a6.51,6.51,0,0,1,1.48,1.39c1.29,1.44,1,3.57.6,5.11a29.15,29.15,0,0,0-.78,3.93,29.07,29.07,0,0,0-3.15-3.16A19.7,19.7,0,0,0,41,6.76,8,8,0,0,0,38.09,3a6.63,6.63,0,0,0-.7-.48L37.06,3s.21.12.5.35c.8.6,2.26,2,2.18,3.77s-.1,3.2-.11,3.87A40.8,40.8,0,0,0,25.37,4.5l-.49-.13a4,4,0,0,0-1.67-.16L23.85,4c1.81-.69,4.56-1.74,6.36-1.69a11.35,11.35,0,0,1,3.39.37l.29.14L34,2.5s.64-1.16,3.43-.29a23,23,0,0,1,3.79,1.38l.11.07.13,0a6.71,6.71,0,0,1,5.27,1.93,13.94,13.94,0,0,1,3.38,3.84l.12.25.26-.06s1.13-.21,2.6,2.25a11.13,11.13,0,0,1,1.68,4.83h.33a17.06,17.06,0,0,0-2.39,5C50.89,27.74,55.19,32.45,56,33.3c-.08.37-.3,1.31-.7,3.13a15.54,15.54,0,0,0-.4,4.27l.66-.05a9.84,9.84,0,0,1,0-1,.7.7,0,0,0,.09.13.56.56,0,0,0,.68.15A6.8,6.8,0,0,0,57.5,39a25.57,25.57,0,0,1,5.78-3.77c1.38-.64,2.4-1.07,3.16-1.37l.3.07a1.54,1.54,0,0,0,1-.18,4.19,4.19,0,0,0-.4.34c-3.36,1.54-9.53,4.51-9.69,5.52-.12.75-.47,3-1.36,4.1a12.26,12.26,0,0,0-1.39,2l0,.09a65,65,0,0,0-.66,18.67c1.22,9.15,1.3,9.65,1.31,9.67l.2,0c-.22.5-.33.8-.35.84l.62.23a39.64,39.64,0,0,1,4.38-7.85,35.87,35.87,0,0,1,3.82-4.93,1.49,1.49,0,0,1,.15.56c0,.06-.26.31-.49.56a37.57,37.57,0,0,0-5.3,7.23c-2.39,4.41-2.5,5.9-2.5,6l.66,0A4.46,4.46,0,0,1,56.9,76l.1.16a15.23,15.23,0,0,1,4.49-1.54,13.24,13.24,0,0,1,4.61,6.9c1.44,5.12,3.61,8.09,5,8.69a3.66,3.66,0,0,0,1.19.38.38.38,0,0,0,.33-.15l.15-.26-.15-.2-.08-.08s-3-2-4.39-7.43a25.56,25.56,0,0,0-3.61-8.32,40.84,40.84,0,0,1,6-.17c.49.77,3.77,6,4.56,9.25l.21.9c.68,2.85.91,3.81,2.8,5.65a4.39,4.39,0,0,0,3,1.51,1.66,1.66,0,0,0,.68-.12l.71-.35-.75-.26a9.19,9.19,0,0,1-5.3-7.32,65.7,65.7,0,0,0-2-8.82,21,21,0,0,1,6.27,2.64l-.29.12s1.82,4.44,3.22,8.75,5.37,7.73,6.26,7.78h.28l.09-.2c.12-.27,0-.44-.58-1a20.66,20.66,0,0,1-5.16-8.81c-.73-2.62-1.14-4.12-1.38-5,1.57,1.12,3.12,2.37,4.7,3.63C91.33,85.14,95,88,99.21,89.86c4.52,1.93,7.8,2.56,10.17,2.56a7.6,7.6,0,0,0,4.79-1.34c.17-.14.39-.31.27-.56a.33.33,0,0,0-.09-.11l.52-.21a5.22,5.22,0,0,1,2.06-.54,2,2,0,0,1,.61.05c-.31.66-3.71,2.72-5.18,3.62-4.14,2.51-10.44,1.31-10.5,1.3l-.09,0-.09,0a34.13,34.13,0,0,1-6.83,1.55c-3.7.44-8.22-3-8.26-3l-.12-.09-.15,0A33.06,33.06,0,0,1,69.58,92C64,90,63.14,85.2,62.45,81.33c-.35-1.94-.65-3.62-1.46-4.71a2.37,2.37,0,0,0-2.12-1.18c-1.8.18-3.14,3-3.19,3.13l0,.12c-.06,1,.34,5.24,2.89,12.53,2.43,7,5.58,16.24,7.23,21.15,1.16,3.42.93,4.24.93,4.26l0,.07v.07c0,.1.23,10.27.17,11.33l.66,0c.06-1.06-.15-10.46-.17-11.33.08-.32.15-1.42-.94-4.64C64.73,107.25,61.58,98,59.15,91S56.26,79.87,56.3,78.79c.37-.76,1.48-2.58,2.63-2.69a1.78,1.78,0,0,1,1.53.92,11.35,11.35,0,0,1,1.34,4.43c.72,4,1.62,9.05,7.56,11.2A33.79,33.79,0,0,0,86.3,93.78c.78.57,5,3.47,8.62,3a35.23,35.23,0,0,0,6.89-1.55c.83.15,6.75,1.11,10.88-1.4,4.58-2.77,5.71-3.68,5.5-4.39-.13-.46-.75-.51-1.28-.5a5.83,5.83,0,0,0-2.3.59c-1.22.51-2.6,1.1-6,.4-3.7-.76-3.61-1.3-3.3-3.1a13.94,13.94,0,0,0,.25-2.4A6.26,6.26,0,0,0,102,79c-.14-.94-.93-5.19-3.8-7.46a14,14,0,0,0-6.91-2.73A6.61,6.61,0,0,0,88,65.19,13.46,13.46,0,0,0,84.48,64a1.54,1.54,0,0,0-.83-.13A2.42,2.42,0,0,1,82,63.38a10.51,10.51,0,0,1-2.08-1.64.7.7,0,0,0,0-.2,1.16,1.16,0,0,0-.41-.82,1.79,1.79,0,0,0,.78-.23,3.88,3.88,0,0,0,2.18.53h.08a5,5,0,0,0,1.83-.28,1.36,1.36,0,0,1,.62-.11c.68,0,1-.22,1.11-.43a1,1,0,0,0-.65-1.41,2.25,2.25,0,0,0-1.67.5,6.79,6.79,0,0,1-3.13,0l0,0a.77.77,0,0,0-.25-.27,1.89,1.89,0,0,0-1.26-.13,1.27,1.27,0,0,0,.13-.47,1.36,1.36,0,0,0-.61-1.16A1.26,1.26,0,0,0,78,57s0,0,0-.06a.78.78,0,0,0-.07-.34c1.54.39,3.55.92,3.77,1l.17.07a4.86,4.86,0,0,0,1.78.51,1.17,1.17,0,0,0,.68-.19.8.8,0,0,0,.39-.7c0-.52-.57-1-1-1.23a1,1,0,0,0-1.07,0,2,2,0,0,1-.74.18,13.66,13.66,0,0,1,1.88-.7,1.75,1.75,0,0,1,.61.07,1.39,1.39,0,0,0,1.52-.31,1,1,0,0,0,.18-1.12,1.44,1.44,0,0,0-1.38-.76,2,2,0,0,0-1.21.54,6.13,6.13,0,0,1-1.4.82,13.92,13.92,0,0,1-3.05.78l-.27-.11a.9.9,0,0,0,.06-.34.78.78,0,0,0-.35-.64,1.86,1.86,0,0,0-1.26-.13s0-.05,0-.08a3.07,3.07,0,0,0,1.1-.62,1.79,1.79,0,0,0,.74.91,1.15,1.15,0,0,0,.55.14,1.47,1.47,0,0,0,.58-.13,1.1,1.1,0,0,0,.48-.35v0a4.29,4.29,0,0,0,2-.75,5.56,5.56,0,0,0,.73-.64c.17-.18.19-.18.26-.19h.18a1.18,1.18,0,0,0,1.41-1.18c.12-1-.33-1.27-.52-1.35a1,1,0,0,0-1.1.38l-.31.41a6.26,6.26,0,0,1-1.58,1.64,4.31,4.31,0,0,1-1.16.59L80.4,53a1.62,1.62,0,0,0,.94-.31.85.85,0,0,0,.3-.71.78.78,0,0,0-.35-.64A1.89,1.89,0,0,0,80,51.21a1.26,1.26,0,0,0,.13-.47,1.36,1.36,0,0,0-.61-1.16,1.06,1.06,0,0,0-1.11-.25,1.84,1.84,0,0,0-.84,1.29,3.56,3.56,0,0,0-.42-.3.85.85,0,0,0,.19-.56.81.81,0,0,0-.12-.4c.2-.33,1.43-2.36,1.61-2.72a3.15,3.15,0,0,1,.74-.82l.1-.09a.77.77,0,0,0,.24-.76,1.28,1.28,0,0,0-.87-.89.8.8,0,0,0-.65.05c-.4.23-.62.83-.88,1.87a7.45,7.45,0,0,1-1.72,2.7,1.12,1.12,0,0,0,.05-.19,1.1,1.1,0,0,0,0-.36,7.83,7.83,0,0,0,1.08-1.9c.1-.33.16-.36.25-.42a1.31,1.31,0,0,0,.5-.53,1,1,0,0,0,0-1.07,1.08,1.08,0,0,0-1-.45.9.9,0,0,0-.66.42,1.32,1.32,0,0,0-.1,1.09A6.78,6.78,0,0,1,75,47.19a1,1,0,0,0-.85-.08,1.12,1.12,0,0,0-.47.42,10.23,10.23,0,0,1,1.06-2.7,1,1,0,0,0,.4-.65,1.66,1.66,0,0,0-.45-1.2.71.71,0,0,0-.87-.22,1.2,1.2,0,0,0-.61,1.33,6.68,6.68,0,0,1-.76,2.47,2.12,2.12,0,0,0-.19-.18,1.25,1.25,0,0,0-.74-.31l-.08-1.61A2,2,0,0,0,72,43.7a.79.79,0,0,0-.14-.74,1.26,1.26,0,0,0-1.09-.44.79.79,0,0,0-.64.39,2.12,2.12,0,0,0,0,1.76,8.68,8.68,0,0,1,.19,2.41h.08c0,.11-.07.22-.1.32a3,3,0,0,0-.84-.52,15.6,15.6,0,0,1-.7-1.82,4.86,4.86,0,0,1-.25-1.53,4.47,4.47,0,0,0,0-.49.54.54,0,0,0-.37-.45A1.13,1.13,0,0,0,66.85,44c.2.55.4,1,.5,1.28h-.17a.85.85,0,0,0-.57.37,1.45,1.45,0,0,0-.16.31,2.27,2.27,0,0,1-.29-.72,1.6,1.6,0,0,0-.91-1.22,1,1,0,0,0-1,.24,1.07,1.07,0,0,0-.4,1,1.71,1.71,0,0,0,1.2,1.13c.62.23.91,1.21,1,1.56l.18,0c0,.64.07,1.3.13,1.84-.12-.32-.32-.55-.65-.53a.84.84,0,0,0-.42.15l-.7-.77a4,4,0,0,1,.19-.4,1.08,1.08,0,0,0,0-1,1.33,1.33,0,0,0-1.08-.69,1.13,1.13,0,0,0-1,.24.91.91,0,0,0-.21.3,2.48,2.48,0,0,1-.13-.32c-.16-.56-.52-1.2-1.05-1.2h0c-.41,0-.7.36-.87,1.06C60.08,48,62.54,50,63.84,50.92l-.06.06a.86.86,0,0,0-.2.72,4.61,4.61,0,0,1-1.2-1,1.64,1.64,0,0,0-1-1.43,1,1,0,0,0-1.25.5.8.8,0,0,0-.12.7,1.35,1.35,0,0,0,.22.42A1.29,1.29,0,0,0,59,50.62a.89.89,0,0,0-.79.57c-.19.58.42,1.28.62,1.5a.89.89,0,0,0-.35,1,1.06,1.06,0,0,0,1.11.65,10.8,10.8,0,0,1,2.5.58l-.21.09A1.35,1.35,0,0,0,61.3,56a1,1,0,0,0,.23.88,5,5,0,0,1-1-.21,1.07,1.07,0,0,1-.66-.53,1.16,1.16,0,0,0-1.12-.63.83.83,0,0,0-1,.65c-.1.59.49,1.39,1.8,1.78a18.78,18.78,0,0,0,2.06.5.73.73,0,0,0-.18.56.84.84,0,0,0,.06.22,3.37,3.37,0,0,1-1.86.23,1.61,1.61,0,0,0-1.74.44,1.24,1.24,0,0,0-.19,1.36.82.82,0,0,0,.62.48h.16a2.41,2.41,0,0,0,1.39-.7,1.86,1.86,0,0,1,.38,0,3.1,3.1,0,0,0,1.26,0,3.51,3.51,0,0,0,.79-.31,1.1,1.1,0,0,0-.35.92c.05.17.2.39.64.43a2.1,2.1,0,0,0,1.26-.29,33.59,33.59,0,0,0-4,5.12,46.74,46.74,0,0,0-3.76,6.4c-.14-1-.46-3.32-1.2-9A64.29,64.29,0,0,1,55.51,46a12.22,12.22,0,0,1,1.29-1.85c1-1.21,1.38-3.62,1.5-4.39.25-.55,4.1-2.59,8.2-4.52a4.52,4.52,0,0,0-.36.88,4.28,4.28,0,0,0,.44,3.58l.55.76,0-.94a4.22,4.22,0,0,1,1.36-2.25,3.05,3.05,0,0,0,.44-.62,1.14,1.14,0,0,0,.43.17,1.61,1.61,0,0,0,0,.73,1.87,1.87,0,0,0,1.2,1.34A1.13,1.13,0,0,0,71,39a.86.86,0,0,0,.49-.15,1.07,1.07,0,0,0,.31-.34,2.45,2.45,0,0,0,1.09.85,1.52,1.52,0,0,0,.65.15,2.48,2.48,0,0,0,1.79-1.15,2.21,2.21,0,0,0,.6.13H76a1.14,1.14,0,0,0,.86-.34,1.66,1.66,0,0,0,.36-1.21,2.85,2.85,0,0,0,1.16-.37,1.5,1.5,0,0,0,.88-1.15,2.43,2.43,0,0,0-.67-1.69.9.9,0,0,0,.46-.54c.2-.73-.56-1.68-.65-1.78l0,0-.1-.05a.92.92,0,0,0,.21-.75c-.16-.73-1.26-1-1.48-1.08l-.18,0-.06.06a.92.92,0,0,0-.44-.62c-.62-.33-1.56.11-1.94.32v-.69l-.14-.1c-.17-.12-1.08-.68-1.73-.4a.92.92,0,0,0-.53.74l0,.23a2.53,2.53,0,0,0-.78-.43l-.08,0a2,2,0,0,0-1.43.36.89.89,0,0,0-.27.71s0,.07,0,.1a2.14,2.14,0,0,0-1.4.55,1.87,1.87,0,0,0-.49,1.48,2.79,2.79,0,0,0-1.74-1c-1.12-.13-2.52.12-2.72.7a.48.48,0,0,0,.23.58l.46.32a17.34,17.34,0,0,0,1.89,1.23c-.68.28-1.53.65-2.57,1.14a26.16,26.16,0,0,0-5.92,3.86,9.2,9.2,0,0,1-.95.73c-.25-.52,0-3.75,5.25-12.13,5.47-8.68,13.87-11,20.63-12.83.91-.25,1.79-.49,2.64-.74a12.15,12.15,0,0,0,8.49-7.81,4.56,4.56,0,0,0,2.3-.62.41.41,0,0,0,.09-.54c-.47-.7-4.47.76-6.88,1.85-4,1.81-6,.69-6.05.68l-.07.12L81.34,6.3,79.9,5.15a5.45,5.45,0,0,0-4-1.48,2.5,2.5,0,0,0-1.24.55c-.53-.56-2-1.58-5.4-1.28-4.21.36-6.68,5.7-7.12,6.74a6,6,0,0,0-1.89,1,2.37,2.37,0,0,0-1.09,2.2,11.92,11.92,0,0,0-3.74,3.32,12.3,12.3,0,0,0-1.74-4.76c-1.36-2.26-2.53-2.57-3.06-2.57a16.41,16.41,0,0,0-3.44-3.85A7.38,7.38,0,0,0,41.5,3a27.23,27.23,0,0,0-3.82-1.39c-2.59-.8-3.67,0-4,.39a15.1,15.1,0,0,0-3.4-.35c-1.93,0-4.64,1-6.61,1.74a12.31,12.31,0,0,1-2,.67,9.05,9.05,0,0,1-3.48-1.63,1.56,1.56,0,0,1-.46-.93A2.29,2.29,0,0,0,17.06.21a.65.65,0,0,0-.89-.07c-.52.43-.52,1.86.72,4A25.86,25.86,0,0,0,21.37,9.33Zm29,8.82a8.85,8.85,0,0,0,.66-2.77,9.76,9.76,0,0,1-.22,2.13,37.8,37.8,0,0,0-.51,7.91c-.18-.39-.37-.8-.56-1.21l.13,0S49.31,20.58,50.39,18.15Zm-4.31-6.22a10.81,10.81,0,0,0,.27-1.18,27.77,27.77,0,0,1-.48,6.45c-.21-.28-.41-.56-.63-.83A30.63,30.63,0,0,1,46.08,11.93Zm-5.79-.43s0-1.63.11-4.25A19.13,19.13,0,0,1,40.87,12l-.6-.48Zm43.58,43a1.42,1.42,0,0,1,.84-.41h0a.82.82,0,0,1,.73.39.35.35,0,0,1-.08.4c-.2.23-.41.21-.87.1a2.22,2.22,0,0,0-.87-.08,5.11,5.11,0,0,0-.77.23A7.27,7.27,0,0,0,83.88,54.47Zm-.07-3.17.3-.39a.44.44,0,0,1,.29-.19h0c.08,0,.18.24.13.67-.08.63-.32.62-.73.6h-.26a.8.8,0,0,0-.43.15C83.4,51.85,83.62,51.56,83.81,51.3Zm-5.63-5.14c.08-.33.33-1.32.56-1.45h0l.09,0a.62.62,0,0,1,.41.4.11.11,0,0,1,0,.13l-.1.09a3.64,3.64,0,0,0-.89,1c-.06.13-.28.49-.54.93A4.66,4.66,0,0,0,78.18,46.16Zm-1.66-1.6a.24.24,0,0,1,.19-.12h.06a.42.42,0,0,1,.35.17.34.34,0,0,1,0,.37.67.67,0,0,1-.27.3.91.91,0,0,0-.34.32.9.9,0,0,0,0-.48A.7.7,0,0,1,76.52,44.56ZM65.29,45.81c-.53-.2-.75-.46-.78-.63a.43.43,0,0,1,.19-.38.4.4,0,0,1,.26-.12H65a1,1,0,0,1,.47.72,2.75,2.75,0,0,0,.22.66A1.56,1.56,0,0,0,65.29,45.81Zm2.22,36.83A15.35,15.35,0,0,0,71,89.37c-1.13-.84-2.92-3.39-4.23-8a14,14,0,0,0-4.38-6.89c.46-.08.93-.16,1.45-.23l0,0A24,24,0,0,1,67.51,82.65ZM79.87,90.3a5.78,5.78,0,0,1-1.32-1,6.73,6.73,0,0,1-2.23-3.76A9.81,9.81,0,0,0,79.87,90.3ZM75.69,83c-.78-3-3.45-7.46-4.37-8.94l.61,0a16.22,16.22,0,0,1,1.73.22A61.63,61.63,0,0,1,75.69,83Zm8.18.9a20.61,20.61,0,0,0,4,7.63,15,15,0,0,1-3.66-5.77c-1.15-3.55-2.57-7.15-3.06-8.37q.58.36,1.15.75C82.5,79,83,80.59,83.87,83.87Zm-1.65-6.24,0,0ZM99.47,89.25c-4.17-1.78-7.76-4.66-11.23-7.45-1.8-1.44-3.56-2.86-5.37-4.11,0-.16-.05-.21-.05-.23l-.23,0,0,0,.24-.1-.12-.29-.29.1a.24.24,0,0,0-.13.08A20.93,20.93,0,0,0,72,73.4c-1.21-.08-2.33-.12-3.39-.12A28.57,28.57,0,0,0,58,75c1.41-.75,12.2-6.12,22,.22,3.42,2.22,6.65,4.57,9.78,6.85,6.59,4.81,12.29,9,16.65,9.36a26.26,26.26,0,0,0,5.76,0C110.13,92,106.27,92.16,99.47,89.25ZM76.91,72.86l-.84-.31a15.42,15.42,0,0,1,8.55-3h0c-.37.05-.76.12-1.16.2C79.2,70.68,77.41,72.31,76.91,72.86Zm13.85-3.63.07.22h.23a13.53,13.53,0,0,1,6.76,2.61c3,2.34,3.58,7.15,3.58,7.2l0,.19.18.07a5.57,5.57,0,0,1,3.34,4.94,13.18,13.18,0,0,1-.24,2.29c-.37,2.11-.35,3,3.82,3.85.51.1,1,.18,1.39.23a29.49,29.49,0,0,1-3.41-.12c-4.18-.38-9.81-4.48-16.32-9.24-3.13-2.28-6.37-4.65-9.8-6.87a19.62,19.62,0,0,0-2.79-1.5c.62-.6,2.37-1.94,6.07-2.73,4.83-1,7.71.8,7.74.82l1.22.8-.76-1.25c-.09-.15-1.05-1.49-6.42-1.85a15.58,15.58,0,0,0-9.94,3.25l.21.26c-9.29-3-18.06,2-18.16,2.05l.32.55c-.3.13-.53.23-.71.33a34.09,34.09,0,0,1,2-4.27A36.93,36.93,0,0,1,64.34,64a4.56,4.56,0,0,0,.59-.7,1.61,1.61,0,0,0-.15-1.2,1.24,1.24,0,0,0,.28.21,1.08,1.08,0,0,0,.52.13,1.37,1.37,0,0,0,.54-.12,1,1,0,0,0,.48-.38,5.75,5.75,0,0,0,.67.46c-.46.42-.95,1-.82,1.45.05.18.21.41.67.45a2.62,2.62,0,0,0,2-.73,2.31,2.31,0,0,0,.31.53,14.25,14.25,0,0,1-1.13,3.16c-.76,1.34-1.31,2.31-.45,2.81a1.38,1.38,0,0,0,.69.2A1.06,1.06,0,0,0,69,70.1,1.17,1.17,0,0,0,69.58,69a6,6,0,0,1,.29-1.43,11.94,11.94,0,0,0,.41-1.91,5.28,5.28,0,0,1,.2-1.08,1.48,1.48,0,0,0,.48-.12c.49-.21.6-.51.61-.73a.72.72,0,0,0,0-.19,5.39,5.39,0,0,0,.8.58c-.46.42-1,1-.82,1.45a.66.66,0,0,0,.6.44,10.24,10.24,0,0,0,.48,3.21,4,4,0,0,1,.28,1.08c.1.62.21,1.32.86,1.42l.32,0a1,1,0,0,0,.83-.37,1.83,1.83,0,0,0-.15-1.87,7.06,7.06,0,0,0-.38-.65,5,5,0,0,1-.63-1.5,6.78,6.78,0,0,1-.35-1.54,3.27,3.27,0,0,0,.78-.52,1.79,1.79,0,0,0,.74.91,1.15,1.15,0,0,0,.55.14,1.47,1.47,0,0,0,.58-.13c.49-.21.6-.51.61-.73a1.17,1.17,0,0,0-.41-.82,1.61,1.61,0,0,0,.93-.31.85.85,0,0,0,.3-.71.78.78,0,0,0-.35-.64,1.88,1.88,0,0,0-1.26-.13,1.26,1.26,0,0,0,.13-.47,1.1,1.1,0,0,0,0-.37,2.81,2.81,0,0,0,1.56-.71,1.79,1.79,0,0,0,.74.91,1.15,1.15,0,0,0,.55.14h.11l-.16.11a8.65,8.65,0,0,0,1.45,1.63,8.81,8.81,0,0,0,2.15,1.2,1.43,1.43,0,0,0,1.18.82l.24,0A1.61,1.61,0,0,0,85,64.92a.91.91,0,0,0,0-.15,18.39,18.39,0,0,1,2.69,1A6,6,0,0,1,90.76,69.23ZM67.84,47.75c.07.6.86,1.17,1.38,1.48l-.18.17a4.37,4.37,0,0,0-1.43,1.07c0-.86,0-2.45,0-2.82,0-.13,0-.16,0-.17a2.2,2.2,0,0,0,.28-.23A.76.76,0,0,0,67.84,47.75Zm2.35.45a1.32,1.32,0,0,0-.22.4l-.18,0,.16.09a.72.72,0,0,0,0,.22c-.58-.3-1.4-.87-1.44-1.2,0,0,0-.06.07-.13C69.09,47.09,70.07,48.07,70.19,48.2Zm4.19,1.52a.53.53,0,0,1,0,.17l-.65-.14,0-.15a1.1,1.1,0,0,0,.27-.14l0,0A.56.56,0,0,1,74.38,49.72Zm3.82,1.88a.69.69,0,0,1,.46.35.52.52,0,0,1,0,.18L78.05,52l0-.25Zm-1,.21-.19,0,.18.09a.72.72,0,0,0,0,.22,6,6,0,0,1-.7-.43s0-.05,0-.07a1.16,1.16,0,0,0-.41-.82,2.45,2.45,0,0,0,.38-.06,3.21,3.21,0,0,1,1,.71A1.32,1.32,0,0,0,77.25,51.82Zm-.82,1.88h-.09a1.14,1.14,0,0,1,.17-.26.63.63,0,0,1,.13.27Zm-1.31-2.87a.82.82,0,0,0,0,.14,1.41,1.41,0,0,0,.44.76.58.58,0,0,1-.47,0,1.65,1.65,0,0,1-.58-1l0-.09.16,0,.15.08Zm-3.6-1.1a5.65,5.65,0,0,0,.7.5c-.11.1-.22.21-.33.33A2.05,2.05,0,0,1,71.52,49.73Zm-2,.32a.8.8,0,0,0,0-.22,5.71,5.71,0,0,1,.44-.4l.15-.12a1,1,0,0,0,.41.22l.32.08a2.33,2.33,0,0,1-1.57.85A1.31,1.31,0,0,0,69.54,50Zm3.33.52s-.05.07-.18.13l.17-.15Zm.77-.84,0,0,0,0Zm-1.56,1.69a1.12,1.12,0,0,0,.26,0,1.48,1.48,0,0,0,.58-.13c.49-.21.6-.51.61-.73a.69.69,0,0,0,0-.09l0,0,.32.08a2.24,2.24,0,0,1-1.74.86h-.09Zm1-2.31a4.06,4.06,0,0,1-1-.07.9.9,0,0,0,0-.21l.53-.14A3.89,3.89,0,0,1,73.11,49.11Zm-2.27-.37v0l-.08,0,0-.25.07-.07A.78.78,0,0,0,70.84,48.74Zm-.17,0h0v0Zm-2.11,2.43.17-.14a1,1,0,0,0,.34.09,2.6,2.6,0,0,0,2-.73,2.1,2.1,0,0,0,.46.7.78.78,0,0,0-.09.57c.05.18.21.41.67.45a2.6,2.6,0,0,0,2-.73,1.79,1.79,0,0,0,.74.91,1.14,1.14,0,0,0,.55.14,1.47,1.47,0,0,0,.58-.13,1.31,1.31,0,0,0,.21-.12l.39.25-.07.07a1,1,0,0,0-.83-.08,1.84,1.84,0,0,0-.85,1.29c-.54-.45-1.43-1-2.16-.36a.78.78,0,0,0-.3.71c.07.6.86,1.17,1.38,1.48a3.86,3.86,0,0,0-.63.71h0a1.84,1.84,0,0,0-.84,1.28l-.07-.06a1.23,1.23,0,0,0-.4-.74,1.61,1.61,0,0,0,.94-.31.85.85,0,0,0,.3-.71.78.78,0,0,0-.35-.64A1.89,1.89,0,0,0,71.34,55a1.28,1.28,0,0,0,.13-.47,1.26,1.26,0,0,0-.42-1,.42.42,0,0,0,.31-.32c.12-.64-1.81-1.38-3-1.76l-.13,0ZM79.11,61.66a.62.62,0,0,1-.56,0,1.65,1.65,0,0,1-.58-1l0-.09.16,0,.15.08c.55.3,1.06.74,1.05.92C79.32,61.53,79.27,61.59,79.11,61.66Zm-6,5.92a5.51,5.51,0,0,0,.7,1.66,6.55,6.55,0,0,1,.35.6c.3.59.32,1,.21,1.18s-.36.11-.5.08-.24-.37-.32-.88A4.58,4.58,0,0,0,73.19,69a8.46,8.46,0,0,1-.4-2.55A10.57,10.57,0,0,0,73.1,67.58Zm-.83-2.19h-.09a3.67,3.67,0,0,1,1-1l.15-.12a1,1,0,0,0,.41.23l.32.08A2.28,2.28,0,0,1,72.26,65.39Zm-2.67.37a12.89,12.89,0,0,1-.37,1.65A6.18,6.18,0,0,0,68.92,69a.52.52,0,0,1-.21.49.57.57,0,0,1-.57-.05c-.28-.16.08-.83.71-1.93A10.38,10.38,0,0,0,69.6,65.76ZM63.83,55h0l-.08,0v-.07ZM64,53.13c.08-.09.13-.12.17-.12a.16.16,0,0,1,.08,0,.92.92,0,0,1,.37.86,1,1,0,0,1-.42.52C64,54.1,63.74,53.5,64,53.13Zm2.42,1.34a.76.76,0,0,0,0,.25l-.28,0A1.36,1.36,0,0,0,66.46,54.47Zm1.42,0a3.39,3.39,0,0,1,.91.68,1.33,1.33,0,0,0-.22.4l-.19,0,.17.09a.72.72,0,0,0,0,.22,6,6,0,0,1-.79-.49.77.77,0,0,0-.14-.24l0,0A1,1,0,0,0,67.88,54.52ZM73,57.24a.82.82,0,0,0,.53.23,2.06,2.06,0,0,0,.5,0,.5.5,0,0,1,.06.21,1.11,1.11,0,0,1-.44.67,1.66,1.66,0,0,0-.86-.44A3,3,0,0,1,73,57.24Zm2.13-2.16h0v0Zm-.71-.15-.19,0,.17.09a.73.73,0,0,0,0,.22c-.58-.3-1.4-.87-1.44-1.2,0,0,0-.06.07-.13.53-.45,1.5.53,1.62.66A1.32,1.32,0,0,0,74.43,54.93Zm0,.84.15-.12a1,1,0,0,0,.41.22l.32.08a2.75,2.75,0,0,1-1,.75,2.14,2.14,0,0,0-.18-.17,1.66,1.66,0,0,0-.3-.19A5.68,5.68,0,0,1,74.47,55.77Zm2.64,3.91h0Zm-.68-.14-.18,0,.17.09a.73.73,0,0,0,0,.22l-.4-.23a.84.84,0,0,0,.25-.64.82.82,0,0,0-.06-.22,4.24,4.24,0,0,1,.47.41A1.33,1.33,0,0,0,76.43,59.54Zm-.74.64-.32.32A1.5,1.5,0,0,0,75,60l.27,0Zm-.36,2.21a1.12,1.12,0,0,1-.44.67,1.66,1.66,0,0,0-.86-.44c.09-.43.27-.89.49-1s.29,0,.42.14a.57.57,0,0,0,.14.14A.67.67,0,0,1,75.32,62.39Zm-3-.67a.75.75,0,0,0-.3-.44.93.93,0,0,0-.19-.08,3.1,3.1,0,0,0,1.08-.62,1.79,1.79,0,0,0,.74.91l.06,0a2.92,2.92,0,0,0-.32.79A2.66,2.66,0,0,0,72.33,61.72Zm-3.66.16,0,0h0Zm.13,0,0-.25.13-.14a.69.69,0,0,1,.46.35.55.55,0,0,1,0,.17Zm1-.62a1.66,1.66,0,0,0-.86-.44c.09-.43.27-.89.49-1s.32.06.45.16a.75.75,0,0,1,.37.6A1.11,1.11,0,0,1,69.81,61.3Zm-.63-2a1.84,1.84,0,0,0-.85,1.29,2.93,2.93,0,0,0-.9-.54s0,0,0-.07a.74.74,0,0,0-.33-.61A1.68,1.68,0,0,0,66,59.2a1.18,1.18,0,0,0,.1-.4,1.27,1.27,0,0,0-.57-1.09,1.24,1.24,0,0,0-.64-.29.73.73,0,0,0,.07-.14,1.06,1.06,0,0,0-.11-.81.7.7,0,0,0,.64-.29.54.54,0,0,0,0-.48,2.72,2.72,0,0,0,1.54.8l.18,0a.74.74,0,0,0,.48-.35l.17.11c-.46.42-.95,1-.82,1.44.05.18.21.41.67.45a2.62,2.62,0,0,0,2-.73c0,.08.07.15.11.23a.79.79,0,0,0,0,.29c.07.6.86,1.17,1.38,1.48a4.63,4.63,0,0,0-.46.48,1.92,1.92,0,0,0-.36-.38A1.07,1.07,0,0,0,69.18,59.27Zm-3.82.9a.9.9,0,0,0,0-.15,2.4,2.4,0,0,1,1.39-.14.08.08,0,0,1,0,.05,1.12,1.12,0,0,0-.61.26l0,0A4,4,0,0,1,65.36,60.17Zm-.3-.84a1.56,1.56,0,0,0-.76-.39c.09-.38.24-.78.43-.86s.27.05.38.14a.67.67,0,0,1,.32.52A1,1,0,0,1,65.06,59.33Zm-.29-3.52h-.22a.4.4,0,0,1-.22-.06.45.45,0,0,1-.08-.27.24.24,0,0,1,.12,0,.45.45,0,0,1,.31.22Zm4.47-.09v0h0Zm.28-.34a.69.69,0,0,1,.46.35.53.53,0,0,1,0,.18l-.65-.14,0-.25Zm-.92,1.05.15-.12a1,1,0,0,0,.41.22l.32.08a2.25,2.25,0,0,1-1.74.86h-.09A3.68,3.68,0,0,1,68.6,56.43Zm3.92,2.47v0h0Zm.28-.34a.69.69,0,0,1,.46.35.52.52,0,0,1,0,.17l-.65-.14,0-.25Zm1.54.34a1.47,1.47,0,0,0,.24.39,4.45,4.45,0,0,1-.63-.07A.9.9,0,0,0,74,59Zm1.17,0s.05,0,.05.12a.19.19,0,0,1-.07.18l-.09,0a2,2,0,0,1-.39-.4A.88.88,0,0,1,75.53,58.86Zm-2,.89.15.08c.55.3,1.06.74,1.05.92,0,0-.05.08-.21.15a.62.62,0,0,1-.56,0,1.65,1.65,0,0,1-.58-1l0-.1Zm-1.66-.13L72,59.5a1,1,0,0,0,.41.22l.33.08a2.21,2.21,0,0,1-1.74.86h-.09A3.67,3.67,0,0,1,71.89,59.61Zm1.86,4,0,0h0Zm.13,0,0-.25L74,63.3a.69.69,0,0,1,.46.35.53.53,0,0,1,0,.17Zm-1.81-5.3a1.32,1.32,0,0,0-.22.4l-.17,0,.16.09a.72.72,0,0,0,0,.22,5.91,5.91,0,0,1-.94-.61h.05a1.48,1.48,0,0,0,.58-.13,1.33,1.33,0,0,0,.31-.18Zm-1.38-.64a.67.67,0,0,1-.1-.09.79.79,0,0,1,.62.08A.61.61,0,0,1,70.7,57.73Zm-.47-.66a2.51,2.51,0,0,1-.11-.37l0-.09.16,0,.15.08a4.17,4.17,0,0,1,.47.3A1.14,1.14,0,0,0,70.23,57.08Zm.44-1a.9.9,0,0,0,0-.21,2.66,2.66,0,0,1,1.56-.16s.05,0,.05.12a.19.19,0,0,1-.06.17A2.48,2.48,0,0,1,70.67,56Zm-.3-.9a1.66,1.66,0,0,0-.86-.44c.09-.43.27-.89.49-1s.32.06.45.16a.75.75,0,0,1,.37.6A1.11,1.11,0,0,1,70.37,55.14Zm-3.26.58c0,.08-.06.1-.08.11a1.74,1.74,0,0,1-1-.48,3.32,3.32,0,0,1,.75.09A3.14,3.14,0,0,0,67.11,55.73Zm-1.87-1.39c.12-.28.28-.53.43-.58h0a.36.36,0,0,1,.21.11A1.39,1.39,0,0,1,66,54,1.62,1.62,0,0,1,65.24,54.34Zm-1,5.28a.6.6,0,0,1,.39.3.52.52,0,0,1,0,.12l-.53-.11,0-.2ZM65,60.71l.12.07c.52.28,1,.69,1,.82s0,.05-.18.12a.55.55,0,0,1-.49,0,1.51,1.51,0,0,1-.52-.92v-.06Zm1.58.15a1.31,1.31,0,0,0,.61-.24,3,3,0,0,1,1.08.74,1.33,1.33,0,0,0-.22.4l-.18,0,.17.09A.73.73,0,0,0,68,62C67.4,61.74,66.62,61.19,66.54,60.85ZM68,62.59l.15-.12a1,1,0,0,0,.41.23l.32.08a2.24,2.24,0,0,1-1.74.85h-.09A3.65,3.65,0,0,1,68,62.59Zm2.13,1.31-.06-.06h0a1.72,1.72,0,0,1-.54-1l0-.09.16,0,.15.08c.55.3,1.06.74,1.05.92,0,0-.05.08-.21.15A.63.63,0,0,1,70.17,63.9Zm-.06-1.7a.9.9,0,0,0,0-.21,3.6,3.6,0,0,1,1.41-.21,1.16,1.16,0,0,0-.27.17.85.85,0,0,0-.24.33A4.36,4.36,0,0,1,70.11,62.2Zm2,.43a.83.83,0,0,0,.18-.24,3.05,3.05,0,0,1,1,.73,1.32,1.32,0,0,0-.22.4l-.19,0,.18.1a.73.73,0,0,0,0,.22,4.6,4.6,0,0,1-1.32-1A1.14,1.14,0,0,0,72.09,62.63Zm2.69,1.85.15.08c.55.29,1.06.74,1.05.92,0,0,0,.07-.21.15a.62.62,0,0,1-.56,0,1.65,1.65,0,0,1-.58-1l0-.09Zm.41-.53a.9.9,0,0,0,0-.21,2.66,2.66,0,0,1,1.56-.16s.05,0,.05.12a.19.19,0,0,1-.07.18A2.49,2.49,0,0,1,75.18,64Zm.42-2.54h-.09a3.67,3.67,0,0,1,1-1l.15-.12a1,1,0,0,0,.41.22l.32.08A2.24,2.24,0,0,1,75.6,61.42Zm2.27-1.57-.65-.14,0-.25.13-.14a.69.69,0,0,1,.46.35A.54.54,0,0,1,77.88,59.85Zm-1.12-1.51c-.76-.64-1.49-.8-2-.45a1.13,1.13,0,0,0,0-.19,1.1,1.1,0,0,0-.07-.43,3.25,3.25,0,0,0,.81-.53,1.79,1.79,0,0,0,.74.91,1.15,1.15,0,0,0,.55.14l.17,0A3.35,3.35,0,0,0,76.76,58.34Zm.36-1.29a.62.62,0,0,1-.56,0A1.65,1.65,0,0,1,76,56L76,56l.16,0,.15.08c.55.29,1.06.74,1.05.92C77.33,56.92,77.29,57,77.12,57.05Zm-1.24-1.81-.65-.14,0-.25.12-.14a.69.69,0,0,1,.46.35A.54.54,0,0,1,75.88,55.24Zm-7-.85a2.9,2.9,0,0,0-.92-.55c0-.22,0-.47,0-.77l.15.06a8,8,0,0,0,1.15.34A2.64,2.64,0,0,0,68.9,54.39Zm-3.42-1.26a.88.88,0,0,0-.24.12,1.51,1.51,0,0,0-.55-.73,6.19,6.19,0,0,0,1.26.17,2.29,2.29,0,0,1,.16.52A.82.82,0,0,0,65.47,53.13Zm-2.32,1.08a2.88,2.88,0,0,1-.58-.79.29.29,0,0,1,.11,0h.07a.27.27,0,0,1,.22.09A1.2,1.2,0,0,1,63.15,54.22Zm1,2.33a.86.86,0,0,1,.21.52s-.1.08-.29.11l-.2,0A1.64,1.64,0,0,1,64.12,56.55Zm17.56,7.39a3.07,3.07,0,0,0,2,.57.87.87,0,0,1,.55.08.19.19,0,0,1,.12.22,1,1,0,0,1-.72.66c-.48.1-.73-.51-.74-.54l-.06-.13-.13,0a8.65,8.65,0,0,1-2.08-1.13,7.94,7.94,0,0,1-1.23-1.36l.09,0A11.08,11.08,0,0,0,81.68,63.94Zm2.54-4.09a1.83,1.83,0,0,1,1.15-.41.25.25,0,0,1,.17.13c.1.17.09.26.08.29s-.16.13-.52.11a2.18,2.18,0,0,0-.85.15,4.4,4.4,0,0,1-1.62.25A3.52,3.52,0,0,1,80.83,60,6.46,6.46,0,0,0,84.22,59.85Zm-4.13-.23s.05,0,.05.12a.19.19,0,0,1-.07.18,2.48,2.48,0,0,1-1.56.07.89.89,0,0,0,0-.21A2.65,2.65,0,0,1,80.09,59.62Zm-1.79-1.8a.75.75,0,0,1,.36.6,1.12,1.12,0,0,1-.44.67,1.66,1.66,0,0,0-.86-.44c.09-.43.27-.89.49-1S78.17,57.72,78.3,57.82ZM78.18,56l.07,0,.34.14Zm4.69.68c.25-.1.3-.12.48,0,.51.3.7.57.7.68s-.06.1-.11.13c-.37.25-1.46-.23-1.82-.39L81.93,57l-.28-.09A2.69,2.69,0,0,0,82.87,56.66Zm-1.38-1-.88.39-.3-.08C80.68,55.9,81.08,55.81,81.49,55.68ZM78.1,55s.05,0,.05.12a.19.19,0,0,1-.07.18,2.49,2.49,0,0,1-1.56.07.89.89,0,0,0,0-.21A2.66,2.66,0,0,1,78.1,55Zm-1.87-.53a1.66,1.66,0,0,0-.86-.44c.09-.43.27-.89.49-1H76a1,1,0,0,0-.28.86c.05.18.21.41.67.45h0Zm1.07-1a1.34,1.34,0,0,0-.33-.59l.32-.28.15-.12a1,1,0,0,0,.41.22l.32.08A2.88,2.88,0,0,1,77.3,53.52Zm2.64.42a.62.62,0,0,1-.56,0,1.65,1.65,0,0,1-.58-1l0-.1.16,0,.15.08c.55.29,1.06.74,1.05.92C80.15,53.8,80.11,53.87,79.94,53.94Zm1-2s.05,0,.05.12a.19.19,0,0,1-.07.18,2.49,2.49,0,0,1-1.56.07.9.9,0,0,0,0-.21A2.65,2.65,0,0,1,80.92,51.9Zm-2.24-2c.14-.06.32.06.45.16a.76.76,0,0,1,.37.6,1.11,1.11,0,0,1-.44.67,1.66,1.66,0,0,0-.86-.44C78.28,50.5,78.46,50,78.68,49.94Zm-3,.17a4.48,4.48,0,0,1-.58-.07.9.9,0,0,0,0-.21,2.67,2.67,0,0,1,1.56-.16s.05,0,.05.12a.19.19,0,0,1-.07.18.6.6,0,0,1-.14.06A1.21,1.21,0,0,0,75.65,50.11Zm1-1.11-.2,0a10.27,10.27,0,0,0,1-1.36Zm-.74,0-.2,0a1.43,1.43,0,0,0,0-.18ZM74.4,47.71c.13-.05.32.06.45.16a.75.75,0,0,1,.36.6,1.12,1.12,0,0,1-.44.67,1.4,1.4,0,0,0-.43-.3s0,0,0-.07a.77.77,0,0,0-.29-.58A.86.86,0,0,1,74.4,47.71ZM73.87,44a.57.57,0,0,1,.22-.63s.06,0,.08,0c.31.4.33.62.32.71a.31.31,0,0,1-.14.21c-.56.42-1.28,2.93-1.49,3.69h-.12a1.26,1.26,0,0,0,.13-.47,1.13,1.13,0,0,0-.13-.6L73,47A7.85,7.85,0,0,0,73.87,44Zm-2,2.9a.75.75,0,0,1,.37.6.66.66,0,0,1-.1.29,1.18,1.18,0,0,0-.72.1,1.82,1.82,0,0,0-.48-.16c.09-.43.27-.89.49-1S71.71,46.78,71.84,46.88Zm-1.2-3.63a.13.13,0,0,1,.12-.07h.06a.58.58,0,0,1,.47.18.15.15,0,0,1,0,.13,1.63,1.63,0,0,1-.43.56l-.12.11,0,.42-.06-.17A1.54,1.54,0,0,1,70.65,43.25Zm-2,3.53a1.11,1.11,0,0,0-.55.25,1.64,1.64,0,0,0,.33-.79Zm-1.15-3.34a.65.65,0,0,1,.29-.21c0,.1,0,.2,0,.31a5.54,5.54,0,0,0,.28,1.71l.08.25a1,1,0,0,0-.46-.18L68,45.2s-.28-.65-.55-1.4A.36.36,0,0,1,67.54,43.45Zm-.4,2.63c.06-.09.11-.1.13-.1l.25,0c.17,0,.27,0,.29.08a.8.8,0,0,1-.23.65,1.21,1.21,0,0,1-.28.25.71.71,0,0,0-.33.71c0,.25,0,1.05,0,1.81C66.82,48.09,66.79,46.56,67.14,46.08Zm-.19,4.78c0,.11,0,.17,0,.17H67l-.17.16-.2.19c0-.13-.06-.3-.09-.46Zm-5.91-4a1.2,1.2,0,0,1,.24-.56,1.18,1.18,0,0,1,.42.72,7.54,7.54,0,0,0,1.49,2.38l.43.54C62.22,48.82,60.88,47.48,61,46.85Zm1.69.8H63a.44.44,0,0,1,.11-.3.55.55,0,0,1,.42-.07.72.72,0,0,1,.58.33.46.46,0,0,1,0,.35c-.25.48-.4.81-.19,1.05l1,1.1a1.94,1.94,0,0,0,.08.39,4.72,4.72,0,0,1-.9-.94L63.71,49A15,15,0,0,1,62.74,47.65Zm1.74,3.72.16-.23a.43.43,0,0,1,.19,0l.14.07v0l.26.13c.14.08.35.21.55,0a.44.44,0,0,0,.08-.52l-.06-.17a2.11,2.11,0,0,1-.18-.69.08.08,0,0,0,0,0,3.05,3.05,0,0,1,.24.95c.1.64.18,1.14.55,1.27A.54.54,0,0,0,67,52l.3-.29.21-.2a.51.51,0,0,0,0,.08c.05.32.38.46.65.56a15.53,15.53,0,0,1,2.07.85,6.15,6.15,0,0,1-1.86-.43c-.36-.13-.61-.23-.84-.08a.51.51,0,0,0-.2.45c0,.37,0,.65,0,.88a1.1,1.1,0,0,0-.35.11c-.07-.22-.13-.46-.18-.68C66.66,52.63,66.52,52,66,52h0c-.46,0-1.6-.17-1.74-.45,0,0,0-.13.08-.2a.78.78,0,0,1,.08-.08Zm-3.79-1.25c.16-.23.3-.28.39-.28l.1,0a1,1,0,0,1,.55.76c0,.35.41.82,1,1.27-1-.56-1.93-1.2-2-1.64A.15.15,0,0,1,60.68,50.12Zm2.21,2.63a1.22,1.22,0,0,0-.29,0,.83.83,0,0,0-.42.15,4.79,4.79,0,0,1-1.47-1,1.46,1.46,0,0,1-.12-.35,1.76,1.76,0,0,0-.27-.63A8.84,8.84,0,0,0,62.89,52.75Zm-.7,1.31.11.17-.14,0Zm-2.56-.43c-.31,0-.45-.1-.48-.18a.34.34,0,0,1,.28-.32c.08,0,.16.07.34.25l.12.11a1.3,1.3,0,0,0,.34.2A4,4,0,0,0,59.63,53.63Zm.61-.72a1,1,0,0,0-1.13-.37l.27-.27c-.28-.28-.56-.72-.51-.88s.1-.09.27-.12c.64-.11.69.06.8.49a1.92,1.92,0,0,0,.19.52A5.25,5.25,0,0,0,62,53.53h0A8,8,0,0,1,60.34,53Zm2.24,1.55.26.29a1.9,1.9,0,0,0-.38,0ZM62,56.09a.71.71,0,0,1,.31-.57.92.92,0,0,1,.47-.11,2,2,0,0,1,.4,0,1.73,1.73,0,0,1-.84.91c-.18.08-.29.07-.31.06S61.93,56.32,62,56.09Zm1.71-.22,0,.1a3,3,0,0,0-.49,1h-.64A2.39,2.39,0,0,0,63.67,55.87Zm-5.28.4c0-.07.16-.09.3-.09.39,0,.45.1.59.32a1.7,1.7,0,0,0,1,.8,9.88,9.88,0,0,0,3,.31h0a.71.71,0,0,0,.6.24h.14a2.42,2.42,0,0,0-.37.8,2.24,2.24,0,0,0-1.12-.55v-.16a15.63,15.63,0,0,1-2.85-.6C58.71,57,58.36,56.46,58.39,56.28Zm3.69,2.66s0,0,.06-.1c.45-.39,1.29.44,1.43.59a1.25,1.25,0,0,0-.19.33l-.32-.07.3.16a.71.71,0,0,0,0,.14,5.27,5.27,0,0,1-.8-.51l-.29-.57L62.1,59A.29.29,0,0,1,62.08,58.93Zm-.74,1.52a2.46,2.46,0,0,1-1,0c-.35-.06-.67-.11-.9.12s-.74.58-1,.53c0,0-.08,0-.14-.12a.58.58,0,0,1,.1-.64,1,1,0,0,1,1-.24,4.2,4.2,0,0,0,2.46-.31,3.67,3.67,0,0,0,.34.29A3.14,3.14,0,0,1,61.34,60.45Zm1.26,1a3.68,3.68,0,0,1,.85-.9l.12-.09a1,1,0,0,0,.37.2,2.19,2.19,0,0,0,.27,0,2,2,0,0,1-1.55.76Zm5.71-28.39.08,0h.15a2.35,2.35,0,0,0,1.8-1.22,1.14,1.14,0,0,0,.06-.4h0a1,1,0,0,0,.08.55h0a1,1,0,0,0-.54.34,1.12,1.12,0,0,0-.2.57h-.16a1.14,1.14,0,0,0-.78.43l-.08-.14-.26.09-.22.1Zm3.56,3.74-.06-.08h.1Zm-1.35-4a.6.6,0,0,1,.49-.16h.06a2,2,0,0,0,1,.27h.05l.12,0a7.85,7.85,0,0,1,.74.27,1.84,1.84,0,0,1,0,.63s0,0,0,.07,0,0,0,0v0a3.06,3.06,0,0,0-1.84.17L71.09,34s0-.06,0-.07v-.12L71,33.72a2.5,2.5,0,0,0-.56-.51A.5.5,0,0,1,70.52,32.79Zm5,2.08a7.06,7.06,0,0,1-.36.75.91.91,0,0,0-.89.57,1.77,1.77,0,0,0-.08.33h0c-.12-.14,0-.75.12-1.24a1.48,1.48,0,0,0,.55-.13,2.42,2.42,0,0,0,.52-.33ZM71,35.78c-.09-.15,0-.44.17-.85a.56.56,0,0,1,.07-.09,2.65,2.65,0,0,0,1,.19h.17a1.44,1.44,0,0,0,.86-.32,1.3,1.3,0,0,0,.08.14,1.19,1.19,0,0,0,.13.1,1.47,1.47,0,0,1-.28.87,1,1,0,0,1-.78.3C71.37,36.11,71.09,35.9,71,35.78Zm3.81-3.46a.39.39,0,0,1,.07-.16.49.49,0,0,1,.41-.2,1.52,1.52,0,0,1,.71.24,2.66,2.66,0,0,1-.07.85A3.66,3.66,0,0,0,74.83,32.32Zm-.53,1.73a1,1,0,0,0-.23.14v0l-.19-.06L73.69,34a.54.54,0,0,1,0-.07v-.1a2,2,0,0,1,.64-.93,2.09,2.09,0,0,0,1.08.79,2.25,2.25,0,0,1-.24.3A1.44,1.44,0,0,0,74.3,34.05ZM74.14,32a1.43,1.43,0,0,1-1.22.39,1.93,1.93,0,0,0,.12-.79,3.83,3.83,0,0,1,1-.49c.14.08.33.24.36.39S74.27,31.85,74.14,32ZM76,34.41l-.19-.11a1.85,1.85,0,0,0,.29-.5.65.65,0,0,0,.24-.15.8.8,0,0,0,.13-.17.77.77,0,0,0,.08.15l0,0A2.42,2.42,0,0,0,76,34.41Zm.67-2c0-.06,0-.12,0-.17h.12l0,.06S76.71,32.36,76.69,32.4Zm-4.46-1.78a5.5,5.5,0,0,1,.13.69,1.44,1.44,0,0,0-.3.44,1,1,0,0,0-.07.36,4.5,4.5,0,0,0-.7-.12.66.66,0,0,1-.16-.2.44.44,0,0,1,.11-.47,1.73,1.73,0,0,0,.53-.46A2.38,2.38,0,0,1,72.23,30.62Zm-3.87,3.75-.07-.16.15-.09C68.41,34.21,68.38,34.29,68.36,34.37ZM66.78,38.6a3.94,3.94,0,0,1,0-2.29,3.72,3.72,0,0,1,.93-1.62l.47-.21.05.12v-.15l.11-.05a2.37,2.37,0,0,0,.15,1.73,2.39,2.39,0,0,1-.45.69A6.94,6.94,0,0,0,66.78,38.6Zm2.92-2.42a.53.53,0,0,1-.47-.16,3.35,3.35,0,0,0-.06-1.91s0-.06,0-.09c.14-.25.3-.38.47-.4h0a.58.58,0,0,1,.23.06s0,.06,0,.09a2.22,2.22,0,0,0,.44.54A4.13,4.13,0,0,1,70,35.88a1,1,0,0,0-.19.15s-.07.09-.11.14Zm1.4,2.09s-.1.07-.28,0a1.21,1.21,0,0,1-.79-.86,1,1,0,0,1,.12-.72,1.2,1.2,0,0,0,.31-.29h.05c.29,0,.69.58.91,1C71.41,37.65,71.31,38.13,71.11,38.27Zm2,.46c-.51-.24-.81-.5-.89-.78a1.17,1.17,0,0,1,.26-.93.19.19,0,0,1,.15-.09h.09a3.94,3.94,0,0,1,1.67.77,1.63,1.63,0,0,0,.3.32C74.41,38.42,73.81,39,73.15,38.73Zm3.24-1.06a.5.5,0,0,1-.44.13,1.65,1.65,0,0,1-.35-.06l-.16-.13c-.06,0-.25-.19-.51-.38a.9.9,0,0,1-.08-.23,2.51,2.51,0,0,0,.64-.69,2.3,2.3,0,0,1,.69.25l0,0a1.27,1.27,0,0,0,.27.18.59.59,0,0,1,.1.1h0v0A1.07,1.07,0,0,1,76.39,37.67ZM78.08,36a1.56,1.56,0,0,1-1.27.23L76.6,36a1.18,1.18,0,0,1-.08-1.18,1.76,1.76,0,0,1,.8-.91l.11,0a2.51,2.51,0,0,0,.49-.05,2.15,2.15,0,0,1,.7,1.39A.87.87,0,0,1,78.08,36Zm.34-3s0,.12-.22.18l-.09,0,0,0-.11-.1-.15,0a2.57,2.57,0,0,0-.64.2.22.22,0,0,1-.1-.05s0-.21.21-.59a2.11,2.11,0,0,1,.68-.74C78.22,32.23,78.49,32.73,78.42,33ZM77,30.14c.35.12.77.33.81.53s-.11.3-.37.5c-.59.46-1,.47-1.1.35a.38.38,0,0,1,0-.46l.05-.08a1.29,1.29,0,0,0,.26-.37C76.79,30.42,76.92,30.25,77,30.14Zm-1-.72c.09,0,.14.17.14.37a1.13,1.13,0,0,1-.08.48l-.17.25a.67.67,0,0,1-.18.12.92.92,0,0,1-.8,0,1.7,1.7,0,0,1-.18-.88C75.14,29.5,75.74,29.29,76,29.43Zm-3.45-.28.06-.31c0-.2.12-.24.14-.25l.14,0a2,2,0,0,1,.82.28l0,1.33a.86.86,0,0,1-.82,0l-.13,0v0l-.08-.26-.23,0A2.26,2.26,0,0,1,72.54,29.15Zm-2.47.2a1.28,1.28,0,0,1,.77-.19h.11a1.44,1.44,0,0,1,.6.37,1.49,1.49,0,0,1-.26.84,3.1,3.1,0,0,0-.47.4l-.15.06c-.23.06-.33,0-.35,0s0-.05-.05-.08a5.11,5.11,0,0,0-.2-.52,5.36,5.36,0,0,1-.06-.65A.23.23,0,0,1,70.07,29.35ZM68.42,30.7a1.52,1.52,0,0,1,1-.37l.05.12a1.85,1.85,0,0,0,.22.58,1.18,1.18,0,0,1,.06.63,1.73,1.73,0,0,1-1.24.78c-.21,0-.33-.26-.36-.69A1.28,1.28,0,0,1,68.42,30.7Zm-4.34,1.06-.3-.22a4,4,0,0,1,1.87-.19,2.72,2.72,0,0,1,1.81,1.47c-.26.08-.6.2-1,.37A12.39,12.39,0,0,1,64.08,31.77Zm-3.74-9.44a15.49,15.49,0,0,0,.19,4.87h0l-.2.33A13.38,13.38,0,0,1,60.34,22.32Zm5.9-5.71a14.67,14.67,0,0,0-.68,4.55h.06l-.08.07A14.94,14.94,0,0,1,66.24,16.61Zm7-.12a10.26,10.26,0,0,1,2.18-4.22,27.2,27.2,0,0,0-1.64,4ZM84.48,8.14A10.9,10.9,0,0,0,88.93,7a35.41,35.41,0,0,1,3.5-1.38A5.51,5.51,0,0,1,88.34,9.2a6.13,6.13,0,0,1-4.61-1.11A6.33,6.33,0,0,0,84.48,8.14ZM59.69,13.4l.27-.12L59.87,13a1.66,1.66,0,0,1,.8-1.75,4.62,4.62,0,0,1,1.77-1l.2,0,.07-.19c0-.06,2.47-6.13,6.63-6.49.4,0,.78-.05,1.12-.05,3.14,0,3.89,1.31,3.9,1.32l.25.49.32-.45A1.72,1.72,0,0,1,76,4.33a4.93,4.93,0,0,1,3.47,1.35l1.44,1.14c2.7,2.17,4.33,3.47,7.5,3a5.14,5.14,0,0,0,2.13-.79,12.18,12.18,0,0,1-6.09,3.87c-.84.25-1.72.49-2.63.74a75.87,75.87,0,0,0-7.29,2.28,34.61,34.61,0,0,1,1.59-3.71A8,8,0,0,1,79.7,8.69a2.45,2.45,0,0,0,.63-.43.39.39,0,0,0,0-.56c-.6-.56-3.57,2.22-4.47,3.08a10.73,10.73,0,0,0-3.4,6,28.14,28.14,0,0,0-6.26,3.85,26,26,0,0,1,1.56-6.89,13.2,13.2,0,0,1,5-7,3.44,3.44,0,0,0,.47-.38A.39.39,0,0,0,73.34,6l-.1-.2H73c-.53-.05-3,1.77-5.52,6.27-3,5.33-2.64,9.4-2.62,9.57l.25,0a25.35,25.35,0,0,0-4.08,4.85,23.67,23.67,0,0,1,0-5,40,40,0,0,1,2.06-8.61,10,10,0,0,0,.34-1.1l0-.4-.31-.06h0c-.82,0-2.22,4.75-3,8.18-1.37,6.32-.36,8.49-.32,8.58l.27-.13a47.23,47.23,0,0,0-3.92,7.63c.37-1.65.51-2.27.51-2.27l0-.19-.14-.13c-.05,0-5.16-4.8-3.22-11.15S59.65,13.42,59.69,13.4ZM43.93,33.53h0a3,3,0,0,1,1.16.22l-.1.05c-.32.18-.79.43-1.24.63l-.32-.06,0,.2a1.81,1.81,0,0,1-.51.11.49.49,0,0,1-.43-.14A2,2,0,0,1,43.93,33.53ZM37.25,36a.76.76,0,0,0-.54-.38c-.05-.13-.1-.28-.15-.43a1.83,1.83,0,0,0,.31.24,1.2,1.2,0,0,0,.36.14A3.69,3.69,0,0,1,37.25,36Zm-.88-2.81c.19-.08.53-.18.67,0v0a2.88,2.88,0,0,0-.71.34A2.28,2.28,0,0,1,36.37,33.22Zm2.06.23a1,1,0,0,1-.68-.37c-.14-.15-.18-.26-.17-.3s.12-.14.21-.18a2.68,2.68,0,0,1,.63.4A1.64,1.64,0,0,0,38.43,33.45ZM36,34.36v0l0,0Zm1.75.27h-.08l-.11,0-.13-.09a1.11,1.11,0,0,0-.66-.1l-.06-.09a1.66,1.66,0,0,0,.75-.41,1.24,1.24,0,0,1,.3.62S37.75,34.62,37.76,34.63ZM38.12,36a1,1,0,0,1-.11-.56l.07,0,0,0a1.2,1.2,0,0,0,.58.26,1.92,1.92,0,0,0,.82,0h0c.14.4.08.52.06.55s-.2.18-1,.09A.62.62,0,0,1,38.12,36Zm1.7-2.76a.34.34,0,0,1-.09.09h-.4a.83.83,0,0,0,0-.19,1.11,1.11,0,0,0-.17-.35c0-.11.06-.23.11-.35l.22.15a1.34,1.34,0,0,0,.34.37A.23.23,0,0,1,39.82,33.23Zm-.08,1.41-.08.08v.11a2.36,2.36,0,0,0-1.23-.26,1.19,1.19,0,0,1,.05-.38l.49-.12.08,0,.25,0a1.48,1.48,0,0,0,.58-.12c.15,0,.26.05.29.11a.27.27,0,0,1,0,.21A2,2,0,0,0,39.75,34.64Zm1.11-.45s0,0,0,0l.06.05h-.06Zm.53.29,0,0v0Zm.32.09,0,0h.08v0ZM42,33.5c0,.15-.1.4-.24.4a1.26,1.26,0,0,1-.75-.61.78.78,0,0,1,.09-.38,1.46,1.46,0,0,0,.22-.43h0a1,1,0,0,1,.57.31A.86.86,0,0,1,42,33.5Zm-1.74-2a1,1,0,0,1,.54.18s0,0,0,.08a3.76,3.76,0,0,1-.1.47,3.74,3.74,0,0,0-.18.35h0a.23.23,0,0,1-.19,0s-.07-.05-.1-.07a2.34,2.34,0,0,0-.25-.27,1.09,1.09,0,0,1-.14-.55A1.06,1.06,0,0,1,40.26,31.47ZM38.36,31a1,1,0,0,1,.6-.09s0,.1,0,.12v.23a2,2,0,0,1,0,.43l-.13,0-.1.23-.06,0a.61.61,0,0,1-.48,0Zm-1.85.43s0-.17.08-.19h.07a1.66,1.66,0,0,1,.71.3,1.14,1.14,0,0,1-.17.51.62.62,0,0,1-.52-.06l-.06-.05-.09-.17A.7.7,0,0,1,36.5,31.4Zm-.8.26.22.34a1,1,0,0,0,.08.15l.09.17a.2.2,0,0,1,0,.22c-.07.05-.31,0-.66-.34-.19-.18-.21-.29-.2-.3S35.45,31.72,35.7,31.66Zm-.8,1.22a2,2,0,0,1,.35.52,1.1,1.1,0,0,1,.12.34h0a2,2,0,0,0-.44-.2l-.14,0-.11.08h0c-.09,0-.09-.08-.09-.09A1.12,1.12,0,0,1,34.9,32.89Zm-.68,2.31a1.44,1.44,0,0,1,.57-.86,1.74,1.74,0,0,0,.37.07,1.21,1.21,0,0,1,.45.67.79.79,0,0,1-.12.76l-.16.08a1.1,1.1,0,0,1-.81-.27C34.22,35.44,34.22,35.26,34.22,35.2Zm1.65,2c-.18,0-.23-.08-.24-.1a.71.71,0,0,1-.05-.48v0h0l.05,0a1.05,1.05,0,0,0,.22-.11h0a1.77,1.77,0,0,1,.42-.12,2,2,0,0,0,.36.5l0,.07-.39.22-.08.05A1,1,0,0,1,35.87,37.16Zm2.59.48c-.07.17-.3.32-.66.44h0c-.41.13-.75-.25-.94-.55a1.3,1.3,0,0,0,.17-.16A2.34,2.34,0,0,1,38.35,37,.79.79,0,0,1,38.46,37.64Zm1.67-.2a.8.8,0,0,1-.59.5c-.09,0-.12,0-.13,0a1,1,0,0,1-.13-.59c.2-.27.49-.55.66-.57a1,1,0,0,0,.14.18A.61.61,0,0,1,40.12,37.45Zm.46-.92-.06-.1a.85.85,0,0,0-.12-.12,3,3,0,0,1-.12-1.08,1.7,1.7,0,0,0,.35-.34l0,0h.11c.11,0,.19.16.24.28v0a2.56,2.56,0,0,0-.21,1.34A.29.29,0,0,1,40.59,36.52Zm1.89,1.86a5.64,5.64,0,0,0-.71-1.22,1.68,1.68,0,0,1-.25-.5,1.72,1.72,0,0,0,.27-.95l.1-.18a2.61,2.61,0,0,1,.7,1.43A2.84,2.84,0,0,1,42.48,38.38Zm.07-3.09h0Zm9.76,3.9c-.45-.39-1.07-.91-1.9-1.59a16.2,16.2,0,0,0-5.65-2.92l.56-.3.36-.19a.44.44,0,0,0,.26-.48,21,21,0,0,0,3.49.84,6.09,6.09,0,0,1,2.5.73c.78.63.87,2.38.92,3.54,0,.32,0,.61.06.9ZM51.08,31.6l.14.38a9.73,9.73,0,0,0-3.64-1.36l.42.08a10.65,10.65,0,0,1,3,1Zm-2.27-5.49c-1.28-.53-4.29-1.66-5.61-1a10,10,0,0,1-1.79.59l.42-.2a5.46,5.46,0,0,1,3.39-.78,10.08,10.08,0,0,1,3.23.66Zm-4.14-7.26c-.93-.21-3.92-.8-6-.19L37.64,19a11,11,0,0,1-4.58.74,9.39,9.39,0,0,0,2.25-.19c.44-.12.88-.27,1.34-.43a15.06,15.06,0,0,1,4.25-1,11.4,11.4,0,0,1,3.41.18Zm-5.11-5.74.21.18a28.76,28.76,0,0,0-4.86.2l-2,.2.38-.11c2.12-.77,6.25-.35,6.29-.34ZM16.55.66a.2.2,0,0,1,.07,0,1.71,1.71,0,0,1,.42.91,2.14,2.14,0,0,0,.7,1.29c.71.54,2.88,1.82,3.91,1.77a2.9,2.9,0,0,0,.67-.16.53.53,0,0,0-.2.35l0,.31.31,0a34.44,34.44,0,0,1,10.1,3.24l-1.85.28c-1.49.24-3.18.5-4.37.59a6.34,6.34,0,0,1-3.9-1.16l-.4.52A7,7,0,0,0,25.93,10h.4c1.21-.08,2.92-.35,4.42-.59A23.14,23.14,0,0,1,33.52,9V9a33.15,33.15,0,0,1,5.33,3.53A16.74,16.74,0,0,0,33,13a23.08,23.08,0,0,1-5.71.42c-2.33,0-2.62,0-2.7.4,0,.21.08.38.36.5a8.1,8.1,0,0,0,2.92.37c1.77,0,4.15-.2,7.07-.51,4.54-.48,5.26-.1,5.29-.09l.14-.19.31.29a29.72,29.72,0,0,1,3,3.39,15.12,15.12,0,0,0-2.87-.07,15.87,15.87,0,0,0-4.42,1c-.45.15-.87.3-1.31.42-1.53.43-6.14-.08-6.19-.09l-1.24-.14,1,.73c.08.05.81.54,3.56.9a11.52,11.52,0,0,0,1.5.1,12.61,12.61,0,0,0,4.07-.79l1-.32c2.24-.66,5.89.26,5.93.27l.1-.38A47.76,47.76,0,0,1,48,24.49,10.79,10.79,0,0,0,45.24,24a6,6,0,0,0-3.71.85l-.56.27c-1.63.79-5.88.45-5.93.45l-1.13-.09.91.69a5.23,5.23,0,0,0,2.41.54,14.63,14.63,0,0,0,6.25-1c1.13-.52,4.44.75,5.62,1.29l.05-.11c.66,1.47,1.22,2.85,1.68,4.07a12.75,12.75,0,0,0-2.69-.85,31.16,31.16,0,0,0-4.1-.47c-.39,0-.68,0-.81-.06-.42-.06-.48.22-.49.28s-.11.68,4.28,1.39c3.18.51,4.28,1.68,4.29,1.69l.18-.16c.26.75.46,1.38.61,1.88a7.73,7.73,0,0,0-2.54-.71,17.65,17.65,0,0,1-4.21-1.12c-2.78-1.21-3-2.54-3-2.55l0-.35-.34.07s-2.12.4-5.17-1.65c-2.84-1.9-3-2.78-3-2.78l.07-.68-.58.38s-1.49.89-4.41-2.88-2.43-5.53-2.42-5.54l.13-.3-.3-.13S23,14.9,22.51,12.6A15.3,15.3,0,0,1,22,9.2V9l-.12-.11a26.1,26.1,0,0,1-4.46-5.17C16.31,1.82,16.45.77,16.55.66Z"/><polygon class="cls-1" points="35.57 36.57 35.57 36.58 35.57 36.57 35.57 36.57"/></g></g></svg>