<svg xmlns="http://www.w3.org/2000/svg" viewBox="0 0 118.09 173.97"><defs><style>.cls-1{fill:#fff;}</style></defs><title>רוזמרין</title><g id="Layer_2" data-name="Layer 2"><g id="Expended"><path class="cls-1" d="M25.49,52.54c3.64-3,9-2.43,9.07-2.42l.07-.66c-.23,0-5.71-.61-9.57,2.57a9,9,0,0,0-3.46,7.54l.66-.07A8.49,8.49,0,0,1,25.49,52.54Z"/><path class="cls-1" d="M40.95,36.31a8.86,8.86,0,0,0,1.55-2.54l-.65-.14a9.77,9.77,0,0,1-1.44,2.28,10.5,10.5,0,0,1-2.82,2.69l.33.57A11,11,0,0,0,40.95,36.31Z"/><path class="cls-1" d="M59.31,44.13a20,20,0,0,0-5,1.28l.29.59a19.89,19.89,0,0,1,4.85-1.22,12.69,12.69,0,0,1,4.39,0l.15-.64A13,13,0,0,0,59.31,44.13Z"/><path class="cls-1" d="M79,48.23l.36-.55a17.52,17.52,0,0,0-3.46-1.56,38.2,38.2,0,0,0-4.55-1.26l-.13.65a37.76,37.76,0,0,1,4.46,1.24A17.33,17.33,0,0,1,79,48.23Z"/><path class="cls-1" d="M52.75,50l-.64-.18a15.08,15.08,0,0,0-.52,4.36A7.67,7.67,0,0,0,52.38,57l.58-.31a7.09,7.09,0,0,1-.71-2.54A14.66,14.66,0,0,1,52.75,50Z"/><path class="cls-1" d="M47.1,23.31a6.75,6.75,0,0,1,2.32-1.75l-.21-.62a7.19,7.19,0,0,0-2.59,1.92,6.92,6.92,0,0,0-1.76,2.93l.64.14A6.41,6.41,0,0,1,47.1,23.31Z"/><path class="cls-1" d="M35.94,106.52l-.49.44a111.31,111.31,0,0,1,7.76,9.71c3.12,4.55,3.45,7.22,3.45,7.25l.66-.07c0-.11-.33-2.84-3.56-7.55A112.12,112.12,0,0,0,35.94,106.52Z"/><path class="cls-1" d="M24,148.74a52.92,52.92,0,0,0-11,4.17l.32.58a52.15,52.15,0,0,1,10.89-4.11c6.66-1.78,9.9-.12,9.93-.1l.31-.58C34.28,148.62,30.95,146.88,24,148.74Z"/><path class="cls-1" d="M108.43,91.16c3.52,4,4.09,7.06,4.09,7.09l.65-.11c0-.13-.59-3.24-4.25-7.41a31.22,31.22,0,0,0-9-6.66l-.28.6A30.41,30.41,0,0,1,108.43,91.16Z"/><path class="cls-1" d="M110.76,60.77a7.8,7.8,0,0,0-6.69,0,5.45,5.45,0,0,0-2.71-.26c1.06-1.48,1.68-2.28,1.69-2.29l-.52-.41s-.45.57-1.2,1.61a5.76,5.76,0,0,0-.6-2,5.1,5.1,0,0,0,1.69-2.75,3.32,3.32,0,0,0,0-.51A12.7,12.7,0,0,0,103,55.4l.22.38.3-.32a1.87,1.87,0,0,0,.24-.33,9.15,9.15,0,0,1,6.34-1.2c2.85.32,4.38,1.43,4.85,2.36a1.63,1.63,0,0,1,.15.48,3.43,3.43,0,0,1-1.23-.5,11.57,11.57,0,0,0-4.54-1.46c-3.25-.23-4,1.41-4,1.48l.61.25c0-.05.61-1.27,3.34-1.08a10.85,10.85,0,0,1,4.28,1.39,3.94,3.94,0,0,0,1.5.57l.18,0a.68.68,0,0,0,.48-.77c-.07-1.07-1.63-2.92-5.56-3.37a11.88,11.88,0,0,0-4.54.28,2.27,2.27,0,0,0,.32-2.09A1,1,0,0,0,104.8,51a1.32,1.32,0,0,0-.26.12,2.35,2.35,0,0,0-.34-1,1.09,1.09,0,0,0-1.43-.34,1.59,1.59,0,0,0-.58.43,4.9,4.9,0,0,0-1.62-1.37,7.86,7.86,0,0,0-5.79-.5,1,1,0,0,0-.64.7.65.65,0,0,0,.14.6c.26.27.71.21,1.32.12a5.58,5.58,0,0,1,2.24,0,1.59,1.59,0,0,1,1.34,1.77h0a2.51,2.51,0,0,0-1.24,2.75c0,.15,0,.28.08.42-.29-.22-.62-.46-1-.69l0-.08-.23-.06-.05,0,.07,0a6.3,6.3,0,0,0-4-4.07c-2.71-1-4.78-.93-5.34-.31a.66.66,0,0,0-.1.77c.28.55,1.06.58,2.06.63a5.68,5.68,0,0,1,2.73.58,4.09,4.09,0,0,1,1.33,1.22,3,3,0,0,0-1.12.16c-1.58.57-2.07,1.4-2.21,2a1.83,1.83,0,0,0,.11,1.12,8.39,8.39,0,0,0-1.42,0c-3.36.1-6.66,1.66-6.65,3.14a.61.61,0,0,0,.24.53c.31.22.74.06,1.52-.23a14.83,14.83,0,0,1,7.41-1c5.67.68,5.71,3.43,5.71,3.54h0c-.09.31-.18.63-.29.95a20.17,20.17,0,0,1-1.18,2.82,1.17,1.17,0,0,0-.27-.49.66.66,0,0,0-.61-.25c-.56.09-1,.93-1.4,1.9a6.33,6.33,0,0,1-.84,1.49,7.35,7.35,0,0,1-.22-1.58c-.11-1.39-.21-2.25-.71-2.54a.69.69,0,0,0-.66,0,1.48,1.48,0,0,0-.81.85c-.34.91.14,2.17.7,3.39A5.33,5.33,0,0,1,91.22,70a1.24,1.24,0,0,0-.63-.28,12.42,12.42,0,0,0-1-2.87,4.19,4.19,0,0,0-3.12-1.77h0a.58.58,0,0,0-.57.31c-.18.4.17.63.38.77a2.08,2.08,0,0,1,1,1.45,5.27,5.27,0,0,1,.12,2.13,4.8,4.8,0,0,0-.61-.08c-1.55-.1-1.85.47-2,1.11a1,1,0,0,1-.17.4c-.08.09-.16.1-.37.11a1.88,1.88,0,0,0-1.09.39,22.9,22.9,0,0,0-4.67-1.86,14.57,14.57,0,0,0-9.85,1.82l.14.2a5,5,0,0,0-1.69.93,14.28,14.28,0,0,0-1.35-.89,14,14,0,0,0-7.36-2.13,21.82,21.82,0,0,1,3.5-3l.79-.5.57-.36c.4.76,1.88,3.5,3.11,4.2a1.24,1.24,0,0,0,.61.18.88.88,0,0,0,.56-.2c.75-.6.73-2.49.29-3.9a15.33,15.33,0,0,0-1.07-2.58c3.31-2.25,5.82-4.35,5.63-5.77-.07-.53-.48-.91-1.2-1.13-2-.62-4.94.25-8,1.93a9.45,9.45,0,0,0-1.93-1.74,12.35,12.35,0,0,0-1.72-1,.47.47,0,0,0,.14,0,.45.45,0,0,0,.25-.07c.68-.44.55-3.51-.41-5.19a7.31,7.31,0,0,0-2.93-2.7l-.07.14a3,3,0,0,0-.22-.25h0A31.42,31.42,0,0,1,60.71,47a32.84,32.84,0,0,1,3.6-.19,3,3,0,0,0,.66,0c1,3.1,1.82,5.28,2.91,5.65a1,1,0,0,0,.34.06,1.13,1.13,0,0,0,.64-.21c.65-.45,1-1.83,1.18-2.91a18.69,18.69,0,0,0,.2-1.94,11.17,11.17,0,0,1,2.24.27,19.46,19.46,0,0,1,2,.61,15,15,0,0,0,4.35,1,3.82,3.82,0,0,0,.7-.06c.84-.15,1.09-.55,1.15-.86.22-1.18-2-2.84-4-4a12.64,12.64,0,0,0-6.68-2,22.94,22.94,0,0,0-4-10.71,20,20,0,0,0-6-5.57,1.52,1.52,0,0,0,.22-.23,2.12,2.12,0,0,0,.17-.27c.86,0,3.37.13,8.6,1.41,6,1.46,7.42,2.66,9.4,4.32.39.33.8.67,1.26,1,2.06,1.62,3.67,2.2,4.59,2.2a1,1,0,0,0,.72-.22.51.51,0,0,0,.17-.46c-.06-.24-.27-.32-.53-.41a5.47,5.47,0,0,1-.56-.22,5.66,5.66,0,0,1-.75-.81,24.15,24.15,0,0,0-9.18-7,37.68,37.68,0,0,0-13.68-3v0a2.74,2.74,0,0,0-.17-.31,2.5,2.5,0,0,0-2.9-1.11l-.12,0c.07-.09.17-.22.32-.38A4.45,4.45,0,0,1,60,20.28,8.21,8.21,0,0,0,62,19.94a1.75,1.75,0,0,0,1.29-1.39,1.16,1.16,0,0,0-.13-.58A14.9,14.9,0,0,1,68,16.9a9.88,9.88,0,0,1,4.68,1.32,5.26,5.26,0,0,0,1.85.67.68.68,0,0,0,.67-.92c-.3-1.28-2.91-3.67-5.89-4.35a13,13,0,0,0-6.91.7,1.46,1.46,0,0,0,0-1.11,14.4,14.4,0,0,1,2.26-2A8.07,8.07,0,0,1,66,10.47,2.18,2.18,0,0,0,67.23,12a1.22,1.22,0,0,0,.51.11,1.35,1.35,0,0,0,1-.51A2.13,2.13,0,0,0,68.86,9a5,5,0,0,0-1.32-1.3v0h0a4.46,4.46,0,0,0-4.82-.4,27.58,27.58,0,0,0-3.79,2.89A9.1,9.1,0,0,0,59.84,8l.06-.28-.26-.11c-.13-.05-1.37-.48-3.65,1.07a4.81,4.81,0,0,0-.52.41c.56-1.36.71-3,0-3.58-.5-.36-1.16-.13-2,.65A6,6,0,0,0,52.07,8.7a.76.76,0,0,0-.62-.22l-.16,0a17.53,17.53,0,0,0-3.68-6.24C46.07.76,43.86-.23,43.13,0a.5.5,0,0,0-.34.42c0,.39.14.61.47,1a21.81,21.81,0,0,1,2,2.91A29.66,29.66,0,0,1,48.09,11a2.17,2.17,0,0,0-1.67,1.09,2,2,0,0,0-.13.35A10.71,10.71,0,0,0,40.9,7.18a4.82,4.82,0,0,0-2.29-.43l.18-.36a17.33,17.33,0,0,0-7.05-1.73h-.1c-1.85,0-5,.28-5.21,1.17,0,.12,0,.42.41.61a8.62,8.62,0,0,0,2.09.38,18.13,18.13,0,0,1,3.55.67A11,11,0,0,1,34.94,8.6c-1.19,1.22-2,2.76-1.86,3.57a.64.64,0,0,0,.37.56c.58.25,1.19-.14,2-.65a9.25,9.25,0,0,1,2.63-1.29l0,.1a21.17,21.17,0,0,1,5.07,3.79,13.58,13.58,0,0,1,2.43,3.12,3.58,3.58,0,0,0-1.39-.33l.11-.3A16.79,16.79,0,0,0,31.7,18.25c-5.46,2.84-8.3,9.21-7.73,10.44a.51.51,0,0,0,.47.31.65.65,0,0,0,.25-.05c.66-.27,1.26-1.16,2.1-2.39,1.62-2.38,3.85-5.65,7.91-6.63a12.65,12.65,0,0,1,5.09-.41A3.16,3.16,0,0,0,38.52,22a1.89,1.89,0,0,0,1.18,1.49,8.16,8.16,0,0,0,3,.46h0a3,3,0,0,0,.41,3.28,2.75,2.75,0,0,0,.27.24,7.44,7.44,0,0,0-3.14-.06,1,1,0,0,0-.65.37.44.44,0,0,0,0,.37c.07.23.28.32.66.49A12.14,12.14,0,0,1,43.73,31c2.65,2.39,2.44,4.78,2.44,4.8h.11c-.41,3.52-.51,6.77-.51,6.81h.4a2,2,0,0,0,.11.7,3.43,3.43,0,0,0,2,1.89A8.73,8.73,0,0,0,44.79,48a1.63,1.63,0,0,0-.2-.27,3.1,3.1,0,0,0-2.26-.67l.06.66a2.4,2.4,0,0,1,1.72.47,1,1,0,0,1,.27.68,2,2,0,0,0-.18.93,9.49,9.49,0,0,1-3.61,3.67c-1.46.87-2.78,1.15-3.73.79-2.34-.88-1.83-3-.84-6,.54-1.62,2.1-2,3.24-2.27a3.64,3.64,0,0,0,1-.34,2.83,2.83,0,0,0,1.09-1.47l-.28-.08.34,0a4.21,4.21,0,0,0,2.23-.69l.07-.05,0-.08a3.54,3.54,0,0,0-1-4.18,3.27,3.27,0,0,0-1.52-.63,7.88,7.88,0,0,0,2.5-2.31,3,3,0,0,0,.49-2.93,2.53,2.53,0,0,0-2-1.34,2.47,2.47,0,0,0-2.57,1.46,2.08,2.08,0,0,1-.28.39c-.21.14-.33.11-.7,0a3.39,3.39,0,0,0-1.55-.21c-1.1.11-1.64,1.64-1.85,2.45a10,10,0,0,0-2.74-1.58c-3.83-1.57-7.68.32-8.09,1.31a.55.55,0,0,0,.3.75,3.53,3.53,0,0,0,1.79,0,4.59,4.59,0,0,1,3.62.49,7.23,7.23,0,0,1,1.28,1.2,3.3,3.3,0,0,0,1.89,1.18c-1,.36-2,.92-2.27,1.89a3.1,3.1,0,0,1-1,2l-.41.46a2.23,2.23,0,0,0-.12,2.57,3.72,3.72,0,0,0,3.37,1.75,6,6,0,0,0,1-.08c2.54-.42,4-3.48,4.63-5.56a3.28,3.28,0,0,0,1,1.07,3.48,3.48,0,0,0,1.31.58,2.14,2.14,0,0,1-.79,1.05,3.68,3.68,0,0,1-.83.25c-1.14.27-3.06.73-3.72,2.74a17.35,17.35,0,0,0-.76,2.82l-.06-.25c-.24.05-5.87,1.39-8.59,4.43a20.32,20.32,0,0,0-2.64,3.93c-.64,1.17-1,1.82-1.36,1.67s-.66-.7-.9-1.9A8.84,8.84,0,0,1,23.54,51c3.35-3.11,6.54-2.58,6.57-2.57l.12-.65c-.14,0-3.53-.61-7.15,2.75A9.52,9.52,0,0,0,20.42,59a3.31,3.31,0,0,0,1.29,2.38,1,1,0,0,0,.39.09c.69,0,1.18-.89,1.82-2a19.45,19.45,0,0,1,2.56-3.81c2.37-2.65,7.26-4,8.11-4.2a3.07,3.07,0,0,0,2.06,3.52,3.15,3.15,0,0,0,1.11.19,6.45,6.45,0,0,0,3.19-1,11.67,11.67,0,0,0,2.77-2.3c.68,2.2-.07,8.57-.51,11.43a1.2,1.2,0,0,0-.11-.48c-.08-.14-.39-.59-1.12-.2a2.06,2.06,0,0,0-.73.66c-.06-1.5-.3-3-.9-3.33-.25-.15-.66-.2-1.17.4a3.31,3.31,0,0,0-.67,1.44c-1.49-2.21-3.78-5.27-4.84-4.83a1,1,0,0,0-.62.67c-.22.79.35,2,2.2,4.64,1.23,1.75,2.35,3.44,3,4.45a4.62,4.62,0,0,0-.45-.26,2,2,0,0,1-1-1,4.09,4.09,0,0,0-.4-.59,1,1,0,0,0-1.13-.38c-.56.23-.79,1-.7,2.35a5,5,0,0,0,.72,2.31A18.66,18.66,0,0,0,30.26,66c-5.05-2.32-9.34-3.7-13.8-2.91-4.28.76-8.3,3.52-8.23,4.25l.09.34h.31a3.52,3.52,0,0,0,1-.34c2.22-.92,8.1-3.38,13-1.49a33,33,0,0,1,8.82,5.45,19.7,19.7,0,0,0-7.15,1.08c-3.1,1.12-3.89,2.54-3.87,3.2a.51.51,0,0,0,.34.51l.12,0a6.08,6.08,0,0,0,1.32-.37A21.54,21.54,0,0,1,28,74.38a15.15,15.15,0,0,1,4.24.6,2.74,2.74,0,0,0,.14,1.84c.64,1.14,2.38,1.43,3.26,1.46a12.67,12.67,0,0,0-8.07,5.48c-2.87,4-2.71,6.9-1.89,7.85a.94.94,0,0,0,.71.36.75.75,0,0,0,.34-.08c.43-.21.7-.83,1.11-1.77A13.15,13.15,0,0,1,32,84.42a19.26,19.26,0,0,1,4.91-2.9,3.58,3.58,0,0,0,1.24,1,2.85,2.85,0,0,0,1.15.35l.23,0a.86.86,0,0,0,.58-.54s0-.08,0-.09l.11,0,.39.16a1.45,1.45,0,0,0,1.68,0c0,.25.07.87.12,1.6.1,1.79.27,4.8.77,8.51a41.84,41.84,0,0,1,.48,5.64,18.55,18.55,0,0,0-4.52-3.85c-2.39-1.41-7.63-3.36-8.68-2.19a1,1,0,0,0-.32.87c.14.47.72.64,1.88,1l1.14.34a15.64,15.64,0,0,1,4.75,2.35c-1.74.68-4.27,1.81-4.29,2.66a.61.61,0,0,0,.44.58,2.4,2.4,0,0,0,.41.13c-1,0-2,0-3.06.1l0,0a35.94,35.94,0,0,0-9.2-3.38c-4.18-.84-8-.19-8.3.68a.5.5,0,0,0,.33.62,10.41,10.41,0,0,0,2.22.55,34.37,34.37,0,0,1,4.93,1.22c1.82.62,2.91,1,3.54,1.32a50.36,50.36,0,0,0-8.81,2.77C9.3,106.77.06,114.15,0,117.7a1.74,1.74,0,0,0,1.11,1.68,3.39,3.39,0,0,0,1.44.34c1.69,0,3.24-1.37,5.23-3.12a34.17,34.17,0,0,1,11.78-7.37,92.31,92.31,0,0,1,10.59-3.17h0s3.8,1.22,9.2,9.48C45,124.18,47.2,129.26,46.53,132h0a27.76,27.76,0,0,1-1.09,2.63,35.64,35.64,0,0,1-1.91,3.52,6.17,6.17,0,0,0-2.89-2.39c-2.2-.82-4.5-.51-5.23.71a.67.67,0,0,0-.08.72c.22.36.73.32,1.57.26a8,8,0,0,1,2.39.07c1.67.41,2.12,3.56,2.13,3.59h0a18.3,18.3,0,0,1-1.56,1.75l-2.84,3.79c-.81-2.84-2.45-6.95-5.51-9.07s-6.43-2.37-7.32-1.82a.62.62,0,0,0-.34.63c.06.47.68.87,1.86,1.21,6.41,2.63,9.37,8.58,10.63,11.13l.26.52h0c.32.62.46.81.71.82l.25,0,.16-.27,0-.32c-.07-.4-.24-1.28-.53-2.39l.26.19,3-4a28.46,28.46,0,0,0,5.65-8.38c2.7-5.73,2.51-9.33,1.91-14.18-.54-4.35-1.42-6.95-3-9-1.25-1.57-1.73-5.69-1.73-5.73l-.66.07c0,.18.51,4.35,1.87,6.06a12.63,12.63,0,0,1,2.45,5.9c-.49-.94-1.23-2.24-2.34-4a69,69,0,0,0-6.82-8.94,21.25,21.25,0,0,1,2.78.23,18.07,18.07,0,0,1,4,1c.53.2.8.3,1,.09s.11-.52,0-.79a1.28,1.28,0,0,0-.08-.18c-.4-.86-1.92-3.44-6.25-4.84a15.26,15.26,0,0,0-3.78-.62,7.35,7.35,0,0,0,1.71-.51,7.1,7.1,0,0,1,1.53-.48,3.17,3.17,0,0,1,1.66,0l.07-.09a44.9,44.9,0,0,0,5.24,5.09l.07.06H46l.1,0,0,.06c.27.35.9.26,2.28.06l1.37-.19-.28.35.36.21A13.27,13.27,0,0,1,54.1,108a8,8,0,0,0-2.71,1,.44.44,0,0,0-.18.34v.19l.13.1c.18.13.35.08.81-.06a11,11,0,0,1,2.64-.51c.41.7.78,1.39,1.12,2C57.09,113.28,58,115,59.37,115h0a.78.78,0,0,0,.71-.41c.44-.75,0-2.6-.71-4.45l.21.12a11.72,11.72,0,0,1,4.77,5.55,8.35,8.35,0,0,0-3-.76c-3.63-.22-5.59.85-6.2,1.92a1.47,1.47,0,0,0,0,1.59c.49.74,1.13.35,1.74,0a7.65,7.65,0,0,1,4.36-1.27c-1.48,1.25-3.31,3-3,3.77a.66.66,0,0,0,.69.42H59c1,0,2.31-.91,3.54-1.79a8.63,8.63,0,0,1,2.7-1.54,7.33,7.33,0,0,1,2.59,2.24c-1.11.73-2.25,1.51-3.36,2.28-5.05,3.51-9.66,5.73-11.2,5.41-1.18-.25-2.25-6.52-2.83-9.89-.14-.79-.26-1.53-.38-2.17-.15-.82-.29-1.55-.42-2.2-.49-2.54-.75-3.93-.59-4.77a2.12,2.12,0,0,0-.52-2.37,1.85,1.85,0,0,1-.08-1.68.82.82,0,0,0,.06-.38l-.65,0a1.52,1.52,0,0,1,0,.15,2.46,2.46,0,0,0,.2,2.28c.59.73.59.75.38,1.83s.09,2.4.59,5c.13.65.26,1.38.42,2.2.12.64.24,1.37.38,2.16,1,5.71,1.85,10.1,3.34,10.42a2.18,2.18,0,0,0,.44,0c2,0,6.32-2.11,11.28-5.56,1.11-.77,2.24-1.54,3.34-2.27a7,7,0,0,1,.65,1.36L69,123l.38-.58a2.2,2.2,0,0,0-.24-2.1h0c1.36-.9,2.64-1.72,3.7-2.39.59.11,1.92-.86,2.42-1.34a2.09,2.09,0,0,1,1.3-.57,10.64,10.64,0,0,0-2.07,1.75,3.76,3.76,0,0,1-2.56,1h-.17l-.1.14s-.51.72-1,1.61a.43.43,0,0,0,0,.53c.21.25.51.14,1.3-.15.46-.17,1.11-.41,1.87-.62l.14.39a8.53,8.53,0,0,1,6.11.4c3.1,1.48,3.79,2.69,3.79,2.7l.59-.3c0-.06-.75-1.39-4.09-3a8.66,8.66,0,0,0-1.57-.57l.35,0a10.2,10.2,0,0,1,6.41,4.45,4.24,4.24,0,0,1,.57,1.18A22.31,22.31,0,0,1,83.72,124c-2.3-1.58-5.17-3.54-7-3.6-3-.07-6.77,1.59-7.07,2.54a.5.5,0,0,0,.08.52c.21.23.52.16,1,.06a5.33,5.33,0,0,1,2.65,0c1.93.55,5.08,3.82,7.35,9,2.36,5.38,3.21,9,2,16.14-.73,4.36-1.9,4.71-2.25,4.72h0c-.61,0-1.24-.81-1.38-1.51a18.89,18.89,0,0,1,.12-3.46A61.46,61.46,0,0,0,79.5,142l0,0,0,0a21.53,21.53,0,0,0-.37-3.66c-1-5-5.8-12.47-6.68-13.14s-1.07-.73-1.92-.33c-.17.08-.34,0-.74-.09a7.67,7.67,0,0,0-3-.36c-4.14.24-13.83,8-14.33,12.33a2.32,2.32,0,0,0,2,2.65,6.6,6.6,0,0,0,2.27-.48c1.41-.39,3.4-.94,5.49-1.34v.54A24.83,24.83,0,0,1,72.49,141c4.41,2.21,6,3.8,6.29,4.18,0,.71-.08,1.39-.13,2-2-1.31-9.82-6.44-13.84-7.76a6.55,6.55,0,0,0-7.33,2c-.08.09-1.85,2.2-2.28,9.11a17.68,17.68,0,0,0-9.31-.25l.08.24c-2.88-1-5.83-1.25-7.33-.86a1.69,1.69,0,0,0-1.24.85l-.06.15c-.76-1.13-3.2-4.06-8.52-5.06-5.5-1-18.12,5-19.69,8.7a1.37,1.37,0,0,0,.42,1.79,3.24,3.24,0,0,0,2,.61c1.67,0,3.7-1,6.07-2.12a32.38,32.38,0,0,1,9.75-3.41,41.44,41.44,0,0,1,4.7-.39c.19.49.59,2.35-1.84,6.65-3,5.36-9.62,14.52-9.69,14.62l.54.38c.07-.09,6.68-9.29,9.72-14.68,2.28-4,2.22-6.09,2-7,3.34,0,4.34.7,4.38.73l1.25,1-.75-1.45-.13-.22c.11.12.26.11.69.08a15,15,0,0,1,7.36,1.12l-.3.14a9.74,9.74,0,0,1,.52,1.58c-1.22-.49-5.24-1.58-9.62,3.15-5.08,5.5-9.11,14.49-9.15,14.58l.6.27c0-.09,4-9,9-14.4,4.85-5.25,9-3,9.19-2.86l.08-.13a6.92,6.92,0,0,1-.13,3.29c-.14.44-.29.87-.43,1.28-.76,2.21-1.35,3.95,0,4.61a1.77,1.77,0,0,0,.76.18,1.67,1.67,0,0,0,.79-.21c.94-.5,1.64-1.9,1.92-3.82a12.45,12.45,0,0,0-.83-6,27.19,27.19,0,0,1,4.55,6c.86,1.43,1.22,2,1.63,2h.09c.16,0,.38-.16.48-.6a8.48,8.48,0,0,0-1.67-5.68,33.05,33.05,0,0,1,9,2.63c3.15,1.43,4,2.12,4.17,2.37h0l0,.23c0,.07,1,7.36,1.57,10.23l.1.51c.29,1.54.45,2.39,1,2.47H69c.45,0,.92-.51,2-2.86,2.13-4.47-2.72-14.27-10.79-18.55a24.61,24.61,0,0,0-4.42-1.83h0c.4-6.74,2.11-8.83,2.15-8.87a5.78,5.78,0,0,1,6.61-1.8c4.13,1.37,12.76,7.07,14,7.89l0,.38a17.71,17.71,0,0,0-.11,3.64c.17.86,1,2,2,2h0c.63,0,1.43-.46,2.09-2.16,1.39,1.48,5.91,6.28,7.7,8,1.47,1.44,3,2.32,4,2.32a1.15,1.15,0,0,0,.46-.08.86.86,0,0,0,.5-.89c0-1.4-1.17-6.49-5.69-11.29-3.37-3.57-5-4.73-5.67-5.09.35-4.93-.59-8.19-2.53-12.63-2.46-5.63-5.76-8.81-7.78-9.38a6,6,0,0,0-3,0l-.1,0a11.15,11.15,0,0,1,6.21-1.83c1.64,0,4.54,2,6.65,3.48s2.7,1.81,3.12,1.69a.44.44,0,0,0,.29-.24c.14-.29,0-.76-.28-1.4a10.88,10.88,0,0,0-7.18-5.34,14,14,0,0,0-7.54,1l-.22.08c.25-.41.47-.75.59-.92A4.25,4.25,0,0,0,75,118.2a10.69,10.69,0,0,1,2.22-1.83l.24-.16a.41.41,0,0,0,.18-.39c0-.12-.1-.29-.38-.39a2.49,2.49,0,0,0-1.84.24l-.06-.1-1.14.71c1.29-1.81,3.32-4.65,4.08-5.6.53-.66.88-1.08,1.1-1.35h0l-.25.45a11,11,0,0,0,2.62.88l-.12.32a.23.23,0,0,1-.11-.08s.25.46-.27,2.89c-.17.81-.37,1.5-.55,2.1-.34,1.18-.57,2-.21,2.46a1.21,1.21,0,0,0,1,.43h.11c1.79,0,3.62-2.29,4.27-4a8.79,8.79,0,0,0,.74-3.15q.63.19,1.26.42c.34,1.33,1.89,7.13,3.3,7.13h.12a.64.64,0,0,0,.43-.34c.47-.89-.52-3.87-1.12-5.5.24.14.47.28.69.42l-.28.38a12.14,12.14,0,0,1,1.14,2.15c1.06,2.25,1.81,3.74,2.55,3.89l.2,0a.72.72,0,0,0,.63-.35c.5-.79-.21-2.8-1.65-4.66a7.92,7.92,0,0,0-1-1.06l0,0a10.23,10.23,0,0,0-3.53-3.49c-.06-.28-.38-1.29-2.22-3.43a11.23,11.23,0,0,0-3.4-3,1,1,0,0,0-.14-.34,3.16,3.16,0,0,0-1.92-1s-.05-.25.55-1.07a15,15,0,0,0,1.42.91,2.08,2.08,0,0,0,1,.34,1.14,1.14,0,0,0,.33,0,1.54,1.54,0,0,0,.87-.93l.09-.18a1.51,1.51,0,0,0-.06-1.32,1.7,1.7,0,0,0-1.27-1,2.68,2.68,0,0,0-.54,0C85,98.71,86,97.43,86,96.83a.79.79,0,0,0-.26-.68,1.07,1.07,0,0,0-1,0l-.16,0v-.07a1.94,1.94,0,0,0-.12-.55c.47-.85,3.18-5.77,4.76-9.07a11.83,11.83,0,0,1,.92-1.58l0,.09a12.37,12.37,0,0,1,7.9.38,21.86,21.86,0,0,1,10.74,9.37c2.28,3.77,3.39,5.43,4.37,5.43h0a1,1,0,0,0,.87-.64c.88-1.63-.69-6.87-5.07-11.05-3.48-3.32-7.68-6.06-8.17-5.6l0,.48.26-.22h0l-.07.3a29.27,29.27,0,0,1,7.52,5.52c4.29,4.1,5.64,9,4.95,10.26-.07.13-.18.29-.31.3h0c-.71,0-2.43-2.83-3.8-5.11a22.52,22.52,0,0,0-11.08-9.64,13.36,13.36,0,0,0-7.6-.59l.17-.21,0,0a7.16,7.16,0,0,1,3.16-1,5.72,5.72,0,0,1,3.25.64l.35-.56a6.37,6.37,0,0,0-3.66-.74,8.45,8.45,0,0,0-1.68.32,6.38,6.38,0,0,1,4.45-1.16L97,80.8a7.19,7.19,0,0,0-4.51,1,5.17,5.17,0,0,0,.3-.81,5.19,5.19,0,0,1,.52-1.26h.08A12.26,12.26,0,0,0,97,78.58L96.75,78a17.92,17.92,0,0,1-2.3.9l1.05-.58c2.09-1.13,2.41-1.35,2.4-1.7l0-.25-.18-.09c-.44-.22-1.71.32-3,1a1.37,1.37,0,0,0-1.06-.71c-.45-.11-.57-.13-.47-.69.13-.74.27-1.16.43-1.23s.22,0,.65.23c1.36.82,2.38,1.12,3.11.9.43-.13.92-.27,1-.69s-.27-.76-.62-1.06a5.79,5.79,0,0,0-2.88-.63,10.47,10.47,0,0,1-1.28-.13l.06-.11c1-1.89,1.61-3.17,1.24-3.74a9.62,9.62,0,0,0,1.67-1.5,20,20,0,0,0-.55,2l.65.13A22,22,0,0,1,99.5,63.2l.12.18a5.52,5.52,0,0,1,3.06-.78,14.06,14.06,0,0,1,2.3,5.16,18,18,0,0,1,.36,3.12c0,.89.06,1.37.42,1.61a.64.64,0,0,0,.36.1,1.27,1.27,0,0,0,.43-.09c1.49-.56,1.46-2.12,1.25-4.1a12.27,12.27,0,0,0-1.12-3.57A17.69,17.69,0,0,1,108,66.6c.55.85,1,1.55,1.53,1.55a.69.69,0,0,0,.35-.1.74.74,0,0,0,.34-.73c0-1-1.38-3.15-3.06-4.7a9.16,9.16,0,0,1,4.37,1.44c3,1.94,3.37,6.37,3.54,8.51,0,.4.06.72.09.93a.9.9,0,0,0,.9.8h.14c.94-.13,2.14-1.56,1.88-4.34C117.66,65.79,114,62.28,110.76,60.77ZM34,38.9c-1.49-.41-1.7-.66-2.11-1.14a7.9,7.9,0,0,0-1.38-1.3,3.85,3.85,0,0,0-2.15-.75,7.1,7.1,0,0,1,3.73.72c2.19,1,2.4,1.66,2.41,1.67l.65-.1c0-.21-.29-1-2.78-2.17a7.13,7.13,0,0,0-4.58-.7l.15.56a11.48,11.48,0,0,0-1.54.15,4.17,4.17,0,0,1-1.34.08,2.87,2.87,0,0,1,.93-.66,7.73,7.73,0,0,1,6.26-.21c3.93,1.61,3.61,3.3,3.61,3.31v0a.63.63,0,0,1-.27.36,1.07,1.07,0,0,1-.24.12l0-.09-.45.11-.25.06A3.56,3.56,0,0,1,34,38.9Zm4.79,2.38c.11-.45.17-.75.18-.8h-.05a1.68,1.68,0,0,1,.1-.21l-.57-.33a2.82,2.82,0,0,0-.31,1.25c-.46,1.75-1.78,5.73-4.42,6.16-2,.33-3.19-.48-3.67-1.33a1.58,1.58,0,0,1,0-1.81l.4-.46a3.69,3.69,0,0,0,1.17-2.33c.22-1,1.86-1.47,3-1.76h.06a2,2,0,0,0,1.22-.34,1.25,1.25,0,0,0,.53-.81,2.39,2.39,0,0,0-.72-1.92c.12-.63.6-2.27,1.36-2.34a2.74,2.74,0,0,1,1.28.17,1.28,1.28,0,0,0,1.28-.07,1.94,1.94,0,0,0,.47-.58c.38-.59.84-1.33,1.91-1.17a1.91,1.91,0,0,1,1.54,1,2.52,2.52,0,0,1-.45,2.31C42,37.77,39,39,38.93,39l0,.13a.82.82,0,0,0-.37.57l0,.26.18.09a1.74,1.74,0,0,0,.59.13,2.84,2.84,0,0,1,2,.83,3.29,3.29,0,0,1,.86,1.75l.66,0a3.85,3.85,0,0,0-1-2.15,3.39,3.39,0,0,0-2.34-1,2.37,2.37,0,0,1,.72-.29,2.49,2.49,0,0,1,2.08.49,2.79,2.79,0,0,1,.86,3.3,3,3,0,0,1-3.41,0A2.17,2.17,0,0,1,38.76,41.28ZM24.57,136.35c.33-.38,3.4-.48,6.64,1.77a12.57,12.57,0,0,1,3.95,5.14c-.17-.3-.34-.61-.54-.93a12.45,12.45,0,0,0-6.63-5.1l-.18.63A17.2,17.2,0,0,0,26,137,4,4,0,0,1,24.57,136.35Zm3.28,1.53a12,12,0,0,1,6.21,4.8A22.11,22.11,0,0,1,35.74,146,21.3,21.3,0,0,0,27.85,137.88Zm11.63-1a8.49,8.49,0,0,0-2.59-.09,6.43,6.43,0,0,1-.89,0h0c.5-.82,2.4-1.19,4.44-.43a5.7,5.7,0,0,1,2.73,2.39c-.41.63-.81,1.19-1.17,1.68C41.77,139.41,41.1,137.28,39.49,136.88ZM27.24,150.54A33.4,33.4,0,0,0,17.3,154c-3.2,1.54-5.73,2.75-7.36,1.57-.22-.16-.45-.42-.2-1,1.23-2.87,11.7-8.43,17.62-8.43a7.35,7.35,0,0,1,1.34.11,12.72,12.72,0,0,1,7.71,4.27C35.09,150.18,32.39,149.85,27.24,150.54Zm12.25-.33v.06H39ZM46,152.32l.1.05-.07,0Zm2.21,7.36c-.24,1.69-.83,2.93-1.57,3.33a1,1,0,0,1-1,0c-.82-.39-.42-1.7.3-3.8.14-.41.29-.85.43-1.29a8.43,8.43,0,0,0-.17-4.93,8.88,8.88,0,0,1,.61,5.62l.64.17a9.36,9.36,0,0,0-.58-5.94l0,0A12.64,12.64,0,0,1,48.19,159.69Zm6,1.33c-.24-.3-.65-1-1-1.58-1.21-2-3.16-5.21-5.69-7l-.11-.21-.11.06c-.18-.12-.36-.25-.54-.36s-.49-.25-.73-.37a11.67,11.67,0,0,1,1.65.64,9.13,9.13,0,0,1,4.27,4.51l.62-.23A9.17,9.17,0,0,0,51,154C53.88,156.71,54.34,160.14,54.14,161Zm16.33,9.81a10.73,10.73,0,0,1-1.4,2.49,6.6,6.6,0,0,1-.52-2l-.1-.51c-.51-2.65-1.41-9.09-1.54-10.07a.48.48,0,0,0,0-.21c0-.28,0-.94-4.63-3a32.78,32.78,0,0,0-9.76-2.76A11.17,11.17,0,0,0,50.74,153c-.17-.14-.36-.27-.55-.4,1.19-.05,3.93.12,8.41,2,6.22,2.57,8.12,4.78,8.14,4.8l.21-.18C70.2,163.37,71.72,168.19,70.47,170.83Zm-5-13.43a34,34,0,0,0-6.58-3.46c-6.43-2.66-9.4-2-9.52-1.93v0a17.31,17.31,0,0,0-2.68-1.25c1.67-.35,6.91-1,13.3,2.35A21.35,21.35,0,0,1,65.44,157.4Zm-9-19.12c-.85.24-1.74.48-1.9.48h0c-1.11-.33-1.6-1-1.48-1.94.39-3.42,9.21-11.48,13.71-11.74a7.1,7.1,0,0,1,2.81.33,1.54,1.54,0,0,0,1.22.05c.55-.26.55-.26,1.23.26s5.44,7.78,6.43,12.74a19.85,19.85,0,0,1,.34,3,26.73,26.73,0,0,0-9.69-4.8,12,12,0,0,0-2.46-.23A41.12,41.12,0,0,0,56.47,138.28Zm16.32,2.11a26.87,26.87,0,0,0-10.09-2.92,17.66,17.66,0,0,1,6.3-.17c4.45.93,8.78,4.17,9.85,5,0,.65,0,1.29,0,1.94A26,26,0,0,0,72.79,140.39Zm16.27,10c4.38,4.65,5.47,9.51,5.51,10.85,0,.22-.07.25-.11.27-.45.2-2-.43-3.7-2.11-1.91-1.87-6.94-7.22-7.93-8.27a18.21,18.21,0,0,0,.55-2.41c.19-1.13.32-2.17.41-3.14A32.2,32.2,0,0,1,89.06,150.41Zm15.89-98.75.2,0a.25.25,0,0,1,.26.14,1.69,1.69,0,0,1-.41,1.55,1.31,1.31,0,0,1-.6.36c0-.06,0-.13,0-.19a8.17,8.17,0,0,0,.2-1.59A.63.63,0,0,1,104.95,51.66ZM103,50.38a.81.81,0,0,1,.31-.08.36.36,0,0,1,.31.18,2.37,2.37,0,0,1,.26,1.23,3.15,3.15,0,0,0-.21,1.78,5.38,5.38,0,0,1-.36,1.1,7.16,7.16,0,0,1-.91-3.31l.14,0a1.23,1.23,0,0,0,0-.4A.92.92,0,0,1,103,50.38Zm-1.2.52a3,3,0,0,0,0,1.1,2.11,2.11,0,0,0-.47-.49l-.2-.12a2.37,2.37,0,0,0-.68-1.56,3.84,3.84,0,0,0-1.39-.88,5.07,5.07,0,0,1,1.19.47A3.53,3.53,0,0,1,101.84,50.89ZM95.5,49.1a2.15,2.15,0,0,1-.71,0s.07-.12.27-.22a5.72,5.72,0,0,1,2.49-.25l-.06.34A7.24,7.24,0,0,0,95.5,49.1Zm3.6.58a2.77,2.77,0,0,1,.85.58,1.88,1.88,0,0,1,.49.93,2,2,0,0,0-.6.06A2.2,2.2,0,0,0,99.1,49.68Zm-.51,4.5a1.87,1.87,0,0,1,.93-2.11,1.28,1.28,0,0,1,1.41,0,3,3,0,0,1,.82,2.58,4.75,4.75,0,0,1-1.31,2.28s0,0,0-.06c.17-3,.11-4.15-.24-4.49l-.47.46a13.45,13.45,0,0,1,.08,3.52,3.91,3.91,0,0,0-.71-.51l.1-.1L99,55.48A4.91,4.91,0,0,1,98.59,54.18Zm-1.13,1.09a13,13,0,0,0-5.5.43l-.37.1a6.38,6.38,0,0,1,2.57-1.36,5.75,5.75,0,0,1,2.41,0c.44.28.84.57,1.17.83Zm-4.91-4.4a6.24,6.24,0,0,0-3.06-.68c-.59,0-1.4-.07-1.52-.29.12-.29,1.91-.57,4.63.46a5.87,5.87,0,0,1,3.39,3,7.12,7.12,0,0,0-1.72-.64C94.21,52.49,93.95,51.78,92.55,50.87Zm-1.72,4.07c.14-.62.76-1.15,1.79-1.52a2.32,2.32,0,0,1,.79-.13,4.4,4.4,0,0,1,1.62.37,4.72,4.72,0,0,0-1,.13,6.9,6.9,0,0,0-3.08,1.72l.37.35a.87.87,0,0,1-.25,0A1.1,1.1,0,0,1,90.83,54.94Zm6.53,1,.3.06a15.19,15.19,0,0,1-.08,3.6,12.53,12.53,0,0,0-5.22-3.31A12.13,12.13,0,0,1,97.36,55.92Zm-5.9,1.85a15.59,15.59,0,0,0-7.71,1,6.59,6.59,0,0,1-.87.28c.06-.89,2.79-2.35,6-2.45,4.8-.54,8.35,3.6,8.53,3.82l-.06.32C96.82,59.67,95.34,58.24,91.46,57.77Zm-3.59,9.66a2.73,2.73,0,0,0-1-1.67A3.56,3.56,0,0,1,89,67.14a11.73,11.73,0,0,1,.91,2.6,1,1,0,0,0-.27.14,10.13,10.13,0,0,0-1.11-3.06l-.58.32a8.79,8.79,0,0,1,1.1,3.26A4.65,4.65,0,0,0,88,69.88,5.82,5.82,0,0,0,87.88,67.43Zm-3.62,4.48a1.08,1.08,0,0,0,.8-.33,1.5,1.5,0,0,0,.32-.68c.11-.42.19-.69,1.34-.62a4,4,0,0,1,2.59,1.14,4.45,4.45,0,0,0,1,2c-.26.69-1.4,3.27-4.16,3.28h0a4.49,4.49,0,0,1-2.39-.61l.08-.1c-.05,0-.39-.32-.93-.73,0-.06-.08-.12-.12-.18a2.05,2.05,0,0,1,.09-2.15C83.5,72,83.9,71.94,84.25,71.91Zm3.05,10c.1.16.2.31.3.44a38.52,38.52,0,0,1-3.17,7.77c-.46.89-.87,1.67-1.26,2.37a.7.7,0,0,0,0-.27,1.2,1.2,0,0,0-1.73-.62l-.29.09h0a1.51,1.51,0,0,0-.58-1.08,1.53,1.53,0,0,0-1.26,0,2.5,2.5,0,0,0-1,.61l-.05-.06a1.36,1.36,0,0,0-1.43-.21.94.94,0,0,0-.34.26,10.37,10.37,0,0,0-5.59-1.5,34,34,0,0,0-9.15,2.52l.27.6a34.07,34.07,0,0,1,8.94-2.47,9.53,9.53,0,0,1,5.28,1.44,2.75,2.75,0,0,0,0,.75,18.34,18.34,0,0,0-4.3-.6,23.43,23.43,0,0,0-7.28,1l.21.63a23,23,0,0,1,7.06-.93,16.92,16.92,0,0,1,4.48.68c.06.21.12.42.17.6v0a21.39,21.39,0,0,0-4.64-.45c-4.4.1-6.07.78-6.14.81l.26.61a18.7,18.7,0,0,1,5.89-.76,20.35,20.35,0,0,1,4.81.5.34.34,0,0,0,0,.11l-.19.12c-.12.07-.27.16-.46.29a1,1,0,0,1-1.44-.22c-.29-.33-.83-.37-1.52-.1s-1.5.78-1.5,1.36c0,.06,0,.1,0,.14l-.1,0a7.42,7.42,0,0,0-.88.45,1.54,1.54,0,0,0-.63.75A6.46,6.46,0,0,0,66.59,96a7.85,7.85,0,0,0-3.59.25A24.74,24.74,0,0,0,59.65,89a15.27,15.27,0,0,0-1.52-1.87,4.34,4.34,0,0,0,1.16.15c2.43,0,5-1.74,5.22-2.3a.43.43,0,0,0,0-.39c-.13-.2-.37-.21-.66-.23a2.69,2.69,0,0,1-2.06-.92,5.93,5.93,0,0,1-1.15-4V79c0-.79-.68-.93-1.2-1a1.65,1.65,0,0,1-1.56-1.35A1.26,1.26,0,0,1,58,75.51c.88-1.16,3.71-1.56,5.06-1.64l.17.07a14.21,14.21,0,0,1,5.21,3.46,2.47,2.47,0,0,0,.84.69.6.6,0,0,0,.22,0,.57.57,0,0,0,.51-.34c.28-.57,0-1.91-1.23-3.4A8.75,8.75,0,0,0,72.07,72l-.23-.21a13.84,13.84,0,0,1,1.89,0c3.33.24,7,2.62,8.67,3.86a3.55,3.55,0,0,0,1.52,1.19c-1,.58-5.28,3.07-5.74,5-.13.53-.28,1.06-.42,1.53-.36,1.21-.59,2-.25,2.42a.62.62,0,0,0,.51.22h.09c.61-.06,1.17-.68,2.11-1.7a30.24,30.24,0,0,1,3-3,10.36,10.36,0,0,1,3.58-2.1A3.54,3.54,0,0,0,87.3,81.89ZM68.22,116.52A15.93,15.93,0,0,0,63.6,110a15.46,15.46,0,0,0,2-1.12c2.32-1.43,5.84-3.58,9.4-3.33a8,8,0,0,1,.86.11c-.32.74-1.78,4.07-3.61,7.36-2.09,3.77-3.36,6-3.36,6l.51.29-.53.35A15.45,15.45,0,0,0,68.22,116.52ZM57.59,106.41a23.51,23.51,0,0,0-2.3-2.32l.3,0c3.22.6,3.71,1.82,4.06,2.71a1.79,1.79,0,0,0,.89,1.16.82.82,0,0,0,.32.07.63.63,0,0,0,.38-.13c.38-.28.38-.91.33-1.38a5.39,5.39,0,0,0-2.94-4.09,11.84,11.84,0,0,0-3.09-.9c1.19-.82,2.61-1.75,3.71-2.46l1.16-.76a1.67,1.67,0,0,0,.89.13c.71,1.32,1.09,1.9,1.48,2l.12,0a.48.48,0,0,0,.27-.08.87.87,0,0,0,.32-.6,4.88,4.88,0,0,0,0-1.39,9.49,9.49,0,0,1,2.78.36,8.15,8.15,0,0,1,3.67,2.58,10.3,10.3,0,0,0-3.67,1.36,8.23,8.23,0,0,0-4.15,6c0,.08,0,.16,0,.23a7.65,7.65,0,0,0-2.61-1.09,11.33,11.33,0,0,0-1.22-.16C58,107.22,57.8,106.77,57.59,106.41Zm-8.64-2.88a10,10,0,0,1,5-.72,8.71,8.71,0,0,1,4.28,1.46,9.21,9.21,0,0,0-2.47-.78,16.42,16.42,0,0,0-3-.26A26.89,26.89,0,0,0,48.94,103.53Zm-.93-.94c-.1-1.54-.42-6.54-.43-7.3a2,2,0,0,0-.13-.73h0c.5-.3.33-1,0-2.54-.18-.81-.41-1.82-.58-3a9.93,9.93,0,0,1,.7-4.79,20,20,0,0,1,7.52,4.88,24,24,0,0,1,3.55,4.63,30.22,30.22,0,0,0-4.81,3.85c-2.76,2.49-4.18,3.93-4.22,4.28l.41.05h0a16,16,0,0,0-1.77.57ZM55.36,73a11.44,11.44,0,0,1,6.35.38c-1.44.21-3.4.68-4.22,1.76a1.91,1.91,0,0,0-.33,1.69,2.28,2.28,0,0,0,2.07,1.84c.58.12.67.18.68.42v.45a6.47,6.47,0,0,0,1.32,4.42A3.26,3.26,0,0,0,63.61,85c-.84.66-3.34,2.08-5.37,1.47-3.79-1.13-3.89-4.15-3.89-4.28h-.09A9.05,9.05,0,0,0,54.85,80a9.88,9.88,0,0,1,.63-2.23,14.78,14.78,0,0,0,.83,3.11A8.06,8.06,0,0,0,59,84.78l.36-.55a7.63,7.63,0,0,1-2.41-3.61A11.61,11.61,0,0,1,56,76.54l.1-.17L56,76.3c0-.08,0-.15,0-.2l-.29,0L55.58,76l-.07.12h-.13s0,.1,0,.17,0,0,0,.05a11.16,11.16,0,0,0-1.18,3.5c-.39,2.57-1.23,3.71-2.67,3.58A3.25,3.25,0,0,1,49,81.53l-.37.16.46-.67C50.13,79.48,52.65,76.12,55.36,73Zm-6.9,9a3.85,3.85,0,0,0,3,2.17h.29A2.44,2.44,0,0,0,53.81,83a5.46,5.46,0,0,0,2.71,3.47l-.06.14s1,.44,2.64,2.76a23.74,23.74,0,0,1,3.28,7l-.3.11A26.75,26.75,0,0,0,59,90.37a25.28,25.28,0,0,0-6.22-6.13l-.36.55a25.09,25.09,0,0,1,6,6,26.32,26.32,0,0,1,3,6.09l-.25.13c-1.31-2.45-3.22-6-5.68-8.34a20.4,20.4,0,0,0-7.72-5c.15-.34.26-.54.26-.55l-.29-.16ZM77.14,93.66l0-.14.33.15.32-.58a5.91,5.91,0,0,0-.87-.37,3.78,3.78,0,0,1-.09-.58,14.86,14.86,0,0,1,1.39,1c0,.06,0,.11,0,.17a4.85,4.85,0,0,1-.3.86l-.19,0-.43-.1Zm2.28.73a2.88,2.88,0,0,1-.89-.09,5.49,5.49,0,0,0,.22-.68A3.21,3.21,0,0,1,79.42,94.39Zm-.17.67a1.41,1.41,0,0,0,.33,0c-.63.39-1.33.79-2.07,1.19.23-.38.49-.81.73-1.28A5.33,5.33,0,0,0,79.26,95.06Zm.79-.88a4.49,4.49,0,0,0-1.16-1.33,2.39,2.39,0,0,0-.24-1.13,1.66,1.66,0,0,1,.84-.52.94.94,0,0,1,.71-.05c.12.07.21.29.27.63a.64.64,0,0,0,.29.46,1,1,0,0,0,.85,0c.53-.17.74-.2.92.24S81.64,93.7,80,94.74A.58.58,0,0,0,80,94.18Zm-1.88-1.9c-.35-.26-.74-.52-1.15-.77h0a.7.7,0,0,1,.75.12A1.31,1.31,0,0,1,78.16,92.28Zm-.8,2.45.18,0h0c-.26.48-.54.94-.77,1.3-.36.58-.48.78-.48,1v.24l.23.07c.21.07.67.28.77.53a.29.29,0,0,1,0,.28,2.18,2.18,0,0,1-1.21.68,3.14,3.14,0,0,0-1.51.83,4.74,4.74,0,0,1-2.72.92c-.48,0-.73-.06-.8-.14a2.33,2.33,0,0,1-.41-.85l.15-.27c-.08-.08-.18-.16-.27-.24a3.06,3.06,0,0,1,0-.91,1.09,1.09,0,0,1,.47-.85,6.91,6.91,0,0,1,.81-.41c.42-.19.5-.3.5-.78a2.36,2.36,0,0,1,1.33-.84,1.36,1.36,0,0,1,.32,0,.3.3,0,0,1,.21.06,1.61,1.61,0,0,0,2.3.33c.17-.12.31-.2.42-.26C77.21,95.18,77.35,95,77.35,94.73Zm-7.54,3.81a10,10,0,0,0-2.5-1.21,8.7,8.7,0,0,0-4.13-.41v-.05a7.21,7.21,0,0,1,3.3-.22c2.31.43,3.14,1.37,3.35,1.68C69.82,98.39,69.81,98.46,69.81,98.54Zm-10.92,0c-1.3.85-3.06,2-4.35,2.91a14.17,14.17,0,0,0-4.15.36,45.56,45.56,0,0,1,3.88-3.76A28.48,28.48,0,0,1,59,94.3c.34.57.65,1.13.95,1.66l-.19-.27c-.1.07-2.44,1.7-3.16,2.36l.45.48c.66-.61,2.89-2.17,3.06-2.28l.58,1.08a2.39,2.39,0,0,0-.26.22h0Zm2.64-1,.16-.09.12.36h-.13Zm1.34,2.14s0,.06,0,.09l-.06-.07Zm-.16-1.24h.12c0,.24.06.45.07.64Zm0-.66h-.21l-.2-.62.25-.1C62.61,97.31,62.67,97.55,62.71,97.78Zm-4.34,5.31a4.65,4.65,0,0,1,2.53,3.47c.08.54,0,.83-.1.85-.25-.11-.36-.35-.54-.79a4,4,0,0,0-1.08-1.67l.41-.39a9,9,0,0,0-5.65-2.4c-.35,0-.66,0-1,0A11.52,11.52,0,0,1,58.37,103.09ZM75,104.94c-3.79-.27-7.4,1.95-9.79,3.42-.42.26-.88.54-1.28.76,1-1.53,3.27-4.49,6.5-5a9,9,0,0,1,5.21.78l.32-.58a9.49,9.49,0,0,0-5.63-.86c-4.23.61-6.84,5-7.41,6a1,1,0,0,1-.18-.76,7.65,7.65,0,0,1,3.83-5.45,9,9,0,0,1,4.6-1.38,6.52,6.52,0,0,1,4.46,1.72,10.18,10.18,0,0,1,1.89,2A5.4,5.4,0,0,0,75,104.94Zm5.68-4.24a1.43,1.43,0,0,0-1,1c-.06.31-.27.37-.84.48a3.79,3.79,0,0,0-.89.25c.61-1,1.29-2.17,1.66-2.93A3.44,3.44,0,0,0,80.72,100.7Zm.46-.48a3,3,0,0,1-1.23-1.73,3.67,3.67,0,0,1-.22-1.15,3.13,3.13,0,0,1,1.45,2.87Zm-1.81-3.5c-.38.22-.4.81-.05,2l0,.08h-.08a35,35,0,0,1-2.72,4.79l-.44-.41a7.19,7.19,0,0,0-5.39-1.85,8.79,8.79,0,0,0-4.25-3.13,10.23,10.23,0,0,0-3.09-.39l0-.21a8.24,8.24,0,0,1,3.78.39,8.59,8.59,0,0,1,2.81,1.49,3.31,3.31,0,0,0,.65,1.46,1.57,1.57,0,0,0,1.16.35h.15a5.16,5.16,0,0,0,3.21-1.16,2.65,2.65,0,0,1,1.21-.62,2.64,2.64,0,0,0,1.57-1,1,1,0,0,0,.09-.85,1.38,1.38,0,0,0-.57-.63,22.56,22.56,0,0,0,5.11-3.35A34.48,34.48,0,0,1,80.39,97C79.95,96.66,79.63,96.57,79.36,96.73ZM81.9,74.54c-2-1.33-5.11-3.14-8.13-3.35-.38,0-.76,0-1.13,0a12.69,12.69,0,0,1,5,.32,16.92,16.92,0,0,1,4.3,2A2.65,2.65,0,0,0,81.9,74.54Zm.93,6.36a30.8,30.8,0,0,0-3.1,3c-.74.81-1.33,1.45-1.71,1.51a5.4,5.4,0,0,1,.37-1.81c.14-.49.3-1,.43-1.57.36-1.53,4.17-3.91,5.6-4.7L84.22,77a5.72,5.72,0,0,0,1.75.29,10.19,10.19,0,0,0-3,1.51A14.12,14.12,0,0,0,79,83.06l.58.32a13.67,13.67,0,0,1,3.87-4c2.54-1.8,4-1.63,4.1-1.62a4.66,4.66,0,0,0-.46.82A10,10,0,0,0,82.83,80.91Zm4.69-3.18.12-.62h-.07a4.45,4.45,0,0,0,.81-.35A6.19,6.19,0,0,0,87.52,77.72Zm3.29-3.85a3.11,3.11,0,0,0,.52.35,5.58,5.58,0,0,1-1.68,1.59l-.24.14A6.72,6.72,0,0,0,90.81,73.88ZM78.29,70.43a22.41,22.41,0,0,1,4.32,1.71c-.1.12-.2.25-.3.4a2.66,2.66,0,0,0-.16.32,17.48,17.48,0,0,0-4.33-2,11.63,11.63,0,0,0-3.76-.45A14.14,14.14,0,0,1,78.29,70.43Zm-7,1.46a6.52,6.52,0,0,1-3,1.94c-.22-.22-.46-.45-.73-.67A7.55,7.55,0,0,1,71.32,71.89Zm-6,.54a13.06,13.06,0,0,1,1.3.87l0,.06c0,.2-.08.71.67,1a1.92,1.92,0,0,0,.72.14,5.47,5.47,0,0,1,1.42,2.39,1.34,1.34,0,0,1,0,.53,2.88,2.88,0,0,1-.52-.49,14.79,14.79,0,0,0-5.42-3.61l-.14-.06v-.09h-.19a13.09,13.09,0,0,0-7.11-1.06l.69-.78,0,.15a12.37,12.37,0,0,1,6.73,1.4l.29-.59a13.72,13.72,0,0,0-6.54-1.51l.34-.37A12.6,12.6,0,0,1,65.35,72.42Zm1.77-6.09c.43,1.38.31,2.88-.08,3.19,0,0-.15.12-.43,0-1-.56-2.35-3-2.88-4l.82-.53a10.8,10.8,0,0,1,1.39,2.67l.63-.19a11.26,11.26,0,0,0-1.47-2.84l1-.67A15,15,0,0,1,67.12,66.33Zm2.51-9.22a4.37,4.37,0,0,1,1.28.18c.46.14.71.34.74.59.23,1.71-6.52,6-9.4,7.77l-.79.5A35.87,35.87,0,0,0,55,72.38l-.12,0,0,.07c-2.75,3.19-5.31,6.6-6.37,8.16l-.4.58A41.91,41.91,0,0,1,56.43,68a40.77,40.77,0,0,1,9.36-7.27l-.3-.59A41.46,41.46,0,0,0,56,67.55,42.65,42.65,0,0,0,47.52,81c.88-4,2.83-10.71,6.43-14.44C58.72,61.64,65.5,57.11,69.63,57.11ZM37.45,68.68a13.28,13.28,0,0,1,3.79.57,2.1,2.1,0,0,1,1.46,1,1.17,1.17,0,0,1,0,.79,8.18,8.18,0,0,1-4-.41A1.74,1.74,0,0,1,37.45,68.68Zm5.8.49c-.11-1.86,0-5.48,1.69-5.81l.17,0a.28.28,0,0,1,.26.11c.26.34.11,1.37-.32,2.57a7.64,7.64,0,0,0-1.7,3.06ZM46.14,66a1.76,1.76,0,0,1,1.7.46,2.44,2.44,0,0,1,1,2.09,1.58,1.58,0,0,1-1.21,1.15,14.4,14.4,0,0,1-2.07.55,3.18,3.18,0,0,0-.77.1,4.62,4.62,0,0,1-1.12,0c.05-.23.14-.58.27-1a8.09,8.09,0,0,0,1-1.57,14.05,14.05,0,0,0,.65-1.47A2,2,0,0,1,46.14,66ZM41.41,68.6a10.09,10.09,0,0,0,1.42-3.22,15.08,15.08,0,0,0-.24,3.75,3.89,3.89,0,0,0-1.17-.53Zm2,2.41h0l0,0Zm1.46,0c.22,0,.48-.06.75-.11a2.19,2.19,0,0,1,.93.22,4.06,4.06,0,0,1,1.71,2.44,2.28,2.28,0,0,1,.12,1,4.07,4.07,0,0,1-1.24-.68,15,15,0,0,0-1.89-1.12c-1.2-.58-1.53-1-1.54-1.15A3.68,3.68,0,0,1,44.88,71.06Zm2.06-.42c.29-.08.58-.16.9-.27a2.18,2.18,0,0,0,1.65-1.65A3.09,3.09,0,0,0,48.26,66a2.4,2.4,0,0,0-2.33-.57,6.74,6.74,0,0,0,.18-.85l.27-.06a16.72,16.72,0,0,1,.57-4,34.15,34.15,0,0,1,.89-3.68c.3.59.59,1.2.84,1.83a18.94,18.94,0,0,1,1.15,4c.21,1.13.32,1.75,1.4,2.19a2,2,0,0,0,.78.17,1.23,1.23,0,0,0,.72-.22c.6-.42.88-1.4.83-2.93A19.6,19.6,0,0,0,53,58.45a3.32,3.32,0,0,0,2.05-1.22,6.37,6.37,0,0,0,.57-.78v.21s.48.12,2.06,1.55a11.07,11.07,0,0,1,2.12,2.45,45.64,45.64,0,0,0-6.36,5.46A23.16,23.16,0,0,0,49,73.76,4.89,4.89,0,0,0,46.93,70.64ZM44.71,50.31a1.07,1.07,0,0,0,.72-.37c.38-.4,3.86-3,5.49-2.28v0a1.31,1.31,0,0,0,.18.68,4.2,4.2,0,0,0-3.81,2.23,3.87,3.87,0,0,0-.09,3.83c0,.09.1.17.14.25a32.87,32.87,0,0,0-2.86-4c.07-.11.13-.23.18-.34Zm11.41,1.42a6.52,6.52,0,0,1-1.53,5.06,2.48,2.48,0,0,1-2.08,1,7.25,7.25,0,0,1-4.68-3.71,3.28,3.28,0,0,1,.05-3.2A3.59,3.59,0,0,1,51,49a3.91,3.91,0,0,1,1.5.3l.29.12.15-.27a3.78,3.78,0,0,1,2-1,.92.92,0,0,1,.81.18,1,1,0,0,1,.33,1.24A4,4,0,0,0,56.12,51.73Zm-5.24,6.21a10.61,10.61,0,0,1,.53,3.18,17,17,0,0,1-.08,2l.66.08a17.59,17.59,0,0,0,.09-2.06,11.36,11.36,0,0,0-.4-2.84,4.24,4.24,0,0,0,.68.17,19.86,19.86,0,0,1,.56,3.48c0,1.24-.16,2.1-.55,2.37a.89.89,0,0,1-.87,0c-.75-.31-.81-.63-1-1.7a19.61,19.61,0,0,0-1.19-4.15,25.16,25.16,0,0,0-1.57-3.19A8.55,8.55,0,0,0,50.88,57.95Zm11.66,1c-.37.21-.73.43-1.1.66,0-.11-.09-.42-1.25-1.57a19.5,19.5,0,0,0-2.91-2.2l-.15-.1-.2.26-.22.25.22.15a19,19,0,0,1,2.8,2.12,10.1,10.1,0,0,1,1.06,1.17h0l.62,0-1,.68a11.73,11.73,0,0,0-2.22-2.56A9.62,9.62,0,0,0,55.89,56a8.22,8.22,0,0,0,.4-.83,17,17,0,0,1,4.5,2.17A10,10,0,0,1,62.54,58.91Zm-6-4.32a5.59,5.59,0,0,0,.24-3c0-.11,0-.19-.06-.29.11.14.24.31.38.53a26,26,0,0,1,1.3,2.34,13.14,13.14,0,0,0,.8,1.44.65.65,0,0,0,.17.16A20.32,20.32,0,0,0,56.51,54.59Zm2.35-3.69A6.91,6.91,0,0,1,59.55,55c-.16-.27-.36-.67-.59-1.11a26.74,26.74,0,0,0-1.33-2.4,4.16,4.16,0,0,0-1-1.17,4.78,4.78,0,0,1,.11-.64,2.27,2.27,0,0,0,.08-.82A6.42,6.42,0,0,1,58.87,50.9Zm5.44-4.71a34,34,0,0,0-3.66.19,24,24,0,0,0-5.55,1l-.3,0a4.6,4.6,0,0,0-2.23,1.15,5,5,0,0,0-.84-.2l.07-.05c.66-.67,2.06-4.66,1.7-7.54a6.44,6.44,0,0,0-.15-1.22l0,0c.18.39.39.86.6,1.39a5,5,0,0,1-.18,3.64l.59.3a4.45,4.45,0,0,0,.19-.46l0,0c.07-.13.19-.33.32-.55a39.87,39.87,0,0,1,4.89-.87,20.71,20.71,0,0,1,3.87-.23l.46,1.4.09.27c.15.45.3.93.45,1.42l.08.26Zm-7.54-5.63a.59.59,0,0,0,.47.45,5.3,5.3,0,0,0,1.44.1,7,7,0,0,1,1.11,0,.52.52,0,0,1-.1.2c-.36.54-1.4.47-2.31.42a2.8,2.8,0,0,0-1.71.18,4.12,4.12,0,0,0-.78.86,5,5,0,0,0-.31-2c-.21-.55-.43-1-.61-1.43a5,5,0,0,1-.44-1.13.44.44,0,0,1,.21,0h0a1.72,1.72,0,0,1,1.09.68c.26.27.48.5.78.47A.51.51,0,0,0,56,39a3.6,3.6,0,0,0,.23-1.34c.07-.9.18-2.41.73-2.46.33,0,.43.15.53.9.05.37.1.7.34.87a.51.51,0,0,0,.4.08c.69-.14,1.23,0,1.35.23s-.12.5-.23.63a9.5,9.5,0,0,1-1.31,1.12C57.23,39.69,56.68,40.11,56.77,40.57ZM76.38,45c3,1.86,3.72,3,3.65,3.34,0,.2-.4.3-.62.34-1.25.23-3.09-.39-4.71-.94a20.18,20.18,0,0,0-2.09-.63,11.83,11.83,0,0,0-2.35-.28,28,28,0,0,0-.14-3.68A12.19,12.19,0,0,1,76.38,45ZM65.49,32.14c4.35,5.9,4.45,13.8,3.89,17.15a4.41,4.41,0,0,1-.9,2.48.4.4,0,0,1-.39.08c-1-.33-2-3.68-2.78-6.12-.15-.49-.31-1-.45-1.43L64.77,44c-1.24-3.84-4.55-14-9-16.76A7.35,7.35,0,0,0,52,26a4.51,4.51,0,0,0-2.11.5,6.91,6.91,0,0,1,3.37-1.33,5.47,5.47,0,0,1,.57-.06v.05c.07,0,7.13,1,11.23,12,2.68,7.16,1.86,11.66,1.85,11.71l.65.13c0-.19.86-4.72-1.88-12.06-2.68-7.15-6.54-10.2-9.1-11.48.75.23,1.52.51,2,.7A18.16,18.16,0,0,1,65.49,32.14Zm8.44-6A23.56,23.56,0,0,1,82.88,33a4,4,0,0,0,1,1h0a9.43,9.43,0,0,1-3.72-2c-.46-.36-.87-.7-1.25-1-2.05-1.72-3.53-3-9.67-4.46A44.25,44.25,0,0,0,60.73,25a3.64,3.64,0,0,0,.12-.64A29.75,29.75,0,0,1,70.14,26a28.41,28.41,0,0,1,8.7,4.56l.42-.51a29.15,29.15,0,0,0-8.93-4.68,30.37,30.37,0,0,0-9.48-1.6,3.29,3.29,0,0,0-.08-.5A37,37,0,0,1,73.94,26.15ZM69.15,14.26a8.89,8.89,0,0,1,5.26,3.52,1.24,1.24,0,0,1,.17.44c-.18.1-1-.31-1.62-.6a10.33,10.33,0,0,0-5-1.38,15,15,0,0,0-5.15,1.23,2.65,2.65,0,0,0-.48-.32,1.67,1.67,0,0,0-.53-.16,12.82,12.82,0,0,1,4.05-1.31,9.73,9.73,0,0,1,5.83.85L72,16A10.22,10.22,0,0,0,65.72,15c-3.41.61-4.74,1.67-4.79,1.72l.19.23a5.45,5.45,0,0,0-1.35.38,8.31,8.31,0,0,0,2.17-2.16C62.56,14.93,66,13.55,69.15,14.26Zm-.88-3.12a.65.65,0,0,1-.76.22,1.55,1.55,0,0,1-.88-1.14,7.76,7.76,0,0,1,1.87-.43A1.43,1.43,0,0,1,68.26,11.14Zm-11.9-2a4.66,4.66,0,0,1,2.74-1,8.47,8.47,0,0,1-2,3.29,4.65,4.65,0,0,1-2.81,1.18c.34-.38.85-.92,1.64-1.68a5.49,5.49,0,0,1,2.7-1.74l0-.66c-.12,0-1.26.13-3.11,1.92-.68.66-1.17,1.17-1.52,1.54A10.54,10.54,0,0,1,56.36,9.19Zm-2.74,3.08.07,0-.3.35h0Zm.3-5.67c.48-.46.81-.62,1-.62a.22.22,0,0,1,.13,0c.34.24.37,1.6-.27,3A31.8,31.8,0,0,1,52,13.37C52.11,11.6,52.44,8,53.92,6.59Zm-2.55,7.81,0,.95L52,14.6c0-.05.44-.57,1-1.31a6.43,6.43,0,0,0,.69,0,5.69,5.69,0,0,0,4-1.41c.18-.17.33-.36.49-.54l.24.25A32.66,32.66,0,0,1,63,7.85a3.57,3.57,0,0,1,3.4,0,9.46,9.46,0,0,0-4.52,2.65l.46.47a8.07,8.07,0,0,1,4.94-2.59,4.49,4.49,0,0,1,.83.81,8.79,8.79,0,0,0-3.86,1.53,14.91,14.91,0,0,0-2.36,2.06,2.21,2.21,0,0,0-.66-.19,6.8,6.8,0,0,1,.41-.68c.11-.17.21-.33.27-.44a.53.53,0,0,0-.15-.66c-.47-.41-1.73-.39-3.7,1a9.57,9.57,0,0,0-3.28,5l.64.15a9,9,0,0,1,3-4.67c1.66-1.2,2.56-1.18,2.81-1.1l-.18.28c-.42.64-.66,1.06-.52,1.38a.46.46,0,0,0,.33.27l.18,0c.23,0,.59.09.69.29s.11.42-.27,1.13A7.88,7.88,0,0,1,59.08,17c-.67.49-1,.76-1,1.12l0,.25.15.1c.25.16.55,0,1.15-.25.78-.35,1.95-.88,2.63-.52.45.23.7.52.68.79s-.35.61-.87.81a7.83,7.83,0,0,1-1.89.29c-1.15.09-2.23.18-2.75.74s-.76.92-.59,1.25.57.27.7.26l.3-.05a1.86,1.86,0,0,1,2.22.83,2.38,2.38,0,0,1,.39,1.12l-.24,0,.13.65h.1a2.82,2.82,0,0,1-.17.66.48.48,0,0,0-.34.21l.07.27c-.09.11-.21.21-.3.18L59,25.58l-.23-.09a12.29,12.29,0,0,0-2.24-.77,4.86,4.86,0,0,0-1.78-.26,7.23,7.23,0,0,0-1.6.07,9.75,9.75,0,0,0-2.82.91c0-.09.1-.17.14-.26A6.06,6.06,0,0,0,51.05,23c0-.06,0-.1,0-.12a1.72,1.72,0,0,0,0-.17c0-.18.11-.73.33-.85a.38.38,0,0,1,.32,0c.2.09.45.21.7.35.91.48,1.84,1,2.44.64a.88.88,0,0,0,.42-.77c.08-1.15-1.73-1.83-3.18-2.38-.42-.16-.94-.36-1-.4A.84.84,0,0,1,51,19L51,19A3,3,0,0,0,50,16l.18,0v0l.22.1c.16-.36.55-1.26.93-2.32C51.36,14.14,51.36,14.36,51.36,14.41Zm.15-5.26c.09,0,.12,0,.14,0,.36.5-.3,2.88-1.25,5.3a6.13,6.13,0,0,0-.23-2.21h.1s0-.31-.11-.76C50.2,10.67,50.42,9.25,51.51,9.14ZM43.77,1a2.89,2.89,0,0,1-.3-.39,7.6,7.6,0,0,1,3.67,2.1,17.12,17.12,0,0,1,3.52,6,2.2,2.2,0,0,0-.87,1.15,17.43,17.43,0,0,0-.58-1.74,20.11,20.11,0,0,0-2-3.9L47,3.92l-.56.35.21.34a19.51,19.51,0,0,1,2,3.79,17,17,0,0,1,.84,2.83A1.55,1.55,0,0,0,48.7,11l.06,0A29.87,29.87,0,0,0,45.84,4,22.37,22.37,0,0,0,43.77,1ZM47,12.38a1.54,1.54,0,0,1,1.22-.75,1.05,1.05,0,0,1,1,.26c.73.75.55,2.81.39,3.8a4.91,4.91,0,0,0-.5-.32A3.19,3.19,0,0,0,47,14.89l.26-.13A3.14,3.14,0,0,1,47,12.38Zm-.77,1.77.08,0a5.26,5.26,0,0,0,.3.87,1.34,1.34,0,0,0-.33.22s0,.06-.05.08a6.85,6.85,0,0,0-1-1.74,13.67,13.67,0,0,0-2-2,9.55,9.55,0,0,1,2,1.41l.36-.35A8.23,8.23,0,0,1,46.23,14.15ZM29,6.17a10.93,10.93,0,0,1-1.74-.29,12.83,12.83,0,0,1,4.37-.57h.09a16.75,16.75,0,0,1,6.4,1.49,5,5,0,0,0-1.31.41,7.22,7.22,0,0,0-2.88-1.36,7.19,7.19,0,0,0-3.15-.42l.13.65a6.89,6.89,0,0,1,2.83.41A8.23,8.23,0,0,1,36.2,7.56l-.36.24c-.14.1-.27.22-.41.34A11.06,11.06,0,0,0,32.7,6.87,18.69,18.69,0,0,0,29,6.17Zm6.26,3a4.59,4.59,0,0,1,5.36-1.42l.26.13a6.89,6.89,0,0,0-3.55.3c-2.09.75-3.29,3.17-3.6,3.87A5.23,5.23,0,0,1,35.27,9.2Zm-.21,2.34-.47.3a6.22,6.22,0,0,1,3-3,6.69,6.69,0,0,1,5.67.67l0,0a10.37,10.37,0,0,1,2.16,2.71A9.09,9.09,0,0,0,39.7,9.92h-.07A8.11,8.11,0,0,0,35.06,11.54Zm3.83-.91a6.18,6.18,0,0,1,.74-.05h.06a6.81,6.81,0,0,1,1.69.23l0,0A18.49,18.49,0,0,1,44.73,14a4.9,4.9,0,0,1,1.11,2.54h0a3.09,3.09,0,0,0,.22,1,14.32,14.32,0,0,0-2.53-3.24A22.77,22.77,0,0,0,38.89,10.63Zm-4.35,8.66c-4.31,1-6.71,4.56-8.3,6.9a8.27,8.27,0,0,1-1.7,2.09c-.09-1.12,2.33-6.78,7.47-9.45a16.37,16.37,0,0,1,11.13-1.27,5,5,0,0,0-.88.28l0-.08c-.09,0-2.37-.64-7,.37l.14.64a18.71,18.71,0,0,1,5.95-.49c-.18.11-.37.24-.56.38l-.41.32C39.81,18.8,38,18.45,34.54,19.29ZM40,22.87a1.27,1.27,0,0,1-.8-1c-.08-.73.64-1.7,2-2.71,2.78-2,4.42-.56,4.49-.5l.15-.16A3.57,3.57,0,0,1,46,19l.65-.12a4,4,0,0,0-.24-.71,4.92,4.92,0,0,0,1.9,1.76A6.71,6.71,0,0,0,43,23.26,8.33,8.33,0,0,1,40,22.87Zm3.51.86c1.46-3.05,5-3.2,5.07-3.2l0-.52a5.84,5.84,0,0,0,1,.38l.15-.64a4.75,4.75,0,0,1-2.92-2.21,2.71,2.71,0,0,1-.31-1.07h0a1,1,0,0,1,.24-.74c.37-.35,1.14-.27,2.05.24,2.06,1.13,1.56,2.81,1.54,2.88l.07,0a1.09,1.09,0,0,0,.12.73c.12.25.49.39,1.37.72s2.8,1.06,2.76,1.71c0,.07,0,.2-.09.24-.27.16-1.27-.36-1.81-.64-.27-.14-.53-.28-.75-.37a1,1,0,0,0-.9,0c-.5.28-.61,1-.66,1.33l0,.1a1.47,1.47,0,0,0,0,.24,5.47,5.47,0,0,1-.55,2c-.6,1.33-2.12,2.43-2.68,2.37l-.33,0a2.74,2.74,0,0,0-1.57.2,2,2,0,0,1-1.66-.69C43.14,26.25,42.74,25.31,43.49,23.73Zm2,4.34a2.12,2.12,0,0,1,1.27-.16l.34,0a1.69,1.69,0,0,0,.65-.13c-.11.38-.29,1.12-.57,2.46a4.91,4.91,0,0,0-1.91-2.09l-.11-.06A1.2,1.2,0,0,0,45.49,28.07Zm-1.32,2.39A12.9,12.9,0,0,0,40.47,28a6.82,6.82,0,0,1,4.47.74,4.2,4.2,0,0,1,2,2.81l0,.25a9,9,0,0,0-1.57-2.15A8.36,8.36,0,0,0,42,28l-.14.65a7.77,7.77,0,0,1,3,1.5,6.15,6.15,0,0,1,1.7,2.68h0l.13,0c-.06.36-.12.72-.18,1.09A8.1,8.1,0,0,0,44.18,30.47Zm2.38,11s-.05.09-.08.14a73,73,0,0,1,.91-8.78l.2-1.08h.06s0-.08,0-.18a28.7,28.7,0,0,1,.88-3.88l-.24-.11a5.63,5.63,0,0,0,1.41-1.2l.17.16a3.56,3.56,0,0,0-1,.77l.51.41c.08-.1,2-2.42,6.14.1,3.57,2.2,6.45,9.79,8,14.33a25,25,0,0,0-3.73.25,43.27,43.27,0,0,0-4.27.72,3.29,3.29,0,0,1,.6-.67,3.19,3.19,0,0,1,1.28-.05c1,.07,2.33.15,2.9-.71a.79.79,0,0,0,.14-.84c-.23-.43-.88-.42-1.71-.41a5.36,5.36,0,0,1-1.18-.06,8.29,8.29,0,0,1,1-.81,9.88,9.88,0,0,0,1.41-1.22c.58-.67.44-1.16.3-1.39a1.84,1.84,0,0,0-1.95-.56,3.68,3.68,0,0,1-.06-.37c-.08-.54-.22-1.54-1.24-1.46s-1.23,1.74-1.33,3.06c0,.3-.05.68-.09.9l-.16-.17a2.28,2.28,0,0,0-1.6-.88.87.87,0,0,0-.74.33.76.76,0,0,0-.07.54,2.53,2.53,0,0,0-.62-.76,2.29,2.29,0,0,0-2.06-.35,1.51,1.51,0,0,0-1.1.82c-.46,1,.32,2.53.94,3.74.16.31.34.67.44.91a4.85,4.85,0,0,1-1-.77,7.07,7.07,0,0,0-1-.82c.07-.76.27-2.23.82-5a47.31,47.31,0,0,1,2.74-9l-.6-.27A47.88,47.88,0,0,0,48.76,36c-.5,2.5-.72,4-.81,4.84a1.29,1.29,0,0,0-.35,0A1.49,1.49,0,0,0,46.55,41.47Zm.35,1.6a1.19,1.19,0,0,1,.17-1.19.86.86,0,0,1,.58-.38h0a.77.77,0,0,1,.21.05,2,2,0,0,0,0,.51l.61-.14c.19.16.39.34.59.52a3.23,3.23,0,0,0,1.55,1,.47.47,0,0,0,.49-.19c.23-.33,0-.84-.5-1.76s-1.26-2.45-.93-3.17a.89.89,0,0,1,.65-.45,1.65,1.65,0,0,1,1.49.23c1,.76,1,2.66,1,2.68v0a13.84,13.84,0,0,1-1.25,6.62,2.57,2.57,0,0,0-2.14-2.6A3.26,3.26,0,0,1,46.9,43.07Zm2.3,2.41.1,0a2.39,2.39,0,0,1,.73.28,6.84,6.84,0,0,0-2.13.61l.28.6a5.62,5.62,0,0,1,2.48-.57,2.08,2.08,0,0,1,.19.53c-2.08-.48-5.34,2-5.84,2.49,0,0,0,0,0-.07A2.66,2.66,0,0,0,45,49c.05-.12.11-.26.19-.42C46.06,46.84,48.91,45.61,49.2,45.48Zm-4.93,5.9a32.15,32.15,0,0,1,3.21,4.75l-.05,0a19.41,19.41,0,0,0-1.12,4.28c-.23,1.15-.37,2-.46,2.6a1,1,0,0,0-1-.28,1.88,1.88,0,0,0-1,.51C44.16,61.27,45.18,54,44.27,51.38ZM43.2,63.51l.36.06A4.23,4.23,0,0,0,43,64.75,7,7,0,0,0,43.2,63.51Zm-.92-.43A.81.81,0,0,1,42.5,63c.35.37-.52,3.11-1.11,4.42C41.17,66,41.1,63.7,42.28,63.09Zm-2.6-2.42c.17-.2.28-.26.32-.26h0c.67.39.72,5.33.44,6.07a.57.57,0,0,1-.46.4c-.07-.17-.18-.45-.3-.79h0s0-.09-.1-.23C39.13,64.39,38.59,62,39.68,60.66Zm-6-3a.37.37,0,0,1,.24-.25c.52-.05,2.54,2.3,4.4,5.12l.09-.06a7.44,7.44,0,0,0,.05,1.27l-.31-.51a21.29,21.29,0,0,0-2.88-3.78L34.8,60a21.07,21.07,0,0,1,2.78,3.65c.88,1.45,1.25,2.15,1.4,2.46.16.49.31.87.41,1.08-.25-.39-1.82-2.82-3.6-5.37C34.63,60.15,33.48,58.38,33.67,57.7Zm5.74,9.52.06.13.07.16.17,0h.18a1.26,1.26,0,0,0,.81-.31,11.85,11.85,0,0,0,.21,1.18l0,.06c-.42-.11-.82-.2-1.18-.26L40,68s-.32-.32-.74-.66ZM35.56,65c.09,0,.25,0,.38.2a3.58,3.58,0,0,1,.34.5A2.66,2.66,0,0,0,37.51,67a8,8,0,0,1,1.62,1.17,10.46,10.46,0,0,0-2-.1l-.21,0-.07.2A2.43,2.43,0,0,0,37,69.84l-.23,0,.05-.08a3.84,3.84,0,0,1-1.52-3C35.18,65.52,35.41,65.1,35.56,65Zm-.22,5a2.51,2.51,0,0,0-.6.4A15.88,15.88,0,0,0,30,66.94c-1.86-1-3.24-1.68-4.2-2.1,1.35.48,2.73,1.05,4.19,1.72C33.47,68.16,34.84,69.45,35.34,70.05ZM10,66.4a17.61,17.61,0,0,1,6.57-2.7,16.4,16.4,0,0,1,7.57.6l-.16.53a36.5,36.5,0,0,1,5.7,2.69,14.87,14.87,0,0,1,4.59,3.42,9.58,9.58,0,0,0-.86,1.23,35.77,35.77,0,0,0-10.63-7C18.13,63.37,12.67,65.32,10,66.4ZM28.1,73.72H28a22,22,0,0,0-6.09,1.34l-.9.29c.14-.43.87-1.49,3.41-2.41a19.17,19.17,0,0,1,7.07-1l0-.52c.72.61,1.25,1.1,1.53,1.38L33,73a21.82,21.82,0,0,0-2.38-.33,10.91,10.91,0,0,0-3.9.15l.19.63a10.57,10.57,0,0,1,3.64-.12c1.21.12,1.84.22,2.16.29-.1.25-.19.5-.27.74A15,15,0,0,0,28.1,73.72Zm3.52,10.17a13.73,13.73,0,0,0-4.35,6,4.24,4.24,0,0,1-.81,1.45c-.08,0-.19-.06-.25-.12-.44-.51-1-2.91,1.93-7a12.16,12.16,0,0,1,7.7-5.22,5.81,5.81,0,0,0,.7,2A21.09,21.09,0,0,0,31.62,83.88Zm9.29-2.06-.42-.18a.67.67,0,0,0-1,.39c-.07.15-.09.17-.14.18s-.32,0-.95-.27a4.29,4.29,0,0,1-2-3.76.38.38,0,0,0,.2-.19l-.21-.09a6.49,6.49,0,0,1,.37-2.26A2.65,2.65,0,0,1,39.53,74a5.1,5.1,0,0,1,1.16.13l.42.1a3.7,3.7,0,0,1,2.77,2.07c1,1.78-.39,3.65-1.33,4.89l-.13.17C41.77,82.21,41.55,82.11,40.91,81.83ZM21.65,99.14a35.19,35.19,0,0,0-5-1.25,14.12,14.12,0,0,1-1.85-.42,14.56,14.56,0,0,1,7.35-.14,34.89,34.89,0,0,1,8.17,2.88c-.64.07-1.3.16-2,.25l.06-.08a14.2,14.2,0,0,0-5.11-2.26,24.44,24.44,0,0,0-4.76-.81V98a21.94,21.94,0,0,1,4.6.79,15,15,0,0,1,4.4,1.82l-1.47.27h0A29.77,29.77,0,0,0,21.65,99.14Zm25.58,21.35h0l0,.34a24,24,0,0,1-.12,9c-.48-3.12-2.82-7.81-7.3-14.67-4.08-6.25-7.23-8.55-8.69-9.35a32.26,32.26,0,0,1,5.63-.69A69.34,69.34,0,0,1,44,114.42C47,119.35,47.22,120.46,47.23,120.49Zm-3.69-16.55a14,14,0,0,0-1.62-.71,38.34,38.34,0,0,0-23,1.83C7.49,110,4.4,113.93,4.27,114.1l.53.4s3.15-4,14.41-8.83a37.65,37.65,0,0,1,22.5-1.81c1,.38,2.77,1.21,3.17,1.93l0,0-.14-.05a18.59,18.59,0,0,0-4.16-1.07,21.76,21.76,0,0,0-3.48-.24l-.25-.27-.29.28c-3.59.12-8.7,1.09-17.24,4.12a34.74,34.74,0,0,0-12,7.49c-2.52,2.22-4,3.57-6,2.68a1.08,1.08,0,0,1-.73-1.07c.05-3.18,9.29-10.5,15.76-13.25A48.28,48.28,0,0,1,34,100.66a16.87,16.87,0,0,1,5,.64A11,11,0,0,1,43.53,103.94ZM38.6,98.41a7.71,7.71,0,0,0-1.68.52,3.42,3.42,0,0,1-2.59.34,14.2,14.2,0,0,1,4.18-2.14l0-.06.13.11a5.63,5.63,0,0,0-1.91,1l.5.43A6.25,6.25,0,0,1,39,97.73L39,97.5q.43.39.84.84A6.3,6.3,0,0,0,38.6,98.41Zm2.2,0a15.11,15.11,0,0,0-7.42-4.78l-1.15-.34a5.57,5.57,0,0,1-1.43-.51s0-.08.17-.26a.9.9,0,0,1,.64-.16,18.53,18.53,0,0,1,7.21,2.48,18.25,18.25,0,0,1,4.8,4.25,1.14,1.14,0,0,1,0,.13l.2.09a17,17,0,0,1,2.14,3.35,1.51,1.51,0,0,1,.17.79A16.17,16.17,0,0,0,43.27,99a19.8,19.8,0,0,0-6.64-5.13l-.27.6a19.47,19.47,0,0,1,6.4,4.94A22.21,22.21,0,0,1,45,102.69,40.57,40.57,0,0,1,40.8,98.44Zm5.95,4.74a3,3,0,0,0-.2-.75,17.11,17.11,0,0,0-2.23-3.53,32.3,32.3,0,0,0-.45-6.48c-.5-3.69-.67-6.67-.76-8.46a6.48,6.48,0,0,0-.21-2l-.24.13a4.41,4.41,0,0,0,.3-.36l.13-.17c1-1.29,2.63-3.46,1.38-5.62a4.36,4.36,0,0,0-3.19-2.38l-.39-.1h0c-1.26-.32-3.85-.33-4.67,1.94a7.22,7.22,0,0,0-.42,2.2c-.76,0-2.28-.25-2.77-1.12-.64-1.14.86-4.26,2.13-5.5a2.11,2.11,0,0,1,2.46-.26l0-.05a3.29,3.29,0,0,0,.85.52,7.71,7.71,0,0,0,3,.55A9.35,9.35,0,0,0,43,71.64h0c0,.73,1.06,1.34,1.92,1.75a14.07,14.07,0,0,1,1.81,1.08,3.81,3.81,0,0,0,1.63.8h0A52.36,52.36,0,0,0,46.27,84l-.2,1.4.75-1.1a10.23,10.23,0,0,0-.61,4.78c.18,1.21.41,2.23.59,3A8,8,0,0,1,47.11,94c-.22.13-.53.31-.32.74a1.18,1.18,0,0,1,.12.57c0,.83.37,6.39.45,7.58Zm1.56.44c-.44.06-.91.13-1.26.16a14.62,14.62,0,0,1,1.52-.68l.26.45Zm1.85.45,0,0c.46-.05.94-.1,1.45-.13a13,13,0,0,1,3.78,3.61l.54-.38a14,14,0,0,0-3.18-3.26c.43,0,.87,0,1.32.05a18.34,18.34,0,0,1,3,2.85c.17.28.33.57.49.88a14.91,14.91,0,0,0-2.73.21A13.68,13.68,0,0,0,50.16,104.07Zm7.73,4.28.24.52a8.42,8.42,0,0,0-2.18-.47A13.26,13.26,0,0,1,57.89,108.35Zm1.63,6c0,.06-.05.09-.14.08-1,0-1.85-1.67-2.87-3.59-.29-.55-.61-1.14-1-1.74a7.76,7.76,0,0,1,2.94.67C59.34,111.78,59.83,113.76,59.52,114.3Zm.42-4.55a8.91,8.91,0,0,0-1-.53c-.12-.28-.24-.55-.36-.82.25,0,.51.06.76.11,3.88.72,7.6,6,8.2,8.18.23.83.38,1.48.47,2l-.18-.2a15.94,15.94,0,0,0-2.73-5.5c-2.37-3.43-5-4-5.1-4.06l-.14.64s2.48.57,4.7,3.79a19.77,19.77,0,0,1,2.26,4.13,10.76,10.76,0,0,0-1.93-1.34l.18,0C65.09,116,64.2,112.49,59.94,109.75Zm2.2,9.42c-1.14.82-2.32,1.67-3.15,1.67h-.12c.09-.47,1.6-2,3.4-3.48h.14l.17,0a9,9,0,0,0-1,.85l.46.47a7.11,7.11,0,0,1,1.52-1.16h0a7.55,7.55,0,0,1,.79.23A15,15,0,0,0,62.14,119.17Zm3.27-1.64v-.05h-.09a8.15,8.15,0,0,0-2.86-.79c-.41,0-.79-.05-1.14-.05A8.25,8.25,0,0,0,56.57,118c-.71.44-.73.4-.85.22a.82.82,0,0,1,0-.9c.49-.85,2.24-1.77,5.59-1.58a9.19,9.19,0,0,1,6.28,3.41A7.9,7.9,0,0,0,65.41,117.52Zm12.39-7.27c-.8,1-2.95,4-4.23,5.8l-.82,1.14c-.93.59-2,1.3-3.24,2.09.28-.5,1.48-2.61,3.3-5.89,1.94-3.51,3.47-7.05,3.68-7.53a1.93,1.93,0,0,1,1.29,1,1.47,1.47,0,0,1,.11.49,7.85,7.85,0,0,1-1.15,2.74l.54.38a6.74,6.74,0,0,0,1.13-2.12,1.14,1.14,0,0,0,.48.59C78.66,109.19,78.32,109.61,77.8,110.26Zm5.49-4.41c.14.14.33.31.53.53a2.75,2.75,0,0,0-.61-.38Zm-.38.74a2.15,2.15,0,0,1,1.07,1l.28.59a18.29,18.29,0,0,0-2-.58l-.14.65a20,20,0,0,1,2.61.81,1.39,1.39,0,0,0,.78.37l.08,0c.66.28,1.39.61,2.15,1-1.15-.27-2.67-.6-4.41-.85a24,24,0,0,1-2.71-.53A5.7,5.7,0,0,0,82.92,106.58Zm1.66.76a3.06,3.06,0,0,0-.15-.27,5,5,0,0,1,.85,1.43l0,.1-.19-.07C85.06,108.37,84.91,108,84.58,107.33Zm-3,10.79c-.18,0-.41,0-.49-.16s.05-1,.31-1.89c.17-.59.38-1.32.56-2.15a7.57,7.57,0,0,0,.26-3.18c.41.09.88.17,1.39.25a4.6,4.6,0,0,1-.56,3c-.38.81-.77,1.51-1.09,2.07-.55,1-.74,1.3-.5,1.58a.39.39,0,0,0,.31.14.73.73,0,0,0,.25-.05,10.06,10.06,0,0,0,3.7-4.4c-.1.36-.23.77-.42,1.26C84.64,116.31,83,118.19,81.57,118.13Zm4.21-5-.62-.16a9.37,9.37,0,0,1-2.82,3.77l.19-.34c.32-.57.72-1.28,1.11-2.11a5.67,5.67,0,0,0,.65-3.14c.55.08,1.12.2,1.7.35A4.62,4.62,0,0,1,85.78,113.1Zm5.42,5.44c-.59-.12-1.88-3.8-2.52-6.17.37.15.73.32,1.08.49C90.82,115.6,91.48,118.23,91.2,118.55Zm2.19-2.94c1.49,1.93,1.84,3.55,1.62,3.91,0,0,0,0-.14,0-.47-.1-1.52-2.33-2.08-3.53-.4-.85-.7-1.48-.95-1.89A8,8,0,0,1,93.39,115.61Zm-2.3-2.77a19.69,19.69,0,0,0-6.94-2.41c-.7-.1-1.31-.21-1.84-.33l1,.15a48,48,0,0,1,6.42,1.39A11.73,11.73,0,0,1,91.1,112.84Zm-4.4-5.2a14.73,14.73,0,0,1,1.77,2.43l-.09-.05c-.84-.45-1.63-.82-2.35-1.13a2.1,2.1,0,0,0-.12-.61,9,9,0,0,0-2.33-3.08l.12-.31A12.63,12.63,0,0,1,86.7,107.64Zm-5.57-4.53a.68.68,0,0,0,.54.42,2.41,2.41,0,0,1,1.44.69.29.29,0,0,1,0,.24c-.18.75-1.82,4.35-3.32,4.1-.85-.14-.86-.42-.88-1.12a3.28,3.28,0,0,0-.38-1.66,10,10,0,0,0-.6-.9c-.47-.65-.59-.81-.17-1.44a1.64,1.64,0,0,1,1.22-.61c.54-.1,1.2-.22,1.36-1,.08-.38.52-.58.93-.62h.11a.66.66,0,0,1,.39.09h0C81.37,101.94,80.93,102.62,81.12,103.11Zm3.16-2.87.31,0a1,1,0,0,1,.78.61.93.93,0,0,1,.09.7l-.11.22c-.11.24-.25.51-.47.58a1.16,1.16,0,0,1-.83-.23,13.89,13.89,0,0,1-1.62-1.06.67.67,0,0,0-.07-.14,2.68,2.68,0,0,1,1-.53l.06,0h0A3,3,0,0,1,84.28,100.24Zm.7-3.5.38-.1a.39.39,0,0,1,0,.17,11.44,11.44,0,0,1-2.35,3l-1,.29c0-2,.42-4.54,1.21-4.58h.1c.56,0,.59.24.63.63a.78.78,0,0,0,.24.6.5.5,0,0,0,.4.08ZM88.7,86.16c-1.48,3.08-4,7.6-4.64,8.84a1.53,1.53,0,0,0-.71-.15h-.11c-1.13.05-1.57,1.94-1.74,3.56a3.23,3.23,0,0,0-.61-.92l0,0A49.5,49.5,0,0,0,85,90.4a41.52,41.52,0,0,0,3.11-7.46,2.61,2.61,0,0,0,1.81.81l.29,0h0A11.54,11.54,0,0,0,88.7,86.16Zm4.38-13.34-.16.29a.47.47,0,0,0,0,.46c.19.34.73.39,1.92.47a6,6,0,0,1,2.5.47,4.64,4.64,0,0,1,.41.4,2.36,2.36,0,0,1-.55.21c-.37.11-1.11.05-2.58-.83A1.41,1.41,0,0,0,93.34,74c-.46.21-.65.81-.8,1.71a1.08,1.08,0,0,0,1,1.44c.33.08.53.13.63.36v0l-.47.26.15.27,0,0a5.12,5.12,0,0,0-1.67,2.7,2.77,2.77,0,0,1-2,2.24c-.82.1-1.62-.43-2.27-1.53a2.89,2.89,0,0,1-.35-2.36v0h0V79A5.32,5.32,0,0,1,90,76.41a6.71,6.71,0,0,0,2.09-2l.05-.08v-.1a.46.46,0,0,0-.34-.49,2.58,2.58,0,0,1-.86-.62,3.76,3.76,0,0,1-1-1.78l.07-.05-.11-.13a1.39,1.39,0,0,1,0-.38,4,4,0,0,0,.52-.39c.41,0,.63.36.84,1h0c0,.13.09.25.13.41A4,4,0,0,0,92,73.13a.52.52,0,0,0,.54.23c.4-.08.53-.6.76-1.47s.53-2,1.07-2.14C94.42,69.91,94.35,70.51,93.08,72.82Zm1-3.64c-.83.25-1.16,1.51-1.43,2.55-.07.27-.16.62-.24.84a4.85,4.85,0,0,1-.37-1l-.1-.33a6.26,6.26,0,0,0-.53-3c-.45-1-.94-2.2-.68-2.89a.86.86,0,0,1,.52-.49c.24.12.34,1.41.39,2,.09,1.17.16,1.85.52,2.11a.52.52,0,0,0,.43.1c.54-.11.93-.94,1.37-1.9.24-.51.68-1.47.93-1.49.31.34,0,.83-.28,1.35-.19.3-.35.56-.16.8s.51.13.66.08a9.43,9.43,0,0,0,.88-.35l0,0A12.36,12.36,0,0,1,94.08,69.18Zm2.77-2.08a.42.42,0,0,0-.15-.26c-.24-.2-.55-.07-1,.14l0,0a16.63,16.63,0,0,0,1.77-3.86,17.45,17.45,0,0,0,.91-7,3.41,3.41,0,0,1,1.6,1.25l0,0a5,5,0,0,1,.74,2.81c-.48.68-1,1.47-1.69,2.42A19.84,19.84,0,0,0,96.85,67.1Zm9.49,4.78a1.4,1.4,0,0,1-.2.06,3.68,3.68,0,0,1-.13-1.09,18.64,18.64,0,0,0-.38-3.22,14.64,14.64,0,0,0-2.06-4.89,5,5,0,0,1,1.17.44,5.26,5.26,0,0,1,.53.32,15.81,15.81,0,0,1,1.88,5C107.4,70.78,107.22,71.55,106.34,71.88ZM109.47,67c.1.35,0,.45,0,.45-.18,0-.67-.75-1-1.24a10,10,0,0,0-3.47-3.66,5.64,5.64,0,0,0-2-.63l-.06-.07-.07.06a6,6,0,0,0-2.88.49l.77-1.11,0,.05s1.39-.8,4,.4A10.85,10.85,0,0,1,109.47,67Zm6.62,6.6c-.11,0-.26,0-.3-.25s-.06-.49-.09-.87c-.18-2.24-.56-6.89-3.85-9a12,12,0,0,0-3.16-1.33l.14,0a8.1,8.1,0,0,1,5.25,3.33l.56-.34a8.62,8.62,0,0,0-5.7-3.64,8,8,0,0,0-3.29-.05,6.1,6.1,0,0,0-.56-.3l-.13-.05a7.29,7.29,0,0,1,5.54.24c3.07,1.43,6.54,4.74,6.91,8.64C117.63,72.41,116.66,73.55,116.09,73.63Z"/><path class="cls-1" d="M112.42,55.35l.49-.45s-1-1.06-4.15-1-4.45,1.41-4.5,1.46l.47.47a6.3,6.3,0,0,1,4.06-1.27C111.55,54.5,112.42,55.34,112.42,55.35Z"/><path class="cls-1" d="M87.58,107.09a2.46,2.46,0,0,0,1.57,1.16,9,9,0,0,1,1.51.46,3.52,3.52,0,0,0,1,.28,7,7,0,0,0,.79,0,2.23,2.23,0,0,0,1.72-.54,1.07,1.07,0,0,0,.12-1.07c-.34-1-1.46-3.09-2.52-3.52a.89.89,0,0,0-.68,0,1.31,1.31,0,0,0-.2-1.44,6.22,6.22,0,0,0-2.52-1.75,2.52,2.52,0,0,0,.92-.78,2,2,0,0,0,1.93,1.78h.39c1.2,0,1.92-.42,2.11-.88a.7.7,0,0,0-.21-.82,1.38,1.38,0,0,0-1-.29,2.36,2.36,0,0,1-1.21-.27A3.47,3.47,0,0,0,89.9,99l.41-.27a10.73,10.73,0,0,0,2-1.52,5.61,5.61,0,0,0,2-3.49V93.5l-.16-.1c-.1-.06-.51-.26-1.51,0a3.74,3.74,0,0,0-2.53,2.44,1.56,1.56,0,0,1-.94,1,.65.65,0,0,1-.33,0c-.08-.12-.24-.44-.39-.73-.48-1-.59-1.18-.91-1.11l-.27.12v.26a3.87,3.87,0,0,1-.19.63,13.3,13.3,0,0,0-.67,2.67,2.5,2.5,0,0,0,.27,1.92.77.77,0,0,0,.38.25.68.68,0,0,0,.23.08.91.91,0,0,0-.13.12l-.24.27.32.17s.32.35-.07,1.92A4.91,4.91,0,0,0,87.58,107.09Zm2.82-4.23c.36.43.09.88-.31,1.42a1.92,1.92,0,0,0-.28.46.41.41,0,0,0,.1.5c.23.15.42,0,.56-.14a4.11,4.11,0,0,1,.87-.6s.08,0,.21,0c.72.29,1.78,2.06,2.14,3.12.1.3,0,.41,0,.45-.21.26-1,.37-1.91.25a2.89,2.89,0,0,1-.85-.23,9.76,9.76,0,0,0-1.61-.49,1.8,1.8,0,0,1-1.15-.87,4.31,4.31,0,0,1-.33-3.17,3.69,3.69,0,0,0,.07-2.28H88C88.58,101.22,89.76,102.1,90.39,102.86ZM91,100a3,3,0,0,0,1.51.35c.3,0,.44,0,.61.2-.07.18-.63.54-1.84.46a1.4,1.4,0,0,1-1.35-1.39A3.24,3.24,0,0,1,91,100Zm-4-1.26a12.74,12.74,0,0,1,.64-2.55l0-.07.13.26a8.77,8.77,0,0,0,.43.81.8.8,0,0,0,.8.28A2.13,2.13,0,0,0,90.71,96a3.08,3.08,0,0,1,2.05-2,3.14,3.14,0,0,1,.82-.09,5.63,5.63,0,0,1-1.73,2.78A10.1,10.1,0,0,1,90,98.14a2,2,0,0,0-1.07,1.13,1.59,1.59,0,0,1-.85.84,1.32,1.32,0,0,1-.66.17l0-.07h-.12C87.13,100.19,86.9,99.86,87,98.76Z"/></g></g></svg>