<svg xmlns="http://www.w3.org/2000/svg" viewBox="0 0 80.79 177.57"><defs><style>.cls-1{fill:none;stroke:#fff;stroke-miterlimit:10;stroke-width:0.66px;}</style></defs><title>שן ארי</title><g id="Layer_2" data-name="Layer 2"><g id="Layer_1-2" data-name="Layer 1"><path class="cls-1" d="M20.7,3.34c.23,0,.34,10.2.8,10s.21-9.24.22-10.08,1.7-1,1.81-1.47-.08-1-1-.54A10.53,10.53,0,0,1,20,1.82c-1.21.3-1.4,6.62-.26,9.43a23.31,23.31,0,0,1,1.15,8.11c-.14.33-.51-.36-.45-1.42s-.57-2.12-2-5.17-.07-9.18,0-9.68.14-1-.36-1.13-.82.72-1.05,1-.66.27-.94-.09-2.68.55-3,1.18,1.09,2.56.45,2.61-1.32-1.41-1.88-1c-.82.55-2.41,1.45-2.45,1.74s.56,1.38,2.09,3.77,5.63,6.17,6.45,7.06,0,1.54,0,1.9-.78-.39-4.21-3.3-8.27-5.3-8.39-5.61.55-1,1.16-1.07,4.51,3.11,4.7,2.76S7.22,9.71,6,9.34s-3,1.23-2,1.9,3.81,3,7.15,5.29,4.6,5,4.59,5.25.11.39-.83-.37-1.86-1-6-2.23a8,8,0,0,1-5.34-4.1c-.26-.33.19-.5.51-.66s.62.3,2.68,2.08,4.4,2.51,4.41,2.26-1.6-1.21-4.39-3.07-3.48-3.91-3.45-4.12A6.84,6.84,0,0,0,.37,12.81c-.2.42.33,2,3.41,4.47s5.5,1.77,9.28,4.3,5.3,5.66,5.48,7.56c.51,5.1,2.24,6,3.34,6.71a5.34,5.34,0,0,0,4.09.21c2.22-.7,3.26,0,5.62-1.44,3-2.26,1.39-5.16.53-8.73a32.43,32.43,0,0,1-.46-8.47,32.6,32.6,0,0,0,3.43-2.37,13.71,13.71,0,0,0,4.51-6.47c1.08-3.22,1.33-4.3.72-4.18a1.67,1.67,0,0,1-1.52-.53c-.19-.3-.74.11-.81-.12s.16-2.71-.11-2.32S37.43,5,35.74,7.88,32,13.44,32.88,13,37.78,5,38.39,5.12s1.12,2.88-1.22,6S30.64,17.06,31,16.29s2.37-1.75,3-2.76"/><path class="cls-1" d="M23.44,12.61s-.74-4.17.31-6.58A22.57,22.57,0,0,0,25.31.77c.06-.49,1.16-.06,1.93.18s1.6-.4,1.89.1.69.51.51,1.2S27.95,7.4,27.18,9.73s-.49,3-.32,2.54,3.26-10.71,3.6-11.09,1.11.58,1.35.28S33.11,0,33.48.43A4.69,4.69,0,0,0,34.8,1.65c.43.17,0,1.83-1.1,5S29.85,14.73,29.77,14s3.33-7.9,2.39-7.42-2.69,5.95-2.69,5.95"/><path class="cls-1" d="M18.53,24.14s1.31,7.07,3.37,9,2.72,1.14,2.52.52-3.27-9.46-2.22-9.43,3.07,9.86,3.59,9.32S26,22.72,26.35,24s2.13,11.2,3.1,10-1.76-9.3-1.32-13a10.74,10.74,0,0,1,2.2-5.68"/><path class="cls-1" d="M18.17,31.1A6.12,6.12,0,0,0,13,33.78c-2,2.91-2,6-1.56,5.71s.36-2.31,1.81-3.47,2.5-1.51,2-1.58-1.66.47-1.53,0,1.1-1.21,2.82-1.89-.26-.55-.37-.46"/><path class="cls-1" d="M19.32,34s-3,0-2.69.42.65.25.41.74a5,5,0,0,0-.67,4.45c.85,2.28,1.14,2.94,1.29,2.78s-1.14-4.77.11-6,.6-1,0-.82.31-.68,1-.94S19.69,34.06,19.32,34Z"/><path class="cls-1" d="M21.92,36.26a5.08,5.08,0,0,0-.82,4.59c.79,2.77,1.88,3.44,1.62,4.53s-.48,2.08-.2,2a4.76,4.76,0,0,0,2.07-3.72c.18-2.31.33-5.34,1-6.13s.55-1.28.11-1.13S23.8,37.5,23.4,42.58"/><path class="cls-1" d="M33,26.72a6.34,6.34,0,0,1,1.71-3.24c1.57-1.79,2.84-2.11,2.76-1.83S35.56,23,35,25.08s-.74,2.56-.31,2.51a2.78,2.78,0,0,1,3.21.41c1.56,1.38,1.81,2.39,2.74,3s.77.69.33.78-2-1-4.34-1A4.65,4.65,0,0,0,33.28,32"/><path class="cls-1" d="M36.25,31.95s-4,.71-2.28,1.16,3.16-.86,5,.43,3.35,4.36,2.52,4.19-1.2-1.66-3.15-1.91a6.72,6.72,0,0,0-3,.16"/><path class="cls-1" d="M27.06,35.93s-.47,1.78,2.68,3.84A11.56,11.56,0,0,1,34,44c.49.73.65.45.65.18s.88-3.84-.35-5.67-3.85-.93-3.85-1.72S32.09,35,33,35.29s-1.87.74-.94.93,2.67-.1,3.49,1.56,1.52,5.6,1.58,4.62-.41-5-2.1-7a7.47,7.47,0,0,0-2.46-1.8"/><path class="cls-1" d="M26.19,37.25s0,5.48,1.91,9.41,1.53,4.41,1.41,5.92.53,4.36,1,10.49,1.25,20.17.34,30.23-1.13,21.07-.8,20"/><path class="cls-1" d="M31.12,40.62s-.54.53.17,1.87a4.42,4.42,0,0,1,.76,3,16.52,16.52,0,0,0,.16,3c.06,1.13,1.65,12.08,1.91,21.89s-.76,26.32-.73,26.58c1.56,12.18.86-22.27-.48-34.06s-1.82-12.3-1.82-12.3"/><path class="cls-1" d="M74.46,52.63s5.46-.65,5.41.13-3.62,1.43-2.9,1.76,2.57.41,2.49.83,1.26,3.87-.62,3.17a46,46,0,0,1-4.94-2.44"/><path class="cls-1" d="M52.63,45.08a7.1,7.1,0,0,0-2-3.63C49,39.71,48.43,39,49.23,38.71a4.32,4.32,0,0,0,2-1.18c.43-.52,1-.52,1.49.33a22.9,22.9,0,0,1,2,5.26c.06,1,.27,1,.27,1,.12-.26.32-1.56-.13-4.16s-1.34-6-.38-5.52.62,1.16,1.27.85S58,34,58.43,36.4s-1.06,7.53-.63,7.52,1.28-1.24,1.73-4.33-.49-4.2.64-3.92a9.37,9.37,0,0,0,2.26.57c.53-.06,1.19,1,.41,4.83s-1.34,4.08-.92,3.92,0-1.76-.23-2.54"/><path class="cls-1" d="M61.52,45.54s.93-8,2.46-7.21.19,2.35.81,2.06,2.39-.26,2.17.56-2.76,5.72-3.37,5.65,1.28-3.12.39-2.43-1.39,2.53-1.24,1.61.64-2.41.14-1.89"/><path class="cls-1" d="M49.09,39.82s-1.38-.23-1,.52,2.11,2,1.31,1.82-1.17-.71-1.5-.54-.92,1.95-1.18,1.61-2.31-.12-.81,1.38,2.48,2.48,3.7,2.71-.09-.77-.72-1.63.5.18,1.19.54.81-.08.61-.26c-.57-.51-1.57-1.67-.78-1.15a3.3,3.3,0,0,0,1.82.61"/><path class="cls-1" d="M50.06,48.07s-1.31-1.79-2.59-1.37-2.21,2-1.75,2.94,3.18,2.07,4.1,2.28.17-.35-.74-1-2.27-2.21-1.18-1.59,2.2,1.75,1.88,1.13-2.49-2.41-1.68-2l1.84,1"/><path class="cls-1" d="M50.73,52.26s-5,2-5.76,2.48.1,1.3.06,1.7a1.84,1.84,0,0,0,.63,1.42c.37.2.43.28.47.5s0,.55.51.24a10,10,0,0,0,2.47-2.47c0-.36-.22-.48-1,.3s-1.21,1.11-1.11.78,1.91-1.41,1.66-1.89-1-1.23-.5-.78,1.24,1.4,1.46,1.31,1.62-1.5,1.21-.88-1.21,1.7-.72,1.7,2.72-2.19,2.18-1.49-6.22,4.31-5.95,5,1.62,1,1.23,1.27-1.83.91-1.24,1.74,1.13.72,2-.07,3.4-4,2.68-4.74-1.34-1.33-.77-1,1.24,1.21,1.41,1,1.8-2.64,1.73-2.21a48.42,48.42,0,0,1-4.7,7c-1.14,1.15-1.89,1.29-1.14,1.78a8.53,8.53,0,0,1,1.77,1.93c1,1.23,2.1.93,2.45.12a39.91,39.91,0,0,1,2-5.25A30.4,30.4,0,0,1,56.18,58"/><path class="cls-1" d="M54,56.47s-2.22,2.47-1.9,3.07,1.84,1.92,2.33,1.78,1.17-2.78,1-3.22S54.16,60.22,54,59.7s.84-2.21.39-2-.72.7-.67.31"/><path class="cls-1" d="M51.55,67.47s.72.86,1.06.52.69-.87.66-.48-.05.92.46,1,1.16,1,1.22-1.09.2-5.44-.18-5.09-1.15,2.82-1.32,2.23c-.1-.37.35-2.42.07-2.37"/><path class="cls-1" d="M56.79,58.34S54.3,61.95,55,62.41s1.74-.41,2.12.1.76.69,1.06.62.6,0,.81-.44a14.7,14.7,0,0,0-.09-4.11c-.18-.48-.53,2.05-.89,2.12s.28-2.49.14-2.13-.45,1.52-.52,1,.19-1.37-.07-1.05-1.81,4-1.7,3.29S57.17,58.33,56.79,58.34Z"/><path class="cls-1" d="M55.61,62.62s-1.74,3-.7,3.58,1.77-.44,1.7.08-.15.48.1.56,2.21.58,2.11.14a13.34,13.34,0,0,1-.54-3.33c.1-1-.43-.69-.68-.35s-.77,1.07-.69.51S56,62,55.61,62.62Z"/><path class="cls-1" d="M55.12,66.51s-1,2.1-.32,2.34,1,.36,1.21.76,2.48,1.43,2.63,1a9,9,0,0,0-.44-3.32c-.26-.24-.4.75-.51,1.5s-.33.83-.41.31c-.16-1-.16-2.53-.22-2s-.92,1.92-.84,1.33.41-1.6-.14-1.82S55.29,66.2,55.12,66.51Z"/><path class="cls-1" d="M60.43,58.36s1.84,4.37,1.2,4.5-1.31-.64-1.42-.43a1,1,0,0,1-.91.54C58.9,62.89,59,62,59,61.11s-.08-2.56.08-2.35.39,1.2.49.71.15-.74.25-.38,1,3.58.89,2.58S60.32,58.14,60.43,58.36Z"/><path class="cls-1" d="M61.72,62.67s2.8,7.37,2.23,7.54-.9-.79-1.23-.48-1.51,1.35-2,1.1.05-5.34-.45-5.86.33,5.83-.24,6-1.34-.31-1.31-.68,0-4.45.21-5.85.24-1.56.24-1.56"/><path class="cls-1" d="M62.51,57.25s2.72,1.29,3.56,2.93-1.15.12-1,.59,1.23,1.43.55,2-1.9,0-2,.53-1.09.85-1.23.62-1.28-5-1.48-5.56.65-.77.91-.47,1.72,4.53,1.48,3.25S62,57.17,62.51,57.25Z"/><path class="cls-1" d="M63.8,63.27s2.31,6.19,2.86,6,.43-2.11.84-1.57.85,1.12,1.2,1,.61-1.09.83-.79a.91.91,0,0,0,1.23.08c.42-.33-.77-1-1.29-1.85"/><path class="cls-1" d="M64.4,63.1s1.15,3.95,1.7,3.42.17-1.4,1.35-1.27,1.34-.32,1.32-.63-1-3.5-.63-2.71.66,3.53,1.47,3.53.7-1.05,1.12-.65.63.58.95.37.87-.43.61-.81-3.55-4.06-3.09-3.82,2.05,1.12,1.91.77"/><path class="cls-1" d="M62.62,56.91s6.83,4.33,5.75,3.9-2.16-1.24-1.85-.53,1.85,4.43,1,3.51a15.09,15.09,0,0,1-1.82-2.91"/><path class="cls-1" d="M70.51,65.06s1.58,2.41,2,2.3-.31-1.72.17-1.34.55.87.69.81,1.41-.72,1.37-1.16-3.12-4.11-2.46-3.53S75,66,75.38,65.79s-.48-2.44-2.23-4S68.7,60,68.92,59.69s.42-.78,1.29-.3S76.94,63.75,77,63s.31-2.59,1.07-2.53,1.71-1,1.49-1.44S75.5,57.24,75,57.21s-2.13,1-1.29,1.49,2.85,1.31,1.88,1.12a31.07,31.07,0,0,1-4.33-2"/><path class="cls-1" d="M64.93,55s6-.69,6.3,0a3.39,3.39,0,0,1-.45,2.64C70.41,58,65.45,56,66,56.56s4.78,1.42,4.67,1.76a4,4,0,0,1-.82,1"/><path class="cls-1" d="M65.86,51.73s4.11-.69,4-.39.26,1.07.79,1.17,1.69.91,1.36,1.25-7.14,1-7.14,1"/><path class="cls-1" d="M69.91,51.33s6.11-1.69,6-1.23-5.54,1.69-4.59,1.7,4.35-.82,4.5-.47-.68.54-.39.95.65,1.7.19,1.67-1.68-.37-1.26-.06.88.65.39.91-1.2-.58-1-.18,0,1.06-.69,1.63-2-1.37-2-1.37"/><path class="cls-1" d="M63.87,46.84s4.36-7,4.77-6.48.06.64.79,1,.54,1,1.06,1.61.28,1-.25,1.26-1.83,1.17-1.44.69,1.38-1.73.85-1.62-1,.4-.94,0,.08-2.35-.48-1.43-3.65,5.69-2.79,5.1,2-1.74,1.61-1.12-2,2.56-2,2.56"/><path class="cls-1" d="M65.27,49s4.94-5.15,6.22-4.2-1.27,2.6-.49,2.45,1.21-1.37,1.81-.87S74.51,49,73.6,49s-7.26,2.69-6.51,2.22,4.74-2.15,3.32-2-4.34,2-3.87,1.43,2.69-2.41,1.78-2-3.21,1.89-2.54,1.27,1.91-1.48,1-1.21S65,49.24,65.27,49Z"/><path class="cls-1" d="M68.89,40.83s2.26-5.08,3.36-4.22,1.09,1.55,1.57,1.55.82-.2.89.21-.32.46.38,1.06.78.76.37.89-1.18-.55-1.55-.22-3.23,3.53-2.47,2.46,2.38-2.74,1.91-3.3S72.26,38.1,72,38.55s-1,1.45-.89.85.85-1.44.06-.87S68.84,41.1,68.89,40.83Z"/><path class="cls-1" d="M71.64,45.33s6.62-4.71,7.29-3.47c.3.54-.24,1-.5,1.47s.67.15,1,.86,1.61,3.4.66,3.17-6.52,1.37-6.18,1,3.15-1.82,2.09-1.54-2.19.87-1.83.4,4.08-2.17,3.51-2-2.55.68-2.18.42,2.18-1.17,1.41-1.13-1.68,1.28-1.68,1.28"/><path class="cls-1" d="M63.46,38s.44-8,1.59-7.13,1.26,1.95,2.24,2.05.92.32,1.47.46,1.73.3,1.22.78S68,37.63,67.89,37s1-3.45.5-3-2.31,4.86-1.95,3.47a16.57,16.57,0,0,0,.57-4"/><path class="cls-1" d="M59.45,36.42s-1.76-5.38-1-5.34,1.73.22,2.07,0,1.79-1.57,1.64-1-.58,5.4-.92,4.26-1.18-2.56-1.51-2.49"/><path class="cls-1" d="M54,35.1s-1.19-2.61-1.41-3.3,2.31-.18,2.62-.73,1.06-1.61,1.08-1.28,1.59,5.11.85,3.91a8.4,8.4,0,0,1-1-2.25"/><path class="cls-1" d="M51.39,32.3a2.91,2.91,0,0,0-1.72.66c-.58.61-.31.93-.84.6s-1.35-.94-.57.29,2.89,4.46,2.69,3.72-1.37-3-.58-2.1,1.36,1.59,1.32,1.52"/><path class="cls-1" d="M50.12,38.32s-3.37-4.7-3.92-4.48-1,1-2,1.35-1.17.63-.39,1.52,1.25,1.74,1.1.88-.2-2.37.38-1.92,1.95,1.81,1.83,1.29S45.19,37.2,46,38.5a4.11,4.11,0,0,0,2,1.65"/><path class="cls-1" d="M47.34,42.66s-.64-1.54-3.44-3.12-4.59-1.78-4.42-.8.6,1.54.34,2.34-.71,2.5,1.45,3,5.65,1.13,4.56.5-6.42-1.82-4.84-1.5,3.53.06,2.83-.52A5.28,5.28,0,0,0,42,41.68"/><path class="cls-1" d="M44.59,44.89s-1.85-.51-1.77.7a8.53,8.53,0,0,1,.13,2.31c-.15.71-1,.72.15,1s2.83.58,2.51.27-2.92-1.63-1.82-1.4l2,.45"/><path class="cls-1" d="M45.64,49.6s-3.56-.44-3.4.38.31,1.87.78,1.79,4.95-.65,2.92-.09-3.17.72-2.84,1.38.9,1.86,1.78,1.59,2.43-.92,2.43-.92"/><path class="cls-1" d="M43.06,53.2s-5.23,1.16-4.93,2.86.75,1.39.73,2-.16,1.51.23,1.69,1-.35,1-.35"/><path class="cls-1" d="M43.88,54.51s-2.87,1-2.1,1.08,2-.32,2.16,0,.59.51,0,.89-3.83,1.64-3.08,2.38,1,.73,1,1a2.45,2.45,0,0,0,.45,1.93c.66.85,1.17,1.19,1.34.87s3.17-4.28,3.08-4.18"/><path class="cls-1" d="M42.85,46.51a12.88,12.88,0,0,1-3.27-1.24c-1.64-.91-2.7-1.55-2.9-1S37.3,46,37,46.49s3,.63,2,.69-3,.36-2.34.82,5.07.64,3.76.78-4.05,1.41-2.86,1.58,4.21,0,3.25.07-3.55-.37-2.94,1.6.89,1.82.89,1.82"/><path class="cls-1" d="M57.69,44.54a11.92,11.92,0,0,0-4.23.31c-2.13.59-3.4,1.26-3.56,3.78s.83,1.73.77,3.42,1.39,3.07,3.59,4.61,3,2.33,3.12,1,1.21-6.27,2.75-4.84-1.28,6.11-.82,5.8,2.35-6.77,3.11-6.31-1.44,5.15-.59,5,4.14-3.47,3.75-5-1.21-2.08-1.65-1.74-.55.48-1,0-1.49-.81-.91-1.56,1.3-2.29.46-2.45-1.35,2.77-2.38,2.65-.88-.59-1.68-1-2.19,2.28-2,1.27,1.56-2.45.45-3.12,1.42-1.31,1.4-.62,1.21-.85,1.18-.4-.15,1.68.35,1.13.78-.9.57-1.14A13.81,13.81,0,0,0,57.69,44.54Z"/><path class="cls-1" d="M51.24,53.84s-.09-5.94,2.26-6.11-1.2,7.21-1.2,7.21"/><path class="cls-1" d="M52.7,55.37s.35-5.25,2.12-5.19-.74,6.44-.74,6.44"/><path class="cls-1" d="M54.49,56.71s.62-5.22,2.77-4.51-1.83,2.68-1.9,3.46"/><path class="cls-1" d="M48.32,65.89a149.37,149.37,0,0,0-9.6,24.44c-4.13,14-7.41,28.57-8.13,38.23s-.81,14.91-.34,13.57S32.82,111.28,38,95.87,46.63,73.61,46,76s-5.63,16.2-7.12,21.77-2.31,7.71-1.66,6.45S44.7,81.25,47.49,75s4.05-7.58,4.05-7.58"/><path class="cls-1" d="M36.93,105.78a171.23,171.23,0,0,0-4.6,29.52c-.83,15.09.26,18.6.26,18.6"/><path class="cls-1" d="M53.21,86.43s0-3.4,1.23-5.36,3-2.7,3-3.43-.14-.33.66-.8,1.22-1.27,1.55-1.1.21.26.78.36A6.39,6.39,0,0,1,62.8,77c.22.32,2.2.14,2,2.7a13.17,13.17,0,0,1-2.09,7C61,89.69,58.61,91,59,90s2-.6,3.5-3.71S64,81,63.82,81.48a31.93,31.93,0,0,1-2.11,4c-1.22,1.91-2,2.38-1.89,2.18a19.3,19.3,0,0,0,2.49-4.95c.57-2.19.55-2.41.2-2.22s-1.13.16-.95.7.84.06-.31,2-1.89,1.84-2.57,3.9-1,1.94-1,1.7a4.1,4.1,0,0,1,1-3.48c1.46-1.7,2.2-4,2-4.45s-1.17.83-1.29,1.7-.56,1.8-1.06,1.77-.59-.3-.66.22-.62,1.54-.74,2.21-.8.64-.33-1.31,3.52-6,3.29-6.26-2.94,2.52-3.67,4.18-.74,3.44-1.34,2.72.09-1.57.21-2.22-.63-2,0-2.24,1.12.22,1.4-.06,1.21-2,.66-1.78S56,81.15,56,81.15"/><path class="cls-1" d="M53.34,84.64a3.37,3.37,0,0,0-2.44-.54c-1.61.17-2.13,1-2.31,2.64s-.77,2-1.41,2.29-1.33.16-.75.4a3.25,3.25,0,0,0,3.17-1c1.11-1.14,2.24-1.14,2.09-.64s-.83,1.3-.86,1.91-.17.81-.86,1.14-2.57.78-1.8.91,2.45.36,3.49-.72c.66-.69.51-2,1.41-2.77a3.86,3.86,0,0,1,2.33-.7"/><path class="cls-1" d="M59.95,90.06a2,2,0,0,0,1.71,0c1.14-.39,1.64.18,2.34,1.41s.12,1.64-.41,2.39-1.2,1.43-1.1.92,1.08-3.63.51-3.59-4.33.52-4,1.22,1.45,1.81.49,3-2.36.73-2.79,1.54-.28,1.2-.43.82.14-.92.82-1.89,1.35-1.55.58-3a6.64,6.64,0,0,1-.58-3.34"/><path class="cls-1" d="M55.31,89.75s.56,1.86-.39,2.89-1.47,1.22-1.41,2.46,0,1.75.19,1.46.33-1.67,1.3-2,2.5-1.77,2.4-2.31"/><path class="cls-1" d="M51.08,91.44a19,19,0,0,1-3,5.77,72.24,72.24,0,0,0-8.47,16.42c-2.17,6.32-4.43,13.72-4.59,23.29a165,165,0,0,0,1.21,20.29"/><path class="cls-1" d="M55.76,89.3s-6.66,8-7,9.65,3.48-3.91,2.66-2.49-4.86,4.06-9.88,18.57-4.07,31.23-4.07,31.23"/><path class="cls-1" d="M30.93,87a54.93,54.93,0,0,1-6.59-.11c-2.17-.23-3.05-4.46-2.2-5.89s2.39-.34,4.64-.58,2.61-.18,1.71-2.14.35-3.3.41-4.38-2.18-3.22-2-6-1.91-8.31-6-11.4a24.08,24.08,0,0,1-6.35-7.46,69.48,69.48,0,0,0-4,7.59C8.95,60.39,8,66.66,6.88,71.93S4.07,82,5.84,81.7s3.76-1.2,3.54.09-1.27,2.46.73,2.18,3,.86,2.65,3.22S10,89.64,11.07,91.39s-.56,1.85-2,2.83S3.46,95,6,95.9s5.77,2.88,5.67,4.2S10,102.49,12,102s8.44.16,5.91,2.78-6.21,1.9-4.1,3.21,10.55,4.38,8.32,7.42-9.32,3.57-6.57,4.74,3.78,4.49,5.79,4.94,6.86,1.48,6.31,3.33-5.27,2.9-4,4.19"/><path class="cls-1" d="M28.64,127.19s-2-10.23-5.28-17.51-7.62-17.49-7.92-28.16S15.51,59,16,62s-.52,25.57,2.95,35.11,9.28,19.33,10.43,28.45"/><path class="cls-1" d="M18.07,177.3a50.93,50.93,0,0,0,4-3.29c3-2.58,2.15-4.32,1.85-5.41s.11-1.26,1.23-1.66.21-3.6.31-4.67.42.82,3.11.65,3.17-4.63,3.3-6.08,1.71,2,2.63.51-.22-3.24,1.08-5.58S35,150,34,149.09s1.71-2.6,1.93-3.95,1.86,2.5,4.88,3,3.25-4.42,2.14-6.37-.7-1,0-3.13-1-1.94-1.23-4,1.17,1.27,5.2,1.7,3.75-2.14,2.68-3.49-2.35-.29-3.64.87-1-.08-1-1.84-2.8-2-3.5-3,5.79-.6,6.77-.52,1.35-.67,1.43-1.65,1.6-.16,3.36.08,1.47-3.3,1.09-4.6-1.81-.73-3.54-1.37-2-.65-.91-2a7.53,7.53,0,0,0,1.59-3.48c.17-.86,3.22-1.79,3.61-4s3.21-6.19,7.11-7.82a20,20,0,0,0,6.54-4.65A56.12,56.12,0,0,1,70,105.63c.51,3.27,0,8.4-.21,12.78s.15,8.52-1.18,7.92-2.73-1.69-2.82-.62.5,2.19-1,1.58-2.58.08-2.75,2,1.66,2.48.47,3.66.06,1.57,1,2.62,4.31,1.72,2.11,1.93-5.15,1.14-5.34,2.2.8,2.22-.62,1.41-6.7-1.53-5.24,1,4.51,2.72,2.58,3.34-9.22,1.39-8.09,4.22,6.63,4.65,4.22,5-3.91,2.8-5.58,2.76-5.73-.17-5.67,1.39,3.57,3.32,2.32,4.1-5.39-.64-7.57,2.8-.49,3.38-2.42,4-2.55-.31-2.61,1.64a5.91,5.91,0,0,0,.44,2.87"/><path class="cls-1" d="M24.57,176.46S30.71,166.21,37,159.6s14.95-16,19.39-27.34,8.63-24.21,7-21.12-9.33,27.67-16.73,36.64-17.44,17.33-22.21,26.71"/></g></g></svg>