<svg style="position: absolute; width: 0; height: 0; overflow: hidden;" version="1.1" xmlns="http://www.w3.org/2000/svg" xmlns:xlink="http://www.w3.org/1999/xlink">
<defs>
<symbol id="phone" viewBox="0 0 32 32">
<title>phone</title>
<path class="path1" d="M5.184 25.028c-0.477 0.477-0.477 1.192 0 1.669 0.060 0.119 1.907 1.847 1.907 1.847l0.119 0.119c0.358 0.358 0.894 0.834 1.669 1.251 0.715 0.358 1.549 0.536 2.384 0.536v0c3.099 0 6.972-2.443 11.858-7.449 7.27-7.449 8.939-12.395 5.304-16.089l-0.060-0.060c0 0-0.536-0.536-1.073-1.013l-0.775-0.775c-0.238-0.238-0.536-0.358-0.834-0.358s-0.655 0.119-0.834 0.358l-5.899 6.019c-0.238 0.238-0.358 0.536-0.358 0.834s0.119 0.596 0.358 0.834l1.728 1.728c0 0.179-0.119 0.953-1.132 2.324-1.788 2.384-4.171 3.993-4.946 3.993 0 0 0 0 0 0.060-0.119-0.119-1.073-1.073-1.549-1.49l-0.238-0.238c-0.477-0.477-1.251-0.417-1.669 0l-5.959 5.899zM6.019 25.862l5.959-5.959 0.238 0.238c0.477 0.477 1.43 1.43 1.549 1.549 0.060 0.060 0.119 0.119 0.238 0.179 0.179 0.060 0.358 0.119 0.596 0.119 1.43 0 4.112-1.966 5.899-4.469 1.311-1.728 1.728-3.158 1.073-3.814l-1.847-1.788 5.899-6.019 0.775 0.775c0.477 0.477 1.013 1.013 1.073 1.013l0.060 0.060c1.311 1.371 4.41 4.529-5.304 14.421-4.529 4.648-8.223 7.032-10.965 7.032v0c-0.655 0-1.311-0.119-1.847-0.417-0.596-0.298-1.073-0.715-1.371-1.073l-0.119-0.119c-0.119-0.060-1.788-1.669-1.907-1.728z"></path>
<path class="path2" d="M7.032 15.017c0 0.358-0.238 0.596-0.596 0.596 0 0 0 0 0 0-0.298 0-0.596-0.238-0.596-0.596-0.060-2.503 0.834-4.886 2.622-6.615 1.788-1.788 4.112-2.682 6.615-2.622 0.358 0 0.596 0.298 0.596 0.596 0 0.358-0.298 0.596-0.596 0.596-2.145-0.060-4.231 0.715-5.78 2.264s-2.324 3.575-2.264 5.78z"></path>
<path class="path3" d="M5.482 5.423c2.562-2.562 5.959-3.933 9.594-3.814 0.358 0 0.596 0.298 0.596 0.596s-0.298 0.596-0.596 0.596c0 0 0 0 0 0-3.277-0.060-6.376 1.192-8.7 3.516s-3.575 5.423-3.516 8.7c0 0.358-0.238 0.596-0.596 0.596 0 0 0 0 0 0-0.298 0-0.596-0.238-0.596-0.596-0.119-3.575 1.251-7.032 3.814-9.594z"></path>
<path class="path4" d="M10.667 15.613c-0.060 0-0.060 0 0 0-0.358 0-0.596-0.238-0.655-0.536-0.119-1.371 0.417-2.741 1.371-3.695s2.324-1.49 3.695-1.371c0.358 0 0.596 0.298 0.536 0.655 0 0.358-0.298 0.536-0.655 0.536-1.013-0.060-2.026 0.298-2.801 1.013-0.715 0.715-1.132 1.728-1.013 2.801 0.060 0.298-0.179 0.596-0.477 0.596z"></path>
</symbol>
<symbol id="arrow" viewBox="0 0 16 32">
<path class="path1" d="M0 0h4.267l11.733 16.213-11.733 15.787h-4.267l11.733-15.787-11.733-16.213z"></path>
</symbol>
<symbol id="check" viewBox="0 0 43 32">
<path class="path1" d="M39.56 0.527l-25.494 27.077-11.077-11.78c-0.703-0.703-1.758-0.703-2.462 0s-0.703 1.758 0 2.462l12.308 13.187c0 0 0 0 0 0s0 0 0 0c0.176 0.176 0.352 0.176 0.527 0.352 0 0 0.176 0.176 0.176 0.176 0.176 0 0.352 0.176 0.703 0.176 0.176 0 0.527 0 0.703-0.176 0 0 0.176 0 0.176-0.176 0.176 0 0.176-0.176 0.352-0.176 0 0 0 0 0 0s0 0 0 0l26.549-28.659c0.703-0.703 0.703-1.758 0-2.462s-1.934-0.703-2.462 0z"></path>
</symbol>
<symbol id="experts" viewBox="0 0 44 32">
<path class="path1" d="M30.752 24.334c-8.379-3.209-9.894-4.635-10.162-4.992v-0.98c0.98-1.070 1.694-2.407 2.139-4.011 0.713-0.624 1.159-1.515 1.159-2.585 0-0.624-0.178-1.337-0.535-1.872v-3.031c0-4.368-2.674-6.864-7.309-6.864s-7.309 2.585-7.309 6.864v3.12c-0.357 0.535-0.535 1.159-0.535 1.872 0 0.98 0.446 1.872 1.159 2.585 0.446 1.604 1.248 2.941 2.139 4.011v0.98c-0.267 0.446-1.783 1.783-10.162 4.992-0.802 0.178-1.337 0.98-1.337 1.783v3.833c0 1.070 0.891 1.961 1.961 1.961h28.078c1.070 0 1.961-0.891 1.961-1.961v-3.833c0-0.802-0.535-1.604-1.248-1.872zM30.217 30.039c0 0.089-0.089 0.178-0.178 0.178h-28.078c-0.089 0-0.178-0.089-0.178-0.178v-3.833c0-0.089 0.089-0.178 0.089-0.178 9.27-3.565 10.875-5.081 11.231-6.24 0-0.089 0-0.178 0-0.267v-1.515c0-0.267-0.089-0.446-0.267-0.624-0.891-0.891-1.604-2.228-2.050-3.744-0.089-0.178-0.178-0.357-0.357-0.446-0.446-0.267-0.624-0.802-0.624-1.248s0.178-0.802 0.357-0.98c0.089-0.178 0.178-0.357 0.178-0.535v-3.565c0.089-3.298 2.050-5.081 5.616-5.081 3.655 0 5.526 1.694 5.526 5.081v3.387c0 0.178 0.089 0.446 0.178 0.535 0.178 0.178 0.357 0.535 0.357 0.98 0 0.535-0.267 0.98-0.624 1.248-0.178 0.089-0.267 0.267-0.357 0.446-0.446 1.515-1.159 2.852-2.050 3.744-0.178 0.178-0.267 0.357-0.267 0.624v1.515c0 0.089 0 0.178 0 0.267 0.357 1.070 1.961 2.674 11.231 6.24 0.089 0 0.089 0.089 0.089 0.178v4.011h0.178z"></path>
<path class="path2" d="M42.785 24.78c-2.139-0.802-4.368-1.248-6.15-1.604-1.248-0.267-2.852-0.535-3.209-0.802v-0.891c4.1-0.178 5.883-1.604 5.972-1.604 0.267-0.178 0.357-0.446 0.357-0.802 0-0.267-0.178-0.535-0.446-0.713-0.891-0.535-1.783-4.457-2.050-7.755 0-2.407-0.98-4.724-2.763-6.329-0.713-0.802-1.604-1.337-2.674-1.694-1.872-0.713-3.833-0.624-5.526 0-0.713 0.267-1.426 0.624-1.961 1.070-0.357 0.267-0.446 0.891-0.089 1.248 0.267 0.357 0.891 0.446 1.248 0.089 0.357-0.267 0.802-0.535 1.426-0.713 1.426-0.535 2.852-0.624 4.368 0 0.802 0.178 1.426 0.535 1.872 1.159l0.089 0.089c1.426 1.248 2.228 3.12 2.228 5.17 0.089 1.515 0.624 6.061 1.961 8.201-0.891 0.357-2.407 0.802-4.902 0.802-0.535 0-0.891 0.357-0.891 0.891v2.050c0 0.089 0 0.178 0 0.267 0.357 1.248 2.050 1.604 4.635 2.050 1.694 0.357 3.833 0.713 5.794 1.515l0.089 0.089v3.565c0 0.089-0.089 0.089-0.089 0.089h-7.577c-0.535 0-0.891 0.357-0.891 0.891s0.357 0.891 0.891 0.891h7.577c1.070 0 1.872-0.891 1.872-1.872v-3.565c0.089-0.802-0.446-1.515-1.159-1.783z"></path>
</symbol>
<symbol id="tall-arrow" viewBox="0 0 6 32">
<path class="path1" d="M5.771 32h-0.525l-5.246-16.21 5.246-15.79h0.525l-5.246 15.738 5.246 16.262z"></path>
</symbol>
<symbol id="like" viewBox="0 0 26 32">
<path class="path1" d="M24.998 16.556l-0.131-0.327c-0.065-0.262-0.327-0.458-0.589-0.458h-0.327c-2.814 0-3.468-0.262-3.534-0.262s-0.589-0.327-2.029-2.29c-0.393-0.589-1.047-1.374-1.963-2.552l-0.065-0.065-3.141-3.337c-1.178-1.243-1.963-2.748-2.29-4.384l-0.524-2.356c-0.065-0.196-0.131-0.327-0.327-0.458-0.131-0.065-0.327-0.065-0.524 0l-0.524 0.196c-1.047 0.393-1.898 0.916-2.421 1.636-0.524 0.654-0.785 1.571-0.785 2.618s0.327 2.16 1.047 3.272l0.327 0.589c1.112 1.832 1.701 3.599 1.767 5.301-2.683 0-4.777 0.327-6.217 0.851-2.29 0.851-2.748 2.356-2.748 3.403 0 1.309 0.458 2.421 1.374 3.272 0.065 0.065 0.065 0.065 0.131 0.131l-0.131 0.196c-0.327 0.524-0.524 0.982-0.524 1.505 0 0.916 0.458 1.701 1.374 2.16 0.196 0.065 0.393 0.196 0.589 0.262l-0.131 0.458c0 0.065 0 0.196 0 0.262 0 0.916 0.458 1.701 1.374 2.094 0.393 0.196 0.851 0.327 1.44 0.393v0.393c0 0.916 0.393 1.701 1.112 2.225 0.589 0.393 1.44 0.589 2.487 0.589h0.327c0.524 0 0.982-0.131 1.44-0.327l0.262-0.131 1.505 0.393c0.524 0.131 0.982 0.131 1.309 0.131l1.309-0.065c0.196 0 0.327-0.065 0.524-0.131 2.225-1.243 3.926-2.683 5.301-4.45h3.272c0.262 0 0.524-0.196 0.589-0.458l0.131-0.327c0.589-1.636 0.851-3.207 0.851-4.777 0-1.701-0.327-3.468-0.916-5.17zM3.796 24.278c-0.393-0.065-0.654-0.131-0.916-0.262-0.458-0.262-0.654-0.589-0.654-0.982 0-0.196 0.065-0.458 0.327-0.785l0.065-0.131c0.654 0.327 1.374 0.458 2.094 0.458h0.589c0.785 0 1.571-0.131 2.225-0.458l2.29-1.047 0.393 0.131c0.72 0.196 1.309 0.589 1.898 1.243l-0.785 0.327-2.814 1.309c-0.524 0.196-1.047 0.327-1.636 0.327h-1.767c-0.458 0-0.916-0.065-1.309-0.131 0.065 0.065 0 0 0 0zM6.282 27.419c-0.065 0-0.065 0 0 0-0.72-0.065-1.243-0.131-1.636-0.327s-0.589-0.458-0.654-0.916l0.131-0.524c0.262 0 0.589 0.065 0.916 0.065h1.832c0.72 0 1.44-0.131 2.159-0.458l2.487-1.112 0.262 0.131c0.524 0.262 0.982 0.589 1.374 1.047l0.065 0.065-1.112 0.458-2.683 1.178c-0.524 0.262-1.047 0.327-1.636 0.327h-0.982c-0.196 0.065-0.393 0.065-0.524 0.065zM10.798 30.168v0l-0.524 0.196c-0.262 0.131-0.589 0.196-0.916 0.196h-0.327c-0.785 0-1.374-0.131-1.767-0.393-0.327-0.262-0.524-0.589-0.524-1.047v-0.327h0.982c0.72 0 1.505-0.131 2.159-0.458l2.29-1.047 0.196 0.196c0.458 0.393 0.851 0.785 1.178 1.243l0.196 0.065c0 0 0 0 0.065 0.065l-3.010 1.309zM23.885 25.98h-3.141c-0.196 0-0.393 0.065-0.524 0.262-1.374 1.767-2.945 3.141-5.104 4.384l-0.982 0.065h-0.196c-0.262 0-0.589 0-0.916-0.065l1.505-0.654c0.327-0.131 0.524-0.458 0.654-0.785 0.065-0.327 0-0.72-0.196-0.982-0.065-0.065-0.131-0.131-0.131-0.196l-0.131-0.131c-0.327-0.458-0.654-0.851-1.112-1.178l0.393-0.196c0.327-0.131 0.524-0.393 0.654-0.72 0.065-0.327 0-0.654-0.196-0.982-0.065-0.065-0.196-0.327-0.262-0.327-0.327-0.393-0.72-0.72-1.112-0.982 0.262-0.131 0.458-0.393 0.524-0.654 0.065-0.327 0-0.654-0.196-0.982-0.524-0.72-1.112-1.243-1.832-1.571 0.196-0.131 0.327-0.327 0.393-0.589 0.065-0.327 0.065-0.654-0.131-0.916-0.916-1.374-2.159-2.094-3.73-2.094-0.393 0-0.851 0.065-1.505 0.262-0.458 0.131-0.982 0.327-1.571 0.589l-0.785 0.065c-0.393 0-0.654 0.327-0.654 0.654 0 0.393 0.327 0.654 0.654 0.654l0.916-0.065c0.065 0 0.131 0 0.196-0.065 0.654-0.262 1.178-0.458 1.571-0.589 0.458-0.131 0.851-0.196 1.112-0.196 1.047 0 1.832 0.458 2.487 1.309l-0.982 0.458-2.487 1.112c-0.524 0.262-1.112 0.327-1.701 0.327h-0.654c-0.72 0-1.374-0.196-1.963-0.589v0c-0.131-0.065-0.327-0.196-0.458-0.327-0.654-0.654-0.982-1.44-0.982-2.356 0-0.982 0.654-1.701 1.898-2.225 1.309-0.524 3.337-0.785 5.955-0.785h0.458c0.196 0 0.327-0.065 0.458-0.196s0.196-0.327 0.196-0.458v-0.196c0-2.029-0.654-4.188-2.029-6.348v0l-0.327-0.524c-0.524-0.916-0.851-1.767-0.851-2.552 0-0.72 0.196-1.374 0.589-1.898 0.393-0.458 0.916-0.851 1.636-1.112l0.327 1.636c0.393 1.898 1.309 3.599 2.618 5.039l3.076 3.272c0.916 1.178 1.505 1.963 1.963 2.487 1.112 1.571 1.963 2.487 2.487 2.748 0.589 0.262 1.832 0.393 3.926 0.393 0.524 1.505 0.785 3.076 0.785 4.712 0.131 1.178-0.131 2.618-0.589 4.057z"></path>
</symbol>
<symbol id="service" viewBox="0 0 25 32">
<path class="path1" d="M23.664 13.781c0-0.067 0-0.067 0-0.134v-2.555c0.067-6.118-4.908-11.092-11.025-11.092s-11.092 4.975-11.092 11.092v2.555c0 0.067 0 0.067 0 0.134-0.874 0.471-1.546 1.412-1.546 2.555v5.849c0 1.546 1.277 2.824 2.824 2.824h1.748c0.403 0 0.672-0.269 0.672-0.672v-10.219c0-0.403-0.269-0.672-0.672-0.672h-1.681v-2.42c0-5.311 4.37-9.681 9.748-9.681s9.748 4.37 9.748 9.748v2.353h-1.681c-0.403 0-0.672 0.269-0.672 0.672v10.219c0 0.403 0.269 0.672 0.672 0.672h1.748c0.134 0 0.202 0 0.336-0.067-0.471 3.361-2.42 4.37-6.521 4.639-0.269-0.538-0.807-0.874-1.412-0.874h-2.689c-0.874 0-1.613 0.739-1.613 1.613s0.739 1.613 1.613 1.613h2.689c0.672 0 1.277-0.403 1.479-1.008 4.37-0.269 7.529-1.479 7.866-6.588 0.672-0.538 1.076-1.345 1.076-2.218v-5.916c0-1.008-0.605-1.95-1.613-2.42zM3.899 23.664h-1.076c-0.807 0-1.479-0.605-1.479-1.479v-5.916c0-0.807 0.672-1.479 1.479-1.479h1.076c0 0 0 8.874 0 8.874zM14.857 30.655h-2.689c-0.134 0-0.269-0.134-0.269-0.269s0.134-0.269 0.269-0.269h2.689c0.134 0 0.269 0.134 0.269 0.269s-0.134 0.269-0.269 0.269zM21.378 23.664v-8.874h1.076c0.807 0 1.479 0.672 1.479 1.479v5.916c0 0.807-0.672 1.479-1.479 1.479h-1.076z"></path>
<path class="path2" d="M6.655 13.445c-0.403 0-0.672 0.269-0.672 0.672v10.219c0 0.403 0.269 0.672 0.672 0.672s0.672-0.269 0.672-0.672v-10.219c0-0.336-0.336-0.672-0.672-0.672z"></path>
<path class="path3" d="M19.361 24.336v-10.219c0-0.403-0.269-0.672-0.672-0.672s-0.672 0.269-0.672 0.672v10.219c0 0.403 0.269 0.672 0.672 0.672 0.336 0 0.672-0.269 0.672-0.672z"></path>
</symbol>
<symbol id="icon-up" viewBox="0 0 74 32">
<title>up</title>
<path class="path1" d="M74 32l-37-17.4-37 17.4v-14.6l37-17.4 37 17.4v14.6z"></path>
</symbol>
<symbol id="play" viewBox="0 0 32 32">
<title>play</title>
<path class="path1" d="M16 32c-8.828 0-16-7.172-16-16s7.172-16 16-16 16 7.172 16 16c0 8.828-7.172 16-16 16zM16 1.103c-8.166 0-14.897 6.731-14.897 14.897s6.731 14.897 14.897 14.897 14.897-6.731 14.897-14.897-6.731-14.897-14.897-14.897z"></path>
<path class="path2" d="M12.579 24.166c-0.11 0-0.221 0-0.221-0.11-0.221-0.11-0.331-0.331-0.331-0.441v-15.228c0-0.221 0.11-0.441 0.331-0.441 0.221-0.11 0.441-0.11 0.552 0l10.262 7.614c0.11 0.11 0.221 0.221 0.221 0.441s-0.11 0.331-0.221 0.441l-10.262 7.614c-0.11 0.11-0.221 0.11-0.331 0.11zM13.131 9.49v13.131l8.828-6.51-8.828-6.621z"></path>
</symbol>
</defs>
</svg>
