<svg xmlns="http://www.w3.org/2000/svg" viewBox="0 0 105.87 174.26"><defs><style>.cls-1{fill:none;stroke:#fff;stroke-miterlimit:10;stroke-width:0.66px;}</style></defs><title>תמר סיני</title><g id="Layer_2" data-name="Layer 2"><g id="Layer_1-2" data-name="Layer 1"><path class="cls-1" d="M26.06,142.15a19.43,19.43,0,0,0,6.19,2.8c3.55.87,15.74,3,18.07,5.71s3.76,9.38,5.79,12.66,2.64,2.61,4.57,6.19A51.1,51.1,0,0,1,63,174.15"/><path class="cls-1" d="M27,140.17a28.52,28.52,0,0,0,6.65,2c4.87,1.07,6.7,1,9.7,2.32s5.89,2.51,6.75,1.31-.91-4-.51-6.62a13.07,13.07,0,0,0-.86-5.8"/><path class="cls-1" d="M1.8,136.78a6.48,6.48,0,0,1,3.25.1c1.47.53,3.35,0,4.67-.29s2.32-.08,5.79,1.06a39.42,39.42,0,0,1,6.65,2.85"/><path class="cls-1" d="M2.51,125.18s5.28,5.27,8.07,6.24a8.12,8.12,0,0,1,4.06,2.85c.66.63,3.65,2,6.14,3.14a30,30,0,0,0,4.06,1.64"/><path class="cls-1" d="M.63,127.5s3.15,2.61,5.63,4.45,2.29,1.74,3.66,2.08a8.37,8.37,0,0,1,2.39,1"/><path class="cls-1" d="M47.79,128.76s.61-8.27.1-12.23-1.88-5.9-1.52-8a11.85,11.85,0,0,0-.81-6.48c-.91-2.46-1.69-8.89-1.69-8.89"/><path class="cls-1" d="M45.15,91.73a53.93,53.93,0,0,1,1.68,8c.15,2.61,1,11,1.47,11.79s3.15-6,2.89-7.49-.56-1.64-2.23-2.85"/><path class="cls-1" d="M51.5,94.92s-1.68,3.48-1.12,4.74,1,2.42,1.37,2.56,4.32-7.15,7-13.78S62.82,81.34,62.42,77s-.1-4.88-1-5.61"/><path class="cls-1" d="M61.81,84.72s-1.52,7.78-3.65,11.07-4.16,7.15-5.79,9.91a19.05,19.05,0,0,0-2.49,9.38c.2,2.37,1,5.75,1.32,8.75s.2,3.24,1.32,1.89S54.39,120.4,59,116s6.75-6,6.75-8.22"/><path class="cls-1" d="M67.8,110.49a4.25,4.25,0,0,0-2.79,1,41.93,41.93,0,0,0-5.74,6.43c-1.42,2.18-2.54,3.72-1.52,3.77s1.47.29.61.58a5,5,0,0,0-2.44,1.26c-1,.92-4,5-2.69,5.37S67,129,71.86,130s-1.59-.95,5.77.26,9.75,1.55,13.4,1.6,6.5.14,6.5.44a1.29,1.29,0,0,1-1,.92,54.64,54.64,0,0,1-12.79-.92c-6.14-1.26,5.91.41,3,.5s-5.18,1.15-9.7.76-7.72-2.64-11.17-2.49a33.94,33.94,0,0,1-6.8-.48c-2.49-.24-2.84-1.4-4.11-.63,0,0-2.27,2.54-2.64,4.45-.81,4.16,1.12,11.51,2.64,14.12s6.6,11,7.11,14.21,4,8.7,4,8.7"/><path class="cls-1" d="M64.39,66.06S65.21,55.62,66.33,53a21.58,21.58,0,0,0,1.27-9c-.25-2.08-.25-4-.46-4.35s-.81-.77.41-2.56,2-5.46,1.47-9.76.56-9.09,0-12.47l-.61-3.38"/><path class="cls-1" d="M70.54,10.62s-1.22,8.07-.26,8.41,1.68-.77,1.58-.29a16,16,0,0,0-1.27,4.5c-.15,2.22.51,4.59,0,8.55a46.84,46.84,0,0,1-1,5.8"/><path class="cls-1" d="M69.42,42.09a41.86,41.86,0,0,0-.46,5.7,37.87,37.87,0,0,1-1.27,9C67,59.2,66.07,65.1,66,65.44"/><path class="cls-1" d="M72.37,16.33a24.41,24.41,0,0,1,12-12.76C93.44-.79,105.16.13,105.52,1.29S100.8,13.81,91.71,17.1s-19.6,1.64-19.6,1.64"/><path class="cls-1" d="M74.45,17.58s4.89-4.67,10.15-6.48S94.35,7.72,98.31,5.5s4.42-2.95,4.42-2.95"/><path class="cls-1" d="M72.87,17C73,16.71,79,8.78,86.07,5.5S97.3,2.36,97.3,2.36"/><path class="cls-1" d="M76.38,17.82S88,17.44,94.45,13.57a23.75,23.75,0,0,0,9-9.57"/><path class="cls-1" d="M71.15,18.79s-1.27-2.08-.3-1.93.66,1.4,1,.77,3.4-2.18,2.94-1.26-2.23,1.55-.46,1.6,3.2.68,1.78.68-3.86-.19-2.54.39,2.95,3,1.88,2.42-1.83-2.08-1.88-1.06.05,3.24-.66,2.32A15.46,15.46,0,0,1,71.45,20"/><path class="cls-1" d="M60.13,70.75S50.33,67.18,49.83,58s4.82-17.94,6.65-18,6.19,3.77,7.77,8.41,1.32,6.86,1.32,6.86"/><path class="cls-1" d="M56.88,44a52.53,52.53,0,0,0,1,15.32c1.22,5.7,3.6,8.22,3.6,8.22"/><path class="cls-1" d="M61,45.91s2.94,7.3,2.89,13.49-1.17,7.49-1.17,7.49"/><path class="cls-1" d="M69.47,54.37s1.27-8.75,8.83-11.17S94,41.61,96,40.69s2.18-1.35,2.33-.72S96.53,50.16,88,54.9a23.54,23.54,0,0,1-16.19,2.71"/><path class="cls-1" d="M71.35,54.75s1.12-4.11,11.12-6.38a31.36,31.36,0,0,0,14-7"/><path class="cls-1" d="M70,55s2.91-6.84,9.39-9.81a23.1,23.1,0,0,1,9.24-2.42"/><path class="cls-1" d="M72,56.44a39,39,0,0,0,10.92-1c6.55-1.4,8.93-3.19,8.93-3.19"/><path class="cls-1" d="M66.58,82.64s6.5,1.35,13.86-5.08,4.47-9.33,3.55-10,0-1.64-1.27-1.79-8.23-1.74-15,5.32c-5,4.3-4.22,8.85-4.22,8.85"/><path class="cls-1" d="M66.53,80.32a67.87,67.87,0,0,1,9.24-7.44c5.59-3.77,7.67-4.16,7.67-4.16"/><path class="cls-1" d="M66,79.55a15.23,15.23,0,0,1,6.19-8.46c5.18-3.63,9.19-3.87,9.19-3.87"/><path class="cls-1" d="M66.53,81.49A30,30,0,0,0,77,76.7c5.28-3.77,6.3-6.72,6.3-6.72"/><path class="cls-1" d="M47,100.35S54.6,92.07,50,83s-11.05-6.75-12.13-6.2-1.84-.65-2.45.42-4.89,6.9.23,16a13.33,13.33,0,0,0,9,6.78"/><path class="cls-1" d="M43.87,93.13c-3.25-6.31-4.94-15.43-4.94-15.43"/><path class="cls-1" d="M44.48,97.39a17.87,17.87,0,0,1-6.8-8.73c-2.26-6.06-1.13-9.73-1.13-9.73"/><path class="cls-1" d="M46.44,95.91a19,19,0,0,0,0-9.6C44.67,79.24,42.58,79,42.58,79"/><path class="cls-1" d="M64.9,82.93s.81,1.64,2.08,1.4,3.3-.77,2.79-.19-1.37.44-.81,1.26,1.12,1.35.41,1.4-1.37-.15-1.17.77-.36,2.42-1,1.45-1-2.85-2-3.72"/><path class="cls-1" d="M62.72,81.73s.56-3.09,1.32-2.17.15,1.83,1.07,1.35,1.93-.44,1.22.14-1.42.48-.71,1.16.51,1.79-.46,1.21-1.07.63-.71,1.64,1.73,1.89.61,2.08-1.73,1.4-1.78.19-.46-3.14-1.07-2-.86.34-.71-.63A14.85,14.85,0,0,1,62.72,81.73Z"/><path class="cls-1" d="M62.87,69.74s-2.84-.43-3.5-1.26,1.93.15,1.73-.68-.35-1.69.25-1.16.71,2,1.17,1,1.42-1.64,1.17-.87-.66,1.84.26,1.5,1.62.19.91.68A8.14,8.14,0,0,1,62.87,69.74Z"/><path class="cls-1" d="M65,67s.05-1.74.56-1,.25,1.64.91,1,2.49-2,1.78-1-2.85,1.45-1.07,1.74,2.79.63,1.47,1-4.11.72-3,1.16,2.49,1.21,1.17,1.31a9.92,9.92,0,0,1-3.66-1.06"/><path class="cls-1" d="M68.81,59.59s-2.44-.82-1-.92,2.08.39,1.63-.43-3-2.76-1.78-2,1.63,1.35,1.78.39.91-2.95.91-2-1,2.8.2,2.13,2.64-1,1.88-.53S69.68,57.8,71,58s4.42.82,2.64,1-2.89-1.16-2.69.44.91,4.59,0,2.66S69.88,58.72,69.57,60s-1.93,2.85-1.52,1.59A16.42,16.42,0,0,1,68.81,59.59Z"/><path class="cls-1" d="M57.09,98.26s1.32-.48,1.07.24-1.27.87-.15,1.21,2.49,1.06,1.37,1.11-2.39-.58-2.08.58.2,2.46-.36,1.74-.71-3.29-1.17-1.88-1,2.71-1.06,1.69a6,6,0,0,1,.1-1.84Z"/><path class="cls-1" d="M47.79,128.76s-17.57,6.53-26.2,12.33-9.8,6.77-9.8,6.77"/><path class="cls-1" d="M48.76,133.4S32.26,136,29,138.23s-3,4.54-4.67,4.16a4.48,4.48,0,0,0-4.47,1.35c-1.53,1.4-6.8,5.65-6.8,5.65"/><path class="cls-1" d="M23.17,142.53a10.56,10.56,0,0,0-.51,9.38c2.13,5.46,8,6.48,9.09,5.8s1.42-1.25,2.59-1.21,2-3.14.81-6.67-4.88-5.32-4.88-5.32"/><path class="cls-1" d="M24.64,142.53a12.56,12.56,0,0,0-.26,7.15,14.68,14.68,0,0,0,2.79,5.17"/><path class="cls-1" d="M25.56,142.48c.1,1.11-.66,2.13,1.47,5.75s4.83,7.45,4.83,7.45"/><path class="cls-1" d="M26,142.53s5.94,4.54,7.31,7.78,1.17,4.35,1.17,4.35"/><path class="cls-1" d="M41.4,131.08s-2.08-1.79-1.83-2.9.76-8.22-3.4-13-8-1.29-9.34-1.55c-1.93-.39-2.27,3-1.83,5.17.76,3.67,4.77,8.17,8.58,9.33s4,.87,4.82,1.55a4.58,4.58,0,0,1,1,2.56"/><path class="cls-1" d="M30.68,114.45a14.73,14.73,0,0,1,5.64,5.94,18.09,18.09,0,0,1,2.39,7.54"/><path class="cls-1" d="M26.57,117.35s1.67,5,5.23,7.78,5.43,3,5.43,3"/><line class="cls-1" x1="27.74" y1="115.9" x2="37.18" y2="127.16"/><path class="cls-1" d="M25.91,121.65s-1.53.19-2,1.06-.71,1-1.27,1A5.67,5.67,0,0,0,18.35,130c.56,4.74,8.48,8.12,8.48,8.12"/><path class="cls-1" d="M33.58,128.18a12.61,12.61,0,0,1,.81,3,14.77,14.77,0,0,1,.1,2.8"/><path class="cls-1" d="M23.68,123.39A15.58,15.58,0,0,0,26,131.32a19.78,19.78,0,0,0,4.52,4.93"/><path class="cls-1" d="M30.38,126.49a11.8,11.8,0,0,1,2.23,4.3,13.73,13.73,0,0,1,.41,4"/><path class="cls-1" d="M19.67,125.57a9.72,9.72,0,0,0,2.23,7.64,13.42,13.42,0,0,0,6.14,4"/><path class="cls-1" d="M8,133.64c-.3-1.06-3.35-2.61-3.25-1.16S5.15,134,3.62,134s-4.27-.58-2.94.19,3.25-.1,2.44.87.61,2.13,1.52,1.16,1.83-1.64,2.13-.87,1.73,1.84,1.42.77A8.75,8.75,0,0,1,8,133.64Z"/><path class="cls-1" d="M16.42,144.56s.61-4.74-.31-3.77-1,2.22-1.93,1.16-2.23-2.51-2-1.07,2.34,2.52.61,2.61-4.67.49-2.54.87,2.74.1,1.73,1.16-2.23,2.42-.2,1.45S16.42,144.56,16.42,144.56Z"/><path class="cls-1" d="M47.79,126.58a4.11,4.11,0,0,1-1.22-3.09c.2-1.74.71-4.25,0-3.48s-.41,2.51-1.32,1.45-2.54-1.64-1.83-.77,1.63,1.26,0,1.55-3.25,1.26-1.42,1.35,2.64-.58,2.23.1-2.13,1.16-.41,1.06,3.76,2.61,3.76,2.61Z"/><path class="cls-1" d="M40.79,75.35S37,60.07,37.44,59.88s.91-.77,1-.29.71,7.54,1.52,6.86,1.63.39,1.42-1.26-.51-2.61.41-1.55,2.54,1.26,1.22,1.64-3.45-.1-1.32.39,4.37.29,2.84.68-2.84.58-1.62,1.06,5.18,1.64,3,1.74-3.25-1.35-2.94.1,1,4-.51,1.64-1.93-3.48-1.93-2.9,1,8,1,8"/><path class="cls-1" d="M60.22,117a9.31,9.31,0,0,1,7.24-3.06c4.6.19,5.11,3,6.06,3.12a1.87,1.87,0,0,1,1.08,3.22c-1.43,1.32-5.92,4.38-10,4.58A15.44,15.44,0,0,1,57,122.91"/><path class="cls-1" d="M57.71,121.33s1.63-2.58,6.3-4.16a19.48,19.48,0,0,1,8.5-1"/><path class="cls-1" d="M58.05,122.23A14.42,14.42,0,0,0,66,123c4.43-.84,8.29-5.57,8.29-5.57"/><path class="cls-1" d="M61.54,120.78a19.14,19.14,0,0,1,5.92-2.61,14.47,14.47,0,0,1,5.18-.55"/><path class="cls-1" d="M46.34,109.8A14.63,14.63,0,0,0,45,108.63l-1.14-.91s2.31-8.48-6.12-9.1c-6.84-.5-13.52,1.07-17.72,1.86s-4.66,1.92-3.46,3.26,7.3,7.82,14.7,7.83S43,108.16,43.6,108.43A9.54,9.54,0,0,1,47,112.18"/><path class="cls-1" d="M42.36,107.55s-2.45-1.81-10-3.12-14-2.56-14-2.56"/><path class="cls-1" d="M41.31,105.6s-.62-3.24-5.57-4.5a34.25,34.25,0,0,0-7.44-.67"/><path class="cls-1" d="M42.62,107.62s-6.71,2.73-11.54,1.77c-5.83-1.16-10.93-5.55-10.93-5.55"/><path class="cls-1" d="M67.16,38.2c0-.12-.44-4.73-1.55-5.2s-6.14-.38-7.78-4.46-2.91-12.3-1.61-12.43,9.39,3.33,12.13,8.22a5.33,5.33,0,0,1-.59,6.47,3.22,3.22,0,0,0-.6,3,9.61,9.61,0,0,0,.9,2.39"/><path class="cls-1" d="M57,17.65a103.41,103.41,0,0,1,6.64,9.91,45.73,45.73,0,0,1,3,6.1"/><path class="cls-1" d="M62,20.1s4.33,3.68,5,6.56A8.05,8.05,0,0,1,66.11,32"/><path class="cls-1" d="M57.09,22.47a20.24,20.24,0,0,0,3.28,6.43,13.32,13.32,0,0,0,5.72,4"/><path class="cls-1" d="M68.41,110.92s-1.47,2.42-.66,2,1.32-.77,1.42-.39,1.22,1.88,1.17,1.11-.46-1.06.3-1.06,3,.14,1.67-.29-2.38-.24-1.67-1,2.33-1.74,1.17-1.65A13.28,13.28,0,0,0,68.41,110.92Z"/><path class="cls-1" d="M66.63,108.79s-2.34-2.47-.51-6.67,6.09-9.86,10.41-9.67,3.35,6.72,1.67,10.49c-1.78,4-6.19,6.77-9,6.62S66.63,108.79,66.63,108.79Z"/><path class="cls-1" d="M77.39,92.89s-3.88,2.8-5.23,6.62c-2.44,6.91-5.53,9.28-5.53,9.28"/><path class="cls-1" d="M68.3,108.36a11,11,0,0,0,8-5.85c2.89-5.36,1.37-9.38,1.37-9.38"/><path class="cls-1" d="M67.14,131.51s-1.57,1.4-.1,4.21S72.82,138.38,73,138s1-1.69-.56-4.2a6.2,6.2,0,0,0-4.62-2.66,6.18,6.18,0,0,0,1.88,3.43,18.6,18.6,0,0,0,2.19,2"/><path class="cls-1" d="M64.14,129s1.22-.53.81-1.26-1.47-2.47-1-2,1.32,1.21,1.57.87,1.42-1.55,1.27-1-1,2.08-.1,1.69,4.67-1.84,3.4-1.11-2.64,1.4-2.28,1.69,3.1,1,1.58.87a21.1,21.1,0,0,0-4.42.58Z"/><path class="cls-1" d="M72.32,130.06s2.69-.58,3.45-1.88-.81-6.67,4.67-9.57,8.43,0,8.12,1.84-.76,1.84-.71,3.53-1.47,3.43-3.55,4.83-6.55.48-6.85,0-2.34,1.64-2.34,1.64"/><path class="cls-1" d="M86.84,118.42A42,42,0,0,0,81,123.35c-3.3,3.29-3.81,4.69-3.81,4.69a11.62,11.62,0,0,0,5.38-.68c3.4-1.26,5.53-5.41,5.53-5.41"/><path class="cls-1" d="M84,118.17a12.65,12.65,0,0,0-5.59,4.35A11.11,11.11,0,0,0,76.53,128"/></g></g></svg>