<svg xmlns="http://www.w3.org/2000/svg" viewBox="0 0 152.01 188.74"><defs><style>.cls-1{fill:#fff;}</style></defs><title>עץ התה</title><g id="Layer_2" data-name="Layer 2"><g id="Expended"><path class="cls-1" d="M65.42,136c-8-6.34-22.26-8.82-22.4-8.85l-.11.65c.14,0,14.22,2.48,22.1,8.72s8.43,8.84,8.44,8.86l.65-.12C74.08,145.13,73.47,142.35,65.42,136Z"/><path class="cls-1" d="M152,37.79c-.08-.41-.66-.75-1.32-.77a1.25,1.25,0,0,0-.79.35c-.57.44-1.62,1.27-5.66,1.39a90.25,90.25,0,0,1-9.75-.35c-7.6-.56-14.16-1-22.37,4.25A43.27,43.27,0,0,0,94.45,66l.63.19a42.61,42.61,0,0,1,17.39-23c8-5.18,14.48-4.7,22-4.15a91.25,91.25,0,0,0,9.81.35c4.26-.13,5.42-1,6-1.53.2-.16.28-.21.36-.21h0a1.17,1.17,0,0,1,.62.18l-.11,0c-4.1,1.74-18,8.17-24.23,18-2.13,3.34-4,6.94-5.83,10.41-4.23,8.08-8.22,15.71-14.63,19.11-9.05,4.81-14,3.85-14.08,3.84l-.11,0-.1.05c-.38.19-9,4.52-12.17,9.54,0,0,0-.06,0-.09l.07-.65-.55.33s-.29.1-1.06-.23c1.15-5.28,1.08-9.16-1.56-11.73a36.6,36.6,0,0,0-8.09-5.63L68,80.35l0,0c-1.35-1.57-2.63-2.83-3.8-3.16a2.51,2.51,0,0,0,.27-.91,1.48,1.48,0,0,0,.93,1.21,1.18,1.18,0,0,0,.35.05c.79,0,1.66-.74,2.24-1.94,6.48,8.67,9.25,9.79,10.24,9.79a.84.84,0,0,0,.4-.08,2.1,2.1,0,0,0,1-1.49c.65-2.9-1.23-9-3.17-11.66A18,18,0,0,0,74,69.45l.77-.67c.81-.7,1.4-1.2,1.6-1.43a.9.9,0,0,0,.3-.85c-.14-.41-.65-.51-1.29-.63l-.54-.11c-.5-.11-.53-.37-.42-1.31,0-.18,0-.37.06-.56a.78.78,0,0,0-.44-.82c-.92-.41-2.84.75-5.28,3.2A15.61,15.61,0,0,0,64.51,74c-.21-5.5-2.21-15.47-2.24-15.6-.33-1.64-1-2.63-2-2.93-1.54-.46-3.25.83-3.73,1.32a1.21,1.21,0,0,1-.64.28c-1.48-2.88-3.16-6.1-5.82-8.36-.45-.38-.93-.74-1.4-1.08a14.85,14.85,0,0,1-2.23-1.88c-1.57-1.72-2.18-4-2.83-6.34a32.37,32.37,0,0,0-1.12-3.55,31.18,31.18,0,0,0-3.91-6.44C36.82,27,35,24.52,34.26,21.68l-.64.17c.8,3,2.63,5.48,4.39,7.92a30.72,30.72,0,0,1,3.83,6.3,32,32,0,0,1,1.1,3.47c.64,2.35,1.31,4.78,3,6.61a15.56,15.56,0,0,0,2.33,2c.46.34.93.69,1.37,1.06,2.48,2.1,4.11,5.13,5.52,7.88-1.18-.31-5.91-2-11-9.35C38.31,39.11,33,20,32.93,19.85L32.3,20c.05.19,5.41,19.36,11.34,28,4.23,6.2,8.21,8.46,10.25,9.27a8,8,0,0,0-1.2.36,1.36,1.36,0,0,0-.81.85c-.55,1.58,1.1,4.59,1.45,5.2a3.2,3.2,0,0,0-.26,1.4,2.53,2.53,0,0,1-.43.9c-.13.19-.86-.2-1.44-.51-.4-.21-.85-.45-1.32-.66s-.82-.3-1.12,0-.09,1.17.3,2.15l.19.48c.16.41.15.42,0,.58a3.36,3.36,0,0,0-1,1.83,1.47,1.47,0,0,0,.42,1.71A2.3,2.3,0,0,0,50,72a3.78,3.78,0,0,0,1.68-.36,3.45,3.45,0,0,0,.49-.39,4.74,4.74,0,0,1,.61-.49c2,1.6,7.33,5.71,9.95,6.61a2.06,2.06,0,0,0-.32.23l-.08.06,0,.1-.07.29a1.85,1.85,0,0,0-1.08-.45,11.2,11.2,0,0,0-9.94.22c-5.6,2.94-7.87,4.46-8.36,5.59A1.29,1.29,0,0,0,43,84.61l0,0c-4.45-3.46-9.5-7.38-15.55-8.3a46.22,46.22,0,0,0-5.2-.41c-3-.12-5.92-.24-8.87-1.47A18,18,0,0,1,10.19,72c-1.91-1.61-3.13-2.59-3.92-2.64a.6.6,0,0,0-.56.31c-.38.62,0,2.11,1,3.89A59.61,59.61,0,0,1,10,81.1a43.76,43.76,0,0,0,5.29,10.56,80,80,0,0,0,13.58,14.1A115.37,115.37,0,0,0,40,113.89c8.09,5.24,14,7.79,22.46,9.74,3.22.74,4.48,1.19,7.31,4.88,2.12,2.77,3.63,9.39,4.22,12.32a20.87,20.87,0,0,1-1.2-2.68c-.42-1.39-.81-2-1.29-2.16a.65.65,0,0,0-.65.18c-.48.08-3.38-2.14-4.62-3.84S64.27,130.14,63,131c-.3.21-.45.14-1.49-.67a30.62,30.62,0,0,0-5-3.2c-5.44-2.85-18.09-6.11-19.2-5.86a.66.66,0,0,0-.54.47c-.11.4,0,1.14,2.31,3.3l.13.12c1.09,1,1.35,1.28,1.18,3.31a3.36,3.36,0,0,0,.66,2.56c-2-.12-4.14-.18-6.33-.14-16.29.32-21.72,6.78-24.33,9.88a40.76,40.76,0,0,1-7.53,6.41l-1.66,1.21L0,149.3,1.45,149a10.4,10.4,0,0,1,2.66-.14h0l.23.62,1-.41-.06.29a7.88,7.88,0,0,0,1.57.16,8.7,8.7,0,0,0,.94-.06c.94.22,1.89.47,2.82.72a36.44,36.44,0,0,0,5.76,1.24c1.46.14,2.95.24,4.38.34a55.25,55.25,0,0,1,11.72,1.65c1.83.53,3.63,1.26,5.38,2a55.81,55.81,0,0,0,5.68,2.05c4.44,1.25,8.24.26,12.26-.78a48.08,48.08,0,0,1,5.82-1.25c5.8-.76,10.94,1.76,14.76,4,5,3,10.25,11.79,15.71,26.26.31.82.44,1.16.51,1.29.54,1,3,1.13,3.53,1.15l0-.66c-1.07,0-2.7-.3-3-.8,0-.09-.24-.59-.47-1.21a110.3,110.3,0,0,0-8.25-17.8.5.5,0,0,0,.23,0c.39-.05.49-.51.52-.66,1-4.61-2.18-10.58-5.21-14.28a38,38,0,0,0-8-6.85,40,40,0,0,0-4.65-6c-3.84-4-12.93-7.83-25.47-8.76l0-.1s-1.14-.5-1-2.47c.19-2.24-.16-2.68-1.38-3.84l-.12-.12c-2.22-2.12-2.13-2.62-2.08-2.64.83-.15,13.27,2.93,18.75,5.8a30,30,0,0,1,4.88,3.14c1,.77,1.55,1.2,2.28.68s1-.6,2.28,1.13c1,1.43,3.93,4,5.06,4.11a.58.58,0,0,0,.48-.14.19.19,0,0,1,.08-.06s.33,0,.83,1.72a43.77,43.77,0,0,0,3.81,7.31,4,4,0,0,0,0,.88l.49-.09a28.61,28.61,0,0,0,1.75,2.4c2.49,3,7.27,11.92,7.69,14.79.25,1.77.47,2.32.93,2.35h0c.45,0,.76-.59,1.32-2.51a59.51,59.51,0,0,0,1.35-7.27l.09.16c.13-.07,3.12-1.81,5.66-8.07.46-1.13.84-2.18,1.15-3.15a12.27,12.27,0,0,1,3.7-3.36,6.79,6.79,0,0,1,5.06-1.23l.18-.64a7.3,7.3,0,0,0-5.59,1.31,16.1,16.1,0,0,0-2.87,2.3,23.43,23.43,0,0,0,1-5.45h-.66a26.05,26.05,0,0,1-1.38,6.79l0,.07h0c-.3,1-.67,2-1.13,3.1-2,4.86-4.24,6.9-5.06,7.52,0-.38.08-.63.08-.68v-.08l0-.07a35.74,35.74,0,0,1-1.5-12.63c.27-6,1-8.17,1-8.2l-.63-.21c0,.09-.74,2.28-1,8.37A36.91,36.91,0,0,0,89,154.89a69.93,69.93,0,0,1-1.48,8.39,11.49,11.49,0,0,1-.66,1.89,9.28,9.28,0,0,1-.34-1.64c-.44-3-5.23-12-7.83-15.12a30.38,30.38,0,0,1-2.08-2.92,18.59,18.59,0,0,1,1.06-4.43c.64-1.86,2.5-6.36,5.9-7.95a6.19,6.19,0,0,1,5-.07,22.5,22.5,0,0,1,3.59,1.9c.67.41,1.36.83,2.06,1.2a25.73,25.73,0,0,0,12.37,2.68c-.28.75-3.71,9.75-8.07,13.4a19,19,0,0,1-4.76,3,4,4,0,0,0-2.54,2.29c-1.22,2.82-3.29,8.52-3.26,12,0,2.22,3.37,8.37,6.06,13.3a44.31,44.31,0,0,1,2.85,5.65l.32.06.29.16c.21-.39-.17-1.2-2.88-6.18-2.52-4.62-6-10.94-6-13,0-3.38,2.09-9.16,3.21-11.74.51-1.17,1.08-1.43,2.21-2a19.63,19.63,0,0,0,4.9-3.13c4.66-3.91,8.15-13.36,8.3-13.76l-.43-.16c.62,0,1.25,0,1.89-.08,6.69-.49,12.06-1.94,16.42-4.44a59.41,59.41,0,0,0,5.93-4.08,40.21,40.21,0,0,1,8.79-5.47l-.25-.61a7.27,7.27,0,0,1-5-.32l-.42-.16a30.76,30.76,0,0,1-7.41-3.63c-2-1.4-3.86-1.83-5.31-1.21a33.25,33.25,0,0,0-10.29-2.89,11.67,11.67,0,0,0,.51-5c-.34-1.87.6-2.85,2.68-5l1.11-1.16c3-3.2,4.11-7.67,4.48-10a7.45,7.45,0,0,1,2.1-3.67,5.07,5.07,0,0,0,1.06-1.48A.46.46,0,0,0,123,89c-1-.77-8.79,3.15-17.39,8.74-10.51,6.82-14.36,20-14.4,20.18l.63.18C91.87,118,95.65,105,106,98.3c9.39-6.1,15.15-8.56,16.44-8.74a7.69,7.69,0,0,1-.82,1,8.11,8.11,0,0,0-2.26,4c-.36,2.3-1.41,6.62-4.31,9.69l-1.1,1.15c-2.17,2.24-3.26,3.37-2.86,5.57a11.39,11.39,0,0,1-.54,4.87,33.12,33.12,0,0,0-5.78,0l-.56.06a33.91,33.91,0,0,1,4.44-8c2-2.89,4-5.88,4.87-9.32.07-.26.13-.53.19-.81a7.18,7.18,0,0,1,1.41-3.42A11.44,11.44,0,0,1,117.29,93l-.23-.62a10.32,10.32,0,0,0-1.94,1.08l0,0a3.55,3.55,0,0,0-.38.32,37.84,37.84,0,0,0-8.25,8.61,56.56,56.56,0,0,0-7.18,14.21l-.56.1a39.16,39.16,0,0,0-5.36,1.21c-6.87,2.24-9.45,7.07-12.18,12.17a38,38,0,0,1-5.3,8.12c-.07-.42-.14-1.29-.23-2.47-.05-.67-.11-1.46-.19-2.42-.43-5.14-.41-9.18-.41-9.22h-.66s0,4.1.41,9.28c.08,1,.14,1.75.19,2.42.21,2.68.24,3.09.64,3.23s.55-.16.68-.3a24.9,24.9,0,0,0,2.28-2.89l.33.25a42.52,42.52,0,0,1,6.39-6.52c4.95-2.07,11-2.85,18.53-2.34,2.94.2,5.92.56,8.8.91a107,107,0,0,0,14.1,1.08,14.26,14.26,0,0,0,6-1.1q-1.09.79-2.15,1.58a59,59,0,0,1-5.86,4c-4.27,2.45-9.55,3.88-16.14,4.35a26.14,26.14,0,0,1-14.12-2.52c-.69-.36-1.37-.78-2-1.18a23.07,23.07,0,0,0-3.7-2,6.84,6.84,0,0,0-5.51.09c-3.63,1.7-5.57,6.39-6.24,8.33a22.64,22.64,0,0,0-1,3.75c-.49-.81-1-1.63-1.38-2.4l.21,0c-.07-.42-1.77-10.33-4.62-14S66,123.79,62.55,123c-8.4-1.93-14.22-4.46-22.24-9.65a114.8,114.8,0,0,1-11-8.09,79.43,79.43,0,0,1-13.47-14,42.57,42.57,0,0,1-5.21-10.4,60.26,60.26,0,0,0-3.36-7.57c-1.13-2-1.13-3.1-1-3.23.62,0,2.23,1.4,3.53,2.48A17.69,17.69,0,0,0,13.13,75c3.05,1.28,6,1.39,9.09,1.52a45.59,45.59,0,0,1,5.13.4c5.88.9,10.86,4.76,15.25,8.17L45,87c6.23,4.78,14,10.72,17.46,17.18l.45-.24c0,.28.06.56.12.88A20.8,20.8,0,0,0,67.44,114h0l-.12,0-.12.06a.49.49,0,0,0-.28.37c-.07.41.36.86,1.19,1.68a7.86,7.86,0,0,1,1.45,1.7c.29.62.75,1.24,1.21,1.24l.16,0c.36-.12.47-.53.34-1.22a4.2,4.2,0,0,1,0-2c0-.22.09-.46.14-.75a2.44,2.44,0,0,1,.26-.82,1,1,0,0,0,.11-.31,31.33,31.33,0,0,0,3.46-5.71c.49.77,1,1.39,1.36,1.39h.11c-.11.86-.16,1.48-.18,1.77a4.61,4.61,0,0,0-.75.51c-2,1.65-3.55,6.66-3.92,8.06l0,0c-.22.3-.09.72.08,1.3a6.12,6.12,0,0,1,.29,1.33c.06.85-1,2-1.5,2.48-2.21-4.46-6.28-11.41-12.24-16.74l.44-.3A39.71,39.71,0,0,0,46.6,96.41c-1.42-.84-2.87-1.59-4.29-2.31L25,85.23a17.11,17.11,0,0,1-4.3-2.77c-.4-.39-.77-.84-1.13-1.27s-.56-.66-.85-1a12.09,12.09,0,0,0-6.28-3.54l-.14.65a11.43,11.43,0,0,1,5.94,3.34c.29.31.56.63.83,1s.75.9,1.18,1.31a17.59,17.59,0,0,0,4.46,2.89L42,94.69c1.4.72,2.85,1.46,4.25,2.29A39.06,39.06,0,0,1,58,107.81C51.25,101.9,42.95,97.71,35.6,94c-3.05-1.54-5.93-3-8.35-4.4-8-4.69-16.56-13.93-16.65-14l-.49.45c.09.09,8.68,9.4,16.8,14.14,2.44,1.42,5.33,2.88,8.39,4.42,7.39,3.72,15.76,7.94,22.52,13.89,9.49,8.35,14.2,21,14.25,21.1l.62-.23s-.39-1-1.13-2.66v0h0a6.38,6.38,0,0,1,1.26-2.2,2.9,2.9,0,0,1,2.39-.94,1.91,1.91,0,0,0,1.32-.36.7.7,0,0,0,.25-.67.61.61,0,0,0,0-.07l.17.18c.21-.19,5.05-4.8,5.35-7.48.2-1.8-1-2.3-1.87-2.63a3.38,3.38,0,0,1-.63-.3,3.51,3.51,0,0,1-.39-.35,2.29,2.29,0,0,0-2.18-.85,31.26,31.26,0,0,1,3-11.09c2.53-4.86,11.21-9.43,12.22-9.95.83.14,5.78.66,14.41-3.93,6.58-3.5,10.62-11.22,14.9-19.39,1.81-3.46,3.69-7,5.8-10.36,6.15-9.66,19.87-16,23.93-17.73l.2-.09A.57.57,0,0,0,152,37.79ZM75.85,72.6c1.82,2.48,3.66,8.43,3.06,11.13a1.49,1.49,0,0,1-.62,1c-1.36.72-6.58-5.2-10-9.73a36.09,36.09,0,0,1,5.13-5.16A17.05,17.05,0,0,1,75.85,72.6ZM65.09,74.48h0a14.91,14.91,0,0,1,4.11-7.74c2.54-2.56,3.9-3.09,4.39-3.09a.36.36,0,0,1,.15,0s.07,0,.06.17,0,.35-.06.53c-.1.79-.22,1.77.92,2l.56.11.78.15a.63.63,0,0,1-.16.24c-.18.2-.78.72-1.54,1.37-2.26,1.94-6,5.19-6.92,7.06-.55,1.16-1.35,1.72-1.81,1.57S64.84,76.09,65.09,74.48Zm14.46,78.67c2.94,3.59,6,9.34,5.07,13.72v.05A21.12,21.12,0,0,1,83,164.15a71.38,71.38,0,0,0-4-6.88c-1.28-1.92-2.5-4-3.68-6-.79-1.33-1.58-2.68-2.4-4A34.82,34.82,0,0,1,79.55,153.16Zm-8-6.94,0,.06.14.09c1.12,1.72,2.17,3.5,3.21,5.26,1.18,2,2.4,4.08,3.7,6a70.73,70.73,0,0,1,3.92,6.81l.11.22a20.5,20.5,0,0,0-5.78-5.8c-3.43-2-7.88-4.27-13-4.27a17,17,0,0,0-2.22.15,48.51,48.51,0,0,0-5.9,1.27c-3.93,1-7.64,2-11.92.78a55.35,55.35,0,0,1-5.62-2c-1.76-.71-3.58-1.44-5.44-2a55.69,55.69,0,0,0-11.85-1.67c-1.43-.1-2.92-.2-4.37-.34a35.92,35.92,0,0,1-5.65-1.22l-1.45-.39a26.66,26.66,0,0,0,5.32-2.29c1.15-.6,2.34-1.22,3.52-1.69a34,34,0,0,1,8.21-1.83c11.79-1.58,25.31-2.77,36.49,3.2l.31-.58c-11.36-6.06-25-4.86-36.89-3.27A34.51,34.51,0,0,0,18,144.58c-1.21.48-2.42,1.11-3.58,1.72a20,20,0,0,1-6.51,2.5l-1.2-.26c2.29-1,6-2.65,10.29-4.92,7.66-4.1,17.12-7.24,34.34-2.51,19,5.23,23.38,15.66,23.42,15.76l.61-.24c-.17-.44-4.47-10.83-23.86-16.16-17.45-4.8-27-1.6-34.83,2.56a123.53,123.53,0,0,1-11.21,5.3,14.32,14.32,0,0,0-2.84-.14l.62-.45a41.27,41.27,0,0,0,7.64-6.52c2.55-3,7.84-9.33,23.84-9.65s27.94,4.32,32.25,8.77A39.15,39.15,0,0,1,71.52,146.22ZM107,102.78a41.64,41.64,0,0,1,6.63-7.3,15.31,15.31,0,0,0-.61,2.15c-.06.27-.12.53-.19.79-.84,3.32-2.84,6.27-4.77,9.11a33.3,33.3,0,0,0-4.6,8.43c-1.15.14-2.3.32-3.42.51A55.5,55.5,0,0,1,107,102.78ZM79.68,134.12c.66-1.1,1.27-2.21,1.86-3.31l.3.49c.41-.25.85-.47,1.28-.7A45.66,45.66,0,0,0,79.68,134.12Zm53.54-7c-1.89,1.22-4.34,1.41-6.48,1.44a103.65,103.65,0,0,1-14-1.08c-2.89-.35-5.88-.71-8.83-.92-6.61-.45-12.15.1-16.81,1.64a22.56,22.56,0,0,1,11.19-4.61c5.49-.42,13,1,19.63,2.19a96.33,96.33,0,0,0,9.68,1.5,19.62,19.62,0,0,0,7.37-.73l-.22-.62a19.41,19.41,0,0,1-7.11.7,96.28,96.28,0,0,1-9.61-1.49c-6.67-1.23-14.23-2.63-19.8-2.2-5.07.39-9.72,3.18-13.24,6.05a25.18,25.18,0,0,0-3.38,1.71l.15-.29c2.67-5,5.19-9.69,11.81-11.85a38.57,38.57,0,0,1,5.27-1.19l.2,0c-.13.4-.21.65-.21.66l.63.19s.11-.38.31-1c1.14-.2,2.3-.39,3.46-.54l0,.12.64.17c0-.12.08-.24.11-.36l.82-.09a32.61,32.61,0,0,1,16.55,3l.14.07.14-.07c1.68-.81,3.73.34,4.79,1.09a31.75,31.75,0,0,0,7.55,3.7l.42.16a9.29,9.29,0,0,0,3.16.64,36,36,0,0,0-4,2.5Zm-61.94-1.5-.1-.21c.14-.13.34-.33.55-.57A8.41,8.41,0,0,0,71.28,125.6Zm4.79-2.92a1.77,1.77,0,0,1-.88.16,3.58,3.58,0,0,0-2.78,1.07,2.69,2.69,0,0,0,.46-1.51,5.76,5.76,0,0,0-.25-1.23,3.89,3.89,0,0,0,1.23.6l.29.09a11.51,11.51,0,0,1,2,.72A.35.35,0,0,1,76.07,122.68ZM81.62,115c-.27,2.39-4.86,6.8-5.12,7.05a3.77,3.77,0,0,0-1-.46A17.32,17.32,0,0,0,79,117.67a9.39,9.39,0,0,0,1.69-4.36A1.49,1.49,0,0,1,81.62,115Zm-2.69-2.73a4.24,4.24,0,0,0,.47.41A3.28,3.28,0,0,0,80,113a8.42,8.42,0,0,1-1.59,4.28,18,18,0,0,1-3,3.45,12.27,12.27,0,0,1,.74-3.37,18.58,18.58,0,0,1,1.39-3.55l-.52-.41a16.62,16.62,0,0,0-1.5,3.75c-.91,2.72-.81,3.88-.73,4.23l-.53-.17-.29-.09c-1.39-.44-1.36-.94-1.34-1.12a.42.42,0,0,0-.1-.34l0,0c.47-1.64,1.9-6,3.62-7.41C77.65,111,78.27,111.65,78.93,112.29Zm.38-13.21a2,2,0,0,1-1.42,1.61q.25-1,.46-1.86A3.26,3.26,0,0,0,79.31,99.08Zm-6,.52a2,2,0,0,0,0-.21,5.3,5.3,0,0,0-2.61-2.92.67.67,0,0,0-.47.12,3.61,3.61,0,0,0-.31-.7.66.66,0,0,0,.2-.11.72.72,0,0,0,.16-.21,2.17,2.17,0,0,0,.66.7,1,1,0,0,0,.47.14.66.66,0,0,0,.27-.06,2.79,2.79,0,0,0,1.5,1.72c0,.16-.07.28-.07.29l0,.14.08.11a9.07,9.07,0,0,0,.65.77Zm-3.91-1.67a2.62,2.62,0,0,1-.39.38c-.24,0-.86-.94-1.31-1.93a6.09,6.09,0,0,1-.33-1.56.49.49,0,0,1,.33,0,1.36,1.36,0,0,1,.41.14,6.39,6.39,0,0,0,.82.72h0c.08.1.17.22.25.35a2.25,2.25,0,0,1,.46,1.27A4.47,4.47,0,0,0,69.44,97.93Zm-4.08-7a2.33,2.33,0,0,0,.47.11h.32a5.39,5.39,0,0,1,.66,1.45c.06.18.1.33.13.46l0,.07-.07.15.08.15.13.21a.35.35,0,0,1,0,.16,1.4,1.4,0,0,1-.56.15l-.31.05a.23.23,0,0,1-.19-.05,5.4,5.4,0,0,1-1.08-2.6Zm8.19-.85s-.2.11-.74-.15S72,88.74,71.7,87.53a1.35,1.35,0,0,0,.45-.63A1.9,1.9,0,0,0,72,85.53a4.81,4.81,0,0,1,1.4,2.3h0C73.89,89.71,73.61,90.05,73.55,90.1Zm3.65,10.61c-1.57-.19-3-1.91-3.41-2.37l0-.1.2,0a1.35,1.35,0,0,0,1.05-.47,1.62,1.62,0,0,0,.33-.65,3.16,3.16,0,0,1,.82.45,12.29,12.29,0,0,0,1.5,1C77.58,99.23,77.4,100,77.2,100.71Zm-5.68-6.58-.15.09v.18a5.9,5.9,0,0,0,.12,1.27.47.47,0,0,1,0,.07s0,0-.19,0a3.2,3.2,0,0,1-.9-1.31,7.25,7.25,0,0,0-.7-2,2.58,2.58,0,0,0-.18-.28c-.21-.63-.4-1.25-.54-1.78a.77.77,0,0,1,.37-.34l.1,0h.06a12,12,0,0,0,2,3.53c0,.2.08.39.11.57ZM69.7,95.28a.62.62,0,0,1-.27-.12,3.29,3.29,0,0,0-.84-.74,8.32,8.32,0,0,1-.89-1.11c0-.08,0-.16,0-.25a3.49,3.49,0,0,1,.34-.5,1.61,1.61,0,0,0,.57.28l.15,0a.61.61,0,0,0,.31-.08c.21.6.45,1.22.72,1.79C69.79,95,69.76,95.23,69.7,95.28ZM65,89.57c-.75-.86-1.74-2.26-1.67-2.95a.32.32,0,0,1,.13-.25.39.39,0,0,1,.24-.09l.08,0,.38.21a4.67,4.67,0,0,1,1.24,2.36A.9.9,0,0,1,65,89.57Zm-.49-8.09c0,.12,0,.22,0,.3l0,.13A8.42,8.42,0,0,0,65.31,83a1.73,1.73,0,0,1,.19.64s-.13,0-.51-.17c-1.28-.66-1.51-1.24-1.54-1.35a2.83,2.83,0,0,1,.31-1.45s.15,0,.45.44Zm1-2.36s.29-.1,1,.74A7.29,7.29,0,0,1,68,82.42c0,.18.06.4.11.65a1,1,0,0,1-.1.48.52.52,0,0,1-.6.2,3.25,3.25,0,0,1-1.59-1.14,9.16,9.16,0,0,0-.73-1.33C65.08,80.27,65.2,79.24,65.48,79.12Zm6,7.57v0c-.08-.36-.15-.73-.21-1.09A1.48,1.48,0,0,1,71.52,86.69Zm-4.35,4.12a3.25,3.25,0,0,0,.79-.54,5.67,5.67,0,0,1,.62,1.25h-.06a1.07,1.07,0,0,0-.55.19A9.76,9.76,0,0,1,67.17,90.81Zm-2.46-6.76a1.82,1.82,0,0,0,.77.24.61.61,0,0,0,.49-.21.63.63,0,0,0,.14-.32,2.91,2.91,0,0,0,1.16.61l.06.33c0,.1.05.27.1.48l-.21-.1a1,1,0,0,0-.29-.05,1.1,1.1,0,0,0-.72-.57,1.43,1.43,0,0,0-1.08.32A4.74,4.74,0,0,0,64.71,84.05Zm3.86.46c-.24-.07-.43-.11-.58-.14a1.05,1.05,0,0,0,.45-.25Zm1.52,2.12h.17a1,1,0,0,0,.24-.05,1.56,1.56,0,0,1,.24.73,8.71,8.71,0,0,1-1,.29h0a5.52,5.52,0,0,0-1.45-1.85c-.07-.23-.14-.46-.19-.69a6.27,6.27,0,0,1,.82.26C69.24,86,69.64,86.56,70.09,86.63Zm-1,2.77a1.5,1.5,0,0,1-.5-.21l0-.1a.65.65,0,0,1,.45-.59l-.1.12.06.17c0,.09.1.3.21.59ZM68.67,88a1.18,1.18,0,0,0-.65.81c-.16-.13-.32-.27-.46-.41v0a4.59,4.59,0,0,0-.28-2.52,4.6,4.6,0,0,1,.42.3A4.67,4.67,0,0,0,68.67,88Zm2.45,0,.11.36a2,2,0,0,0-.33-.2A1,1,0,0,0,71.11,87.92Zm-5-2.81c.11,0,.21.13.3.29a6.86,6.86,0,0,0,.4,2.66h0c-.76-.45-1.18-2-1.31-2.71A.89.89,0,0,1,66.09,85.11Zm.17,3.49s.11,0,.6.38a5.93,5.93,0,0,1,.71.75,2.56,2.56,0,0,1-.81.54l-.36-.52A3.48,3.48,0,0,1,66.26,88.6Zm2.21,1.26,0,0h0ZM70,89.4a1.86,1.86,0,0,0,.07-.48,2.6,2.6,0,0,0,0-.29.74.74,0,0,1,.32,0c.36,0,.93.37,1.59,1.71C73.2,92.9,73,93.39,73,93.48s-.2.07-.6-.06a1,1,0,0,1-.33-.21,10.53,10.53,0,0,0-.89-2.29A3.6,3.6,0,0,0,70,89.57Zm3.19,1.4s0,.19-.07.43l-.25-.56a2,2,0,0,0,.33.1Zm-2.94-6.71.24.29c0,.23.08.66.17,1.19l0,.07a4,4,0,0,0-1.19-.8,10.65,10.65,0,0,1-.6-1.88,3.08,3.08,0,0,0-.11-.67l.11.14C69.27,83,69.74,83.54,70.21,84.09Zm-5.46,1.8a.24.24,0,0,1-.05.15s0,0-.08,0l-.19-.1a1.79,1.79,0,0,0-.25-.17L64,85.7c-.4-.24-.77-.49-.93-.6a6.39,6.39,0,0,1-.49-2.22,2.3,2.3,0,0,1,.62.46C64.43,84.49,64.8,85.43,64.75,85.89Zm.31.69,0,0,.06.18Zm.82,1.51,0,0,0-.13ZM67.35,92l.13.13-.06.07Zm4.91,2.48a2.06,2.06,0,0,1,1.21-.14l.22.08a2,2,0,0,0,.28.27l.28.19a2.08,2.08,0,0,1,.13.19,3,3,0,0,1,.44,1.3,1.52,1.52,0,0,0-.45.1,1.92,1.92,0,0,0-.94,1,2.42,2.42,0,0,1-1.25-1.77A3.41,3.41,0,0,0,72.26,94.51Zm2.48,2.58a.92.92,0,0,1-.15.27.67.67,0,0,1-.47.23,1.15,1.15,0,0,1,.5-.47Zm0-2.7a2.07,2.07,0,0,0-.56-.46,4.07,4.07,0,0,1-.37-2.82.9.9,0,0,1,.59,0,1.67,1.67,0,0,1,.78,1.12c.36,1.16.26,2,0,2.18C75,94.5,74.87,94.48,74.68,94.39ZM69.32,82a2,2,0,0,1,.46.55Zm-4.86-1.64a.9.9,0,0,0-.89-.34c-.68.21-.78,1.54-.79,2.1v0l0,.09a.71.71,0,0,0-.43,0A19.48,19.48,0,0,1,62.9,78a1.12,1.12,0,0,1,.81-.24,3.06,3.06,0,0,1,1.48.74C64.68,78.79,64.51,79.6,64.47,80.37ZM63,85.86a1,1,0,0,0-.21.23c0-.15-.07-.3-.11-.45Zm2.23,4.32a2,2,0,0,0,.47-.43l0,.13-.46.32Zm4.83,8a1.67,1.67,0,0,0,.26-.67c.11-.22.22-.36.28-.36a5,5,0,0,1,2.09,2.49.92.92,0,0,1-.22,1,.57.57,0,0,1-.52.17c-.69-.15-1.55-1.48-2-2.35C70,98.34,70,98.25,70.07,98.16Zm3.73,2.21a4.23,4.23,0,0,1,1,1.52,18.72,18.72,0,0,1,.91,3.48c-.18.45-.36.88-.54,1.3-.28-.51-.56-1.07-.84-1.72A7.77,7.77,0,0,1,73.81,100.37Zm1.59,1.26A4,4,0,0,0,74,99.7l0-.11a5.85,5.85,0,0,0,3,1.77l-.05.21c-.25.92-.54,1.8-.83,2.64A15.45,15.45,0,0,0,75.4,101.64Zm2.49-3.76a12.12,12.12,0,0,1-1.26-.82,3.6,3.6,0,0,0-1.14-.59,3.46,3.46,0,0,0-.35-1.36,1,1,0,0,0,.36-.13c.59-.41.7-1.53.27-2.92a2.23,2.23,0,0,0-1.17-1.54,1.43,1.43,0,0,0-.45-.1c.3-.46.27-1.33-.11-2.76h0a5.7,5.7,0,0,0-2.9-3.55,8,8,0,0,0-.5-1.36c0-.08-.08-.14-.12-.21a30.06,30.06,0,0,1,6,4.4C78.65,89,79.1,92.16,77.88,97.87ZM51.72,70.76a2.2,2.2,0,0,1-2.71.35c-.09-.07-.38-.29-.18-1a2.75,2.75,0,0,1,.83-1.52c.36-.34.47-.59.2-1.3l-.2-.49a7.24,7.24,0,0,1-.48-1.42h0a1.14,1.14,0,0,1,.41.11c.45.19.88.42,1.27.63,1,.52,1.82,1,2.29.31a2.9,2.9,0,0,0,.55-1.23v-.07a2.47,2.47,0,0,1,.58-1.76,1.69,1.69,0,0,1,1.28-.58c.75,0,.81.14,1,.52a2.43,2.43,0,0,0,1,1.13l.1.06c.65.42,1.39.89,1.41,1.21,0,.14-.16.3-.3.41s-.51.38-.76.55c-.79.54-1.54,1.05-1.53,1.92a1.63,1.63,0,0,1-.56,1.29,1.37,1.37,0,0,1-1.29.09A2.69,2.69,0,0,0,51.72,70.76Zm7.43-4.13a2,2,0,0,0,.2-.19c.71,1.87,2.65,7.19,2.53,8.94,0,0,0,0,0,.06C61,75.11,57.6,70.24,57,69.3l0,0a2.63,2.63,0,0,0,.12-.75c0-.49.47-.84,1.24-1.37C58.62,67,58.89,66.84,59.15,66.63Zm-4.74,4a2,2,0,0,0,1.88-.18A1.81,1.81,0,0,0,56.7,70c.87,1.35,4.06,6.15,5.29,6.15h.09c.16,0,.43-.17.46-.69.15-2.27-2.71-9.58-2.83-9.89h0c-.11-.6-.81-1.05-1.69-1.61l-.1-.06a1.78,1.78,0,0,1-.71-.86c-.26-.54-.51-.92-1.61-.9a2.36,2.36,0,0,0-1.75.8s-.07.1-.1.15c-.6-1.14-1.56-3.29-1.21-4.31a.7.7,0,0,1,.43-.45,8.79,8.79,0,0,1,2.37-.54A2.63,2.63,0,0,0,57,57.22c.31-.32,1.85-1.52,3.08-1.15.76.23,1.29,1,1.57,2.43,1.65,8.18,2.85,17.79,2,18.4-.58.41-5.17-2.5-10.12-6.41A2,2,0,0,1,54.41,70.59Zm-11,13.1c.52-1.18,4.18-3.23,8.07-5.27a10.24,10.24,0,0,1,4.81-1.19,10.74,10.74,0,0,1,4.58,1l.08,0h.09a1.1,1.1,0,0,1,.79.33c-.31.92-5.22,6-10.47,7.31-4.22,1-6.83-.45-7.61-1.39C43.43,84.12,43.38,83.82,43.44,83.69Zm2,2.78-.25-.19a8.57,8.57,0,0,0,3.39.65,12.28,12.28,0,0,0,3-.38c4.41-1.09,8.83-4.91,10.38-6.87A15.5,15.5,0,0,0,62.78,88a6.15,6.15,0,0,0,1.92,2.61l-.51.36,0,.21c0,.27.49,2.62,1.39,3.24a.92.92,0,0,0,.52.17l.16,0,.29-.05.27-.05a3.58,3.58,0,0,0,.25,2.14v0c.22.5,1,2.13,1.76,2.31L69,99a.62.62,0,0,0,.39-.13h0a10.06,10.06,0,0,0,.62,1.08,3.14,3.14,0,0,0-.81-.69,4.36,4.36,0,0,0-3.62-.07l0,.09a1.92,1.92,0,0,0-1.3.11c-.85.38-1.74,1.44-1.48,4.21C59.29,97.08,51.62,91.2,45.44,86.47Zm19,13.63a1.57,1.57,0,0,1,1.07-.28,1.69,1.69,0,0,0,.24.22,7.59,7.59,0,0,1,2.58,4.55,29.8,29.8,0,0,1,.78,4.49h.66a29.15,29.15,0,0,0-.8-4.62,8.24,8.24,0,0,0-2.69-4.82,3.46,3.46,0,0,1,2.68.15c.91.53,1.46,1.67,1.62,3.37a34.63,34.63,0,0,1-.28,9.47H70.2a1.89,1.89,0,0,0-1.31,1,.75.75,0,0,1-.54.35,20.51,20.51,0,0,1-4.64-9.31C63.29,102.36,63.53,100.72,64.39,100.09Zm6.68,13.72a3.15,3.15,0,0,0-.32,1c0,.28-.09.52-.13.73a4.82,4.82,0,0,0,0,2.28,2,2,0,0,1,0,.37,2.55,2.55,0,0,1-.51-.77,8.12,8.12,0,0,0-1.58-1.89c-.28-.27-.62-.62-.83-.87l.36,0,.08.09.1-.1a1.44,1.44,0,0,0,1.2-.71,1.26,1.26,0,0,1,.82-.7.71.71,0,0,1,.6.25c.16.16.21.23.23.2Zm.37-.67-.09-.1a1.53,1.53,0,0,0-.45-.31,34.57,34.57,0,0,0,.29-9.66,6.31,6.31,0,0,0-.82-2.75,2.79,2.79,0,0,0,1.45,1.11l.25,0a1.26,1.26,0,0,0,.85-.35A1.81,1.81,0,0,0,73,101a8.38,8.38,0,0,0,.66,4.24s.5,1.12,1.11,2.2A32.17,32.17,0,0,1,71.44,113.14Zm4.12-5.77.35-.79c.08.48.15.94.21,1.33l.07.42C76,108.1,75.8,107.76,75.56,107.37Zm1.22.44c-.1-.67-.23-1.51-.39-2.38a37.33,37.33,0,0,0,1.22-3.68l.1-.37a2.26,2.26,0,0,0,1.23-.47,31.45,31.45,0,0,0-2.08,7.43Z"/><path class="cls-1" d="M89.42,89.68s.3-.22.78-.59L96,86.7l.08,0c2.83-2.2,5.53-4.41,7.43-7.32a33.38,33.38,0,0,0,3.19-7.14,37.14,37.14,0,0,1,2.7-6.33c2.36-4,6.3-7.11,9.77-9.81L135,43.7a54.39,54.39,0,0,1,6.9-1.24l-.06-.66A54.84,54.84,0,0,0,134.93,43l-.05-.07-.15.12c-5.42,1.32-12.85,3.89-18.27,8.74-7.05,6.3-10,12.49-12.81,18.47-1,2.18-2,4.23-3.16,6.26A44.16,44.16,0,0,1,89.87,88.51l-.13.05,0,0c-.44.34-.7.53-.71.54ZM101,76.89c1.17-2,2.14-4.11,3.18-6.3,2.8-5.93,5.7-12.05,12.66-18.26,4.86-4.34,11.37-6.83,16.53-8.22L118.74,55.53c-3.52,2.74-7.5,5.84-9.93,10A37.59,37.59,0,0,0,106,72a32.91,32.91,0,0,1-3.12,7,30.62,30.62,0,0,1-7.24,7.14l-3.76,1.55A43.45,43.45,0,0,0,101,76.89Z"/><path class="cls-1" d="M29.11,28.95a48.56,48.56,0,0,0,.23,8.75c1.07,9.48,2.41,15,6.78,19.12,4,3.76,11.71,12.57,11.79,12.66l.5-.43c-.08-.09-7.78-8.93-11.83-12.71C32.8,52.81,31.2,48.26,30,37.62A47.88,47.88,0,0,1,29.77,29a27.94,27.94,0,0,0-.06-4.88c-.41-3.53.68-8.79,1.76-9.84.06-.06.17-.15.26-.14s.52.68.92,1.57c1.25,2.83,3.86,8.7,13.61,18.24a59.9,59.9,0,0,0,9.58,8c.51.53,11.89,12.17,17.4,18.31a3.46,3.46,0,0,1-1.07,1.2l-.93.45,1,.18a2.94,2.94,0,0,0,.47,0,4.87,4.87,0,0,0,1.82-.37c.49.57.89,1,1.17,1.41a8.69,8.69,0,0,1,2,6.08l0,.37.29.06c.2,0,.33-.06.42-.31l0-.12c.12-.35.46-1.69.93-3.54.33-1.28.76-3,1.19-4.6l.52.28.48.26-.21.89A52.26,52.26,0,0,0,80.1,80.37l.05.74c.13,1.83.11,3.28.11,4.34,0,1.58,0,2.23.42,2.46a.53.53,0,0,0,.24.06,1.19,1.19,0,0,0,.67-.29c1.31-1,3.11-4,3.05-5.56a7,7,0,0,0-.54-1.89c-.32-.85-.76-2-.51-2.36a.5.5,0,0,1,.42-.12c.85,0,1.1.47,1.42,1a2.1,2.1,0,0,0,1.78,1.33,6.18,6.18,0,0,1,2.45.59s-.07.11-.48.25-.87.27-1.23.37a3.79,3.79,0,0,0-2.59,1.58l.08.06A18.89,18.89,0,0,0,82,90.07c-.17.86-.33,1.56-.45,2.13-.37,1.67-.48,2.18-.18,2.48a.57.57,0,0,0,.42.16,1.15,1.15,0,0,0,.22,0c.77-.15,6.25-3.39,7.8-8.75A26,26,0,0,0,91,78.88c2-1.91,5.17-5.35,6.12-9a2.14,2.14,0,0,0,0-1.83,2.71,2.71,0,0,0-2-1,2.51,2.51,0,0,1-.79-.2,2.25,2.25,0,0,1-.29-.6c-.25-.64-.59-1.52-1.46-1.76s-1.85.17-3.21,1.22c-3.84,3-5.24,10.34-5.42,11.39a1,1,0,0,0-.8.37c-.46.64,0,1.77.43,3a6.9,6.9,0,0,1,.5,1.67c0,1.22-1.55,4.08-2.79,5a1.35,1.35,0,0,1-.21.14,9.92,9.92,0,0,1-.07-1.82c0-1.07,0-2.54-.11-4.39l-.05-.75A51.73,51.73,0,0,1,82,62.65c.08-.36.16-.7.24-1l0,0a1.15,1.15,0,0,0,.2-.89,34.53,34.53,0,0,1,3.71-9.56c.45-.83.92-1.69,1.41-2.71,1.83-3.86,4.61-3.63,4.69-3.62s.73,0,2.52-.89c.75-.38,1.13-.83,1.14-1.33a1,1,0,0,0-.05-.27,16.43,16.43,0,0,0,5.91-2.2c2.1-1.22,3.23-2.38,3.55-3.65a4.74,4.74,0,0,0-.85-3.66,3.55,3.55,0,0,0-4.32-1.6c.65-.84,1.89-3,3.12-8.35A91.35,91.35,0,0,0,105,6.1c0-.77,0-1.33.06-1.61.1-1.23.24-4.12-.73-4.45-.58-.2-1.11.48-1.46,1-.77,1.18-3.12,2.23-6.36,3.69a89.76,89.76,0,0,0-16.17,8.93c-6,4.24-8.34,10.83-6.85,18.8-.24,5.29,3.83,13,4,13.35l.58-.31a43.7,43.7,0,0,1-3.55-9.25l.21,0,.31.11c0-.13,0-.19-.12-.66a29.9,29.9,0,0,1-.82-3.28A5.11,5.11,0,0,1,75,29.7c.61-.86,1.21-1.19,1.85-1,2.12.56,4.25,6.34,4.6,9.82a18.56,18.56,0,0,1-.13,5.8,5,5,0,0,1-2.23,1.18l-.64.14c-1,.21-1.4.3-1.56.61a1.08,1.08,0,0,0-.67-.09,1,1,0,0,0-.68.59.47.47,0,0,0-.13-.09l-.05,0c-.15,0-1.44-.33-2.07.21a1,1,0,0,0-.32.72,2.79,2.79,0,0,0-2,.12A1.65,1.65,0,0,0,70.17,49a2.94,2.94,0,0,0,.16,1.33h0a1.9,1.9,0,0,0-1.08.94,1.21,1.21,0,0,0,.1,1.05,2.26,2.26,0,0,0,.4.53A2.86,2.86,0,0,0,69.31,55c-5.67-6-12.58-13.11-13-13.56l-.24.23.17-.28a59.61,59.61,0,0,1-9.49-7.93c-9.66-9.44-12.23-15.24-13.47-18-.55-1.25-.83-1.87-1.42-2a1,1,0,0,0-.82.32c-1.33,1.29-2.37,6.82-2,10.39A27.26,27.26,0,0,1,29.11,28.95ZM89.18,85.88c-1.46,5-6.67,8.16-7.29,8.28h0a13.09,13.09,0,0,1,.34-1.84c.13-.57.28-1.27.45-2.13a18.84,18.84,0,0,1,3.5-7.06l-.08-.07A3.31,3.31,0,0,1,88.13,82c.38-.1.8-.22,1.28-.38a1.86,1.86,0,0,0,.75-.43A29.12,29.12,0,0,1,89.18,85.88Zm1-5.44A1.29,1.29,0,0,0,89.7,80l.58-.51C90.27,79.78,90.25,80.1,90.22,80.44Zm3.76-13a19.63,19.63,0,0,1-2.89,7.47c-2,3.08-3,3.37-3,3.37l.11.65c.13,0,1.3-.3,3.47-3.67a20.75,20.75,0,0,0,3-7.62l.29.06c.62.1,1.31.22,1.57.65a1.61,1.61,0,0,1,0,1.31c-.84,3.24-3.56,6.37-5.52,8.3,0-.14,0-.23,0-.25l-.65.09s0,.28,0,.77c-.6.56-1.06,1-1.3,1.15a10.06,10.06,0,0,0-1.72-.3c-.72-.05-1-.47-1.25-1a2.24,2.24,0,0,0-1.49-1.3l.08-.43.36.06s.26-1.41,2.75-5.34a10.75,10.75,0,0,1,5.71-4.7,1.59,1.59,0,0,0,.4.65A1.07,1.07,0,0,0,94,67.46Zm-4.29-1.21c1.16-.9,2-1.27,2.63-1.11a1.52,1.52,0,0,1,.86,1,11.31,11.31,0,0,0-6,5,38.68,38.68,0,0,0-2.06,3.6C85.82,72,87.25,68.12,89.68,66.25ZM73.84,49.38l.06,0,.18,0h.08a.88.88,0,0,0-.15.25A.67.67,0,0,0,74,50a2.12,2.12,0,0,0-.41.57l-.25-.17A2.69,2.69,0,0,0,73.84,49.38Zm2.86-.15a1.79,1.79,0,0,0,.24.57h-.06s0,0,0-.06a1.5,1.5,0,0,0-.26-.49Zm3,.15-.28.13c0-.08,0-.2,0-.32Zm1.88,3,0-.06a2.63,2.63,0,0,0-.82-.57l.26-.18a1.32,1.32,0,0,0,.19-.17A10,10,0,0,1,81.57,52.4ZM77,58a4.19,4.19,0,0,1-1.42,2.3,4.94,4.94,0,0,1-.91.61l-.66-.75c.14-.26.28-.54.42-.87a2.76,2.76,0,0,1,.52-.81h.11a2.87,2.87,0,0,0,2-.94h0c0,.09,0,.2,0,.33L76.8,58Zm-3.33-.83a1.16,1.16,0,0,1-.72.49,1.37,1.37,0,0,1-1.24-.37c-.15-.15-.14-.25-.13-.28,0-.27.47-.61.8-.79.5,0,1.25.17,1.43.44a.26.26,0,0,1,0,.06A1.3,1.3,0,0,0,73.72,57.16Zm3.8-8.82a1.28,1.28,0,0,1,.36-.26,4.26,4.26,0,0,0,.87.68,4.07,4.07,0,0,1,0,.63,2.08,2.08,0,0,1-1,.25,1,1,0,0,1-.41-.73.77.77,0,0,1,0-.26Zm3,6.5A1.64,1.64,0,0,1,80.61,56a1.52,1.52,0,0,1-1,.84c-.33.12-.75.22-.91,0A1.84,1.84,0,0,1,79,55.17a1.44,1.44,0,0,1,.71-.26l.15,0a2.35,2.35,0,0,0,.56-.08Zm-1.81-1.27a.56.56,0,0,1-.49.33h0a.74.74,0,0,1-.28-.07,4.69,4.69,0,0,0-.45-.65,1.08,1.08,0,0,0,.35-.25,1.62,1.62,0,0,0,.32-.52,6.4,6.4,0,0,1,.82-.21,2.46,2.46,0,0,1,0,.59A1.87,1.87,0,0,0,78.71,53.57Zm-1.19,1.38a.64.64,0,0,1-.46.3,2.73,2.73,0,0,0-.76-.31l-.11,0-.1,0L76,55l-.13-.07A3.26,3.26,0,0,0,75.19,53l0,0,0,0,0,0a2.21,2.21,0,0,1,.71-.29,8.31,8.31,0,0,1,.62.6.9.9,0,0,0,0,.14,2,2,0,0,0,.75.91A.72.72,0,0,1,77.52,54.94Zm-3.36-1.79.18,0a1.5,1.5,0,0,0,.07,1,2.74,2.74,0,0,0,.7,1,.7.7,0,0,1-.07.14c-.34.41-.64.6-.84.58s-.53-.25-1-1.2a1,1,0,0,1-.06-.9,1.73,1.73,0,0,1,.79-.74A1.31,1.31,0,0,0,74.16,53.15Zm6.17,1a5.8,5.8,0,0,0-.62.05.53.53,0,0,1-.12,0s-.14-.08-.19-.34a1,1,0,0,1,0-.18,3.38,3.38,0,0,0,.2-.67,1.78,1.78,0,0,1,.76-.67h0a1.14,1.14,0,0,1,.87,1.37.32.32,0,0,1-.2.2A6.46,6.46,0,0,1,80.33,54.18Zm-2-2.51v-.05l0,0Zm-1.16-1.24a1,1,0,0,1,.49.18,4,4,0,0,1,0,1.3,2.13,2.13,0,0,0-.77.52A1.47,1.47,0,0,1,76.67,51c.07-.23.19-.51.4-.57Zm-2.85.12a2.23,2.23,0,0,0,1.33.72,2.3,2.3,0,0,1-.68,1.1l-.1.06-.11,0-.15-.17-.14-.15h0a1,1,0,0,0,0-.34,1.49,1.49,0,0,0-.4-.84A2.48,2.48,0,0,1,74.32,50.56ZM72.86,55.4l.11.2-.23,0Zm1.52,1.92a1.93,1.93,0,0,0,.09-.17,1.11,1.11,0,0,0,.07-.26A4.89,4.89,0,0,1,76,55.74a2.43,2.43,0,0,0,.69.17h.18a.59.59,0,0,1,.18.23.74.74,0,0,1-.2.67l-.1.11a3.86,3.86,0,0,0-2,.83.56.56,0,0,1-.41-.38A.36.36,0,0,1,74.38,57.32Zm3.41-.13,0-.28h-.19a1.19,1.19,0,0,0,.09-1,1.07,1.07,0,0,0-.08-.15,1.24,1.24,0,0,0,.51-.48,1,1,0,0,0,.12-.72h0a1.15,1.15,0,0,0,.66-.2s0,.07,0,.09a1.31,1.31,0,0,0-.4.25,2.42,2.42,0,0,0-.34,2.44l.07.09-.46.25C77.79,57.32,77.79,57.2,77.79,57.19Zm.69.72h0a4.18,4.18,0,0,1,2.11.52c-.14.51-.29,1.06-.45,1.64a5.33,5.33,0,0,1-1.58-1.26A.79.79,0,0,1,78.48,57.91Zm1.41-.49a2.13,2.13,0,0,0,1.34-1.23,2.28,2.28,0,0,0-.09-1.6l.15-.06a1,1,0,0,0,.58-.6,1.12,1.12,0,0,0,0-.23,1.69,1.69,0,0,1-.1,1.12,15.29,15.29,0,0,0-1,2.94A3.78,3.78,0,0,0,79.89,57.42Zm.7-6.37-.29.21a2.55,2.55,0,0,1-.76.45l-.08-.24-.27,0h-.05L79,51.4a.9.9,0,0,1-.35-.85l1.42-.63a3,3,0,0,1,.38.31c.12.16.23.33.34.52C80.8,50.79,80.81,50.9,80.59,51.05Zm-5-1.79a1.51,1.51,0,0,1,.62.69.52.52,0,0,1-.06.42.54.54,0,0,1-.17.19,3.87,3.87,0,0,0-1.31-.77A3,3,0,0,1,75.62,49.26Zm-3.29,3.65a1,1,0,0,0,.16-1.12,8.17,8.17,0,0,1,.65-.75l.18.14a2.56,2.56,0,0,0-.1.74,1.45,1.45,0,0,0,.13.55c-.48.37-1.06.8-1.28.74,0,0,0,0,0,0A2,2,0,0,0,72.33,52.91Zm.16.88,0,.07-.06,0Zm-.11,4.52a2,2,0,0,0,.33,0,1.93,1.93,0,0,0,.42,0,1.83,1.83,0,0,0,.78-.38,1.19,1.19,0,0,0,.39.35,3.49,3.49,0,0,0-.43.75c-.09.22-.19.42-.28.61Zm.81,3.09a6.05,6.05,0,0,0,.5-.66l.39.44A4.45,4.45,0,0,1,73.2,61.4Zm5.55,4.11-.44,1.72a10.45,10.45,0,0,0-2.07-4.51c-.26-.35-.63-.8-1.08-1.31a5.74,5.74,0,0,0,.89-.62A4.81,4.81,0,0,0,77.73,58h0A1.55,1.55,0,0,0,78,59.17a6.26,6.26,0,0,0,2,1.56C79.6,62.17,79.18,63.8,78.75,65.51Zm2.66-4.74-.65-.36.4-1.46,0,0a4.43,4.43,0,0,1,.63,1.66l-.07.29Zm22.53-27.6a4.15,4.15,0,0,1,.77,3.15c-.28,1.09-1.31,2.12-3.25,3.24a15.45,15.45,0,0,1-5.93,2.14,2.72,2.72,0,0,0-.29-.26,70.93,70.93,0,0,1,5.9-4.42,2.28,2.28,0,0,0,1.09-2.71A4,4,0,0,0,99.9,32,3,3,0,0,1,103.94,33.16ZM94.54,41a6.56,6.56,0,0,1-2.35-3.09l-.08-.19h0c0-.05,1.76-5.28,5.28-5.47,2.23-.12,3.81,1.08,4.19,2.26a1.61,1.61,0,0,1-.81,2,73.37,73.37,0,0,0-6.12,4.6ZM77,28c-.63-.17-1.59-.08-2.56,1.28a4.53,4.53,0,0,0-.56,1.11c-.74-6.84,1.61-12.5,6.86-16.23A89.14,89.14,0,0,1,96.82,5.33c3.47-1.56,5.76-2.59,6.64-3.93.48-.72.7-.75.69-.75.28.14.46,1.78.29,3.78,0,.29,0,.86-.07,1.65a90.83,90.83,0,0,1-1.71,16.65c-1.65,7.17-3.29,8.42-3.3,8.44l.19.27v0l-.24.11.17.3a5.65,5.65,0,0,0-2.1-.28c-3.37.18-5.2,4.16-5.72,5.49a.5.5,0,0,0-.2-.07c-.39,0-.63.34-1,1-.17.28-.37.61-.62,1a5.91,5.91,0,0,0-.61,4c-.52.68-1.63,2.11-2.2,2.69,0-.38,0-1.07.05-1.65s.06-1,.08-1.53a8.1,8.1,0,0,1,2.08-4.85c.77-.86.74-1.36.57-1.63a.82.82,0,0,0-.85-.3,19.5,19.5,0,0,0,1.8-6,9.73,9.73,0,0,0,.17-1.82H91a2.71,2.71,0,0,0-.11-.71,5.57,5.57,0,0,0-.77-2.42l5.13-6.22c.88-1.07,1.79-2.18,2.6-3.34a25.59,25.59,0,0,0,4.11-9.94c1.09-1.45,1.56-2.22,1.57-2.24l-.56-.34s-.33.53-1,1.52l-.44-.06c0,.29-.1.57-.15.86C100,6.73,98,9.3,94.87,12.69c-4.68,5.12-5.78,9.15-6,10.77a4.07,4.07,0,0,0-.55-.33c-.18-.09-1.12-.52-1.48-.11a2.34,2.34,0,0,0-.23.33l-.11.17a2.11,2.11,0,0,1-.26-.4A2.35,2.35,0,0,0,84,21.83c-.89.08-2.17.8-3.21,3.84-1.62,4.77,1.25,9.34,1.81,10.17l-.05,0a1.16,1.16,0,0,0-.56.92,2.33,2.33,0,0,0,.68,1.65,15.45,15.45,0,0,1,2.5,5.2c1.38,4.51-.08,6.83-1.56,8-.22.18-.31.18-.31.18a3.05,3.05,0,0,1-.43-.94,17.27,17.27,0,0,0-.7-1.7,3.84,3.84,0,0,1-.06-3.25,5.83,5.83,0,0,0,.31-1.27c0-.27.06-.63-.22-.77a.37.37,0,0,0-.16,0,21.39,21.39,0,0,0,0-5.41C81.78,35.27,79.7,28.75,77,28ZM89.44,24c.12-1.08.9-5.34,5.92-10.84,2.51-2.75,4.34-5,5.63-6.61a24.91,24.91,0,0,1-3.72,8.34c-.79,1.14-1.69,2.24-2.57,3.3l-5,6.08Zm-.57.36a4.07,4.07,0,0,1,.39.44L89.1,25a5.84,5.84,0,0,0-2.2-1,1.72,1.72,0,0,0,.25-.32l.12-.18A2.86,2.86,0,0,1,88.87,24.34Zm.8,1.09-.05,0,0,0Zm-3.83.7L85.73,26c-.26-.36-.57-.73-.93-.63s-.43.59-.5,1.32v.12a1.45,1.45,0,0,0-.61-1.22.77.77,0,0,0-.67,0c-.75.29-1.51,1.78-2,3a8.51,8.51,0,0,1,.44-2.61c.72-2.11,1.65-3.32,2.64-3.4a1.72,1.72,0,0,1,1.55.94A2.47,2.47,0,0,0,86,24a.77.77,0,0,0-.56.33C85.21,24.76,85.47,25.37,85.84,26.13Zm-2.59,0c.06,0,.09,0,.11,0,.44.24.26,1.76.18,2.41s-.12,1,.21,1.09.5-.23.66-.53a6.41,6.41,0,0,0,.54-2.4c0-.2,0-.42.06-.59l.17.22a10.89,10.89,0,0,1,1.19,2.44c.28.75.38,1,.73,1s.36-.45.37-.9a6.38,6.38,0,0,0-.9-2.73c-.23-.46-.66-1.32-.54-1.47s0,0,.19,0a4.36,4.36,0,0,1,2.46.86l-.8,1,.51.42.81-1,.11.09a3.31,3.31,0,0,1,.89,1.32,8.25,8.25,0,0,1-.12,2.33c-1,5.24-2,6.15-2,6.15l.1.14L88,36a2.23,2.23,0,0,1-2,.1,5.81,5.81,0,0,0-2.85-.44l.1-.07a14,14,0,0,1-2.15-5.52C81.63,28.55,82.62,26.39,83.25,26.14ZM77.5,46.52a8.32,8.32,0,0,1,1.07-.27l.64-.14a5.66,5.66,0,0,0,2.49-1.3l0,0a7.14,7.14,0,0,1-.24.88,4.44,4.44,0,0,0,.09,3.74,16.82,16.82,0,0,1,.67,1.63c.28.77.45,1.23.87,1.35a1,1,0,0,0,.9-.29c1.34-1.05,3.35-3.58,1.78-8.7a16.25,16.25,0,0,0-2.6-5.4c-.42-.58-.59-.83-.55-1.2a.51.51,0,0,1,.25-.42,4,4,0,0,1,2.84.29,2.87,2.87,0,0,0,2.5-.11,4.3,4.3,0,0,1,.57-.21.87.87,0,0,1,.38,0s0,.24-.5.85a8.79,8.79,0,0,0-2.24,5.27c0,.52,0,1-.07,1.51-.1,1.68-.11,2.27.28,2.47a.5.5,0,0,0,.57-.1,31.39,31.39,0,0,0,2.58-3.09l.09-.12,0-.15s-.48-2.32.48-3.67c.26-.37.47-.71.65-1a6.5,6.5,0,0,1,.39-.6,2.7,2.7,0,0,1,.18.4,7.23,7.23,0,0,0,2.66,3.44l.32.19.13.15,0,0c.36.26.57.51.56.72s-.28.5-.78.75a5.83,5.83,0,0,1-2.11.82c-.13,0-3.35-.32-5.4,4-.48,1-.94,1.86-1.39,2.68a33.81,33.81,0,0,0-3.48,8.58,5.48,5.48,0,0,0-.39-.77,2.37,2.37,0,0,0-.38-.46,18.22,18.22,0,0,1,1-3c.7-1-.06-3.22-.92-4.71A1.71,1.71,0,0,0,81,49.8l-.16-.23a4.92,4.92,0,0,0-1.44-1.2,1.45,1.45,0,0,0-.48-.91,1,1,0,0,0-.8-.15l0,0,0-.05-.12-.15s-.13-.15-.27-.29A2.42,2.42,0,0,1,77.5,46.52ZM76,47.39c.09-.37.23-.59.38-.63h.06a1.41,1.41,0,0,1,.76.44l.11.14c-.07.16-.19.4-.33.64a1.43,1.43,0,0,0-.15.25l-.13.21a.49.49,0,0,1-.55.19C75.92,48.56,75.78,48.18,76,47.39Zm-.71,1.06a1.37,1.37,0,0,0,.07.22l-.3.13c0-.06.09-.11.14-.19Zm-1.65-.81a.34.34,0,0,1,.1-.33,1.12,1.12,0,0,1,.68-.16,3.82,3.82,0,0,1,.67.06,2.31,2.31,0,0,1-.45,1c-.28.44-.48.53-.55.51a.26.26,0,0,1-.11-.08,2.68,2.68,0,0,0-.08-.72l0-.15-.14-.06-.05,0S73.61,47.68,73.61,47.64Zm-2.78,1.44a1,1,0,0,1,.43-.86,1.38,1.38,0,0,1,.71-.16,3.86,3.86,0,0,1,1.07.18,2.43,2.43,0,0,0,.23.64,2,2,0,0,1-.57,1.2,1.4,1.4,0,0,1-1.29.5l-.25-.14A1.62,1.62,0,0,1,70.83,49.08Zm-1,2.47a1.29,1.29,0,0,1,.71-.57l0,0h0a.63.63,0,0,1,.15,0,1.32,1.32,0,0,0,.26.16l.09,0a2.42,2.42,0,0,1,.57.57,2.71,2.71,0,0,0-.43,1,1.07,1.07,0,0,1-.3,0c-.31-.17-.56-.29-.63-.33l-.21-.1a1.71,1.71,0,0,1-.22-.32A.58.58,0,0,1,69.85,51.55Zm.92,1.89h0c.7.4,1.44.94,1.56,1.36a.23.23,0,0,1,0,.21,1.39,1.39,0,0,1-.88.72,1.65,1.65,0,0,1-1.21-.5c-.63-.51-.23-1.45,0-1.95A1.76,1.76,0,0,0,70.77,53.44Zm.42,2.95a1.24,1.24,0,0,0-.2.42l-.66-.71A2.06,2.06,0,0,0,71.2,56.39Z"/></g></g></svg>