<svg xmlns="http://www.w3.org/2000/svg" xmlns:xlink="http://www.w3.org/1999/xlink" viewBox="0 0 31.66 32"><defs><style>.cls-1{fill:none;}.cls-2{clip-path:url(#clip-path);}.cls-3{clip-path:url(#clip-path-2);}.cls-4{fill:url(#linear-gradient);}.cls-5{fill:#fff;}</style><clipPath id="clip-path" transform="translate(0 0)"><rect class="cls-1" width="31.66" height="32"/></clipPath><clipPath id="clip-path-2" transform="translate(0 0)"><path class="cls-1" d="M3,15.6a14.9,14.9,0,0,0,2.55,7.77l-1.6,4.77,4.93-1.61a14.32,14.32,0,0,0,7.22,2.17A13.1,13.1,0,1,0,3,15.6"/></clipPath><linearGradient id="linear-gradient" x1="-555.4" y1="407.17" x2="-555.33" y2="407.17" gradientTransform="matrix(0, -353.97, -353.97, 0, 144141.91, -196567.55)" gradientUnits="userSpaceOnUse"><stop offset="0" stop-color="#5ab137"/><stop offset="0.5" stop-color="#1a9739"/><stop offset="1" stop-color="#5ab137"/></linearGradient></defs><title>whatsapp</title><g id="Layer_2" data-name="Layer 2"><g id="Graphics"><g id="whatsapp"><g class="cls-2"><g class="cls-3"><rect class="cls-4" x="2.96" y="2.5" width="26.2" height="26.2"/></g><g class="cls-2"><path class="cls-5" d="M16.06,0A15.6,15.6,0,0,0,.46,15.6a18,18,0,0,0,2.26,8.1L0,32l8.55-2.73a15.81,15.81,0,0,0,7.51,1.93,15.6,15.6,0,1,0,0-31.2m0,28.7a14.32,14.32,0,0,1-7.22-2.17L3.91,28.14l1.6-4.77A14.9,14.9,0,0,1,3,15.6a13.1,13.1,0,1,1,13.1,13.1" transform="translate(0 0)"/><path class="cls-5" d="M10.12,8.81a1.83,1.83,0,0,1,.64-.27H12a.7.7,0,0,1,.48.4c.15.34,1.19,2.78,1.26,3a1,1,0,0,1,0,1.07c-.32.42-1,1.19-1,1.19a.48.48,0,0,0,0,.62,12.47,12.47,0,0,0,2.11,2.6,10.05,10.05,0,0,0,3,1.87c.65.21.79-.07,1-.39l1-1.3a.61.61,0,0,1,.79-.15c.53.24,3.08,1.48,3.08,1.48a.42.42,0,0,1,.33.4,2.79,2.79,0,0,1-.69,2.39,4.66,4.66,0,0,1-3.83,1.2,15,15,0,0,1-6-2.94A19.78,19.78,0,0,1,9.2,14.64a5.14,5.14,0,0,1-.59-2.73,4.32,4.32,0,0,1,1.51-3.1" transform="translate(0 0)"/></g></g></g></g></g></svg>