<svg xmlns="http://www.w3.org/2000/svg" viewBox="0 0 116.21 164.11"><defs><style>.cls-1{fill:#fff;}</style></defs><title>זנתוקסילום</title><g id="Layer_2" data-name="Layer 2"><g id="Expended"><path class="cls-1" d="M33.81,113.79s0-.09,0-.21a19.82,19.82,0,0,0,.47-2.13c.56-3.57,1-7,1.24-9.9h.05a5.44,5.44,0,0,0,0-.67c.35-3.73.5-6.44.53-7.18,1.1-.39,6.64-2.31,8.71-2l.31,0c-1.78,1.26-7,5.56-6.41,11.94.31,3.1.61,5.26.83,6.84a20.55,20.55,0,0,1,.35,5c-.25,2.64,3.34,10.12,3.49,10.44l.61,1.27v-1.41c0-.09.1-9,2.06-12.46,2.05-3.65,3.32-10.57,2.94-16.09-.22-3.13-.91-4.66-1.5-5.42.54,0,1-.11,1.64-.2l1.12-.16a17.34,17.34,0,0,1,2.84-.05l1.11,0c-.12.2-.34.5-.56.8C52.16,94.4,49,98.8,49.31,104.84c.26,5.11,2.85,6.6,3.71,7.1a7.21,7.21,0,0,1,2.15,2.27l.08.15a8.44,8.44,0,0,0,3.27,3.57c1.84.93,4.71,2.75,5.33,3.19a.44.44,0,0,0,.25.08.41.41,0,0,0,.19,0c.38-.21.43-.92.31-4.23a19.41,19.41,0,0,1,0-2.65,1.91,1.91,0,0,1,.13-.25c.57-1,1.9-3.23-.26-11S58.26,92,57.2,91.2l1.25-.31a40,40,0,0,1,7.48-1.39,8.39,8.39,0,0,1-1.52,4c-1.66,2.29-1.63,6.8,1.07,9.87a17.43,17.43,0,0,0,1.65,1.66l.24,1.54.12-1.23c.28.23.52.4.72.55a2.34,2.34,0,0,1,1.18,1.54A5.81,5.81,0,0,0,71.75,111a8.09,8.09,0,0,1,.93.88,1.69,1.69,0,0,0,.49.43l-.79,1.09-.17.24c-2.9,4-3.91,5-9.05,8.87-1.18.88-2.27,1.6-3.26,2.21a2.37,2.37,0,0,0-.67-1.94,3.57,3.57,0,0,1-.89-3.88c.14-.32.05-.51,0-.6a.49.49,0,0,0-.6,0,5,5,0,0,0-2.3,4.26A4,4,0,0,0,58,125.78a21.56,21.56,0,0,1-3.39,1.48,3.7,3.7,0,0,0-.29-.27,3.07,3.07,0,0,0-3.55-.25c-1.42.8-2.78,2.53-1.21,6.28l0,.1c-.94.24-4,1.27-3.69,4.54a3.74,3.74,0,0,0,1.86,3l0,.12c-.09.28-.17.55,0,.75l.18.15h.17a7.16,7.16,0,0,1,1,.21l0,.08,1.79-.25-1.16-.32.21-.28a2.72,2.72,0,0,1,1-.47,8.52,8.52,0,0,0,1.42-.6,3.7,3.7,0,0,0,1.4,2.25A2.67,2.67,0,0,0,55.4,144a3,3,0,0,0,1.08.21,2.17,2.17,0,0,0,.77-.13,10,10,0,0,0,.63.81c.19.23.37.45.53.67a4.18,4.18,0,0,1,.48,2.53.61.61,0,0,0,.25.63,1,1,0,0,0,.54.15,1,1,0,0,0,.47-.11,1.26,1.26,0,0,1,.46-.18l.12,0a.91.91,0,0,0,.75-.54,2.22,2.22,0,0,1,.58-.37c.33-.17.58-.3.66-.52s-.1-.62-.56-1.21c-.17-.21-.37-.47-.59-.77a2.36,2.36,0,0,1-.21-1.42,7.19,7.19,0,0,0,0-1.2,2.41,2.41,0,0,0,2.06-1.4,1.86,1.86,0,0,0-.26-2.25,4.41,4.41,0,0,0,.15-1.38,4.3,4.3,0,0,0-.36-1.64l-.41-.82-.2.89a2,2,0,0,1-1,1.27,12.75,12.75,0,0,0-1.77.83,2.06,2.06,0,0,0-.18-.4A2.23,2.23,0,0,0,58,136.52c-.13-.24-.74-1.6.07-4.76.92-3.64,3-5.55,7.45-8.47s6.25-4.27,10.23-10.37c3.33-5.09,7.24-6.15,8.14-6.33.13,7.62.29,14.35.44,16.44A31.51,31.51,0,0,0,85,128c.06.26.11.51.13.67-.65-.15-5.36-.83-5.83,0a.5.5,0,0,0,.14.63,9.58,9.58,0,0,0,2.28,1.21c1.24.55,3.11,1.38,3.22,2,0,.24.09.58.15,1a100.6,100.6,0,0,0,2.73,13.36c2.3,8.67,2.29,12.88,2.29,12.92h.66c0-.17,0-4.33-2.31-13.1a99.78,99.78,0,0,1-2.71-13.27c-.06-.47-.11-.83-.16-1.08-.17-1-1.92-1.73-3.61-2.47a14.48,14.48,0,0,1-1.91-.94,19.94,19.94,0,0,1,4.91.35.66.66,0,0,0,.65-.08c.25-.23.17-.57,0-1.38A31,31,0,0,1,85,123c-.33-4.94-.8-35.79-.58-43h-.11c.32-.2.64-.39,1-.58a3.24,3.24,0,0,0,1.27-1.16c.17-.25.27-.38.44-.44s.65.53,1,1.05c.24.33.52.7.83,1.07a8.45,8.45,0,0,0,1.55,1.46,3.09,3.09,0,0,0-.31,1.44l-.25,0a257.42,257.42,0,0,0-2.09,31.73c0,8.64,1.09,16.72,4.19,29.82,2.9,12.2,2.29,19.63,2.28,19.7l.66.06c0-.08.63-7.6-2.3-19.91-3.09-13-4.22-21.08-4.18-29.66A264.24,264.24,0,0,1,90.35,84l0,.11a3.06,3.06,0,0,0,3.08,1.36,2.58,2.58,0,0,0,2.3-2.19,2.12,2.12,0,0,0-.34-1.77c-.77-1-2.41-1.1-3.29-1.15a3.31,3.31,0,0,1-.4,0,4.5,4.5,0,0,1-2.29-1.65c-.43-.48-1.31-1.47-1.21-1.65l.06-.11c.69-1.35,1.42-1.92,2.21-1.73a4,4,0,0,1,1.93.95,2.33,2.33,0,0,0,0,1.2c.48,1.78,1,2,1.73,2.11a2,2,0,0,1,.54.14,1.81,1.81,0,0,0,.75.15,3,3,0,0,0,1.41-.39v0H97c.79,0,2.23-.34,2.41-1.68a2,2,0,0,0-.09-1.08c0-.11,0-.11,0-.18a1.57,1.57,0,0,0-.44-2.08,1.88,1.88,0,0,0-2.11-.15,3.61,3.61,0,0,0-2.62.13,3.17,3.17,0,0,0-.92.59A4.57,4.57,0,0,0,91.63,74a.52.52,0,0,1-.27-.1h0a2.54,2.54,0,0,0,.4-.43c.29-.35.79-.94,1.19-.94h0l.4,0c.51,0,.95.08,1.3-.54.07-.12.11-.21.15-.3.13-.27.16-.32.69-.48.27-.08.45-.13.58-.16a3.81,3.81,0,0,0,.61,1.06,1.83,1.83,0,0,0,1.49.78,2,2,0,0,0,1-.27,3.33,3.33,0,0,0,1.58-1.28,2.77,2.77,0,0,0,0-3.1l-.15-.15a2.71,2.71,0,0,0-2.77-1A2.29,2.29,0,0,0,96,69.16a2.77,2.77,0,0,0-.84.24c-.18-.44-.64-1.28-1.45-1.23a8.73,8.73,0,0,1-1.42,0l-.29,0a1,1,0,0,0-.71.29,2.61,2.61,0,0,0-.61,2A4.36,4.36,0,0,0,91,72.33l-.58.46a3.4,3.4,0,0,1-.83.58c-.2.06-1-.48-2.23-2.5-.64-1.09-.64-1.19-.64-1.28s0-.08,0-.12a3,3,0,0,0,.43-2.57,2.15,2.15,0,0,0-.87-1.54,1.7,1.7,0,0,0-.48-.21C85.42,62.49,84.4,53.91,85,48a7.88,7.88,0,0,0,4.31,1.21A10.56,10.56,0,0,0,93,48.47c5.38-2,5.64-6.19,5.65-6.37v-.17l-.14-.11a7.44,7.44,0,0,0-2.91-1.18,13.11,13.11,0,0,0,1.41-.59,13.07,13.07,0,0,1,4.79-1.33,24.61,24.61,0,0,0,4.25-.84c4.25-1.25,4.78-2.93,4.83-3.11l0-.2-.15-.13a20.34,20.34,0,0,0-10.14-4.2,28.05,28.05,0,0,0,6.18-2,32.38,32.38,0,0,0,3-1.59l.19,0,0-.07A21,21,0,0,0,114.42,23l.1,0,0,0a9,9,0,0,0,1.64-2.27l.09-.21-.16-.16a2,2,0,0,0-.94-.39,3.49,3.49,0,0,1-.45-.18,13.74,13.74,0,0,0-7.47-1c-.3,0-.6.09-.9.15,2.73-1.13,5.37-2.48,6-3.68a2.41,2.41,0,0,0,.27-2.29,1.77,1.77,0,0,0-.92-.78,4.07,4.07,0,0,0,1-2.09,1.69,1.69,0,0,0-.7-1.87,2.31,2.31,0,0,0,.35-1.67,1.18,1.18,0,0,0-.52-.78,1.38,1.38,0,0,0-.59-.2,5.71,5.71,0,0,0,.07-1.08,16.29,16.29,0,0,0-.85-4.25L110.33,0h-.19c-.25,0-.34.12-1,1.13a40.05,40.05,0,0,1-7.1,9,12.83,12.83,0,0,0-2.59,3.2c.55-5.75-2.35-8.57-2.5-8.71l-.33-.31-.2.4a39.24,39.24,0,0,1-3.64,5.77,21.52,21.52,0,0,1-2.38,2.72,9.11,9.11,0,0,0-2,2.57,9,9,0,0,0-1,4.77,9.33,9.33,0,0,0-1.48-1,6.5,6.5,0,0,1-2-1.83L83.63,17l-.17.78a6.54,6.54,0,0,1-2.17,3.1,4.79,4.79,0,0,0-2,3h0l0,.07c-.17,1.26.17,3,1.22,6,1.91,5.42,5,7.75,5.83,8.3-.28.68-.58,1.39-.89,2.17-1.4-.32-8.51-2.24-10.5-9.16a32.33,32.33,0,0,1-.68-14.72c0-.16,0-.27.06-.34a.68.68,0,0,0-.19-.58c-.32-.32-1-.4-2.07-.26-.4.05-.47.47-.46,1a14.78,14.78,0,0,1-.72-1.51.49.49,0,0,0-.44-.35c-.46,0-1.11.61-1.36,1.19s.13,1.08.71,1.8a17.92,17.92,0,0,1,1.31,1.77c.86,1.33.84,2,.78,3.94,0,.88-.06,2,0,3.48a24.14,24.14,0,0,0,.77,6.17,45.09,45.09,0,0,1-7.2-2c1.43-.35,3.61-1.49,4.08-5.17.69-5.45-1.74-7.2-1.84-7.27l-.12-.08-.15,0a6.8,6.8,0,0,0-4.82,6.19A11.11,11.11,0,0,0,63.29,30L63,29.82a15.42,15.42,0,0,1-4-2.41c-.3-1-3.11-9.87-10.28-10.12A21.91,21.91,0,0,0,36,20.87c-.78-.68-1-.75-1.23-.66l-.23.15v.21a6,6,0,0,0,.15,1A18.78,18.78,0,0,1,35,27.53c-.41,3,0,9.35,2.94,13.94a15.09,15.09,0,0,0,3.63,3.71,10.3,10.3,0,0,0-2.49.27,44.52,44.52,0,0,0-9.29,3.16,8.59,8.59,0,0,1-2.52.9A4.36,4.36,0,0,1,25,49c-.39-.17-.68-.3-.9-.09s-.11.54,0,.71c.52,1.43,6.57,8,16.3,8l.54,0,.09.16.25-.17h.38c.86,0,1.65-.13,2.4-.22l.07.11.19-.14q1-.12,1.79-.27v.17a2.31,2.31,0,0,0,.89-.34c5.81-1.27,7.24-3.65,7.39-3.94a26.22,26.22,0,0,1,4.91,7.45l.19.5A8.63,8.63,0,0,0,57,59a14.19,14.19,0,0,0-11.31-.88c-7.94,2.55-9.92,8.85-9.89,9.49,0,.83,1.28.91,7.61,1h.15c5.12,0,9.14-2.39,12.41-4.73,2.61-1.87,3.42-1.6,3.5-1.56l.77.78c.35,1,.67,1.93.95,2.82a5.53,5.53,0,0,0-5.91-1.34A8.91,8.91,0,0,0,51,68.64a7.72,7.72,0,0,1-2,2.43c-1.93,1.28-2.66,1.76-2.62,2.31a.69.69,0,0,0,.46.56,2.66,2.66,0,0,0,1.14.19l.66,0,.19.27s.12-.09.26-.21l.27,0,.15.22.18-.15.1,0,.08.23a.35.35,0,0,0,.19-.16l.31.08c.4.12.78.28,1.17.43a8.18,8.18,0,0,0,3.07.76,6.07,6.07,0,0,0,3.11-.93c2.38-1.39,3.79-4.48,4.39-6.07A28.63,28.63,0,0,0,65.79,77c1.13,1.64,1.92,2.64,2.61,3.51A32.31,32.31,0,0,1,72.9,88l.59,1.2a18.13,18.13,0,0,1-4.61-1.6c.18-.54,1.93-6.09-2.88-9.18-5-3.19-14.07-2-14.9-1.78-.27.08-.34.23-.36.35,0,.28.19.41.53.61a4,4,0,0,1,1.91,2,10.19,10.19,0,0,0,6.22,6.59c.81.33,1.52.59,2.17.81l.19.18.09-.09.84.26a50.21,50.21,0,0,0-5.85.54c-.56-1.33-4.23-9.62-9.77-10.86-5.86-1.3-13.59,3-13.92,3.21l-.23.13.07.25a6.26,6.26,0,0,0,.92,1.68,19.12,19.12,0,0,0-4.1-1.09C22.8,80.13,16,79,14,78c-.57-.28-.79,0-.85.14-.56,1,3.31,6.53,8.06,9.77a25.59,25.59,0,0,0-3.47.12C8.54,89,2,97.33,2,97.41l-.26.33.39.17a5.62,5.62,0,0,0,2.1.31,13,13,0,0,0,2.65-.3l1.72-.39c3-.71,7.19-1.68,9.74-.91,1.89.56,7.13-.37,11.42-1.69a47.82,47.82,0,0,1-9.54,4.48c-.76.22-1.53.41-2.29.61-4.45,1.14-8.65,2.21-10.93,7a40,40,0,0,1-5.19,7.66C.37,116.42-.1,117,0,117.48a.47.47,0,0,0,.3.32,4.22,4.22,0,0,0,1.23.13c2.92,0,9.93-1.21,14.4-7.09L18,108.09c3.9-5.17,5.68-7.53,9.32-10.22a65.28,65.28,0,0,1,7-4.63l-.05-.1a5.46,5.46,0,0,0,1.3-.9,67,67,0,0,1,7.56-2.43l.79.1-.48-.18a18,18,0,0,1,3.75-.63h0c.68,0,1.25,0,1.78.06a25.15,25.15,0,0,0,7-.53,49.58,49.58,0,0,1,7.69-.7l0,.15a1.61,1.61,0,0,0,.45-.15h1.05l.06.14.31-.14c.46,0,.68,0,.79,0a.79.79,0,0,0,.65-.61l1,.53a19.34,19.34,0,0,0,5.89,2.11l.83,1.6c-1.53-.59-4.6-1.76-6.5-2.43-2.26-.8-7.07.42-9.94,1.16l-1.5.37a8.49,8.49,0,0,1-1.18.16l0-.34-.06.34a22.35,22.35,0,0,1-2.36,0,18,18,0,0,0-3,.06L49.06,91a13.71,13.71,0,0,1-2.28.22,1,1,0,0,0-.21-.08l0,.07a13.1,13.1,0,0,1-1.63-.16c-2.11-.32-7.21,1.38-8.78,1.93v-.08l-.5.26A35.39,35.39,0,0,0,27,100a3,3,0,0,0-1,.85l.13.08a23.35,23.35,0,0,0-4.05,6.63c-3.56,9.18,2.15,18.62,2.21,18.71l.18.29.28-.19a24.41,24.41,0,0,0,9-12.55ZM91.57,80.92a2.91,2.91,0,0,0,.54.06c.72,0,2.22.14,2.81.9a1.47,1.47,0,0,1,.22,1.24,1.93,1.93,0,0,1-1.74,1.66,2.43,2.43,0,0,1-2.4-1,2.37,2.37,0,0,1,.12-2.31l.22-.31L91,81a6.46,6.46,0,0,1-1.64-1.48l-.18-.21A4.81,4.81,0,0,0,91.57,80.92ZM58.84,61.23a10.6,10.6,0,0,0-4.75-.62,2.5,2.5,0,0,1-.63-.47c-.1-.09-.17-.18-.25-.27s0-.24-.08-.44a4.67,4.67,0,0,0-.29-.84l-.48.22h0a2,2,0,0,1-.1-.44c0-.09,0-.18,0-.25a12.77,12.77,0,0,1,4.48,1.44A8.17,8.17,0,0,1,58.84,61.23Zm-7.48,2.48a8.32,8.32,0,0,0-.82,2.13l.65.08A8.64,8.64,0,0,1,51.95,64a4.38,4.38,0,0,1,.34-.57,2.37,2.37,0,0,1,0,.63,3,3,0,0,1-.17,1l.43.24a22,22,0,0,1-2.84,1.4,6.19,6.19,0,0,0,0-1.6A5.46,5.46,0,0,0,49.28,63c.44-.57.82-1,.95-1.12a24.18,24.18,0,0,1,3.07-.5A8.46,8.46,0,0,0,51.36,63.71ZM50.54,58l-.06.19a2.81,2.81,0,0,1,1.14.76c.21.24.37.46.53.67a7.3,7.3,0,0,0,.86,1l.08.06c-.63.06-1.33.17-2.07.31l0-.13a2,2,0,0,1-.71-.5c-.1-.09-.17-.18-.26-.27s0-.24-.08-.44a4.69,4.69,0,0,0-.29-.84l-.48.22h0a1.88,1.88,0,0,1-.11-.44,4.78,4.78,0,0,1-.05-.51c.48,0,.94-.08,1.39-.08Zm-2.13.23-.1-.07h.09Zm-2.5.5c.5-.16,1-.28,1.45-.39l0,.06a2.84,2.84,0,0,1,1.14.76c.21.24.37.46.53.67a7.2,7.2,0,0,0,.86,1,4.17,4.17,0,0,0,.37.31l-1.13.27-1,.29h0a2,2,0,0,1-.71-.5c-.1-.09-.17-.18-.26-.27s0-.24-.08-.44a4.81,4.81,0,0,0-.28-.83l-.48.22h0a1.92,1.92,0,0,1-.1-.43,4.4,4.4,0,0,1-.05-.6h-.44Zm1,3.37v0a2.82,2.82,0,0,1-1.37,0L45,61.91c-.06-.11-.16-.28-.33-.52a4.81,4.81,0,0,0-.81-.85l-.41.51a4.68,4.68,0,0,1,.47.45l-.67-.27a2.06,2.06,0,0,1-.36-.49,5.84,5.84,0,0,1-.28-.53,16.17,16.17,0,0,1,1.88-.94,2.74,2.74,0,0,1,1.07.73c.2.24.37.45.52.66a7.24,7.24,0,0,0,.86,1,4.13,4.13,0,0,0,.35.29Zm-4.66-1.17a4.35,4.35,0,0,0-.68-.05l.49-.32Zm3.09-2,.15-.06s0,.1,0,.17ZM43.44,67.9c-3.11,0-6.63-.06-7-.33a11.48,11.48,0,0,1,4-5.91,4.08,4.08,0,0,1,2,0c.42.14.76.28,1.09.42a8.19,8.19,0,0,0,1.71.57A23.31,23.31,0,0,0,38.28,67l.46.47a21.8,21.8,0,0,1,5-3.36,5.12,5.12,0,0,0-.45,1.18,7.86,7.86,0,0,0-.17,2.35l.66-.07a7.38,7.38,0,0,1,0-1.31,5.17,5.17,0,0,0,.62,1.23l.52-.41A8.38,8.38,0,0,1,44.08,65a4.91,4.91,0,0,1,.78-1.38l0,0a27.81,27.81,0,0,1,4.28-1.52,11.25,11.25,0,0,0-1.74,2.7c-.65,1.6-.47,1.86-.4,2l.37-.25.22,0A4,4,0,0,1,48,65.05a7.88,7.88,0,0,1,.84-1.47,5.21,5.21,0,0,1,.31,1.53,5.81,5.81,0,0,1,0,1.4h0l.44.23a16.18,16.18,0,0,1-6,1.17ZM55.6,63.3c-.89.64-1.82,1.26-2.78,1.84a4.19,4.19,0,0,0,.17-1,2.85,2.85,0,0,0-.2-1.31,12.61,12.61,0,0,1,1.62-1.52,10.52,10.52,0,0,1,3.95.49A11,11,0,0,0,55.6,63.3Zm3.33-1.7.09-.15.1.12ZM2.27,115.12a40.45,40.45,0,0,0,5.27-7.79c2.15-4.52,6.21-5.56,10.5-6.66.77-.2,1.54-.39,2.31-.61a26.34,26.34,0,0,0,3.08-1.14c-3.94,2.54-10.06,6.63-12.9,10A38.92,38.92,0,0,1,1,116.81C1.26,116.37,1.77,115.74,2.27,115.12Zm15.21-7.42-2.07,2.73C11,116.24,4.1,117.2,1.52,117.24A39.34,39.34,0,0,0,11,109.38c3.2-3.84,10.73-8.62,14.35-10.93l.59-.38C22.86,100.56,21,103.08,17.49,107.7ZM27.3,97.08l0,0,.13-.07Zm31-14.59a6.29,6.29,0,0,0,.69-.09,8.57,8.57,0,0,0,2.12-.61l1.34.72c-.25,0-.53.09-.84.16-1.2.27-1.57.34-2.78.57a5.11,5.11,0,0,1-1.7,0,2.74,2.74,0,0,0,.49-.2A2,2,0,0,0,58.26,82.49ZM54.67,80l.19-.09a2.64,2.64,0,0,1,.61-.17l.5,0a2.68,2.68,0,0,0,.35,0l.25,0a1.7,1.7,0,0,0,.59-.19l.81.45.22.12a6.3,6.3,0,0,1-1,.16A8.39,8.39,0,0,1,54.67,80Zm-2.11-2.38.4.13-.07.16A4.31,4.31,0,0,0,52.56,77.64Zm5.39-.4v0c-.12-.14-.25-.27-.37-.38h.34A.91.91,0,0,1,57.95,77.24Zm-2.74,1.87h0a3.62,3.62,0,0,1-1.35-.42l.24-.09h.35a3.84,3.84,0,0,0,.79-.06l.38.21.74.41-.29,0A4.75,4.75,0,0,0,55.21,79.11ZM53.88,77.9h.2l.1.06a4,4,0,0,1-.59-.07ZM57.29,79a9,9,0,0,1-.64-1.15,3.67,3.67,0,0,0,.22-.46l.05-.16a3.89,3.89,0,0,1,.95,1.13,9,9,0,0,1,.32,1.13Zm-1-2,0-.09h.08Zm-.38.8a3.28,3.28,0,0,0,.24.58l-.27-.15,0,0a2.26,2.26,0,0,0-.46-.8l-.12-.13h0a1.37,1.37,0,0,1-.12-.36h.35A4,4,0,0,1,55.92,77.75ZM54,77l-.14-.1H54Zm-.79.12a4,4,0,0,1-.43-.14l.68-.06Zm1,2.39-.24.16-.11-.3Zm4.78.33a12.93,12.93,0,0,0-.47-1.8,1.68,1.68,0,0,0-.07-.15,1.77,1.77,0,0,0,.2-.63,1.48,1.48,0,0,0,0-.34l.35,0-.1.08a4.64,4.64,0,0,1,.84,1.58,7.32,7.32,0,0,1,.13.78,5.43,5.43,0,0,0,.15.83l.05.2ZM61.4,78.1v0a8.78,8.78,0,0,0-.87-.94h0l1.07.2-.33.26A.87.87,0,0,1,61.4,78.1Zm2.88,1.79A5,5,0,0,1,65,81.82c.06.39.11.73.16,1s.09.63.14.88c-.26-.23-.54-.46-.83-.68a5,5,0,0,1-.2-.67,3.91,3.91,0,0,1-.16-1c0-.18,0-.38-.07-.63S64.2,80.27,64.28,79.89Zm2.6,4.83.06.62c-.2-.23-.43-.47-.69-.73a1.88,1.88,0,0,1-.17-.46l0-.1h0a1.13,1.13,0,0,1,.07-.72,2.26,2.26,0,0,0,.18-.34A3.32,3.32,0,0,1,66.88,84.71ZM65.5,87.23l-.24,0,.08-.08h0l.48-.14L65.8,87A2,2,0,0,1,65.5,87.23Zm-3.1-1.56a4.19,4.19,0,0,1-1.48-.06l.09-.06a4.35,4.35,0,0,0,.49-.44l.4-.08a13.76,13.76,0,0,1,1.91-.3,6.09,6.09,0,0,1,1.66,0l.4.4h-.53a11.36,11.36,0,0,0-1.79.28C63.2,85.52,62.83,85.6,62.4,85.67Zm3.4-3.18,0-.32.08.14A1,1,0,0,1,65.81,82.49Zm-1.53,3.78c.26-.18.43-.3.52-.38s.37-.06.58-.07a3.75,3.75,0,0,1,1.17.07l.27.32h-.1a4.52,4.52,0,0,0-1.56.28l-.79.23a2.53,2.53,0,0,1-1,.05A6.82,6.82,0,0,0,64.28,86.27Zm-.8-4.8a4.54,4.54,0,0,0,.16,1c-.24-.15-.49-.3-.74-.43h0c0-.11-.14-.32-.3-.75a10.47,10.47,0,0,1,.21-1.18,2.72,2.72,0,0,0,.06-.85,4.42,4.42,0,0,1,.45,1.09A5.84,5.84,0,0,1,63.48,81.47Zm-1.51,0,0,.05-1.12-.6a4,4,0,0,1-.28-.83,4.93,4.93,0,0,1-.13-.75,7.76,7.76,0,0,0-.13-.85,2.64,2.64,0,0,0-.09-.32c0-.07.07-.16.1-.27a4.78,4.78,0,0,1,1.07,1.49,7.31,7.31,0,0,1,.28,1A6.42,6.42,0,0,0,62,81.48Zm-2.14-4.15-.18-.28.23,0C59.87,77.15,59.85,77.24,59.83,77.34Zm-2,6.64a6.26,6.26,0,0,0,.75-.05c-.31.32-.55.61-.57.62l.42.35-.05.05a10.07,10.07,0,0,1-1.61-1.07A4.88,4.88,0,0,0,57.83,84Zm1.5.14a4.68,4.68,0,0,1,.51-.41c.6-.11,1-.21,1.87-.4a9.92,9.92,0,0,1,1.66-.24,13,13,0,0,1,1.29,1,9.15,9.15,0,0,0-.92,0,14.62,14.62,0,0,0-2,.31c-.37.08-.78.17-1.36.26a2.83,2.83,0,0,1-1.57,0C59,84.45,59.15,84.27,59.33,84.11ZM63,86.25h0l.21.52a2.27,2.27,0,0,1-.45-.14v0l-.28-.08A3.12,3.12,0,0,1,63,86.25Zm5.38.85-.44-.61-.2-.26c0-.16-.06-.69-.15-1.58a6.26,6.26,0,0,0-.16-.87,4.21,4.21,0,0,0,0-1.42,2.1,2.1,0,0,0-.47-1.14l-.46.47a1.77,1.77,0,0,1,.25.66,4.46,4.46,0,0,1-.61-1.09l-.13,0s0-.08,0-.12a2.85,2.85,0,0,0,0-1l-.61.16a5.12,5.12,0,0,0-.55-1l-.43.33h0a2.19,2.19,0,0,0,0-1.08l-.63.21a1.66,1.66,0,0,1,0,.59A6,6,0,0,0,62.81,78l-.5.44s.09.11.22.29l-.4.23a1.55,1.55,0,0,1,0,.73c0-.15-.08-.31-.15-.5a2.51,2.51,0,0,0-.13-.28,2.52,2.52,0,0,0,.15-.82,1.52,1.52,0,0,0-.16-.65,12,12,0,0,1,3.73,1.48C69.69,81.52,68.68,85.95,68.33,87.1Zm-16.49-10,.74-.09-.2.45C52.19,77.35,52,77.22,51.84,77.12ZM54,79.82l.35.41.16-.11-.15.5a11.71,11.71,0,0,0,1.15.27,6.78,6.78,0,0,0-.51.48l.48.45a5.78,5.78,0,0,1,.5-.47,2.92,2.92,0,0,1,.55-.33h.66a6.3,6.3,0,0,0,1.8-.37l1.33.73a12,12,0,0,1-1.49.37A5,5,0,0,1,56,81.54l-.28.6a4.79,4.79,0,0,0,1.52.36,2.54,2.54,0,0,1-.83.24l0,.66a2.6,2.6,0,0,0,.38-.06l-.13.45A9.49,9.49,0,0,1,54,79.82Zm5.26,5.54a3,3,0,0,0,.34,0,5.28,5.28,0,0,0,.54,0l-.32.18,0,.08-.19-.08Zm-4,1.18.18-.08c.24.48.44.9.58,1.2A7.83,7.83,0,0,0,55.26,86.53ZM33.71,80.64c1.36-.72,8.15-4.13,13.2-3,3.58.8,6.42,4.93,8,7.8-1.07-1.46-3.75-4.08-9.6-4.75-7.94-.91-10.79-.07-10.91,0l.19.63s2.89-.83,10.65.06c4.69.54,7.26,2.41,8.55,3.79a7.13,7.13,0,0,0-1.22-.71A4.53,4.53,0,0,0,50.65,84a15.09,15.09,0,0,0-2.74.36A26.6,26.6,0,0,1,41,85,10.78,10.78,0,0,1,38,84.44a20.33,20.33,0,0,0-2.74-1.58A6.36,6.36,0,0,1,33.71,80.64Zm7,6.91,0,.06a1.52,1.52,0,0,1-.44.38,2.35,2.35,0,0,1-.24-.67l.18-.28Zm1.5,1.73-1-.36a2.45,2.45,0,0,1-.57-.43A2.13,2.13,0,0,0,41.2,88C41.68,88.56,42,89,42.24,89.28Zm-6.69,2.28c-.22-.11-.91-.44-1.95-.86,1.88,0,3.65-.13,5.1-.26C37.37,90.88,36.22,91.29,35.55,91.56ZM22.09,86.09l.14-.08.67,0c.68-.05,1.05-.1,1.4-.15s.69-.09,1.34-.13a12.86,12.86,0,0,1,1.74,0l1.49.59c-.68,0-1.18,0-1.71.08s-1.09.09-1.91.1h-.1A17.24,17.24,0,0,1,22.09,86.09Zm-1.82.27v.08l-.78-.64c.13,0,.57.08,1.15.14l-.39.09Zm-2.84-4h0l.34.07a8.16,8.16,0,0,0,1.27.11h.33l.2.08h0c-.33,0-.63,0-.87,0a17.44,17.44,0,0,1-2.24-.11l0,.25-.28-.34A7.76,7.76,0,0,1,17.43,82.38ZM18.57,81l-.12-.12a1.58,1.58,0,0,0-.09-.43c-.14-.36-.25-.53-.42-.58,1.07.23,2.34.47,3.83.72l-.26.44A10.66,10.66,0,0,1,24,83a3.32,3.32,0,0,1,.46.86l-.75-.29L22.28,83a1,1,0,0,0-.14-.53,1.76,1.76,0,0,0-.46-.5,4.83,4.83,0,0,1-.4-.37,1.12,1.12,0,0,1-.14-.45.8.8,0,0,1,.07-.4l-.29-.16-.28-.17a1.38,1.38,0,0,0-.15.49A11.3,11.3,0,0,0,18.67,80l-.23.62a7,7,0,0,1,2.16,1.18l.15.16,0,0h0a5.49,5.49,0,0,0,.48.46l.22.2L19.81,82l-.65-.25A3.28,3.28,0,0,0,18.57,81Zm11.1,2.41c.53,1.05.67,1.38,1.07,2.36a6.4,6.4,0,0,0,.36.73l-.22-.08-.2-.08h0l-2.17-.88a4.59,4.59,0,0,0-.56-1.86,3.82,3.82,0,0,0-.27-.47,1.28,1.28,0,0,0,.36-.7,1.47,1.47,0,0,0-.14-.85l.53.08-.15.24A4.18,4.18,0,0,1,29.67,83.38Zm5.42,3.32a7.87,7.87,0,0,1-.86-1.58l-.11-.24a2.88,2.88,0,0,0,.29-.47,2.54,2.54,0,0,0,.13-.32,4.4,4.4,0,0,1,1.58,1.42,10.51,10.51,0,0,1,.46,1A6.51,6.51,0,0,0,37.43,88l.24.3L36.34,88A5.48,5.48,0,0,1,35.09,86.7ZM37.73,85l.25.17-.13.3S39,86,39.2,86.73c.09.27.14.49.19.69A2.53,2.53,0,0,0,40,88.73l-1-.18a3.32,3.32,0,0,1-1-.94c-.1-.13-.18-.25-.25-.37a4.61,4.61,0,0,0,.19-.48A3.21,3.21,0,0,0,38,85.69l-.66,0a2.79,2.79,0,0,1-.08.73l-.1-.23c-.08-.19-.17-.38-.27-.59a1.36,1.36,0,0,1,.15-.45c.07-.15.13-.26.19-.35Zm-3.24,4.16a3.27,3.27,0,0,1,1.29-.33H36a6.26,6.26,0,0,1,1,0h0l1.33.27-.66.09a12.7,12.7,0,0,1-3.29.08Zm-1.42.59h0Zm4.66.07c1.79-.23,2.73-.37,2.73-.37l.45.07c-.82.1-2,.22-3.31.32Zm-4.26-1.43-1.76.19a19,19,0,0,1-3.62,0l1-.34c.46,0,.8-.1,1.11-.14A13.75,13.75,0,0,1,31.91,88c.87-.06,1.25,0,1.35,0l1.39.38Zm-6.1-6.12a.59.59,0,0,1-.11.26,6.48,6.48,0,0,0-1.83-1.4l2,.31-.23.18A1,1,0,0,1,27.38,82.3Zm0,1.55a5.69,5.69,0,0,1,.47,1.3l-.06,0h0a.41.41,0,0,0-.15-.06l-2.41-1a3.47,3.47,0,0,0-.69-1.54,4.09,4.09,0,0,0-.44-.49,1,1,0,0,1,.11-.38,3.07,3.07,0,0,1,.37-.52l-.22-.2.9.14-.24.54A5.28,5.28,0,0,1,27.35,83.85Zm-3.76-2.47a1.37,1.37,0,0,0-.09.21,15,15,0,0,0-1.35-1l1.74.29A3.54,3.54,0,0,0,23.58,81.38Zm-6,1.88-.31.09.06.34-.43-.47Zm1.5,0c.86,0,2.27.14,2.63.18l1.14.44c-.63,0-1.34.08-1.86.09a12.93,12.93,0,0,1-2.49-.39A4.19,4.19,0,0,0,19.06,83.28Zm1.46,1.35.45,0h0c1.12,0,3-.16,3.26-.18l1.47.57H25.6c-.67,0-1,.08-1.39.13s-.7.09-1.36.14a17.1,17.1,0,0,1-3.31-.2l-.1.62-.71-.64a4.33,4.33,0,0,0,.91-.11A3.09,3.09,0,0,0,20.52,84.63Zm8.34,2.31h.07c1,0,1.42,0,1.59,0l.11,0,.83.32c-.58,0-1,.09-1.37.15a19.57,19.57,0,0,1-2,.21,15.78,15.78,0,0,1-1.77,0c.22,0,.45-.11.7-.2C28,87.16,28.66,87,28.86,86.94Zm-1.15,1.8v.07l-.12,0ZM29,89.82a20.58,20.58,0,0,1-4.58-1A35.93,35.93,0,0,1,29,89.82Zm1.85-.13.22,0,.36-.1v.15s.78,0,1.59.08h0a4.06,4.06,0,0,1-.75,0l-.06.29h-.42ZM35,83.44a8.2,8.2,0,0,0,1.67,1.11l-.17.32a5.65,5.65,0,0,0-1.72-1.42l-.11.22c0-.12,0-.21,0-.22L34,83.38a2.7,2.7,0,0,1-.22.73l0,.06-.13-.25a3,3,0,0,0-1.87-1.64l-.13.65a2.36,2.36,0,0,1,1.41,1.3c.26.49.41.84.55,1.15a8.52,8.52,0,0,0,.92,1.69,6.93,6.93,0,0,0,.5.64c-1-.24-2-.53-2.9-.85a5.78,5.78,0,0,1-.8-1.37c-.28-.67-.43-1-.67-1.54a2.7,2.7,0,0,1,.24-.42,6.41,6.41,0,0,1,.77-.89l-.46-.48a7,7,0,0,0-.86,1l0,.07-.08-.15a4.49,4.49,0,0,0-1.07-1.34l.52.08A18.58,18.58,0,0,1,35,83.44Zm-17.06-3.6-.11.4,0,0a5.23,5.23,0,0,0-.73-.43l-.28.6a5,5,0,0,1,1.2.84l-.66-.24a2.4,2.4,0,0,0-.45-.48,6.55,6.55,0,0,0-1.27-.79l-.28.6.41.21-.1.64s.13,0,.44.11l-.23.31.18.12-.3,0a12.08,12.08,0,0,1-2-3.17A20.75,20.75,0,0,0,17.93,79.84ZM17.55,84l.26-.08-.06.22s.66.18,1.39.32a4.22,4.22,0,0,1-.62,0l0,.45C18.17,84.59,17.85,84.27,17.55,84Zm3,2.68L21,86.5v0c.06,0,.85.21,1.83.37a3.93,3.93,0,0,1-.66,0l-.1.65a4,4,0,0,0,.54,0,4.23,4.23,0,0,0,.78-.07,5.33,5.33,0,0,0,1.2-.39l.54,0h.66a4.28,4.28,0,0,1-.82.07l0,.39-.75-.11-.12.65a19.89,19.89,0,0,0,2.46.24,5.37,5.37,0,0,1-.59.06v0A32.78,32.78,0,0,0,22.52,88,20.6,20.6,0,0,1,20.53,86.64Zm-2,9.36c-2.72-.82-7,.17-10.08.9l-1.71.39a10.92,10.92,0,0,1-3.26.25,28.81,28.81,0,0,1,14.93-5.78c7.83-.63,11.83,1.35,12.89,2C27,95.27,20.68,96.66,18.49,96Zm14-2.72h0l-.54.22.08-.1c-.16-.13-4.13-3.08-13.65-2.31a29.61,29.61,0,0,0-14.86,5.6c2.11-2.27,7.46-7.27,14.32-8a25.78,25.78,0,0,1,4.54-.06c2.41,1.4,5.95,1.92,9.39,2,1.53.54,2.66,1,3.23,1.32A11.06,11.06,0,0,1,32.45,93.28Zm16.64-4.77c-.55,0-1.12-.06-1.81-.06h0a20,20,0,0,0-4.25.74,17.17,17.17,0,0,0-1.52-1.83,2.31,2.31,0,0,0,0-.41l-.39,0-.64-.62a1,1,0,0,0-.08-.74l-.45.27-.54-.45a12.23,12.23,0,0,0,1.52.18A26.9,26.9,0,0,0,48,85c1.75-.34,3-.58,4.25,0a7,7,0,0,1,3.21,3A24.06,24.06,0,0,1,49.09,88.51Zm23,12.78a6.38,6.38,0,0,0-.59-.37,8.57,8.57,0,0,0-2-.88l-.58-1.41c.22.13.46.27.75.42,1,.53,1.39.71,2.5,1.34a5.08,5.08,0,0,1,1.33,1.06,2.72,2.72,0,0,0-.51-.16A2,2,0,0,0,72.09,101.29Zm1.19,4.19-.2-.05a2.69,2.69,0,0,1-.58-.26c-.15-.13-.27-.25-.36-.34a2,2,0,0,0-.46-.39,1.7,1.7,0,0,0-.57-.23l-.34-.87-.09-.23a6.34,6.34,0,0,1,.91.54A8.45,8.45,0,0,1,73.28,105.48ZM70,107.16c0-.09-.05-.17-.08-.25l.15-.1C70,106.94,70,107.06,70,107.16Zm-1-1.64c0,.06,0,.11,0,.17l-.09-.07.06-.07Zm1.34.41a3.49,3.49,0,0,0-.46.22l-.15.09a3.93,3.93,0,0,1,0-1.48,9.06,9.06,0,0,1,.47-1.07l.37,1A9.43,9.43,0,0,1,70.34,105.93Zm1.75-.24.19.16a3.51,3.51,0,0,1,.79,1.2l-.24-.08-.13-.13a4.25,4.25,0,0,0-.78-.57l-.15-.4-.31-.79.21.2a4.88,4.88,0,0,0,.42.4h0Zm.15,1.62,0,0a3.9,3.9,0,0,1,.47.48,2.12,2.12,0,0,0-.47-.37Zm-3.13-2.76c0,.05,0,.11,0,.16a1.79,1.79,0,0,0-.56.36,1.38,1.38,0,0,0-.12.15l-.21-.16a4.6,4.6,0,0,1,.36-1.72,7.24,7.24,0,0,1,.4-.68,5.57,5.57,0,0,0,.42-.74l.08-.19.44,1.12A13,13,0,0,0,69.1,104.55Zm.2-10.75c.22.09.47.19.77.33a2.54,2.54,0,0,1,.84.63,6.88,6.88,0,0,0-1-.21c-.32,0-.52,0-.65,0s-.32-.2-.49-.32a3,3,0,0,1-.9-.86l-.27.11-.09-.5a1,1,0,0,0,0-.2h-.08l-.1-.65a3.32,3.32,0,0,0,.59,1A4.26,4.26,0,0,0,69.3,93.8Zm2.62,3.39a5,5,0,0,0-.66,0l-.37-.2a13.92,13.92,0,0,1-1.66-1,5.88,5.88,0,0,1-1.32-1.15l-.07.05a1.21,1.21,0,0,0,.08-.37h-.16l-.07-.39a5.87,5.87,0,0,0,.64.53,11.23,11.23,0,0,0,1.55.92c.32.17.66.34,1,.57a4.19,4.19,0,0,1,1.1,1ZM68,103a2.66,2.66,0,0,0-.13.29l-.26.15a4.77,4.77,0,0,1,.13-1.83,7.55,7.55,0,0,1,.45-1,6.3,6.3,0,0,0,.44-1l0-.05.48,1.18a4.05,4.05,0,0,1-.32.81,4.93,4.93,0,0,1-.38.66A7.73,7.73,0,0,0,68,103ZM66.1,96.76l0-.16.14-.12ZM67,93.91q.09.49.19,1L67.1,95l0,.08h0a1.11,1.11,0,0,1-.52.51,2.24,2.24,0,0,0-.35.15,3.31,3.31,0,0,1,.67-1.69Zm-.53,3.59.53-.88.41-.69q.12.51.25,1a5.1,5.1,0,0,1-.27.61,3.88,3.88,0,0,1-.48.84c-.11.15-.22.31-.35.53l-.74.56A5,5,0,0,1,66.43,97.49Zm.39,2.25a5.79,5.79,0,0,1,.59-1,4.47,4.47,0,0,0,.51-.86c.09.29.19.56.29.81h0c0,.11-.1.34-.25.77a10.83,10.83,0,0,1-.91.78,2.9,2.9,0,0,0-.59.59A4.41,4.41,0,0,1,66.82,99.74Zm5.47-.38a4.26,4.26,0,0,1-.65,0c-.56-.31-1-.51-1.69-.89a9.18,9.18,0,0,1-1.44-.88c-.16-.49-.31-1-.44-1.62a9,9,0,0,0,.8.61,14.66,14.66,0,0,0,1.72,1c.33.17.71.37,1.22.67a2.81,2.81,0,0,1,1.18,1C72.78,99.33,72.53,99.35,72.29,99.36Zm.18-1.46.37.06.1-.46c.14.39.33.84.54,1.32A3.48,3.48,0,0,0,72.47,97.91Zm.31-.62.06,0,0,0ZM72,96.16c.3,0,.46,0,.47,0l0-.36c.1.37.23.83.43,1.38A5,5,0,0,0,72,96.16Zm-.44-.67a3.07,3.07,0,0,1-.66-.08h0l.16-.53a2.19,2.19,0,0,1,.26.39l.6-.27a3.08,3.08,0,0,0-.77-1l.29-.44A1.78,1.78,0,0,1,72.21,95l.11.5A6,6,0,0,1,71.52,95.49Zm-1.1-2.28a5,5,0,0,0-.83,0l0,0-.46-.2h.09a3.49,3.49,0,0,1,.83.15l.13-.4.72.48.17.11A4.4,4.4,0,0,0,70.42,93.21Zm-1.23-.88h0a2.4,2.4,0,0,0-.83.18,8.53,8.53,0,0,1-.95-2.06,26.88,26.88,0,0,0,2.27,1.93A2.71,2.71,0,0,0,69.19,92.33Zm-4.25,1.6a9.06,9.06,0,0,0,1.5-3.44c.08.64.2,1.47.34,2.38a5.28,5.28,0,0,1-.48.85,6.24,6.24,0,0,0-.44.77A4.22,4.22,0,0,0,65,95.61a2.07,2.07,0,0,0-.36,1.18l.66-.07a1.73,1.73,0,0,1,.23-.67,4.53,4.53,0,0,1-.22,1.23l.13,0-.09.08a2.81,2.81,0,0,0-.58.77l.57.27a5.08,5.08,0,0,0-.2,1.11l.54,0h0a2.19,2.19,0,0,0-.67.86l.61.24a1.73,1.73,0,0,1,.36-.48,6.06,6.06,0,0,0-.24,1.66l.66,0s0-.15,0-.36l.45.08a1.51,1.51,0,0,1,.42-.59c-.06.14-.13.29-.2.48a2.52,2.52,0,0,0-.08.3,2.54,2.54,0,0,0-.64.53A1.49,1.49,0,0,0,66,103L66,103C63.26,99.89,63.63,95.74,64.94,93.92Zm1.15,9.18.58,0a.85.85,0,0,1,.19-.45l0,0a8.74,8.74,0,0,0,.07,1.28l0,0C66.67,103.72,66.39,103.44,66.09,103.11Zm4,4.46.47,0a4.59,4.59,0,0,1,.27-1.18,3.28,3.28,0,0,0,.18-.6l.11.28,0,0a2.25,2.25,0,0,0-.16.91,1.61,1.61,0,0,0,0,.18h0a3.15,3.15,0,0,1-.46.9l.54.37c0-.05.13-.2.23-.37a2.7,2.7,0,0,0,.24.35l.21-.19c.17.82.29,1.59.36,2.15A5,5,0,0,1,70.11,107.57Zm2.78,3.57c0-.35-.14-1.39-.37-2.58a4.63,4.63,0,0,1,.39.6l.59-.3a5.46,5.46,0,0,0-.34-.55l.54-.27s-.07-.14-.19-.31l.06-.06.33,0c0-.15-.14-.25-.4-.39l.32-.12a6.64,6.64,0,0,0-.45-1l.3,0h0v-.66l-.19,0,.44-.29s-.31-.45-.72-.94a6.21,6.21,0,0,0,.7,0l-.09-.65a4.4,4.4,0,0,1-.68,0,3,3,0,0,1-.64-.1,5,5,0,0,0-.51-.42,6.32,6.32,0,0,0-1.62-.86l-.56-1.41a12,12,0,0,1,1.39.66,5,5,0,0,1,2,2l.6-.28a4.86,4.86,0,0,0-.95-1.25,2.46,2.46,0,0,1,.79.35l.39-.53a2.63,2.63,0,0,0-.33-.2l.44-.3A5.18,5.18,0,0,0,72.75,100c.44,0,.81-.11.83-.12l-.1-.53.2,0v0c.14.31.29.64.46,1a11.26,11.26,0,0,1-.63,10.9l-.21.39-.12-.13ZM56.06,122.46a4.38,4.38,0,0,1,1.51-3.31,4.32,4.32,0,0,0,1.19,4.07,1.55,1.55,0,0,1,.36,1.86l.09.06-.5.28,0-.08C58.62,125.31,56.24,124.65,56.06,122.46Zm-4.95,4.86a2.41,2.41,0,0,1,2.82.2,3.3,3.3,0,0,1,1.17,3.33C54.5,133,52,133.4,52,133.4l-.19.06a.93.93,0,0,0-.75.91,1.84,1.84,0,0,1-.76-.16,2.62,2.62,0,0,0,0-1.17,2.39,2.39,0,0,0-.11-.28C49.08,130.11,49.39,128.28,51.11,127.32ZM50.81,140a2.84,2.84,0,0,0-1.31.68,5.23,5.23,0,0,0-.37.5c-.24-.06-.53-.13-.77-.17l0-.06c.09-.29.2-.63-.16-.83a3.07,3.07,0,0,1-1.64-2.57c-.27-2.7,2.21-3.59,3.1-3.82a.71.71,0,0,1,0,.23l-.2.23.11.23A1.9,1.9,0,0,0,51,135h.19a.58.58,0,0,0,.52-.52c0-.07,0-.12,0-.17.57.45,2.21,1.93,1.71,3.61C53,139.28,51.79,139.7,50.81,140ZM54,138.13c.55-1.88-.93-3.46-1.71-4.13a4.53,4.53,0,0,0,3.4-3,3.57,3.57,0,0,0,0-1.84,22.81,22.81,0,0,1,2.62-1.7l-.1.15a21.47,21.47,0,0,0-2,3.82c-1.41,3.58-.92,5.07-.9,5.13h0a6.36,6.36,0,0,0,.31,2.85,2,2,0,0,0-1.37.07l-.31.1a2.26,2.26,0,0,1-1,.07A3.06,3.06,0,0,0,54,138.13Zm-.85,2.22a3.15,3.15,0,0,0,1-.12l.34-.11a1.46,1.46,0,0,1,1.44.12,2.18,2.18,0,0,1,1,1.05c0,.05-.07.1-.1.15a2.63,2.63,0,0,0-.17.48,2.51,2.51,0,0,1-2.19.08A3.07,3.07,0,0,1,53.19,140.35Zm2.45,3a1.94,1.94,0,0,1-.78-.55,3,3,0,0,0,.7.1,3.34,3.34,0,0,0,1.15-.21,2.43,2.43,0,0,0,.2.78A2,2,0,0,1,55.64,143.34Zm6,3c.16.21.34.43.42.56l-.3.17a1.89,1.89,0,0,0-.87.67c-.06.13-.09.14-.28.18l-.15,0a1.87,1.87,0,0,0-.63.25,1.11,1.11,0,0,1-.29,0,0,0,0,0,1,0,0v0a4.81,4.81,0,0,0-.59-3c-.17-.24-.36-.48-.56-.72-.69-.83-1.35-1.62-.83-2.69a1.6,1.6,0,0,1,1.27-1h.12a1.68,1.68,0,0,1,1.34.78,3.25,3.25,0,0,1,.42,2.13A2.83,2.83,0,0,0,61,145.5C61.25,145.81,61.45,146.07,61.63,146.29Zm1.16-5.49a1.77,1.77,0,0,1-1.62,1,2.74,2.74,0,0,0-.36-.69,2.86,2.86,0,0,0-.26-.29,3,3,0,0,0,1.07-.43,5.41,5.41,0,0,0,1.13-1A1.23,1.23,0,0,1,62.79,140.81Zm-1.23-3a2.23,2.23,0,0,0,1-.86,4.36,4.36,0,0,1,.06.57,3.63,3.63,0,0,1-.14,1.23h0a4.68,4.68,0,0,1-1.21,1.18,2.74,2.74,0,0,1-1.48.39h0l-.24-.08a4.79,4.79,0,0,0,.15-1.49A7.12,7.12,0,0,1,61.56,137.77Zm-2.77.17a3,3,0,0,1,.08,2.17h-.11a2.08,2.08,0,0,0-1.18.53,3.73,3.73,0,0,1-1.23-1.41,5.64,5.64,0,0,1-.28-2.61,2.21,2.21,0,0,0,.83.37l.43.08A1.74,1.74,0,0,1,58.8,137.94Zm25-37.85a59,59,0,0,1-4.53-7.43c-.38-.69-.74-1.34-1.1-2l.43.06c.3-2.17,1.4-8,2.92-8.94.83-.52,1.42-.92,1.92-1.25l.29-.2C83.62,83.9,83.66,91.9,83.77,100.09ZM98.41,74.78c.6.56.49.93.3,1.29a.77.77,0,0,0,0,.7,1.41,1.41,0,0,1,.06.77,1.22,1.22,0,0,1-.95,1,1.81,1.81,0,0,0,.31-.89,2.59,2.59,0,0,0-.25-1.54.47.47,0,0,1-.08-.32c0-.07,0-.14,0-.21a1,1,0,0,0-.23-1A1,1,0,0,1,98.41,74.78Zm-4,.1h0a3,3,0,0,1,1.25-.27,2.75,2.75,0,0,1,1.1.22c.5.22.49.27.42.63,0,.08,0,.16,0,.24a1.1,1.1,0,0,0,.14.7,2,2,0,0,1,.19,1.2,1.47,1.47,0,0,1-.78,1.09,2,2,0,0,1-1.64.25,2.55,2.55,0,0,0-.71-.19c-.48-.08-.79-.13-1.2-1.63A2,2,0,0,1,94.38,74.88Zm.94-4.27c-.74.23-.89.41-1.09.83,0,.07-.08.16-.14.26s-.18.25-.67.21l-.32,0a2.92,2.92,0,0,0,1.23-.93l.32-.37A2.29,2.29,0,0,1,96,69.82c0,.07,0,.15,0,.22s0,.26,0,.39C95.81,70.47,95.6,70.52,95.32,70.61Zm1.33-.52c0-.15,0-.3,0-.47A1.7,1.7,0,0,1,98,67.74a2.11,2.11,0,0,1,.5-.06,2.28,2.28,0,0,1,1.64.9l.16.16a2.22,2.22,0,0,1-.09,2.27A2.63,2.63,0,0,1,99,72l-.08,0a1.22,1.22,0,0,1-1.66-.33A2,2,0,0,1,96.65,70.09Zm-5.3.32a2,2,0,0,1,.41-1.49c.05,0,.13-.13.23-.11l.28,0a9.78,9.78,0,0,0,1.52,0c.4,0,.7.59.82.92a3.11,3.11,0,0,0-.44.4l-.33.38c-.42.48-.42.48-1.51,1a6.87,6.87,0,0,0-.75.42A4.08,4.08,0,0,1,91.35,70.4Zm-4.54.78c.51.89,1.76,2.84,2.77,2.83a.74.74,0,0,0,.22,0,3.59,3.59,0,0,0,1.05-.69l.57-.45-.17.2a2.9,2.9,0,0,1-.28.31.64.64,0,0,0-.28.67.92.92,0,0,0,.82.62,4,4,0,0,1,1.26.72l0,.08a4.91,4.91,0,0,0-2.06-1c-1.13-.26-2.12.44-3,2.08l0,.09a.78.78,0,0,0,0,.79.91.91,0,0,0-.92-.26,1.52,1.52,0,0,0-.78.69,2.59,2.59,0,0,1-1,1A18.35,18.35,0,0,0,83,80c-.5.33-1.09.73-1.91,1.24-1.9,1.19-3,7.54-3.18,9.12-.91-1.61-1.76-3-2.53-4.28,1.2-.92,4.86-3.91,4-5.21a25.53,25.53,0,0,0-1.62-2,28,28,0,0,1-2.59-3.3,25.32,25.32,0,0,0-2.6-3.41l0,0L72.7,72l.07.15a3.69,3.69,0,0,0,1,1.3c.27.25.65.6,1.27,1.26A27.28,27.28,0,0,1,77.44,78a15,15,0,0,0,1.91,2.53c1.2,1,2.19.16,3.34-.85a10.85,10.85,0,0,1,1.5-1.09,6.23,6.23,0,0,0,1.49-1.18L86,77a2.13,2.13,0,0,1,1.16-.92,3,3,0,0,0,1.6-1.86c0-.27-.16-.51-.57-1a6.54,6.54,0,0,1-.94-1.29,3.11,3.11,0,0,0-1.42-1.35,2.5,2.5,0,0,1-.38-.24.37.37,0,0,1-.12-.19,4.68,4.68,0,0,0,.82-.18A10.34,10.34,0,0,0,86.81,71.18Zm-19.71,3.4q-.49-.85-1-1.83a3,3,0,0,0,1,.23h0a4.08,4.08,0,0,1,.33.88h0l-.16,1.05-.19-.32Zm-6.84-26a24.88,24.88,0,0,1,7.07-9.49,2.76,2.76,0,0,0,.17.43l-.45-.13a9,9,0,0,0-.27,1.58,3.45,3.45,0,0,0-.43-.44l-.42.51a3.49,3.49,0,0,1,.57.65,4.1,4.1,0,0,1,.44.85,6.46,6.46,0,0,1,.1.66,2.75,2.75,0,0,0,.17.78,2.25,2.25,0,0,0,.45.75L67.33,46l-.14.55a9.34,9.34,0,0,1-.67-1.62,13.1,13.1,0,0,1-.36-3.64l-.66,0a17,17,0,0,0,0,1.82L65.47,43a7.51,7.51,0,0,0-.85-.61l-.34.56a7.36,7.36,0,0,1,.76.56,4.25,4.25,0,0,1,.64.7,7.27,7.27,0,0,0,.21.9A9,9,0,0,0,67,47.43l-.32,1.24a.49.49,0,0,0-.53,0,.35.35,0,0,0-.14.25c-.19-.36-.41-.81-.66-1.39a7.28,7.28,0,0,1-.64-3.93L64,43.49a7,7,0,0,0,.09,2.4,2.31,2.31,0,0,1-.18-.19,3.69,3.69,0,0,1-.64-1.16l-.63.19a4.29,4.29,0,0,0,.76,1.4,2.61,2.61,0,0,0,.93.75,9.14,9.14,0,0,0,.35.94,11.92,11.92,0,0,0,1.47,2.7c-.19.75-.37,1.51-.56,2.31v0c-.14-.38-.33-.85-.58-1.38-.52-1.12-.78-1.67-1.14-2.49h0l-.46-1.08a7,7,0,0,1-.61-2.67l-.66,0A7.51,7.51,0,0,0,62.76,48a13.93,13.93,0,0,0-1.2-.75l-.3.55-.11-.07c-.08.13-.45.88.34,2.86-.35-.35-.65-.71-.66-.72l-.51.42.27.31-.18,0a6.94,6.94,0,0,0,.18,2.16,8.9,8.9,0,0,0-.71-.55l-.36.55a9,9,0,0,1,.9.73,4.4,4.4,0,0,1,.66.69h0l.31.71c-.25-.3-.42-.56-.43-.56l-.54.38a10.51,10.51,0,0,0,1,1.24c.34.34.56.54.68.64.1.25.19.51.27.79A5.22,5.22,0,0,1,62.68,59l-.47.66c0-.12,0-.25-.07-.4a6,6,0,0,0-.83-2c-.16-.29-.35-.61-.56-1A3.8,3.8,0,0,1,60.36,54l-.64-.14a4.35,4.35,0,0,0,.17,2.07,2.55,2.55,0,0,1-.26-.39l-.23.08A13.53,13.53,0,0,1,60.27,48.54Zm7.24,26.69.58-1.17.17-.37c.15-.09.68-.4,1.57-1a6.74,6.74,0,0,0,.83-.61,4.26,4.26,0,0,0,.75-.31l.32.38a13.35,13.35,0,0,1-4.17,3.13ZM64.32,63.49v0a4.66,4.66,0,0,0,.83,1.74c-.32-.2-.59-.4-.59-.4l-.39.53.27.19-.15,0a6.19,6.19,0,0,0,.57,1.76c-.4-.2-.63-.28-.65-.29h0A9.28,9.28,0,0,1,64.32,63.49ZM67.83,43.7a2.15,2.15,0,0,1-.13-.61,7.1,7.1,0,0,0-.12-.75h0c0-.11-.05-.22-.08-.35a5.48,5.48,0,0,1,.15-2.25,5.32,5.32,0,0,0,.32.52c0,.1,0,.19.05.29a6,6,0,0,0,.39,1.28l-.16.61c-.11.46-.23.92-.36,1.39ZM69.63,40a2.32,2.32,0,0,1-.36,1.24l0,0C69.38,40.78,69.52,40.36,69.63,40ZM68,46.15l.4-1.51a11.51,11.51,0,0,1,1.3-1.22,4.39,4.39,0,0,0,.69.18l.4.06a5.55,5.55,0,0,1-1.25,1.77,12.29,12.29,0,0,1-1.57.84ZM67,49.9c.55.58,1.37,1.51,2.28,2.64l-.47,0A5.68,5.68,0,0,0,69.12,54a3.35,3.35,0,0,0,.33.66c0,.11,0,.23,0,.37l-.06-.12a4.78,4.78,0,0,1-.49-1.56l-.66,0a3.48,3.48,0,0,0,.06.39l-.15.06-.32-.07c0,.14,0,.26.28.58h-.41a8.15,8.15,0,0,0,.09,1.37,3.22,3.22,0,0,0-.4-.25,10.81,10.81,0,0,0-.2-3.92c-.1-.49-.19-.88-.27-1.22Zm3.77,4.69v-.11l.06.08Zm-.7.76c0-.27,0-.52,0-.72A2,2,0,0,1,70.07,55.35Zm.81,2,.33,0h.3l.32,0a4.85,4.85,0,0,1-.69,1.75,10.77,10.77,0,0,1-1.12,1v0c0-.48,0-.94,0-1.4A10.37,10.37,0,0,1,70.87,57.33Zm1.33,4.4a2.87,2.87,0,0,0,.29-.26h0l.46,0a5.7,5.7,0,0,1-1,2.06,8.2,8.2,0,0,1-.95.83,7,7,0,0,0-.91.81l-.16.17q0-.9,0-1.75a4.32,4.32,0,0,1,.72-.74,5.39,5.39,0,0,1,.72-.52A8.44,8.44,0,0,0,72.2,61.73Zm.12,8.38a1.21,1.21,0,0,0,0,.18,2.72,2.72,0,0,1-.57.54l-.14.1c0-.09.1-.18.14-.28a2.81,2.81,0,0,1,.17-.36h0a5.84,5.84,0,0,1,.64-.9l-.13-.12.15,0,.06,0A5,5,0,0,1,72.32,70.12Zm-5.57-1.25c-.28-.35-.57-.72-.89-1.16a5.56,5.56,0,0,1-.82-1.8l.21.12a5.14,5.14,0,0,0,.75.33l.34.43a18.34,18.34,0,0,1,1.39,1.94,8.21,8.21,0,0,1,.92,1.88c-.08.28-.16.54-.24.79-.1-.21-.22-.44-.38-.72A14.91,14.91,0,0,0,66.75,68.86ZM65,63.14c.25.08.57.19.87.32a5.74,5.74,0,0,1,.74.37c.49.64.83,1.07,1.48,1.87.27.33.49.64.68.9h0a2.36,2.36,0,0,0-.48,1.65,19.53,19.53,0,0,0-1.36-1.89c-.29-.37-.62-.78-1.05-1.37A3.36,3.36,0,0,1,65,63.14Zm.41-2.68A3.51,3.51,0,0,0,66,61a2.4,2.4,0,0,0,1,.45,8.29,8.29,0,0,0,.5.73,10.75,10.75,0,0,0,1.85,2c0,.59,0,1.2,0,1.84l-.09.07c-.18-.26-.39-.55-.65-.86-.67-.83-1-1.25-1.53-1.93h0l-.63-.83a6.62,6.62,0,0,1-1-2Zm3.4-5.29a8.19,8.19,0,0,0,.4.73,2.93,2.93,0,0,1-.65.18,6.18,6.18,0,0,1-.19-1.45c.14.15.27.27.33.32Zm.06,1.61,0-.08a3.39,3.39,0,0,0,.59-.17c0,.08,0,.14,0,.22,0,.39,0,.8,0,1.2l0,0a1.86,1.86,0,0,1-.24-.49,6.23,6.23,0,0,0-.27-.64h0Zm.55-.56,0-.09,0,.06Zm-1.45.56H68c.11.13.19.24.24.3.11.23.19.42.25.57a2.48,2.48,0,0,0,.32.64,2.08,2.08,0,0,0,.55.56c0,.39,0,.78,0,1.18v.42a8.26,8.26,0,0,1-.87-1.19,10.14,10.14,0,0,1-.95-2.49Zm3.59,12.68.14,0c-.08.11-.17.24-.25.37a1.37,1.37,0,0,1-.52.08Zm-.47,1.1h0Zm-2.12-1.94a1.86,1.86,0,0,1,.18-1.41l.14.24A15,15,0,0,1,69,69,3.08,3.08,0,0,1,68.93,68.62Zm1-2.16a2.79,2.79,0,0,1,1.21-.3h0a1.15,1.15,0,0,1,.55.16,6.31,6.31,0,0,1-.76.49,4.74,4.74,0,0,0-1,.74l0,0C69.94,67.21,70,66.83,70,66.46Zm-.8,4.86a2.06,2.06,0,0,1,.39-.42l.09-.07h0l.08-.05a2.09,2.09,0,0,0,.72.22h0a1.06,1.06,0,0,1,.28.14,4.58,4.58,0,0,1-1.23,1l-.8.5C68.83,72.28,69,71.82,69.15,71.31Zm2.33-2.63-1,.69-.81.57-.12-.11c.09-.4.17-.81.23-1.24a5.32,5.32,0,0,1,.6-.56,4.2,4.2,0,0,1,.92-.66c.18-.1.39-.23.63-.4l.41-.08a2.41,2.41,0,0,1,.3.68A5.33,5.33,0,0,1,71.48,68.69Zm.76-2.82a1.93,1.93,0,0,0-1.09-.37l-.35,0c.24-.08.62-.18,1.14-.3a2.8,2.8,0,0,0,1.2-.54A5.44,5.44,0,0,1,72.24,65.87ZM70.16,54.12c0-.16,0-.29.06-.37l.21.28Zm-.5-.82,0,.09a5.22,5.22,0,0,1-.12-.55l.48.61Zm-2.73,3.82c.06.21.13.44.2.69h0l-.4-.18C66.8,57.46,66.86,57.29,66.92,57.12Zm-.47,1.11.38.17a3.82,3.82,0,0,1,.7.47,6.55,6.55,0,0,0,.37.74,8.08,8.08,0,0,0,1.42,1.79c0,.63,0,1.29,0,2A15.08,15.08,0,0,1,68,61.81a6.5,6.5,0,0,1-1.39-3.27h-.28Zm-.46.93a7,7,0,0,0,.46,1.4l-.1-.06a3.1,3.1,0,0,1-.68-.69ZM65,61.4a7.72,7.72,0,0,0,.75,1.32c-.54-.2-1-.34-1.09-.35Q64.81,61.85,65,61.4Zm-.5,1.54h0l.09-.3Zm1,8.38c.27.13.53.24.6.26l0,0c.22.23.4.42.55.61a1.51,1.51,0,0,1-.28-.1,4.1,4.1,0,0,1-.8-.55Zm1.12-.14c-.21-.22-.44-.46-.7-.76a3.38,3.38,0,0,1-.83-1.91l-.53,0c-.06-.24-.12-.49-.17-.74l.59.29a4.12,4.12,0,0,1,.71.45h0l.25.33-.27-.23-.44.49a9.21,9.21,0,0,0,1.16.86c.37.22.6.34.73.41s.27.4.4.62a4.53,4.53,0,0,1,.61,1.38l-.23.59-.12-.26A5.44,5.44,0,0,0,66.58,71.18Zm5.41.29.14-.1c.11-.08.18-.15.26-.22s0,.12,0,.19l-.26.35Zm1-1A1.25,1.25,0,0,0,73,70.3l-.08,0a5,5,0,0,0,.39-1.43l.19-.13-.16-.19a3.88,3.88,0,0,0,0-.8,5.2,5.2,0,0,0,.41-.69l-.6-.28-.07.12L73,66.76l.18,0a2.39,2.39,0,0,0,1.1-.58l-.47-.46a1.73,1.73,0,0,1-.78.4l-.1,0a6.64,6.64,0,0,0,1.17-1.87L73.49,64s-.06.16-.17.38l-.47-.3a1.76,1.76,0,0,1-1,.52l-.07,0a8,8,0,0,0,.7-.65,2.76,2.76,0,0,0,.23-.29,2.81,2.81,0,0,0,.94-.24,1.59,1.59,0,0,0,.73-.73l-.6-.27a1,1,0,0,1-.42.4l-.21.08a9.94,9.94,0,0,0,.59-1.63,1,1,0,0,0,.52-.28l-.33-.19-.05-.1.15-.63a10,10,0,0,1,.55,1.85A12.31,12.31,0,0,1,73,70.56Zm.3-9.78-.21,0a7.46,7.46,0,0,0,.55-1L73,59.48a5.22,5.22,0,0,1-1.19,1.74,8.06,8.06,0,0,1-.75.53,6,6,0,0,0-.79.58l-.29.26c0-.57,0-1.12,0-1.66a14.46,14.46,0,0,0,1.63-1.43,1.86,1.86,0,0,0,.12-.17h.12a1.93,1.93,0,0,0,.66-.1,1.72,1.72,0,0,0,.74-.54l-.53-.39a1.09,1.09,0,0,1-.44.32l-.19,0a8.38,8.38,0,0,0,.41-1.38l-.27-.05.23-.09-.31-.58a2,2,0,0,1-.68.13,6.73,6.73,0,0,0,.4-.58,24,24,0,0,1,2,3.63Zm-1.8-5.22a5.2,5.2,0,0,1-.83,1.15,4.18,4.18,0,0,0-.59.72c0-.2,0-.41,0-.61,0,0,0-.05,0-.08a2.45,2.45,0,0,0,.59-.9,1.8,1.8,0,0,0,.06-.2h0a2.14,2.14,0,0,1,.5-.46l.27.4Zm-4.27-6.33.54-2.07A16,16,0,0,0,69.88,46l.19-.16a2.43,2.43,0,0,0,.7.11h.18a1.87,1.87,0,0,0,.92-.38L71.45,45a1.09,1.09,0,0,1-.87.22,9.24,9.24,0,0,0,.84-1.43l-.32-.15a1.74,1.74,0,0,0,.34,0L71.27,43a2.11,2.11,0,0,1-.79,0l-.07,0a7.77,7.77,0,0,0,.91-.84l-.49-.44a5.83,5.83,0,0,1-1.22,1,5,5,0,0,0-.92.71l.2-.79,0-.1a2.81,2.81,0,0,0,.88-.82,2,2,0,0,0,.13-.21h0a3.83,3.83,0,0,1,1.21-.58l-.2-.63a7.2,7.2,0,0,0-.7.27,3.73,3.73,0,0,0,0-.77l-.57,0a3.54,3.54,0,0,1,.26-.59l-.52-.41a1.43,1.43,0,0,0-.12.2,5.91,5.91,0,0,1,.06-1.12l-.49-.08c.56-.41,1-.71,1.3-.89.6,1.72,2.94,8.85,2.24,12.69a14.11,14.11,0,0,1-1.28,4.3A44.24,44.24,0,0,0,67.18,49.17Zm1.53-9.82a3.54,3.54,0,0,0,.18.81l-.17.54-.07-.28a5.31,5.31,0,0,1-.11-1.83L68,38.49l.7-.54A6,6,0,0,0,68.71,39.35Zm-.85-.44-.21,0-.1-.05.33-.27C67.87,38.67,67.87,38.77,67.86,38.9Zm-4.6,19.24a9,9,0,0,0-.24-1,16.75,16.75,0,0,0-.91-2.29c-.21-.46-.43-.94-.65-1.5A6.24,6.24,0,0,1,61,51.11l.26.25a5.69,5.69,0,0,0,.73.55l.25.56a20.75,20.75,0,0,1,1,2.48,9.17,9.17,0,0,1,.5,2.3Q63.52,57.73,63.26,58.14Zm1.05-1.88a12.59,12.59,0,0,0-.4-1.51,21.49,21.49,0,0,0-1-2.55c-.22-.47-.46-1-.77-1.77-.65-1.58-.46-2.21-.42-2.31.26.16.59.37.9.61a6.15,6.15,0,0,1,.72.61c.34.78.61,1.36,1.1,2.42A14.53,14.53,0,0,1,65.27,54,17.53,17.53,0,0,1,64.31,56.26Zm-3.62,1.33,0,.07c.2.34.36.63.48.91a1.9,1.9,0,0,1-.38-.23,5.17,5.17,0,0,1-.79-.91q-.23-.43-.45-.81l.21.23A6.8,6.8,0,0,0,60.69,57.58Zm.21,1.57a4.24,4.24,0,0,0,.58.23v0a4.19,4.19,0,0,1,.13,1.06h0l-.08.2C61.33,60.14,61.12,59.63,60.9,59.15Zm.87,2.13.4-.47A21.44,21.44,0,0,0,66.24,53l.3-1.23a9,9,0,0,1-1.07,7,20.67,20.67,0,0,0-1.79,4.61,9.44,9.44,0,0,0-.21,3c-.39-1.1-.78-2.27-1.19-3.55C62.12,62.24,61.95,61.75,61.78,61.28ZM72.14,72.67a24.3,24.3,0,0,1,2.5,3.27,28.35,28.35,0,0,0,2.66,3.39c.65.75,1.26,1.47,1.57,1.93s-1.7,2.66-3.79,4.28a58,58,0,0,0-5.66-7.7,19.24,19.24,0,0,1-1.49-2A14.46,14.46,0,0,0,72.14,72.67ZM86.51,67c.24,1.37,0,1.93-.56,2.32a4.34,4.34,0,0,1-1,.18v0l0,0a2.48,2.48,0,0,1-1.52-.35,1.3,1.3,0,0,1-.71-1.52c0-.13,0-.26,0-.38,0-.51,0-1,1.53-1.41a3.89,3.89,0,0,1,.93-.13h.05a1.62,1.62,0,0,0,.2.6l.37,0c.17-.09.19-.23.18-.42A1.6,1.6,0,0,1,86.51,67Zm.67-30.69,0-.07a8.35,8.35,0,0,1,.62-3.76,8.11,8.11,0,0,1,1-1.74,25.72,25.72,0,0,1-.86,3.77l.08,0C87.74,35.1,87.47,35.67,87.18,36.32Zm-1.85-5.25a14.9,14.9,0,0,1,1.12-2.29,1.19,1.19,0,0,0,.28,0,4.65,4.65,0,0,0,1.76-.48,2.22,2.22,0,0,0,.57-.48c0,.56-.06,1.11-.12,1.64a10.83,10.83,0,0,0-1.8,2.78,10.06,10.06,0,0,0-.62,2.41C86.2,33.75,85.79,32.55,85.33,31.06Zm-.41-1.38a21.11,21.11,0,0,1-.61-3,7.94,7.94,0,0,1,2.1-2.86c.67-.58,1.1-.94,1.38-1.18v.05a8.58,8.58,0,0,0-.89,2.17,5.22,5.22,0,0,0-.21,2.27l-.23.32A16.36,16.36,0,0,0,85,30.06Zm3.57-4.42a9.52,9.52,0,0,0-1.17,1.14,7.15,7.15,0,0,1,.23-1.32A8.09,8.09,0,0,1,88,23.75C88.17,24.27,88.32,24.77,88.49,25.26ZM87,27.88a10.21,10.21,0,0,1,1.71-1.95c.11.29.22.56.33.83a3.06,3.06,0,0,1-.84,1,4.4,4.4,0,0,1-1.37.42Zm2.58,1.88.12-.13-.1-.09q.07-.64.1-1.32c.5,1,.9,1.67,1,1.76h0a27.82,27.82,0,0,0-1.5,2.35C89.33,31.58,89.48,30.71,89.59,29.75Zm2.14-5.22h0s.13-2,3.13-5.45a32.22,32.22,0,0,0,3.89-5.4,17.27,17.27,0,0,1-.57,2.77,34.66,34.66,0,0,1-6.53,12A23.31,23.31,0,0,1,91.73,24.53Zm6.8-4.61h0a21.71,21.71,0,0,1-3,4.23,33.85,33.85,0,0,0,2.74-5.73A6.31,6.31,0,0,0,98.54,19.92Zm.9,1.34v0c.15,0,1.34-.41,3-1A28.87,28.87,0,0,0,98.27,23C98.78,22.29,99.16,21.7,99.43,21.26Zm8.31.07A5.55,5.55,0,0,1,109.43,20c0,.12,0,.24.08.39a4.37,4.37,0,0,0,.22.66,11.52,11.52,0,0,1-1.13,1.34l-1.54.5-.06,0A12,12,0,0,1,107.74,21.32Zm6.12.39h.27a5.45,5.45,0,0,0,.55,0l-.1.13a5.52,5.52,0,0,1-1.79,0l-.26,0,.5-.19A3.54,3.54,0,0,0,113.86,21.71ZM110.94,23h0a7.11,7.11,0,0,0-.76-.07,2.17,2.17,0,0,1-.61-.09l-.12,0,1.35-.43.6-.2a6,6,0,0,0,1.3.3l.29,0a5.26,5.26,0,0,0,.53.27,5.56,5.56,0,0,1-2.22.28L111,23Zm1.9.63-.25.22-.19-.14Zm-1-2.31,0,0a2.31,2.31,0,0,1,1.18-.43C112.77,21,112.38,21.14,111.87,21.32Zm-.4-.53a2.67,2.67,0,0,0-.76.91l-.1,0-.76.24a4.89,4.89,0,0,0,.63-.92,5.75,5.75,0,0,1,.95-1.26l-.4-.4c.4.06.76.13,1.09.21a3.23,3.23,0,0,1-.45,1h0Zm-4.19,2.72,1.31-.43a2.28,2.28,0,0,0,.78.4,2.79,2.79,0,0,0,.78.12,6.64,6.64,0,0,1,.67.06,4.08,4.08,0,0,1,.87.38,4,4,0,0,1,.38.25l-.07.06a13,13,0,0,1-3.56-.13,9.32,9.32,0,0,1-1.64-.55Zm-1.37.45a9,9,0,0,0,2.38.9,10.13,10.13,0,0,0,2.23.21H111c-.44.31-.91.62-1.42.94a7.75,7.75,0,0,1-3.72-.42,16.83,16.83,0,0,1-2.17-.92Zm2.44,2.76-.76.4.22-.31-.18-.15Q108,26.7,108.35,26.71ZM104,23a4.53,4.53,0,0,1-.56,1l-2,.61.17-.29a7.4,7.4,0,0,0,.56-1.22,9,9,0,0,1,.57-1.26,6.51,6.51,0,0,1,1.92-1.77,3.72,3.72,0,0,0,.14.57,3.09,3.09,0,0,0-.19.39,9.36,9.36,0,0,0-.34,1A6,6,0,0,1,104,23Zm-5.31,5a20.57,20.57,0,0,1,2.54.82l1,.37c-.67.18-1.32.33-1.95.46-.54-.18-1-.35-1.47-.52a17,17,0,0,0-2.34-.75,9.2,9.2,0,0,0-1-.17l.83-.56A9.35,9.35,0,0,1,98.64,28Zm-4,.85a5.31,5.31,0,0,1,1.68.18c.29.06.55.14.81.22.11.11.31.31.68.63L98,30l-1.09.11a8,8,0,0,0-2.48-.75l-.39,0ZM93.21,30a3.28,3.28,0,0,1,1.09,0,6.53,6.53,0,0,1,.94.18c-1.06,0-1.89,0-2.42,0Zm4,1a16.77,16.77,0,0,1,10,2c-2.12-.48-5.28-.45-9.62,1.44-6.45,2.82-8.61,3.31-9.28,3.38A11.35,11.35,0,0,1,97.23,31Zm1.67-1.06,0,0,.07,0Zm-1.63-5.21c.42-.36,1-.88,1.81-1.44-.08.25-.12.46-.17.65a4.67,4.67,0,0,1-.41,1.19,5.46,5.46,0,0,1-.4.8c-.55.27-1.08.55-1.56.85C96.73,26.3,96.92,25.74,97.27,24.69Zm1.84.67A5.21,5.21,0,0,0,99.56,24a6.81,6.81,0,0,1,.45-1.4l-.05,0c.33-.23.67-.46,1-.69a2.83,2.83,0,0,0,0,.57,12.19,12.19,0,0,1,.06,1.55c-.31.53-.48.79-.57.91h0c-.47.14-.92.31-1.36.49Zm2.55-2.68c0-.08,0-.15,0-.24-.07-.8.22-1,.23-1l0,0,.77-.43a3.46,3.46,0,0,0-.45.6A8.61,8.61,0,0,0,101.65,22.68ZM105.3,20c0-.05,0-.1,0-.15l.2-.06Zm-9.82,5.25.11-.09c0,.08,0,.16.07.24-.35.44-.72.89-1.13,1.38a4.22,4.22,0,0,1,.5-1Zm-1.1,2.72c.56-.64,1.06-1.25,1.52-1.81a1.78,1.78,0,0,1-.1.65h0l-.05.11a2.56,2.56,0,0,1-.32.55h0c-.53.36-1,.71-1.39,1l0-.16ZM92.17,30.8a21.3,21.3,0,0,0,2.24.1h.32a11.57,11.57,0,0,0-4.37,2.74Q91.23,32.15,92.17,30.8Zm-4.4,8a6,6,0,0,0,3,2.1,9.94,9.94,0,0,0-5.26,4c0-.13.08-.27.12-.4C86.3,42.49,87,40.61,87.77,38.84Zm5,9a8.13,8.13,0,0,1-7.4-.39,52.39,52.39,0,0,0,6.39-1.88,29.6,29.6,0,0,0,6.12-2.85C97.61,43.91,96.54,46.44,92.8,47.85ZM98,42.25c0,.07,0,.17-.05.29l-.31-.43A27.81,27.81,0,0,1,91.56,45a51.34,51.34,0,0,1-6.4,1.88A10,10,0,0,1,91,41.57a10.39,10.39,0,0,1,1.75-.36,7.62,7.62,0,0,0,.92-.07A8,8,0,0,1,98,42.25Zm7.9-5a24.13,24.13,0,0,1-4.14.82,13.64,13.64,0,0,0-5,1.39,10.47,10.47,0,0,1-3.14,1c-.32,0-.65,0-1,.07a5.25,5.25,0,0,1-4.38-2.17c1.7-.07,6.59-2.1,9.63-3.42,8-3.48,11.79-.35,12.2,0C109.68,35.49,108.63,36.46,105.9,37.26Zm.66-9.64a26.58,26.58,0,0,1-3.37,1.29l0,0c-.78-.26-1.32-.46-1.8-.64a21.28,21.28,0,0,0-2.61-.84,12.85,12.85,0,0,0-1.52-.3A17.64,17.64,0,0,1,99.48,26a14.52,14.52,0,0,1,2.28.69c1.09.42,1.68.65,2.48.93a6.26,6.26,0,0,1,.65.66l.35-.31.21.07.21-.62-1.1-.38h0c-.84-.3-1.41-.51-2.56-1-.53-.21-1-.36-1.39-.47h0l2.28-.7a12,12,0,0,0,2.78,1.27,9.23,9.23,0,0,0,1,.28,2.62,2.62,0,0,0,.69.77Zm8.4-7a2.94,2.94,0,0,1,.41.12l-.15.25a6.32,6.32,0,0,1-1,.11l.17-.11-.43-.5a3.37,3.37,0,0,1-.58.3v-.56a4.2,4.2,0,0,0-.76.09c.08-.2.13-.39.17-.52a13.84,13.84,0,0,1,1.64.6A4,4,0,0,0,115,20.58Zm-4.05-1.2a7.6,7.6,0,0,0-.74.9l0-.07a2.18,2.18,0,0,1-.09-.77l-.33-.06-.32-.06a1.69,1.69,0,0,0,0,.33l-.17-.31a9.15,9.15,0,0,0-1.37.91,1.1,1.1,0,0,1,0-.28,1.17,1.17,0,0,1,.19-.57l-.11-.08A14.56,14.56,0,0,1,110.92,19.37Zm-3.65,0h0a1.71,1.71,0,0,0-.13.57,2.11,2.11,0,0,0,.15.85,2,2,0,0,0-.15.19,15.61,15.61,0,0,0-1,2.18l-1.86.6c.07-.14.14-.28.21-.45a6.66,6.66,0,0,0,.35-1,8.76,8.76,0,0,1,.31-1,5.85,5.85,0,0,1,1.46-1.83l0,0C106.86,19.44,107.07,19.39,107.27,19.37ZM112,13.21a1.94,1.94,0,0,1-.27,1.67c-.63,1.18-3.86,2.69-7,3.91h0v0c-1.77.68-3.52,1.28-4.77,1.68a23.2,23.2,0,0,0,2.8-2.95v0c.06,0,1.54-.07,4.65-2S111,13,111.06,12.88l-.43-.29.33,0A1.46,1.46,0,0,1,112,13.21Zm0-3.28A3.52,3.52,0,0,1,110.79,12l-.7.51.36,0A16.46,16.46,0,0,1,107,15a15.22,15.22,0,0,1-3.73,1.75,32.67,32.67,0,0,0,2.85-4.45,6.85,6.85,0,0,0,3.92-1.68,5.53,5.53,0,0,0,1.59-1.91C111.87,8.88,112.14,9.2,112,9.93Zm-9.48.66a40.62,40.62,0,0,0,7.21-9.13L110,1a16.65,16.65,0,0,1,.6,3.42,2.56,2.56,0,0,1-.12,1.18.23.23,0,0,1,.13-.07l.11.65h0a1,1,0,0,1,.67.08.53.53,0,0,1,.23.36,1.89,1.89,0,0,1-.46,1.46l-.39.44.18,0a5.15,5.15,0,0,1-1.36,1.57,6.59,6.59,0,0,1-3.13,1.49C109.36,6,109.8,3.08,109.82,3l-.65-.09s-.46,3-3.3,8.58A28.7,28.7,0,0,1,99.43,20l0,0A33.32,33.32,0,0,1,96.2,24.7a1.12,1.12,0,0,1,0-.14,7.08,7.08,0,0,0,.7-.94l0,0c2.82-3.51,2.72-4.62,2.66-4.82l-.53.13C98.79,17.37,98.87,14,102.54,10.6Zm-3.63,1.75-.13-.06a28.48,28.48,0,0,1-4.37,6.36,18.71,18.71,0,0,0-2.27,3.11,21.5,21.5,0,0,1,1.27-4.06A74.51,74.51,0,0,0,97.14,5.81,10.65,10.65,0,0,1,98.91,12.35Zm-5.54-1.48a42.67,42.67,0,0,0,3-4.5,72.5,72.5,0,0,1-3.49,11,18,18,0,0,1-.18-3.22,16.2,16.2,0,0,0,0-2.37C92.88,11.51,93.12,11.21,93.37,10.87Zm-4.29,5.21a8.46,8.46,0,0,1,1.84-2.41c.31-.31.67-.66,1.11-1.16,0,.35,0,.85,0,1.6a20.45,20.45,0,0,0,.37,4.45,22.85,22.85,0,0,0-1,3.63A15.44,15.44,0,0,1,90.82,19a31,31,0,0,0-.37-3.54l-.63.2A31.79,31.79,0,0,1,90.16,19a13,13,0,0,0,1,4.5,22.3,22.3,0,0,0-.07,5.54h.09l-.17.19a26.06,26.06,0,0,1-1.28-2.62c0-.18,0-.35,0-.53a8.28,8.28,0,0,0-1.45-4.76A8.81,8.81,0,0,1,89.09,16.08ZM81.73,21.4a8.12,8.12,0,0,0,2.17-2.84,7.55,7.55,0,0,0,1.86,1.56,6.63,6.63,0,0,1,1.85,1.44c0,.13,0,.26.06.39-.27.21-.76.62-1.7,1.43a8.74,8.74,0,0,0-1.8,2.16,29.4,29.4,0,0,1,.07-6l-.65-.09a29.3,29.3,0,0,0,0,7.24l0,.12.06,0c.08.54.17,1.1.29,1.66a12.56,12.56,0,0,1-4-4.59A4.27,4.27,0,0,1,81.73,21.4Zm-1.79,3.84a16,16,0,0,0,4.21,4.16v0c0,.16.08.32.12.47.12.41.23.8.35,1.18h0c.35,1.16.68,2.15,1,3a9.52,9.52,0,0,1-3.77-2.63l0,0c-.23-.52-.46-1.06-.67-1.66A21,21,0,0,1,79.94,25.24Zm2.75,7.89a13.81,13.81,0,0,0,3.21,1.71c.24.67.45,1.19.61,1.57v.09h0c.14.33.23.54.28.64l-.22.5A14.23,14.23,0,0,1,82.69,33.14ZM65.1,23.64,65,23.8a16.81,16.81,0,0,0-.81,3.11,12.74,12.74,0,0,1-.78-3.3h-.11a5.9,5.9,0,0,1,1.14-2.55A5.19,5.19,0,0,0,65.1,23.64ZM67.39,19c.44.41,2,2.21,1.45,6.55-.51,4-3.2,4.65-4.25,4.74,0-.11,0-.26,0-.44h0a9.57,9.57,0,0,1,.64-1.26A4.78,4.78,0,0,0,67.31,28L67,27.4a4.72,4.72,0,0,1-1.26.49,6.16,6.16,0,0,1,1-1.1l-.42-.51a7.61,7.61,0,0,0-1.61,1.92,20.6,20.6,0,0,1,.32-2,14.39,14.39,0,0,1,2-2.33,1.28,1.28,0,0,0,.31,0,2.53,2.53,0,0,0,.85-.17,6.19,6.19,0,0,0,.72-.3l-.31-.58s-.16.08-.41.18l.58-.37-.35-.56s-.61.38-1.31.87a9.28,9.28,0,0,0-1.63,1.57c.05-.16.1-.31.16-.47,1.09-2.92,2.25-3.74,2.26-3.75l-.37-.55a7.4,7.4,0,0,0-2.11,3.08,4.68,4.68,0,0,1-.23-2.52A6.37,6.37,0,0,1,67.39,19ZM65,28ZM63.19,25.8A21.92,21.92,0,0,0,64,28.23h0c-.07.63-.1,1.17-.11,1.57A9,9,0,0,1,63.19,25.8Zm9.87,7.79.61.09-.26-.56s-.79-1.75-.91-6.47c0-1.49,0-2.57,0-3.44.06-2,.09-2.82-.88-4.32a18.54,18.54,0,0,0-1.36-1.84c-.54-.67-.71-.9-.62-1.12a1.79,1.79,0,0,1,.63-.76c.24.57,1.09,2.54,1.59,2.54h0l.28,0,.06-.24a2.76,2.76,0,0,0,0-.72,4.8,4.8,0,0,1,0-.7c.93-.11,1.35,0,1.39.11s0,.17-.05.31a33,33,0,0,0,.7,15c2.32,8,11.19,9.66,11.28,9.68l.06-.33.31.12c3.18-8,4.76-10.24,7.73-13.66l-.19.71C90,32.16,87.22,37.49,85,44.3a14.48,14.48,0,0,0-.52,2.38c-.13.27-.19.45-.21.49l-.08.21.16.15h0a79.14,79.14,0,0,0,.71,17.54,4.51,4.51,0,0,0-1,.14c-1.82.46-2,1.25-2,2,0,.11,0,.21,0,.32a1.94,1.94,0,0,0,1,2.14,3,3,0,0,0,1.65.47,1,1,0,0,0,.36.64,3.06,3.06,0,0,0,.48.32,2.47,2.47,0,0,1,1.15,1.06,7,7,0,0,0,1,1.44,5.79,5.79,0,0,1,.4.5A2.45,2.45,0,0,1,87,75.43a2.77,2.77,0,0,0-1.46,1.13l-.32.39a5.6,5.6,0,0,1-1.34,1,11.65,11.65,0,0,0-1.58,1.15c-1.29,1.14-1.77,1.46-2.47.85A15.36,15.36,0,0,1,78,77.6a27.84,27.84,0,0,0-2.47-3.33c-.63-.68-1-1-1.3-1.29a3.08,3.08,0,0,1-.86-1.12,3.92,3.92,0,0,1-.2-.46,12.81,12.81,0,0,0,2-9.56c-.41-2.29-2-5-3.61-7.34.39-.56,1-1.83,1.51-4.75.83-4.55-2.27-13.06-2.4-13.42l-.13-.37-.34.19c-.07,0-7.42,4.29-10.56,12.17a14.26,14.26,0,0,0-1,6.83,16.38,16.38,0,0,0-2.33-2.8c1.51-.84,3.83-3.86,3.57-10.58,0-.31-.05-.61-.07-.92l0,0h0a23.3,23.3,0,0,0-1.46-6.63v-.24l0,.14A20.12,20.12,0,0,0,56.13,30a8,8,0,0,0,1.41-.71c.79.33,3.26,1.43,7.85,3.94s7.23,2.54,8.08,2.41L75,39.88a16.59,16.59,0,0,0,3.71,6.28c-.23,4.26-.44,7.28-1.32,7.5-1.13.28-2.77.76-2.79.76l-.24.07v1.7l.4-.09c1.09-.25,4-.62,4.56.59.74,1.7,3.28,8.9,3.3,9l.62-.22c-.1-.3-2.57-7.3-3.32-9S76.14,55.18,75,55.39V55c.5-.14,1.66-.47,2.52-.68,1.34-.33,1.53-2.54,1.86-8.87l-.51,0a16.75,16.75,0,0,1-3.28-5.74L74,35.11l-.11-.31-.31.1s-2.36.72-7.88-2.3c-4.1-2.24-6.49-3.35-7.55-3.82a3.82,3.82,0,0,0,.64-.69,17.49,17.49,0,0,0,3.89,2.32A43.57,43.57,0,0,0,73.06,33.6ZM49,41.38a4.18,4.18,0,0,0,0-.47,3.42,3.42,0,0,1,0-.48h0A7.13,7.13,0,0,1,49,39.14l-.2,0,.14-.17a4.29,4.29,0,0,0,.35-.54,19.48,19.48,0,0,0,0,2.3c0,.12-.06.23-.12.37S49,41.28,49,41.38Zm-11-3.5-.06,0a11.48,11.48,0,0,1,1.15-.28,6.34,6.34,0,0,1,.94-.12c.81.3,1.41.5,2.51.87a13.91,13.91,0,0,1,2.2.94,18.14,18.14,0,0,1,1,2.39,12.14,12.14,0,0,0-1.39-.78,20.28,20.28,0,0,0-2.55-1c-.49-.17-1-.36-1.81-.66C38.23,38.53,38,37.88,38,37.88Zm3.51-5.33a17.56,17.56,0,0,0,.72-2.45,2.25,2.25,0,0,0,0-.27,2.93,2.93,0,0,0,.33-.23,12,12,0,0,0,1.11.5,4.73,4.73,0,0,1-.19,1.57,9.58,9.58,0,0,1-.41,1,7.4,7.4,0,0,0-.41,1.06c-.05.17-.11.36-.15.54ZM38,29.29l-.31-.18a5.48,5.48,0,0,1-1.53-1.74,5,5,0,0,0,.62.13l.25.16a5.7,5.7,0,0,0,1.19.61l.32.55.78,1.31-.17-.06a2.06,2.06,0,0,1-.52-.33A6.73,6.73,0,0,0,38,29.3h0Zm-2.19-3.84a5.42,5.42,0,0,0,.84.82,3.5,3.5,0,0,0,.71.43l.29.56-.28-.16A5.13,5.13,0,0,1,36,25.89l-.18.13C35.82,25.82,35.82,25.64,35.82,25.45Zm11.86-1.57a21.11,21.11,0,0,1,3.19.83,12.73,12.73,0,0,1-4,2.75,10.3,10.3,0,0,1-2.72.68,12.4,12.4,0,0,0,1-1,7.56,7.56,0,0,0,1.66-2.45A4.33,4.33,0,0,0,47.68,23.89Zm8.05,5.51a18.29,18.29,0,0,0-1.55-1.85l-.09-.09a.52.52,0,0,0-.61-.08,6.93,6.93,0,0,0-2.08,2.88,30.46,30.46,0,0,1-3.37.06h-.16a10.57,10.57,0,0,0,2.87-1.21A9.08,9.08,0,0,0,54,26,21.8,21.8,0,0,1,58,28,6.12,6.12,0,0,1,55.73,29.39Zm3.41,15.76-.3,0a2.31,2.31,0,0,1-.5.93l0,0c0-.05,0-.1,0-.16a3.18,3.18,0,0,1,.09-.41h0a6.71,6.71,0,0,1,.42-1.06l-.15-.08.16-.11a4.35,4.35,0,0,0,.37-.32C59.21,44.39,59.18,44.78,59.14,45.15Zm-5.85.74c-.33-.24-.68-.49-1.07-.81a4.54,4.54,0,0,1-1.14-1.45l.27.05a4.91,4.91,0,0,0,.72.06h0l.38.28a14.74,14.74,0,0,1,1.69,1.37,6.7,6.7,0,0,1,1.23,1.45q0,.45-.07.86a6.93,6.93,0,0,0-.48-.53A11.87,11.87,0,0,0,53.29,45.89Zm-4-8.13-.42-.12a3.11,3.11,0,0,1-.32.63,7.61,7.61,0,0,0,.18-1.62c.29.66.42,1.05.42,1.07l.13,0S49.3,37.73,49.29,37.76Zm5.59-4.16a4.22,4.22,0,0,0,.6-.21l.23-.11a5.16,5.16,0,0,1-.31,1.83,12.4,12.4,0,0,1-.84,1.32l-.25-1.27A12,12,0,0,1,54.88,33.59ZM57,37.32a3.4,3.4,0,0,0,.22-.36l.4-.17A6.25,6.25,0,0,1,57.1,39a10,10,0,0,1-.72,1.11,8.09,8.09,0,0,0-.69,1.07l-.1.2q-.17-.81-.33-1.57a5,5,0,0,1,.54-1,6.64,6.64,0,0,1,.57-.74C56.54,37.93,56.72,37.72,57,37.32Zm2.24,4.45v0l-.35-.07,0,0a2.49,2.49,0,0,0,.28-.2C59.23,41.59,59.24,41.68,59.25,41.78Zm-1.4,3.42a1.45,1.45,0,0,1-.39.23l.47-.58.05,0C57.94,44.94,57.89,45.07,57.85,45.2Zm-1.75-.55a5.91,5.91,0,0,1,.46-.75,5.15,5.15,0,0,1,.74-.94c.15-.16.32-.34.51-.59l1.05-.62a6.53,6.53,0,0,1-1.19,2.37l-.79,1c-.32.39-.56.7-.76,1C56.13,45.6,56.13,45.13,56.1,44.65Zm3.16-1.43-.15-.1L59,43.3c.12-.23.21-.45.29-.64C59.26,42.85,59.26,43,59.26,43.22Zm-.64-2.09a7.44,7.44,0,0,0,.48-1.23c0,.25,0,.5.06.75A2.09,2.09,0,0,1,58.61,41.13Zm-.92.29a7.75,7.75,0,0,1-.88,1.1,5.74,5.74,0,0,0-.81,1h0c0-.36-.11-.73-.18-1.08v0c.06-.13.18-.39.46-.92h0a13.16,13.16,0,0,1,1.22-.82,3.41,3.41,0,0,0,.9-.76A6,6,0,0,1,57.69,41.41Zm-6.63-5.21-.64.17a5.47,5.47,0,0,0,1,1.75l-.16,0a2.54,2.54,0,0,1-.89-.54l-.39.39a22,22,0,0,1,1.38-5.84,7.09,7.09,0,0,0,.3,1,2.69,2.69,0,0,0-.48-.11l-.07.66a2.39,2.39,0,0,1,.65.2,3,3,0,0,1,.61.39,5.12,5.12,0,0,1,.34.45,2.13,2.13,0,0,0,.44.52,1.81,1.81,0,0,0,.61.34l.21,1.08.09.47A6.59,6.59,0,0,1,53,36.23a9.85,9.85,0,0,1-1.63-2.54l-.6.27a13.11,13.11,0,0,0,.7,1.34h-.06a6.41,6.41,0,0,0-.9,0l0,.66a6,6,0,0,1,.79,0,3.17,3.17,0,0,1,.71.2,5.33,5.33,0,0,0,.49.57,6.65,6.65,0,0,0,1.68,1.22c.12.61.25,1.25.38,1.91a12,12,0,0,1-1.57-1A5.39,5.39,0,0,1,51.07,36.21Zm2.25-2.71c.08.39.16.79.24,1.2l0,0a1.48,1.48,0,0,1-.31-.37,5.11,5.11,0,0,0-.39-.53h0l-.19-.21a4.27,4.27,0,0,1-.71-1.7,4.1,4.1,0,0,0,.38.19l.14.18a4.54,4.54,0,0,0,.77.77C53.25,33.15,53.28,33.31,53.32,33.49Zm-1.8-1.92.15.11-.21,0Zm2.09-.23a1.88,1.88,0,0,1,.08.55Q53.64,31.58,53.61,31.34Zm-.06-.58v-.11l.28-.05Zm-1,.2a2.91,2.91,0,0,0,.44.51c0,.12,0,.25.06.4l-.07-.08a4.31,4.31,0,0,1-.62-1h.11Zm-3.08,5.63c-.18-.42-.43-1-.77-1.63l0-.12-.11,0a26.64,26.64,0,0,0-1.87-3,1.72,1.72,0,0,0,0-.34l-.23,0-.6-.79A13.75,13.75,0,0,0,48,31l1.25,0c.66,0,1.26,0,1.83-.06A23,23,0,0,0,49.44,36.59Zm-1.38-.42a6.76,6.76,0,0,1-.46,3l-.54,1.3c-.25.61-.44,1.07-.58,1.45-.18-.57-.39-1.16-.63-1.75a6.3,6.3,0,0,1,.24-1,5.25,5.25,0,0,1,.49-1.24c.11-.22.24-.47.37-.8.14-.13.64-.63,1.06-1.07a2.77,2.77,0,0,0,.29-.36l.2.41ZM47.94,35a2.22,2.22,0,0,1-.41.6l-.16.16a7.43,7.43,0,0,0,.13-1.55Q47.74,34.65,47.94,35Zm-3.7-6.21.42-.05,0,.49Zm-1-.11.46.47h-.06l0,.19L43,29.09A2,2,0,0,0,43.22,28.71Zm1.13,1.62.13,0-.13.13C44.35,30.44,44.35,30.39,44.35,30.33ZM46,32a1.24,1.24,0,0,1-.12.28,1.94,1.94,0,0,1-.22.29,10.29,10.29,0,0,0-.22-1.3Zm-.37,1.91a3.3,3.3,0,0,0,.05-.46,3.38,3.38,0,0,0,.76-.83l.41.61-.12,0s0,.2.06.51h-.63A2.18,2.18,0,0,1,45.48,35l-.16.17A10,10,0,0,0,45.66,33.9Zm-.8,2.78h0A13.66,13.66,0,0,1,46,35.42a3,3,0,0,0,.88-1.5,6.55,6.55,0,0,1-.23,2.26,7.81,7.81,0,0,1-.6,1.46A5.84,5.84,0,0,0,45.46,39l0,.16a14.76,14.76,0,0,0-.71-1.3l0,0C44.69,37.66,44.74,37.33,44.86,36.68Zm2.81,4,.37-.88.2-.18c0,.19,0,.4,0,.63a1.84,1.84,0,0,1-.57.51Zm2.25-2.62a3.1,3.1,0,0,0,.31.24l-.34.15C49.9,38.34,49.91,38.21,49.92,38.08Zm1.09.64a2.41,2.41,0,0,0,.75.13l.24,0a6.7,6.7,0,0,0,.61.51,8.94,8.94,0,0,0,2.13,1.3c.13.64.27,1.29.42,2-.25-.21-.54-.45-.9-.71-1.09-.77-1.46-1-2.58-1.9a5.05,5.05,0,0,1-1.44-1.68A3,3,0,0,0,51,38.71Zm.37,2.36a4.84,4.84,0,0,1,.75.1c.57.43,1,.72,1.75,1.26a10.15,10.15,0,0,1,1.46,1.23,15.74,15.74,0,0,1,.11,2.11,9.29,9.29,0,0,0-.82-.86,15.39,15.39,0,0,0-1.75-1.42c-.34-.25-.73-.53-1.26-.95-1.08-.86-1.16-1.41-1.16-1.48A8.93,8.93,0,0,1,51.38,41.07ZM56,47.44h0a2.3,2.3,0,0,1,.29-.56l.07-.1h0a1.51,1.51,0,0,1,.75-.57,2.74,2.74,0,0,0,.49-.15,4.36,4.36,0,0,1-1.15,2l-.59.67C56,48.37,56,47.92,56,47.44ZM58.64,39s0,.19-.1.46L58,39.27a2.12,2.12,0,0,1-.81.8c.14-.2.28-.43.44-.72a3.23,3.23,0,0,0,.17-.37,3.16,3.16,0,0,0,.84-.54,1.74,1.74,0,0,0,.15-.18c0,.25.09.51.13.76Zm-.07-1.57a1.23,1.23,0,0,1-.33.56l-.12.09a10.74,10.74,0,0,0,.2-1.66l.08-.05q.15.53.27,1.08ZM57.74,36l-.12.07A8.4,8.4,0,0,0,57.91,35l-.65-.12a6.1,6.1,0,0,1-.79,2.06,9.47,9.47,0,0,1-.6.76,7.35,7.35,0,0,0-.62.81l-.2.32-.3-1.5A17,17,0,0,0,56,35.41a2.14,2.14,0,0,0,.09-.22,2.13,2.13,0,0,0,.72-.35,2,2,0,0,0,.57-.73l-.61-.25a1.38,1.38,0,0,1-.37.47l-.11.07A9.13,9.13,0,0,0,56.38,33h-.25a1.62,1.62,0,0,0,.19-.15l-.46-.47a2.27,2.27,0,0,1-.54.31,8.41,8.41,0,0,0,.33-.94L55,31.62A6.09,6.09,0,0,1,54.45,33a4.8,4.8,0,0,0-.39.85l-.1-.48,0-.09a2.76,2.76,0,0,0,.37-1,2,2,0,0,0,0-.22h0a4.17,4.17,0,0,1,.72-1l-.49-.44s-.21.23-.39.47a3.08,3.08,0,0,0-.19-.43,14,14,0,0,0,1.48-.38A19.65,19.65,0,0,1,58,35.13ZM52.8,30.1a5.42,5.42,0,0,1-.22-.55l-.09,0A5,5,0,0,1,53.7,28h0a17.6,17.6,0,0,1,1.37,1.6A15.1,15.1,0,0,1,52.8,30.1Zm.62-4.39a8.62,8.62,0,0,1-3,2.81A8.09,8.09,0,0,1,47,29.77v.45A12.71,12.71,0,0,1,45.6,30a.34.34,0,0,0,0-.07h-.38L45,29.64l-.28-.88a11.74,11.74,0,0,0,2.44-.67A13.59,13.59,0,0,0,51.55,25C52.24,25.22,52.86,25.47,53.43,25.71Zm-8.67,1a7.28,7.28,0,0,1-1.38,1.19l-.17-.17-1.33-1.28a10.94,10.94,0,0,0,3-.61,7,7,0,0,0,.83-.36A7.75,7.75,0,0,1,44.75,26.74Zm-2,1.49h-.07a1.45,1.45,0,0,1-.21.57l-.34-.2a10.68,10.68,0,0,0-.34-1.17l-.34.12a1.86,1.86,0,0,0,.22-.28l-.58-.32a2.45,2.45,0,0,1-.53.52l-.11-.09a8.65,8.65,0,0,0,0-1.1l-.66,0s0,.2,0,.47c-.21-.21-.4-.42-.59-.63.08-.23.18-.45.26-.61l-.59-.29-.14.32A15.12,15.12,0,0,1,37,22.64l2.14,2.08C40.16,25.74,41.38,26.93,42.73,28.22Zm-1.53-.45.08.26-.21-.15Zm-2.08.71-.06-.1a2.86,2.86,0,0,0,0-1.25c0-.06,0-.12,0-.18.22.23.46.46.7.69a2.84,2.84,0,0,1-.07.34,5.6,5.6,0,0,0-.14,1.23Zm-.68-1.25s0,.07,0,.1c-.31-.56-.53-1-.68-1.3A2.41,2.41,0,0,1,38.45,27.23Zm-2.5.07-.22.12c0-.06,0-.13,0-.19Zm4.27,3a12.52,12.52,0,0,1,0-1.88l.27-.16c.31.25.64.48,1,.71a3.1,3.1,0,0,1,.06,1,13.64,13.64,0,0,1-.51,1.81l0-.08ZM43,35.15a5.05,5.05,0,0,1,.26-1.22,6.71,6.71,0,0,1,.38-1,10.07,10.07,0,0,0,.43-1.06,3.49,3.49,0,0,0,.12-.46,4,4,0,0,0,.49-.38A7,7,0,0,1,45,33.77a10.14,10.14,0,0,1-.41,1.42,8.35,8.35,0,0,0-.39,1.37l-.07.39Zm-3,5.32A5.67,5.67,0,0,0,41,40.3l.57.2a19.67,19.67,0,0,1,2.48,1,8.82,8.82,0,0,1,2,1.25q.16.56.27,1.07a8.54,8.54,0,0,0-.88-.52,15.72,15.72,0,0,0-2.29-.93c-.47-.16-1-.33-1.53-.56a6,6,0,0,1-1.94-1.32Zm1.85,2.18h0l.85.31c-.45,0-.84-.08-.84-.09l-.1.65a10.44,10.44,0,0,0,1.36.1h.25c.49,0,.78-.05.94-.07s.49.22.75.35a5,5,0,0,1,1.4,1c.06.32.11.62.15.87l-.35-.24a5.78,5.78,0,0,0-2-.75c-.32-.08-.69-.17-1.12-.29A3.67,3.67,0,0,1,41.3,43.1l-.55.36a4.25,4.25,0,0,0,1.69,1.38l-.2,0a18,18,0,0,1-2.33-2A10,10,0,0,1,41,42.66,4.29,4.29,0,0,1,41.93,42.65Zm1.82,2.78.37-.07.08,0a9.9,9.9,0,0,1,1,.29l-.24.08A12.54,12.54,0,0,0,43.74,45.42ZM46,46h0l.25.17-.34-.14Zm.89-2.83h0a2.42,2.42,0,0,1,.13-.7l0-.13h0a1.65,1.65,0,0,1,.65-.85,3.11,3.11,0,0,0,.61-.38,4.34,4.34,0,0,1-.54,2.67l-.52,1.11C47.13,44.42,47,43.83,46.85,43.19Zm3-4.2a6.13,6.13,0,0,0,1.27,1.41,11.39,11.39,0,0,0-1.18,0L50,41H49.9c0-.08,0-.15,0-.23a2.23,2.23,0,0,0,.08-1l-.11,0C49.85,39.49,49.85,39.24,49.86,39Zm1.25,4c-.38-.09-.71-.2-.71-.2l-.19.55a17.48,17.48,0,0,1-.27-1.73A4,4,0,0,0,51.11,43Zm-.67.5-.13,0A5.35,5.35,0,0,0,51.24,45l-.6-.06c-.16-.49-.29-1-.4-1.57Zm1,2.27a3.21,3.21,0,0,1,.74.19h0l.37.28L52.18,46l-.27.6a7.68,7.68,0,0,0,1.27.44c.38.09.62.12.75.14s.32.28.48.44a3.92,3.92,0,0,1,.83,1.07c0,.25-.07.48-.11.67L55,49.21a4.45,4.45,0,0,0-1.4-1.08c-.24-.14-.5-.29-.81-.49a2.78,2.78,0,0,1-1.14-1.5l-.54.13c-.08-.2-.16-.41-.24-.62Zm.39,2-.05,0,0-.07Zm1.35.94,0,0c.25.14.46.26.64.4a1.42,1.42,0,0,1-.33,0,3.73,3.73,0,0,1-.93-.29l-.06.14-.26-.38A5.56,5.56,0,0,0,53.21,48.68Zm.28,1.09h.2a3.07,3.07,0,0,0,.8-.12,3.55,3.55,0,0,1,.46.67h0L55,51.59a11.8,11.8,0,0,1-1.89-1.89A2.65,2.65,0,0,0,53.5,49.77Zm2.11.62s0-.18.09-.42.54-.59,1.3-1.45a8,8,0,0,0,.66-.86,5.39,5.39,0,0,0,1.22-1.19l.1-.15c-.62,3.38-2,4.78-2.58,5.2a1.7,1.7,0,0,1-.89.42l-.06,0-.17-.12ZM58,26.49l-.27,0a1.12,1.12,0,0,0,.26.78,27.73,27.73,0,0,0-4.1-2,4.76,4.76,0,0,0-.39-1.87v-.07a6.3,6.3,0,0,0-2.06-4.67C55.19,20.14,57.21,24.39,58,26.49ZM48.71,18a7.7,7.7,0,0,1,1.42.19l0,0a8.3,8.3,0,0,1,2.59,3.62,16.47,16.47,0,0,0-3.89-3.67l-.37.55a17.89,17.89,0,0,1,3,2.55l-.1-.09a15.63,15.63,0,0,0-2-1.56l-.34.57a15.21,15.21,0,0,1,1.94,1.49c1,.87,1.53,1.42,1.82,1.71a2.77,2.77,0,0,0,.24.23,4.5,4.5,0,0,1,.32,1.32c-.54-.22-1.13-.45-1.78-.69-.45-.17-.9-.31-1.36-.44a6.08,6.08,0,0,0-1.55-2.63,6.15,6.15,0,0,0-.53-.52A8.54,8.54,0,0,0,46.6,18,19.72,19.72,0,0,1,48.71,18Zm-2.9.12A8.5,8.5,0,0,1,47,19.91a12.41,12.41,0,0,0-2.33-1.16l-.21.62a12.14,12.14,0,0,1,2,1c-.47,0-1,0-1.72,0l0,.66a16.23,16.23,0,0,1,2.7,0h0a5.54,5.54,0,0,1,.53.51,6.44,6.44,0,0,1,1.29,2,25.67,25.67,0,0,0-4-.67,4,4,0,0,0-.87-1.33c0-.35-.3-.93-1.18-2.19-.21-.3-.38-.55-.46-.7l-.57.33c.09.16.28.43.49.75l.54.8A6.49,6.49,0,0,0,41,19.47l-.12.65a5.65,5.65,0,0,1,1.6.68,8.48,8.48,0,0,0-4.7-.07l.09.32.13.3c.52-.18,2.47-.67,5.77.54l.13,0a4,4,0,0,1,.69.91,28.21,28.21,0,0,0-5,.1l.09.65a27.64,27.64,0,0,1,4-.13,7.82,7.82,0,0,1-2.1,1.39l.27.6a8.46,8.46,0,0,0,2.72-1.95c.76,0,1.56.13,2.4.26a5.17,5.17,0,0,1-2.26,1.48,10.18,10.18,0,0,1-3.49.59l-1.62-1.58c-1.41-1.38-2.37-2.3-3-2.92A22,22,0,0,1,45.81,18.07Zm-10,3.51a15.58,15.58,0,0,0,2.09,4l-.24.29a3.64,3.64,0,0,1-.23-.61l-.65.08a1.88,1.88,0,0,0,.08.29,5.92,5.92,0,0,1-.79-.86l-.29.21a25.27,25.27,0,0,0-.45-3.49l-.06-.35Zm-.16,6.25a8.6,8.6,0,0,0,.8,1.08,3.31,3.31,0,0,0-.67,0l.1.65a3.35,3.35,0,0,1,.86,0,3.93,3.93,0,0,1,.93.27,6.24,6.24,0,0,1,.54.38,2.68,2.68,0,0,0,.68.42,2.28,2.28,0,0,0,.85.19h0l.69,1.18.31.52a8.85,8.85,0,0,1-1.66-.64,12.66,12.66,0,0,1-2.86-2.31l-.49.45a16.32,16.32,0,0,0,1.37,1.29H37a8.15,8.15,0,0,0-1,.21l.18.63a7.53,7.53,0,0,1,.94-.19A4.26,4.26,0,0,1,38,32a7,7,0,0,0,.79.48,8.55,8.55,0,0,0,2.41.83l1.2,2v0a15.67,15.67,0,0,1-2.3-.68,7.06,7.06,0,0,1-3.27-2.29l-.55.37a6.86,6.86,0,0,0,1.83,1.66h-.31a3.55,3.55,0,0,1-1.28-.34l-.31.58a4.14,4.14,0,0,0,1.55.41H38A2.49,2.49,0,0,0,39,35a8.81,8.81,0,0,0,.92.4,11.48,11.48,0,0,0,3,.78c.4.67.82,1.36,1.26,2.07l0,.07c-.38-.17-.86-.36-1.43-.56-1.14-.38-1.73-.58-2.6-.9h0l-1.09-.41A6.71,6.71,0,0,1,36.73,35l-.48.45A23.38,23.38,0,0,1,35.68,27.83Zm.58,7.63A7.23,7.23,0,0,0,38.74,37a13.56,13.56,0,0,0-1.44.4l.21.6-.14,0c0,.16.31,1,2.35,1.79-.53,0-1,0-1.05,0l0,.66H39l-.15.12A6.76,6.76,0,0,0,40.6,42a8.71,8.71,0,0,0-1,.15l.12.49a10.67,10.67,0,0,1-1.24-1.56A18.65,18.65,0,0,1,36.25,35.46Zm3,10.64a9.59,9.59,0,0,1,3.44-.15h0l.74.12-.06.34a6.48,6.48,0,0,0,.93.07,3.53,3.53,0,0,0,.48,0h.05a14.56,14.56,0,0,1,2.23,1l.37.91-.06.28.2.06v0a3,3,0,0,1,1.51,1.15c.22.33.39.62.54.88a4.58,4.58,0,0,0,1.21,1.5l.25.18-.91.16A4.13,4.13,0,0,1,49,51.65c-.18-.17-.34-.34-.5-.51s-.06-.41-.14-.82a8,8,0,0,0-.47-1.38l-.6.27s.16.36.3.78l-.53-.68h0a3.31,3.31,0,0,1-.2-.82,7.11,7.11,0,0,1-.09-1.06l-.66,0a7.73,7.73,0,0,0,.07.95,5.84,5.84,0,0,0-1.84-1.06l-.06.18c-.05-.18-.1-.31-.1-.32l-.62.21a8,8,0,0,1,.25,1l0,0c-1.3-1.56-2.22-1.49-2.32-1.47l0,.2L40.88,47a12,12,0,0,0-.06,1.46,6,6,0,0,0-2.15-1.7l-.25.61a5.41,5.41,0,0,1,1.91,1.54c1,1.23,1.28,1.62,2.13,2.78a12.55,12.55,0,0,0,.86,1l-.13,0-2.3-.4A9,9,0,0,0,39.44,50a6.89,6.89,0,0,0-.58-.65,2.21,2.21,0,0,0-.1-1.09A3.25,3.25,0,0,0,38,47l-.45.48a2.61,2.61,0,0,1,.6,1,1.87,1.87,0,0,1,.07.32,6,6,0,0,0-2.12-1.08l-.14.64a5.85,5.85,0,0,1,3,2.06,11.8,11.8,0,0,1,1.18,1.75H40l-2.22-.36a6.72,6.72,0,0,0-1.37-1.81,5.62,5.62,0,0,0-.64-.52,3,3,0,0,1-.21-.78,6,6,0,0,1,0-.87l-.66,0a6.52,6.52,0,0,0,0,1c0,.06,0,.12,0,.18a14.34,14.34,0,0,0-1.64-.79l-.24.62a10.76,10.76,0,0,1,2.9,1.71,6.71,6.71,0,0,1,1,1.21l-.63-.1L35,51.32a1.79,1.79,0,0,0-.38-.67,2.2,2.2,0,0,0-.59-.47,5.91,5.91,0,0,1-.51-.35,3,3,0,0,1-.44-.67,2.45,2.45,0,0,1-.22-.72l-.33,0-.33,0a3,3,0,0,0,.15.63,7.94,7.94,0,0,0-1.28-.36A44.46,44.46,0,0,1,39.27,46.1Zm10,2.65c0,.07.07.16.11.28A3.63,3.63,0,0,0,47.58,48l0-.32A19.23,19.23,0,0,1,49.26,48.74Zm-2.53,7.56q-.66.14-1.4.26a8.56,8.56,0,0,1,1.14-.46h0l0,0A4.13,4.13,0,0,1,47,56l.31-.08-.16.13C47,56.15,46.86,56.23,46.73,56.31ZM37,54.82c.47-.33.72-.54.95-.73a8.2,8.2,0,0,1,.88-.66A6.11,6.11,0,0,1,40,52.79l1.9.32-.31.16a10.16,10.16,0,0,0-1.24.79A12.34,12.34,0,0,1,39,54.9a8,8,0,0,1-2.68.68,3.91,3.91,0,0,0,.23-.49A4.24,4.24,0,0,0,37,54.82Zm-1.79,1.49,0,0-.11,0Zm.69,0a13,13,0,0,0,2-.3,2.06,2.06,0,0,1-.16.19,1.6,1.6,0,0,1-.69.41l0,.16q-.69-.11-1.35-.27Zm2.33.36a3.75,3.75,0,0,0,.65-1,4,4,0,0,0,.45-.21,11.75,11.75,0,0,0,1-.62l0,0a2.63,2.63,0,0,1-1.06,1l.19.54c-.34.09-.56.13-.56.13l.06.34c-.33,0-.66,0-1-.08A2.13,2.13,0,0,0,38.27,56.64Zm2.64-1.39a15,15,0,0,1,1-1.39h0c.64-.34,1-.49,1.1-.55h.06c.43.08.88.13,1.32.17l-.08,0a7.15,7.15,0,0,0-1.22.92,9.5,9.5,0,0,1-1.3,1,7.87,7.87,0,0,1-1.91.89A3.85,3.85,0,0,0,40.9,55.25Zm2.09-4c-.6-.82-.93-1.26-1.42-1.88a5.09,5.09,0,0,1-.1-.83,10.48,10.48,0,0,1,0-1.32l0,.26s.68,0,1.73,1.24c.47.57.78,1,1.06,1.36A15.59,15.59,0,0,0,45.94,52a9.73,9.73,0,0,0,1,.92,19.3,19.3,0,0,1-2.59,0A10.78,10.78,0,0,1,43,51.25Zm1.51-2.82c0-.13,0-.27-.07-.4a4.92,4.92,0,0,1,1.77,1.26c.35.41.63.79.9,1.15a12.07,12.07,0,0,0,1.44,1.69,7.11,7.11,0,0,0,.66.56l-1.14.12a7.17,7.17,0,0,1-1.66-1.31,15,15,0,0,1-1.54-1.81l-.31-.42A4.85,4.85,0,0,0,44.51,48.43Zm1.66,7.09-.54.2.07-.13.8-.62,0,0A1.85,1.85,0,0,1,46.17,55.52ZM42,56.83c.34-.52.72-1.14.82-1.29.29-.22.51-.41.7-.59a6.43,6.43,0,0,1,1.13-.86,6.62,6.62,0,0,1,.91-.55l.5,0c.41,0,.81,0,1.2,0-.32.24-.7.53-1.19.92l-1.16.91a8.33,8.33,0,0,1-2.84,1.41l0,.17-.21,0Zm2.08-.16-.1.09h-.1Zm1.08-.23.08.15-.21,0Zm1.91-1.14a3.07,3.07,0,0,0,.19-.58,1.87,1.87,0,0,1,.7-.87h0l.12-.08a3.25,3.25,0,0,1,.66-.35h0c.61-.07,1.17-.15,1.65-.23l-.87.74A5.45,5.45,0,0,1,47.09,55.29Zm4.24-3.61a3,3,0,0,0,.16-1.11v0c.68.62,1.23,1.2,1.62,1.63h-1A2.75,2.75,0,0,1,51.33,51.68Zm-.75-1.93a3.38,3.38,0,0,1,.25.88,1.77,1.77,0,0,1,0,.51,7.27,7.27,0,0,1-.52-.79l0-.05a6.55,6.55,0,0,0-.07-.88Zm-16,3.43a6.58,6.58,0,0,1-2.21.41c0-.09.1-.18.15-.29a4.36,4.36,0,0,0,.26-.69,14.73,14.73,0,0,1,1.88-.69l1.54.24A16.26,16.26,0,0,1,34.55,53.19Zm-4.68-1.94c.31,0,.72.06,1.25.13h0A2.3,2.3,0,0,1,29.87,51.24Zm.78-2L30.5,49l.2-.09Zm.15,1.29.19.16-.65-.07a3,3,0,0,0-.59-.47,4.5,4.5,0,0,0-.86-.41l.46-.19,0,.19A4.43,4.43,0,0,1,30.8,50.54Zm1.28.31a4.59,4.59,0,0,0-.87-.83l-.2-.15a4,4,0,0,0-.26-.49,5.06,5.06,0,0,1,2.1.75,5.59,5.59,0,0,0,.84.61,1.6,1.6,0,0,1,.43.33l.08.11-1.52-.25Zm-7.29-1.19a5,5,0,0,0,2.59.51,4.68,4.68,0,0,0,.9-.2l-.06.25a5.53,5.53,0,0,1,.93.35l-.29,0,.13.65a3.48,3.48,0,0,1,.58,0l-.27.48a3.22,3.22,0,0,0,.59.24c-.3.22-.55.44-.6.48l.43.5A5.25,5.25,0,0,1,31,52.06h0l.27,0a3.35,3.35,0,0,0,1.22-.45l.12,0,.66.11a6.39,6.39,0,0,0-1.09.5,7.88,7.88,0,0,1-1.63.67l.18.63a10.28,10.28,0,0,0,1.18-.43,2.71,2.71,0,0,1-.42.67l.46.47a2,2,0,0,0,.22-.28v.31a11.24,11.24,0,0,0,1.62-.16,1.29,1.29,0,0,1-.12.18,1.75,1.75,0,0,1-.58.44l.26.61a2.41,2.41,0,0,0,.83-.63,2.46,2.46,0,0,0,.42-.81l.29-.12a21.85,21.85,0,0,0,2.25-1.46l1.81.29-.43.28a9.07,9.07,0,0,0-.93.7c-.22.18-.45.38-.9.7a7.8,7.8,0,0,1-2.44.95l.13.65a10.36,10.36,0,0,0,1.31-.38l-.14.23-1,.38C29,54.44,25.5,50.88,24.79,49.66ZM40,57a9.18,9.18,0,0,0,1.47-.61l0,.07A2.58,2.58,0,0,1,41,57C40.68,57,40.35,57,40,57Zm8.27-1.08a6,6,0,0,0,.65-.73h0a9.73,9.73,0,0,0,1-.76c1.07-.9,1.64-1.41,1.73-1.49l.5-.12,1.2-.3.28.33C53.32,53.35,52,54.85,48.3,55.92Zm6.24-3.69.11,0h-.14a33,33,0,0,0-4.22-3.82l-.12.17-.43-.32a.82.82,0,0,0-.11-.14l0,0a19.08,19.08,0,0,0-2.12-1.32l0-.27s0-.21-.06-.48.43-.85.94-2A8.15,8.15,0,0,0,48.77,43h0a5.57,5.57,0,0,0,.57-.85,16.5,16.5,0,0,0,1.88,6l0,0,.11.08a12.34,12.34,0,0,0,3.77,4.24v.2l0-.17a.65.65,0,0,0,.41.13A1.43,1.43,0,0,0,56,52.5l-.19.22A17.53,17.53,0,0,1,59,56.85a14,14,0,0,0,2.15,4.85l-.3.72.45-.53.07.1c.11.31.22.62.32.95.48,1.51.95,2.88,1.4,4.15l-.75.07c-.63-2-1.34-4.36-2.42-7A27.2,27.2,0,0,0,54.54,52.23Zm1.94,20.44c0-.14-.1-.3-.14-.46a3.65,3.65,0,0,1-.09-.48c.16-.46.26-.8.45-1.43a7.33,7.33,0,0,1,.47-1.2,10.45,10.45,0,0,1,1-.44c-.08.15-.17.31-.26.51a11.14,11.14,0,0,0-.56,1.48c-.09.29-.19.6-.35,1A2.31,2.31,0,0,1,56.48,72.66Zm-3.82-.47a6.17,6.17,0,0,1-1.11,1.44h0a1.85,1.85,0,0,1,.11-.45,3.62,3.62,0,0,1,.21-.31,1.59,1.59,0,0,0,.26-.43,1.47,1.47,0,0,0,.1-.46l.64-.37,0,0A4.52,4.52,0,0,1,52.66,72.19Zm-2.93-.85h-.07l0,0Zm1,.12a3.15,3.15,0,0,0-.24-.32l0,0A3,3,0,0,1,51.5,71a6.68,6.68,0,0,1,.79.19l-.56.32A8.22,8.22,0,0,1,50.69,71.47Zm-.12-1.06h0Zm.52,2.43h0v0L51,73a2.43,2.43,0,0,1-.73.68v-.05l.07-.1a3.51,3.51,0,0,0,.34-.67l.28-.16.38-.22A4.12,4.12,0,0,0,51.09,72.84Zm2-2.13a10.9,10.9,0,0,0-1.47-.39h-.12a1.55,1.55,0,0,0-.38-.38L51,69.86l0-.06a4,4,0,0,1,1.44.06,6.38,6.38,0,0,1,.61.23,4.88,4.88,0,0,0,.67.24h0Zm-.7-2.33h.13c-.29.05-.53.11-.68.16.15-.24.31-.48.48-.72Zm8.56.93h0l0-.09c0,.06,0,.12,0,.18Zm-1.52-1.7a1.7,1.7,0,0,1-.39-.07l-.07,0h0a.92.92,0,0,1-.46-.31,1.77,1.77,0,0,0-.11-.16,3.09,3.09,0,0,1,1.34.32l.27.12Zm-2.53-.14.81.31.51.19-.62.23a4.25,4.25,0,0,1-.55-.13,3.29,3.29,0,0,1-.75-.27c-.14-.06-.29-.13-.48-.21l-.43-.38A4.3,4.3,0,0,1,56.88,67.47Zm-1.76.59a5,5,0,0,1,.89.33,4.05,4.05,0,0,0,.62.24l-.43.24-.63-.09a9.69,9.69,0,0,1-.76-.6,2.64,2.64,0,0,0-.34-.24A3.56,3.56,0,0,1,55.11,68.06Zm-.55,1.16a6.34,6.34,0,0,0,.74.2l-.71.42a3.78,3.78,0,0,1-.68-.14,4.33,4.33,0,0,1-.59-.21,7,7,0,0,0-.67-.25l-.25-.06-.06-.08A3.79,3.79,0,0,1,53.7,69,6.54,6.54,0,0,1,54.56,69.21Zm.2,3.09a4.84,4.84,0,0,0,.19-.48,6.85,6.85,0,0,0,.4-1.68l.89-.53c-.05.15-.11.3-.16.48-.27.9-.37,1.2-.69,2.13a3.85,3.85,0,0,1-.51,1,2,2,0,0,0,0-.22A1.64,1.64,0,0,0,54.76,72.31Zm3.29-.7a3.55,3.55,0,0,0-.11-.47l.09-.3a10.67,10.67,0,0,1,.53-1.41,4.76,4.76,0,0,1,.66-1.09l.31-.08c0,.08-.09.14-.14.24a8.48,8.48,0,0,0-.51,1.35c-.08.27-.17.56-.3.88A3,3,0,0,1,58.05,71.61Zm1.83-1.92c0-.23,0-.39-.06-.49s.1-.26.17-.4a2.81,2.81,0,0,1,.48-.74l.2,0a3.36,3.36,0,0,0-.39,1.15c0,.18-.08.39-.14.63a1.77,1.77,0,0,1-.25.55A4.9,4.9,0,0,0,59.88,69.69Zm1.57-1.17a2.47,2.47,0,0,0-.14-.27c.18-.28.28-.37.27-.37h0l.12,0C61.64,68,61.56,68.23,61.45,68.52Zm-5.91-3.37C59,63.79,61.35,67,61.45,67.09l.11-.08.07.22-.21,0-.26,0L60,66.75a5.57,5.57,0,0,0-.69-.24,3.66,3.66,0,0,0-1-.55,1.84,1.84,0,0,0-1-.13l.16.62-.43,0,0,.1-.06,0a2.6,2.6,0,0,0-.73-.37l-.13.48a4.46,4.46,0,0,0-.94,0l0,.4a2,2,0,0,0-.77-.39l-.13.65.16.05a5.12,5.12,0,0,0-1.08.06l.12.65.29,0v.36l.09,0-.18,0a2.19,2.19,0,0,0-.53-.43,1.37,1.37,0,0,0-.67-.16A6.93,6.93,0,0,1,55.54,65.14Zm-8.46,8.2-.06,0a13.77,13.77,0,0,1,2.28-1.68l0,.38a4,4,0,0,1,1,.06,2.48,2.48,0,0,0,.34,0l0,0h0a2,2,0,0,0-.76,0l-.14,0h0a3.11,3.11,0,0,1-.78-.24l-.27.6.24.1-.16.16L49,73l-.25.09.06.43c-.32,0-.6,0-.83,0A2.08,2.08,0,0,1,47.08,73.35Zm10.28.87c-2.39,1.4-4,.78-5.61.13l-.55-.2.34-.07V74l.27.3s.28-.26.59-.61c.06.25.13.44.13.44l.62-.22a4.2,4.2,0,0,1-.14-.52,2.09,2.09,0,0,1,0-.47,3.8,3.8,0,0,0,.26-.44,4.83,4.83,0,0,0,.44-1.37l.93-.54a10,10,0,0,1-.3,1,3.71,3.71,0,0,1-1.25,1.81l.37.55a3.7,3.7,0,0,0,.77-.76,1.85,1.85,0,0,1-.13.44l.59.3a2.26,2.26,0,0,0,.11-.27l.29.32a4.25,4.25,0,0,0,.77-1.18c.09.28.18.51.19.52l.46-.19.06.22c.09,0,.5-.16.91-1v.06h.66v-.06l0,0a3.86,3.86,0,0,0,.68-.76c0,.15.06.24.06.25l.63-.2a4.78,4.78,0,0,1-.13-.65,2.26,2.26,0,0,1,0-.5h0v0l.34,0a2.08,2.08,0,0,1-.23.21l.36.56a2.47,2.47,0,0,0,.64-.67A9,9,0,0,1,57.36,74.21Zm11.55,5.88c-.69-.87-1.47-1.85-2.58-3.48a30.64,30.64,0,0,1-3.91-9.06l.7-.27q.59,1.62,1.16,3l-.1.07a1.51,1.51,0,0,0,.23.25l.38.88a26.78,26.78,0,0,0,2.13,4.08l.22.35v0l0,0a20.25,20.25,0,0,0,1.75,2.34C71.24,80.93,74,84.56,78.66,93c2.8,5.11,4.43,7.49,5.12,8.11,0,1.62,0,3.24.07,4.83-.79.13-5,1.06-8.68,6.64-3.87,5.93-5.6,7.24-10,10.18s-6.75,5-7.72,8.85a8.77,8.77,0,0,0-.19,4.77l-.17,0a1.64,1.64,0,0,1-.7-.35,1.13,1.13,0,0,0-.33-.2H56a11.07,11.07,0,0,1,.95-4.08,20.92,20.92,0,0,1,1.9-3.71c.39-.62.55-.88.38-1.14a.46.46,0,0,0-.48-.19,12.79,12.79,0,0,0-3.22,1.87,4.16,4.16,0,0,0-.4-.72A32.09,32.09,0,0,0,63.56,123c5.21-3.89,6.24-4.9,9.2-9l.17-.24c2.81-3.92,4.22-5.88,6.13-7.38a11.49,11.49,0,0,1,3.43-1.86l-.18-.61,0,0,.4-.52c-.79-.6-5.89-8.88-9.25-15.79A32.86,32.86,0,0,0,68.92,80.09ZM75.2,92.42c3,5.54,6.26,10.76,7.08,11.5a12,12,0,0,0-3.64,2,21.43,21.43,0,0,0-3.86,4.22A11.5,11.5,0,0,0,74.73,100a20.75,20.75,0,0,1-1.87-5.13c-.23-1.05-.34-1.36-1.64-2.19a24.42,24.42,0,0,1-3.76-3.08,3.53,3.53,0,0,1,.56.14C70.28,90.52,74.24,92,75.2,92.42ZM50,104.81a15.8,15.8,0,0,1,.91-6.09h.59A2.37,2.37,0,0,1,52,97.58c.1-.14.2-.26.3-.37a4.22,4.22,0,0,0-.1.63,3.49,3.49,0,0,1-.08.5h0a7.08,7.08,0,0,1-.42,1.27l.2.09-.19.13a3.77,3.77,0,0,0-.93.94l.56.35a3.33,3.33,0,0,1,.63-.65,7.29,7.29,0,0,0-.82,2.29l.65.09A6.73,6.73,0,0,1,53.08,100L54,98.82c.44-.56.77-1,1-1.33,0,.66.1,1.36.21,2.07a6.23,6.23,0,0,1-.5.89,5.19,5.19,0,0,1-.84,1.11c-.18.19-.37.4-.6.69-.18.1-.83.44-1.39.76a2.8,2.8,0,0,0-1,1l.58.3a2.18,2.18,0,0,1,.79-.77l.31-.18a7.9,7.9,0,0,0-.78,2.78l.66,0a7,7,0,0,1,.94-2.93,7.65,7.65,0,0,1,1-1.29,5.78,5.78,0,0,0,.92-1.22l.12-.2a16,16,0,0,0,.42,1.61l0,.06c-.06.16-.19.48-.49,1.11h0a13.88,13.88,0,0,1-1.47.93,2.63,2.63,0,0,0-1.37,1.42l.64.17s.17-.51,1.06-1l.35-.21a10,10,0,0,0-.76,1.26,3.31,3.31,0,0,0-.17.44,3.47,3.47,0,0,0-1,.62,1.9,1.9,0,0,0-.57,1.07l.66.08a1.23,1.23,0,0,1,.37-.66,2,2,0,0,1,.37-.26,11.61,11.61,0,0,0-.12,2.29c-.25.16-.47.34-.51.49l.37.09.19.18.08,1.17-.08-.05C52.57,110.92,50.21,109.55,50,104.81Zm9.3-10.63c.24.29.48.6.73.94L59.63,95a7.76,7.76,0,0,0-1.24-.19l-.09-.05a11,11,0,0,1-1-.63,2.27,2.27,0,0,1,.57,0,5.7,5.7,0,0,1,1.26.42ZM58,95.33c.32.18.68.38,1.1.64a4.21,4.21,0,0,1,1.69,2l.63-.21a4.71,4.71,0,0,0-1.44-1.94,2.75,2.75,0,0,1,.62.28l.05-.06a23.76,23.76,0,0,1,1.49,2.65A11.15,11.15,0,0,1,61,98.49a5,5,0,0,1-1-.28h0l-.89-.62c.5.17.93.37.94.37l.27-.6a11.33,11.33,0,0,0-1.65-.59c-.53-.13-.85-.19-1-.22-.23-.18-.47-.38-.71-.6a5.69,5.69,0,0,1-1.23-1.42c0-.36,0-.7.07-1l.34.39A6.63,6.63,0,0,0,58,95.33Zm5.19,8.91h.21a13.38,13.38,0,0,1-1.76-.06,6.74,6.74,0,0,1-1-.17c-.78-.55-1.35-.94-2.41-1.65a15.92,15.92,0,0,1-2.07-1.64,19.18,19.18,0,0,1-.4-2.77A13.38,13.38,0,0,0,57,99.22,23.18,23.18,0,0,0,59.4,101c.47.32,1,.68,1.72,1.23,1.65,1.24,1.71,2,1.71,2Zm-8.3,4.2a3.44,3.44,0,0,0-.25.43,4.12,4.12,0,0,0-.65.25h0a7.25,7.25,0,0,1,.43-2.91,10,10,0,0,1,.8-1.31,8.24,8.24,0,0,0,.77-1.27l.2-.43q.36,1.16.69,2.25a5,5,0,0,1-.59,1.16,6.54,6.54,0,0,1-.65.87A10.43,10.43,0,0,0,54.87,108.44Zm-2-9.23-.34.16a7.21,7.21,0,0,0,.22-.71,2,2,0,0,1,.83-.36l-.09.11Zm7.48,1.68-.56-.39a22.83,22.83,0,0,1-2.33-1.78,10,10,0,0,1-1.78-1.9c0-.43,0-.83,0-1.21a9.53,9.53,0,0,0,.82.84,18.26,18.26,0,0,0,2.15,1.64c.46.31.93.64,1.46,1a7,7,0,0,1,1.71,2l-.45-.1A6.29,6.29,0,0,0,60.33,100.89ZM55,96.15h0a2.37,2.37,0,0,1-.31.67l-.08.12h0a1.65,1.65,0,0,1-.91.66,3.16,3.16,0,0,0-.8.22,4.28,4.28,0,0,1,1.27-2.6l.9-1C55,94.75,55,95.41,55,96.15Zm9.19,17.53A2.5,2.5,0,0,0,64,114a12.35,12.35,0,0,0,0,2.9,31.56,31.56,0,0,1,0,3.45c-1-.64-3.47-2.21-5.14-3.05a7.84,7.84,0,0,1-3-3.3l-.09-.16a8.2,8.2,0,0,0-2.18-2.37l.33-1.61.35-.18,0,0a8.74,8.74,0,0,0-.32,1.53l.66.06a6.43,6.43,0,0,1,.78-2.48,9.49,9.49,0,0,1,.69-.89,7.29,7.29,0,0,0,.71-.95c.1-.16.22-.35.33-.55l.63,2.14a17.44,17.44,0,0,0-1.4,2.26,2.24,2.24,0,0,0-.09.27,2.39,2.39,0,0,0-.88.39,2,2,0,0,0-.64.86l.62.22a1.24,1.24,0,0,1,.76-.73,10.17,10.17,0,0,0,0,1.85l.43,0a2.12,2.12,0,0,0-.35.25l.46.47a2.43,2.43,0,0,1,.77-.4l.15-.05a8.48,8.48,0,0,0-.4,1.36l.65.13a6.42,6.42,0,0,1,.57-1.65,5.79,5.79,0,0,0,.48-1.27l.29,1,0,.12a3,3,0,0,0-.36,1.26,2.19,2.19,0,0,0,0,.27h0a4.18,4.18,0,0,1-.81,1.23l.49.44a7.68,7.68,0,0,0,.54-.69,4.11,4.11,0,0,0,.41.8l.51-.36a3.81,3.81,0,0,1,.09.73l.65.08a2.08,2.08,0,0,0,0-.36,6.42,6.42,0,0,1,.65,1.18l.61-.25a6.7,6.7,0,0,0-.85-1.48,3.87,3.87,0,0,0-.63-.66c0-.21-.11-.45-.18-.72l.3.31A5.86,5.86,0,0,1,61.8,117l.62-.24a4.3,4.3,0,0,0-.2-.42l.21-.16.33,0c0-.14-.1-.25-.55-.56l.5-.14a9.79,9.79,0,0,0-.67-1.71,4.12,4.12,0,0,0,.72.2l.09-.65a3.78,3.78,0,0,1-.9-.3,4.5,4.5,0,0,1-.91-.56,7,7,0,0,1-.47-.56,3,3,0,0,0-.59-.62,2.47,2.47,0,0,0-.86-.46l-.41-1.38-.21-.7a10.29,10.29,0,0,1,1.61,1.19,14.4,14.4,0,0,1,2.4,3.22l.58-.31A18.2,18.2,0,0,0,62,111.06l.18,0a8.66,8.66,0,0,0,1.14.1v-.66a8,8,0,0,1-1-.09,4.83,4.83,0,0,1-1-.31,7.94,7.94,0,0,0-.71-.73,9.83,9.83,0,0,0-2.31-1.58c-.23-.78-.47-1.6-.73-2.44,0,0,0,0,0,0a17.6,17.6,0,0,1,2.26,1.41,8.06,8.06,0,0,1,2.83,3.35l.62-.23a7.66,7.66,0,0,0-1.5-2.27,2.72,2.72,0,0,1,.37.1,4.08,4.08,0,0,1,1.26.74l.45-.49a4.69,4.69,0,0,0-1.49-.88,2.85,2.85,0,0,0-1.3-.18,10.07,10.07,0,0,0-.87-.69,13,13,0,0,0-2.91-1.71c-.25-.81-.51-1.64-.78-2.51l0-.12c.36.29.82.65,1.39,1,1.11.74,1.66,1.12,2.47,1.7h0l1,.76a7.69,7.69,0,0,1,2.08,2.17l.58-.32a8.21,8.21,0,0,0-2.24-2.36c.45,0,.89.05,1.2.05h.45l0-.66h.12c0-.17-.06-1.08-2-2.51l-.06,0a11.63,11.63,0,0,1,1.17.34l.22-.62-.46-.15.19-.09a7.63,7.63,0,0,0-1.44-2,10.31,10.31,0,0,0,1.06.14l0-.45a27.39,27.39,0,0,1,1.61,4.35C65.92,110.7,64.64,112.87,64.16,113.69Zm-3.58-.76.27.28A6.21,6.21,0,0,1,62,115.47a5.79,5.79,0,0,0-.66-.35l-.22-.25a6.72,6.72,0,0,0-1.09-1l-.2-.68c-.16-.52-.32-1.05-.48-1.59l.21.14a2.37,2.37,0,0,1,.47.5,7.52,7.52,0,0,0,.53.63h0Zm-1,1.74c.22.79.35,1.36.43,1.75a2.74,2.74,0,0,1-.46-1.55C59.54,114.78,59.56,114.73,59.57,114.66ZM58,113.11a4.74,4.74,0,0,0-.76.22,4.54,4.54,0,0,0-.45.19A6.17,6.17,0,0,1,57,111.1a13.73,13.73,0,0,1,1-1.72l.07.22.48,1.62A12.65,12.65,0,0,1,58,113.11ZM56.77,91.29l-.18.28a13.17,13.17,0,0,1,2.31,2.16,5,5,0,0,0-1-.27,3.66,3.66,0,0,0-1.3.1l0,0a4.4,4.4,0,0,1-.72-.94h0l-.16-1.16A9.26,9.26,0,0,0,56.77,91.29Zm-1.55,1.3s0,.22-.07.5c-.11.12-.62.68-1.5,1.7a8,8,0,0,0-.74,1,5.53,5.53,0,0,0-1.37,1.3,26.39,26.39,0,0,1,2.68-4.44A5.06,5.06,0,0,0,55,91.48l.44,0Zm-9.71,20.47c-1.57,2.8-2,8.66-2.11,11.37-1-2.28-3-7-2.84-8.82a21,21,0,0,0-.35-5.14c-.22-1.57-.52-3.73-.83-6.82C38.67,96.45,46,92,46.06,91.94l0-.08.58,0c.42.29,1.49,1.41,1.77,5.44C48.73,102.74,47.51,109.5,45.51,113.05Zm-16.88-3.41h0ZM26.73,114l-.5,1.77a17.27,17.27,0,0,1-1.73,1.69,4.93,4.93,0,0,0-.9-.08h-.51a7.87,7.87,0,0,1,1.61-2.26,20.42,20.42,0,0,1,2.08-1.3Zm1.22-4.41a7.07,7.07,0,0,1-1.31.93,9.83,9.83,0,0,1-1.17.61c-.31.14-.67.3-1.26.63a5,5,0,0,0-.52.34,4.79,4.79,0,0,0-.8,0A9.54,9.54,0,0,1,25,109.45a14.66,14.66,0,0,1,1.58-1,12,12,0,0,0,1.48-.93l.49-.37Q28.26,108.42,27.95,109.58Zm-6.33,3.23,0,.12-.06.12Q21.61,112.93,21.62,112.81Zm0-.53a17.42,17.42,0,0,1,.27-1.81l.29.22a1.93,1.93,0,0,1,.82-.55,2.84,2.84,0,0,1,.49-.12,14.76,14.76,0,0,0-1.46,2.17Zm4.62-7.08c-.2,0-1.08.12-1.83.22a3.82,3.82,0,0,0-.74.18c.11-.22.22-.44.35-.65l.42.33a9.74,9.74,0,0,1,3-2.33l1.6-.79c.77-.38,1.34-.66,1.78-.9-.35.64-.69,1.32-1,2a8.76,8.76,0,0,1-1.05.7,7.7,7.7,0,0,1-1.5.77C27,104.86,26.67,105,26.27,105.2Zm1.11-4.73.43-.25.48-.23a5.47,5.47,0,0,0-.4.51,4.77,4.77,0,0,1-.4.48l0,0v0a10,10,0,0,1-1.14,1l.14.19-.32.06-.4.12C26.27,101.73,26.82,101.08,27.38,100.47Zm.25,1.65-.38,0c.19-.17.41-.37.63-.6a2.55,2.55,0,0,1,1-.06l-.17.08Zm5-2.52a7.79,7.79,0,0,0,.32,1.16,10.45,10.45,0,0,0,.94,2c.21.37.45.79.74,1.38h0c-.1.93-.22,1.9-.35,2.9-.21-.41-.4-.75-.58-1.06a18.18,18.18,0,0,1-1.24-2.58,8.37,8.37,0,0,1-.63-2.48C32.06,100.43,32.33,100,32.59,99.59Zm1.83,2.81a9.72,9.72,0,0,1-.89-1.88,4.75,4.75,0,0,1-.36-1.81c.27-.4.53-.76.73-1q0,.23.11.53a4.39,4.39,0,0,0,.43,1.06,3.53,3.53,0,0,1,.49,1.59c-.06.66-.13,1.35-.21,2.07Zm-2.82-2.5h0a3.43,3.43,0,0,1-.74.56l-.15.09h0a2.38,2.38,0,0,1-1.36.32,3.62,3.62,0,0,0-.85-.09,6.46,6.46,0,0,1,2.81-2l1.48-.65C32.43,98.6,32,99.21,31.6,99.91Zm-6.53,3.49a4.9,4.9,0,0,1,1-.38,10.78,10.78,0,0,0-1.61,1.32c.2-.33.41-.65.63-1Zm6.2-1.54a11,11,0,0,0,.54,1.76,18.83,18.83,0,0,0,1.28,2.66c.27.49.58,1,1,1.82l.05,0c-.14,1.07-.3,2.16-.47,3.27,0,.22-.09.43-.13.65a8.14,8.14,0,0,0-.48-1.12c-.87-1.69-1.16-2.2-2-3.71a12.86,12.86,0,0,1-1.06-2.32A22.29,22.29,0,0,1,31.26,101.86ZM35,99a3.82,3.82,0,0,1-.37-.9,3.75,3.75,0,0,1-.15-1.17h0l.89-2c-.06,1-.16,2.43-.31,4.21Zm.37-4.17-1.45,1.75-.38.49c-.19.08-1.06.45-2.51,1.09a11.67,11.67,0,0,0-1.36.71,6.57,6.57,0,0,0-1,.26,35.77,35.77,0,0,1,6.72-5.05C35.43,94.25,35.41,94.51,35.39,94.81Zm-12.7,13c.16-.42.35-.83.53-1.23h0a3.31,3.31,0,0,1,1.29-.47l.35,0a10.73,10.73,0,0,0-2.36,2.34l.54.38a9.93,9.93,0,0,1,2.69-2.51,11.35,11.35,0,0,1,1.77-.88,8.37,8.37,0,0,0,1.6-.82l.27-.16a17,17,0,0,0-.52,1.66l0,.08c-.14.12-.47.39-1.16.91l0,0a18.73,18.73,0,0,1-2,.36,3.61,3.61,0,0,0-2.1.81l.47.46a3.18,3.18,0,0,1,1.72-.62l.38-.05a14.14,14.14,0,0,0-1.45.91,4.62,4.62,0,0,0-.46.38,4.45,4.45,0,0,0-1.37.21,2.57,2.57,0,0,0-.77.43A16.08,16.08,0,0,1,22.7,107.76Zm2,17.82a25.29,25.29,0,0,1-3.1-12l.79-.75.54-.05h0a11.82,11.82,0,0,0-1.18,1.32l.53.39a9.12,9.12,0,0,1,2.27-2.14c.57-.32.9-.46,1.21-.61a10.39,10.39,0,0,0,1.24-.64c.26-.15.48-.3.68-.43L27,112.93a25.51,25.51,0,0,0-2.73,1.67,3.06,3.06,0,0,0-.28.26,3.08,3.08,0,0,0-1.12,0,2.85,2.85,0,0,0-1.08.56l.44.49a2.18,2.18,0,0,1,.8-.41,1.79,1.79,0,0,1,.42,0,12.6,12.6,0,0,0-1.05,1.75l.37.18a2.63,2.63,0,0,0-.48.11l.23.62a2.82,2.82,0,0,1,1-.11h.11a11.46,11.46,0,0,0-1.17,1.14l.5.44a9.16,9.16,0,0,1,1.56-1.41,8.48,8.48,0,0,0,1.27-1.09l-.27,1,0,.16a3.89,3.89,0,0,0-1.11,1.08,2.67,2.67,0,0,0-.17.27h0a6.39,6.39,0,0,1-1.58.92l.26.61c.08,0,.51-.22,1-.47a3.85,3.85,0,0,0-.06.88l.66-.06a2.89,2.89,0,0,1,.47-1.75c.09-.12.17-.2.25-.29a11.48,11.48,0,0,1-1,2.7l.52.4A2.88,2.88,0,0,0,25,122a5.78,5.78,0,0,1,0,1.45l.65.11a6.2,6.2,0,0,0,0-1.75,3.33,3.33,0,0,0-.23-.87c.1-.27.2-.59.31-1,0,.14.09.31.15.51a5.19,5.19,0,0,1,.14,2l.65.12a4.29,4.29,0,0,0,.05-.62l0,0,.32,0,.29.15c.09-.16.06-.33-.3-.92a4.17,4.17,0,0,0-.47-.62c0-.1,0-.2-.07-.3A5.37,5.37,0,0,0,26,119l.2-.72q.25-.93.52-1.89a1.74,1.74,0,0,1,.33.94,6.33,6.33,0,0,0,.15.82h0v0c0,.11.06.23.1.36a6.19,6.19,0,0,1-.25,2.78l.63.19a9.41,9.41,0,0,0,.36-2.08,3.8,3.8,0,0,0,.71.58l.33-.57a3.14,3.14,0,0,1-.7-.61,3.61,3.61,0,0,1-.54-.85,6,6,0,0,1-.13-.71,2.51,2.51,0,0,0-.22-.84,2.1,2.1,0,0,0-.56-.75l.42-1.48.25-.91a7.94,7.94,0,0,1,.94,1.82,12.51,12.51,0,0,1,.45,4l.66,0a16.24,16.24,0,0,0-.07-2.27l.29.2a8.1,8.1,0,0,0,1.06.52l.24-.61a7.71,7.71,0,0,1-1-.48,4,4,0,0,1-.79-.65,6.58,6.58,0,0,0-.26-1,8,8,0,0,0-1.33-2.39c.24-.87.5-1.79.75-2.74,0,0,0-.06,0-.09a13,13,0,0,1,1.46,2.28,6.88,6.88,0,0,1,.8,4.25l.65.14a7.42,7.42,0,0,0-.87-4.7,10.61,10.61,0,0,0-1.84-2.72c.23-.87.47-1.76.7-2.69,0-.11.07-.22.1-.33a14.8,14.8,0,0,0,.8,1.62c.86,1.5,1.15,2,2,3.68a6,6,0,0,1,.71,2.33A23.66,23.66,0,0,1,24.68,125.58Z"/><polygon class="cls-1" points="59.34 70.6 59.34 70.61 59.34 70.61 59.34 70.6"/></g></g></svg>